G04 ================== begin FILE IDENTIFICATION RECORD ==================*
G04 Layout Name:  D:/gerber/EVK2_BM92T70-DEVICE-EVK-101_BRD_REV04_2016-03-18.brd*
G04 Film Name:    PANEL*
G04 File Format:  Gerber RS274X*
G04 File Origin:  Cadence Allegro 16.6-2015-S060*
G04 Origin Date:  Fri Mar 18 09:47:47 2016*
G04 *
G04 Layer:  DRAWING FORMAT/OUTLINE*
G04 Layer:  DRAWING FORMAT/PANEL*
G04 Layer:  BOARD GEOMETRY/OUTLINE*
G04 Layer:  BOARD GEOMETRY/LOGO_OUTLINE*
G04 *
G04 Offset:    (0.000 0.000)*
G04 Mirror:    No*
G04 Mode:      Positive*
G04 Rotation:  0*
G04 FullContactRelief:  No*
G04 UndefLineWidth:     5.000*
G04 ================== end FILE IDENTIFICATION RECORD ====================*
%FSLAX55Y55*MOIN*%
%IR0*IPPOS*OFA0.00000B0.00000*MIA0B0*SFA1.00000B1.00000*%
%ADD10C,.007098*%
%ADD11C,.005*%
G75*
%LPD*%
G75*
G54D10*
G01X1024480Y-236709D02*
X1024300Y-236689D01*
G01X1026250Y-236709D02*
X1024480D01*
G01X1024440Y-233399D02*
X1024240Y-233419D01*
G01X1026250Y-233399D02*
X1024440D01*
G01X1018050Y-234499D02*
X1018130Y-234649D01*
G01X1018000Y-233989D02*
X1017980Y-234159D01*
G01X1018000Y-234328D02*
X1018050Y-234499D01*
G01X1017980Y-234159D02*
X1018000Y-234328D01*
G01X1018060Y-233828D02*
X1018000Y-233989D01*
G01X1018150Y-233689D02*
X1018060Y-233828D01*
G01X1020430Y-236709D02*
X1017980D01*
G01X1018700Y-235028D02*
X1018870Y-235049D01*
G01X1018530Y-234978D02*
X1018700Y-235028D01*
G01X1018380Y-234899D02*
X1018530Y-234978D01*
G01X1018240Y-234789D02*
X1018380Y-234899D01*
G01X1018130Y-234649D02*
X1018240Y-234789D01*
G01X1018270Y-233569D02*
X1018150Y-233689D01*
G01X1018410Y-233478D02*
X1018270Y-233569D01*
G01X1018570Y-233419D02*
X1018410Y-233478D01*
G01X1018740Y-233399D02*
X1018570Y-233419D01*
G01X1021290Y-233399D02*
X1018740D01*
G01X1018870Y-235059D02*
X1020490D01*
G01X1020600Y-236689D02*
X1020430Y-236709D01*
G01X1020490Y-235049D02*
X1020650Y-235069D01*
G01X1020760Y-236639D02*
X1020600Y-236689D01*
G01X1020910Y-236569D02*
X1020760Y-236639D01*
G01X1021040Y-236459D02*
X1020910Y-236569D01*
G01X1021150Y-236328D02*
X1021040Y-236459D01*
G01X1021220Y-236178D02*
X1021150Y-236328D01*
G01X1021270Y-236019D02*
X1021220Y-236178D01*
G01X1021290Y-235849D02*
X1021270Y-236019D01*
G01Y-235689D02*
X1021290Y-235849D01*
G01X1021230Y-235539D02*
X1021270Y-235689D01*
G01X1021160Y-235409D02*
X1021230Y-235539D01*
G01X1021060Y-235278D02*
X1021160Y-235409D01*
G01X1020930Y-235178D02*
X1021060Y-235278D01*
G01X1020800Y-235109D02*
X1020930Y-235178D01*
G01X1020650Y-235069D02*
X1020800Y-235109D01*
G01X1023440Y-235828D02*
X1023420Y-235649D01*
G01X1023480Y-236009D02*
X1023440Y-235828D01*
G01X1023560Y-236178D02*
X1023480Y-236009D01*
G01X1023670Y-236328D02*
X1023560Y-236178D01*
G01X1023800Y-236459D02*
X1023670Y-236328D01*
G01X1023950Y-236569D02*
X1023800Y-236459D01*
G01X1024120Y-236649D02*
X1023950Y-236569D01*
G01X1023410Y-234419D02*
Y-235059D01*
G01D02*
X1026250D01*
G01X1023410Y-235649D02*
Y-235059D01*
G01X1023440Y-234219D02*
X1023420Y-234419D01*
G01X1023500Y-234028D02*
X1023440Y-234219D01*
G01X1023590Y-233849D02*
X1023500Y-234028D01*
G01X1023720Y-233699D02*
X1023590Y-233849D01*
G01X1023870Y-233569D02*
X1023720Y-233699D01*
G01X1024050Y-233478D02*
X1023870Y-233569D01*
G01X1024300Y-236689D02*
X1024120Y-236649D01*
G01X1024240Y-233419D02*
X1024050Y-233478D01*
G01X1027860Y-228909D02*
X1023410Y-223719D01*
G01X1017980Y-228909D02*
Y-216159D01*
G01X1021290Y-217878D02*
Y-228909D01*
G01D02*
X1017980D01*
G01X1021290Y-228459D02*
X1017980D01*
G01Y-227759D02*
X1021290D01*
G01X1017980Y-226369D02*
X1021290D01*
G01Y-227069D02*
X1017980D01*
G01X1029840D02*
X1026280D01*
G01X1025690Y-226369D02*
X1029210D01*
G01X1017980Y-216159D02*
X1020220Y-215828D01*
G01X1017980Y-220819D02*
X1021290D01*
G01Y-220128D02*
X1017980D01*
G01X1021290Y-218739D02*
X1017980D01*
G01Y-219428D02*
X1021290D01*
G01X1017980Y-218039D02*
X1021290D01*
G01X1021500Y-217349D02*
X1017980D01*
G01Y-216659D02*
X1029600D01*
G01X1019320Y-215959D02*
X1027890D01*
G01X1020220Y-215828D02*
X1022470Y-215689D01*
G01X1021310Y-217678D02*
X1021290Y-217878D01*
G01X1021390Y-217489D02*
X1021310Y-217678D01*
G01X1021510Y-217328D02*
X1021390Y-217489D01*
G01X1021680Y-217209D02*
X1021510Y-217328D01*
G01X1021860Y-217128D02*
X1021680Y-217209D01*
G01X1022060Y-217099D02*
X1021860Y-217128D01*
G01X1024910Y-217099D02*
X1022060D01*
G01X1022470Y-215689D02*
X1025500D01*
G01X1025600Y-217128D02*
X1024910Y-217099D01*
G01X1026280Y-217289D02*
X1025600Y-217128D01*
G01X1025500Y-215689D02*
X1027170Y-215809D01*
G01X1026920Y-217578D02*
X1026280Y-217289D01*
G01X1024500Y-224978D02*
X1027940D01*
G01X1021290Y-225678D02*
X1017980D01*
G01Y-224978D02*
X1021290D01*
G01Y-224289D02*
X1017980D01*
G01X1021290Y-222899D02*
X1017980D01*
G01Y-223599D02*
X1021290D01*
G01X1017980Y-222209D02*
X1021290D01*
G01Y-221509D02*
X1017980D01*
G01X1027310Y-224289D02*
X1023900D01*
G01X1023410Y-223599D02*
X1027070D01*
G01X1029550Y-222899D02*
X1023410D01*
G01Y-223719D02*
Y-222298D01*
G01D02*
X1025190D01*
G01X1028580Y-225678D02*
X1025090D01*
G01X1025190Y-222298D02*
X1025770Y-222259D01*
G01X1025960Y-222209D02*
X1030300D01*
G01X1026330Y-222109D02*
X1026850Y-221839D01*
G01X1025770Y-222259D02*
X1026330Y-222109D01*
G01X1028610Y-233399D02*
Y-236709D01*
G01X1029160Y-233399D02*
X1028610D01*
G01X1030700Y-236709D02*
X1029160Y-233399D01*
G01X1032110D02*
X1030700Y-236709D01*
G01X1032630Y-233399D02*
X1032110D01*
G01X1032630Y-236709D02*
Y-233399D01*
G01X1035220D02*
Y-236709D01*
G01X1037840Y-235809D02*
X1037820Y-235619D01*
G01X1037890Y-235989D02*
X1037840Y-235809D01*
G01X1037970Y-236159D02*
X1037890Y-235989D01*
G01X1038080Y-236319D02*
X1037970Y-236159D01*
G01X1038210Y-236449D02*
X1038080Y-236319D01*
G01X1038360Y-236559D02*
X1038210Y-236449D01*
G01X1038540Y-236639D02*
X1038360Y-236559D01*
G01X1037820Y-235619D02*
Y-234489D01*
G01X1038000Y-233878D02*
X1038140Y-233719D01*
G01X1037900Y-234069D02*
X1038000Y-233878D01*
G01X1037840Y-234278D02*
X1037900Y-234069D01*
G01X1037820Y-234489D02*
X1037840Y-234278D01*
G01X1038300Y-233578D02*
X1038490Y-233478D01*
G01X1038140Y-233719D02*
X1038300Y-233578D01*
G01X1038490Y-233478D02*
X1038700Y-233419D01*
G01X1038720Y-236689D02*
X1038540Y-236639D01*
G01X1038910Y-236709D02*
X1038720Y-236689D01*
G01X1040660Y-236709D02*
X1038910D01*
G01Y-233399D02*
X1040660D01*
G01X1038700Y-233419D02*
X1038910Y-233399D01*
G01X1027070Y-224028D02*
X1031520Y-228909D01*
G01D02*
X1027860D01*
G01X1036840Y-228678D02*
X1037860Y-228848D01*
G01D02*
X1038890Y-228909D01*
G01D02*
X1041640D01*
G01D02*
X1042550Y-228878D01*
G01D02*
X1043450Y-228739D01*
G01X1026880Y-227759D02*
X1030470D01*
G01X1031110Y-228459D02*
X1027470D01*
G01X1033880Y-226369D02*
X1037300D01*
G01X1034210Y-227149D02*
X1034520Y-227519D01*
G01X1033980Y-226719D02*
X1034210Y-227149D01*
G01X1033840Y-226249D02*
X1033980Y-226719D01*
G01X1034840Y-227759D02*
X1045530D01*
G01X1034910Y-227809D02*
X1035510Y-228189D01*
G01X1034520Y-227519D02*
X1034910Y-227809D01*
G01X1038040Y-227069D02*
X1034160D01*
G01X1035510Y-228189D02*
X1036160Y-228478D01*
G01X1036100Y-228459D02*
X1044370D01*
G01X1036160Y-228478D02*
X1036840Y-228678D01*
G01X1037320Y-226399D02*
X1037060Y-225978D01*
G01X1037670Y-226749D02*
X1037320Y-226399D01*
G01X1038030Y-227069D02*
X1037670Y-226749D01*
G01X1038920Y-227449D02*
X1038450Y-227299D01*
G01D02*
X1038030Y-227069D01*
G01X1039400Y-227498D02*
X1038920Y-227449D01*
G01X1041010Y-227498D02*
X1039400D01*
G01X1041610Y-227459D02*
X1041010Y-227498D01*
G01X1042180Y-227299D02*
X1041610Y-227459D01*
G01X1042710Y-227039D02*
X1042180Y-227299D01*
G01X1043180Y-226669D02*
X1042710Y-227039D01*
G01X1043420Y-236539D02*
X1043630Y-236628D01*
G01X1043240Y-236409D02*
X1043420Y-236539D01*
G01X1043080Y-236249D02*
X1043240Y-236409D01*
G01X1042950Y-236059D02*
X1043080Y-236249D01*
G01X1042860Y-235859D02*
X1042950Y-236059D01*
G01X1042800Y-235639D02*
X1042860Y-235859D01*
G01X1042780Y-235419D02*
X1042800Y-235639D01*
G01X1042780Y-234669D02*
Y-235419D01*
G01X1042800Y-234449D02*
X1042780Y-234669D01*
G01X1042860Y-234239D02*
X1042800Y-234449D01*
G01X1042950Y-234028D02*
X1042860Y-234239D01*
G01X1043080Y-233849D02*
X1042950Y-234028D01*
G01X1043230Y-233699D02*
X1043080Y-233849D01*
G01X1043420Y-233569D02*
X1043230Y-233699D01*
G01X1043620Y-233478D02*
X1043420Y-233569D01*
G01X1043830Y-233419D02*
X1043620Y-233478D01*
G01X1044070Y-236709D02*
X1044770D01*
G01X1043850Y-236689D02*
X1044070Y-236709D01*
G01X1043630Y-236628D02*
X1043850Y-236689D01*
G01X1044050Y-233399D02*
X1043830Y-233419D01*
G01X1044790Y-233399D02*
X1044050D01*
G01X1045370Y-236569D02*
X1045550Y-236459D01*
G01X1045180Y-236649D02*
X1045370Y-236569D01*
G01X1044980Y-236689D02*
X1045180Y-236649D01*
G01X1044770Y-236709D02*
X1044980Y-236689D01*
G01X1045020Y-233419D02*
X1044790Y-233399D01*
G01X1045230Y-233478D02*
X1045020Y-233419D01*
G01X1045440Y-233569D02*
X1045230Y-233478D01*
G01X1046030Y-235799D02*
X1046070Y-235598D01*
G01X1045950Y-235989D02*
X1046030Y-235799D01*
G01X1045840Y-236169D02*
X1045950Y-235989D01*
G01X1045700Y-236319D02*
X1045840Y-236169D01*
G01X1045550Y-236459D02*
X1045700Y-236319D01*
G01X1046070Y-235598D02*
X1046090Y-235389D01*
G01D02*
Y-234698D01*
G01X1045920Y-234049D02*
X1045790Y-233859D01*
G01X1046010Y-234259D02*
X1045920Y-234049D01*
G01X1046070Y-234469D02*
X1046010Y-234259D01*
G01X1046090Y-234698D02*
X1046070Y-234469D01*
G01X1045630Y-233699D02*
X1045440Y-233569D01*
G01X1045790Y-233859D02*
X1045630Y-233699D01*
G01X1048450Y-233399D02*
Y-236709D01*
G01X1048930Y-233399D02*
X1048450D01*
G01X1051210Y-236709D02*
X1048930Y-233399D01*
G01X1051760Y-236709D02*
X1051210D01*
G01X1051760Y-233399D02*
Y-236709D01*
G01X1054120D02*
Y-233399D01*
G01X1055880Y-236709D02*
X1054120D01*
G01Y-233399D02*
X1055900D01*
G01X1056080Y-236689D02*
X1055880Y-236709D01*
G01X1056280Y-236649D02*
X1056080Y-236689D01*
G01X1056470Y-236569D02*
X1056280Y-236649D01*
G01X1056650Y-236459D02*
X1056470Y-236569D01*
G01X1056340Y-233478D02*
X1056550Y-233569D01*
G01X1056120Y-233419D02*
X1056340Y-233478D01*
G01X1055900Y-233399D02*
X1056120Y-233419D01*
G01X1056810Y-236328D02*
X1056650Y-236459D01*
G01X1056940Y-236169D02*
X1056810Y-236328D01*
G01X1057050Y-235989D02*
X1056940Y-236169D01*
G01X1057130Y-235799D02*
X1057050Y-235989D01*
G01X1057170Y-235598D02*
X1057130Y-235799D01*
G01X1057190Y-235399D02*
X1057170Y-235598D01*
G01X1057190Y-234689D02*
Y-235399D01*
G01X1057170Y-234469D02*
X1057190Y-234689D01*
G01X1057110Y-234249D02*
X1057170Y-234469D01*
G01X1057020Y-234039D02*
X1057110Y-234249D01*
G01X1056890Y-233859D02*
X1057020Y-234039D01*
G01X1056730Y-233699D02*
X1056890Y-233859D01*
G01X1056550Y-233569D02*
X1056730Y-233699D01*
G01X1059570Y-235689D02*
X1059550Y-235469D01*
G01X1059620Y-235889D02*
X1059570Y-235689D01*
G01X1059720Y-236089D02*
X1059620Y-235889D01*
G01X1059840Y-236269D02*
X1059720Y-236089D01*
G01X1059990Y-236419D02*
X1059840Y-236269D01*
G01X1059560Y-235469D02*
Y-233399D01*
G01X1060170Y-236539D02*
X1059990Y-236419D01*
G01X1060370Y-236639D02*
X1060170Y-236539D01*
G01X1060570Y-236689D02*
X1060370Y-236639D01*
G01X1060790Y-236709D02*
X1060570Y-236689D01*
G01X1061310Y-236709D02*
X1060790D01*
G01X1061540Y-236689D02*
X1061310Y-236709D01*
G01X1061760Y-236628D02*
X1061540Y-236689D01*
G01X1061970Y-236528D02*
X1061760Y-236628D01*
G01X1062150Y-236398D02*
X1061970Y-236528D01*
G01X1062310Y-236239D02*
X1062150Y-236398D01*
G01X1062440Y-236049D02*
X1062310Y-236239D01*
G01X1062540Y-235849D02*
X1062440Y-236049D01*
G01X1062600Y-235628D02*
X1062540Y-235849D01*
G01X1062620Y-235399D02*
X1062600Y-235628D01*
G01X1062630Y-233399D02*
Y-235399D01*
G01X1064770Y-235828D02*
X1064750Y-235639D01*
G01X1064810Y-236009D02*
X1064770Y-235828D01*
G01X1064890Y-236169D02*
X1064810Y-236009D01*
G01X1065000Y-236328D02*
X1064890Y-236169D01*
G01X1065130Y-236459D02*
X1065000Y-236328D01*
G01X1064750Y-235639D02*
Y-234439D01*
G01X1064770Y-234259D02*
X1064810Y-234078D01*
G01X1064750Y-234439D02*
X1064770Y-234259D01*
G01X1064990Y-233769D02*
X1065120Y-233639D01*
G01X1064890Y-233919D02*
X1064990Y-233769D01*
G01X1064810Y-234078D02*
X1064890Y-233919D01*
G01X1065280Y-236569D02*
X1065130Y-236459D01*
G01X1065450Y-236649D02*
X1065280Y-236569D01*
G01X1065630Y-236689D02*
X1065450Y-236649D01*
G01X1065820Y-236709D02*
X1065630Y-236689D01*
G01X1065610Y-233419D02*
X1065790Y-233399D01*
G01X1065430Y-233459D02*
X1065610Y-233419D01*
G01X1065270Y-233539D02*
X1065430Y-233459D01*
G01X1065120Y-233639D02*
X1065270Y-233539D01*
G01X1067590Y-236709D02*
X1065820D01*
G01X1065790Y-233399D02*
X1067590D01*
G01X1050110Y-216159D02*
Y-228909D01*
G01X1063810D02*
Y-216159D01*
G01X1067350D02*
Y-228909D01*
G01X1046240Y-227069D02*
X1042650D01*
G01X1043450Y-228739D02*
X1044320Y-228478D01*
G01X1043350Y-226369D02*
X1046630D01*
G01X1043480Y-226159D02*
X1043180Y-226669D01*
G01X1044320Y-228478D02*
X1044900Y-228209D01*
G01D02*
X1045430Y-227859D01*
G01X1045890Y-227419D02*
X1046280Y-227028D01*
G01X1045430Y-227859D02*
X1045890Y-227419D01*
G01X1046280Y-227028D02*
X1046570Y-226559D01*
G01D02*
X1046750Y-226039D01*
G01X1050110Y-228909D02*
X1053410D01*
G01X1060500D02*
X1063810D01*
G01X1067350D02*
X1070420D01*
G01X1050110Y-228459D02*
X1053410D01*
G01Y-227759D02*
X1050110D01*
G01Y-227069D02*
X1053410D01*
G01Y-226369D02*
X1050110D01*
G01X1053410Y-228909D02*
Y-223789D01*
G01X1060500Y-223839D02*
Y-228909D01*
G01Y-228459D02*
X1063810D01*
G01Y-227759D02*
X1060500D01*
G01X1063810Y-226369D02*
X1060500D01*
G01Y-227069D02*
X1063810D01*
G01X1070420Y-228459D02*
X1067350D01*
G01Y-227759D02*
X1070420D01*
G01X1067350Y-226369D02*
X1070420D01*
G01Y-227069D02*
X1067350D01*
G01X1069480Y-233399D02*
X1070890D01*
G01X1070420Y-228909D02*
Y-218169D01*
G01X1030270Y-217349D02*
X1026410D01*
G01X1027310Y-221469D02*
X1027500Y-221069D01*
G01X1027330Y-218039D02*
X1030640D01*
G01X1027230Y-217889D02*
X1026920Y-217578D01*
G01X1027460Y-218259D02*
X1027230Y-217889D01*
G01X1027170Y-215809D02*
X1028810Y-216159D01*
G01X1027570Y-220819D02*
X1030730D01*
G01X1027620Y-220649D02*
X1027670Y-220209D01*
G01X1027500Y-221069D02*
X1027620Y-220649D01*
G01X1030740Y-220128D02*
X1027670D01*
G01Y-220209D02*
Y-219109D01*
G01Y-219428D02*
X1030740D01*
G01Y-218739D02*
X1027620D01*
G01X1027610Y-218669D02*
X1027460Y-218259D01*
G01X1027670Y-219109D02*
X1027610Y-218669D01*
G01X1028810Y-216159D02*
X1029360Y-216459D01*
G01X1029850Y-216859D02*
X1030260Y-217339D01*
G01X1029360Y-216459D02*
X1029850Y-216859D01*
G01X1030740Y-220759D02*
X1030700Y-221239D01*
G01X1030740Y-218759D02*
Y-220759D01*
G01X1030720Y-218378D02*
X1030740Y-218759D01*
G01X1030630Y-217999D02*
X1030720Y-218378D01*
G01X1030480Y-217648D02*
X1030630Y-217999D01*
G01X1030260Y-217339D02*
X1030480Y-217648D01*
G01X1033810Y-219069D02*
Y-221828D01*
G01Y-220819D02*
X1036880D01*
G01Y-220128D02*
X1033810D01*
G01Y-219428D02*
X1036880D01*
G01X1036990Y-218739D02*
X1033840D01*
G01X1033850Y-218589D02*
X1033810Y-219069D01*
G01X1034030Y-218039D02*
X1037410D01*
G01X1034210Y-217709D02*
X1033980Y-218128D01*
G01D02*
X1033850Y-218589D01*
G01X1034500Y-217328D02*
X1034210Y-217709D01*
G01X1038340Y-217349D02*
X1034490D01*
G01X1034870Y-217019D02*
X1034500Y-217328D01*
G01X1035500Y-216509D02*
X1034870Y-217019D01*
G01X1035320Y-216659D02*
X1045200D01*
G01X1036210Y-216119D02*
X1035500Y-216509D01*
G01X1036970Y-215859D02*
X1036210Y-216119D01*
G01X1043630Y-215959D02*
X1036680D01*
G01X1036880Y-221828D02*
Y-219389D01*
G01X1037040Y-218589D02*
X1037240Y-218239D01*
G01X1036920Y-218978D02*
X1037040Y-218589D01*
G01X1036880Y-219389D02*
X1036920Y-218978D01*
G01X1037240Y-218239D02*
X1037510Y-217928D01*
G01D02*
X1037940Y-217559D01*
G01X1037770Y-215719D02*
X1036970Y-215859D01*
G01X1038440Y-217289D02*
X1038990Y-217139D01*
G01X1037940Y-217559D02*
X1038440Y-217289D01*
G01X1038570Y-215689D02*
X1037770Y-215719D01*
G01X1038990Y-217139D02*
X1039560Y-217099D01*
G01X1041680Y-215689D02*
X1038570D01*
G01X1039560Y-217099D02*
X1041010D01*
G01X1041550Y-217128D02*
X1042070Y-217259D01*
G01X1041010Y-217099D02*
X1041550Y-217128D01*
G01X1042540Y-215719D02*
X1041680Y-215689D01*
G01X1046040Y-217349D02*
X1042260D01*
G01X1042550Y-217489D02*
X1042980Y-217809D01*
G01X1042070Y-217259D02*
X1042550Y-217489D01*
G01X1043390Y-215878D02*
X1042540Y-215719D01*
G01X1027070Y-223519D02*
Y-224028D01*
G01X1027770Y-223509D02*
X1027070Y-223519D01*
G01X1030630Y-221509D02*
X1027260D01*
G01X1026850Y-221839D02*
X1027310Y-221469D01*
G01X1028450Y-223389D02*
X1027770Y-223509D01*
G01X1029110Y-223149D02*
X1028450Y-223389D01*
G01X1029710Y-222809D02*
X1029110Y-223149D01*
G01X1030070Y-222499D02*
X1029710Y-222809D01*
G01X1030360Y-222119D02*
X1030070Y-222499D01*
G01X1030580Y-221699D02*
X1030360Y-222119D01*
G01X1030700Y-221239D02*
X1030580Y-221699D01*
G01X1036970Y-225678D02*
X1033810D01*
G01Y-225759D02*
X1033840Y-226249D01*
G01X1033810Y-221828D02*
Y-225759D01*
G01Y-224978D02*
X1036880D01*
G01Y-224289D02*
X1033810D01*
G01Y-223599D02*
X1036880D01*
G01Y-222899D02*
X1033810D01*
G01Y-222209D02*
X1036880D01*
G01Y-221509D02*
X1033810D01*
G01X1036880Y-221828D02*
X1033810D01*
G01D02*
X1036880D01*
G01X1036910Y-225509D02*
X1036880Y-225019D01*
G01X1037060Y-225978D02*
X1036910Y-225509D01*
G01X1036880Y-225019D02*
Y-221828D01*
G01X1043230Y-218039D02*
X1046510D01*
G01X1043550Y-218478D02*
X1043690Y-218899D01*
G01X1043310Y-218109D02*
X1043550Y-218478D01*
G01X1042980Y-217809D02*
X1043310Y-218109D01*
G01X1044200Y-216159D02*
X1043390Y-215878D01*
G01X1043730Y-219349D02*
Y-225019D01*
G01Y-220819D02*
X1046800D01*
G01Y-220128D02*
X1043730D01*
G01X1046750Y-218739D02*
X1043640D01*
G01X1043730Y-219428D02*
X1046800D01*
G01X1043690Y-218899D02*
X1043730Y-219349D01*
G01X1044830Y-216428D02*
X1044200Y-216159D01*
G01X1045410Y-216778D02*
X1044830Y-216428D01*
G01X1045930Y-217219D02*
X1045410Y-216778D01*
G01X1046310Y-217669D02*
X1045930Y-217219D01*
G01X1046800Y-225489D02*
Y-219349D01*
G01X1046750Y-218759D02*
X1046590Y-218189D01*
G01X1046800Y-219349D02*
X1046750Y-218759D01*
G01X1046590Y-218189D02*
X1046310Y-217669D01*
G01X1050110Y-220819D02*
X1053470D01*
G01X1053410Y-220128D02*
X1050110D01*
G01Y-219428D02*
X1053410D01*
G01Y-218739D02*
X1050110D01*
G01Y-218039D02*
X1053410D01*
G01Y-217349D02*
X1050110D01*
G01X1053410Y-216159D02*
X1050110D01*
G01Y-216659D02*
X1053410D01*
G01Y-220549D02*
Y-216159D01*
G01X1053440Y-220759D02*
X1053410Y-220549D01*
G01X1053520Y-220949D02*
X1053440Y-220759D01*
G01X1053650Y-221119D02*
X1053520Y-220949D01*
G01X1053820Y-221248D02*
X1053650Y-221119D01*
G01X1060270Y-221128D02*
X1060110Y-221248D01*
G01X1060390Y-220959D02*
X1060270Y-221128D01*
G01X1060450Y-220819D02*
X1063810D01*
G01X1060470Y-220769D02*
X1060390Y-220959D01*
G01X1060500Y-220569D02*
X1060470Y-220769D01*
G01X1060500Y-216159D02*
Y-220569D01*
G01X1063810Y-220128D02*
X1060500D01*
G01X1063810Y-218739D02*
X1060500D01*
G01Y-219428D02*
X1063810D01*
G01X1060500Y-218039D02*
X1063810D01*
G01Y-217349D02*
X1060500D01*
G01Y-216659D02*
X1063810D01*
G01Y-216159D02*
X1060500D01*
G01X1067350Y-220819D02*
X1070420D01*
G01Y-220128D02*
X1067350D01*
G01X1070420Y-218739D02*
X1067350D01*
G01Y-219428D02*
X1070420D01*
G01X1067350Y-218039D02*
X1070440D01*
G01X1071170Y-217349D02*
X1067350D01*
G01X1070290Y-215778D02*
X1067350Y-216159D01*
G01Y-216659D02*
X1081630D01*
G01X1043670Y-225599D02*
X1043480Y-226159D01*
G01X1046780Y-225678D02*
X1043640D01*
G01X1043730Y-225019D02*
X1043670Y-225599D01*
G01X1043730Y-224978D02*
X1046800D01*
G01Y-224289D02*
X1043730D01*
G01X1046800Y-222899D02*
X1043730D01*
G01Y-223599D02*
X1046800D01*
G01X1043730Y-222209D02*
X1046800D01*
G01Y-221509D02*
X1043730D01*
G01X1046750Y-226039D02*
X1046800Y-225489D01*
G01X1050110Y-225678D02*
X1053410D01*
G01Y-224978D02*
X1050110D01*
G01Y-224289D02*
X1053410D01*
G01X1050110Y-222899D02*
X1063810D01*
G01X1053440Y-223599D02*
X1050110D01*
G01X1063810Y-222209D02*
X1050110D01*
G01Y-221509D02*
X1063810D01*
G01X1053410Y-223789D02*
X1053440Y-223589D01*
G01X1053640Y-223239D02*
X1053800Y-223109D01*
G01X1053520Y-223398D02*
X1053640Y-223239D01*
G01X1053440Y-223589D02*
X1053520Y-223398D01*
G01X1053800Y-223109D02*
X1053990Y-223028D01*
G01X1054010Y-221328D02*
X1053820Y-221248D01*
G01X1054190Y-223009D02*
X1059670D01*
G01X1053990Y-223028D02*
X1054190Y-223009D01*
G01X1054220Y-221349D02*
X1054010Y-221328D01*
G01X1059720Y-221349D02*
X1054220D01*
G01X1059670Y-223009D02*
X1059880Y-223039D01*
G01X1059920Y-221328D02*
X1059720Y-221349D01*
G01X1060500Y-225678D02*
X1063810D01*
G01Y-224978D02*
X1060500D01*
G01Y-224289D02*
X1063810D01*
G01X1060470Y-223619D02*
X1060500Y-223839D01*
G01X1063810Y-223599D02*
X1060460D01*
G01X1060390Y-223419D02*
X1060470Y-223619D01*
G01X1060260Y-223248D02*
X1060390Y-223419D01*
G01X1060090Y-223119D02*
X1060260Y-223248D01*
G01X1059880Y-223039D02*
X1060090Y-223119D01*
G01X1060110Y-221248D02*
X1059920Y-221328D01*
G01X1070420Y-225678D02*
X1067350D01*
G01Y-224978D02*
X1070420D01*
G01Y-224289D02*
X1067350D01*
G01X1070420Y-222899D02*
X1067350D01*
G01Y-223599D02*
X1070420D01*
G01X1067350Y-222209D02*
X1070420D01*
G01Y-221509D02*
X1067350D01*
G01X1068900Y-215959D02*
X1080050D01*
G01X1070530Y-217749D02*
X1070660Y-217578D01*
G01X1070450Y-217948D02*
X1070530Y-217749D01*
G01X1070420Y-218169D02*
X1070450Y-217948D01*
G01X1070660Y-217578D02*
X1070840Y-217449D01*
G01X1073260Y-215689D02*
X1070290Y-215778D01*
G01X1075160Y-236569D02*
X1075350Y-236649D01*
G01X1074980Y-236459D02*
X1075160Y-236569D01*
G01X1074820Y-236328D02*
X1074980Y-236459D01*
G01X1074690Y-236169D02*
X1074820Y-236328D01*
G01X1074890Y-233699D02*
X1074730Y-233859D01*
G01X1075080Y-233569D02*
X1074890Y-233699D01*
G01X1075280Y-233478D02*
X1075080Y-233569D01*
G01X1070890Y-233399D02*
Y-236709D01*
G01X1072310Y-233399D02*
X1070890D01*
G01X1074580Y-235989D02*
X1074690Y-236169D01*
G01X1074500Y-235799D02*
X1074580Y-235989D01*
G01X1074460Y-235598D02*
X1074500Y-235799D01*
G01X1074440Y-235399D02*
X1074460Y-235598D01*
G01X1074440Y-234689D02*
Y-235399D01*
G01X1074450Y-234469D02*
X1074430Y-234689D01*
G01X1074510Y-234249D02*
X1074450Y-234469D01*
G01X1074600Y-234039D02*
X1074510Y-234249D01*
G01X1074730Y-233859D02*
X1074600Y-234039D01*
G01X1075750Y-236709D02*
X1076440D01*
G01X1075550Y-236689D02*
X1075750Y-236709D01*
G01X1075350Y-236649D02*
X1075550Y-236689D01*
G01X1075500Y-233419D02*
X1075280Y-233478D01*
G01X1075720Y-233399D02*
X1075500Y-233419D01*
G01X1076460Y-233399D02*
X1075720D01*
G01X1076880Y-236628D02*
X1077090Y-236539D01*
G01X1076670Y-236689D02*
X1076880Y-236628D01*
G01X1076440Y-236709D02*
X1076670Y-236689D01*
G01X1076680Y-233419D02*
X1076460Y-233399D01*
G01X1076900Y-233478D02*
X1076680Y-233419D01*
G01X1077100Y-233569D02*
X1076900Y-233478D01*
G01X1077660Y-235849D02*
X1077720Y-235639D01*
G01X1077570Y-236059D02*
X1077660Y-235849D01*
G01X1077440Y-236249D02*
X1077570Y-236059D01*
G01X1077280Y-236409D02*
X1077440Y-236249D01*
G01X1077090Y-236539D02*
X1077280Y-236409D01*
G01Y-233699D02*
X1077100Y-233569D01*
G01X1077440Y-233859D02*
X1077280Y-233699D01*
G01X1077570Y-234039D02*
X1077440Y-233859D01*
G01X1077660Y-234239D02*
X1077570Y-234039D01*
G01X1077720Y-234459D02*
X1077660Y-234239D01*
G01X1077720Y-235639D02*
X1077740Y-235409D01*
G01D02*
Y-234678D01*
G01D02*
X1077720Y-234459D01*
G01X1079870Y-235059D02*
Y-236709D01*
G01Y-233399D02*
Y-235059D01*
G01X1081800D02*
X1079870D01*
G01Y-233399D02*
X1082140D01*
G01X1082700Y-236709D02*
X1081800Y-235059D01*
G01X1082080D02*
X1081800D01*
G01X1082250Y-235039D02*
X1082080Y-235059D01*
G01X1082410Y-234989D02*
X1082250Y-235039D01*
G01X1082560Y-234919D02*
X1082410Y-234989D01*
G01X1082690Y-234809D02*
X1082560Y-234919D01*
G01X1082800Y-234678D02*
X1082690Y-234809D01*
G01X1082870Y-234528D02*
X1082800Y-234678D01*
G01X1082920Y-234369D02*
X1082870Y-234528D01*
G01X1082810Y-233759D02*
X1082880Y-233889D01*
G01X1082710Y-233628D02*
X1082810Y-233759D01*
G01X1082580Y-233528D02*
X1082710Y-233628D01*
G01X1082450Y-233459D02*
X1082580Y-233528D01*
G01X1082300Y-233419D02*
X1082450Y-233459D01*
G01X1082140Y-233399D02*
X1082300Y-233419D01*
G01X1082940Y-234199D02*
X1082920Y-234369D01*
G01Y-234039D02*
X1082940Y-234199D01*
G01X1082880Y-233889D02*
X1082920Y-234039D01*
G01X1073490Y-218139D02*
Y-228909D01*
G01X1076800D02*
Y-218149D01*
G01X1079870Y-218598D02*
Y-228909D01*
G01X1082940D02*
Y-218949D01*
G01X1073490Y-228909D02*
X1076800D01*
G01Y-228459D02*
X1073490D01*
G01Y-227759D02*
X1076800D01*
G01Y-227069D02*
X1073490D01*
G01Y-226369D02*
X1076800D01*
G01X1079870Y-228909D02*
X1082940D01*
G01Y-228459D02*
X1079870D01*
G01Y-227759D02*
X1082940D01*
G01Y-227069D02*
X1079870D01*
G01Y-226369D02*
X1082940D01*
G01X1070840Y-217449D02*
X1071030Y-217369D01*
G01X1071250Y-217339D02*
X1072690D01*
G01X1071030Y-217369D02*
X1071250Y-217339D01*
G01X1077530Y-217349D02*
X1072770D01*
G01X1073380Y-217739D02*
X1073470Y-217928D01*
G01X1073260Y-217569D02*
X1073380Y-217739D01*
G01X1073090Y-217449D02*
X1073260Y-217569D01*
G01X1072900Y-217369D02*
X1073090Y-217449D01*
G01X1072690Y-217339D02*
X1072900Y-217369D01*
G01X1077590Y-215689D02*
X1073260D01*
G01X1073490Y-220819D02*
X1076800D01*
G01Y-220128D02*
X1073490D01*
G01Y-219428D02*
X1076800D01*
G01Y-218739D02*
X1073490D01*
G01X1073480Y-218039D02*
X1076810D01*
G01X1073470Y-217928D02*
X1073490Y-218139D01*
G01X1076830Y-217939D02*
X1076910Y-217739D01*
G01X1076800Y-218149D02*
X1076830Y-217939D01*
G01X1076910Y-217739D02*
X1077040Y-217578D01*
G01X1077610Y-217339D02*
X1078370D01*
G01X1077400Y-217369D02*
X1077610Y-217339D01*
G01X1077210Y-217449D02*
X1077400Y-217369D01*
G01X1077040Y-217578D02*
X1077210Y-217449D01*
G01X1078750Y-215749D02*
X1077590Y-215689D01*
G01X1082410Y-217349D02*
X1078450D01*
G01X1078370Y-217339D02*
X1078880Y-217409D01*
G01X1079360Y-217578D02*
X1079580Y-217778D01*
G01X1078880Y-217409D02*
X1079360Y-217578D01*
G01X1079910Y-215919D02*
X1078750Y-215749D01*
G01X1079870Y-220819D02*
X1082940D01*
G01Y-220128D02*
X1079870D01*
G01Y-219428D02*
X1082940D01*
G01X1082920Y-218739D02*
X1079870D01*
G01X1079840Y-218298D02*
X1079870Y-218598D01*
G01X1079750Y-218039D02*
X1082780D01*
G01X1079740Y-218019D02*
X1079840Y-218298D01*
G01X1079580Y-217778D02*
X1079740Y-218019D01*
G01X1080690Y-216139D02*
X1079910Y-215919D01*
G01X1081420Y-216499D02*
X1080690Y-216139D01*
G01X1082070Y-216978D02*
X1081420Y-216499D01*
G01X1082450Y-217389D02*
X1082070Y-216978D01*
G01X1082730Y-217869D02*
X1082450Y-217389D01*
G01X1082890Y-218399D02*
X1082730Y-217869D01*
G01X1082940Y-218949D02*
X1082890Y-218399D01*
G01X1076800Y-225678D02*
X1073490D01*
G01Y-224978D02*
X1076800D01*
G01Y-224289D02*
X1073490D01*
G01Y-223599D02*
X1076800D01*
G01Y-222899D02*
X1073490D01*
G01Y-222209D02*
X1076800D01*
G01Y-221509D02*
X1073490D01*
G01X1082940Y-225678D02*
X1079870D01*
G01Y-224978D02*
X1082940D01*
G01Y-224289D02*
X1079870D01*
G01Y-223599D02*
X1082940D01*
G01Y-222899D02*
X1079870D01*
G01Y-222209D02*
X1082940D01*
G01Y-221509D02*
X1079870D01*
G54D11*
G01X1570500Y1365431D02*
X-629500D01*
Y-324569D01*
G01Y-334569D02*
X1570500D01*
Y1365431D01*
G01X-629500Y-324569D02*
Y-334569D01*
G01X-579500Y1295431D02*
Y-264569D01*
X-519500D01*
G01X-607925Y-104569D02*
X-600050Y-79569D01*
X-592175Y-104569D01*
G01X-595010Y-95819D02*
X-605090D01*
G01X-579500Y95431D02*
X-609500D01*
G01X-597530Y268765D02*
X-596270Y270015D01*
X-595325Y272098D01*
X-594695Y275015D01*
X-595325Y277515D01*
X-596585Y279181D01*
X-598790Y280431D01*
X-607295D01*
Y255431D01*
X-596900D01*
X-594695Y257098D01*
X-593435Y259598D01*
X-592805Y262515D01*
X-593435Y265431D01*
X-595325Y267931D01*
X-597530Y268765D01*
X-607295D01*
G01X-579500Y525431D02*
X-609500D01*
G01X-593120Y678348D02*
X-595010Y679598D01*
X-597215Y680431D01*
X-599735D01*
X-602570Y679181D01*
X-604775Y677098D01*
X-606350Y674598D01*
X-607610Y670431D01*
X-607925Y666681D01*
X-607295Y662931D01*
X-606350Y660431D01*
X-604460Y657931D01*
X-602255Y656265D01*
X-600050Y655431D01*
X-597845D01*
X-595640Y656265D01*
X-593750Y657514D01*
X-592175Y659181D01*
G01X-579500Y955431D02*
X-609500D01*
G01X-606980Y1135431D02*
Y1160431D01*
X-600680D01*
X-598160Y1159181D01*
X-596270Y1157515D01*
X-594695Y1155015D01*
X-593435Y1152098D01*
X-593120Y1147931D01*
X-593435Y1143764D01*
X-594695Y1140848D01*
X-596270Y1138347D01*
X-598160Y1136681D01*
X-600680Y1135431D01*
X-606980D01*
G01X-579500Y1295431D02*
X-529500D01*
G01X-549500D02*
X-359500D01*
G01X-519500Y-264569D02*
X1000500D01*
G01X-356270Y-314569D02*
Y-289569D01*
X-367925Y-307485D01*
X-352175D01*
G01X-356270Y1315431D02*
Y1340431D01*
X-367925Y1322515D01*
X-352175D01*
G01X-359500Y1295431D02*
X1510500D01*
G01X-89500Y-264569D02*
Y-314569D01*
G01Y1295431D02*
Y1345431D01*
G01X0Y0D02*
X232500D01*
G01X0Y240000D02*
Y0D01*
G01X232500Y240000D02*
X0D01*
G01X173020Y-309569D02*
X174910Y-312486D01*
X177430Y-314152D01*
X180265Y-314569D01*
X182785Y-314152D01*
X185305Y-312069D01*
X186880Y-309569D01*
X187195Y-307069D01*
X186565Y-304153D01*
X184360Y-302069D01*
X182155Y-301235D01*
X179320D01*
G01X182155D02*
X184045Y-299985D01*
X185620Y-297902D01*
X186250Y-295402D01*
X185620Y-292902D01*
X184045Y-290819D01*
X181210Y-289569D01*
X178375Y-289985D01*
X175540Y-291652D01*
G01X173020Y1320431D02*
X174910Y1317514D01*
X177430Y1315848D01*
X180265Y1315431D01*
X182785Y1315848D01*
X185305Y1317931D01*
X186880Y1320431D01*
X187195Y1322931D01*
X186565Y1325847D01*
X184360Y1327931D01*
X182155Y1328765D01*
X179320D01*
G01X182155D02*
X184045Y1330015D01*
X185620Y1332098D01*
X186250Y1334598D01*
X185620Y1337098D01*
X184045Y1339181D01*
X181210Y1340431D01*
X178375Y1340015D01*
X175540Y1338348D01*
G01X211831Y141496D02*
Y178504D01*
G01X232500Y141496D02*
X215768D01*
G01X211831D02*
G03X215768I1969J0D01*
G01X211831Y178504D02*
G02X215768I1969J0D01*
G01D02*
X232500D01*
G01Y0D02*
Y141496D01*
G01Y178504D02*
Y240000D01*
G01X450500Y-314569D02*
Y-264569D01*
G01Y1295431D02*
Y1345431D01*
G01X733965Y1336265D02*
X735855Y1338764D01*
X738060Y1340015D01*
X740580Y1340431D01*
X743730Y1339598D01*
X745935Y1337515D01*
X746565Y1335015D01*
X746250Y1332514D01*
X744990Y1330431D01*
X738690Y1326265D01*
X735855Y1323348D01*
X733965Y1319181D01*
X733335Y1315431D01*
X746565D01*
G01X763965Y-293735D02*
X765855Y-291236D01*
X768060Y-289985D01*
X770580Y-289569D01*
X773730Y-290402D01*
X775935Y-292485D01*
X776565Y-294985D01*
X776250Y-297486D01*
X774990Y-299569D01*
X768690Y-303735D01*
X765855Y-306652D01*
X763965Y-310819D01*
X763335Y-314569D01*
X776565D01*
G01X870500Y1235431D02*
X1520500D01*
G01X870500Y1295431D02*
Y1203500D01*
G01X881750Y1245431D02*
Y1255431D01*
X884875D01*
X885875Y1254931D01*
X886500Y1254265D01*
X886750Y1252931D01*
X886500Y1251598D01*
X885750Y1250765D01*
X884875Y1250265D01*
X881750D01*
G01X884875D02*
X886750Y1245431D01*
G01X896750D02*
X891750D01*
Y1255431D01*
X896750D01*
G01X894750Y1250598D02*
X891750D01*
G01X901125Y1255431D02*
X904250Y1245431D01*
X907375Y1255431D01*
G01X870500Y1265431D02*
X1520500D01*
G01X920500D02*
Y1203500D01*
G01X975500Y-264569D02*
Y-189569D01*
X1520500D01*
Y-264569D01*
X1010500D01*
G01D02*
Y-314569D01*
G01X1024475Y-236649D02*
G03I-355J0D01*
G01X1024655Y-236689D02*
G03I-355J0D01*
G01X1024835Y-236709D02*
G03I-355J0D01*
G01X1024595Y-233419D02*
G03I-355J0D01*
G01X1024795Y-233399D02*
G03I-355J0D01*
G01X1018335Y-236709D02*
G03I-355J0D01*
G01X1019055Y-235028D02*
G03I-355J0D01*
G01X1018885Y-234978D02*
G03I-355J0D01*
G01X1018735Y-234899D02*
G03I-355J0D01*
G01X1018595Y-234789D02*
G03I-355J0D01*
G01X1018485Y-234649D02*
G03I-355J0D01*
G01X1018405Y-234499D02*
G03I-355J0D01*
G01X1018355Y-234328D02*
G03I-355J0D01*
G01X1018335Y-234159D02*
G03I-355J0D01*
G01X1018355Y-233989D02*
G03I-355J0D01*
G01X1018415Y-233828D02*
G03I-355J0D01*
G01X1018505Y-233689D02*
G03I-355J0D01*
G01X1018625Y-233569D02*
G03I-355J0D01*
G01X1018765Y-233478D02*
G03I-355J0D01*
G01X1018925Y-233419D02*
G03I-355J0D01*
G01X1019095Y-233399D02*
G03I-355J0D01*
G01X1019225Y-235059D02*
G03I-355J0D01*
G01Y-235049D02*
G03I-355J0D01*
G01X1020785Y-236709D02*
G03I-355J0D01*
G01X1020845Y-235049D02*
G03I-355J0D01*
G01Y-235059D02*
G03I-355J0D01*
G01X1020955Y-236689D02*
G03I-355J0D01*
G01X1021115Y-236639D02*
G03I-355J0D01*
G01X1021265Y-236569D02*
G03I-355J0D01*
G01X1021395Y-236459D02*
G03I-355J0D01*
G01X1021505Y-236328D02*
G03I-355J0D01*
G01X1021575Y-236178D02*
G03I-355J0D01*
G01X1021625Y-236019D02*
G03I-355J0D01*
G01X1021645Y-235849D02*
G03I-355J0D01*
G01X1021625Y-235689D02*
G03I-355J0D01*
G01X1021585Y-235539D02*
G03I-355J0D01*
G01X1021515Y-235409D02*
G03I-355J0D01*
G01X1021415Y-235278D02*
G03I-355J0D01*
G01X1021285Y-235178D02*
G03I-355J0D01*
G01X1021155Y-235109D02*
G03I-355J0D01*
G01X1021005Y-235069D02*
G03I-355J0D01*
G01X1021645Y-233399D02*
G03I-355J0D01*
G01X1023795Y-235828D02*
G03I-355J0D01*
G01X1023835Y-236009D02*
G03I-355J0D01*
G01X1023915Y-236178D02*
G03I-355J0D01*
G01X1024025Y-236328D02*
G03I-355J0D01*
G01X1024155Y-236459D02*
G03I-355J0D01*
G01X1023765Y-235059D02*
G03I-355J0D01*
G01D02*
G03I-355J0D01*
G01Y-235649D02*
G03I-355J0D01*
G01X1023775D02*
G03I-355J0D01*
G01X1023765Y-234419D02*
G03I-355J0D01*
G01X1023775D02*
G03I-355J0D01*
G01X1023795Y-234219D02*
G03I-355J0D01*
G01X1023855Y-234028D02*
G03I-355J0D01*
G01X1023945Y-233849D02*
G03I-355J0D01*
G01X1024075Y-233699D02*
G03I-355J0D01*
G01X1024225Y-233569D02*
G03I-355J0D01*
G01X1024305Y-236569D02*
G03I-355J0D01*
G01X1024405Y-233478D02*
G03I-355J0D01*
G01X1026605Y-236709D02*
G03I-355J0D01*
G01Y-235059D02*
G03I-355J0D01*
G01Y-233399D02*
G03I-355J0D01*
G01X1018335Y-228909D02*
G03I-355J0D01*
G01X1021645D02*
G03I-355J0D01*
G01X1018335Y-228459D02*
G03I-355J0D01*
G01Y-227759D02*
G03I-355J0D01*
G01Y-226369D02*
G03I-355J0D01*
G01Y-227069D02*
G03I-355J0D01*
G01X1021645Y-228459D02*
G03I-355J0D01*
G01Y-227759D02*
G03I-355J0D01*
G01Y-227069D02*
G03I-355J0D01*
G01Y-226369D02*
G03I-355J0D01*
G01X1026635Y-227069D02*
G03I-355J0D01*
G01X1026045Y-226369D02*
G03I-355J0D01*
G01X1520500Y1295431D02*
Y-264569D01*
X1000500D01*
G01X1018335Y-220819D02*
G03I-355J0D01*
G01Y-220128D02*
G03I-355J0D01*
G01Y-218739D02*
G03I-355J0D01*
G01Y-219428D02*
G03I-355J0D01*
G01Y-218039D02*
G03I-355J0D01*
G01Y-217349D02*
G03I-355J0D01*
G01Y-216659D02*
G03I-355J0D01*
G01Y-216159D02*
G03I-355J0D01*
G01D02*
G03I-355J0D01*
G01X1019675Y-215959D02*
G03I-355J0D01*
G01X1020575Y-215828D02*
G03I-355J0D01*
G01X1021645Y-220819D02*
G03I-355J0D01*
G01Y-220128D02*
G03I-355J0D01*
G01Y-219428D02*
G03I-355J0D01*
G01Y-218039D02*
G03I-355J0D01*
G01Y-218739D02*
G03I-355J0D01*
G01Y-217878D02*
G03I-355J0D01*
G01X1021665Y-217678D02*
G03I-355J0D01*
G01X1021855Y-217349D02*
G03I-355J0D01*
G01X1021745Y-217489D02*
G03I-355J0D01*
G01X1021865Y-217328D02*
G03I-355J0D01*
G01X1022035Y-217209D02*
G03I-355J0D01*
G01X1022215Y-217128D02*
G03I-355J0D01*
G01X1022415Y-217099D02*
G03I-355J0D01*
G01X1022825Y-215689D02*
G03I-355J0D01*
G01X1025265Y-217099D02*
G03I-355J0D01*
G01X1025955Y-217128D02*
G03I-355J0D01*
G01X1025855Y-215689D02*
G03I-355J0D01*
G01X1026635Y-217289D02*
G03I-355J0D01*
G01X1024855Y-224978D02*
G03I-355J0D01*
G01X1018335Y-225678D02*
G03I-355J0D01*
G01Y-224978D02*
G03I-355J0D01*
G01Y-224289D02*
G03I-355J0D01*
G01Y-222899D02*
G03I-355J0D01*
G01Y-223599D02*
G03I-355J0D01*
G01Y-222209D02*
G03I-355J0D01*
G01Y-221509D02*
G03I-355J0D01*
G01X1021645Y-225678D02*
G03I-355J0D01*
G01Y-224978D02*
G03I-355J0D01*
G01Y-224289D02*
G03I-355J0D01*
G01Y-223599D02*
G03I-355J0D01*
G01Y-222209D02*
G03I-355J0D01*
G01Y-222899D02*
G03I-355J0D01*
G01Y-221509D02*
G03I-355J0D01*
G01X1024255Y-224289D02*
G03I-355J0D01*
G01X1023765Y-223599D02*
G03I-355J0D01*
G01Y-222899D02*
G03I-355J0D01*
G01Y-223719D02*
G03I-355J0D01*
G01Y-222298D02*
G03I-355J0D01*
G01X1025445Y-225678D02*
G03I-355J0D01*
G01X1025545Y-222298D02*
G03I-355J0D01*
G01X1026315Y-222209D02*
G03I-355J0D01*
G01X1026685Y-222109D02*
G03I-355J0D01*
G01X1026125Y-222259D02*
G03I-355J0D01*
G01X1010500Y1305431D02*
Y1345431D01*
G01Y1305431D02*
Y1295431D01*
G01X1028965Y-236709D02*
G03I-355J0D01*
G01Y-233399D02*
G03I-355J0D01*
G01X1029515D02*
G03I-355J0D01*
G01X1031055Y-236709D02*
G03I-355J0D01*
G01X1032465Y-233399D02*
G03I-355J0D01*
G01X1032985Y-236709D02*
G03I-355J0D01*
G01Y-233399D02*
G03I-355J0D01*
G01X1035575Y-236709D02*
G03I-355J0D01*
G01Y-233399D02*
G03I-355J0D01*
G01X1038195Y-235809D02*
G03I-355J0D01*
G01X1038245Y-235989D02*
G03I-355J0D01*
G01X1038325Y-236159D02*
G03I-355J0D01*
G01X1038435Y-236319D02*
G03I-355J0D01*
G01X1038565Y-236449D02*
G03I-355J0D01*
G01X1038715Y-236559D02*
G03I-355J0D01*
G01X1038175Y-235619D02*
G03I-355J0D01*
G01X1038255Y-234069D02*
G03I-355J0D01*
G01X1038195Y-234278D02*
G03I-355J0D01*
G01X1038175Y-234489D02*
G03I-355J0D01*
G01X1038655Y-233578D02*
G03I-355J0D01*
G01X1038495Y-233719D02*
G03I-355J0D01*
G01X1038355Y-233878D02*
G03I-355J0D01*
G01X1038895Y-236639D02*
G03I-355J0D01*
G01X1039075Y-236689D02*
G03I-355J0D01*
G01X1039265Y-236709D02*
G03I-355J0D01*
G01Y-233399D02*
G03I-355J0D01*
G01X1039055Y-233419D02*
G03I-355J0D01*
G01X1038845Y-233478D02*
G03I-355J0D01*
G01X1041015Y-236709D02*
G03I-355J0D01*
G01Y-233399D02*
G03I-355J0D01*
G01X1028215Y-228909D02*
G03I-355J0D01*
G01X1031875D02*
G03I-355J0D01*
G01X1037195Y-228678D02*
G03I-355J0D01*
G01X1038215Y-228848D02*
G03I-355J0D01*
G01X1039245Y-228909D02*
G03I-355J0D01*
G01X1041995D02*
G03I-355J0D01*
G01X1042905Y-228878D02*
G03I-355J0D01*
G01X1027235Y-227759D02*
G03I-355J0D01*
G01X1027825Y-228459D02*
G03I-355J0D01*
G01X1030195Y-227069D02*
G03I-355J0D01*
G01X1029565Y-226369D02*
G03I-355J0D01*
G01X1030825Y-227759D02*
G03I-355J0D01*
G01X1031465Y-228459D02*
G03I-355J0D01*
G01X1034235Y-226369D02*
G03I-355J0D01*
G01X1034335Y-226719D02*
G03I-355J0D01*
G01X1035195Y-227759D02*
G03I-355J0D01*
G01X1035265Y-227809D02*
G03I-355J0D01*
G01X1034875Y-227519D02*
G03I-355J0D01*
G01X1034515Y-227069D02*
G03I-355J0D01*
G01X1034565Y-227149D02*
G03I-355J0D01*
G01X1035865Y-228189D02*
G03I-355J0D01*
G01X1036455Y-228459D02*
G03I-355J0D01*
G01X1036515Y-228478D02*
G03I-355J0D01*
G01X1037655Y-226369D02*
G03I-355J0D01*
G01X1037675Y-226399D02*
G03I-355J0D01*
G01X1038395Y-227069D02*
G03I-355J0D01*
G01X1038025Y-226749D02*
G03I-355J0D01*
G01X1038385Y-227069D02*
G03I-355J0D01*
G01X1038805Y-227299D02*
G03I-355J0D01*
G01X1039275Y-227449D02*
G03I-355J0D01*
G01X1039755Y-227498D02*
G03I-355J0D01*
G01X1041365D02*
G03I-355J0D01*
G01X1041965Y-227459D02*
G03I-355J0D01*
G01X1042535Y-227299D02*
G03I-355J0D01*
G01X1043775Y-236539D02*
G03I-355J0D01*
G01X1043595Y-236409D02*
G03I-355J0D01*
G01X1043435Y-236249D02*
G03I-355J0D01*
G01X1043305Y-236059D02*
G03I-355J0D01*
G01X1043215Y-235859D02*
G03I-355J0D01*
G01X1043155Y-235639D02*
G03I-355J0D01*
G01X1043135Y-235419D02*
G03I-355J0D01*
G01Y-234669D02*
G03I-355J0D01*
G01X1043155Y-234449D02*
G03I-355J0D01*
G01X1043215Y-234239D02*
G03I-355J0D01*
G01X1043305Y-234028D02*
G03I-355J0D01*
G01X1043435Y-233849D02*
G03I-355J0D01*
G01X1043585Y-233699D02*
G03I-355J0D01*
G01X1043775Y-233569D02*
G03I-355J0D01*
G01X1044425Y-236709D02*
G03I-355J0D01*
G01X1044205Y-236689D02*
G03I-355J0D01*
G01X1043985Y-236628D02*
G03I-355J0D01*
G01X1043975Y-233478D02*
G03I-355J0D01*
G01X1044185Y-233419D02*
G03I-355J0D01*
G01X1044405Y-233399D02*
G03I-355J0D01*
G01X1045535Y-236649D02*
G03I-355J0D01*
G01X1045335Y-236689D02*
G03I-355J0D01*
G01X1045125Y-236709D02*
G03I-355J0D01*
G01X1045145Y-233399D02*
G03I-355J0D01*
G01X1045375Y-233419D02*
G03I-355J0D01*
G01X1045585Y-233478D02*
G03I-355J0D01*
G01X1046305Y-235989D02*
G03I-355J0D01*
G01X1046195Y-236169D02*
G03I-355J0D01*
G01X1046055Y-236319D02*
G03I-355J0D01*
G01X1045905Y-236459D02*
G03I-355J0D01*
G01X1045725Y-236569D02*
G03I-355J0D01*
G01X1046445Y-235389D02*
G03I-355J0D01*
G01X1046425Y-235598D02*
G03I-355J0D01*
G01X1046385Y-235799D02*
G03I-355J0D01*
G01X1046445Y-235389D02*
G03I-355J0D01*
G01X1046275Y-234049D02*
G03I-355J0D01*
G01X1046365Y-234259D02*
G03I-355J0D01*
G01X1046425Y-234469D02*
G03I-355J0D01*
G01X1046445Y-234698D02*
G03I-355J0D01*
G01X1045795Y-233569D02*
G03I-355J0D01*
G01X1045985Y-233699D02*
G03I-355J0D01*
G01X1046145Y-233859D02*
G03I-355J0D01*
G01X1048805Y-236709D02*
G03I-355J0D01*
G01Y-233399D02*
G03I-355J0D01*
G01X1049285D02*
G03I-355J0D01*
G01X1051565Y-236709D02*
G03I-355J0D01*
G01X1052115D02*
G03I-355J0D01*
G01Y-233399D02*
G03I-355J0D01*
G01X1054475Y-236709D02*
G03I-355J0D01*
G01Y-233399D02*
G03I-355J0D01*
G01X1056235Y-236709D02*
G03I-355J0D01*
G01X1056435Y-236689D02*
G03I-355J0D01*
G01X1056635Y-236649D02*
G03I-355J0D01*
G01X1056695Y-233478D02*
G03I-355J0D01*
G01X1056475Y-233419D02*
G03I-355J0D01*
G01X1056255Y-233399D02*
G03I-355J0D01*
G01X1056825Y-236569D02*
G03I-355J0D01*
G01X1057005Y-236459D02*
G03I-355J0D01*
G01X1057165Y-236328D02*
G03I-355J0D01*
G01X1057295Y-236169D02*
G03I-355J0D01*
G01X1057405Y-235989D02*
G03I-355J0D01*
G01X1057485Y-235799D02*
G03I-355J0D01*
G01X1057525Y-235598D02*
G03I-355J0D01*
G01X1057545Y-235399D02*
G03I-355J0D01*
G01Y-234689D02*
G03I-355J0D01*
G01X1057525Y-234469D02*
G03I-355J0D01*
G01X1057465Y-234249D02*
G03I-355J0D01*
G01X1057375Y-234039D02*
G03I-355J0D01*
G01X1057545Y-234689D02*
G03I-355J0D01*
G01X1057245Y-233859D02*
G03I-355J0D01*
G01X1057085Y-233699D02*
G03I-355J0D01*
G01X1056905Y-233569D02*
G03I-355J0D01*
G01X1059975Y-235889D02*
G03I-355J0D01*
G01X1060075Y-236089D02*
G03I-355J0D01*
G01X1059915Y-235469D02*
G03I-355J0D01*
G01X1059905D02*
G03I-355J0D01*
G01X1059925Y-235689D02*
G03I-355J0D01*
G01X1059915Y-233399D02*
G03I-355J0D01*
G01X1060195Y-236269D02*
G03I-355J0D01*
G01X1060345Y-236419D02*
G03I-355J0D01*
G01X1060525Y-236539D02*
G03I-355J0D01*
G01X1060725Y-236639D02*
G03I-355J0D01*
G01X1060925Y-236689D02*
G03I-355J0D01*
G01X1061145Y-236709D02*
G03I-355J0D01*
G01X1061665D02*
G03I-355J0D01*
G01X1061895Y-236689D02*
G03I-355J0D01*
G01X1062115Y-236628D02*
G03I-355J0D01*
G01X1062325Y-236528D02*
G03I-355J0D01*
G01X1062505Y-236398D02*
G03I-355J0D01*
G01X1062665Y-236239D02*
G03I-355J0D01*
G01X1062795Y-236049D02*
G03I-355J0D01*
G01X1062895Y-235849D02*
G03I-355J0D01*
G01X1062955Y-235628D02*
G03I-355J0D01*
G01X1062975Y-235399D02*
G03I-355J0D01*
G01X1062985D02*
G03I-355J0D01*
G01Y-233399D02*
G03I-355J0D01*
G01X1065125Y-235828D02*
G03I-355J0D01*
G01X1065165Y-236009D02*
G03I-355J0D01*
G01X1065105Y-235639D02*
G03I-355J0D01*
G01X1065125Y-234259D02*
G03I-355J0D01*
G01X1065105Y-234439D02*
G03I-355J0D01*
G01X1065165Y-234078D02*
G03I-355J0D01*
G01X1065245Y-236169D02*
G03I-355J0D01*
G01X1065355Y-236328D02*
G03I-355J0D01*
G01X1065485Y-236459D02*
G03I-355J0D01*
G01X1065635Y-236569D02*
G03I-355J0D01*
G01X1065805Y-236649D02*
G03I-355J0D01*
G01X1065985Y-236689D02*
G03I-355J0D01*
G01X1065965Y-233419D02*
G03I-355J0D01*
G01X1065785Y-233459D02*
G03I-355J0D01*
G01X1065625Y-233539D02*
G03I-355J0D01*
G01X1065475Y-233639D02*
G03I-355J0D01*
G01X1065345Y-233769D02*
G03I-355J0D01*
G01X1065245Y-233919D02*
G03I-355J0D01*
G01X1066175Y-236709D02*
G03I-355J0D01*
G01X1066145Y-233399D02*
G03I-355J0D01*
G01X1067945Y-236709D02*
G03I-355J0D01*
G01Y-233399D02*
G03I-355J0D01*
G01X1043805Y-228739D02*
G03I-355J0D01*
G01X1043005Y-227069D02*
G03I-355J0D01*
G01X1043705Y-226369D02*
G03I-355J0D01*
G01X1043065Y-227039D02*
G03I-355J0D01*
G01X1043535Y-226669D02*
G03I-355J0D01*
G01X1044725Y-228459D02*
G03I-355J0D01*
G01X1044675Y-228478D02*
G03I-355J0D01*
G01X1045255Y-228209D02*
G03I-355J0D01*
G01X1045885Y-227759D02*
G03I-355J0D01*
G01X1046245Y-227419D02*
G03I-355J0D01*
G01X1045785Y-227859D02*
G03I-355J0D01*
G01X1046985Y-226369D02*
G03I-355J0D01*
G01X1046595Y-227069D02*
G03I-355J0D01*
G01X1046925Y-226559D02*
G03I-355J0D01*
G01X1046635Y-227028D02*
G03I-355J0D01*
G01X1050465Y-228909D02*
G03I-355J0D01*
G01X1053765D02*
G03I-355J0D01*
G01X1060855D02*
G03I-355J0D01*
G01X1064165D02*
G03I-355J0D01*
G01X1067705D02*
G03I-355J0D01*
G01X1050465Y-228459D02*
G03I-355J0D01*
G01Y-227759D02*
G03I-355J0D01*
G01Y-227069D02*
G03I-355J0D01*
G01Y-226369D02*
G03I-355J0D01*
G01X1053765Y-228459D02*
G03I-355J0D01*
G01Y-227759D02*
G03I-355J0D01*
G01Y-227069D02*
G03I-355J0D01*
G01Y-226369D02*
G03I-355J0D01*
G01X1060855Y-228459D02*
G03I-355J0D01*
G01Y-227759D02*
G03I-355J0D01*
G01Y-227069D02*
G03I-355J0D01*
G01Y-226369D02*
G03I-355J0D01*
G01X1064165Y-228459D02*
G03I-355J0D01*
G01Y-227759D02*
G03I-355J0D01*
G01Y-226369D02*
G03I-355J0D01*
G01Y-227069D02*
G03I-355J0D01*
G01X1067705Y-228459D02*
G03I-355J0D01*
G01Y-227759D02*
G03I-355J0D01*
G01Y-227069D02*
G03I-355J0D01*
G01Y-226369D02*
G03I-355J0D01*
G01X1069835Y-233399D02*
G03I-355J0D01*
G01X1070775Y-228909D02*
G03I-355J0D01*
G01Y-228459D02*
G03I-355J0D01*
G01Y-227759D02*
G03I-355J0D01*
G01Y-226369D02*
G03I-355J0D01*
G01Y-227069D02*
G03I-355J0D01*
G01X1026765Y-217349D02*
G03I-355J0D01*
G01X1027585Y-217889D02*
G03I-355J0D01*
G01X1027685Y-218039D02*
G03I-355J0D01*
G01X1027275Y-217578D02*
G03I-355J0D01*
G01X1027525Y-215809D02*
G03I-355J0D01*
G01X1027925Y-220819D02*
G03I-355J0D01*
G01X1027975Y-220649D02*
G03I-355J0D01*
G01X1028025Y-220128D02*
G03I-355J0D01*
G01Y-220209D02*
G03I-355J0D01*
G01Y-219428D02*
G03I-355J0D01*
G01X1027975Y-218739D02*
G03I-355J0D01*
G01X1027965Y-218669D02*
G03I-355J0D01*
G01X1028025Y-219109D02*
G03I-355J0D01*
G01X1027815Y-218259D02*
G03I-355J0D01*
G01X1028245Y-215959D02*
G03I-355J0D01*
G01X1029165Y-216159D02*
G03I-355J0D01*
G01X1029955Y-216659D02*
G03I-355J0D01*
G01X1030205Y-216859D02*
G03I-355J0D01*
G01X1029715Y-216459D02*
G03I-355J0D01*
G01X1031085Y-220819D02*
G03I-355J0D01*
G01X1031095Y-220759D02*
G03I-355J0D01*
G01Y-220128D02*
G03I-355J0D01*
G01Y-219428D02*
G03I-355J0D01*
G01Y-218739D02*
G03I-355J0D01*
G01X1030995Y-218039D02*
G03I-355J0D01*
G01X1031095Y-218759D02*
G03I-355J0D01*
G01X1031075Y-218378D02*
G03I-355J0D01*
G01X1030985Y-217999D02*
G03I-355J0D01*
G01X1030625Y-217349D02*
G03I-355J0D01*
G01X1030835Y-217648D02*
G03I-355J0D01*
G01X1030615Y-217339D02*
G03I-355J0D01*
G01X1034165Y-220819D02*
G03I-355J0D01*
G01Y-220128D02*
G03I-355J0D01*
G01Y-219428D02*
G03I-355J0D01*
G01X1034195Y-218739D02*
G03I-355J0D01*
G01X1034165Y-219069D02*
G03I-355J0D01*
G01X1034385Y-218039D02*
G03I-355J0D01*
G01X1034335Y-218128D02*
G03I-355J0D01*
G01X1034205Y-218589D02*
G03I-355J0D01*
G01X1034335Y-218128D02*
G03I-355J0D01*
G01X1034845Y-217349D02*
G03I-355J0D01*
G01X1034565Y-217709D02*
G03I-355J0D01*
G01X1034855Y-217328D02*
G03I-355J0D01*
G01X1035225Y-217019D02*
G03I-355J0D01*
G01X1035675Y-216659D02*
G03I-355J0D01*
G01X1035855Y-216509D02*
G03I-355J0D01*
G01X1036565Y-216119D02*
G03I-355J0D01*
G01X1037035Y-215959D02*
G03I-355J0D01*
G01X1037235Y-220819D02*
G03I-355J0D01*
G01Y-220128D02*
G03I-355J0D01*
G01Y-219428D02*
G03I-355J0D01*
G01X1037345Y-218739D02*
G03I-355J0D01*
G01X1037275Y-218978D02*
G03I-355J0D01*
G01X1037235Y-219389D02*
G03I-355J0D01*
G01X1037595Y-218239D02*
G03I-355J0D01*
G01X1037395Y-218589D02*
G03I-355J0D01*
G01X1037765Y-218039D02*
G03I-355J0D01*
G01X1037865Y-217928D02*
G03I-355J0D01*
G01D02*
G03I-355J0D01*
G01X1037325Y-215859D02*
G03I-355J0D01*
G01X1038695Y-217349D02*
G03I-355J0D01*
G01X1038295Y-217559D02*
G03I-355J0D01*
G01X1038125Y-215719D02*
G03I-355J0D01*
G01X1039345Y-217139D02*
G03I-355J0D01*
G01X1038795Y-217289D02*
G03I-355J0D01*
G01X1038925Y-215689D02*
G03I-355J0D01*
G01X1039915Y-217099D02*
G03I-355J0D01*
G01X1041905Y-217128D02*
G03I-355J0D01*
G01X1041365Y-217099D02*
G03I-355J0D01*
G01X1042035Y-215689D02*
G03I-355J0D01*
G01X1042615Y-217349D02*
G03I-355J0D01*
G01X1042905Y-217489D02*
G03I-355J0D01*
G01X1042425Y-217259D02*
G03I-355J0D01*
G01X1042895Y-215719D02*
G03I-355J0D01*
G01X1027665Y-224289D02*
G03I-355J0D01*
G01X1027425Y-224028D02*
G03I-355J0D01*
G01Y-223599D02*
G03I-355J0D01*
G01Y-223519D02*
G03I-355J0D01*
G01X1027615Y-221509D02*
G03I-355J0D01*
G01X1027665Y-221469D02*
G03I-355J0D01*
G01X1027205Y-221839D02*
G03I-355J0D01*
G01X1028295Y-224978D02*
G03I-355J0D01*
G01X1028125Y-223509D02*
G03I-355J0D01*
G01X1027855Y-221069D02*
G03I-355J0D01*
G01X1028935Y-225678D02*
G03I-355J0D01*
G01X1028805Y-223389D02*
G03I-355J0D01*
G01X1029905Y-222899D02*
G03I-355J0D01*
G01X1029465Y-223149D02*
G03I-355J0D01*
G01X1030065Y-222809D02*
G03I-355J0D01*
G01X1030655Y-222209D02*
G03I-355J0D01*
G01X1030425Y-222499D02*
G03I-355J0D01*
G01X1030715Y-222119D02*
G03I-355J0D01*
G01X1030985Y-221509D02*
G03I-355J0D01*
G01X1030935Y-221699D02*
G03I-355J0D01*
G01X1031055Y-221239D02*
G03I-355J0D01*
G01X1034165Y-225678D02*
G03I-355J0D01*
G01X1034195Y-226249D02*
G03I-355J0D01*
G01X1034165Y-225759D02*
G03I-355J0D01*
G01Y-224978D02*
G03I-355J0D01*
G01Y-224289D02*
G03I-355J0D01*
G01Y-223599D02*
G03I-355J0D01*
G01Y-222899D02*
G03I-355J0D01*
G01Y-222209D02*
G03I-355J0D01*
G01Y-221509D02*
G03I-355J0D01*
G01Y-221828D02*
G03I-355J0D01*
G01D02*
G03I-355J0D01*
G01D02*
G03I-355J0D01*
G01X1037325Y-225678D02*
G03I-355J0D01*
G01X1037265Y-225509D02*
G03I-355J0D01*
G01X1037415Y-225978D02*
G03I-355J0D01*
G01X1037235Y-224978D02*
G03I-355J0D01*
G01Y-225019D02*
G03I-355J0D01*
G01Y-224289D02*
G03I-355J0D01*
G01Y-223599D02*
G03I-355J0D01*
G01Y-222899D02*
G03I-355J0D01*
G01Y-222209D02*
G03I-355J0D01*
G01Y-221509D02*
G03I-355J0D01*
G01Y-221828D02*
G03I-355J0D01*
G01D02*
G03I-355J0D01*
G01D02*
G03I-355J0D01*
G01X1043585Y-218039D02*
G03I-355J0D01*
G01X1043665Y-218109D02*
G03I-355J0D01*
G01X1043335Y-217809D02*
G03I-355J0D01*
G01X1043745Y-215878D02*
G03I-355J0D01*
G01X1044085Y-220819D02*
G03I-355J0D01*
G01Y-220128D02*
G03I-355J0D01*
G01X1043995Y-218739D02*
G03I-355J0D01*
G01X1044085Y-219428D02*
G03I-355J0D01*
G01Y-219349D02*
G03I-355J0D01*
G01X1044045Y-218899D02*
G03I-355J0D01*
G01X1043905Y-218478D02*
G03I-355J0D01*
G01X1044555Y-216159D02*
G03I-355J0D01*
G01X1043985Y-215959D02*
G03I-355J0D01*
G01X1045555Y-216659D02*
G03I-355J0D01*
G01X1045185Y-216428D02*
G03I-355J0D01*
G01X1046395Y-217349D02*
G03I-355J0D01*
G01X1046285Y-217219D02*
G03I-355J0D01*
G01X1045765Y-216778D02*
G03I-355J0D01*
G01X1047155Y-220819D02*
G03I-355J0D01*
G01Y-220128D02*
G03I-355J0D01*
G01X1047105Y-218739D02*
G03I-355J0D01*
G01X1047155Y-219428D02*
G03I-355J0D01*
G01X1047105Y-218759D02*
G03I-355J0D01*
G01X1047155Y-219349D02*
G03I-355J0D01*
G01X1046865Y-218039D02*
G03I-355J0D01*
G01X1046945Y-218189D02*
G03I-355J0D01*
G01X1046665Y-217669D02*
G03I-355J0D01*
G01X1050465Y-220819D02*
G03I-355J0D01*
G01Y-220128D02*
G03I-355J0D01*
G01Y-219428D02*
G03I-355J0D01*
G01Y-218739D02*
G03I-355J0D01*
G01Y-218039D02*
G03I-355J0D01*
G01Y-217349D02*
G03I-355J0D01*
G01Y-216159D02*
G03I-355J0D01*
G01Y-216659D02*
G03I-355J0D01*
G01X1053825Y-220819D02*
G03I-355J0D01*
G01X1053765Y-220549D02*
G03I-355J0D01*
G01X1053795Y-220759D02*
G03I-355J0D01*
G01X1053875Y-220949D02*
G03I-355J0D01*
G01X1053765Y-220128D02*
G03I-355J0D01*
G01Y-219428D02*
G03I-355J0D01*
G01Y-218739D02*
G03I-355J0D01*
G01Y-218039D02*
G03I-355J0D01*
G01Y-217349D02*
G03I-355J0D01*
G01Y-216159D02*
G03I-355J0D01*
G01D02*
G03I-355J0D01*
G01Y-216659D02*
G03I-355J0D01*
G01X1060805Y-220819D02*
G03I-355J0D01*
G01X1060745Y-220959D02*
G03I-355J0D01*
G01X1060825Y-220769D02*
G03I-355J0D01*
G01X1060855Y-220569D02*
G03I-355J0D01*
G01Y-220128D02*
G03I-355J0D01*
G01Y-218739D02*
G03I-355J0D01*
G01Y-219428D02*
G03I-355J0D01*
G01Y-218039D02*
G03I-355J0D01*
G01Y-217349D02*
G03I-355J0D01*
G01Y-216659D02*
G03I-355J0D01*
G01Y-216159D02*
G03I-355J0D01*
G01X1064165Y-220819D02*
G03I-355J0D01*
G01Y-220128D02*
G03I-355J0D01*
G01Y-218739D02*
G03I-355J0D01*
G01Y-219428D02*
G03I-355J0D01*
G01Y-218039D02*
G03I-355J0D01*
G01Y-217349D02*
G03I-355J0D01*
G01Y-216659D02*
G03I-355J0D01*
G01Y-216159D02*
G03I-355J0D01*
G01X1067705Y-220819D02*
G03I-355J0D01*
G01Y-220128D02*
G03I-355J0D01*
G01Y-219428D02*
G03I-355J0D01*
G01Y-218039D02*
G03I-355J0D01*
G01Y-218739D02*
G03I-355J0D01*
G01Y-217349D02*
G03I-355J0D01*
G01Y-216659D02*
G03I-355J0D01*
G01Y-216159D02*
G03I-355J0D01*
G01X1043835Y-226159D02*
G03I-355J0D01*
G01X1043995Y-225678D02*
G03I-355J0D01*
G01X1044025Y-225599D02*
G03I-355J0D01*
G01X1044085Y-224978D02*
G03I-355J0D01*
G01Y-225019D02*
G03I-355J0D01*
G01Y-224289D02*
G03I-355J0D01*
G01Y-222899D02*
G03I-355J0D01*
G01Y-223599D02*
G03I-355J0D01*
G01Y-222209D02*
G03I-355J0D01*
G01Y-221509D02*
G03I-355J0D01*
G01X1047135Y-225678D02*
G03I-355J0D01*
G01X1047105Y-226039D02*
G03I-355J0D01*
G01X1047155Y-224978D02*
G03I-355J0D01*
G01Y-225489D02*
G03I-355J0D01*
G01Y-224289D02*
G03I-355J0D01*
G01Y-223599D02*
G03I-355J0D01*
G01Y-222209D02*
G03I-355J0D01*
G01Y-222899D02*
G03I-355J0D01*
G01Y-221509D02*
G03I-355J0D01*
G01X1050465Y-225678D02*
G03I-355J0D01*
G01Y-224978D02*
G03I-355J0D01*
G01Y-224289D02*
G03I-355J0D01*
G01Y-223599D02*
G03I-355J0D01*
G01Y-222209D02*
G03I-355J0D01*
G01Y-222899D02*
G03I-355J0D01*
G01Y-221509D02*
G03I-355J0D01*
G01X1053765Y-225678D02*
G03I-355J0D01*
G01Y-224978D02*
G03I-355J0D01*
G01Y-224289D02*
G03I-355J0D01*
G01Y-223789D02*
G03I-355J0D01*
G01X1053795Y-223599D02*
G03I-355J0D01*
G01X1053995Y-223239D02*
G03I-355J0D01*
G01X1053875Y-223398D02*
G03I-355J0D01*
G01X1053795Y-223589D02*
G03I-355J0D01*
G01X1054005Y-221119D02*
G03I-355J0D01*
G01X1054545Y-223009D02*
G03I-355J0D01*
G01X1054345Y-223028D02*
G03I-355J0D01*
G01X1054155Y-223109D02*
G03I-355J0D01*
G01X1054175Y-221248D02*
G03I-355J0D01*
G01X1054365Y-221328D02*
G03I-355J0D01*
G01X1054575Y-221349D02*
G03I-355J0D01*
G01X1060025Y-223009D02*
G03I-355J0D01*
G01X1060075Y-221349D02*
G03I-355J0D01*
G01X1060855Y-225678D02*
G03I-355J0D01*
G01Y-224978D02*
G03I-355J0D01*
G01Y-224289D02*
G03I-355J0D01*
G01X1060815Y-223599D02*
G03I-355J0D01*
G01X1060855Y-223839D02*
G03I-355J0D01*
G01X1060825Y-223619D02*
G03I-355J0D01*
G01X1060745Y-223419D02*
G03I-355J0D01*
G01X1060615Y-223248D02*
G03I-355J0D01*
G01X1060445Y-223119D02*
G03I-355J0D01*
G01X1060235Y-223039D02*
G03I-355J0D01*
G01X1060275Y-221328D02*
G03I-355J0D01*
G01X1060465Y-221248D02*
G03I-355J0D01*
G01X1060625Y-221128D02*
G03I-355J0D01*
G01X1064165Y-225678D02*
G03I-355J0D01*
G01Y-224978D02*
G03I-355J0D01*
G01Y-224289D02*
G03I-355J0D01*
G01Y-223599D02*
G03I-355J0D01*
G01Y-222209D02*
G03I-355J0D01*
G01Y-222899D02*
G03I-355J0D01*
G01Y-221509D02*
G03I-355J0D01*
G01X1067705Y-225678D02*
G03I-355J0D01*
G01Y-224978D02*
G03I-355J0D01*
G01Y-224289D02*
G03I-355J0D01*
G01Y-223599D02*
G03I-355J0D01*
G01Y-222209D02*
G03I-355J0D01*
G01Y-222899D02*
G03I-355J0D01*
G01Y-221509D02*
G03I-355J0D01*
G01X1069255Y-215959D02*
G03I-355J0D01*
G01X1070775Y-220819D02*
G03I-355J0D01*
G01Y-220128D02*
G03I-355J0D01*
G01Y-218739D02*
G03I-355J0D01*
G01Y-219428D02*
G03I-355J0D01*
G01X1070795Y-218039D02*
G03I-355J0D01*
G01X1070805Y-217948D02*
G03I-355J0D01*
G01X1070775Y-218169D02*
G03I-355J0D01*
G01X1071015Y-217578D02*
G03I-355J0D01*
G01X1070885Y-217749D02*
G03I-355J0D01*
G01X1070645Y-215778D02*
G03I-355J0D01*
G01X1070775Y-225678D02*
G03I-355J0D01*
G01Y-224978D02*
G03I-355J0D01*
G01Y-224289D02*
G03I-355J0D01*
G01Y-222899D02*
G03I-355J0D01*
G01Y-223599D02*
G03I-355J0D01*
G01Y-222209D02*
G03I-355J0D01*
G01Y-221509D02*
G03I-355J0D01*
G01X1075335Y-236459D02*
G03I-355J0D01*
G01X1075175Y-236328D02*
G03I-355J0D01*
G01X1075045Y-236169D02*
G03I-355J0D01*
G01X1074935Y-235989D02*
G03I-355J0D01*
G01X1074955Y-234039D02*
G03I-355J0D01*
G01X1075085Y-233859D02*
G03I-355J0D01*
G01X1075245Y-233699D02*
G03I-355J0D01*
G01X1071245Y-236709D02*
G03I-355J0D01*
G01Y-233399D02*
G03I-355J0D01*
G01D02*
G03I-355J0D01*
G01X1072665D02*
G03I-355J0D01*
G01X1074855Y-235799D02*
G03I-355J0D01*
G01X1074815Y-235598D02*
G03I-355J0D01*
G01X1074795Y-235399D02*
G03I-355J0D01*
G01Y-234689D02*
G03I-355J0D01*
G01X1074785D02*
G03I-355J0D01*
G01X1074805Y-234469D02*
G03I-355J0D01*
G01X1074865Y-234249D02*
G03I-355J0D01*
G01X1075435Y-233569D02*
G03I-355J0D01*
G01X1076105Y-236709D02*
G03I-355J0D01*
G01X1075905Y-236689D02*
G03I-355J0D01*
G01X1075705Y-236649D02*
G03I-355J0D01*
G01X1075515Y-236569D02*
G03I-355J0D01*
G01X1075635Y-233478D02*
G03I-355J0D01*
G01X1075855Y-233419D02*
G03I-355J0D01*
G01X1076075Y-233399D02*
G03I-355J0D01*
G01X1077025Y-236689D02*
G03I-355J0D01*
G01X1076795Y-236709D02*
G03I-355J0D01*
G01X1076815Y-233399D02*
G03I-355J0D01*
G01X1077035Y-233419D02*
G03I-355J0D01*
G01X1077925Y-236059D02*
G03I-355J0D01*
G01X1077795Y-236249D02*
G03I-355J0D01*
G01X1077635Y-236409D02*
G03I-355J0D01*
G01X1077445Y-236539D02*
G03I-355J0D01*
G01X1077235Y-236628D02*
G03I-355J0D01*
G01X1078015Y-235849D02*
G03I-355J0D01*
G01X1077255Y-233478D02*
G03I-355J0D01*
G01X1077455Y-233569D02*
G03I-355J0D01*
G01X1077635Y-233699D02*
G03I-355J0D01*
G01X1077795Y-233859D02*
G03I-355J0D01*
G01X1077925Y-234039D02*
G03I-355J0D01*
G01X1078015Y-234239D02*
G03I-355J0D01*
G01X1078095Y-235409D02*
G03I-355J0D01*
G01X1078075Y-235639D02*
G03I-355J0D01*
G01X1078095Y-235409D02*
G03I-355J0D01*
G01X1078075Y-234459D02*
G03I-355J0D01*
G01X1078095Y-234678D02*
G03I-355J0D01*
G01X1080225Y-236709D02*
G03I-355J0D01*
G01Y-235059D02*
G03I-355J0D01*
G01D02*
G03I-355J0D01*
G01Y-233399D02*
G03I-355J0D01*
G01D02*
G03I-355J0D01*
G01X1082155Y-235059D02*
G03I-355J0D01*
G01D02*
G03I-355J0D01*
G01X1083055Y-236709D02*
G03I-355J0D01*
G01X1082435Y-235059D02*
G03I-355J0D01*
G01X1082605Y-235039D02*
G03I-355J0D01*
G01X1082765Y-234989D02*
G03I-355J0D01*
G01X1082915Y-234919D02*
G03I-355J0D01*
G01X1083045Y-234809D02*
G03I-355J0D01*
G01X1083065Y-233628D02*
G03I-355J0D01*
G01X1082935Y-233528D02*
G03I-355J0D01*
G01X1082805Y-233459D02*
G03I-355J0D01*
G01X1082655Y-233419D02*
G03I-355J0D01*
G01X1082495Y-233399D02*
G03I-355J0D01*
G01X1083155Y-234678D02*
G03I-355J0D01*
G01X1083225Y-234528D02*
G03I-355J0D01*
G01X1083275Y-234369D02*
G03I-355J0D01*
G01X1083295Y-234199D02*
G03I-355J0D01*
G01X1083275Y-234039D02*
G03I-355J0D01*
G01X1083235Y-233889D02*
G03I-355J0D01*
G01X1083165Y-233759D02*
G03I-355J0D01*
G01X1073845Y-228909D02*
G03I-355J0D01*
G01Y-228459D02*
G03I-355J0D01*
G01Y-227759D02*
G03I-355J0D01*
G01Y-227069D02*
G03I-355J0D01*
G01Y-226369D02*
G03I-355J0D01*
G01X1077155Y-228909D02*
G03I-355J0D01*
G01X1080225D02*
G03I-355J0D01*
G01X1083295D02*
G03I-355J0D01*
G01X1077155Y-228459D02*
G03I-355J0D01*
G01Y-227759D02*
G03I-355J0D01*
G01Y-227069D02*
G03I-355J0D01*
G01Y-226369D02*
G03I-355J0D01*
G01X1080225Y-228459D02*
G03I-355J0D01*
G01Y-227759D02*
G03I-355J0D01*
G01Y-227069D02*
G03I-355J0D01*
G01Y-226369D02*
G03I-355J0D01*
G01X1083295Y-228459D02*
G03I-355J0D01*
G01Y-227759D02*
G03I-355J0D01*
G01Y-227069D02*
G03I-355J0D01*
G01Y-226369D02*
G03I-355J0D01*
G01X1071195Y-217449D02*
G03I-355J0D01*
G01X1071525Y-217349D02*
G03I-355J0D01*
G01X1071605Y-217339D02*
G03I-355J0D01*
G01X1071385Y-217369D02*
G03I-355J0D01*
G01X1073125Y-217349D02*
G03I-355J0D01*
G01X1073735Y-217739D02*
G03I-355J0D01*
G01X1073615Y-217569D02*
G03I-355J0D01*
G01X1073445Y-217449D02*
G03I-355J0D01*
G01X1073255Y-217369D02*
G03I-355J0D01*
G01X1073045Y-217339D02*
G03I-355J0D01*
G01X1073615Y-215689D02*
G03I-355J0D01*
G01X1073845Y-220819D02*
G03I-355J0D01*
G01Y-220128D02*
G03I-355J0D01*
G01Y-219428D02*
G03I-355J0D01*
G01Y-218739D02*
G03I-355J0D01*
G01X1073835Y-218039D02*
G03I-355J0D01*
G01X1073845Y-218139D02*
G03I-355J0D01*
G01X1073825Y-217928D02*
G03I-355J0D01*
G01X1077155Y-220819D02*
G03I-355J0D01*
G01Y-220128D02*
G03I-355J0D01*
G01Y-219428D02*
G03I-355J0D01*
G01Y-218739D02*
G03I-355J0D01*
G01Y-218149D02*
G03I-355J0D01*
G01X1077165Y-218039D02*
G03I-355J0D01*
G01X1077185Y-217939D02*
G03I-355J0D01*
G01X1077885Y-217349D02*
G03I-355J0D01*
G01X1077965Y-217339D02*
G03I-355J0D01*
G01X1077755Y-217369D02*
G03I-355J0D01*
G01X1077565Y-217449D02*
G03I-355J0D01*
G01X1077395Y-217578D02*
G03I-355J0D01*
G01X1077265Y-217739D02*
G03I-355J0D01*
G01X1077945Y-215689D02*
G03I-355J0D01*
G01X1078805Y-217349D02*
G03I-355J0D01*
G01X1078725Y-217339D02*
G03I-355J0D01*
G01X1079715Y-217578D02*
G03I-355J0D01*
G01X1079235Y-217409D02*
G03I-355J0D01*
G01X1079105Y-215749D02*
G03I-355J0D01*
G01X1080225Y-220819D02*
G03I-355J0D01*
G01Y-220128D02*
G03I-355J0D01*
G01Y-219428D02*
G03I-355J0D01*
G01Y-218739D02*
G03I-355J0D01*
G01X1080105Y-218039D02*
G03I-355J0D01*
G01X1080225Y-218598D02*
G03I-355J0D01*
G01X1080195Y-218298D02*
G03I-355J0D01*
G01X1080095Y-218019D02*
G03I-355J0D01*
G01X1079935Y-217778D02*
G03I-355J0D01*
G01X1080405Y-215959D02*
G03I-355J0D01*
G01X1080265Y-215919D02*
G03I-355J0D01*
G01X1081045Y-216139D02*
G03I-355J0D01*
G01X1081775Y-216499D02*
G03I-355J0D01*
G01D02*
G03I-355J0D01*
G01X1081985Y-216659D02*
G03I-355J0D01*
G01X1083135Y-218039D02*
G03I-355J0D01*
G01X1082765Y-217349D02*
G03I-355J0D01*
G01X1082425Y-216978D02*
G03I-355J0D01*
G01X1082805Y-217389D02*
G03I-355J0D01*
G01X1083085Y-217869D02*
G03I-355J0D01*
G01X1083295Y-220819D02*
G03I-355J0D01*
G01Y-220128D02*
G03I-355J0D01*
G01Y-219428D02*
G03I-355J0D01*
G01X1083275Y-218739D02*
G03I-355J0D01*
G01X1083295Y-218949D02*
G03I-355J0D01*
G01X1083245Y-218399D02*
G03I-355J0D01*
G01X1073845Y-225678D02*
G03I-355J0D01*
G01Y-224978D02*
G03I-355J0D01*
G01Y-224289D02*
G03I-355J0D01*
G01Y-223599D02*
G03I-355J0D01*
G01Y-222899D02*
G03I-355J0D01*
G01Y-222209D02*
G03I-355J0D01*
G01Y-221509D02*
G03I-355J0D01*
G01X1077155Y-225678D02*
G03I-355J0D01*
G01Y-224978D02*
G03I-355J0D01*
G01Y-224289D02*
G03I-355J0D01*
G01Y-223599D02*
G03I-355J0D01*
G01Y-222899D02*
G03I-355J0D01*
G01Y-222209D02*
G03I-355J0D01*
G01Y-221509D02*
G03I-355J0D01*
G01X1080225Y-225678D02*
G03I-355J0D01*
G01Y-224978D02*
G03I-355J0D01*
G01Y-224289D02*
G03I-355J0D01*
G01Y-223599D02*
G03I-355J0D01*
G01Y-222899D02*
G03I-355J0D01*
G01Y-222209D02*
G03I-355J0D01*
G01Y-221509D02*
G03I-355J0D01*
G01X1083295Y-225678D02*
G03I-355J0D01*
G01Y-224978D02*
G03I-355J0D01*
G01Y-224289D02*
G03I-355J0D01*
G01Y-223599D02*
G03I-355J0D01*
G01Y-222899D02*
G03I-355J0D01*
G01Y-222209D02*
G03I-355J0D01*
G01Y-221509D02*
G03I-355J0D01*
G01X1071500Y1245431D02*
Y1255431D01*
X1074000D01*
X1075000Y1254931D01*
X1075750Y1254265D01*
X1076375Y1253265D01*
X1076875Y1252098D01*
X1077000Y1250431D01*
X1076875Y1248765D01*
X1076375Y1247598D01*
X1075750Y1246598D01*
X1075000Y1245931D01*
X1074000Y1245431D01*
X1071500D01*
G01X1086750D02*
X1081750D01*
Y1255431D01*
X1086750D01*
G01X1084750Y1250598D02*
X1081750D01*
G01X1091625Y1246764D02*
X1092625Y1245931D01*
X1093750Y1245431D01*
X1094750D01*
X1095750Y1245931D01*
X1096500Y1246764D01*
X1096875Y1247932D01*
X1096625Y1249098D01*
X1096000Y1250098D01*
X1094875Y1250765D01*
X1093375Y1251098D01*
X1092500Y1251765D01*
X1092125Y1252931D01*
X1092375Y1254098D01*
X1093000Y1254931D01*
X1093875Y1255431D01*
X1094750D01*
X1095625Y1255098D01*
X1096375Y1254265D01*
G01X1107000Y1254598D02*
X1106250Y1255098D01*
X1105375Y1255431D01*
X1104375D01*
X1103250Y1254931D01*
X1102375Y1254098D01*
X1101750Y1253098D01*
X1101250Y1251431D01*
X1101125Y1249931D01*
X1101375Y1248431D01*
X1101750Y1247431D01*
X1102500Y1246431D01*
X1103375Y1245765D01*
X1104250Y1245431D01*
X1105125D01*
X1106000Y1245765D01*
X1106750Y1246265D01*
X1107375Y1246931D01*
G01X1111750Y1245431D02*
Y1255431D01*
X1114875D01*
X1115875Y1254931D01*
X1116500Y1254265D01*
X1116750Y1252931D01*
X1116500Y1251598D01*
X1115750Y1250765D01*
X1114875Y1250265D01*
X1111750D01*
G01X1114875D02*
X1116750Y1245431D01*
G01X1122750Y1255431D02*
X1125750D01*
G01X1124250D02*
Y1245431D01*
G01X1122750D02*
X1125750D01*
G01X1131750D02*
Y1255431D01*
X1134750D01*
X1135750Y1254931D01*
X1136500Y1253765D01*
X1136750Y1252431D01*
X1136500Y1251098D01*
X1135875Y1250098D01*
X1134750Y1249598D01*
X1131750D01*
G01X1144250Y1255431D02*
Y1245431D01*
G01X1141375Y1255431D02*
X1147125D01*
G01X1152750D02*
X1155750D01*
G01X1154250D02*
Y1245431D01*
G01X1152750D02*
X1155750D01*
G01X1164250D02*
X1163250Y1245598D01*
X1162375Y1246265D01*
X1161625Y1247265D01*
X1161125Y1248431D01*
X1160875Y1249765D01*
Y1251098D01*
X1161125Y1252431D01*
X1161625Y1253598D01*
X1162375Y1254598D01*
X1163250Y1255265D01*
X1164250Y1255431D01*
X1165250Y1255265D01*
X1166125Y1254598D01*
X1166875Y1253598D01*
X1167375Y1252431D01*
X1167625Y1251098D01*
Y1249765D01*
X1167375Y1248431D01*
X1166875Y1247265D01*
X1166125Y1246265D01*
X1165250Y1245598D01*
X1164250Y1245431D01*
G01X1171375D02*
Y1255431D01*
X1177125Y1245431D01*
Y1255431D01*
G01X1130927Y-228569D02*
Y-223569D01*
X1131993D01*
X1132420Y-223819D01*
X1132740Y-224152D01*
X1133007Y-224652D01*
X1133220Y-225235D01*
X1133273Y-226069D01*
X1133220Y-226902D01*
X1133007Y-227485D01*
X1132740Y-227985D01*
X1132420Y-228319D01*
X1131993Y-228569D01*
X1130927D01*
G01X1137367D02*
X1135233D01*
Y-223569D01*
X1137367D01*
G01X1136513Y-225985D02*
X1135233D01*
G01X1139380Y-227902D02*
X1139807Y-228319D01*
X1140287Y-228569D01*
X1140713D01*
X1141140Y-228319D01*
X1141460Y-227902D01*
X1141620Y-227319D01*
X1141513Y-226735D01*
X1141247Y-226235D01*
X1140767Y-225902D01*
X1140127Y-225735D01*
X1139753Y-225402D01*
X1139593Y-224819D01*
X1139700Y-224235D01*
X1139967Y-223819D01*
X1140340Y-223569D01*
X1140713D01*
X1141087Y-223735D01*
X1141407Y-224152D01*
G01X1144060Y-223569D02*
X1145340D01*
G01X1144700D02*
Y-228569D01*
G01X1144060D02*
X1145340D01*
G01X1149220Y-226069D02*
X1150287D01*
Y-227569D01*
X1149967Y-228069D01*
X1149593Y-228402D01*
X1149060Y-228569D01*
X1148527Y-228402D01*
X1148153Y-228069D01*
X1147833Y-227569D01*
X1147620Y-226985D01*
X1147513Y-226319D01*
Y-225735D01*
X1147620Y-225235D01*
X1147833Y-224652D01*
X1148153Y-224152D01*
X1148473Y-223819D01*
X1148900Y-223569D01*
X1149273D01*
X1149700Y-223735D01*
X1150020Y-224069D01*
G01X1151873Y-228569D02*
Y-223569D01*
X1154327Y-228569D01*
Y-223569D01*
G01X1158367Y-228569D02*
X1156233D01*
Y-223569D01*
X1158367D01*
G01X1157513Y-225985D02*
X1156233D01*
G01X1160433Y-228569D02*
Y-223569D01*
X1161767D01*
X1162193Y-223819D01*
X1162460Y-224152D01*
X1162567Y-224819D01*
X1162460Y-225485D01*
X1162140Y-225902D01*
X1161767Y-226152D01*
X1160433D01*
G01X1161767D02*
X1162567Y-228569D01*
G01X1165700Y-228735D02*
X1165593Y-228652D01*
Y-228485D01*
X1165700Y-228402D01*
X1165807Y-228485D01*
Y-228652D01*
X1165700Y-228735D01*
G01Y-226485D02*
X1165593Y-226402D01*
Y-226235D01*
X1165700Y-226152D01*
X1165807Y-226235D01*
Y-226402D01*
X1165700Y-226485D01*
G01X1133273Y-234985D02*
X1132953Y-234735D01*
X1132580Y-234569D01*
X1132153D01*
X1131673Y-234819D01*
X1131300Y-235235D01*
X1131033Y-235735D01*
X1130820Y-236569D01*
X1130767Y-237319D01*
X1130873Y-238069D01*
X1131033Y-238569D01*
X1131353Y-239069D01*
X1131727Y-239402D01*
X1132100Y-239569D01*
X1132473D01*
X1132847Y-239402D01*
X1133167Y-239152D01*
X1133433Y-238819D01*
G01X1135180Y-239569D02*
Y-234569D01*
G01X1137420D02*
Y-239569D01*
G01Y-237069D02*
X1135180D01*
G01X1141567Y-239569D02*
X1139433D01*
Y-234569D01*
X1141567D01*
G01X1140713Y-236985D02*
X1139433D01*
G01X1145873Y-234985D02*
X1145553Y-234735D01*
X1145180Y-234569D01*
X1144753D01*
X1144273Y-234819D01*
X1143900Y-235235D01*
X1143633Y-235735D01*
X1143420Y-236569D01*
X1143367Y-237319D01*
X1143473Y-238069D01*
X1143633Y-238569D01*
X1143953Y-239069D01*
X1144327Y-239402D01*
X1144700Y-239569D01*
X1145073D01*
X1145447Y-239402D01*
X1145767Y-239152D01*
X1146033Y-238819D01*
G01X1147727Y-239569D02*
Y-234569D01*
G01X1149753D02*
X1147727Y-237652D01*
G01X1150073Y-239569D02*
X1148633Y-236235D01*
G01X1154167Y-239569D02*
X1152033D01*
Y-234569D01*
X1154167D01*
G01X1153313Y-236985D02*
X1152033D01*
G01X1156233Y-239569D02*
Y-234569D01*
X1157567D01*
X1157993Y-234819D01*
X1158260Y-235152D01*
X1158367Y-235819D01*
X1158260Y-236485D01*
X1157940Y-236902D01*
X1157567Y-237152D01*
X1156233D01*
G01X1157567D02*
X1158367Y-239569D01*
G01X1161500Y-239735D02*
X1161393Y-239652D01*
Y-239485D01*
X1161500Y-239402D01*
X1161607Y-239485D01*
Y-239652D01*
X1161500Y-239735D01*
G01Y-237485D02*
X1161393Y-237402D01*
Y-237235D01*
X1161500Y-237152D01*
X1161607Y-237235D01*
Y-237402D01*
X1161500Y-237485D01*
G01X1131927Y-250569D02*
Y-245569D01*
X1132993D01*
X1133420Y-245819D01*
X1133740Y-246152D01*
X1134007Y-246652D01*
X1134220Y-247235D01*
X1134273Y-248069D01*
X1134220Y-248902D01*
X1134007Y-249485D01*
X1133740Y-249985D01*
X1133420Y-250319D01*
X1132993Y-250569D01*
X1131927D01*
G01X1135967D02*
X1137300Y-245569D01*
X1138633Y-250569D01*
G01X1138153Y-248819D02*
X1136447D01*
G01X1141500Y-245569D02*
Y-250569D01*
G01X1140273Y-245569D02*
X1142727D01*
G01X1146767Y-250569D02*
X1144633D01*
Y-245569D01*
X1146767D01*
G01X1145913Y-247985D02*
X1144633D01*
G01X1149900Y-250735D02*
X1149793Y-250652D01*
Y-250485D01*
X1149900Y-250402D01*
X1150007Y-250485D01*
Y-250652D01*
X1149900Y-250735D01*
G01Y-248485D02*
X1149793Y-248402D01*
Y-248235D01*
X1149900Y-248152D01*
X1150007Y-248235D01*
Y-248402D01*
X1149900Y-248485D01*
G01X1131033Y-260569D02*
X1131300Y-261069D01*
X1131620Y-261402D01*
X1131993Y-261569D01*
X1132420Y-261402D01*
X1132740Y-261069D01*
X1133060Y-260569D01*
X1133167Y-259902D01*
Y-256569D01*
G01X1136300Y-261569D02*
X1135873Y-261485D01*
X1135500Y-261152D01*
X1135180Y-260652D01*
X1134967Y-260069D01*
X1134860Y-259402D01*
Y-258735D01*
X1134967Y-258069D01*
X1135180Y-257485D01*
X1135500Y-256985D01*
X1135873Y-256652D01*
X1136300Y-256569D01*
X1136727Y-256652D01*
X1137100Y-256985D01*
X1137420Y-257485D01*
X1137633Y-258069D01*
X1137740Y-258735D01*
Y-259402D01*
X1137633Y-260069D01*
X1137420Y-260652D01*
X1137100Y-261152D01*
X1136727Y-261485D01*
X1136300Y-261569D01*
G01X1140927Y-258902D02*
X1141140Y-258652D01*
X1141300Y-258235D01*
X1141407Y-257652D01*
X1141300Y-257152D01*
X1141087Y-256819D01*
X1140713Y-256569D01*
X1139273D01*
Y-261569D01*
X1141033D01*
X1141407Y-261235D01*
X1141620Y-260735D01*
X1141727Y-260152D01*
X1141620Y-259569D01*
X1141300Y-259069D01*
X1140927Y-258902D01*
X1139273D01*
G01X1143633Y-263235D02*
X1144700Y-256569D01*
G01X1145767D02*
X1144700Y-263235D01*
G01X1143100Y-260735D02*
X1146300D01*
G01Y-259069D02*
X1143100D01*
G01X1148900Y-261735D02*
X1148793Y-261652D01*
Y-261485D01*
X1148900Y-261402D01*
X1149007Y-261485D01*
Y-261652D01*
X1148900Y-261735D01*
G01Y-259485D02*
X1148793Y-259402D01*
Y-259235D01*
X1148900Y-259152D01*
X1149007Y-259235D01*
Y-259402D01*
X1148900Y-259485D01*
G01X1158087Y-246402D02*
X1158407Y-245902D01*
X1158780Y-245652D01*
X1159207Y-245569D01*
X1159740Y-245735D01*
X1160113Y-246152D01*
X1160220Y-246652D01*
X1160167Y-247152D01*
X1159953Y-247569D01*
X1158887Y-248402D01*
X1158407Y-248985D01*
X1158087Y-249819D01*
X1157980Y-250569D01*
X1160220D01*
G01X1163300Y-245569D02*
X1162873Y-245735D01*
X1162553Y-246152D01*
X1162340Y-246652D01*
X1162180Y-247319D01*
X1162127Y-248069D01*
X1162180Y-248819D01*
X1162340Y-249485D01*
X1162553Y-249985D01*
X1162873Y-250402D01*
X1163300Y-250569D01*
X1163727Y-250402D01*
X1164047Y-249985D01*
X1164260Y-249485D01*
X1164420Y-248819D01*
X1164473Y-248069D01*
X1164420Y-247319D01*
X1164260Y-246652D01*
X1164047Y-246152D01*
X1163727Y-245735D01*
X1163300Y-245569D01*
G01X1167500Y-250569D02*
Y-245569D01*
X1166860Y-246568D01*
G01Y-250569D02*
X1168140D01*
G01X1170687Y-248485D02*
X1171060Y-247902D01*
X1171380Y-247569D01*
X1171807Y-247402D01*
X1172180Y-247569D01*
X1172447Y-247902D01*
X1172660Y-248402D01*
X1172713Y-248985D01*
X1172660Y-249485D01*
X1172447Y-249985D01*
X1172127Y-250402D01*
X1171753Y-250569D01*
X1171327Y-250402D01*
X1170953Y-249902D01*
X1170740Y-249152D01*
X1170687Y-248319D01*
X1170793Y-247235D01*
X1170953Y-246652D01*
X1171220Y-246069D01*
X1171593Y-245652D01*
X1171967Y-245569D01*
X1172340Y-245735D01*
X1172607Y-246152D01*
G01X1175207Y-248902D02*
X1176593D01*
G01X1180100Y-245569D02*
X1179673Y-245735D01*
X1179353Y-246152D01*
X1179140Y-246652D01*
X1178980Y-247319D01*
X1178927Y-248069D01*
X1178980Y-248819D01*
X1179140Y-249485D01*
X1179353Y-249985D01*
X1179673Y-250402D01*
X1180100Y-250569D01*
X1180527Y-250402D01*
X1180847Y-249985D01*
X1181060Y-249485D01*
X1181220Y-248819D01*
X1181273Y-248069D01*
X1181220Y-247319D01*
X1181060Y-246652D01*
X1180847Y-246152D01*
X1180527Y-245735D01*
X1180100Y-245569D01*
G01X1183127Y-249569D02*
X1183447Y-250152D01*
X1183873Y-250485D01*
X1184353Y-250569D01*
X1184780Y-250485D01*
X1185207Y-250069D01*
X1185473Y-249569D01*
X1185527Y-249069D01*
X1185420Y-248485D01*
X1185047Y-248069D01*
X1184673Y-247902D01*
X1184193D01*
G01X1184673D02*
X1184993Y-247652D01*
X1185260Y-247235D01*
X1185367Y-246735D01*
X1185260Y-246235D01*
X1184993Y-245819D01*
X1184513Y-245569D01*
X1184033Y-245652D01*
X1183553Y-245985D01*
G01X1187807Y-248902D02*
X1189193D01*
G01X1192700Y-250569D02*
Y-245569D01*
X1192060Y-246568D01*
G01Y-250569D02*
X1193340D01*
G01X1196900D02*
X1197273Y-250485D01*
X1197700Y-250235D01*
X1197967Y-249819D01*
X1198073Y-249235D01*
X1197967Y-248652D01*
X1197647Y-248152D01*
X1197167Y-247902D01*
X1196633D01*
X1196313Y-247735D01*
X1196047Y-247319D01*
X1195940Y-246735D01*
X1196100Y-246152D01*
X1196473Y-245735D01*
X1196900Y-245569D01*
X1197327Y-245735D01*
X1197700Y-246152D01*
X1197860Y-246735D01*
X1197753Y-247319D01*
X1197487Y-247735D01*
X1197167Y-247902D01*
X1196633D01*
X1196153Y-248152D01*
X1195833Y-248652D01*
X1195727Y-249235D01*
X1195833Y-249819D01*
X1196100Y-250235D01*
X1196527Y-250485D01*
X1196900Y-250569D01*
G01X1243000Y-230569D02*
X1125500D01*
G01X1243000Y-242069D02*
X1125500D01*
G01X1243000Y-252569D02*
X1125500D01*
G01Y-189569D02*
Y-264569D01*
G01X1141367Y-209569D02*
Y-201569D01*
X1143447D01*
X1144140Y-201969D01*
X1144660Y-202902D01*
X1144833Y-203969D01*
X1144660Y-205035D01*
X1144227Y-205835D01*
X1143447Y-206236D01*
X1141367D01*
G01X1147733Y-209569D02*
X1149900Y-201569D01*
X1152067Y-209569D01*
G01X1151287Y-206769D02*
X1148513D01*
G01X1154707Y-209569D02*
Y-201569D01*
X1158693Y-209569D01*
Y-201569D01*
G01X1165233Y-209569D02*
X1161767D01*
Y-201569D01*
X1165233D01*
G01X1163847Y-205435D02*
X1161767D01*
G01X1168567Y-201569D02*
Y-209569D01*
X1172033D01*
G01X1181993D02*
Y-201569D01*
X1183727D01*
X1184420Y-201969D01*
X1184940Y-202502D01*
X1185373Y-203302D01*
X1185720Y-204235D01*
X1185807Y-205569D01*
X1185720Y-206902D01*
X1185373Y-207835D01*
X1184940Y-208636D01*
X1184420Y-209169D01*
X1183727Y-209569D01*
X1181993D01*
G01X1188967D02*
Y-201569D01*
X1191133D01*
X1191827Y-201969D01*
X1192260Y-202502D01*
X1192433Y-203569D01*
X1192260Y-204635D01*
X1191740Y-205302D01*
X1191133Y-205702D01*
X1188967D01*
G01X1191133D02*
X1192433Y-209569D01*
G01X1195333D02*
X1197500Y-201569D01*
X1199667Y-209569D01*
G01X1198887Y-206769D02*
X1196113D01*
G01X1201700Y-201569D02*
X1202913Y-209569D01*
X1204300Y-201569D01*
X1205687Y-209569D01*
X1206900Y-201569D01*
G01X1210060D02*
X1212140D01*
G01X1211100D02*
Y-209569D01*
G01X1210060D02*
X1212140D01*
G01X1215907D02*
Y-201569D01*
X1219893Y-209569D01*
Y-201569D01*
G01X1225220Y-205569D02*
X1226953D01*
Y-207969D01*
X1226433Y-208769D01*
X1225827Y-209302D01*
X1224960Y-209569D01*
X1224093Y-209302D01*
X1223487Y-208769D01*
X1222967Y-207969D01*
X1222620Y-207035D01*
X1222447Y-205969D01*
Y-205035D01*
X1222620Y-204235D01*
X1222967Y-203302D01*
X1223487Y-202502D01*
X1224007Y-201969D01*
X1224700Y-201569D01*
X1225307D01*
X1226000Y-201835D01*
X1226520Y-202369D01*
G01X1243000Y-219569D02*
X1125500D01*
G01X1171460Y-234569D02*
X1172740D01*
G01X1172100D02*
Y-239569D01*
G01X1171460D02*
X1172740D01*
G01X1175073D02*
Y-234569D01*
X1177527Y-239569D01*
Y-234569D01*
G01X1179860D02*
X1181140D01*
G01X1180500D02*
Y-239569D01*
G01X1179860D02*
X1181140D01*
G01X1184700Y-234569D02*
Y-239569D01*
G01X1183473Y-234569D02*
X1185927D01*
G01X1188260D02*
X1189540D01*
G01X1188900D02*
Y-239569D01*
G01X1188260D02*
X1189540D01*
G01X1191767D02*
X1193100Y-234569D01*
X1194433Y-239569D01*
G01X1193953Y-237819D02*
X1192247D01*
G01X1196233Y-234569D02*
Y-239569D01*
X1198367D01*
G01X1171033Y-228569D02*
Y-223569D01*
X1172313D01*
X1172740Y-223819D01*
X1173060Y-224402D01*
X1173167Y-225069D01*
X1173060Y-225735D01*
X1172793Y-226235D01*
X1172313Y-226485D01*
X1171033D01*
G01X1176300Y-223569D02*
Y-228569D01*
G01X1175073Y-223569D02*
X1177527D01*
G01X1181567Y-228569D02*
X1179433D01*
Y-223569D01*
X1181567D01*
G01X1180713Y-225985D02*
X1179433D01*
G01X1185873Y-223985D02*
X1185553Y-223735D01*
X1185180Y-223569D01*
X1184753D01*
X1184273Y-223819D01*
X1183900Y-224235D01*
X1183633Y-224735D01*
X1183420Y-225569D01*
X1183367Y-226319D01*
X1183473Y-227069D01*
X1183633Y-227569D01*
X1183953Y-228069D01*
X1184327Y-228402D01*
X1184700Y-228569D01*
X1185073D01*
X1185447Y-228402D01*
X1185767Y-228152D01*
X1186033Y-227819D01*
G01X1161750Y1275431D02*
Y1285431D01*
X1164875D01*
X1165875Y1284931D01*
X1166500Y1284265D01*
X1166750Y1282931D01*
X1166500Y1281598D01*
X1165750Y1280765D01*
X1164875Y1280265D01*
X1161750D01*
G01X1164875D02*
X1166750Y1275431D01*
G01X1176750D02*
X1171750D01*
Y1285431D01*
X1176750D01*
G01X1174750Y1280598D02*
X1171750D01*
G01X1181125Y1285431D02*
X1184250Y1275431D01*
X1187375Y1285431D01*
G01X1192750D02*
X1195750D01*
G01X1194250D02*
Y1275431D01*
G01X1192750D02*
X1195750D01*
G01X1201625Y1276764D02*
X1202625Y1275931D01*
X1203750Y1275431D01*
X1204750D01*
X1205750Y1275931D01*
X1206500Y1276764D01*
X1206875Y1277932D01*
X1206625Y1279098D01*
X1206000Y1280098D01*
X1204875Y1280765D01*
X1203375Y1281098D01*
X1202500Y1281765D01*
X1202125Y1282931D01*
X1202375Y1284098D01*
X1203000Y1284931D01*
X1203875Y1285431D01*
X1204750D01*
X1205625Y1285098D01*
X1206375Y1284265D01*
G01X1212750Y1285431D02*
X1215750D01*
G01X1214250D02*
Y1275431D01*
G01X1212750D02*
X1215750D01*
G01X1224250D02*
X1223250Y1275598D01*
X1222375Y1276265D01*
X1221625Y1277265D01*
X1221125Y1278431D01*
X1220875Y1279765D01*
Y1281098D01*
X1221125Y1282431D01*
X1221625Y1283598D01*
X1222375Y1284598D01*
X1223250Y1285265D01*
X1224250Y1285431D01*
X1225250Y1285265D01*
X1226125Y1284598D01*
X1226875Y1283598D01*
X1227375Y1282431D01*
X1227625Y1281098D01*
Y1279765D01*
X1227375Y1278431D01*
X1226875Y1277265D01*
X1226125Y1276265D01*
X1225250Y1275598D01*
X1224250Y1275431D01*
G01X1231375D02*
Y1285431D01*
X1237125Y1275431D01*
Y1285431D01*
G01X1241625Y1276764D02*
X1242625Y1275931D01*
X1243750Y1275431D01*
X1244750D01*
X1245750Y1275931D01*
X1246500Y1276764D01*
X1246875Y1277932D01*
X1246625Y1279098D01*
X1246000Y1280098D01*
X1244875Y1280765D01*
X1243375Y1281098D01*
X1242500Y1281765D01*
X1242125Y1282931D01*
X1242375Y1284098D01*
X1243000Y1284931D01*
X1243875Y1285431D01*
X1244750D01*
X1245625Y1285098D01*
X1246375Y1284265D01*
G01X1246533Y-249669D02*
Y-243669D01*
X1249067D01*
G01X1248133Y-246568D02*
X1246533D01*
G01X1251333Y-249669D02*
X1253000Y-243669D01*
X1254667Y-249669D01*
G01X1254067Y-247569D02*
X1251933D01*
G01X1258733Y-246469D02*
X1259000Y-246169D01*
X1259200Y-245669D01*
X1259333Y-244968D01*
X1259200Y-244369D01*
X1258933Y-243969D01*
X1258467Y-243669D01*
X1256667D01*
Y-249669D01*
X1258867D01*
X1259333Y-249269D01*
X1259600Y-248669D01*
X1259733Y-247969D01*
X1259600Y-247269D01*
X1259200Y-246669D01*
X1258733Y-246469D01*
X1256667D01*
G01X1267067Y-249669D02*
Y-243669D01*
X1270133Y-249669D01*
Y-243669D01*
G01X1272333D02*
Y-247969D01*
X1272600Y-248869D01*
X1273133Y-249469D01*
X1273800Y-249669D01*
X1274467Y-249469D01*
X1275000Y-248869D01*
X1275267Y-247969D01*
Y-243669D01*
G01X1277267Y-249669D02*
Y-243669D01*
X1279000Y-248669D01*
X1280733Y-243669D01*
Y-249669D01*
G01X1284733Y-246469D02*
X1285000Y-246169D01*
X1285200Y-245669D01*
X1285333Y-244968D01*
X1285200Y-244369D01*
X1284933Y-243969D01*
X1284467Y-243669D01*
X1282667D01*
Y-249669D01*
X1284867D01*
X1285333Y-249269D01*
X1285600Y-248669D01*
X1285733Y-247969D01*
X1285600Y-247269D01*
X1285200Y-246669D01*
X1284733Y-246469D01*
X1282667D01*
G01X1290733Y-249669D02*
X1288067D01*
Y-243669D01*
X1290733D01*
G01X1289667Y-246568D02*
X1288067D01*
G01X1293267Y-249669D02*
Y-243669D01*
X1294933D01*
X1295467Y-243969D01*
X1295800Y-244369D01*
X1295933Y-245169D01*
X1295800Y-245969D01*
X1295400Y-246469D01*
X1294933Y-246769D01*
X1293267D01*
G01X1294933D02*
X1295933Y-249669D01*
G01X1299800Y-249869D02*
X1299667Y-249769D01*
Y-249569D01*
X1299800Y-249469D01*
X1299933Y-249569D01*
Y-249769D01*
X1299800Y-249869D01*
G01Y-247169D02*
X1299667Y-247069D01*
Y-246869D01*
X1299800Y-246769D01*
X1299933Y-246869D01*
Y-247069D01*
X1299800Y-247169D01*
G01X1246167Y-227069D02*
Y-221069D01*
X1247767D01*
X1248300Y-221369D01*
X1248700Y-222069D01*
X1248833Y-222869D01*
X1248700Y-223669D01*
X1248367Y-224269D01*
X1247767Y-224569D01*
X1246167D01*
G01X1251367Y-227069D02*
Y-221069D01*
X1253033D01*
X1253567Y-221369D01*
X1253900Y-221769D01*
X1254033Y-222569D01*
X1253900Y-223369D01*
X1253500Y-223869D01*
X1253033Y-224169D01*
X1251367D01*
G01X1253033D02*
X1254033Y-227069D01*
G01X1257900D02*
X1257367Y-226969D01*
X1256900Y-226569D01*
X1256500Y-225969D01*
X1256233Y-225269D01*
X1256100Y-224469D01*
Y-223669D01*
X1256233Y-222869D01*
X1256500Y-222168D01*
X1256900Y-221569D01*
X1257367Y-221169D01*
X1257900Y-221069D01*
X1258433Y-221169D01*
X1258900Y-221569D01*
X1259300Y-222168D01*
X1259567Y-222869D01*
X1259700Y-223669D01*
Y-224469D01*
X1259567Y-225269D01*
X1259300Y-225969D01*
X1258900Y-226569D01*
X1258433Y-226969D01*
X1257900Y-227069D01*
G01X1261767Y-225869D02*
X1262100Y-226469D01*
X1262500Y-226869D01*
X1262967Y-227069D01*
X1263500Y-226869D01*
X1263900Y-226469D01*
X1264300Y-225869D01*
X1264433Y-225069D01*
Y-221069D01*
G01X1269633Y-227069D02*
X1266967D01*
Y-221069D01*
X1269633D01*
G01X1268567Y-223969D02*
X1266967D01*
G01X1274967Y-221569D02*
X1274567Y-221269D01*
X1274100Y-221069D01*
X1273567D01*
X1272967Y-221369D01*
X1272500Y-221869D01*
X1272167Y-222469D01*
X1271900Y-223469D01*
X1271833Y-224369D01*
X1271967Y-225269D01*
X1272167Y-225869D01*
X1272567Y-226469D01*
X1273033Y-226869D01*
X1273500Y-227069D01*
X1273967D01*
X1274433Y-226869D01*
X1274833Y-226569D01*
X1275167Y-226169D01*
G01X1278700Y-221069D02*
Y-227069D01*
G01X1277167Y-221069D02*
X1280233D01*
G01X1287567Y-227069D02*
Y-221069D01*
X1290633Y-227069D01*
Y-221069D01*
G01X1292633Y-227069D02*
X1294300Y-221069D01*
X1295967Y-227069D01*
G01X1295367Y-224969D02*
X1293233D01*
G01X1297767Y-227069D02*
Y-221069D01*
X1299500Y-226069D01*
X1301233Y-221069D01*
Y-227069D01*
G01X1306033D02*
X1303367D01*
Y-221069D01*
X1306033D01*
G01X1304967Y-223969D02*
X1303367D01*
G01X1309900Y-227269D02*
X1309767Y-227169D01*
Y-226969D01*
X1309900Y-226869D01*
X1310033Y-226969D01*
Y-227169D01*
X1309900Y-227269D01*
G01Y-224569D02*
X1309767Y-224469D01*
Y-224269D01*
X1309900Y-224169D01*
X1310033Y-224269D01*
Y-224469D01*
X1309900Y-224569D01*
G01X1440500Y-242069D02*
X1243000D01*
G01Y-189569D02*
Y-264569D01*
G01X1248967Y-191569D02*
X1248567Y-191269D01*
X1248100Y-191069D01*
X1247567D01*
X1246967Y-191369D01*
X1246500Y-191869D01*
X1246167Y-192469D01*
X1245900Y-193469D01*
X1245833Y-194369D01*
X1245967Y-195269D01*
X1246167Y-195869D01*
X1246567Y-196469D01*
X1247033Y-196869D01*
X1247500Y-197069D01*
X1247967D01*
X1248433Y-196869D01*
X1248833Y-196569D01*
X1249167Y-196169D01*
G01X1252700Y-197069D02*
X1252167Y-196969D01*
X1251700Y-196569D01*
X1251300Y-195969D01*
X1251033Y-195269D01*
X1250900Y-194469D01*
Y-193669D01*
X1251033Y-192869D01*
X1251300Y-192168D01*
X1251700Y-191569D01*
X1252167Y-191169D01*
X1252700Y-191069D01*
X1253233Y-191169D01*
X1253700Y-191569D01*
X1254100Y-192168D01*
X1254367Y-192869D01*
X1254500Y-193669D01*
Y-194469D01*
X1254367Y-195269D01*
X1254100Y-195969D01*
X1253700Y-196569D01*
X1253233Y-196969D01*
X1252700Y-197069D01*
G01X1256167D02*
Y-191069D01*
X1257900Y-196069D01*
X1259633Y-191069D01*
Y-197069D01*
G01X1261767D02*
Y-191069D01*
X1263367D01*
X1263900Y-191369D01*
X1264300Y-192069D01*
X1264433Y-192869D01*
X1264300Y-193669D01*
X1263967Y-194269D01*
X1263367Y-194569D01*
X1261767D01*
G01X1266633Y-197069D02*
X1268300Y-191069D01*
X1269967Y-197069D01*
G01X1269367Y-194969D02*
X1267233D01*
G01X1271967Y-197069D02*
Y-191069D01*
X1275033Y-197069D01*
Y-191069D01*
G01X1278700Y-197069D02*
Y-194369D01*
X1277367Y-191069D01*
G01X1280033D02*
X1278700Y-194369D01*
G01X1287567Y-197069D02*
Y-191069D01*
X1290633Y-197069D01*
Y-191069D01*
G01X1292633Y-197069D02*
X1294300Y-191069D01*
X1295967Y-197069D01*
G01X1295367Y-194969D02*
X1293233D01*
G01X1297767Y-197069D02*
Y-191069D01*
X1299500Y-196069D01*
X1301233Y-191069D01*
Y-197069D01*
G01X1306033D02*
X1303367D01*
Y-191069D01*
X1306033D01*
G01X1304967Y-193968D02*
X1303367D01*
G01X1309900Y-197269D02*
X1309767Y-197169D01*
Y-196969D01*
X1309900Y-196869D01*
X1310033Y-196969D01*
Y-197169D01*
X1309900Y-197269D01*
G01Y-194569D02*
X1309767Y-194469D01*
Y-194269D01*
X1309900Y-194169D01*
X1310033Y-194269D01*
Y-194469D01*
X1309900Y-194569D01*
G01X1440500Y-219569D02*
X1243000D01*
G01X1253507Y-262069D02*
Y-254069D01*
X1257493Y-262069D01*
Y-254069D01*
G01X1260393D02*
Y-259802D01*
X1260740Y-261002D01*
X1261433Y-261802D01*
X1262300Y-262069D01*
X1263167Y-261802D01*
X1263860Y-261002D01*
X1264207Y-259802D01*
Y-254069D01*
G01X1266847Y-262069D02*
Y-254069D01*
X1269100Y-260735D01*
X1271353Y-254069D01*
Y-262069D01*
G01X1276593Y-257802D02*
X1276940Y-257402D01*
X1277200Y-256735D01*
X1277373Y-255802D01*
X1277200Y-255002D01*
X1276853Y-254469D01*
X1276247Y-254069D01*
X1273907D01*
Y-262069D01*
X1276767D01*
X1277373Y-261535D01*
X1277720Y-260735D01*
X1277893Y-259802D01*
X1277720Y-258869D01*
X1277200Y-258069D01*
X1276593Y-257802D01*
X1273907D01*
G01X1284433Y-262069D02*
X1280967D01*
Y-254069D01*
X1284433D01*
G01X1283047Y-257935D02*
X1280967D01*
G01X1287767Y-262069D02*
Y-254069D01*
X1289933D01*
X1290627Y-254469D01*
X1291060Y-255002D01*
X1291233Y-256069D01*
X1291060Y-257135D01*
X1290540Y-257802D01*
X1289933Y-258202D01*
X1287767D01*
G01X1289933D02*
X1291233Y-262069D01*
G01X1265933Y-236500D02*
X1263267D01*
Y-230500D01*
X1265933D01*
G01X1264867Y-233400D02*
X1263267D01*
G01X1268133Y-230500D02*
X1269800Y-236500D01*
X1271467Y-230500D01*
G01X1273533Y-236500D02*
Y-230500D01*
G01X1276067D02*
X1273533Y-234200D01*
G01X1276467Y-236500D02*
X1274667Y-232500D01*
G01X1278933Y-231500D02*
X1279333Y-230900D01*
X1279800Y-230600D01*
X1280333Y-230500D01*
X1281000Y-230700D01*
X1281467Y-231200D01*
X1281600Y-231800D01*
X1281533Y-232400D01*
X1281267Y-232900D01*
X1279933Y-233900D01*
X1279333Y-234600D01*
X1278933Y-235600D01*
X1278800Y-236500D01*
X1281600D01*
G01X1289267D02*
Y-230500D01*
X1290867D01*
X1291400Y-230800D01*
X1291800Y-231500D01*
X1291933Y-232300D01*
X1291800Y-233100D01*
X1291467Y-233700D01*
X1290867Y-234000D01*
X1289267D01*
G01X1294267Y-236500D02*
Y-230500D01*
X1297333Y-236500D01*
Y-230500D01*
G01X1301000Y-236700D02*
X1300867Y-236600D01*
Y-236400D01*
X1301000Y-236300D01*
X1301133Y-236400D01*
Y-236600D01*
X1301000Y-236700D01*
G01Y-234000D02*
X1300867Y-233900D01*
Y-233700D01*
X1301000Y-233600D01*
X1301133Y-233700D01*
Y-233900D01*
X1301000Y-234000D01*
G01X1306733Y-233300D02*
X1307000Y-233000D01*
X1307200Y-232500D01*
X1307333Y-231800D01*
X1307200Y-231200D01*
X1306933Y-230800D01*
X1306467Y-230500D01*
X1304667D01*
Y-236500D01*
X1306867D01*
X1307333Y-236100D01*
X1307600Y-235500D01*
X1307733Y-234800D01*
X1307600Y-234100D01*
X1307200Y-233500D01*
X1306733Y-233300D01*
X1304667D01*
G01X1309667Y-236500D02*
Y-230500D01*
X1311400Y-235500D01*
X1313133Y-230500D01*
Y-236500D01*
G01X1315467Y-235800D02*
X1315933Y-236300D01*
X1316467Y-236500D01*
X1317000Y-236300D01*
X1317467Y-235700D01*
X1317800Y-234800D01*
X1317933Y-233900D01*
Y-232800D01*
X1317800Y-231900D01*
X1317467Y-231100D01*
X1317067Y-230700D01*
X1316600Y-230500D01*
X1316067Y-230700D01*
X1315667Y-231100D01*
X1315400Y-231700D01*
X1315267Y-232500D01*
X1315400Y-233200D01*
X1315733Y-233900D01*
X1316133Y-234300D01*
X1316600Y-234400D01*
X1317133Y-234200D01*
X1317533Y-233700D01*
X1317933Y-232800D01*
G01X1320533Y-231500D02*
X1320933Y-230900D01*
X1321400Y-230600D01*
X1321933Y-230500D01*
X1322600Y-230700D01*
X1323067Y-231200D01*
X1323200Y-231800D01*
X1323133Y-232400D01*
X1322867Y-232900D01*
X1321533Y-233900D01*
X1320933Y-234600D01*
X1320533Y-235600D01*
X1320400Y-236500D01*
X1323200D01*
G01X1327000Y-230500D02*
Y-236500D01*
G01X1325467Y-230500D02*
X1328533D01*
G01X1332067Y-236500D02*
X1332200Y-235200D01*
X1332400Y-234100D01*
X1332667Y-233100D01*
X1333000Y-232000D01*
X1333533Y-230500D01*
X1330867D01*
G01X1337400D02*
X1336867Y-230700D01*
X1336467Y-231200D01*
X1336200Y-231800D01*
X1336000Y-232600D01*
X1335933Y-233500D01*
X1336000Y-234400D01*
X1336200Y-235200D01*
X1336467Y-235800D01*
X1336867Y-236300D01*
X1337400Y-236500D01*
X1337933Y-236300D01*
X1338333Y-235800D01*
X1338600Y-235200D01*
X1338800Y-234400D01*
X1338867Y-233500D01*
X1338800Y-232600D01*
X1338600Y-231800D01*
X1338333Y-231200D01*
X1337933Y-230700D01*
X1337400Y-230500D01*
G01X1341733Y-234500D02*
X1343467D01*
G01X1346333Y-236500D02*
Y-230500D01*
X1347667D01*
X1348200Y-230800D01*
X1348600Y-231200D01*
X1348933Y-231800D01*
X1349200Y-232500D01*
X1349267Y-233500D01*
X1349200Y-234500D01*
X1348933Y-235200D01*
X1348600Y-235800D01*
X1348200Y-236200D01*
X1347667Y-236500D01*
X1346333D01*
G01X1354333D02*
X1351667D01*
Y-230500D01*
X1354333D01*
G01X1353267Y-233400D02*
X1351667D01*
G01X1356533Y-230500D02*
X1358200Y-236500D01*
X1359867Y-230500D01*
G01X1362600D02*
X1364200D01*
G01X1363400D02*
Y-236500D01*
G01X1362600D02*
X1364200D01*
G01X1370067Y-231000D02*
X1369667Y-230700D01*
X1369200Y-230500D01*
X1368667D01*
X1368067Y-230800D01*
X1367600Y-231300D01*
X1367267Y-231900D01*
X1367000Y-232900D01*
X1366933Y-233800D01*
X1367067Y-234700D01*
X1367267Y-235300D01*
X1367667Y-235900D01*
X1368133Y-236300D01*
X1368600Y-236500D01*
X1369067D01*
X1369533Y-236300D01*
X1369933Y-236000D01*
X1370267Y-235600D01*
G01X1375133Y-236500D02*
X1372467D01*
Y-230500D01*
X1375133D01*
G01X1374067Y-233400D02*
X1372467D01*
G01X1378133Y-234500D02*
X1379867D01*
G01X1385533Y-236500D02*
X1382867D01*
Y-230500D01*
X1385533D01*
G01X1384467Y-233400D02*
X1382867D01*
G01X1387733Y-230500D02*
X1389400Y-236500D01*
X1391067Y-230500D01*
G01X1393133Y-236500D02*
Y-230500D01*
G01X1395667D02*
X1393133Y-234200D01*
G01X1396067Y-236500D02*
X1394267Y-232500D01*
G01X1398933Y-234500D02*
X1400667D01*
G01X1405000Y-236500D02*
Y-230500D01*
X1404200Y-231700D01*
G01Y-236500D02*
X1405800D01*
G01X1410200Y-230500D02*
X1409667Y-230700D01*
X1409267Y-231200D01*
X1409000Y-231800D01*
X1408800Y-232600D01*
X1408733Y-233500D01*
X1408800Y-234400D01*
X1409000Y-235200D01*
X1409267Y-235800D01*
X1409667Y-236300D01*
X1410200Y-236500D01*
X1410733Y-236300D01*
X1411133Y-235800D01*
X1411400Y-235200D01*
X1411600Y-234400D01*
X1411667Y-233500D01*
X1411600Y-232600D01*
X1411400Y-231800D01*
X1411133Y-231200D01*
X1410733Y-230700D01*
X1410200Y-230500D01*
G01X1415400Y-236500D02*
Y-230500D01*
X1414600Y-231700D01*
G01Y-236500D02*
X1416200D01*
G01X1269867Y-214569D02*
Y-206569D01*
X1272033D01*
X1272727Y-206969D01*
X1273160Y-207502D01*
X1273333Y-208569D01*
X1273160Y-209635D01*
X1272640Y-210302D01*
X1272033Y-210702D01*
X1269867D01*
G01X1272033D02*
X1273333Y-214569D01*
G01X1278400D02*
X1277707Y-214435D01*
X1277100Y-213902D01*
X1276580Y-213102D01*
X1276233Y-212169D01*
X1276060Y-211102D01*
Y-210035D01*
X1276233Y-208969D01*
X1276580Y-208035D01*
X1277100Y-207235D01*
X1277707Y-206702D01*
X1278400Y-206569D01*
X1279093Y-206702D01*
X1279700Y-207235D01*
X1280220Y-208035D01*
X1280567Y-208969D01*
X1280740Y-210035D01*
Y-211102D01*
X1280567Y-212169D01*
X1280220Y-213102D01*
X1279700Y-213902D01*
X1279093Y-214435D01*
X1278400Y-214569D01*
G01X1283380D02*
Y-206569D01*
G01X1287020D02*
Y-214569D01*
G01Y-210569D02*
X1283380D01*
G01X1289747Y-214569D02*
Y-206569D01*
X1292000Y-213235D01*
X1294253Y-206569D01*
Y-214569D01*
G01X1303780Y-213502D02*
X1304473Y-214169D01*
X1305253Y-214569D01*
X1305947D01*
X1306640Y-214169D01*
X1307160Y-213502D01*
X1307420Y-212568D01*
X1307247Y-211635D01*
X1306813Y-210835D01*
X1306033Y-210302D01*
X1304993Y-210035D01*
X1304387Y-209502D01*
X1304127Y-208569D01*
X1304300Y-207635D01*
X1304733Y-206969D01*
X1305340Y-206569D01*
X1305947D01*
X1306553Y-206835D01*
X1307073Y-207502D01*
G01X1314133Y-214569D02*
X1310667D01*
Y-206569D01*
X1314133D01*
G01X1312747Y-210435D02*
X1310667D01*
G01X1316947Y-214569D02*
Y-206569D01*
X1319200Y-213235D01*
X1321453Y-206569D01*
Y-214569D01*
G01X1324960Y-206569D02*
X1327040D01*
G01X1326000D02*
Y-214569D01*
G01X1324960D02*
X1327040D01*
G01X1334707Y-207235D02*
X1334187Y-206835D01*
X1333580Y-206569D01*
X1332887D01*
X1332107Y-206969D01*
X1331500Y-207635D01*
X1331067Y-208435D01*
X1330720Y-209769D01*
X1330633Y-210969D01*
X1330807Y-212169D01*
X1331067Y-212969D01*
X1331587Y-213769D01*
X1332193Y-214302D01*
X1332800Y-214569D01*
X1333407D01*
X1334013Y-214302D01*
X1334533Y-213902D01*
X1334967Y-213369D01*
G01X1339600Y-214569D02*
X1338907Y-214435D01*
X1338300Y-213902D01*
X1337780Y-213102D01*
X1337433Y-212169D01*
X1337260Y-211102D01*
Y-210035D01*
X1337433Y-208969D01*
X1337780Y-208035D01*
X1338300Y-207235D01*
X1338907Y-206702D01*
X1339600Y-206569D01*
X1340293Y-206702D01*
X1340900Y-207235D01*
X1341420Y-208035D01*
X1341767Y-208969D01*
X1341940Y-210035D01*
Y-211102D01*
X1341767Y-212169D01*
X1341420Y-213102D01*
X1340900Y-213902D01*
X1340293Y-214435D01*
X1339600Y-214569D01*
G01X1344407D02*
Y-206569D01*
X1348393Y-214569D01*
Y-206569D01*
G01X1351293Y-214569D02*
Y-206569D01*
X1353027D01*
X1353720Y-206969D01*
X1354240Y-207502D01*
X1354673Y-208302D01*
X1355020Y-209235D01*
X1355107Y-210569D01*
X1355020Y-211902D01*
X1354673Y-212835D01*
X1354240Y-213636D01*
X1353720Y-214169D01*
X1353027Y-214569D01*
X1351293D01*
G01X1358093Y-206569D02*
Y-212302D01*
X1358440Y-213502D01*
X1359133Y-214302D01*
X1360000Y-214569D01*
X1360867Y-214302D01*
X1361560Y-213502D01*
X1361907Y-212302D01*
Y-206569D01*
G01X1368707Y-207235D02*
X1368187Y-206835D01*
X1367580Y-206569D01*
X1366887D01*
X1366107Y-206969D01*
X1365500Y-207635D01*
X1365067Y-208435D01*
X1364720Y-209769D01*
X1364633Y-210969D01*
X1364807Y-212169D01*
X1365067Y-212969D01*
X1365587Y-213769D01*
X1366193Y-214302D01*
X1366800Y-214569D01*
X1367407D01*
X1368013Y-214302D01*
X1368533Y-213902D01*
X1368967Y-213369D01*
G01X1373600Y-206569D02*
Y-214569D01*
G01X1371607Y-206569D02*
X1375593D01*
G01X1380400Y-214569D02*
X1379707Y-214435D01*
X1379100Y-213902D01*
X1378580Y-213102D01*
X1378233Y-212169D01*
X1378060Y-211102D01*
Y-210035D01*
X1378233Y-208969D01*
X1378580Y-208035D01*
X1379100Y-207235D01*
X1379707Y-206702D01*
X1380400Y-206569D01*
X1381093Y-206702D01*
X1381700Y-207235D01*
X1382220Y-208035D01*
X1382567Y-208969D01*
X1382740Y-210035D01*
Y-211102D01*
X1382567Y-212169D01*
X1382220Y-213102D01*
X1381700Y-213902D01*
X1381093Y-214435D01*
X1380400Y-214569D01*
G01X1385467D02*
Y-206569D01*
X1387633D01*
X1388327Y-206969D01*
X1388760Y-207502D01*
X1388933Y-208569D01*
X1388760Y-209635D01*
X1388240Y-210302D01*
X1387633Y-210702D01*
X1385467D01*
G01X1387633D02*
X1388933Y-214569D01*
G01X1398893Y-206569D02*
Y-212302D01*
X1399240Y-213502D01*
X1399933Y-214302D01*
X1400800Y-214569D01*
X1401667Y-214302D01*
X1402360Y-213502D01*
X1402707Y-212302D01*
Y-206569D01*
G01X1405780Y-213502D02*
X1406473Y-214169D01*
X1407253Y-214569D01*
X1407947D01*
X1408640Y-214169D01*
X1409160Y-213502D01*
X1409420Y-212568D01*
X1409247Y-211635D01*
X1408813Y-210835D01*
X1408033Y-210302D01*
X1406993Y-210035D01*
X1406387Y-209502D01*
X1406127Y-208569D01*
X1406300Y-207635D01*
X1406733Y-206969D01*
X1407340Y-206569D01*
X1407947D01*
X1408553Y-206835D01*
X1409073Y-207502D01*
G01X1412233Y-214569D02*
X1414400Y-206569D01*
X1416567Y-214569D01*
G01X1415787Y-211769D02*
X1413013D01*
G01X1300500Y-314569D02*
Y-284569D01*
G01X1330500Y1203500D02*
Y1265431D01*
G01X1310500Y1315431D02*
Y1345431D01*
G01X1366967Y-249569D02*
Y-243569D01*
X1368633D01*
X1369167Y-243869D01*
X1369500Y-244269D01*
X1369633Y-245069D01*
X1369500Y-245869D01*
X1369100Y-246369D01*
X1368633Y-246669D01*
X1366967D01*
G01X1368633D02*
X1369633Y-249569D01*
G01X1374833D02*
X1372167D01*
Y-243569D01*
X1374833D01*
G01X1373767Y-246468D02*
X1372167D01*
G01X1377033Y-243569D02*
X1378700Y-249569D01*
X1380367Y-243569D01*
G01X1383900Y-249769D02*
X1383767Y-249669D01*
Y-249469D01*
X1383900Y-249369D01*
X1384033Y-249469D01*
Y-249669D01*
X1383900Y-249769D01*
G01X1369600Y-254069D02*
X1368907Y-254335D01*
X1368387Y-255002D01*
X1368040Y-255802D01*
X1367780Y-256869D01*
X1367693Y-258069D01*
X1367780Y-259269D01*
X1368040Y-260335D01*
X1368387Y-261136D01*
X1368907Y-261802D01*
X1369600Y-262069D01*
X1370293Y-261802D01*
X1370813Y-261136D01*
X1371160Y-260335D01*
X1371420Y-259269D01*
X1371507Y-258069D01*
X1371420Y-256869D01*
X1371160Y-255802D01*
X1370813Y-255002D01*
X1370293Y-254335D01*
X1369600Y-254069D01*
G01X1377440Y-262069D02*
Y-254069D01*
X1374233Y-259802D01*
X1378567D01*
G01X1361100Y-242069D02*
Y-264569D01*
G01X1361500Y1245431D02*
Y1255431D01*
X1364000D01*
X1365000Y1254931D01*
X1365750Y1254265D01*
X1366375Y1253265D01*
X1366875Y1252098D01*
X1367000Y1250431D01*
X1366875Y1248765D01*
X1366375Y1247598D01*
X1365750Y1246598D01*
X1365000Y1245931D01*
X1364000Y1245431D01*
X1361500D01*
G01X1371125D02*
X1374250Y1255431D01*
X1377375Y1245431D01*
G01X1376250Y1248931D02*
X1372250D01*
G01X1384250Y1255431D02*
Y1245431D01*
G01X1381375Y1255431D02*
X1387125D01*
G01X1396750Y1245431D02*
X1391750D01*
Y1255431D01*
X1396750D01*
G01X1394750Y1250598D02*
X1391750D01*
G01X1396700Y-248769D02*
X1397233Y-249269D01*
X1397833Y-249569D01*
X1398367D01*
X1398900Y-249269D01*
X1399300Y-248769D01*
X1399500Y-248069D01*
X1399367Y-247369D01*
X1399033Y-246769D01*
X1398433Y-246369D01*
X1397633Y-246169D01*
X1397167Y-245769D01*
X1396967Y-245069D01*
X1397100Y-244369D01*
X1397433Y-243869D01*
X1397900Y-243569D01*
X1398367D01*
X1398833Y-243769D01*
X1399233Y-244269D01*
G01X1401900Y-249569D02*
Y-243569D01*
G01X1404700D02*
Y-249569D01*
G01Y-246569D02*
X1401900D01*
G01X1409833Y-249569D02*
X1407167D01*
Y-243569D01*
X1409833D01*
G01X1408767Y-246468D02*
X1407167D01*
G01X1415033Y-249569D02*
X1412367D01*
Y-243569D01*
X1415033D01*
G01X1413967Y-246468D02*
X1412367D01*
G01X1418900Y-243569D02*
Y-249569D01*
G01X1417367Y-243569D02*
X1420433D01*
G01X1424100Y-249769D02*
X1423967Y-249669D01*
Y-249469D01*
X1424100Y-249369D01*
X1424233Y-249469D01*
Y-249669D01*
X1424100Y-249769D01*
G01Y-247069D02*
X1423967Y-246969D01*
Y-246769D01*
X1424100Y-246669D01*
X1424233Y-246769D01*
Y-246969D01*
X1424100Y-247069D01*
G01X1396353Y-255402D02*
X1396873Y-254602D01*
X1397480Y-254202D01*
X1398173Y-254069D01*
X1399040Y-254335D01*
X1399647Y-255002D01*
X1399820Y-255802D01*
X1399733Y-256602D01*
X1399387Y-257269D01*
X1397653Y-258602D01*
X1396873Y-259535D01*
X1396353Y-260869D01*
X1396180Y-262069D01*
X1399820D01*
G01X1411600D02*
X1410907Y-261935D01*
X1410300Y-261402D01*
X1409780Y-260602D01*
X1409433Y-259669D01*
X1409260Y-258602D01*
Y-257535D01*
X1409433Y-256469D01*
X1409780Y-255535D01*
X1410300Y-254735D01*
X1410907Y-254202D01*
X1411600Y-254069D01*
X1412293Y-254202D01*
X1412900Y-254735D01*
X1413420Y-255535D01*
X1413767Y-256469D01*
X1413940Y-257535D01*
Y-258602D01*
X1413767Y-259669D01*
X1413420Y-260602D01*
X1412900Y-261402D01*
X1412293Y-261935D01*
X1411600Y-262069D01*
G01X1416753D02*
Y-254069D01*
X1420047D01*
G01X1418833Y-257935D02*
X1416753D01*
G01X1430353Y-255402D02*
X1430873Y-254602D01*
X1431480Y-254202D01*
X1432173Y-254069D01*
X1433040Y-254335D01*
X1433647Y-255002D01*
X1433820Y-255802D01*
X1433733Y-256602D01*
X1433387Y-257269D01*
X1431653Y-258602D01*
X1430873Y-259535D01*
X1430353Y-260869D01*
X1430180Y-262069D01*
X1433820D01*
G01X1391100Y-242069D02*
Y-264569D01*
G01X1420500Y1203500D02*
Y1265431D01*
G01X1462700Y-228069D02*
Y-232069D01*
G01X1461703Y-228069D02*
X1463697D01*
G01X1466100Y-232069D02*
X1465753Y-232002D01*
X1465450Y-231735D01*
X1465190Y-231335D01*
X1465017Y-230869D01*
X1464930Y-230335D01*
Y-229802D01*
X1465017Y-229269D01*
X1465190Y-228802D01*
X1465450Y-228402D01*
X1465753Y-228135D01*
X1466100Y-228069D01*
X1466447Y-228135D01*
X1466750Y-228402D01*
X1467010Y-228802D01*
X1467183Y-229269D01*
X1467270Y-229802D01*
Y-230335D01*
X1467183Y-230869D01*
X1467010Y-231335D01*
X1466750Y-231735D01*
X1466447Y-232002D01*
X1466100Y-232069D01*
G01X1468633Y-228069D02*
Y-232069D01*
X1470367D01*
G01X1473767D02*
X1472033D01*
Y-228069D01*
X1473767D01*
G01X1473073Y-230002D02*
X1472033D01*
G01X1475433Y-232069D02*
Y-228069D01*
X1476517D01*
X1476863Y-228269D01*
X1477080Y-228535D01*
X1477167Y-229069D01*
X1477080Y-229602D01*
X1476820Y-229935D01*
X1476517Y-230135D01*
X1475433D01*
G01X1476517D02*
X1477167Y-232069D01*
G01X1478617D02*
X1479700Y-228069D01*
X1480783Y-232069D01*
G01X1480393Y-230669D02*
X1479007D01*
G01X1482103Y-232069D02*
Y-228069D01*
X1484097Y-232069D01*
Y-228069D01*
G01X1487453Y-228402D02*
X1487193Y-228202D01*
X1486890Y-228069D01*
X1486543D01*
X1486153Y-228269D01*
X1485850Y-228602D01*
X1485633Y-229002D01*
X1485460Y-229669D01*
X1485417Y-230269D01*
X1485503Y-230869D01*
X1485633Y-231269D01*
X1485893Y-231669D01*
X1486197Y-231935D01*
X1486500Y-232069D01*
X1486803D01*
X1487107Y-231935D01*
X1487367Y-231735D01*
X1487583Y-231469D01*
G01X1490767Y-232069D02*
X1489033D01*
Y-228069D01*
X1490767D01*
G01X1490073Y-230002D02*
X1489033D01*
G01X1492390Y-231535D02*
X1492737Y-231869D01*
X1493127Y-232069D01*
X1493473D01*
X1493820Y-231869D01*
X1494080Y-231535D01*
X1494210Y-231069D01*
X1494123Y-230602D01*
X1493907Y-230202D01*
X1493517Y-229935D01*
X1492997Y-229802D01*
X1492693Y-229535D01*
X1492563Y-229069D01*
X1492650Y-228602D01*
X1492867Y-228269D01*
X1493170Y-228069D01*
X1493473D01*
X1493777Y-228202D01*
X1494037Y-228535D01*
G01X1453290Y-246069D02*
X1455110Y-242069D01*
G01X1453290D02*
X1455110Y-246069D01*
G01X1462800Y-252202D02*
X1462713Y-252135D01*
Y-252002D01*
X1462800Y-251935D01*
X1462887Y-252002D01*
Y-252135D01*
X1462800Y-252202D01*
G01X1466200Y-248069D02*
X1465853Y-248202D01*
X1465593Y-248535D01*
X1465420Y-248935D01*
X1465290Y-249469D01*
X1465247Y-250069D01*
X1465290Y-250669D01*
X1465420Y-251202D01*
X1465593Y-251602D01*
X1465853Y-251935D01*
X1466200Y-252069D01*
X1466547Y-251935D01*
X1466807Y-251602D01*
X1466980Y-251202D01*
X1467110Y-250669D01*
X1467153Y-250069D01*
X1467110Y-249469D01*
X1466980Y-248935D01*
X1466807Y-248535D01*
X1466547Y-248202D01*
X1466200Y-248069D01*
G01X1468647Y-251269D02*
X1468907Y-251735D01*
X1469253Y-252002D01*
X1469643Y-252069D01*
X1469990Y-252002D01*
X1470337Y-251669D01*
X1470553Y-251269D01*
X1470597Y-250869D01*
X1470510Y-250402D01*
X1470207Y-250069D01*
X1469903Y-249935D01*
X1469513D01*
G01X1469903D02*
X1470163Y-249735D01*
X1470380Y-249402D01*
X1470467Y-249002D01*
X1470380Y-248602D01*
X1470163Y-248269D01*
X1469773Y-248069D01*
X1469383Y-248135D01*
X1468993Y-248402D01*
G01X1462800Y-246202D02*
X1462713Y-246135D01*
Y-246002D01*
X1462800Y-245935D01*
X1462887Y-246002D01*
Y-246135D01*
X1462800Y-246202D01*
G01X1466200Y-246069D02*
Y-242069D01*
X1465680Y-242869D01*
G01Y-246069D02*
X1466720D01*
G01X1462800Y-258202D02*
X1462713Y-258135D01*
Y-258002D01*
X1462800Y-257935D01*
X1462887Y-258002D01*
Y-258135D01*
X1462800Y-258202D01*
G01X1466200Y-254069D02*
X1465853Y-254202D01*
X1465593Y-254535D01*
X1465420Y-254935D01*
X1465290Y-255469D01*
X1465247Y-256069D01*
X1465290Y-256669D01*
X1465420Y-257202D01*
X1465593Y-257602D01*
X1465853Y-257935D01*
X1466200Y-258069D01*
X1466547Y-257935D01*
X1466807Y-257602D01*
X1466980Y-257202D01*
X1467110Y-256669D01*
X1467153Y-256069D01*
X1467110Y-255469D01*
X1466980Y-254935D01*
X1466807Y-254535D01*
X1466547Y-254202D01*
X1466200Y-254069D01*
G01X1469600Y-258069D02*
Y-254069D01*
X1469080Y-254869D01*
G01Y-258069D02*
X1470120D01*
G01X1473000Y-254069D02*
X1472653Y-254202D01*
X1472393Y-254535D01*
X1472220Y-254935D01*
X1472090Y-255469D01*
X1472047Y-256069D01*
X1472090Y-256669D01*
X1472220Y-257202D01*
X1472393Y-257602D01*
X1472653Y-257935D01*
X1473000Y-258069D01*
X1473347Y-257935D01*
X1473607Y-257602D01*
X1473780Y-257202D01*
X1473910Y-256669D01*
X1473953Y-256069D01*
X1473910Y-255469D01*
X1473780Y-254935D01*
X1473607Y-254535D01*
X1473347Y-254202D01*
X1473000Y-254069D01*
G01X1447847Y-240569D02*
Y-236569D01*
X1448713D01*
X1449060Y-236769D01*
X1449320Y-237035D01*
X1449537Y-237435D01*
X1449710Y-237902D01*
X1449753Y-238569D01*
X1449710Y-239235D01*
X1449537Y-239702D01*
X1449320Y-240102D01*
X1449060Y-240369D01*
X1448713Y-240569D01*
X1447847D01*
G01X1453067D02*
X1451333D01*
Y-236569D01*
X1453067D01*
G01X1452373Y-238502D02*
X1451333D01*
G01X1456553Y-236902D02*
X1456293Y-236702D01*
X1455990Y-236569D01*
X1455643D01*
X1455253Y-236769D01*
X1454950Y-237102D01*
X1454733Y-237502D01*
X1454560Y-238169D01*
X1454517Y-238769D01*
X1454603Y-239369D01*
X1454733Y-239769D01*
X1454993Y-240169D01*
X1455297Y-240435D01*
X1455600Y-240569D01*
X1455903D01*
X1456207Y-240435D01*
X1456467Y-240235D01*
X1456683Y-239969D01*
G01X1458480Y-236569D02*
X1459520D01*
G01X1459000D02*
Y-240569D01*
G01X1458480D02*
X1459520D01*
G01X1461273D02*
Y-236569D01*
X1462400Y-239902D01*
X1463527Y-236569D01*
Y-240569D01*
G01X1464717D02*
X1465800Y-236569D01*
X1466883Y-240569D01*
G01X1466493Y-239169D02*
X1465107D01*
G01X1468333Y-236569D02*
Y-240569D01*
X1470067D01*
G01X1449890Y-252069D02*
X1451710Y-248069D01*
G01X1449890D02*
X1451710Y-252069D01*
G01X1453290D02*
X1455110Y-248069D01*
G01X1453290D02*
X1455110Y-252069D01*
G01X1446490Y-258069D02*
X1448310Y-254069D01*
G01X1446490D02*
X1448310Y-258069D01*
G01X1449890D02*
X1451710Y-254069D01*
G01X1449890D02*
X1451710Y-258069D01*
G01X1453290D02*
X1455110Y-254069D01*
G01X1453290D02*
X1455110Y-258069D01*
G01X1457500Y-243869D02*
X1460500D01*
G01X1457500Y-255869D02*
X1460500D01*
G01X1457500Y-249869D02*
X1460500D01*
G01X1459000Y-248369D02*
Y-251369D01*
G01X1457500Y-252069D02*
X1460500D01*
G01X1459000Y-242369D02*
Y-245369D01*
G01X1457500Y-246069D02*
X1460500D01*
G01X1459000Y-254369D02*
Y-257369D01*
G01X1457500Y-258069D02*
X1460500D01*
G01X1440500Y-189569D02*
Y-264569D01*
G01X1456517Y-217069D02*
X1457600Y-213069D01*
X1458683Y-217069D01*
G01X1458293Y-215669D02*
X1456907D01*
G01X1460133Y-217069D02*
Y-213069D01*
X1461217D01*
X1461563Y-213269D01*
X1461780Y-213535D01*
X1461867Y-214069D01*
X1461780Y-214602D01*
X1461520Y-214935D01*
X1461217Y-215135D01*
X1460133D01*
G01X1461217D02*
X1461867Y-217069D01*
G01X1465267D02*
X1463533D01*
Y-213069D01*
X1465267D01*
G01X1464573Y-215002D02*
X1463533D01*
G01X1470680Y-213069D02*
X1471720D01*
G01X1471200D02*
Y-217069D01*
G01X1470680D02*
X1471720D01*
G01X1473603D02*
Y-213069D01*
X1475597Y-217069D01*
Y-213069D01*
G01X1480880D02*
X1481920D01*
G01X1481400D02*
Y-217069D01*
G01X1480880D02*
X1481920D01*
G01X1483803D02*
Y-213069D01*
X1485797Y-217069D01*
Y-213069D01*
G01X1489153Y-213402D02*
X1488893Y-213202D01*
X1488590Y-213069D01*
X1488243D01*
X1487853Y-213269D01*
X1487550Y-213602D01*
X1487333Y-214002D01*
X1487160Y-214669D01*
X1487117Y-215269D01*
X1487203Y-215869D01*
X1487333Y-216269D01*
X1487593Y-216669D01*
X1487897Y-216935D01*
X1488200Y-217069D01*
X1488503D01*
X1488807Y-216935D01*
X1489067Y-216735D01*
X1489283Y-216469D01*
G01X1490690Y-217069D02*
Y-213069D01*
G01X1492510D02*
Y-217069D01*
G01Y-215069D02*
X1490690D01*
G01X1495867Y-217069D02*
X1494133D01*
Y-213069D01*
X1495867D01*
G01X1495173Y-215002D02*
X1494133D01*
G01X1497490Y-216535D02*
X1497837Y-216869D01*
X1498227Y-217069D01*
X1498573D01*
X1498920Y-216869D01*
X1499180Y-216535D01*
X1499310Y-216069D01*
X1499223Y-215602D01*
X1499007Y-215202D01*
X1498617Y-214935D01*
X1498097Y-214802D01*
X1497793Y-214535D01*
X1497663Y-214069D01*
X1497750Y-213602D01*
X1497967Y-213269D01*
X1498270Y-213069D01*
X1498573D01*
X1498877Y-213202D01*
X1499137Y-213535D01*
G01X1451547Y-198069D02*
Y-200935D01*
X1451720Y-201535D01*
X1452067Y-201935D01*
X1452500Y-202069D01*
X1452933Y-201935D01*
X1453280Y-201535D01*
X1453453Y-200935D01*
Y-198069D01*
G01X1454903Y-202069D02*
Y-198069D01*
X1456897Y-202069D01*
Y-198069D01*
G01X1458433D02*
Y-202069D01*
X1460167D01*
G01X1463567D02*
X1461833D01*
Y-198069D01*
X1463567D01*
G01X1462873Y-200002D02*
X1461833D01*
G01X1465190Y-201535D02*
X1465537Y-201869D01*
X1465927Y-202069D01*
X1466273D01*
X1466620Y-201869D01*
X1466880Y-201535D01*
X1467010Y-201069D01*
X1466923Y-200602D01*
X1466707Y-200202D01*
X1466317Y-199935D01*
X1465797Y-199802D01*
X1465493Y-199535D01*
X1465363Y-199069D01*
X1465450Y-198602D01*
X1465667Y-198269D01*
X1465970Y-198069D01*
X1466273D01*
X1466577Y-198202D01*
X1466837Y-198535D01*
G01X1468590Y-201535D02*
X1468937Y-201869D01*
X1469327Y-202069D01*
X1469673D01*
X1470020Y-201869D01*
X1470280Y-201535D01*
X1470410Y-201069D01*
X1470323Y-200602D01*
X1470107Y-200202D01*
X1469717Y-199935D01*
X1469197Y-199802D01*
X1468893Y-199535D01*
X1468763Y-199069D01*
X1468850Y-198602D01*
X1469067Y-198269D01*
X1469370Y-198069D01*
X1469673D01*
X1469977Y-198202D01*
X1470237Y-198535D01*
G01X1476300Y-202069D02*
X1475953Y-202002D01*
X1475650Y-201735D01*
X1475390Y-201335D01*
X1475217Y-200869D01*
X1475130Y-200335D01*
Y-199802D01*
X1475217Y-199269D01*
X1475390Y-198802D01*
X1475650Y-198402D01*
X1475953Y-198135D01*
X1476300Y-198069D01*
X1476647Y-198135D01*
X1476950Y-198402D01*
X1477210Y-198802D01*
X1477383Y-199269D01*
X1477470Y-199802D01*
Y-200335D01*
X1477383Y-200869D01*
X1477210Y-201335D01*
X1476950Y-201735D01*
X1476647Y-202002D01*
X1476300Y-202069D01*
G01X1479700Y-198069D02*
Y-202069D01*
G01X1478703Y-198069D02*
X1480697D01*
G01X1482190Y-202069D02*
Y-198069D01*
G01X1484010D02*
Y-202069D01*
G01Y-200069D02*
X1482190D01*
G01X1487367Y-202069D02*
X1485633D01*
Y-198069D01*
X1487367D01*
G01X1486673Y-200002D02*
X1485633D01*
G01X1489033Y-202069D02*
Y-198069D01*
X1490117D01*
X1490463Y-198269D01*
X1490680Y-198535D01*
X1490767Y-199069D01*
X1490680Y-199602D01*
X1490420Y-199935D01*
X1490117Y-200135D01*
X1489033D01*
G01X1490117D02*
X1490767Y-202069D01*
G01X1492000Y-198069D02*
X1492607Y-202069D01*
X1493300Y-198069D01*
X1493993Y-202069D01*
X1494600Y-198069D01*
G01X1496180D02*
X1497220D01*
G01X1496700D02*
Y-202069D01*
G01X1496180D02*
X1497220D01*
G01X1499190Y-201535D02*
X1499537Y-201869D01*
X1499927Y-202069D01*
X1500273D01*
X1500620Y-201869D01*
X1500880Y-201535D01*
X1501010Y-201069D01*
X1500923Y-200602D01*
X1500707Y-200202D01*
X1500317Y-199935D01*
X1499797Y-199802D01*
X1499493Y-199535D01*
X1499363Y-199069D01*
X1499450Y-198602D01*
X1499667Y-198269D01*
X1499970Y-198069D01*
X1500273D01*
X1500577Y-198202D01*
X1500837Y-198535D01*
G01X1504367Y-202069D02*
X1502633D01*
Y-198069D01*
X1504367D01*
G01X1503673Y-200002D02*
X1502633D01*
G01X1444790Y-209035D02*
X1445137Y-209369D01*
X1445527Y-209569D01*
X1445873D01*
X1446220Y-209369D01*
X1446480Y-209035D01*
X1446610Y-208569D01*
X1446523Y-208102D01*
X1446307Y-207702D01*
X1445917Y-207435D01*
X1445397Y-207302D01*
X1445093Y-207035D01*
X1444963Y-206569D01*
X1445050Y-206102D01*
X1445267Y-205769D01*
X1445570Y-205569D01*
X1445873D01*
X1446177Y-205702D01*
X1446437Y-206035D01*
G01X1448233Y-209569D02*
Y-205569D01*
X1449273D01*
X1449620Y-205769D01*
X1449880Y-206235D01*
X1449967Y-206769D01*
X1449880Y-207302D01*
X1449663Y-207702D01*
X1449273Y-207902D01*
X1448233D01*
G01X1453367Y-209569D02*
X1451633D01*
Y-205569D01*
X1453367D01*
G01X1452673Y-207502D02*
X1451633D01*
G01X1456853Y-205902D02*
X1456593Y-205702D01*
X1456290Y-205569D01*
X1455943D01*
X1455553Y-205769D01*
X1455250Y-206102D01*
X1455033Y-206502D01*
X1454860Y-207169D01*
X1454817Y-207769D01*
X1454903Y-208369D01*
X1455033Y-208769D01*
X1455293Y-209169D01*
X1455597Y-209435D01*
X1455900Y-209569D01*
X1456203D01*
X1456507Y-209435D01*
X1456767Y-209235D01*
X1456983Y-208969D01*
G01X1458780Y-205569D02*
X1459820D01*
G01X1459300D02*
Y-209569D01*
G01X1458780D02*
X1459820D01*
G01X1461877D02*
Y-205569D01*
X1463523D01*
G01X1462917Y-207502D02*
X1461877D01*
G01X1465580Y-205569D02*
X1466620D01*
G01X1466100D02*
Y-209569D01*
G01X1465580D02*
X1466620D01*
G01X1470367D02*
X1468633D01*
Y-205569D01*
X1470367D01*
G01X1469673Y-207502D02*
X1468633D01*
G01X1471947Y-209569D02*
Y-205569D01*
X1472813D01*
X1473160Y-205769D01*
X1473420Y-206035D01*
X1473637Y-206435D01*
X1473810Y-206902D01*
X1473853Y-207569D01*
X1473810Y-208235D01*
X1473637Y-208702D01*
X1473420Y-209102D01*
X1473160Y-209369D01*
X1472813Y-209569D01*
X1471947D01*
G01X1478747D02*
Y-205569D01*
X1479613D01*
X1479960Y-205769D01*
X1480220Y-206035D01*
X1480437Y-206435D01*
X1480610Y-206902D01*
X1480653Y-207569D01*
X1480610Y-208235D01*
X1480437Y-208702D01*
X1480220Y-209102D01*
X1479960Y-209369D01*
X1479613Y-209569D01*
X1478747D01*
G01X1482580Y-205569D02*
X1483620D01*
G01X1483100D02*
Y-209569D01*
G01X1482580D02*
X1483620D01*
G01X1485373D02*
Y-205569D01*
X1486500Y-208902D01*
X1487627Y-205569D01*
Y-209569D01*
G01X1490767D02*
X1489033D01*
Y-205569D01*
X1490767D01*
G01X1490073Y-207502D02*
X1489033D01*
G01X1492303Y-209569D02*
Y-205569D01*
X1494297Y-209569D01*
Y-205569D01*
G01X1495790Y-209035D02*
X1496137Y-209369D01*
X1496527Y-209569D01*
X1496873D01*
X1497220Y-209369D01*
X1497480Y-209035D01*
X1497610Y-208569D01*
X1497523Y-208102D01*
X1497307Y-207702D01*
X1496917Y-207435D01*
X1496397Y-207302D01*
X1496093Y-207035D01*
X1495963Y-206569D01*
X1496050Y-206102D01*
X1496267Y-205769D01*
X1496570Y-205569D01*
X1496873D01*
X1497177Y-205702D01*
X1497437Y-206035D01*
G01X1499580Y-205569D02*
X1500620D01*
G01X1500100D02*
Y-209569D01*
G01X1499580D02*
X1500620D01*
G01X1503500D02*
X1503153Y-209502D01*
X1502850Y-209235D01*
X1502590Y-208835D01*
X1502417Y-208369D01*
X1502330Y-207835D01*
Y-207302D01*
X1502417Y-206769D01*
X1502590Y-206302D01*
X1502850Y-205902D01*
X1503153Y-205635D01*
X1503500Y-205569D01*
X1503847Y-205635D01*
X1504150Y-205902D01*
X1504410Y-206302D01*
X1504583Y-206769D01*
X1504670Y-207302D01*
Y-207835D01*
X1504583Y-208369D01*
X1504410Y-208835D01*
X1504150Y-209235D01*
X1503847Y-209502D01*
X1503500Y-209569D01*
G01X1505903D02*
Y-205569D01*
X1507897Y-209569D01*
Y-205569D01*
G01X1509390Y-209035D02*
X1509737Y-209369D01*
X1510127Y-209569D01*
X1510473D01*
X1510820Y-209369D01*
X1511080Y-209035D01*
X1511210Y-208569D01*
X1511123Y-208102D01*
X1510907Y-207702D01*
X1510517Y-207435D01*
X1509997Y-207302D01*
X1509693Y-207035D01*
X1509563Y-206569D01*
X1509650Y-206102D01*
X1509867Y-205769D01*
X1510170Y-205569D01*
X1510473D01*
X1510777Y-205702D01*
X1511037Y-206035D01*
G01X1431125Y1245431D02*
X1434250Y1255431D01*
X1437375Y1245431D01*
G01X1436250Y1248931D02*
X1432250D01*
G01X1441750Y1245431D02*
Y1255431D01*
X1444750D01*
X1445750Y1254931D01*
X1446500Y1253765D01*
X1446750Y1252431D01*
X1446500Y1251098D01*
X1445875Y1250098D01*
X1444750Y1249598D01*
X1441750D01*
G01X1451750Y1245431D02*
Y1255431D01*
X1454750D01*
X1455750Y1254931D01*
X1456500Y1253765D01*
X1456750Y1252431D01*
X1456500Y1251098D01*
X1455875Y1250098D01*
X1454750Y1249598D01*
X1451750D01*
G01X1461750Y1245431D02*
Y1255431D01*
X1464875D01*
X1465875Y1254931D01*
X1466500Y1254265D01*
X1466750Y1252931D01*
X1466500Y1251598D01*
X1465750Y1250765D01*
X1464875Y1250265D01*
X1461750D01*
G01X1464875D02*
X1466750Y1245431D01*
G01X1474250D02*
X1473250Y1245598D01*
X1472375Y1246265D01*
X1471625Y1247265D01*
X1471125Y1248431D01*
X1470875Y1249765D01*
Y1251098D01*
X1471125Y1252431D01*
X1471625Y1253598D01*
X1472375Y1254598D01*
X1473250Y1255265D01*
X1474250Y1255431D01*
X1475250Y1255265D01*
X1476125Y1254598D01*
X1476875Y1253598D01*
X1477375Y1252431D01*
X1477625Y1251098D01*
Y1249765D01*
X1477375Y1248431D01*
X1476875Y1247265D01*
X1476125Y1246265D01*
X1475250Y1245598D01*
X1474250Y1245431D01*
G01X1481125Y1255431D02*
X1484250Y1245431D01*
X1487375Y1255431D01*
G01X1496750Y1245431D02*
X1491750D01*
Y1255431D01*
X1496750D01*
G01X1494750Y1250598D02*
X1491750D01*
G01X1501500Y1245431D02*
Y1255431D01*
X1504000D01*
X1505000Y1254931D01*
X1505750Y1254265D01*
X1506375Y1253265D01*
X1506875Y1252098D01*
X1507000Y1250431D01*
X1506875Y1248765D01*
X1506375Y1247598D01*
X1505750Y1246598D01*
X1505000Y1245931D01*
X1504000Y1245431D01*
X1501500D01*
G01X1499347Y-245769D02*
X1499607Y-246235D01*
X1499953Y-246502D01*
X1500343Y-246569D01*
X1500690Y-246502D01*
X1501037Y-246169D01*
X1501253Y-245769D01*
X1501297Y-245369D01*
X1501210Y-244902D01*
X1500907Y-244569D01*
X1500603Y-244435D01*
X1500213D01*
G01X1500603D02*
X1500863Y-244235D01*
X1501080Y-243902D01*
X1501167Y-243502D01*
X1501080Y-243102D01*
X1500863Y-242769D01*
X1500473Y-242569D01*
X1500083Y-242635D01*
X1499693Y-242902D01*
G01X1503700Y-242569D02*
X1503353Y-242702D01*
X1503093Y-243035D01*
X1502920Y-243435D01*
X1502790Y-243969D01*
X1502747Y-244569D01*
X1502790Y-245169D01*
X1502920Y-245702D01*
X1503093Y-246102D01*
X1503353Y-246435D01*
X1503700Y-246569D01*
X1504047Y-246435D01*
X1504307Y-246102D01*
X1504480Y-245702D01*
X1504610Y-245169D01*
X1504653Y-244569D01*
X1504610Y-243969D01*
X1504480Y-243435D01*
X1504307Y-243035D01*
X1504047Y-242702D01*
X1503700Y-242569D01*
G01X1487617Y-240569D02*
X1488700Y-236569D01*
X1489783Y-240569D01*
G01X1489393Y-239169D02*
X1488007D01*
G01X1491103Y-240569D02*
Y-236569D01*
X1493097Y-240569D01*
Y-236569D01*
G01X1495760Y-238569D02*
X1496627D01*
Y-239769D01*
X1496367Y-240169D01*
X1496063Y-240435D01*
X1495630Y-240569D01*
X1495197Y-240435D01*
X1494893Y-240169D01*
X1494633Y-239769D01*
X1494460Y-239302D01*
X1494373Y-238769D01*
Y-238302D01*
X1494460Y-237902D01*
X1494633Y-237435D01*
X1494893Y-237035D01*
X1495153Y-236769D01*
X1495500Y-236569D01*
X1495803D01*
X1496150Y-236702D01*
X1496410Y-236969D01*
G01X1498033Y-236569D02*
Y-240569D01*
X1499767D01*
G01X1503167D02*
X1501433D01*
Y-236569D01*
X1503167D01*
G01X1502473Y-238502D02*
X1501433D01*
G01X1480373Y-252569D02*
Y-248569D01*
X1481500Y-251902D01*
X1482627Y-248569D01*
Y-252569D01*
G01X1483817D02*
X1484900Y-248569D01*
X1485983Y-252569D01*
G01X1485593Y-251169D02*
X1484207D01*
G01X1489253Y-248902D02*
X1488993Y-248702D01*
X1488690Y-248569D01*
X1488343D01*
X1487953Y-248769D01*
X1487650Y-249102D01*
X1487433Y-249502D01*
X1487260Y-250169D01*
X1487217Y-250769D01*
X1487303Y-251369D01*
X1487433Y-251769D01*
X1487693Y-252169D01*
X1487997Y-252435D01*
X1488300Y-252569D01*
X1488603D01*
X1488907Y-252435D01*
X1489167Y-252235D01*
X1489383Y-251969D01*
G01X1490790Y-252569D02*
Y-248569D01*
G01X1492610D02*
Y-252569D01*
G01Y-250569D02*
X1490790D01*
G01X1497677Y-252569D02*
Y-248569D01*
X1499323D01*
G01X1498717Y-250502D02*
X1497677D01*
G01X1501380Y-248569D02*
X1502420D01*
G01X1501900D02*
Y-252569D01*
G01X1501380D02*
X1502420D01*
G01X1504303D02*
Y-248569D01*
X1506297Y-252569D01*
Y-248569D01*
G01X1508180D02*
X1509220D01*
G01X1508700D02*
Y-252569D01*
G01X1508180D02*
X1509220D01*
G01X1511190Y-252035D02*
X1511537Y-252369D01*
X1511927Y-252569D01*
X1512273D01*
X1512620Y-252369D01*
X1512880Y-252035D01*
X1513010Y-251569D01*
X1512923Y-251102D01*
X1512707Y-250702D01*
X1512317Y-250435D01*
X1511797Y-250302D01*
X1511493Y-250035D01*
X1511363Y-249569D01*
X1511450Y-249102D01*
X1511667Y-248769D01*
X1511970Y-248569D01*
X1512273D01*
X1512577Y-248702D01*
X1512837Y-249035D01*
G01X1514590Y-252569D02*
Y-248569D01*
G01X1516410D02*
Y-252569D01*
G01Y-250569D02*
X1514590D01*
G01X1499500Y-253569D02*
X1502500D01*
G01X1494200Y-243869D02*
X1497200D01*
G01X1495700Y-242369D02*
Y-245369D01*
G01X1494200Y-246069D02*
X1497200D01*
G01X1501000Y-253569D02*
X1498700Y-258069D01*
X1497200Y-255869D01*
G01X1510500Y1295431D02*
X1520500D01*
G01X1542075Y-94569D02*
X1549950Y-69569D01*
X1557825Y-94569D01*
G01X1554990Y-85819D02*
X1544910D01*
G01X1520500Y95431D02*
X1550500D01*
G01X1552470Y288765D02*
X1553730Y290015D01*
X1554675Y292098D01*
X1555305Y295015D01*
X1554675Y297515D01*
X1553415Y299181D01*
X1551210Y300431D01*
X1542705D01*
Y275431D01*
X1553100D01*
X1555305Y277098D01*
X1556565Y279598D01*
X1557195Y282515D01*
X1556565Y285431D01*
X1554675Y287931D01*
X1552470Y288765D01*
X1542705D01*
G01X1520500Y525431D02*
X1550500D01*
G01X1546880Y708348D02*
X1544990Y709598D01*
X1542785Y710431D01*
X1540265D01*
X1537430Y709181D01*
X1535225Y707098D01*
X1533650Y704598D01*
X1532390Y700431D01*
X1532075Y696681D01*
X1532705Y692931D01*
X1533650Y690431D01*
X1535540Y687931D01*
X1537745Y686265D01*
X1539950Y685431D01*
X1542155D01*
X1544360Y686265D01*
X1546250Y687514D01*
X1547825Y689181D01*
G01X1520500Y955431D02*
X1550500D01*
G01X1543020Y1135431D02*
Y1160431D01*
X1549320D01*
X1551840Y1159181D01*
X1553730Y1157515D01*
X1555305Y1155015D01*
X1556565Y1152098D01*
X1556880Y1147931D01*
X1556565Y1143764D01*
X1555305Y1140848D01*
X1553730Y1138347D01*
X1551840Y1136681D01*
X1549320Y1135431D01*
X1543020D01*
M02*
