G04 ================== begin FILE IDENTIFICATION RECORD ==================*
G04 Layout Name:  D:/gerber/EVK2_BM92T70-DEVICE-EVK-101_BRD_REV04_2016-03-18.brd*
G04 Film Name:    ASSY_BOTTOM*
G04 File Format:  Gerber RS274X*
G04 File Origin:  Cadence Allegro 16.6-2015-S060*
G04 Origin Date:  Fri Mar 18 09:47:46 2016*
G04 *
G04 Layer:  REF DES/ASSEMBLY_BOTTOM*
G04 Layer:  PACKAGE GEOMETRY/ASSEMBLY_BOTTOM*
G04 Layer:  DRAWING FORMAT/OUTLINE_M*
G04 Layer:  DRAWING FORMAT/ASSEMBLY_BOTTOM*
G04 Layer:  BOARD GEOMETRY/OUTLINE*
G04 Layer:  BOARD GEOMETRY/LOGO_OUTLINE_M*
G04 Layer:  BOARD GEOMETRY/ASSEMBLY_BOTTOM*
G04 *
G04 Offset:    (0.000 0.000)*
G04 Mirror:    Yes*
G04 Mode:      Positive*
G04 Rotation:  0*
G04 FullContactRelief:  No*
G04 UndefLineWidth:     4.000*
G04 ================== end FILE IDENTIFICATION RECORD ====================*
%FSLAX55Y55*MOIN*%
%IR0*IPPOS*OFA0.00000B0.00000*MIA1B0*SFA1.00000B1.00000*%
%ADD10C,.004*%
%ADD11C,.007098*%
G75*
%LPD*%
G75*
G36*
G01X103637Y129138D02*
Y133862D01*
X104424D01*
Y129138D01*
X103637D01*
G37*
G54D10*
G01X30733Y170267D02*
Y172767D01*
X30067D01*
X29853Y172642D01*
X29720Y172475D01*
X29667Y172142D01*
X29720Y171808D01*
X29880Y171600D01*
X30067Y171475D01*
X30733D01*
G01X30067D02*
X29667Y170267D01*
G01X28000D02*
Y172767D01*
X28320Y172267D01*
G01Y170267D02*
X27680D01*
G01X25853D02*
X25800Y170808D01*
X25720Y171267D01*
X25613Y171683D01*
X25480Y172142D01*
X25267Y172767D01*
X26333D01*
G01X36000Y170500D02*
Y172500D01*
X32000D01*
Y170500D01*
X36000D01*
G01X30733Y179267D02*
Y181767D01*
X30067D01*
X29853Y181642D01*
X29720Y181475D01*
X29667Y181142D01*
X29720Y180808D01*
X29880Y180600D01*
X30067Y180475D01*
X30733D01*
G01X30067D02*
X29667Y179267D01*
G01X28000D02*
Y181767D01*
X28320Y181267D01*
G01Y179267D02*
X27680D01*
G01X26387Y179642D02*
X26227Y179433D01*
X26040Y179308D01*
X25800Y179267D01*
X25560Y179350D01*
X25373Y179517D01*
X25240Y179808D01*
X25213Y180142D01*
X25267Y180475D01*
X25400Y180683D01*
X25587Y180850D01*
X25773Y180892D01*
X25960Y180850D01*
X26200Y180683D01*
X26120Y181767D01*
X25400D01*
G01X36000Y179500D02*
Y181500D01*
X32000D01*
Y179500D01*
X36000D01*
G01X30733Y174767D02*
Y177267D01*
X30067D01*
X29853Y177142D01*
X29720Y176975D01*
X29667Y176642D01*
X29720Y176308D01*
X29880Y176100D01*
X30067Y175975D01*
X30733D01*
G01X30067D02*
X29667Y174767D01*
G01X28000D02*
Y177267D01*
X28320Y176767D01*
G01Y174767D02*
X27680D01*
G01X26307Y175808D02*
X26120Y176100D01*
X25960Y176267D01*
X25747Y176350D01*
X25560Y176267D01*
X25427Y176100D01*
X25320Y175850D01*
X25293Y175558D01*
X25320Y175308D01*
X25427Y175058D01*
X25587Y174850D01*
X25773Y174767D01*
X25987Y174850D01*
X26173Y175100D01*
X26280Y175475D01*
X26307Y175892D01*
X26253Y176433D01*
X26173Y176725D01*
X26040Y177017D01*
X25853Y177225D01*
X25667Y177267D01*
X25480Y177183D01*
X25347Y176975D01*
G01X36000Y175000D02*
Y177000D01*
X32000D01*
Y175000D01*
X36000D01*
G01X24667Y189267D02*
X27167D01*
Y189933D01*
X27042Y190147D01*
X26875Y190280D01*
X26542Y190333D01*
X26208Y190280D01*
X26000Y190120D01*
X25875Y189933D01*
Y189267D01*
G01Y189933D02*
X24667Y190333D01*
G01Y192000D02*
X27167D01*
X26667Y191680D01*
G01X24667D02*
Y192320D01*
G01X26750Y193693D02*
X27000Y193853D01*
X27125Y194040D01*
X27167Y194253D01*
X27083Y194520D01*
X26875Y194707D01*
X26625Y194760D01*
X26375Y194733D01*
X26167Y194627D01*
X25750Y194093D01*
X25458Y193853D01*
X25042Y193693D01*
X24667Y193640D01*
Y194760D01*
G01X23500Y195000D02*
X20500D01*
Y189000D01*
X23500D01*
Y195000D01*
G01X78000Y39000D02*
X80000D01*
Y43000D01*
X78000D01*
Y39000D01*
G01X83500D02*
X85500D01*
Y43000D01*
X83500D01*
Y39000D01*
G01X89000D02*
X91000D01*
Y43000D01*
X89000D01*
Y39000D01*
G01X94500D02*
X96500D01*
Y43000D01*
X94500D01*
Y39000D01*
G01X77767Y44267D02*
X80267D01*
Y44933D01*
X80142Y45147D01*
X79975Y45280D01*
X79642Y45333D01*
X79308Y45280D01*
X79100Y45120D01*
X78975Y44933D01*
Y44267D01*
G01Y44933D02*
X77767Y45333D01*
G01Y46947D02*
X78308Y47000D01*
X78767Y47080D01*
X79183Y47187D01*
X79642Y47320D01*
X80267Y47533D01*
Y46467D01*
G01Y49200D02*
X80183Y48987D01*
X79975Y48827D01*
X79725Y48720D01*
X79392Y48640D01*
X79017Y48613D01*
X78642Y48640D01*
X78308Y48720D01*
X78058Y48827D01*
X77850Y48987D01*
X77767Y49200D01*
X77850Y49413D01*
X78058Y49573D01*
X78308Y49680D01*
X78642Y49760D01*
X79017Y49787D01*
X79392Y49760D01*
X79725Y49680D01*
X79975Y49573D01*
X80183Y49413D01*
X80267Y49200D01*
G01X83267Y44267D02*
X85767D01*
Y44933D01*
X85642Y45147D01*
X85475Y45280D01*
X85142Y45333D01*
X84808Y45280D01*
X84600Y45120D01*
X84475Y44933D01*
Y44267D01*
G01Y44933D02*
X83267Y45333D01*
G01Y46947D02*
X83808Y47000D01*
X84267Y47080D01*
X84683Y47187D01*
X85142Y47320D01*
X85767Y47533D01*
Y46467D01*
G01X83267Y49200D02*
X85767D01*
X85267Y48880D01*
G01X83267D02*
Y49520D01*
G01X88767Y44267D02*
X91267D01*
Y44933D01*
X91142Y45147D01*
X90975Y45280D01*
X90642Y45333D01*
X90308Y45280D01*
X90100Y45120D01*
X89975Y44933D01*
Y44267D01*
G01Y44933D02*
X88767Y45333D01*
G01Y46947D02*
X89308Y47000D01*
X89767Y47080D01*
X90183Y47187D01*
X90642Y47320D01*
X91267Y47533D01*
Y46467D01*
G01X90850Y48693D02*
X91100Y48853D01*
X91225Y49040D01*
X91267Y49253D01*
X91183Y49520D01*
X90975Y49707D01*
X90725Y49760D01*
X90475Y49733D01*
X90267Y49627D01*
X89850Y49093D01*
X89558Y48853D01*
X89142Y48693D01*
X88767Y48640D01*
Y49760D01*
G01X94267Y44267D02*
X96767D01*
Y44933D01*
X96642Y45147D01*
X96475Y45280D01*
X96142Y45333D01*
X95808Y45280D01*
X95600Y45120D01*
X95475Y44933D01*
Y44267D01*
G01Y44933D02*
X94267Y45333D01*
G01Y46947D02*
X94808Y47000D01*
X95267Y47080D01*
X95683Y47187D01*
X96142Y47320D01*
X96767Y47533D01*
Y46467D01*
G01X94767Y48613D02*
X94475Y48773D01*
X94308Y48987D01*
X94267Y49227D01*
X94308Y49440D01*
X94517Y49653D01*
X94767Y49787D01*
X95017Y49813D01*
X95308Y49760D01*
X95517Y49573D01*
X95600Y49387D01*
Y49147D01*
G01Y49387D02*
X95725Y49547D01*
X95933Y49680D01*
X96183Y49733D01*
X96433Y49680D01*
X96642Y49547D01*
X96767Y49307D01*
X96725Y49067D01*
X96558Y48827D01*
G01X62750Y58767D02*
X65250D01*
Y59433D01*
X65125Y59647D01*
X64958Y59780D01*
X64625Y59833D01*
X64292Y59780D01*
X64083Y59620D01*
X63958Y59433D01*
Y58767D01*
G01Y59433D02*
X62750Y59833D01*
G01X63792Y60993D02*
X64083Y61180D01*
X64250Y61340D01*
X64333Y61553D01*
X64250Y61740D01*
X64083Y61873D01*
X63833Y61980D01*
X63542Y62007D01*
X63292Y61980D01*
X63042Y61873D01*
X62833Y61713D01*
X62750Y61527D01*
X62833Y61313D01*
X63083Y61127D01*
X63458Y61020D01*
X63875Y60993D01*
X64417Y61047D01*
X64708Y61127D01*
X65000Y61260D01*
X65208Y61447D01*
X65250Y61633D01*
X65167Y61820D01*
X64958Y61953D01*
G01X62750Y63700D02*
X65250D01*
X64750Y63380D01*
G01X62750D02*
Y64020D01*
G01X65500Y71000D02*
X62500D01*
Y65000D01*
X65500D01*
Y71000D01*
G01X59900Y83000D02*
X56900D01*
Y77000D01*
X59900D01*
Y83000D01*
G01X67900Y77000D02*
X70900D01*
Y83000D01*
X67900D01*
Y77000D01*
G01X82500Y83500D02*
X79500D01*
Y77500D01*
X82500D01*
Y83500D01*
G01X88500Y85600D02*
Y84400D01*
G03X89400Y83500I900J0D01*
G01X93600D01*
G03X94500Y84400I0J900D01*
G01Y85600D01*
G03X93600Y86500I-900J0D01*
G01X89400D01*
G03X88500Y85600I0J-900D01*
G01X64500Y83000D02*
X63300D01*
G03X62400Y82100I0J-900D01*
G01Y77900D01*
G03X63300Y77000I900J0D01*
G01X64500D01*
G03X65400Y77900I0J900D01*
G01Y82100D01*
G03X64500Y83000I-900J0D01*
G01X59542Y59387D02*
X59667Y59227D01*
X59750Y59040D01*
Y58827D01*
X59625Y58587D01*
X59417Y58400D01*
X59167Y58267D01*
X58750Y58160D01*
X58375Y58133D01*
X58000Y58187D01*
X57750Y58267D01*
X57500Y58427D01*
X57333Y58613D01*
X57250Y58800D01*
Y58987D01*
X57333Y59173D01*
X57458Y59333D01*
X57625Y59467D01*
G01Y60413D02*
X57417Y60573D01*
X57292Y60760D01*
X57250Y61000D01*
X57333Y61240D01*
X57500Y61427D01*
X57792Y61560D01*
X58125Y61587D01*
X58458Y61533D01*
X58667Y61400D01*
X58833Y61213D01*
X58875Y61027D01*
X58833Y60840D01*
X58667Y60600D01*
X59750Y60680D01*
Y61400D01*
G01X57250Y63200D02*
X57292Y63387D01*
X57417Y63600D01*
X57625Y63733D01*
X57917Y63787D01*
X58208Y63733D01*
X58458Y63573D01*
X58583Y63333D01*
Y63067D01*
X58667Y62907D01*
X58875Y62773D01*
X59167Y62720D01*
X59458Y62800D01*
X59667Y62987D01*
X59750Y63200D01*
X59667Y63413D01*
X59458Y63600D01*
X59167Y63680D01*
X58875Y63627D01*
X58667Y63493D01*
X58583Y63333D01*
Y63067D01*
X58458Y62827D01*
X58208Y62667D01*
X57917Y62613D01*
X57625Y62667D01*
X57417Y62800D01*
X57292Y63013D01*
X57250Y63200D01*
G01X57900Y65000D02*
X59100D01*
G03X60000Y65900I0J900D01*
G01Y70100D01*
G03X59100Y71000I-900J0D01*
G01X57900D01*
G03X57000Y70100I0J-900D01*
G01Y65900D01*
G03X57900Y65000I900J0D01*
G01X74300Y77000D02*
X75500D01*
G03X76400Y77900I0J900D01*
G01Y82100D01*
G03X75500Y83000I-900J0D01*
G01X74300D01*
G03X73400Y82100I0J-900D01*
G01Y77900D01*
G03X74300Y77000I900J0D01*
G01X90113Y63542D02*
X90273Y63667D01*
X90460Y63750D01*
X90673D01*
X90913Y63625D01*
X91100Y63417D01*
X91233Y63167D01*
X91340Y62750D01*
X91367Y62375D01*
X91313Y62000D01*
X91233Y61750D01*
X91073Y61500D01*
X90887Y61333D01*
X90700Y61250D01*
X90513D01*
X90327Y61333D01*
X90167Y61458D01*
X90033Y61625D01*
G01X89087D02*
X88927Y61417D01*
X88740Y61292D01*
X88500Y61250D01*
X88260Y61333D01*
X88073Y61500D01*
X87940Y61792D01*
X87913Y62125D01*
X87967Y62458D01*
X88100Y62667D01*
X88287Y62833D01*
X88473Y62875D01*
X88660Y62833D01*
X88900Y62667D01*
X88820Y63750D01*
X88100D01*
G01X85980Y61250D02*
Y63750D01*
X86967Y61958D01*
X85633D01*
G01X95000Y61000D02*
Y65000D01*
G03X94000Y66000I-1000J0D01*
G01X83000D01*
G03X82000Y65000I0J-1000D01*
G01Y61000D01*
G03X83000Y60000I1000J0D01*
G01X94000D01*
G03X95000Y61000I0J1000D01*
G01X90500Y125500D02*
X91500D01*
G03X92000Y126000I0J500D01*
G01Y129000D01*
G03X91500Y129500I-500J0D01*
G01X90500D01*
G03X90000Y129000I0J-500D01*
G01Y126000D01*
G03X90500Y125500I500J0D01*
G01X88958Y115387D02*
X89083Y115227D01*
X89167Y115040D01*
Y114827D01*
X89042Y114587D01*
X88833Y114400D01*
X88583Y114267D01*
X88167Y114160D01*
X87792Y114133D01*
X87417Y114187D01*
X87167Y114267D01*
X86917Y114427D01*
X86750Y114613D01*
X86667Y114800D01*
Y114987D01*
X86750Y115173D01*
X86875Y115333D01*
X87042Y115467D01*
G01X86667Y117000D02*
X89167D01*
X88667Y116680D01*
G01X86667D02*
Y117320D01*
G01Y119200D02*
X89167D01*
X88667Y118880D01*
G01X86667D02*
Y119520D01*
G01X85000Y119000D02*
X84000D01*
G03X83500Y118500I0J-500D01*
G01Y115500D01*
G03X84000Y115000I500J0D01*
G01X85000D01*
G03X85500Y115500I0J500D01*
G01Y118500D01*
G03X85000Y119000I-500J0D01*
G01X54800Y126967D02*
X57300D01*
Y127633D01*
X57175Y127847D01*
X57008Y127980D01*
X56675Y128033D01*
X56342Y127980D01*
X56133Y127820D01*
X56008Y127633D01*
Y126967D01*
G01Y127633D02*
X54800Y128033D01*
G01Y129700D02*
X57300D01*
X56800Y129380D01*
G01X54800D02*
Y130020D01*
G01X57300Y131900D02*
X57217Y131687D01*
X57008Y131527D01*
X56758Y131420D01*
X56425Y131340D01*
X56050Y131313D01*
X55675Y131340D01*
X55342Y131420D01*
X55092Y131527D01*
X54883Y131687D01*
X54800Y131900D01*
X54883Y132113D01*
X55092Y132273D01*
X55342Y132380D01*
X55675Y132460D01*
X56050Y132487D01*
X56425Y132460D01*
X56758Y132380D01*
X57008Y132273D01*
X57217Y132113D01*
X57300Y131900D01*
G01X58500Y127500D02*
X60500D01*
Y131500D01*
X58500D01*
Y127500D01*
G01X58633Y115300D02*
Y117800D01*
X57967D01*
X57753Y117675D01*
X57620Y117508D01*
X57567Y117175D01*
X57620Y116842D01*
X57780Y116633D01*
X57967Y116508D01*
X58633D01*
G01X57967D02*
X57567Y115300D01*
G01X55900D02*
Y117800D01*
X56220Y117300D01*
G01Y115300D02*
X55580D01*
G01X53700D02*
X53513Y115342D01*
X53300Y115467D01*
X53167Y115675D01*
X53113Y115967D01*
X53167Y116258D01*
X53327Y116508D01*
X53567Y116633D01*
X53833D01*
X53993Y116717D01*
X54127Y116925D01*
X54180Y117217D01*
X54100Y117508D01*
X53913Y117717D01*
X53700Y117800D01*
X53487Y117717D01*
X53300Y117508D01*
X53220Y117217D01*
X53273Y116925D01*
X53407Y116717D01*
X53567Y116633D01*
X53833D01*
X54073Y116508D01*
X54233Y116258D01*
X54287Y115967D01*
X54233Y115675D01*
X54100Y115467D01*
X53887Y115342D01*
X53700Y115300D01*
G01X59900Y117400D02*
Y115400D01*
X63900D01*
Y117400D01*
X59900D01*
G01X77133Y112667D02*
Y115167D01*
X76467D01*
X76253Y115042D01*
X76120Y114875D01*
X76067Y114542D01*
X76120Y114208D01*
X76280Y114000D01*
X76467Y113875D01*
X77133D01*
G01X76467D02*
X76067Y112667D01*
G01X74907Y113708D02*
X74720Y114000D01*
X74560Y114167D01*
X74347Y114250D01*
X74160Y114167D01*
X74027Y114000D01*
X73920Y113750D01*
X73893Y113458D01*
X73920Y113208D01*
X74027Y112958D01*
X74187Y112750D01*
X74373Y112667D01*
X74587Y112750D01*
X74773Y113000D01*
X74880Y113375D01*
X74907Y113792D01*
X74853Y114333D01*
X74773Y114625D01*
X74640Y114917D01*
X74453Y115125D01*
X74267Y115167D01*
X74080Y115083D01*
X73947Y114875D01*
G01X77500Y116000D02*
Y118000D01*
X73500D01*
Y116000D01*
X77500D01*
G01X64600Y111367D02*
X67100D01*
Y112033D01*
X66975Y112247D01*
X66808Y112380D01*
X66475Y112433D01*
X66142Y112380D01*
X65933Y112220D01*
X65808Y112033D01*
Y111367D01*
G01Y112033D02*
X64600Y112433D01*
G01Y114047D02*
X65142Y114100D01*
X65600Y114180D01*
X66017Y114287D01*
X66475Y114420D01*
X67100Y114633D01*
Y113567D01*
G01X68000Y112500D02*
X70000D01*
Y116500D01*
X68000D01*
Y112500D01*
G01X84500Y124500D02*
X86500D01*
Y128500D01*
X84500D01*
Y124500D01*
G01X81167Y101867D02*
X83667D01*
Y102533D01*
X83542Y102747D01*
X83375Y102880D01*
X83042Y102933D01*
X82708Y102880D01*
X82500Y102720D01*
X82375Y102533D01*
Y101867D01*
G01Y102533D02*
X81167Y102933D01*
G01X83250Y104093D02*
X83500Y104253D01*
X83625Y104440D01*
X83667Y104653D01*
X83583Y104920D01*
X83375Y105107D01*
X83125Y105160D01*
X82875Y105133D01*
X82667Y105027D01*
X82250Y104493D01*
X81958Y104253D01*
X81542Y104093D01*
X81167Y104040D01*
Y105160D01*
G01X83500Y100500D02*
X81500D01*
Y96500D01*
X83500D01*
Y100500D01*
G01X72133Y105250D02*
Y107750D01*
X71467D01*
X71253Y107625D01*
X71120Y107458D01*
X71067Y107125D01*
X71120Y106792D01*
X71280Y106583D01*
X71467Y106458D01*
X72133D01*
G01X71467D02*
X71067Y105250D01*
G01X69080D02*
Y107750D01*
X70067Y105958D01*
X68733D01*
G01X77500Y105000D02*
Y107000D01*
X73500D01*
Y105000D01*
X77500D01*
G01X88167Y103867D02*
X90667D01*
Y104533D01*
X90542Y104747D01*
X90375Y104880D01*
X90042Y104933D01*
X89708Y104880D01*
X89500Y104720D01*
X89375Y104533D01*
Y103867D01*
G01Y104533D02*
X88167Y104933D01*
G01X88542Y106013D02*
X88333Y106173D01*
X88208Y106360D01*
X88167Y106600D01*
X88250Y106840D01*
X88417Y107027D01*
X88708Y107160D01*
X89042Y107187D01*
X89375Y107133D01*
X89583Y107000D01*
X89750Y106813D01*
X89792Y106627D01*
X89750Y106440D01*
X89583Y106200D01*
X90667Y106280D01*
Y107000D01*
G01X90500Y103000D02*
X88500D01*
Y99000D01*
X90500D01*
Y103000D01*
G01X69133Y121300D02*
Y123800D01*
X68467D01*
X68253Y123675D01*
X68120Y123508D01*
X68067Y123175D01*
X68120Y122842D01*
X68280Y122633D01*
X68467Y122508D01*
X69133D01*
G01X68467D02*
X68067Y121300D01*
G01X66907Y123383D02*
X66747Y123633D01*
X66560Y123758D01*
X66347Y123800D01*
X66080Y123717D01*
X65893Y123508D01*
X65840Y123258D01*
X65867Y123008D01*
X65973Y122800D01*
X66507Y122383D01*
X66747Y122092D01*
X66907Y121675D01*
X66960Y121300D01*
X65840D01*
G01X64707Y123383D02*
X64547Y123633D01*
X64360Y123758D01*
X64147Y123800D01*
X63880Y123717D01*
X63693Y123508D01*
X63640Y123258D01*
X63667Y123008D01*
X63773Y122800D01*
X64307Y122383D01*
X64547Y122092D01*
X64707Y121675D01*
X64760Y121300D01*
X63640D01*
G01X63500Y128000D02*
Y125000D01*
X69500D01*
Y128000D01*
X63500D01*
G01X78667Y121767D02*
X81167D01*
Y122433D01*
X81042Y122647D01*
X80875Y122780D01*
X80542Y122833D01*
X80208Y122780D01*
X80000Y122620D01*
X79875Y122433D01*
Y121767D01*
G01Y122433D02*
X78667Y122833D01*
G01X80750Y123993D02*
X81000Y124153D01*
X81125Y124340D01*
X81167Y124553D01*
X81083Y124820D01*
X80875Y125007D01*
X80625Y125060D01*
X80375Y125033D01*
X80167Y124927D01*
X79750Y124393D01*
X79458Y124153D01*
X79042Y123993D01*
X78667Y123940D01*
Y125060D01*
G01X79167Y126113D02*
X78875Y126273D01*
X78708Y126487D01*
X78667Y126727D01*
X78708Y126940D01*
X78917Y127153D01*
X79167Y127287D01*
X79417Y127313D01*
X79708Y127260D01*
X79917Y127073D01*
X80000Y126887D01*
Y126647D01*
G01Y126887D02*
X80125Y127047D01*
X80333Y127180D01*
X80583Y127233D01*
X80833Y127180D01*
X81042Y127047D01*
X81167Y126807D01*
X81125Y126567D01*
X80958Y126327D01*
G01X77500Y127500D02*
X74500D01*
Y121500D01*
X77500D01*
Y127500D01*
G01X57167Y84267D02*
X59667D01*
Y84933D01*
X59542Y85147D01*
X59375Y85280D01*
X59042Y85333D01*
X58708Y85280D01*
X58500Y85120D01*
X58375Y84933D01*
Y84267D01*
G01Y84933D02*
X57167Y85333D01*
G01X58208Y86493D02*
X58500Y86680D01*
X58667Y86840D01*
X58750Y87053D01*
X58667Y87240D01*
X58500Y87373D01*
X58250Y87480D01*
X57958Y87507D01*
X57708Y87480D01*
X57458Y87373D01*
X57250Y87213D01*
X57167Y87027D01*
X57250Y86813D01*
X57500Y86627D01*
X57875Y86520D01*
X58292Y86493D01*
X58833Y86547D01*
X59125Y86627D01*
X59417Y86760D01*
X59625Y86947D01*
X59667Y87133D01*
X59583Y87320D01*
X59375Y87453D01*
G01X59250Y88693D02*
X59500Y88853D01*
X59625Y89040D01*
X59667Y89253D01*
X59583Y89520D01*
X59375Y89707D01*
X59125Y89760D01*
X58875Y89733D01*
X58667Y89627D01*
X58250Y89093D01*
X57958Y88853D01*
X57542Y88693D01*
X57167Y88640D01*
Y89760D01*
G01X68167Y84267D02*
X70667D01*
Y84933D01*
X70542Y85147D01*
X70375Y85280D01*
X70042Y85333D01*
X69708Y85280D01*
X69500Y85120D01*
X69375Y84933D01*
Y84267D01*
G01Y84933D02*
X68167Y85333D01*
G01X69208Y86493D02*
X69500Y86680D01*
X69667Y86840D01*
X69750Y87053D01*
X69667Y87240D01*
X69500Y87373D01*
X69250Y87480D01*
X68958Y87507D01*
X68708Y87480D01*
X68458Y87373D01*
X68250Y87213D01*
X68167Y87027D01*
X68250Y86813D01*
X68500Y86627D01*
X68875Y86520D01*
X69292Y86493D01*
X69833Y86547D01*
X70125Y86627D01*
X70417Y86760D01*
X70625Y86947D01*
X70667Y87133D01*
X70583Y87320D01*
X70375Y87453D01*
G01X68667Y88613D02*
X68375Y88773D01*
X68208Y88987D01*
X68167Y89227D01*
X68208Y89440D01*
X68417Y89653D01*
X68667Y89787D01*
X68917Y89813D01*
X69208Y89760D01*
X69417Y89573D01*
X69500Y89387D01*
Y89147D01*
G01Y89387D02*
X69625Y89547D01*
X69833Y89680D01*
X70083Y89733D01*
X70333Y89680D01*
X70542Y89547D01*
X70667Y89307D01*
X70625Y89067D01*
X70458Y88827D01*
G01X79767Y84767D02*
X82267D01*
Y85433D01*
X82142Y85647D01*
X81975Y85780D01*
X81642Y85833D01*
X81308Y85780D01*
X81100Y85620D01*
X80975Y85433D01*
Y84767D01*
G01Y85433D02*
X79767Y85833D01*
G01X80808Y86993D02*
X81100Y87180D01*
X81267Y87340D01*
X81350Y87553D01*
X81267Y87740D01*
X81100Y87873D01*
X80850Y87980D01*
X80558Y88007D01*
X80308Y87980D01*
X80058Y87873D01*
X79850Y87713D01*
X79767Y87527D01*
X79850Y87313D01*
X80100Y87127D01*
X80475Y87020D01*
X80892Y86993D01*
X81433Y87047D01*
X81725Y87127D01*
X82017Y87260D01*
X82225Y87447D01*
X82267Y87633D01*
X82183Y87820D01*
X81975Y87953D01*
G01X79767Y90020D02*
X82267D01*
X80475Y89033D01*
Y90367D01*
G01X92513Y115958D02*
X92673Y116083D01*
X92860Y116167D01*
X93073D01*
X93313Y116042D01*
X93500Y115833D01*
X93633Y115583D01*
X93740Y115167D01*
X93767Y114792D01*
X93713Y114417D01*
X93633Y114167D01*
X93473Y113917D01*
X93287Y113750D01*
X93100Y113667D01*
X92913D01*
X92727Y113750D01*
X92567Y113875D01*
X92433Y114042D01*
G01X90953Y113667D02*
X90900Y114208D01*
X90820Y114667D01*
X90713Y115083D01*
X90580Y115542D01*
X90367Y116167D01*
X91433D01*
G01X89000Y111600D02*
Y110400D01*
G03X89900Y109500I900J0D01*
G01X94100D01*
G03X95000Y110400I0J900D01*
G01Y111600D01*
G03X94100Y112500I-900J0D01*
G01X89900D01*
G03X89000Y111600I0J-900D01*
G01X92013Y89958D02*
X92173Y90083D01*
X92360Y90167D01*
X92573D01*
X92813Y90042D01*
X93000Y89833D01*
X93133Y89583D01*
X93240Y89167D01*
X93267Y88792D01*
X93213Y88417D01*
X93133Y88167D01*
X92973Y87917D01*
X92787Y87750D01*
X92600Y87667D01*
X92413D01*
X92227Y87750D01*
X92067Y87875D01*
X91933Y88042D01*
G01X90907Y88708D02*
X90720Y89000D01*
X90560Y89167D01*
X90347Y89250D01*
X90160Y89167D01*
X90027Y89000D01*
X89920Y88750D01*
X89893Y88458D01*
X89920Y88208D01*
X90027Y87958D01*
X90187Y87750D01*
X90373Y87667D01*
X90587Y87750D01*
X90773Y88000D01*
X90880Y88375D01*
X90907Y88792D01*
X90853Y89333D01*
X90773Y89625D01*
X90640Y89917D01*
X90453Y90125D01*
X90267Y90167D01*
X90080Y90083D01*
X89947Y89875D01*
G01X64958Y85387D02*
X65083Y85227D01*
X65167Y85040D01*
Y84827D01*
X65042Y84587D01*
X64833Y84400D01*
X64583Y84267D01*
X64167Y84160D01*
X63792Y84133D01*
X63417Y84187D01*
X63167Y84267D01*
X62917Y84427D01*
X62750Y84613D01*
X62667Y84800D01*
Y84987D01*
X62750Y85173D01*
X62875Y85333D01*
X63042Y85467D01*
G01Y86413D02*
X62833Y86573D01*
X62708Y86760D01*
X62667Y87000D01*
X62750Y87240D01*
X62917Y87427D01*
X63208Y87560D01*
X63542Y87587D01*
X63875Y87533D01*
X64083Y87400D01*
X64250Y87213D01*
X64292Y87027D01*
X64250Y86840D01*
X64083Y86600D01*
X65167Y86680D01*
Y87400D01*
G01X63708Y88693D02*
X64000Y88880D01*
X64167Y89040D01*
X64250Y89253D01*
X64167Y89440D01*
X64000Y89573D01*
X63750Y89680D01*
X63458Y89707D01*
X63208Y89680D01*
X62958Y89573D01*
X62750Y89413D01*
X62667Y89227D01*
X62750Y89013D01*
X63000Y88827D01*
X63375Y88720D01*
X63792Y88693D01*
X64333Y88747D01*
X64625Y88827D01*
X64917Y88960D01*
X65125Y89147D01*
X65167Y89333D01*
X65083Y89520D01*
X64875Y89653D01*
G01X59113Y99042D02*
X59273Y99167D01*
X59460Y99250D01*
X59673D01*
X59913Y99125D01*
X60100Y98917D01*
X60233Y98667D01*
X60340Y98250D01*
X60367Y97875D01*
X60313Y97500D01*
X60233Y97250D01*
X60073Y97000D01*
X59887Y96833D01*
X59700Y96750D01*
X59513D01*
X59327Y96833D01*
X59167Y96958D01*
X59033Y97125D01*
G01X58087D02*
X57927Y96917D01*
X57740Y96792D01*
X57500Y96750D01*
X57260Y96833D01*
X57073Y97000D01*
X56940Y97292D01*
X56913Y97625D01*
X56967Y97958D01*
X57100Y98167D01*
X57287Y98333D01*
X57473Y98375D01*
X57660Y98333D01*
X57900Y98167D01*
X57820Y99250D01*
X57100D01*
G01X55300Y96750D02*
Y99250D01*
X55620Y98750D01*
G01Y96750D02*
X54980D01*
G01X62200Y94900D02*
X63400D01*
G03X64300Y95800I0J900D01*
G01Y100000D01*
G03X63400Y100900I-900J0D01*
G01X62200D01*
G03X61300Y100000I0J-900D01*
G01Y95800D01*
G03X62200Y94900I900J0D01*
G01X75958Y85387D02*
X76083Y85227D01*
X76167Y85040D01*
Y84827D01*
X76042Y84587D01*
X75833Y84400D01*
X75583Y84267D01*
X75167Y84160D01*
X74792Y84133D01*
X74417Y84187D01*
X74167Y84267D01*
X73917Y84427D01*
X73750Y84613D01*
X73667Y84800D01*
Y84987D01*
X73750Y85173D01*
X73875Y85333D01*
X74042Y85467D01*
G01Y86413D02*
X73833Y86573D01*
X73708Y86760D01*
X73667Y87000D01*
X73750Y87240D01*
X73917Y87427D01*
X74208Y87560D01*
X74542Y87587D01*
X74875Y87533D01*
X75083Y87400D01*
X75250Y87213D01*
X75292Y87027D01*
X75250Y86840D01*
X75083Y86600D01*
X76167Y86680D01*
Y87400D01*
G01X73667Y89147D02*
X74208Y89200D01*
X74667Y89280D01*
X75083Y89387D01*
X75542Y89520D01*
X76167Y89733D01*
Y88667D01*
G01X90013Y94458D02*
X90173Y94583D01*
X90360Y94667D01*
X90573D01*
X90813Y94542D01*
X91000Y94333D01*
X91133Y94083D01*
X91240Y93667D01*
X91267Y93292D01*
X91213Y92917D01*
X91133Y92667D01*
X90973Y92417D01*
X90787Y92250D01*
X90600Y92167D01*
X90413D01*
X90227Y92250D01*
X90067Y92375D01*
X89933Y92542D01*
G01X88400Y92167D02*
X88213Y92208D01*
X88000Y92333D01*
X87867Y92542D01*
X87813Y92833D01*
X87867Y93125D01*
X88027Y93375D01*
X88267Y93500D01*
X88533D01*
X88693Y93583D01*
X88827Y93792D01*
X88880Y94083D01*
X88800Y94375D01*
X88613Y94583D01*
X88400Y94667D01*
X88187Y94583D01*
X88000Y94375D01*
X87920Y94083D01*
X87973Y93792D01*
X88107Y93583D01*
X88267Y93500D01*
X88533D01*
X88773Y93375D01*
X88933Y93125D01*
X88987Y92833D01*
X88933Y92542D01*
X88800Y92333D01*
X88587Y92208D01*
X88400Y92167D01*
G01X98000Y92400D02*
Y93600D01*
G03X97100Y94500I-900J0D01*
G01X92900D01*
G03X92000Y93600I0J-900D01*
G01Y92400D01*
G03X92900Y91500I900J0D01*
G01X97100D01*
G03X98000Y92400I0J900D01*
G01X93558Y144887D02*
X93683Y144727D01*
X93767Y144540D01*
Y144327D01*
X93642Y144087D01*
X93433Y143900D01*
X93183Y143767D01*
X92767Y143660D01*
X92392Y143633D01*
X92017Y143687D01*
X91767Y143767D01*
X91517Y143927D01*
X91350Y144113D01*
X91267Y144300D01*
Y144487D01*
X91350Y144673D01*
X91475Y144833D01*
X91642Y144967D01*
G01X91267Y146500D02*
X93767D01*
X93267Y146180D01*
G01X91267D02*
Y146820D01*
G01X91642Y148113D02*
X91433Y148273D01*
X91308Y148460D01*
X91267Y148700D01*
X91350Y148940D01*
X91517Y149127D01*
X91808Y149260D01*
X92142Y149287D01*
X92475Y149233D01*
X92683Y149100D01*
X92850Y148913D01*
X92892Y148727D01*
X92850Y148540D01*
X92683Y148300D01*
X93767Y148380D01*
Y149100D01*
G01X93000Y142500D02*
X92000D01*
G03X91500Y142000I0J-500D01*
G01Y139000D01*
G03X92000Y138500I500J0D01*
G01X93000D01*
G03X93500Y139000I0J500D01*
G01Y142000D01*
G03X93000Y142500I-500J0D01*
G01X92058Y131987D02*
X92183Y131827D01*
X92267Y131640D01*
Y131427D01*
X92142Y131187D01*
X91933Y131000D01*
X91683Y130867D01*
X91267Y130760D01*
X90892Y130733D01*
X90517Y130787D01*
X90267Y130867D01*
X90017Y131027D01*
X89850Y131213D01*
X89767Y131400D01*
Y131587D01*
X89850Y131773D01*
X89975Y131933D01*
X90142Y132067D01*
G01X90058Y133147D02*
X89850Y133333D01*
X89767Y133547D01*
X89850Y133760D01*
X90100Y133947D01*
X90475Y134080D01*
X90850Y134133D01*
X91308D01*
X91683Y134080D01*
X92017Y133947D01*
X92183Y133787D01*
X92267Y133600D01*
X92183Y133387D01*
X92017Y133227D01*
X91767Y133120D01*
X91433Y133067D01*
X91142Y133120D01*
X90850Y133253D01*
X90683Y133413D01*
X90642Y133600D01*
X90725Y133813D01*
X90933Y133973D01*
X91308Y134133D01*
G01X73333Y130500D02*
Y133000D01*
X72667D01*
X72453Y132875D01*
X72320Y132708D01*
X72267Y132375D01*
X72320Y132042D01*
X72480Y131833D01*
X72667Y131708D01*
X73333D01*
G01X72667D02*
X72267Y130500D01*
G01X70600D02*
X70413Y130542D01*
X70200Y130667D01*
X70067Y130875D01*
X70013Y131167D01*
X70067Y131458D01*
X70227Y131708D01*
X70467Y131833D01*
X70733D01*
X70893Y131917D01*
X71027Y132125D01*
X71080Y132417D01*
X71000Y132708D01*
X70813Y132917D01*
X70600Y133000D01*
X70387Y132917D01*
X70200Y132708D01*
X70120Y132417D01*
X70173Y132125D01*
X70307Y131917D01*
X70467Y131833D01*
X70733D01*
X70973Y131708D01*
X71133Y131458D01*
X71187Y131167D01*
X71133Y130875D01*
X71000Y130667D01*
X70787Y130542D01*
X70600Y130500D01*
G01X65000Y132500D02*
Y130500D01*
X69000D01*
Y132500D01*
X65000D01*
G01X83133Y130700D02*
Y133200D01*
X82467D01*
X82253Y133075D01*
X82120Y132908D01*
X82067Y132575D01*
X82120Y132242D01*
X82280Y132033D01*
X82467Y131908D01*
X83133D01*
G01X82467D02*
X82067Y130700D01*
G01X80853Y130992D02*
X80667Y130783D01*
X80453Y130700D01*
X80240Y130783D01*
X80053Y131033D01*
X79920Y131408D01*
X79867Y131783D01*
Y132242D01*
X79920Y132617D01*
X80053Y132950D01*
X80213Y133117D01*
X80400Y133200D01*
X80613Y133117D01*
X80773Y132950D01*
X80880Y132700D01*
X80933Y132367D01*
X80880Y132075D01*
X80747Y131783D01*
X80587Y131617D01*
X80400Y131575D01*
X80187Y131658D01*
X80027Y131867D01*
X79867Y132242D01*
G01X79000Y131000D02*
Y133000D01*
X75000D01*
Y131000D01*
X79000D01*
G01X84250Y129667D02*
X86750D01*
Y130333D01*
X86625Y130547D01*
X86458Y130680D01*
X86125Y130733D01*
X85792Y130680D01*
X85583Y130520D01*
X85458Y130333D01*
Y129667D01*
G01Y130333D02*
X84250Y130733D01*
G01Y132400D02*
X86750D01*
X86250Y132080D01*
G01X84250D02*
Y132720D01*
G01Y134600D02*
X86750D01*
X86250Y134280D01*
G01X84250D02*
Y134920D01*
G01Y136133D02*
X86750Y136800D01*
X84250Y137467D01*
G01X85125Y137227D02*
Y136373D01*
G01X96267Y144267D02*
X98767D01*
Y144933D01*
X98642Y145147D01*
X98475Y145280D01*
X98142Y145333D01*
X97808Y145280D01*
X97600Y145120D01*
X97475Y144933D01*
Y144267D01*
G01Y144933D02*
X96267Y145333D01*
G01Y147000D02*
X98767D01*
X98267Y146680D01*
G01X96267D02*
Y147320D01*
G01X96558Y148747D02*
X96350Y148933D01*
X96267Y149147D01*
X96350Y149360D01*
X96600Y149547D01*
X96975Y149680D01*
X97350Y149733D01*
X97808D01*
X98183Y149680D01*
X98517Y149547D01*
X98683Y149387D01*
X98767Y149200D01*
X98683Y148987D01*
X98517Y148827D01*
X98267Y148720D01*
X97933Y148667D01*
X97642Y148720D01*
X97350Y148853D01*
X97183Y149013D01*
X97142Y149200D01*
X97225Y149413D01*
X97433Y149573D01*
X97808Y149733D01*
G01X70813Y139692D02*
X70973Y139817D01*
X71160Y139900D01*
X71373D01*
X71613Y139775D01*
X71800Y139567D01*
X71933Y139317D01*
X72040Y138900D01*
X72067Y138525D01*
X72013Y138150D01*
X71933Y137900D01*
X71773Y137650D01*
X71587Y137483D01*
X71400Y137400D01*
X71213D01*
X71027Y137483D01*
X70867Y137608D01*
X70733Y137775D01*
G01X69787D02*
X69627Y137567D01*
X69440Y137442D01*
X69200Y137400D01*
X68960Y137483D01*
X68773Y137650D01*
X68640Y137942D01*
X68613Y138275D01*
X68667Y138608D01*
X68800Y138817D01*
X68987Y138983D01*
X69173Y139025D01*
X69360Y138983D01*
X69600Y138817D01*
X69520Y139900D01*
X68800D01*
G01X77500Y136500D02*
Y140500D01*
G03X76500Y141500I-1000J0D01*
G01X65500D01*
G03X64500Y140500I0J-1000D01*
G01Y136500D01*
G03X65500Y135500I1000J0D01*
G01X76500D01*
G03X77500Y136500I0J1000D01*
G01X100000Y39000D02*
X102000D01*
Y43000D01*
X100000D01*
Y39000D01*
G01X105500D02*
X107500D01*
Y43000D01*
X105500D01*
Y39000D01*
G01X99767Y44267D02*
X102267D01*
Y44933D01*
X102142Y45147D01*
X101975Y45280D01*
X101642Y45333D01*
X101308Y45280D01*
X101100Y45120D01*
X100975Y44933D01*
Y44267D01*
G01Y44933D02*
X99767Y45333D01*
G01Y46947D02*
X100308Y47000D01*
X100767Y47080D01*
X101183Y47187D01*
X101642Y47320D01*
X102267Y47533D01*
Y46467D01*
G01X99767Y49520D02*
X102267D01*
X100475Y48533D01*
Y49867D01*
G01X105267Y44267D02*
X107767D01*
Y44933D01*
X107642Y45147D01*
X107475Y45280D01*
X107142Y45333D01*
X106808Y45280D01*
X106600Y45120D01*
X106475Y44933D01*
Y44267D01*
G01Y44933D02*
X105267Y45333D01*
G01Y46947D02*
X105808Y47000D01*
X106267Y47080D01*
X106683Y47187D01*
X107142Y47320D01*
X107767Y47533D01*
Y46467D01*
G01X105642Y48613D02*
X105433Y48773D01*
X105308Y48960D01*
X105267Y49200D01*
X105350Y49440D01*
X105517Y49627D01*
X105808Y49760D01*
X106142Y49787D01*
X106475Y49733D01*
X106683Y49600D01*
X106850Y49413D01*
X106892Y49227D01*
X106850Y49040D01*
X106683Y48800D01*
X107767Y48880D01*
Y49600D01*
G01X126113Y85558D02*
X126273Y85683D01*
X126460Y85767D01*
X126673D01*
X126913Y85642D01*
X127100Y85433D01*
X127233Y85183D01*
X127340Y84767D01*
X127367Y84392D01*
X127313Y84017D01*
X127233Y83767D01*
X127073Y83517D01*
X126887Y83350D01*
X126700Y83267D01*
X126513D01*
X126327Y83350D01*
X126167Y83475D01*
X126033Y83642D01*
G01X125087Y83767D02*
X124927Y83475D01*
X124713Y83308D01*
X124473Y83267D01*
X124260Y83308D01*
X124047Y83517D01*
X123913Y83767D01*
X123887Y84017D01*
X123940Y84308D01*
X124127Y84517D01*
X124313Y84600D01*
X124553D01*
G01X124313D02*
X124153Y84725D01*
X124020Y84933D01*
X123967Y85183D01*
X124020Y85433D01*
X124153Y85642D01*
X124393Y85767D01*
X124633Y85725D01*
X124873Y85558D01*
G01X122887Y83642D02*
X122727Y83433D01*
X122540Y83308D01*
X122300Y83267D01*
X122060Y83350D01*
X121873Y83517D01*
X121740Y83808D01*
X121713Y84142D01*
X121767Y84475D01*
X121900Y84683D01*
X122087Y84850D01*
X122273Y84892D01*
X122460Y84850D01*
X122700Y84683D01*
X122620Y85767D01*
X121900D01*
G01X128500Y85100D02*
Y83900D01*
G03X129400Y83000I900J0D01*
G01X133600D01*
G03X134500Y83900I0J900D01*
G01Y85100D01*
G03X133600Y86000I-900J0D01*
G01X129400D01*
G03X128500Y85100I0J-900D01*
G01X113013Y64042D02*
X113173Y64167D01*
X113360Y64250D01*
X113573D01*
X113813Y64125D01*
X114000Y63917D01*
X114133Y63667D01*
X114240Y63250D01*
X114267Y62875D01*
X114213Y62500D01*
X114133Y62250D01*
X113973Y62000D01*
X113787Y61833D01*
X113600Y61750D01*
X113413D01*
X113227Y61833D01*
X113067Y61958D01*
X112933Y62125D01*
G01X111400Y61750D02*
Y64250D01*
X111720Y63750D01*
G01Y61750D02*
X111080D01*
G01X105000Y65000D02*
Y61000D01*
G03X106000Y60000I1000J0D01*
G01X117000D01*
G03X118000Y61000I0J1000D01*
G01Y65000D01*
G03X117000Y66000I-1000J0D01*
G01X106000D01*
G03X105000Y65000I0J-1000D01*
G01X123113Y129958D02*
X123273Y130083D01*
X123460Y130167D01*
X123673D01*
X123913Y130042D01*
X124100Y129833D01*
X124233Y129583D01*
X124340Y129167D01*
X124367Y128792D01*
X124313Y128417D01*
X124233Y128167D01*
X124073Y127917D01*
X123887Y127750D01*
X123700Y127667D01*
X123513D01*
X123327Y127750D01*
X123167Y127875D01*
X123033Y128042D01*
G01X121500Y127667D02*
Y130167D01*
X121820Y129667D01*
G01Y127667D02*
X121180D01*
G01X118980D02*
Y130167D01*
X119967Y128375D01*
X118633D01*
G01X113458Y118887D02*
X113583Y118727D01*
X113667Y118540D01*
Y118327D01*
X113542Y118087D01*
X113333Y117900D01*
X113083Y117767D01*
X112667Y117660D01*
X112292Y117633D01*
X111917Y117687D01*
X111667Y117767D01*
X111417Y117927D01*
X111250Y118113D01*
X111167Y118300D01*
Y118487D01*
X111250Y118673D01*
X111375Y118833D01*
X111542Y118967D01*
G01X111167Y120500D02*
X113667D01*
X113167Y120180D01*
G01X111167D02*
Y120820D01*
G01X111458Y122247D02*
X111250Y122433D01*
X111167Y122647D01*
X111250Y122860D01*
X111500Y123047D01*
X111875Y123180D01*
X112250Y123233D01*
X112708D01*
X113083Y123180D01*
X113417Y123047D01*
X113583Y122887D01*
X113667Y122700D01*
X113583Y122487D01*
X113417Y122327D01*
X113167Y122220D01*
X112833Y122167D01*
X112542Y122220D01*
X112250Y122353D01*
X112083Y122513D01*
X112042Y122700D01*
X112125Y122913D01*
X112333Y123073D01*
X112708Y123233D01*
G01X108500Y118500D02*
X109500D01*
G03X110000Y119000I0J500D01*
G01Y122000D01*
G03X109500Y122500I-500J0D01*
G01X108500D01*
G03X108000Y122000I0J-500D01*
G01Y119000D01*
G03X108500Y118500I500J0D01*
G01X100958Y118387D02*
X101083Y118227D01*
X101167Y118040D01*
Y117827D01*
X101042Y117587D01*
X100833Y117400D01*
X100583Y117267D01*
X100167Y117160D01*
X99792Y117133D01*
X99417Y117187D01*
X99167Y117267D01*
X98917Y117427D01*
X98750Y117613D01*
X98667Y117800D01*
Y117987D01*
X98750Y118173D01*
X98875Y118333D01*
X99042Y118467D01*
G01X98667Y120000D02*
X101167D01*
X100667Y119680D01*
G01X98667D02*
Y120320D01*
G01Y122200D02*
X98708Y122387D01*
X98833Y122600D01*
X99042Y122733D01*
X99333Y122787D01*
X99625Y122733D01*
X99875Y122573D01*
X100000Y122333D01*
Y122067D01*
X100083Y121907D01*
X100292Y121773D01*
X100583Y121720D01*
X100875Y121800D01*
X101083Y121987D01*
X101167Y122200D01*
X101083Y122413D01*
X100875Y122600D01*
X100583Y122680D01*
X100292Y122627D01*
X100083Y122493D01*
X100000Y122333D01*
Y122067D01*
X99875Y121827D01*
X99625Y121667D01*
X99333Y121613D01*
X99042Y121667D01*
X98833Y121800D01*
X98708Y122013D01*
X98667Y122200D01*
G01X102500Y118000D02*
X103500D01*
G03X104000Y118500I0J500D01*
G01Y121500D01*
G03X103500Y122000I-500J0D01*
G01X102500D01*
G03X102000Y121500I0J-500D01*
G01Y118500D01*
G03X102500Y118000I500J0D01*
G01X109613Y126458D02*
X109773Y126583D01*
X109960Y126667D01*
X110173D01*
X110413Y126542D01*
X110600Y126333D01*
X110733Y126083D01*
X110840Y125667D01*
X110867Y125292D01*
X110813Y124917D01*
X110733Y124667D01*
X110573Y124417D01*
X110387Y124250D01*
X110200Y124167D01*
X110013D01*
X109827Y124250D01*
X109667Y124375D01*
X109533Y124542D01*
G01X108000Y124167D02*
Y126667D01*
X108320Y126167D01*
G01Y124167D02*
X107680D01*
G01X105853D02*
X105800Y124708D01*
X105720Y125167D01*
X105613Y125583D01*
X105480Y126042D01*
X105267Y126667D01*
X106333D01*
G01X100000Y126000D02*
Y125000D01*
G03X100500Y124500I500J0D01*
G01X103500D01*
G03X104000Y125000I0J500D01*
G01Y126000D01*
G03X103500Y126500I-500J0D01*
G01X100500D01*
G03X100000Y126000I0J-500D01*
G01X98167Y109767D02*
X100667D01*
Y110433D01*
X100542Y110647D01*
X100375Y110780D01*
X100042Y110833D01*
X99708Y110780D01*
X99500Y110620D01*
X99375Y110433D01*
Y109767D01*
G01Y110433D02*
X98167Y110833D01*
G01Y112500D02*
X100667D01*
X100167Y112180D01*
G01X98167D02*
Y112820D01*
G01Y115020D02*
X100667D01*
X98875Y114033D01*
Y115367D01*
G01X103500Y115000D02*
X101500D01*
Y111000D01*
X103500D01*
Y115000D01*
G01X139000Y130000D02*
X137000D01*
Y126000D01*
X139000D01*
Y130000D01*
G01X134000D02*
X132000D01*
Y126000D01*
X134000D01*
Y130000D01*
G01X129000D02*
X127000D01*
Y126000D01*
X129000D01*
Y130000D01*
G01X111167Y110267D02*
X113667D01*
Y110933D01*
X113542Y111147D01*
X113375Y111280D01*
X113042Y111333D01*
X112708Y111280D01*
X112500Y111120D01*
X112375Y110933D01*
Y110267D01*
G01Y110933D02*
X111167Y111333D01*
G01Y113000D02*
X113667D01*
X113167Y112680D01*
G01X111167D02*
Y113320D01*
G01X111667Y114613D02*
X111375Y114773D01*
X111208Y114987D01*
X111167Y115227D01*
X111208Y115440D01*
X111417Y115653D01*
X111667Y115787D01*
X111917Y115813D01*
X112208Y115760D01*
X112417Y115573D01*
X112500Y115387D01*
Y115147D01*
G01Y115387D02*
X112625Y115547D01*
X112833Y115680D01*
X113083Y115733D01*
X113333Y115680D01*
X113542Y115547D01*
X113667Y115307D01*
X113625Y115067D01*
X113458Y114827D01*
G01X109500Y115000D02*
X107500D01*
Y111000D01*
X109500D01*
Y115000D01*
G01X107133Y97167D02*
Y99667D01*
X106467D01*
X106253Y99542D01*
X106120Y99375D01*
X106067Y99042D01*
X106120Y98708D01*
X106280Y98500D01*
X106467Y98375D01*
X107133D01*
G01X106467D02*
X106067Y97167D01*
G01X104987Y97667D02*
X104827Y97375D01*
X104613Y97208D01*
X104373Y97167D01*
X104160Y97208D01*
X103947Y97417D01*
X103813Y97667D01*
X103787Y97917D01*
X103840Y98208D01*
X104027Y98417D01*
X104213Y98500D01*
X104453D01*
G01X104213D02*
X104053Y98625D01*
X103920Y98833D01*
X103867Y99083D01*
X103920Y99333D01*
X104053Y99542D01*
X104293Y99667D01*
X104533Y99625D01*
X104773Y99458D01*
G01X98500Y99500D02*
Y97500D01*
X102500D01*
Y99500D01*
X98500D01*
G01X121167Y111767D02*
X123667D01*
Y112433D01*
X123542Y112647D01*
X123375Y112780D01*
X123042Y112833D01*
X122708Y112780D01*
X122500Y112620D01*
X122375Y112433D01*
Y111767D01*
G01Y112433D02*
X121167Y112833D01*
G01X121667Y113913D02*
X121375Y114073D01*
X121208Y114287D01*
X121167Y114527D01*
X121208Y114740D01*
X121417Y114953D01*
X121667Y115087D01*
X121917Y115113D01*
X122208Y115060D01*
X122417Y114873D01*
X122500Y114687D01*
Y114447D01*
G01Y114687D02*
X122625Y114847D01*
X122833Y114980D01*
X123083Y115033D01*
X123333Y114980D01*
X123542Y114847D01*
X123667Y114607D01*
X123625Y114367D01*
X123458Y114127D01*
G01X121167Y116700D02*
X123667D01*
X123167Y116380D01*
G01X121167D02*
Y117020D01*
G01X117000Y111000D02*
X120000D01*
Y117000D01*
X117000D01*
Y111000D01*
G01X126113Y91058D02*
X126273Y91183D01*
X126460Y91267D01*
X126673D01*
X126913Y91142D01*
X127100Y90933D01*
X127233Y90683D01*
X127340Y90267D01*
X127367Y89892D01*
X127313Y89517D01*
X127233Y89267D01*
X127073Y89017D01*
X126887Y88850D01*
X126700Y88767D01*
X126513D01*
X126327Y88850D01*
X126167Y88975D01*
X126033Y89142D01*
G01X125087Y89267D02*
X124927Y88975D01*
X124713Y88808D01*
X124473Y88767D01*
X124260Y88808D01*
X124047Y89017D01*
X123913Y89267D01*
X123887Y89517D01*
X123940Y89808D01*
X124127Y90017D01*
X124313Y90100D01*
X124553D01*
G01X124313D02*
X124153Y90225D01*
X124020Y90433D01*
X123967Y90683D01*
X124020Y90933D01*
X124153Y91142D01*
X124393Y91267D01*
X124633Y91225D01*
X124873Y91058D01*
G01X121980Y88767D02*
Y91267D01*
X122967Y89475D01*
X121633D01*
G01X128500Y90600D02*
Y89400D01*
G03X129400Y88500I900J0D01*
G01X133600D01*
G03X134500Y89400I0J900D01*
G01Y90600D01*
G03X133600Y91500I-900J0D01*
G01X129400D01*
G03X128500Y90600I0J-900D01*
G01X142458Y100887D02*
X142583Y100727D01*
X142667Y100540D01*
Y100327D01*
X142542Y100087D01*
X142333Y99900D01*
X142083Y99767D01*
X141667Y99660D01*
X141292Y99633D01*
X140917Y99687D01*
X140667Y99767D01*
X140417Y99927D01*
X140250Y100113D01*
X140167Y100300D01*
Y100487D01*
X140250Y100673D01*
X140375Y100833D01*
X140542Y100967D01*
G01X140667Y101913D02*
X140375Y102073D01*
X140208Y102287D01*
X140167Y102527D01*
X140208Y102740D01*
X140417Y102953D01*
X140667Y103087D01*
X140917Y103113D01*
X141208Y103060D01*
X141417Y102873D01*
X141500Y102687D01*
Y102447D01*
G01Y102687D02*
X141625Y102847D01*
X141833Y102980D01*
X142083Y103033D01*
X142333Y102980D01*
X142542Y102847D01*
X142667Y102607D01*
X142625Y102367D01*
X142458Y102127D01*
G01X142250Y104193D02*
X142500Y104353D01*
X142625Y104540D01*
X142667Y104753D01*
X142583Y105020D01*
X142375Y105207D01*
X142125Y105260D01*
X141875Y105233D01*
X141667Y105127D01*
X141250Y104593D01*
X140958Y104353D01*
X140542Y104193D01*
X140167Y104140D01*
Y105260D01*
G01X138100Y105700D02*
X136900D01*
G03X136000Y104800I0J-900D01*
G01Y100600D01*
G03X136900Y99700I900J0D01*
G01X138100D01*
G03X139000Y100600I0J900D01*
G01Y104800D01*
G03X138100Y105700I-900J0D01*
G01X128958Y96887D02*
X129083Y96727D01*
X129167Y96540D01*
Y96327D01*
X129042Y96087D01*
X128833Y95900D01*
X128583Y95767D01*
X128167Y95660D01*
X127792Y95633D01*
X127417Y95687D01*
X127167Y95767D01*
X126917Y95927D01*
X126750Y96113D01*
X126667Y96300D01*
Y96487D01*
X126750Y96673D01*
X126875Y96833D01*
X127042Y96967D01*
G01X127167Y97913D02*
X126875Y98073D01*
X126708Y98287D01*
X126667Y98527D01*
X126708Y98740D01*
X126917Y98953D01*
X127167Y99087D01*
X127417Y99113D01*
X127708Y99060D01*
X127917Y98873D01*
X128000Y98687D01*
Y98447D01*
G01Y98687D02*
X128125Y98847D01*
X128333Y98980D01*
X128583Y99033D01*
X128833Y98980D01*
X129042Y98847D01*
X129167Y98607D01*
X129125Y98367D01*
X128958Y98127D01*
G01X129167Y100700D02*
X129083Y100487D01*
X128875Y100327D01*
X128625Y100220D01*
X128292Y100140D01*
X127917Y100113D01*
X127542Y100140D01*
X127208Y100220D01*
X126958Y100327D01*
X126750Y100487D01*
X126667Y100700D01*
X126750Y100913D01*
X126958Y101073D01*
X127208Y101180D01*
X127542Y101260D01*
X127917Y101287D01*
X128292Y101260D01*
X128625Y101180D01*
X128875Y101073D01*
X129083Y100913D01*
X129167Y100700D01*
G01X131400Y95000D02*
X132600D01*
G03X133500Y95900I0J900D01*
G01Y100100D01*
G03X132600Y101000I-900J0D01*
G01X131400D01*
G03X130500Y100100I0J-900D01*
G01Y95900D01*
G03X131400Y95000I900J0D01*
G01X124000Y131500D02*
Y132500D01*
G03X123500Y133000I-500J0D01*
G01X120500D01*
G03X120000Y132500I0J-500D01*
G01Y131500D01*
G03X120500Y131000I500J0D01*
G01X123500D01*
G03X124000Y131500I0J500D01*
G01X106458Y138887D02*
X106583Y138727D01*
X106667Y138540D01*
Y138327D01*
X106542Y138087D01*
X106333Y137900D01*
X106083Y137767D01*
X105667Y137660D01*
X105292Y137633D01*
X104917Y137687D01*
X104667Y137767D01*
X104417Y137927D01*
X104250Y138113D01*
X104167Y138300D01*
Y138487D01*
X104250Y138673D01*
X104375Y138833D01*
X104542Y138967D01*
G01X104167Y140500D02*
X106667D01*
X106167Y140180D01*
G01X104167D02*
Y140820D01*
G01X105208Y142193D02*
X105500Y142380D01*
X105667Y142540D01*
X105750Y142753D01*
X105667Y142940D01*
X105500Y143073D01*
X105250Y143180D01*
X104958Y143207D01*
X104708Y143180D01*
X104458Y143073D01*
X104250Y142913D01*
X104167Y142727D01*
X104250Y142513D01*
X104500Y142327D01*
X104875Y142220D01*
X105292Y142193D01*
X105833Y142247D01*
X106125Y142327D01*
X106417Y142460D01*
X106625Y142647D01*
X106667Y142833D01*
X106583Y143020D01*
X106375Y143153D01*
G01X103000Y142500D02*
X102000D01*
G03X101500Y142000I0J-500D01*
G01Y139000D01*
G03X102000Y138500I500J0D01*
G01X103000D01*
G03X103500Y139000I0J500D01*
G01Y142000D01*
G03X103000Y142500I-500J0D01*
G01X136767Y131267D02*
X139267D01*
Y131933D01*
X139142Y132147D01*
X138975Y132280D01*
X138642Y132333D01*
X138308Y132280D01*
X138100Y132120D01*
X137975Y131933D01*
Y131267D01*
G01Y131933D02*
X136767Y132333D01*
G01Y134320D02*
X139267D01*
X137475Y133333D01*
Y134667D01*
G01X136767Y136200D02*
X139267D01*
X138767Y135880D01*
G01X136767D02*
Y136520D01*
G01X131767Y131267D02*
X134267D01*
Y131933D01*
X134142Y132147D01*
X133975Y132280D01*
X133642Y132333D01*
X133308Y132280D01*
X133100Y132120D01*
X132975Y131933D01*
Y131267D01*
G01Y131933D02*
X131767Y132333D01*
G01Y134320D02*
X134267D01*
X132475Y133333D01*
Y134667D01*
G01X133850Y135693D02*
X134100Y135853D01*
X134225Y136040D01*
X134267Y136253D01*
X134183Y136520D01*
X133975Y136707D01*
X133725Y136760D01*
X133475Y136733D01*
X133267Y136627D01*
X132850Y136093D01*
X132558Y135853D01*
X132142Y135693D01*
X131767Y135640D01*
Y136760D01*
G01X126767Y131267D02*
X129267D01*
Y131933D01*
X129142Y132147D01*
X128975Y132280D01*
X128642Y132333D01*
X128308Y132280D01*
X128100Y132120D01*
X127975Y131933D01*
Y131267D01*
G01Y131933D02*
X126767Y132333D01*
G01Y134320D02*
X129267D01*
X127475Y133333D01*
Y134667D01*
G01X127267Y135613D02*
X126975Y135773D01*
X126808Y135987D01*
X126767Y136227D01*
X126808Y136440D01*
X127017Y136653D01*
X127267Y136787D01*
X127517Y136813D01*
X127808Y136760D01*
X128017Y136573D01*
X128100Y136387D01*
Y136147D01*
G01Y136387D02*
X128225Y136547D01*
X128433Y136680D01*
X128683Y136733D01*
X128933Y136680D01*
X129142Y136547D01*
X129267Y136307D01*
X129225Y136067D01*
X129058Y135827D01*
G01X98500Y143000D02*
X96500D01*
Y139000D01*
X98500D01*
Y143000D01*
G01X103167Y154767D02*
X105667D01*
Y155433D01*
X105542Y155647D01*
X105375Y155780D01*
X105042Y155833D01*
X104708Y155780D01*
X104500Y155620D01*
X104375Y155433D01*
Y154767D01*
G01Y155433D02*
X103167Y155833D01*
G01Y157820D02*
X105667D01*
X103875Y156833D01*
Y158167D01*
G01X103542Y159113D02*
X103333Y159273D01*
X103208Y159460D01*
X103167Y159700D01*
X103250Y159940D01*
X103417Y160127D01*
X103708Y160260D01*
X104042Y160287D01*
X104375Y160233D01*
X104583Y160100D01*
X104750Y159913D01*
X104792Y159727D01*
X104750Y159540D01*
X104583Y159300D01*
X105667Y159380D01*
Y160100D01*
G01X103500Y149500D02*
X105500D01*
Y153500D01*
X103500D01*
Y149500D01*
G01X124333Y142267D02*
Y144767D01*
X123667D01*
X123453Y144642D01*
X123320Y144475D01*
X123267Y144142D01*
X123320Y143808D01*
X123480Y143600D01*
X123667Y143475D01*
X124333D01*
G01X123667D02*
X123267Y142267D01*
G01X121600D02*
Y144767D01*
X121920Y144267D01*
G01Y142267D02*
X121280D01*
G01X119400Y144767D02*
X119613Y144683D01*
X119773Y144475D01*
X119880Y144225D01*
X119960Y143892D01*
X119987Y143517D01*
X119960Y143142D01*
X119880Y142808D01*
X119773Y142558D01*
X119613Y142350D01*
X119400Y142267D01*
X119187Y142350D01*
X119027Y142558D01*
X118920Y142808D01*
X118840Y143142D01*
X118813Y143517D01*
X118840Y143892D01*
X118920Y144225D01*
X119027Y144475D01*
X119187Y144683D01*
X119400Y144767D01*
G01X117200Y142267D02*
Y144767D01*
X117520Y144267D01*
G01Y142267D02*
X116880D01*
G01X109500Y145000D02*
Y142000D01*
X115500D01*
Y145000D01*
X109500D01*
G01X124333Y136767D02*
Y139267D01*
X123667D01*
X123453Y139142D01*
X123320Y138975D01*
X123267Y138642D01*
X123320Y138308D01*
X123480Y138100D01*
X123667Y137975D01*
X124333D01*
G01X123667D02*
X123267Y136767D01*
G01X121600D02*
Y139267D01*
X121920Y138767D01*
G01Y136767D02*
X121280D01*
G01X119400Y139267D02*
X119613Y139183D01*
X119773Y138975D01*
X119880Y138725D01*
X119960Y138392D01*
X119987Y138017D01*
X119960Y137642D01*
X119880Y137308D01*
X119773Y137058D01*
X119613Y136850D01*
X119400Y136767D01*
X119187Y136850D01*
X119027Y137058D01*
X118920Y137308D01*
X118840Y137642D01*
X118813Y138017D01*
X118840Y138392D01*
X118920Y138725D01*
X119027Y138975D01*
X119187Y139183D01*
X119400Y139267D01*
G01X117707Y138850D02*
X117547Y139100D01*
X117360Y139225D01*
X117147Y139267D01*
X116880Y139183D01*
X116693Y138975D01*
X116640Y138725D01*
X116667Y138475D01*
X116773Y138267D01*
X117307Y137850D01*
X117547Y137558D01*
X117707Y137142D01*
X117760Y136767D01*
X116640D01*
G01X109500Y139500D02*
Y136500D01*
X115500D01*
Y139500D01*
X109500D01*
G01X108267Y159667D02*
X110767D01*
Y160333D01*
X110642Y160547D01*
X110475Y160680D01*
X110142Y160733D01*
X109808Y160680D01*
X109600Y160520D01*
X109475Y160333D01*
Y159667D01*
G01Y160333D02*
X108267Y160733D01*
G01Y162400D02*
X110767D01*
X110267Y162080D01*
G01X108267D02*
Y162720D01*
G01X110767Y164600D02*
X110683Y164387D01*
X110475Y164227D01*
X110225Y164120D01*
X109892Y164040D01*
X109517Y164013D01*
X109142Y164040D01*
X108808Y164120D01*
X108558Y164227D01*
X108350Y164387D01*
X108267Y164600D01*
X108350Y164813D01*
X108558Y164973D01*
X108808Y165080D01*
X109142Y165160D01*
X109517Y165187D01*
X109892Y165160D01*
X110225Y165080D01*
X110475Y164973D01*
X110683Y164813D01*
X110767Y164600D01*
G01X108767Y166213D02*
X108475Y166373D01*
X108308Y166587D01*
X108267Y166827D01*
X108308Y167040D01*
X108517Y167253D01*
X108767Y167387D01*
X109017Y167413D01*
X109308Y167360D01*
X109517Y167173D01*
X109600Y166987D01*
Y166747D01*
G01Y166987D02*
X109725Y167147D01*
X109933Y167280D01*
X110183Y167333D01*
X110433Y167280D01*
X110642Y167147D01*
X110767Y166907D01*
X110725Y166667D01*
X110558Y166427D01*
G01X111000Y158500D02*
X108000D01*
Y152500D01*
X111000D01*
Y158500D01*
G01X114267Y159667D02*
X116767D01*
Y160333D01*
X116642Y160547D01*
X116475Y160680D01*
X116142Y160733D01*
X115808Y160680D01*
X115600Y160520D01*
X115475Y160333D01*
Y159667D01*
G01Y160333D02*
X114267Y160733D01*
G01Y162400D02*
X116767D01*
X116267Y162080D01*
G01X114267D02*
Y162720D01*
G01X116767Y164600D02*
X116683Y164387D01*
X116475Y164227D01*
X116225Y164120D01*
X115892Y164040D01*
X115517Y164013D01*
X115142Y164040D01*
X114808Y164120D01*
X114558Y164227D01*
X114350Y164387D01*
X114267Y164600D01*
X114350Y164813D01*
X114558Y164973D01*
X114808Y165080D01*
X115142Y165160D01*
X115517Y165187D01*
X115892Y165160D01*
X116225Y165080D01*
X116475Y164973D01*
X116683Y164813D01*
X116767Y164600D01*
G01X114267Y167120D02*
X116767D01*
X114975Y166133D01*
Y167467D01*
G01X117000Y158500D02*
X114000D01*
Y152500D01*
X117000D01*
Y158500D01*
G01X109187Y130250D02*
Y132750D01*
X108653D01*
X108440Y132625D01*
X108280Y132458D01*
X108147Y132208D01*
X108040Y131917D01*
X108013Y131500D01*
X108040Y131083D01*
X108147Y130792D01*
X108280Y130542D01*
X108440Y130375D01*
X108653Y130250D01*
X109187D01*
G01X106400D02*
Y132750D01*
X106720Y132250D01*
G01Y130250D02*
X106080D01*
G01X101668Y129532D02*
Y133468D01*
G01X99700Y131500D02*
X98519D01*
G01X102850D02*
X101668D01*
X99700Y129532D01*
Y133468D01*
X101668Y131500D01*
G01X104615Y128941D02*
Y134059D01*
X97135D01*
Y128941D01*
X104615D01*
G01X184113Y62458D02*
X184273Y62583D01*
X184460Y62667D01*
X184673D01*
X184913Y62542D01*
X185100Y62333D01*
X185233Y62083D01*
X185340Y61667D01*
X185367Y61292D01*
X185313Y60917D01*
X185233Y60667D01*
X185073Y60417D01*
X184887Y60250D01*
X184700Y60167D01*
X184513D01*
X184327Y60250D01*
X184167Y60375D01*
X184033Y60542D01*
G01X183087Y60667D02*
X182927Y60375D01*
X182713Y60208D01*
X182473Y60167D01*
X182260Y60208D01*
X182047Y60417D01*
X181913Y60667D01*
X181887Y60917D01*
X181940Y61208D01*
X182127Y61417D01*
X182313Y61500D01*
X182553D01*
G01X182313D02*
X182153Y61625D01*
X182020Y61833D01*
X181967Y62083D01*
X182020Y62333D01*
X182153Y62542D01*
X182393Y62667D01*
X182633Y62625D01*
X182873Y62458D01*
G01X180353Y60167D02*
X180300Y60708D01*
X180220Y61167D01*
X180113Y61583D01*
X179980Y62042D01*
X179767Y62667D01*
X180833D01*
G01X185000Y57500D02*
Y58500D01*
G03X184500Y59000I-500J0D01*
G01X181500D01*
G03X181000Y58500I0J-500D01*
G01Y57500D01*
G03X181500Y57000I500J0D01*
G01X184500D01*
G03X185000Y57500I0J500D01*
G01X154333Y71167D02*
Y73667D01*
X153667D01*
X153453Y73542D01*
X153320Y73375D01*
X153267Y73042D01*
X153320Y72708D01*
X153480Y72500D01*
X153667Y72375D01*
X154333D01*
G01X153667D02*
X153267Y71167D01*
G01X151600D02*
Y73667D01*
X151920Y73167D01*
G01Y71167D02*
X151280D01*
G01X149987Y71542D02*
X149827Y71333D01*
X149640Y71208D01*
X149400Y71167D01*
X149160Y71250D01*
X148973Y71416D01*
X148840Y71708D01*
X148813Y72042D01*
X148867Y72375D01*
X149000Y72583D01*
X149187Y72750D01*
X149373Y72792D01*
X149560Y72750D01*
X149800Y72583D01*
X149720Y73667D01*
X149000D01*
G01X147787Y71542D02*
X147627Y71333D01*
X147440Y71208D01*
X147200Y71167D01*
X146960Y71250D01*
X146773Y71416D01*
X146640Y71708D01*
X146613Y72042D01*
X146667Y72375D01*
X146800Y72583D01*
X146987Y72750D01*
X147173Y72792D01*
X147360Y72750D01*
X147600Y72583D01*
X147520Y73667D01*
X146800D01*
G01X141500Y73000D02*
Y71000D01*
X145500D01*
Y73000D01*
X141500D01*
G01X147667Y57667D02*
X150167D01*
Y58333D01*
X150042Y58547D01*
X149875Y58680D01*
X149542Y58733D01*
X149208Y58680D01*
X149000Y58520D01*
X148875Y58333D01*
Y57667D01*
G01Y58333D02*
X147667Y58733D01*
G01Y60400D02*
X150167D01*
X149667Y60080D01*
G01X147667D02*
Y60720D01*
G01X148042Y62013D02*
X147833Y62173D01*
X147708Y62360D01*
X147667Y62600D01*
X147750Y62840D01*
X147917Y63027D01*
X148208Y63160D01*
X148542Y63187D01*
X148875Y63133D01*
X149083Y63000D01*
X149250Y62813D01*
X149292Y62627D01*
X149250Y62440D01*
X149083Y62200D01*
X150167Y62280D01*
Y63000D01*
G01X148708Y64293D02*
X149000Y64480D01*
X149167Y64640D01*
X149250Y64853D01*
X149167Y65040D01*
X149000Y65173D01*
X148750Y65280D01*
X148458Y65307D01*
X148208Y65280D01*
X147958Y65173D01*
X147750Y65013D01*
X147667Y64827D01*
X147750Y64613D01*
X148000Y64427D01*
X148375Y64320D01*
X148792Y64293D01*
X149333Y64347D01*
X149625Y64427D01*
X149917Y64560D01*
X150125Y64747D01*
X150167Y64933D01*
X150083Y65120D01*
X149875Y65253D01*
G01X144000Y57500D02*
X146000D01*
Y61500D01*
X144000D01*
Y57500D01*
G01X150113Y91542D02*
X150273Y91667D01*
X150460Y91750D01*
X150673D01*
X150913Y91625D01*
X151100Y91417D01*
X151233Y91167D01*
X151340Y90750D01*
X151367Y90375D01*
X151313Y90000D01*
X151233Y89750D01*
X151073Y89500D01*
X150887Y89333D01*
X150700Y89250D01*
X150513D01*
X150327Y89333D01*
X150167Y89458D01*
X150033Y89625D01*
G01X149087Y89750D02*
X148927Y89458D01*
X148713Y89292D01*
X148473Y89250D01*
X148260Y89292D01*
X148047Y89500D01*
X147913Y89750D01*
X147887Y90000D01*
X147940Y90292D01*
X148127Y90500D01*
X148313Y90583D01*
X148553D01*
G01X148313D02*
X148153Y90708D01*
X148020Y90917D01*
X147967Y91167D01*
X148020Y91417D01*
X148153Y91625D01*
X148393Y91750D01*
X148633Y91708D01*
X148873Y91542D01*
G01X146807Y90292D02*
X146620Y90583D01*
X146460Y90750D01*
X146247Y90833D01*
X146060Y90750D01*
X145927Y90583D01*
X145820Y90333D01*
X145793Y90042D01*
X145820Y89792D01*
X145927Y89542D01*
X146087Y89333D01*
X146273Y89250D01*
X146487Y89333D01*
X146673Y89583D01*
X146780Y89958D01*
X146807Y90375D01*
X146753Y90917D01*
X146673Y91208D01*
X146540Y91500D01*
X146353Y91708D01*
X146167Y91750D01*
X145980Y91667D01*
X145847Y91458D01*
G01X145000Y90000D02*
Y91000D01*
G03X144500Y91500I-500J0D01*
G01X141500D01*
G03X141000Y91000I0J-500D01*
G01Y90000D01*
G03X141500Y89500I500J0D01*
G01X144500D01*
G03X145000Y90000I0J500D01*
G01X171958Y122887D02*
X172083Y122727D01*
X172167Y122540D01*
Y122327D01*
X172042Y122087D01*
X171833Y121900D01*
X171583Y121767D01*
X171167Y121660D01*
X170792Y121633D01*
X170417Y121687D01*
X170167Y121767D01*
X169916Y121927D01*
X169750Y122113D01*
X169667Y122300D01*
Y122487D01*
X169750Y122673D01*
X169875Y122833D01*
X170042Y122967D01*
G01X169667Y124500D02*
X169708Y124687D01*
X169833Y124900D01*
X170042Y125033D01*
X170333Y125087D01*
X170625Y125033D01*
X170875Y124873D01*
X171000Y124633D01*
Y124367D01*
X171083Y124207D01*
X171292Y124073D01*
X171583Y124020D01*
X171875Y124100D01*
X172083Y124287D01*
X172167Y124500D01*
X172083Y124713D01*
X171875Y124900D01*
X171583Y124980D01*
X171292Y124927D01*
X171083Y124793D01*
X171000Y124633D01*
Y124367D01*
X170875Y124127D01*
X170625Y123967D01*
X170333Y123913D01*
X170042Y123967D01*
X169833Y124100D01*
X169708Y124313D01*
X169667Y124500D01*
G01X171750Y126193D02*
X172000Y126353D01*
X172125Y126540D01*
X172167Y126753D01*
X172083Y127020D01*
X171875Y127207D01*
X171625Y127260D01*
X171375Y127233D01*
X171167Y127127D01*
X170750Y126593D01*
X170458Y126353D01*
X170042Y126193D01*
X169667Y126140D01*
Y127260D01*
G01X144000Y130000D02*
X142000D01*
Y126000D01*
X144000D01*
Y130000D01*
G01X164267Y118767D02*
X166767D01*
Y119433D01*
X166642Y119647D01*
X166475Y119780D01*
X166142Y119833D01*
X165808Y119780D01*
X165600Y119620D01*
X165475Y119433D01*
Y118767D01*
G01Y119433D02*
X164267Y119833D01*
G01X166350Y120993D02*
X166600Y121153D01*
X166725Y121340D01*
X166767Y121553D01*
X166683Y121820D01*
X166475Y122007D01*
X166225Y122060D01*
X165975Y122033D01*
X165767Y121927D01*
X165350Y121393D01*
X165058Y121153D01*
X164642Y120993D01*
X164267Y120940D01*
Y122060D01*
G01X164558Y123247D02*
X164350Y123433D01*
X164267Y123647D01*
X164350Y123860D01*
X164600Y124047D01*
X164975Y124180D01*
X165350Y124233D01*
X165808D01*
X166183Y124180D01*
X166517Y124047D01*
X166683Y123887D01*
X166767Y123700D01*
X166683Y123487D01*
X166517Y123327D01*
X166267Y123220D01*
X165933Y123167D01*
X165642Y123220D01*
X165350Y123353D01*
X165183Y123513D01*
X165142Y123700D01*
X165225Y123913D01*
X165433Y124073D01*
X165808Y124233D01*
G01X164500Y125500D02*
X166500D01*
Y129500D01*
X164500D01*
Y125500D01*
G01X159767Y118767D02*
X162267D01*
Y119433D01*
X162142Y119647D01*
X161975Y119780D01*
X161642Y119833D01*
X161308Y119780D01*
X161100Y119620D01*
X160975Y119433D01*
Y118767D01*
G01Y119433D02*
X159767Y119833D01*
G01X161850Y120993D02*
X162100Y121153D01*
X162225Y121340D01*
X162267Y121553D01*
X162183Y121820D01*
X161975Y122007D01*
X161725Y122060D01*
X161475Y122033D01*
X161267Y121927D01*
X160850Y121393D01*
X160558Y121153D01*
X160142Y120993D01*
X159767Y120940D01*
Y122060D01*
G01Y123647D02*
X160308Y123700D01*
X160767Y123780D01*
X161183Y123887D01*
X161642Y124020D01*
X162267Y124233D01*
Y123167D01*
G01X160000Y125500D02*
X162000D01*
Y129500D01*
X160000D01*
Y125500D01*
G01X161458Y99887D02*
X161583Y99727D01*
X161667Y99540D01*
Y99327D01*
X161542Y99087D01*
X161333Y98900D01*
X161083Y98767D01*
X160667Y98660D01*
X160292Y98633D01*
X159917Y98687D01*
X159667Y98767D01*
X159417Y98927D01*
X159250Y99113D01*
X159167Y99300D01*
Y99487D01*
X159250Y99673D01*
X159375Y99833D01*
X159542Y99967D01*
G01X159667Y100913D02*
X159375Y101073D01*
X159208Y101287D01*
X159167Y101527D01*
X159208Y101740D01*
X159417Y101953D01*
X159667Y102087D01*
X159917Y102113D01*
X160208Y102060D01*
X160417Y101873D01*
X160500Y101687D01*
Y101447D01*
G01Y101687D02*
X160625Y101847D01*
X160833Y101980D01*
X161083Y102033D01*
X161333Y101980D01*
X161542Y101847D01*
X161667Y101607D01*
X161625Y101367D01*
X161458Y101127D01*
G01X159167Y103700D02*
X161667D01*
X161167Y103380D01*
G01X159167D02*
Y104020D01*
G01X165100Y104000D02*
X163900D01*
G03X163000Y103100I0J-900D01*
G01Y98900D01*
G03X163900Y98000I900J0D01*
G01X165100D01*
G03X166000Y98900I0J900D01*
G01Y103100D01*
G03X165100Y104000I-900J0D01*
G01X153613Y95958D02*
X153773Y96083D01*
X153960Y96167D01*
X154173D01*
X154413Y96042D01*
X154600Y95833D01*
X154733Y95583D01*
X154840Y95167D01*
X154867Y94792D01*
X154813Y94417D01*
X154733Y94167D01*
X154573Y93917D01*
X154387Y93750D01*
X154200Y93667D01*
X154013D01*
X153827Y93750D01*
X153667Y93875D01*
X153533Y94042D01*
G01X152587Y94167D02*
X152427Y93875D01*
X152213Y93708D01*
X151973Y93667D01*
X151760Y93708D01*
X151547Y93917D01*
X151413Y94167D01*
X151387Y94417D01*
X151440Y94708D01*
X151627Y94917D01*
X151813Y95000D01*
X152053D01*
G01X151813D02*
X151653Y95125D01*
X151520Y95333D01*
X151467Y95583D01*
X151520Y95833D01*
X151653Y96042D01*
X151893Y96167D01*
X152133Y96125D01*
X152373Y95958D01*
G01X150387Y94167D02*
X150227Y93875D01*
X150013Y93708D01*
X149773Y93667D01*
X149560Y93708D01*
X149347Y93917D01*
X149213Y94167D01*
X149187Y94417D01*
X149240Y94708D01*
X149427Y94917D01*
X149613Y95000D01*
X149853D01*
G01X149613D02*
X149453Y95125D01*
X149320Y95333D01*
X149267Y95583D01*
X149320Y95833D01*
X149453Y96042D01*
X149693Y96167D01*
X149933Y96125D01*
X150173Y95958D01*
G01X148000Y94400D02*
Y95600D01*
G03X147100Y96500I-900J0D01*
G01X142900D01*
G03X142000Y95600I0J-900D01*
G01Y94400D01*
G03X142900Y93500I900J0D01*
G01X147100D01*
G03X148000Y94400I0J900D01*
G01X179058Y97387D02*
X179183Y97227D01*
X179267Y97040D01*
Y96827D01*
X179142Y96587D01*
X178933Y96400D01*
X178683Y96267D01*
X178267Y96160D01*
X177892Y96133D01*
X177517Y96187D01*
X177267Y96267D01*
X177017Y96427D01*
X176850Y96613D01*
X176767Y96800D01*
Y96987D01*
X176850Y97173D01*
X176975Y97333D01*
X177142Y97467D01*
G01X176767Y99320D02*
X179267D01*
X177475Y98333D01*
Y99667D01*
G01X177808Y100693D02*
X178100Y100880D01*
X178267Y101040D01*
X178350Y101253D01*
X178267Y101440D01*
X178100Y101573D01*
X177850Y101680D01*
X177558Y101707D01*
X177308Y101680D01*
X177058Y101573D01*
X176850Y101413D01*
X176767Y101227D01*
X176850Y101013D01*
X177100Y100827D01*
X177475Y100720D01*
X177892Y100693D01*
X178433Y100747D01*
X178725Y100827D01*
X179017Y100960D01*
X179225Y101147D01*
X179267Y101333D01*
X179183Y101520D01*
X178975Y101653D01*
G01X176500Y95000D02*
X179500D01*
G03X180500Y96000I0J1000D01*
G01Y102000D01*
G03X179500Y103000I-1000J0D01*
G01X176500D01*
G03X175500Y102000I0J-1000D01*
G01Y96000D01*
G03X176500Y95000I1000J0D01*
G01X184000D02*
X189000D01*
Y103000D01*
X184000D01*
Y94800D01*
G01X177267Y114267D02*
X179767D01*
Y114933D01*
X179642Y115147D01*
X179475Y115280D01*
X179142Y115333D01*
X178808Y115280D01*
X178600Y115120D01*
X178475Y114933D01*
Y114267D01*
G01Y114933D02*
X177267Y115333D01*
G01X178308Y116493D02*
X178600Y116680D01*
X178767Y116840D01*
X178850Y117053D01*
X178767Y117240D01*
X178600Y117373D01*
X178350Y117480D01*
X178058Y117507D01*
X177808Y117480D01*
X177558Y117373D01*
X177350Y117213D01*
X177267Y117027D01*
X177350Y116813D01*
X177600Y116627D01*
X177975Y116520D01*
X178392Y116493D01*
X178933Y116547D01*
X179225Y116627D01*
X179517Y116760D01*
X179725Y116947D01*
X179767Y117133D01*
X179683Y117320D01*
X179475Y117453D01*
G01X178308Y118693D02*
X178600Y118880D01*
X178767Y119040D01*
X178850Y119253D01*
X178767Y119440D01*
X178600Y119573D01*
X178350Y119680D01*
X178058Y119707D01*
X177808Y119680D01*
X177558Y119573D01*
X177350Y119413D01*
X177267Y119227D01*
X177350Y119013D01*
X177600Y118827D01*
X177975Y118720D01*
X178392Y118693D01*
X178933Y118747D01*
X179225Y118827D01*
X179517Y118960D01*
X179725Y119147D01*
X179767Y119333D01*
X179683Y119520D01*
X179475Y119653D01*
G01X176000Y113000D02*
X181000D01*
Y121000D01*
X176000D01*
Y112800D01*
G01X152113Y137058D02*
X152273Y137183D01*
X152460Y137267D01*
X152673D01*
X152913Y137142D01*
X153100Y136933D01*
X153233Y136683D01*
X153340Y136267D01*
X153367Y135892D01*
X153313Y135517D01*
X153233Y135267D01*
X153073Y135017D01*
X152887Y134850D01*
X152700Y134767D01*
X152513D01*
X152327Y134850D01*
X152167Y134975D01*
X152033Y135142D01*
G01X150553Y134767D02*
X150500Y135308D01*
X150420Y135767D01*
X150313Y136183D01*
X150180Y136642D01*
X149967Y137267D01*
X151033D01*
G01X148353Y134767D02*
X148300Y135308D01*
X148220Y135767D01*
X148113Y136183D01*
X147980Y136642D01*
X147767Y137267D01*
X148833D01*
G01X154500Y136500D02*
Y135500D01*
G03X155000Y135000I500J0D01*
G01X158000D01*
G03X158500Y135500I0J500D01*
G01Y136500D01*
G03X158000Y137000I-500J0D01*
G01X155000D01*
G03X154500Y136500I0J-500D01*
G01X171613Y144558D02*
X171773Y144683D01*
X171960Y144767D01*
X172173D01*
X172413Y144642D01*
X172600Y144433D01*
X172733Y144183D01*
X172840Y143767D01*
X172867Y143392D01*
X172813Y143017D01*
X172733Y142767D01*
X172573Y142517D01*
X172387Y142350D01*
X172200Y142267D01*
X172013D01*
X171827Y142350D01*
X171667Y142475D01*
X171533Y142642D01*
G01X170053Y142267D02*
X170000Y142808D01*
X169920Y143267D01*
X169813Y143683D01*
X169680Y144142D01*
X169467Y144767D01*
X170533D01*
G01X167800Y142267D02*
X167613Y142308D01*
X167400Y142433D01*
X167267Y142642D01*
X167213Y142933D01*
X167267Y143225D01*
X167427Y143475D01*
X167667Y143600D01*
X167933D01*
X168093Y143683D01*
X168227Y143892D01*
X168280Y144183D01*
X168200Y144475D01*
X168013Y144683D01*
X167800Y144767D01*
X167587Y144683D01*
X167400Y144475D01*
X167320Y144183D01*
X167373Y143892D01*
X167507Y143683D01*
X167667Y143600D01*
X167933D01*
X168173Y143475D01*
X168333Y143225D01*
X168387Y142933D01*
X168333Y142642D01*
X168200Y142433D01*
X167987Y142308D01*
X167800Y142267D01*
G01X166000Y143000D02*
Y144000D01*
G03X165500Y144500I-500J0D01*
G01X162500D01*
G03X162000Y144000I0J-500D01*
G01Y143000D01*
G03X162500Y142500I500J0D01*
G01X165500D01*
G03X166000Y143000I0J500D01*
G01X171113Y155558D02*
X171273Y155683D01*
X171460Y155767D01*
X171673D01*
X171913Y155642D01*
X172100Y155433D01*
X172233Y155183D01*
X172340Y154767D01*
X172367Y154392D01*
X172313Y154017D01*
X172233Y153767D01*
X172073Y153517D01*
X171887Y153350D01*
X171700Y153267D01*
X171513D01*
X171327Y153350D01*
X171167Y153475D01*
X171033Y153642D01*
G01X169553Y153267D02*
X169500Y153808D01*
X169420Y154267D01*
X169313Y154683D01*
X169180Y155142D01*
X168967Y155767D01*
X170033D01*
G01X167753Y153558D02*
X167567Y153350D01*
X167353Y153267D01*
X167140Y153350D01*
X166953Y153600D01*
X166820Y153975D01*
X166767Y154350D01*
Y154808D01*
X166820Y155183D01*
X166953Y155517D01*
X167113Y155683D01*
X167300Y155767D01*
X167513Y155683D01*
X167673Y155517D01*
X167780Y155267D01*
X167833Y154933D01*
X167780Y154642D01*
X167647Y154350D01*
X167487Y154183D01*
X167300Y154142D01*
X167087Y154225D01*
X166927Y154433D01*
X166767Y154808D01*
G01X165500Y154000D02*
Y155000D01*
G03X165000Y155500I-500J0D01*
G01X162000D01*
G03X161500Y155000I0J-500D01*
G01Y154000D01*
G03X162000Y153500I500J0D01*
G01X165000D01*
G03X165500Y154000I0J500D01*
G01X149613Y141258D02*
X149773Y141383D01*
X149960Y141467D01*
X150173D01*
X150413Y141342D01*
X150600Y141133D01*
X150733Y140883D01*
X150840Y140467D01*
X150867Y140092D01*
X150813Y139717D01*
X150733Y139467D01*
X150573Y139217D01*
X150387Y139050D01*
X150200Y138967D01*
X150013D01*
X149827Y139050D01*
X149667Y139175D01*
X149533Y139342D01*
G01X148000Y138967D02*
X147813Y139008D01*
X147600Y139133D01*
X147467Y139342D01*
X147413Y139633D01*
X147467Y139925D01*
X147627Y140175D01*
X147867Y140300D01*
X148133D01*
X148293Y140383D01*
X148427Y140592D01*
X148480Y140883D01*
X148400Y141175D01*
X148213Y141383D01*
X148000Y141467D01*
X147787Y141383D01*
X147600Y141175D01*
X147520Y140883D01*
X147573Y140592D01*
X147707Y140383D01*
X147867Y140300D01*
X148133D01*
X148373Y140175D01*
X148533Y139925D01*
X148587Y139633D01*
X148533Y139342D01*
X148400Y139133D01*
X148187Y139008D01*
X148000Y138967D01*
G01X145800Y141467D02*
X146013Y141383D01*
X146173Y141175D01*
X146280Y140925D01*
X146360Y140592D01*
X146387Y140217D01*
X146360Y139842D01*
X146280Y139508D01*
X146173Y139258D01*
X146013Y139050D01*
X145800Y138967D01*
X145587Y139050D01*
X145427Y139258D01*
X145320Y139508D01*
X145240Y139842D01*
X145213Y140217D01*
X145240Y140592D01*
X145320Y140925D01*
X145427Y141175D01*
X145587Y141383D01*
X145800Y141467D01*
G01X152000Y140700D02*
Y139700D01*
G03X152500Y139200I500J0D01*
G01X155500D01*
G03X156000Y139700I0J500D01*
G01Y140700D01*
G03X155500Y141200I-500J0D01*
G01X152500D01*
G03X152000Y140700I0J-500D01*
G01X171613Y150058D02*
X171773Y150183D01*
X171960Y150267D01*
X172173D01*
X172413Y150142D01*
X172600Y149933D01*
X172733Y149683D01*
X172840Y149267D01*
X172867Y148892D01*
X172813Y148517D01*
X172733Y148267D01*
X172573Y148017D01*
X172387Y147850D01*
X172200Y147767D01*
X172013D01*
X171827Y147850D01*
X171667Y147975D01*
X171533Y148142D01*
G01X170000Y147767D02*
X169813Y147808D01*
X169600Y147933D01*
X169467Y148142D01*
X169413Y148433D01*
X169467Y148725D01*
X169627Y148975D01*
X169867Y149100D01*
X170133D01*
X170293Y149183D01*
X170427Y149392D01*
X170480Y149683D01*
X170400Y149975D01*
X170213Y150183D01*
X170000Y150267D01*
X169787Y150183D01*
X169600Y149975D01*
X169520Y149683D01*
X169573Y149392D01*
X169707Y149183D01*
X169867Y149100D01*
X170133D01*
X170373Y148975D01*
X170533Y148725D01*
X170587Y148433D01*
X170533Y148142D01*
X170400Y147933D01*
X170187Y147808D01*
X170000Y147767D01*
G01X167800D02*
Y150267D01*
X168120Y149767D01*
G01Y147767D02*
X167480D01*
G01X166000Y148500D02*
Y149500D01*
G03X165500Y150000I-500J0D01*
G01X162500D01*
G03X162000Y149500I0J-500D01*
G01Y148500D01*
G03X162500Y148000I500J0D01*
G01X165500D01*
G03X166000Y148500I0J500D01*
G01X170500Y128500D02*
X171500D01*
G03X172000Y129000I0J500D01*
G01Y132000D01*
G03X171500Y132500I-500J0D01*
G01X170500D01*
G03X170000Y132000I0J-500D01*
G01Y129000D01*
G03X170500Y128500I500J0D01*
G01X171613Y140458D02*
X171773Y140583D01*
X171960Y140667D01*
X172173D01*
X172413Y140542D01*
X172600Y140333D01*
X172733Y140083D01*
X172840Y139667D01*
X172867Y139292D01*
X172813Y138917D01*
X172733Y138667D01*
X172573Y138417D01*
X172387Y138250D01*
X172200Y138167D01*
X172013D01*
X171827Y138250D01*
X171667Y138375D01*
X171533Y138542D01*
G01X170000Y138167D02*
X169813Y138208D01*
X169600Y138333D01*
X169467Y138542D01*
X169413Y138833D01*
X169467Y139125D01*
X169627Y139375D01*
X169867Y139500D01*
X170133D01*
X170293Y139583D01*
X170427Y139792D01*
X170480Y140083D01*
X170400Y140375D01*
X170213Y140583D01*
X170000Y140667D01*
X169787Y140583D01*
X169600Y140375D01*
X169520Y140083D01*
X169573Y139792D01*
X169707Y139583D01*
X169867Y139500D01*
X170133D01*
X170373Y139375D01*
X170533Y139125D01*
X170587Y138833D01*
X170533Y138542D01*
X170400Y138333D01*
X170187Y138208D01*
X170000Y138167D01*
G01X168387Y138667D02*
X168227Y138375D01*
X168013Y138208D01*
X167773Y138167D01*
X167560Y138208D01*
X167347Y138417D01*
X167213Y138667D01*
X167187Y138917D01*
X167240Y139208D01*
X167427Y139417D01*
X167613Y139500D01*
X167853D01*
G01X167613D02*
X167453Y139625D01*
X167320Y139833D01*
X167267Y140083D01*
X167320Y140333D01*
X167453Y140542D01*
X167693Y140667D01*
X167933Y140625D01*
X168173Y140458D01*
G01X166000Y139000D02*
Y140000D01*
G03X165500Y140500I-500J0D01*
G01X162500D01*
G03X162000Y140000I0J-500D01*
G01Y139000D01*
G03X162500Y138500I500J0D01*
G01X165500D01*
G03X166000Y139000I0J500D01*
G01X141767Y131267D02*
X144267D01*
Y131933D01*
X144142Y132147D01*
X143975Y132280D01*
X143642Y132333D01*
X143308Y132280D01*
X143100Y132120D01*
X142975Y131933D01*
Y131267D01*
G01Y131933D02*
X141767Y132333D01*
G01Y134320D02*
X144267D01*
X142475Y133333D01*
Y134667D01*
G01X141767Y136520D02*
X144267D01*
X142475Y135533D01*
Y136867D01*
G01X178733Y165667D02*
Y168167D01*
X178067D01*
X177853Y168042D01*
X177720Y167875D01*
X177667Y167542D01*
X177720Y167208D01*
X177880Y167000D01*
X178067Y166875D01*
X178733D01*
G01X178067D02*
X177667Y165667D01*
G01X176587Y166042D02*
X176427Y165833D01*
X176240Y165708D01*
X176000Y165667D01*
X175760Y165750D01*
X175573Y165917D01*
X175440Y166208D01*
X175413Y166542D01*
X175467Y166875D01*
X175600Y167083D01*
X175787Y167250D01*
X175973Y167292D01*
X176160Y167250D01*
X176400Y167083D01*
X176320Y168167D01*
X175600D01*
G01X174307Y167750D02*
X174147Y168000D01*
X173960Y168125D01*
X173747Y168167D01*
X173480Y168083D01*
X173293Y167875D01*
X173240Y167625D01*
X173267Y167375D01*
X173373Y167167D01*
X173907Y166750D01*
X174147Y166458D01*
X174307Y166042D01*
X174360Y165667D01*
X173240D01*
G01X178500Y162500D02*
Y164500D01*
X174500D01*
Y162500D01*
X178500D01*
G01X177767Y136713D02*
X175975D01*
X175600Y136820D01*
X175350Y137033D01*
X175267Y137300D01*
X175350Y137567D01*
X175600Y137780D01*
X175975Y137887D01*
X177767D01*
G01X177350Y138993D02*
X177600Y139153D01*
X177725Y139340D01*
X177767Y139553D01*
X177683Y139820D01*
X177475Y140007D01*
X177225Y140060D01*
X176975Y140033D01*
X176767Y139927D01*
X176350Y139393D01*
X176058Y139153D01*
X175642Y138993D01*
X175267Y138940D01*
Y140060D01*
G01X176308Y141193D02*
X176600Y141380D01*
X176767Y141540D01*
X176850Y141753D01*
X176767Y141940D01*
X176600Y142073D01*
X176350Y142180D01*
X176058Y142207D01*
X175808Y142180D01*
X175558Y142073D01*
X175350Y141913D01*
X175267Y141727D01*
X175350Y141513D01*
X175600Y141327D01*
X175975Y141220D01*
X176392Y141193D01*
X176933Y141247D01*
X177225Y141327D01*
X177517Y141460D01*
X177725Y141647D01*
X177767Y141833D01*
X177683Y142020D01*
X177475Y142153D01*
G01X178468Y144421D02*
Y134579D01*
X174532D01*
Y144421D01*
X178468D01*
G01X178363Y143437D02*
G03I-564J0D01*
G01X177767Y151213D02*
X175975D01*
X175600Y151320D01*
X175350Y151533D01*
X175267Y151800D01*
X175350Y152067D01*
X175600Y152280D01*
X175975Y152387D01*
X177767D01*
G01X177350Y153493D02*
X177600Y153653D01*
X177725Y153840D01*
X177767Y154053D01*
X177683Y154320D01*
X177475Y154507D01*
X177225Y154560D01*
X176975Y154533D01*
X176767Y154427D01*
X176350Y153893D01*
X176058Y153653D01*
X175642Y153493D01*
X175267Y153440D01*
Y154560D01*
G01X175642Y155613D02*
X175433Y155773D01*
X175308Y155960D01*
X175267Y156200D01*
X175350Y156440D01*
X175517Y156627D01*
X175808Y156760D01*
X176142Y156787D01*
X176475Y156733D01*
X176683Y156600D01*
X176850Y156413D01*
X176892Y156227D01*
X176850Y156040D01*
X176683Y155800D01*
X177767Y155880D01*
Y156600D01*
G01X178468Y158921D02*
Y149079D01*
X174532D01*
Y158921D01*
X178468D01*
G01X178363Y157937D02*
G03I-564J0D01*
G01X188113Y188458D02*
X188273Y188583D01*
X188460Y188667D01*
X188673D01*
X188913Y188542D01*
X189100Y188333D01*
X189233Y188083D01*
X189340Y187667D01*
X189367Y187292D01*
X189313Y186917D01*
X189233Y186667D01*
X189073Y186416D01*
X188887Y186250D01*
X188700Y186167D01*
X188513D01*
X188327Y186250D01*
X188167Y186375D01*
X188033Y186542D01*
G01X186553Y186167D02*
X186500Y186708D01*
X186420Y187166D01*
X186313Y187583D01*
X186180Y188042D01*
X185967Y188667D01*
X187033D01*
G01X184807Y187208D02*
X184620Y187500D01*
X184460Y187667D01*
X184247Y187750D01*
X184060Y187667D01*
X183927Y187500D01*
X183820Y187250D01*
X183793Y186958D01*
X183820Y186708D01*
X183927Y186458D01*
X184087Y186250D01*
X184273Y186167D01*
X184487Y186250D01*
X184673Y186500D01*
X184780Y186875D01*
X184807Y187292D01*
X184753Y187833D01*
X184673Y188125D01*
X184540Y188417D01*
X184353Y188625D01*
X184167Y188667D01*
X183980Y188583D01*
X183847Y188375D01*
G01X183500Y184100D02*
Y182900D01*
G03X184400Y182000I900J0D01*
G01X188600D01*
G03X189500Y182900I0J900D01*
G01Y184100D01*
G03X188600Y185000I-900J0D01*
G01X184400D01*
G03X183500Y184100I0J-900D01*
G01X168750Y201267D02*
X171250D01*
Y201933D01*
X171125Y202147D01*
X170958Y202280D01*
X170625Y202333D01*
X170292Y202280D01*
X170083Y202120D01*
X169958Y201933D01*
Y201267D01*
G01Y201933D02*
X168750Y202333D01*
G01X169792Y203493D02*
X170083Y203680D01*
X170250Y203840D01*
X170333Y204053D01*
X170250Y204240D01*
X170083Y204373D01*
X169833Y204480D01*
X169542Y204507D01*
X169292Y204480D01*
X169042Y204373D01*
X168833Y204213D01*
X168750Y204027D01*
X168833Y203813D01*
X169083Y203627D01*
X169458Y203520D01*
X169875Y203493D01*
X170417Y203547D01*
X170708Y203627D01*
X171000Y203760D01*
X171208Y203947D01*
X171250Y204133D01*
X171167Y204320D01*
X170958Y204453D01*
G01X169125Y205613D02*
X168917Y205773D01*
X168792Y205960D01*
X168750Y206200D01*
X168833Y206440D01*
X169000Y206627D01*
X169292Y206760D01*
X169625Y206787D01*
X169958Y206733D01*
X170167Y206600D01*
X170333Y206413D01*
X170375Y206227D01*
X170333Y206040D01*
X170167Y205800D01*
X171250Y205880D01*
Y206600D01*
G01X167500Y200000D02*
X172500D01*
Y208000D01*
X167500D01*
Y199800D01*
G01X150750Y201267D02*
X153250D01*
Y201933D01*
X153125Y202147D01*
X152958Y202280D01*
X152625Y202333D01*
X152292Y202280D01*
X152083Y202120D01*
X151958Y201933D01*
Y201267D01*
G01Y201933D02*
X150750Y202333D01*
G01X151792Y203493D02*
X152083Y203680D01*
X152250Y203840D01*
X152333Y204053D01*
X152250Y204240D01*
X152083Y204373D01*
X151833Y204480D01*
X151542Y204507D01*
X151292Y204480D01*
X151042Y204373D01*
X150833Y204213D01*
X150750Y204027D01*
X150833Y203813D01*
X151083Y203627D01*
X151458Y203520D01*
X151875Y203493D01*
X152417Y203547D01*
X152708Y203627D01*
X153000Y203760D01*
X153208Y203947D01*
X153250Y204133D01*
X153167Y204320D01*
X152958Y204453D01*
G01X151042Y205747D02*
X150833Y205933D01*
X150750Y206147D01*
X150833Y206360D01*
X151083Y206547D01*
X151458Y206680D01*
X151833Y206733D01*
X152292D01*
X152667Y206680D01*
X153000Y206547D01*
X153167Y206387D01*
X153250Y206200D01*
X153167Y205987D01*
X153000Y205827D01*
X152750Y205720D01*
X152417Y205667D01*
X152125Y205720D01*
X151833Y205853D01*
X151667Y206013D01*
X151625Y206200D01*
X151708Y206413D01*
X151917Y206573D01*
X152292Y206733D01*
G01X149500Y200000D02*
X154500D01*
Y208000D01*
X149500D01*
Y199800D01*
G01X177750Y201267D02*
X180250D01*
Y201933D01*
X180125Y202147D01*
X179958Y202280D01*
X179625Y202333D01*
X179292Y202280D01*
X179083Y202120D01*
X178958Y201933D01*
Y201267D01*
G01Y201933D02*
X177750Y202333D01*
G01X178792Y203493D02*
X179083Y203680D01*
X179250Y203840D01*
X179333Y204053D01*
X179250Y204240D01*
X179083Y204373D01*
X178833Y204480D01*
X178542Y204507D01*
X178292Y204480D01*
X178042Y204373D01*
X177833Y204213D01*
X177750Y204027D01*
X177833Y203813D01*
X178083Y203627D01*
X178458Y203520D01*
X178875Y203493D01*
X179417Y203547D01*
X179708Y203627D01*
X180000Y203760D01*
X180208Y203947D01*
X180250Y204133D01*
X180167Y204320D01*
X179958Y204453D01*
G01X177750Y206200D02*
X177792Y206387D01*
X177917Y206600D01*
X178125Y206733D01*
X178417Y206787D01*
X178708Y206733D01*
X178958Y206573D01*
X179083Y206333D01*
Y206067D01*
X179167Y205907D01*
X179375Y205773D01*
X179667Y205720D01*
X179958Y205800D01*
X180167Y205987D01*
X180250Y206200D01*
X180167Y206413D01*
X179958Y206600D01*
X179667Y206680D01*
X179375Y206627D01*
X179167Y206493D01*
X179083Y206333D01*
Y206067D01*
X178958Y205827D01*
X178708Y205667D01*
X178417Y205613D01*
X178125Y205667D01*
X177917Y205800D01*
X177792Y206013D01*
X177750Y206200D01*
G01X181500Y208000D02*
X176500D01*
Y200000D01*
X181500D01*
Y208200D01*
G01X159750Y201267D02*
X162250D01*
Y201933D01*
X162125Y202147D01*
X161958Y202280D01*
X161625Y202333D01*
X161292Y202280D01*
X161083Y202120D01*
X160958Y201933D01*
Y201267D01*
G01Y201933D02*
X159750Y202333D01*
G01Y203947D02*
X160292Y204000D01*
X160750Y204080D01*
X161167Y204187D01*
X161625Y204320D01*
X162250Y204533D01*
Y203467D01*
G01X160792Y205693D02*
X161083Y205880D01*
X161250Y206040D01*
X161333Y206253D01*
X161250Y206440D01*
X161083Y206573D01*
X160833Y206680D01*
X160542Y206707D01*
X160292Y206680D01*
X160042Y206573D01*
X159833Y206413D01*
X159750Y206227D01*
X159833Y206013D01*
X160083Y205827D01*
X160458Y205720D01*
X160875Y205693D01*
X161417Y205747D01*
X161708Y205827D01*
X162000Y205960D01*
X162208Y206147D01*
X162250Y206333D01*
X162167Y206520D01*
X161958Y206653D01*
G01X163500Y208000D02*
X158500D01*
Y200000D01*
X163500D01*
Y208200D01*
G01X198958Y55387D02*
X199083Y55227D01*
X199167Y55040D01*
Y54827D01*
X199042Y54587D01*
X198833Y54400D01*
X198583Y54267D01*
X198167Y54160D01*
X197792Y54133D01*
X197417Y54187D01*
X197167Y54267D01*
X196917Y54427D01*
X196750Y54613D01*
X196667Y54800D01*
Y54987D01*
X196750Y55173D01*
X196875Y55333D01*
X197042Y55467D01*
G01X197167Y56413D02*
X196875Y56573D01*
X196708Y56787D01*
X196667Y57027D01*
X196708Y57240D01*
X196917Y57453D01*
X197167Y57587D01*
X197417Y57613D01*
X197708Y57560D01*
X197917Y57373D01*
X198000Y57187D01*
Y56947D01*
G01Y57187D02*
X198125Y57347D01*
X198333Y57480D01*
X198583Y57533D01*
X198833Y57480D01*
X199042Y57347D01*
X199167Y57107D01*
X199125Y56867D01*
X198958Y56627D01*
G01X196667Y59200D02*
X196708Y59387D01*
X196833Y59600D01*
X197042Y59733D01*
X197333Y59787D01*
X197625Y59733D01*
X197875Y59573D01*
X198000Y59333D01*
Y59067D01*
X198083Y58907D01*
X198292Y58773D01*
X198583Y58720D01*
X198875Y58800D01*
X199083Y58987D01*
X199167Y59200D01*
X199083Y59413D01*
X198875Y59600D01*
X198583Y59680D01*
X198292Y59627D01*
X198083Y59493D01*
X198000Y59333D01*
Y59067D01*
X197875Y58827D01*
X197625Y58667D01*
X197333Y58613D01*
X197042Y58667D01*
X196833Y58800D01*
X196708Y59013D01*
X196667Y59200D01*
G01X195000Y59000D02*
X194000D01*
G03X193500Y58500I0J-500D01*
G01Y55500D01*
G03X194000Y55000I500J0D01*
G01X195000D01*
G03X195500Y55500I0J500D01*
G01Y58500D01*
G03X195000Y59000I-500J0D01*
G01X193113Y82558D02*
X193273Y82683D01*
X193460Y82767D01*
X193673D01*
X193913Y82642D01*
X194100Y82433D01*
X194233Y82183D01*
X194340Y81767D01*
X194367Y81392D01*
X194313Y81017D01*
X194233Y80767D01*
X194073Y80517D01*
X193887Y80350D01*
X193700Y80267D01*
X193513D01*
X193327Y80350D01*
X193167Y80475D01*
X193033Y80642D01*
G01X191180Y80267D02*
Y82767D01*
X192167Y80975D01*
X190833D01*
G01X189807Y82350D02*
X189647Y82600D01*
X189460Y82725D01*
X189247Y82767D01*
X188980Y82683D01*
X188793Y82475D01*
X188740Y82225D01*
X188767Y81975D01*
X188873Y81767D01*
X189407Y81350D01*
X189647Y81058D01*
X189807Y80642D01*
X189860Y80267D01*
X188740D01*
G01X187500Y83000D02*
Y80000D01*
G03X188500Y79000I1000J0D01*
G01X194500D01*
G03X195500Y80000I0J1000D01*
G01Y83000D01*
G03X194500Y84000I-1000J0D01*
G01X188500D01*
G03X187500Y83000I0J-1000D01*
G01X217733Y124767D02*
Y127267D01*
X217067D01*
X216853Y127142D01*
X216720Y126975D01*
X216667Y126642D01*
X216720Y126308D01*
X216880Y126100D01*
X217067Y125975D01*
X217733D01*
G01X217067D02*
X216667Y124767D01*
G01X214680D02*
Y127267D01*
X215667Y125475D01*
X214333D01*
G01X213307Y125808D02*
X213120Y126100D01*
X212960Y126267D01*
X212747Y126350D01*
X212560Y126267D01*
X212427Y126100D01*
X212320Y125850D01*
X212293Y125558D01*
X212320Y125308D01*
X212427Y125058D01*
X212587Y124850D01*
X212773Y124767D01*
X212987Y124850D01*
X213173Y125100D01*
X213280Y125475D01*
X213307Y125892D01*
X213253Y126433D01*
X213173Y126725D01*
X213040Y127017D01*
X212853Y127225D01*
X212667Y127267D01*
X212480Y127183D01*
X212347Y126975D01*
G01X223000Y125000D02*
Y127000D01*
X219000D01*
Y125000D01*
X223000D01*
G01X217733Y115767D02*
Y118267D01*
X217067D01*
X216853Y118142D01*
X216720Y117975D01*
X216667Y117642D01*
X216720Y117308D01*
X216880Y117100D01*
X217067Y116975D01*
X217733D01*
G01X217067D02*
X216667Y115767D01*
G01X214680D02*
Y118267D01*
X215667Y116475D01*
X214333D01*
G01X212853Y115767D02*
X212800Y116308D01*
X212720Y116767D01*
X212613Y117183D01*
X212480Y117642D01*
X212267Y118267D01*
X213333D01*
G01X223000Y116000D02*
Y118000D01*
X219000D01*
Y116000D01*
X223000D01*
G01X189058Y115387D02*
X189183Y115227D01*
X189267Y115040D01*
Y114827D01*
X189142Y114587D01*
X188933Y114400D01*
X188683Y114267D01*
X188267Y114160D01*
X187892Y114133D01*
X187517Y114187D01*
X187267Y114267D01*
X187017Y114427D01*
X186850Y114613D01*
X186767Y114800D01*
Y114987D01*
X186850Y115173D01*
X186975Y115333D01*
X187142Y115467D01*
G01X186767Y117320D02*
X189267D01*
X187475Y116333D01*
Y117667D01*
G01X186767Y119200D02*
X189267D01*
X188767Y118880D01*
G01X186767D02*
Y119520D01*
G01X189500Y121000D02*
X186500D01*
G03X185500Y120000I0J-1000D01*
G01Y114000D01*
G03X186500Y113000I1000J0D01*
G01X189500D01*
G03X190500Y114000I0J1000D01*
G01Y120000D01*
G03X189500Y121000I-1000J0D01*
G01X196058Y97387D02*
X196183Y97227D01*
X196267Y97040D01*
Y96827D01*
X196142Y96587D01*
X195933Y96400D01*
X195683Y96267D01*
X195267Y96160D01*
X194892Y96133D01*
X194517Y96187D01*
X194267Y96267D01*
X194017Y96427D01*
X193850Y96613D01*
X193767Y96800D01*
Y96987D01*
X193850Y97173D01*
X193975Y97333D01*
X194142Y97467D01*
G01X193767Y99320D02*
X196267D01*
X194475Y98333D01*
Y99667D01*
G01X193767Y101147D02*
X194308Y101200D01*
X194767Y101280D01*
X195183Y101387D01*
X195642Y101520D01*
X196267Y101733D01*
Y100667D01*
G01X193500Y95000D02*
X196500D01*
G03X197500Y96000I0J1000D01*
G01Y102000D01*
G03X196500Y103000I-1000J0D01*
G01X193500D01*
G03X192500Y102000I0J-1000D01*
G01Y96000D01*
G03X193500Y95000I1000J0D01*
G01X220058Y101887D02*
X220183Y101727D01*
X220267Y101540D01*
Y101327D01*
X220142Y101087D01*
X219933Y100900D01*
X219683Y100767D01*
X219267Y100660D01*
X218892Y100633D01*
X218517Y100687D01*
X218267Y100767D01*
X218017Y100927D01*
X217850Y101113D01*
X217767Y101300D01*
Y101487D01*
X217850Y101673D01*
X217975Y101833D01*
X218142Y101967D01*
G01X217767Y103820D02*
X220267D01*
X218475Y102833D01*
Y104167D01*
G01X218267Y105113D02*
X217975Y105273D01*
X217808Y105487D01*
X217767Y105727D01*
X217808Y105940D01*
X218017Y106153D01*
X218267Y106287D01*
X218517Y106313D01*
X218808Y106260D01*
X219017Y106073D01*
X219100Y105887D01*
Y105647D01*
G01Y105887D02*
X219225Y106047D01*
X219433Y106180D01*
X219683Y106233D01*
X219933Y106180D01*
X220142Y106047D01*
X220267Y105807D01*
X220225Y105567D01*
X220058Y105327D01*
G01X220500Y107500D02*
X217500D01*
G03X216500Y106500I0J-1000D01*
G01Y100500D01*
G03X217500Y99500I1000J0D01*
G01X220500D01*
G03X221500Y100500I0J1000D01*
G01Y106500D01*
G03X220500Y107500I-1000J0D01*
G01X185267Y96267D02*
X187767D01*
Y96933D01*
X187642Y97147D01*
X187475Y97280D01*
X187142Y97333D01*
X186808Y97280D01*
X186600Y97120D01*
X186475Y96933D01*
Y96267D01*
G01Y96933D02*
X185267Y97333D01*
G01X187350Y98493D02*
X187600Y98653D01*
X187725Y98840D01*
X187767Y99053D01*
X187683Y99320D01*
X187475Y99507D01*
X187225Y99560D01*
X186975Y99533D01*
X186767Y99427D01*
X186350Y98893D01*
X186058Y98653D01*
X185642Y98493D01*
X185267Y98440D01*
Y99560D01*
G01X185642Y100613D02*
X185433Y100773D01*
X185308Y100960D01*
X185267Y101200D01*
X185350Y101440D01*
X185517Y101627D01*
X185808Y101760D01*
X186142Y101787D01*
X186475Y101733D01*
X186683Y101600D01*
X186850Y101413D01*
X186892Y101227D01*
X186850Y101040D01*
X186683Y100800D01*
X187767Y100880D01*
Y101600D01*
G01X209767Y100793D02*
X212267D01*
Y101807D01*
G01X211058Y101433D02*
Y100793D01*
G01X211100Y103713D02*
X211225Y103820D01*
X211433Y103900D01*
X211725Y103953D01*
X211975Y103900D01*
X212142Y103793D01*
X212267Y103607D01*
Y102887D01*
X209767D01*
Y103767D01*
X209933Y103953D01*
X210183Y104060D01*
X210475Y104113D01*
X210767Y104060D01*
X211017Y103900D01*
X211100Y103713D01*
Y102887D01*
G01X209767Y105700D02*
X212267D01*
X211767Y105380D01*
G01X209767D02*
Y106020D01*
G01X213500Y107500D02*
X208500D01*
Y99500D01*
X213500D01*
Y107700D01*
G01X1570500Y-334569D02*
X-629500D01*
Y1365431D01*
G01X-601075Y-94569D02*
X-608950Y-69569D01*
X-616825Y-94569D01*
G01X-613990Y-85819D02*
X-603910D01*
G01X-611470Y288765D02*
X-612730Y290015D01*
X-613675Y292098D01*
X-614305Y295015D01*
X-613675Y297515D01*
X-612415Y299181D01*
X-610210Y300431D01*
X-601705D01*
Y275431D01*
X-612100D01*
X-614305Y277098D01*
X-615565Y279598D01*
X-616195Y282515D01*
X-615565Y285431D01*
X-613675Y287931D01*
X-611470Y288765D01*
X-601705D01*
G01X-602020Y1135431D02*
Y1160431D01*
X-608320D01*
X-610840Y1159181D01*
X-612730Y1157515D01*
X-614305Y1155015D01*
X-615565Y1152098D01*
X-615880Y1147931D01*
X-615565Y1143764D01*
X-614305Y1140848D01*
X-612730Y1138347D01*
X-610840Y1136681D01*
X-608320Y1135431D01*
X-602020D01*
G01X-629500Y1365431D02*
X1570500D01*
Y-324569D01*
G01X-539373Y-252569D02*
Y-248569D01*
X-540500Y-251902D01*
X-541627Y-248569D01*
Y-252569D01*
G01X-542817D02*
X-543900Y-248569D01*
X-544983Y-252569D01*
G01X-544593Y-251169D02*
X-543207D01*
G01X-548253Y-248902D02*
X-547993Y-248702D01*
X-547690Y-248569D01*
X-547343D01*
X-546953Y-248769D01*
X-546650Y-249102D01*
X-546433Y-249502D01*
X-546260Y-250169D01*
X-546217Y-250769D01*
X-546303Y-251369D01*
X-546433Y-251769D01*
X-546693Y-252169D01*
X-546997Y-252435D01*
X-547300Y-252569D01*
X-547603D01*
X-547907Y-252435D01*
X-548167Y-252235D01*
X-548383Y-251969D01*
G01X-549790Y-252569D02*
Y-248569D01*
G01X-551610D02*
Y-252569D01*
G01Y-250569D02*
X-549790D01*
G01X-556677Y-252569D02*
Y-248569D01*
X-558323D01*
G01X-557717Y-250502D02*
X-556677D01*
G01X-560380Y-248569D02*
X-561420D01*
G01X-560900D02*
Y-252569D01*
G01X-560380D02*
X-561420D01*
G01X-563303D02*
Y-248569D01*
X-565297Y-252569D01*
Y-248569D01*
G01X-567180D02*
X-568220D01*
G01X-567700D02*
Y-252569D01*
G01X-567180D02*
X-568220D01*
G01X-570190Y-252035D02*
X-570537Y-252369D01*
X-570927Y-252569D01*
X-571273D01*
X-571620Y-252369D01*
X-571880Y-252035D01*
X-572010Y-251569D01*
X-571923Y-251102D01*
X-571707Y-250702D01*
X-571317Y-250435D01*
X-570797Y-250302D01*
X-570493Y-250035D01*
X-570363Y-249569D01*
X-570450Y-249102D01*
X-570667Y-248769D01*
X-570970Y-248569D01*
X-571273D01*
X-571577Y-248702D01*
X-571837Y-249035D01*
G01X-573590Y-252569D02*
Y-248569D01*
G01X-575410D02*
Y-252569D01*
G01Y-250569D02*
X-573590D01*
G01X-579500Y1295431D02*
Y-264569D01*
X-59500D01*
G01X-34500D02*
Y-189569D01*
X-579500D01*
Y-264569D01*
X-69500D01*
G01X-503790Y-209035D02*
X-504137Y-209369D01*
X-504527Y-209569D01*
X-504873D01*
X-505220Y-209369D01*
X-505480Y-209035D01*
X-505610Y-208569D01*
X-505523Y-208102D01*
X-505307Y-207702D01*
X-504917Y-207435D01*
X-504397Y-207302D01*
X-504093Y-207035D01*
X-503963Y-206569D01*
X-504050Y-206102D01*
X-504267Y-205769D01*
X-504570Y-205569D01*
X-504873D01*
X-505177Y-205702D01*
X-505437Y-206035D01*
G01X-507233Y-209569D02*
Y-205569D01*
X-508273D01*
X-508620Y-205769D01*
X-508880Y-206235D01*
X-508967Y-206769D01*
X-508880Y-207302D01*
X-508663Y-207702D01*
X-508273Y-207902D01*
X-507233D01*
G01X-512367Y-209569D02*
X-510633D01*
Y-205569D01*
X-512367D01*
G01X-511673Y-207502D02*
X-510633D01*
G01X-515853Y-205902D02*
X-515593Y-205702D01*
X-515290Y-205569D01*
X-514943D01*
X-514553Y-205769D01*
X-514250Y-206102D01*
X-514033Y-206502D01*
X-513860Y-207169D01*
X-513817Y-207769D01*
X-513903Y-208369D01*
X-514033Y-208769D01*
X-514293Y-209169D01*
X-514597Y-209435D01*
X-514900Y-209569D01*
X-515203D01*
X-515507Y-209435D01*
X-515767Y-209235D01*
X-515983Y-208969D01*
G01X-517780Y-205569D02*
X-518820D01*
G01X-518300D02*
Y-209569D01*
G01X-517780D02*
X-518820D01*
G01X-520877D02*
Y-205569D01*
X-522523D01*
G01X-521917Y-207502D02*
X-520877D01*
G01X-524580Y-205569D02*
X-525620D01*
G01X-525100D02*
Y-209569D01*
G01X-524580D02*
X-525620D01*
G01X-529367D02*
X-527633D01*
Y-205569D01*
X-529367D01*
G01X-528673Y-207502D02*
X-527633D01*
G01X-530947Y-209569D02*
Y-205569D01*
X-531813D01*
X-532160Y-205769D01*
X-532420Y-206035D01*
X-532637Y-206435D01*
X-532810Y-206902D01*
X-532853Y-207569D01*
X-532810Y-208235D01*
X-532637Y-208702D01*
X-532420Y-209102D01*
X-532160Y-209369D01*
X-531813Y-209569D01*
X-530947D01*
G01X-537747D02*
Y-205569D01*
X-538613D01*
X-538960Y-205769D01*
X-539220Y-206035D01*
X-539437Y-206435D01*
X-539610Y-206902D01*
X-539653Y-207569D01*
X-539610Y-208235D01*
X-539437Y-208702D01*
X-539220Y-209102D01*
X-538960Y-209369D01*
X-538613Y-209569D01*
X-537747D01*
G01X-541580Y-205569D02*
X-542620D01*
G01X-542100D02*
Y-209569D01*
G01X-541580D02*
X-542620D01*
G01X-544373D02*
Y-205569D01*
X-545500Y-208902D01*
X-546627Y-205569D01*
Y-209569D01*
G01X-549767D02*
X-548033D01*
Y-205569D01*
X-549767D01*
G01X-549073Y-207502D02*
X-548033D01*
G01X-551303Y-209569D02*
Y-205569D01*
X-553297Y-209569D01*
Y-205569D01*
G01X-554790Y-209035D02*
X-555137Y-209369D01*
X-555527Y-209569D01*
X-555873D01*
X-556220Y-209369D01*
X-556480Y-209035D01*
X-556610Y-208569D01*
X-556523Y-208102D01*
X-556307Y-207702D01*
X-555917Y-207435D01*
X-555397Y-207302D01*
X-555093Y-207035D01*
X-554963Y-206569D01*
X-555050Y-206102D01*
X-555267Y-205769D01*
X-555570Y-205569D01*
X-555873D01*
X-556177Y-205702D01*
X-556437Y-206035D01*
G01X-558580Y-205569D02*
X-559620D01*
G01X-559100D02*
Y-209569D01*
G01X-558580D02*
X-559620D01*
G01X-562500D02*
X-562153Y-209502D01*
X-561850Y-209235D01*
X-561590Y-208835D01*
X-561417Y-208369D01*
X-561330Y-207835D01*
Y-207302D01*
X-561417Y-206769D01*
X-561590Y-206302D01*
X-561850Y-205902D01*
X-562153Y-205635D01*
X-562500Y-205569D01*
X-562847Y-205635D01*
X-563150Y-205902D01*
X-563410Y-206302D01*
X-563583Y-206769D01*
X-563670Y-207302D01*
Y-207835D01*
X-563583Y-208369D01*
X-563410Y-208835D01*
X-563150Y-209235D01*
X-562847Y-209502D01*
X-562500Y-209569D01*
G01X-564903D02*
Y-205569D01*
X-566897Y-209569D01*
Y-205569D01*
G01X-568390Y-209035D02*
X-568737Y-209369D01*
X-569127Y-209569D01*
X-569473D01*
X-569820Y-209369D01*
X-570080Y-209035D01*
X-570210Y-208569D01*
X-570123Y-208102D01*
X-569907Y-207702D01*
X-569517Y-207435D01*
X-568997Y-207302D01*
X-568693Y-207035D01*
X-568563Y-206569D01*
X-568650Y-206102D01*
X-568867Y-205769D01*
X-569170Y-205569D01*
X-569473D01*
X-569777Y-205702D01*
X-570037Y-206035D01*
G01X-579500Y95431D02*
X-609500D01*
G01X-579500Y525431D02*
X-609500D01*
G01X-605880Y708348D02*
X-603990Y709598D01*
X-601785Y710431D01*
X-599265D01*
X-596430Y709181D01*
X-594225Y707098D01*
X-592650Y704598D01*
X-591390Y700431D01*
X-591075Y696681D01*
X-591705Y692931D01*
X-592650Y690431D01*
X-594540Y687931D01*
X-596745Y686265D01*
X-598950Y685431D01*
X-601155D01*
X-603360Y686265D01*
X-605250Y687514D01*
X-606825Y689181D01*
G01X-579500Y955431D02*
X-609500D01*
G01X70500Y1235431D02*
X-579500D01*
G01X70500Y1265431D02*
X-579500D01*
G01X1300500Y1295431D02*
X-569500D01*
G01D02*
X-579500D01*
G01X-558347Y-245769D02*
X-558607Y-246235D01*
X-558953Y-246502D01*
X-559343Y-246569D01*
X-559690Y-246502D01*
X-560037Y-246169D01*
X-560253Y-245769D01*
X-560297Y-245369D01*
X-560210Y-244902D01*
X-559907Y-244569D01*
X-559603Y-244435D01*
X-559213D01*
G01X-559603D02*
X-559863Y-244235D01*
X-560080Y-243902D01*
X-560167Y-243502D01*
X-560080Y-243102D01*
X-559863Y-242769D01*
X-559473Y-242569D01*
X-559083Y-242635D01*
X-558693Y-242902D01*
G01X-562700Y-242569D02*
X-562353Y-242702D01*
X-562093Y-243035D01*
X-561920Y-243435D01*
X-561790Y-243969D01*
X-561747Y-244569D01*
X-561790Y-245169D01*
X-561920Y-245702D01*
X-562093Y-246102D01*
X-562353Y-246435D01*
X-562700Y-246569D01*
X-563047Y-246435D01*
X-563307Y-246102D01*
X-563480Y-245702D01*
X-563610Y-245169D01*
X-563653Y-244569D01*
X-563610Y-243969D01*
X-563480Y-243435D01*
X-563307Y-243035D01*
X-563047Y-242702D01*
X-562700Y-242569D01*
G01X-546617Y-240569D02*
X-547700Y-236569D01*
X-548783Y-240569D01*
G01X-548393Y-239169D02*
X-547007D01*
G01X-550103Y-240569D02*
Y-236569D01*
X-552097Y-240569D01*
Y-236569D01*
G01X-554760Y-238569D02*
X-555627D01*
Y-239769D01*
X-555367Y-240169D01*
X-555063Y-240435D01*
X-554630Y-240569D01*
X-554197Y-240435D01*
X-553893Y-240169D01*
X-553633Y-239769D01*
X-553460Y-239302D01*
X-553373Y-238769D01*
Y-238302D01*
X-553460Y-237902D01*
X-553633Y-237435D01*
X-553893Y-237035D01*
X-554153Y-236769D01*
X-554500Y-236569D01*
X-554803D01*
X-555150Y-236702D01*
X-555410Y-236969D01*
G01X-557033Y-236569D02*
Y-240569D01*
X-558767D01*
G01X-562167D02*
X-560433D01*
Y-236569D01*
X-562167D01*
G01X-561473Y-238502D02*
X-560433D01*
G01X-521700Y-228069D02*
Y-232069D01*
G01X-520703Y-228069D02*
X-522697D01*
G01X-525100Y-232069D02*
X-524753Y-232002D01*
X-524450Y-231735D01*
X-524190Y-231335D01*
X-524017Y-230869D01*
X-523930Y-230335D01*
Y-229802D01*
X-524017Y-229269D01*
X-524190Y-228802D01*
X-524450Y-228402D01*
X-524753Y-228135D01*
X-525100Y-228069D01*
X-525447Y-228135D01*
X-525750Y-228402D01*
X-526010Y-228802D01*
X-526183Y-229269D01*
X-526270Y-229802D01*
Y-230335D01*
X-526183Y-230869D01*
X-526010Y-231335D01*
X-525750Y-231735D01*
X-525447Y-232002D01*
X-525100Y-232069D01*
G01X-527633Y-228069D02*
Y-232069D01*
X-529367D01*
G01X-532767D02*
X-531033D01*
Y-228069D01*
X-532767D01*
G01X-532073Y-230002D02*
X-531033D01*
G01X-534433Y-232069D02*
Y-228069D01*
X-535517D01*
X-535863Y-228269D01*
X-536080Y-228535D01*
X-536167Y-229069D01*
X-536080Y-229602D01*
X-535820Y-229935D01*
X-535517Y-230135D01*
X-534433D01*
G01X-535517D02*
X-536167Y-232069D01*
G01X-537617D02*
X-538700Y-228069D01*
X-539783Y-232069D01*
G01X-539393Y-230669D02*
X-538007D01*
G01X-541103Y-232069D02*
Y-228069D01*
X-543097Y-232069D01*
Y-228069D01*
G01X-546453Y-228402D02*
X-546193Y-228202D01*
X-545890Y-228069D01*
X-545543D01*
X-545153Y-228269D01*
X-544850Y-228602D01*
X-544633Y-229002D01*
X-544460Y-229669D01*
X-544417Y-230269D01*
X-544503Y-230869D01*
X-544633Y-231269D01*
X-544893Y-231669D01*
X-545197Y-231935D01*
X-545500Y-232069D01*
X-545803D01*
X-546107Y-231935D01*
X-546367Y-231735D01*
X-546583Y-231469D01*
G01X-549767Y-232069D02*
X-548033D01*
Y-228069D01*
X-549767D01*
G01X-549073Y-230002D02*
X-548033D01*
G01X-551390Y-231535D02*
X-551737Y-231869D01*
X-552127Y-232069D01*
X-552473D01*
X-552820Y-231869D01*
X-553080Y-231535D01*
X-553210Y-231069D01*
X-553123Y-230602D01*
X-552907Y-230202D01*
X-552517Y-229935D01*
X-551997Y-229802D01*
X-551693Y-229535D01*
X-551563Y-229069D01*
X-551650Y-228602D01*
X-551867Y-228269D01*
X-552170Y-228069D01*
X-552473D01*
X-552777Y-228202D01*
X-553037Y-228535D01*
G01X-521800Y-246202D02*
X-521713Y-246135D01*
Y-246002D01*
X-521800Y-245935D01*
X-521887Y-246002D01*
Y-246135D01*
X-521800Y-246202D01*
G01X-525200Y-246069D02*
Y-242069D01*
X-524680Y-242869D01*
G01Y-246069D02*
X-525720D01*
G01X-521800Y-252202D02*
X-521713Y-252135D01*
Y-252002D01*
X-521800Y-251935D01*
X-521887Y-252002D01*
Y-252135D01*
X-521800Y-252202D01*
G01X-525200Y-248069D02*
X-524853Y-248202D01*
X-524593Y-248535D01*
X-524420Y-248935D01*
X-524290Y-249469D01*
X-524247Y-250069D01*
X-524290Y-250669D01*
X-524420Y-251202D01*
X-524593Y-251602D01*
X-524853Y-251935D01*
X-525200Y-252069D01*
X-525547Y-251935D01*
X-525807Y-251602D01*
X-525980Y-251202D01*
X-526110Y-250669D01*
X-526153Y-250069D01*
X-526110Y-249469D01*
X-525980Y-248935D01*
X-525807Y-248535D01*
X-525547Y-248202D01*
X-525200Y-248069D01*
G01X-527647Y-251269D02*
X-527907Y-251735D01*
X-528253Y-252002D01*
X-528643Y-252069D01*
X-528990Y-252002D01*
X-529337Y-251669D01*
X-529553Y-251269D01*
X-529597Y-250869D01*
X-529510Y-250402D01*
X-529207Y-250069D01*
X-528903Y-249935D01*
X-528513D01*
G01X-528903D02*
X-529163Y-249735D01*
X-529380Y-249402D01*
X-529467Y-249002D01*
X-529380Y-248602D01*
X-529163Y-248269D01*
X-528773Y-248069D01*
X-528383Y-248135D01*
X-527993Y-248402D01*
G01X-521800Y-258202D02*
X-521713Y-258135D01*
Y-258002D01*
X-521800Y-257935D01*
X-521887Y-258002D01*
Y-258135D01*
X-521800Y-258202D01*
G01X-525200Y-254069D02*
X-524853Y-254202D01*
X-524593Y-254535D01*
X-524420Y-254935D01*
X-524290Y-255469D01*
X-524247Y-256069D01*
X-524290Y-256669D01*
X-524420Y-257202D01*
X-524593Y-257602D01*
X-524853Y-257935D01*
X-525200Y-258069D01*
X-525547Y-257935D01*
X-525807Y-257602D01*
X-525980Y-257202D01*
X-526110Y-256669D01*
X-526153Y-256069D01*
X-526110Y-255469D01*
X-525980Y-254935D01*
X-525807Y-254535D01*
X-525547Y-254202D01*
X-525200Y-254069D01*
G01X-528600Y-258069D02*
Y-254069D01*
X-528080Y-254869D01*
G01Y-258069D02*
X-529120D01*
G01X-532000Y-254069D02*
X-531653Y-254202D01*
X-531393Y-254535D01*
X-531220Y-254935D01*
X-531090Y-255469D01*
X-531047Y-256069D01*
X-531090Y-256669D01*
X-531220Y-257202D01*
X-531393Y-257602D01*
X-531653Y-257935D01*
X-532000Y-258069D01*
X-532347Y-257935D01*
X-532607Y-257602D01*
X-532780Y-257202D01*
X-532910Y-256669D01*
X-532953Y-256069D01*
X-532910Y-255469D01*
X-532780Y-254935D01*
X-532607Y-254535D01*
X-532347Y-254202D01*
X-532000Y-254069D01*
G01X-506847Y-240569D02*
Y-236569D01*
X-507713D01*
X-508060Y-236769D01*
X-508320Y-237035D01*
X-508537Y-237435D01*
X-508710Y-237902D01*
X-508753Y-238569D01*
X-508710Y-239235D01*
X-508537Y-239702D01*
X-508320Y-240102D01*
X-508060Y-240369D01*
X-507713Y-240569D01*
X-506847D01*
G01X-512067D02*
X-510333D01*
Y-236569D01*
X-512067D01*
G01X-511373Y-238502D02*
X-510333D01*
G01X-515553Y-236902D02*
X-515293Y-236702D01*
X-514990Y-236569D01*
X-514643D01*
X-514253Y-236769D01*
X-513950Y-237102D01*
X-513733Y-237502D01*
X-513560Y-238169D01*
X-513517Y-238769D01*
X-513603Y-239369D01*
X-513733Y-239769D01*
X-513993Y-240169D01*
X-514297Y-240435D01*
X-514600Y-240569D01*
X-514903D01*
X-515207Y-240435D01*
X-515467Y-240235D01*
X-515683Y-239969D01*
G01X-517480Y-236569D02*
X-518520D01*
G01X-518000D02*
Y-240569D01*
G01X-517480D02*
X-518520D01*
G01X-520273D02*
Y-236569D01*
X-521400Y-239902D01*
X-522527Y-236569D01*
Y-240569D01*
G01X-523717D02*
X-524800Y-236569D01*
X-525883Y-240569D01*
G01X-525493Y-239169D02*
X-524107D01*
G01X-527333Y-236569D02*
Y-240569D01*
X-529067D01*
G01X-558500Y-253569D02*
X-561500D01*
G01X-553200Y-243869D02*
X-556200D01*
G01X-553200Y-246069D02*
X-556200D01*
G01X-554700Y-242369D02*
Y-245369D01*
G01X-560000Y-253569D02*
X-557700Y-258069D01*
X-556200Y-255869D01*
G01X-515517Y-217069D02*
X-516600Y-213069D01*
X-517683Y-217069D01*
G01X-517293Y-215669D02*
X-515907D01*
G01X-519133Y-217069D02*
Y-213069D01*
X-520217D01*
X-520563Y-213269D01*
X-520780Y-213535D01*
X-520867Y-214069D01*
X-520780Y-214602D01*
X-520520Y-214935D01*
X-520217Y-215135D01*
X-519133D01*
G01X-520217D02*
X-520867Y-217069D01*
G01X-524267D02*
X-522533D01*
Y-213069D01*
X-524267D01*
G01X-523573Y-215002D02*
X-522533D01*
G01X-529680Y-213069D02*
X-530720D01*
G01X-530200D02*
Y-217069D01*
G01X-529680D02*
X-530720D01*
G01X-532603D02*
Y-213069D01*
X-534597Y-217069D01*
Y-213069D01*
G01X-539880D02*
X-540920D01*
G01X-540400D02*
Y-217069D01*
G01X-539880D02*
X-540920D01*
G01X-542803D02*
Y-213069D01*
X-544797Y-217069D01*
Y-213069D01*
G01X-548153Y-213402D02*
X-547893Y-213202D01*
X-547590Y-213069D01*
X-547243D01*
X-546853Y-213269D01*
X-546550Y-213602D01*
X-546333Y-214002D01*
X-546160Y-214669D01*
X-546117Y-215269D01*
X-546203Y-215869D01*
X-546333Y-216269D01*
X-546593Y-216669D01*
X-546897Y-216935D01*
X-547200Y-217069D01*
X-547503D01*
X-547807Y-216935D01*
X-548067Y-216735D01*
X-548283Y-216469D01*
G01X-549690Y-217069D02*
Y-213069D01*
G01X-551510D02*
Y-217069D01*
G01Y-215069D02*
X-549690D01*
G01X-554867Y-217069D02*
X-553133D01*
Y-213069D01*
X-554867D01*
G01X-554173Y-215002D02*
X-553133D01*
G01X-556490Y-216535D02*
X-556837Y-216869D01*
X-557227Y-217069D01*
X-557573D01*
X-557920Y-216869D01*
X-558180Y-216535D01*
X-558310Y-216069D01*
X-558223Y-215602D01*
X-558007Y-215202D01*
X-557617Y-214935D01*
X-557097Y-214802D01*
X-556793Y-214535D01*
X-556663Y-214069D01*
X-556750Y-213602D01*
X-556967Y-213269D01*
X-557270Y-213069D01*
X-557573D01*
X-557877Y-213202D01*
X-558137Y-213535D01*
G01X-510547Y-198069D02*
Y-200935D01*
X-510720Y-201535D01*
X-511067Y-201935D01*
X-511500Y-202069D01*
X-511933Y-201935D01*
X-512280Y-201535D01*
X-512453Y-200935D01*
Y-198069D01*
G01X-513903Y-202069D02*
Y-198069D01*
X-515897Y-202069D01*
Y-198069D01*
G01X-517433D02*
Y-202069D01*
X-519167D01*
G01X-522567D02*
X-520833D01*
Y-198069D01*
X-522567D01*
G01X-521873Y-200002D02*
X-520833D01*
G01X-524190Y-201535D02*
X-524537Y-201869D01*
X-524927Y-202069D01*
X-525273D01*
X-525620Y-201869D01*
X-525880Y-201535D01*
X-526010Y-201069D01*
X-525923Y-200602D01*
X-525707Y-200202D01*
X-525317Y-199935D01*
X-524797Y-199802D01*
X-524493Y-199535D01*
X-524363Y-199069D01*
X-524450Y-198602D01*
X-524667Y-198269D01*
X-524970Y-198069D01*
X-525273D01*
X-525577Y-198202D01*
X-525837Y-198535D01*
G01X-527590Y-201535D02*
X-527937Y-201869D01*
X-528327Y-202069D01*
X-528673D01*
X-529020Y-201869D01*
X-529280Y-201535D01*
X-529410Y-201069D01*
X-529323Y-200602D01*
X-529107Y-200202D01*
X-528717Y-199935D01*
X-528197Y-199802D01*
X-527893Y-199535D01*
X-527763Y-199069D01*
X-527850Y-198602D01*
X-528067Y-198269D01*
X-528370Y-198069D01*
X-528673D01*
X-528977Y-198202D01*
X-529237Y-198535D01*
G01X-535300Y-202069D02*
X-534953Y-202002D01*
X-534650Y-201735D01*
X-534390Y-201335D01*
X-534217Y-200869D01*
X-534130Y-200335D01*
Y-199802D01*
X-534217Y-199269D01*
X-534390Y-198802D01*
X-534650Y-198402D01*
X-534953Y-198135D01*
X-535300Y-198069D01*
X-535647Y-198135D01*
X-535950Y-198402D01*
X-536210Y-198802D01*
X-536383Y-199269D01*
X-536470Y-199802D01*
Y-200335D01*
X-536383Y-200869D01*
X-536210Y-201335D01*
X-535950Y-201735D01*
X-535647Y-202002D01*
X-535300Y-202069D01*
G01X-538700Y-198069D02*
Y-202069D01*
G01X-537703Y-198069D02*
X-539697D01*
G01X-541190Y-202069D02*
Y-198069D01*
G01X-543010D02*
Y-202069D01*
G01Y-200069D02*
X-541190D01*
G01X-546367Y-202069D02*
X-544633D01*
Y-198069D01*
X-546367D01*
G01X-545673Y-200002D02*
X-544633D01*
G01X-548033Y-202069D02*
Y-198069D01*
X-549117D01*
X-549463Y-198269D01*
X-549680Y-198535D01*
X-549767Y-199069D01*
X-549680Y-199602D01*
X-549420Y-199935D01*
X-549117Y-200135D01*
X-548033D01*
G01X-549117D02*
X-549767Y-202069D01*
G01X-551000Y-198069D02*
X-551607Y-202069D01*
X-552300Y-198069D01*
X-552993Y-202069D01*
X-553600Y-198069D01*
G01X-555180D02*
X-556220D01*
G01X-555700D02*
Y-202069D01*
G01X-555180D02*
X-556220D01*
G01X-558190Y-201535D02*
X-558537Y-201869D01*
X-558927Y-202069D01*
X-559273D01*
X-559620Y-201869D01*
X-559880Y-201535D01*
X-560010Y-201069D01*
X-559923Y-200602D01*
X-559707Y-200202D01*
X-559317Y-199935D01*
X-558797Y-199802D01*
X-558493Y-199535D01*
X-558363Y-199069D01*
X-558450Y-198602D01*
X-558667Y-198269D01*
X-558970Y-198069D01*
X-559273D01*
X-559577Y-198202D01*
X-559837Y-198535D01*
G01X-563367Y-202069D02*
X-561633D01*
Y-198069D01*
X-563367D01*
G01X-562673Y-200002D02*
X-561633D01*
G01X-490125Y1245431D02*
X-493250Y1255431D01*
X-496375Y1245431D01*
G01X-495250Y1248931D02*
X-491250D01*
G01X-500750Y1245431D02*
Y1255431D01*
X-503750D01*
X-504750Y1254931D01*
X-505500Y1253765D01*
X-505750Y1252431D01*
X-505500Y1251098D01*
X-504875Y1250098D01*
X-503750Y1249598D01*
X-500750D01*
G01X-510750Y1245431D02*
Y1255431D01*
X-513750D01*
X-514750Y1254931D01*
X-515500Y1253765D01*
X-515750Y1252431D01*
X-515500Y1251098D01*
X-514875Y1250098D01*
X-513750Y1249598D01*
X-510750D01*
G01X-520750Y1245431D02*
Y1255431D01*
X-523875D01*
X-524875Y1254931D01*
X-525500Y1254265D01*
X-525750Y1252931D01*
X-525500Y1251598D01*
X-524750Y1250765D01*
X-523875Y1250265D01*
X-520750D01*
G01X-523875D02*
X-525750Y1245431D01*
G01X-533250D02*
X-532250Y1245598D01*
X-531375Y1246265D01*
X-530625Y1247265D01*
X-530125Y1248431D01*
X-529875Y1249765D01*
Y1251098D01*
X-530125Y1252431D01*
X-530625Y1253598D01*
X-531375Y1254598D01*
X-532250Y1255265D01*
X-533250Y1255431D01*
X-534250Y1255265D01*
X-535125Y1254598D01*
X-535875Y1253598D01*
X-536375Y1252431D01*
X-536625Y1251098D01*
Y1249765D01*
X-536375Y1248431D01*
X-535875Y1247265D01*
X-535125Y1246265D01*
X-534250Y1245598D01*
X-533250Y1245431D01*
G01X-540125Y1255431D02*
X-543250Y1245431D01*
X-546375Y1255431D01*
G01X-555750Y1245431D02*
X-550750D01*
Y1255431D01*
X-555750D01*
G01X-553750Y1250598D02*
X-550750D01*
G01X-560500Y1245431D02*
Y1255431D01*
X-563000D01*
X-564000Y1254931D01*
X-564750Y1254265D01*
X-565375Y1253265D01*
X-565875Y1252098D01*
X-566000Y1250431D01*
X-565875Y1248765D01*
X-565375Y1247598D01*
X-564750Y1246598D01*
X-564000Y1245931D01*
X-563000Y1245431D01*
X-560500D01*
G01X-456189Y-248700D02*
X-456722Y-249200D01*
X-457322Y-249500D01*
X-457855D01*
X-458389Y-249200D01*
X-458789Y-248700D01*
X-458989Y-248000D01*
X-458855Y-247300D01*
X-458522Y-246700D01*
X-457922Y-246300D01*
X-457122Y-246100D01*
X-456655Y-245700D01*
X-456455Y-245000D01*
X-456589Y-244300D01*
X-456922Y-243800D01*
X-457389Y-243500D01*
X-457855D01*
X-458322Y-243700D01*
X-458722Y-244200D01*
G01X-461389Y-249500D02*
Y-243500D01*
G01X-464189D02*
Y-249500D01*
G01Y-246500D02*
X-461389D01*
G01X-469322Y-249500D02*
X-466655D01*
Y-243500D01*
X-469322D01*
G01X-468255Y-246400D02*
X-466655D01*
G01X-474522Y-249500D02*
X-471855D01*
Y-243500D01*
X-474522D01*
G01X-473455Y-246400D02*
X-471855D01*
G01X-478389Y-243500D02*
Y-249500D01*
G01X-476855Y-243500D02*
X-479922D01*
G01X-483589Y-249700D02*
X-483455Y-249600D01*
Y-249400D01*
X-483589Y-249300D01*
X-483722Y-249400D01*
Y-249600D01*
X-483589Y-249700D01*
G01Y-247000D02*
X-483455Y-246900D01*
Y-246700D01*
X-483589Y-246600D01*
X-483722Y-246700D01*
Y-246900D01*
X-483589Y-247000D01*
G01X-455242Y-255333D02*
X-455762Y-254534D01*
X-456369Y-254133D01*
X-457062Y-254000D01*
X-457929Y-254267D01*
X-458535Y-254933D01*
X-458709Y-255733D01*
X-458622Y-256534D01*
X-458275Y-257200D01*
X-456542Y-258533D01*
X-455762Y-259467D01*
X-455242Y-260800D01*
X-455069Y-262000D01*
X-458709D01*
G01X-470489D02*
X-469795Y-261867D01*
X-469189Y-261334D01*
X-468669Y-260533D01*
X-468322Y-259600D01*
X-468149Y-258533D01*
Y-257467D01*
X-468322Y-256400D01*
X-468669Y-255467D01*
X-469189Y-254667D01*
X-469795Y-254133D01*
X-470489Y-254000D01*
X-471182Y-254133D01*
X-471789Y-254667D01*
X-472309Y-255467D01*
X-472656Y-256400D01*
X-472829Y-257467D01*
Y-258533D01*
X-472656Y-259600D01*
X-472309Y-260533D01*
X-471789Y-261334D01*
X-471182Y-261867D01*
X-470489Y-262000D01*
G01X-475642D02*
Y-254000D01*
X-478935D01*
G01X-477722Y-257867D02*
X-475642D01*
G01X-489242Y-255333D02*
X-489762Y-254534D01*
X-490369Y-254133D01*
X-491062Y-254000D01*
X-491929Y-254267D01*
X-492535Y-254933D01*
X-492709Y-255733D01*
X-492622Y-256534D01*
X-492275Y-257200D01*
X-490542Y-258533D01*
X-489762Y-259467D01*
X-489242Y-260800D01*
X-489069Y-262000D01*
X-492709D01*
G01X-512290Y-246069D02*
X-514110Y-242069D01*
G01X-512290D02*
X-514110Y-246069D01*
G01X-508890Y-252069D02*
X-510710Y-248069D01*
G01X-508890D02*
X-510710Y-252069D01*
G01X-512290D02*
X-514110Y-248069D01*
G01X-512290D02*
X-514110Y-252069D01*
G01X-505490Y-258069D02*
X-507310Y-254069D01*
G01X-505490D02*
X-507310Y-258069D01*
G01X-508890D02*
X-510710Y-254069D01*
G01X-508890D02*
X-510710Y-258069D01*
G01X-512290D02*
X-514110Y-254069D01*
G01X-512290D02*
X-514110Y-258069D01*
G01X-516500Y-243869D02*
X-519500D01*
G01X-516500Y-246069D02*
X-519500D01*
G01X-518000Y-242369D02*
Y-245369D01*
G01X-516500Y-252069D02*
X-519500D01*
G01X-518000Y-248369D02*
Y-251369D01*
G01X-516500Y-249869D02*
X-519500D01*
G01X-516500Y-255869D02*
X-519500D01*
G01X-516500Y-258069D02*
X-519500D01*
G01X-518000Y-254369D02*
Y-257369D01*
G01X-499500Y-189569D02*
Y-264569D01*
G01Y-242069D02*
X-302000D01*
G01X-499500Y-219569D02*
X-302000D01*
G01X-431100Y-254069D02*
X-430407Y-254335D01*
X-429887Y-255002D01*
X-429540Y-255802D01*
X-429280Y-256869D01*
X-429193Y-258069D01*
X-429280Y-259269D01*
X-429540Y-260335D01*
X-429887Y-261136D01*
X-430407Y-261802D01*
X-431100Y-262069D01*
X-431793Y-261802D01*
X-432313Y-261136D01*
X-432660Y-260335D01*
X-432920Y-259269D01*
X-433007Y-258069D01*
X-432920Y-256869D01*
X-432660Y-255802D01*
X-432313Y-255002D01*
X-431793Y-254335D01*
X-431100Y-254069D01*
G01X-438940Y-262069D02*
Y-254069D01*
X-435733Y-259802D01*
X-440067D01*
G01X-425567Y-249569D02*
Y-243569D01*
X-427233D01*
X-427767Y-243869D01*
X-428100Y-244269D01*
X-428233Y-245069D01*
X-428100Y-245869D01*
X-427700Y-246369D01*
X-427233Y-246669D01*
X-425567D01*
G01X-427233D02*
X-428233Y-249569D01*
G01X-433433D02*
X-430767D01*
Y-243569D01*
X-433433D01*
G01X-432367Y-246468D02*
X-430767D01*
G01X-435633Y-243569D02*
X-437300Y-249569D01*
X-438967Y-243569D01*
G01X-442500Y-249769D02*
X-442367Y-249669D01*
Y-249469D01*
X-442500Y-249369D01*
X-442633Y-249469D01*
Y-249669D01*
X-442500Y-249769D01*
G01X-319433Y-238500D02*
X-316767D01*
Y-232500D01*
X-319433D01*
G01X-318367Y-235400D02*
X-316767D01*
G01X-321633Y-232500D02*
X-323300Y-238500D01*
X-324967Y-232500D01*
G01X-327033Y-238500D02*
Y-232500D01*
G01X-329567D02*
X-327033Y-236200D01*
G01X-329967Y-238500D02*
X-328167Y-234500D01*
G01X-332433Y-233500D02*
X-332833Y-232900D01*
X-333300Y-232600D01*
X-333833Y-232500D01*
X-334500Y-232700D01*
X-334967Y-233200D01*
X-335100Y-233800D01*
X-335033Y-234400D01*
X-334767Y-234900D01*
X-333433Y-235900D01*
X-332833Y-236600D01*
X-332433Y-237600D01*
X-332300Y-238500D01*
X-335100D01*
G01X-342767D02*
Y-232500D01*
X-344367D01*
X-344900Y-232800D01*
X-345300Y-233500D01*
X-345433Y-234300D01*
X-345300Y-235100D01*
X-344967Y-235700D01*
X-344367Y-236000D01*
X-342767D01*
G01X-347767Y-238500D02*
Y-232500D01*
X-350833Y-238500D01*
Y-232500D01*
G01X-354500Y-238700D02*
X-354367Y-238600D01*
Y-238400D01*
X-354500Y-238300D01*
X-354633Y-238400D01*
Y-238600D01*
X-354500Y-238700D01*
G01Y-236000D02*
X-354367Y-235900D01*
Y-235700D01*
X-354500Y-235600D01*
X-354633Y-235700D01*
Y-235900D01*
X-354500Y-236000D01*
G01X-360233Y-235300D02*
X-360500Y-235000D01*
X-360700Y-234500D01*
X-360833Y-233800D01*
X-360700Y-233200D01*
X-360433Y-232800D01*
X-359967Y-232500D01*
X-358167D01*
Y-238500D01*
X-360367D01*
X-360833Y-238100D01*
X-361100Y-237500D01*
X-361233Y-236800D01*
X-361100Y-236100D01*
X-360700Y-235500D01*
X-360233Y-235300D01*
X-358167D01*
G01X-363167Y-238500D02*
Y-232500D01*
X-364900Y-237500D01*
X-366633Y-232500D01*
Y-238500D01*
G01X-368967Y-237800D02*
X-369433Y-238300D01*
X-369967Y-238500D01*
X-370500Y-238300D01*
X-370967Y-237700D01*
X-371300Y-236800D01*
X-371433Y-235900D01*
Y-234800D01*
X-371300Y-233900D01*
X-370967Y-233100D01*
X-370567Y-232700D01*
X-370100Y-232500D01*
X-369567Y-232700D01*
X-369167Y-233100D01*
X-368900Y-233700D01*
X-368767Y-234500D01*
X-368900Y-235200D01*
X-369233Y-235900D01*
X-369633Y-236300D01*
X-370100Y-236400D01*
X-370633Y-236200D01*
X-371033Y-235700D01*
X-371433Y-234800D01*
G01X-374033Y-233500D02*
X-374433Y-232900D01*
X-374900Y-232600D01*
X-375433Y-232500D01*
X-376100Y-232700D01*
X-376567Y-233200D01*
X-376700Y-233800D01*
X-376633Y-234400D01*
X-376367Y-234900D01*
X-375033Y-235900D01*
X-374433Y-236600D01*
X-374033Y-237600D01*
X-373900Y-238500D01*
X-376700D01*
G01X-380500Y-232500D02*
Y-238500D01*
G01X-378967Y-232500D02*
X-382033D01*
G01X-385567Y-238500D02*
X-385700Y-237200D01*
X-385900Y-236100D01*
X-386167Y-235100D01*
X-386500Y-234000D01*
X-387033Y-232500D01*
X-384367D01*
G01X-390900D02*
X-390367Y-232700D01*
X-389967Y-233200D01*
X-389700Y-233800D01*
X-389500Y-234600D01*
X-389433Y-235500D01*
X-389500Y-236400D01*
X-389700Y-237200D01*
X-389967Y-237800D01*
X-390367Y-238300D01*
X-390900Y-238500D01*
X-391433Y-238300D01*
X-391833Y-237800D01*
X-392100Y-237200D01*
X-392300Y-236400D01*
X-392367Y-235500D01*
X-392300Y-234600D01*
X-392100Y-233800D01*
X-391833Y-233200D01*
X-391433Y-232700D01*
X-390900Y-232500D01*
G01X-395233Y-236500D02*
X-396967D01*
G01X-399833Y-238500D02*
Y-232500D01*
X-401167D01*
X-401700Y-232800D01*
X-402100Y-233200D01*
X-402433Y-233800D01*
X-402700Y-234500D01*
X-402767Y-235500D01*
X-402700Y-236500D01*
X-402433Y-237200D01*
X-402100Y-237800D01*
X-401700Y-238200D01*
X-401167Y-238500D01*
X-399833D01*
G01X-407833D02*
X-405167D01*
Y-232500D01*
X-407833D01*
G01X-406767Y-235400D02*
X-405167D01*
G01X-410033Y-232500D02*
X-411700Y-238500D01*
X-413367Y-232500D01*
G01X-416100D02*
X-417700D01*
G01X-416900D02*
Y-238500D01*
G01X-416100D02*
X-417700D01*
G01X-423567Y-233000D02*
X-423167Y-232700D01*
X-422700Y-232500D01*
X-422167D01*
X-421567Y-232800D01*
X-421100Y-233300D01*
X-420767Y-233900D01*
X-420500Y-234900D01*
X-420433Y-235800D01*
X-420567Y-236700D01*
X-420767Y-237300D01*
X-421167Y-237900D01*
X-421633Y-238300D01*
X-422100Y-238500D01*
X-422567D01*
X-423033Y-238300D01*
X-423433Y-238000D01*
X-423767Y-237600D01*
G01X-428633Y-238500D02*
X-425967D01*
Y-232500D01*
X-428633D01*
G01X-427567Y-235400D02*
X-425967D01*
G01X-431633Y-236500D02*
X-433367D01*
G01X-439033Y-238500D02*
X-436367D01*
Y-232500D01*
X-439033D01*
G01X-437967Y-235400D02*
X-436367D01*
G01X-441233Y-232500D02*
X-442900Y-238500D01*
X-444567Y-232500D01*
G01X-446633Y-238500D02*
Y-232500D01*
G01X-449167D02*
X-446633Y-236200D01*
G01X-449567Y-238500D02*
X-447767Y-234500D01*
G01X-452433Y-236500D02*
X-454167D01*
G01X-458500Y-238500D02*
Y-232500D01*
X-457700Y-233700D01*
G01Y-238500D02*
X-459300D01*
G01X-463700Y-232500D02*
X-463167Y-232700D01*
X-462767Y-233200D01*
X-462500Y-233800D01*
X-462300Y-234600D01*
X-462233Y-235500D01*
X-462300Y-236400D01*
X-462500Y-237200D01*
X-462767Y-237800D01*
X-463167Y-238300D01*
X-463700Y-238500D01*
X-464233Y-238300D01*
X-464633Y-237800D01*
X-464900Y-237200D01*
X-465100Y-236400D01*
X-465167Y-235500D01*
X-465100Y-234600D01*
X-464900Y-233800D01*
X-464633Y-233200D01*
X-464233Y-232700D01*
X-463700Y-232500D01*
G01X-468900Y-238500D02*
Y-232500D01*
X-468100Y-233700D01*
G01Y-238500D02*
X-469700D01*
G01X-449700Y-242069D02*
Y-264569D01*
G01X-328867Y-214569D02*
Y-206569D01*
X-331033D01*
X-331727Y-206969D01*
X-332160Y-207502D01*
X-332333Y-208569D01*
X-332160Y-209635D01*
X-331640Y-210302D01*
X-331033Y-210702D01*
X-328867D01*
G01X-331033D02*
X-332333Y-214569D01*
G01X-337400D02*
X-336707Y-214435D01*
X-336100Y-213902D01*
X-335580Y-213102D01*
X-335233Y-212169D01*
X-335060Y-211102D01*
Y-210035D01*
X-335233Y-208969D01*
X-335580Y-208035D01*
X-336100Y-207235D01*
X-336707Y-206702D01*
X-337400Y-206569D01*
X-338093Y-206702D01*
X-338700Y-207235D01*
X-339220Y-208035D01*
X-339567Y-208969D01*
X-339740Y-210035D01*
Y-211102D01*
X-339567Y-212169D01*
X-339220Y-213102D01*
X-338700Y-213902D01*
X-338093Y-214435D01*
X-337400Y-214569D01*
G01X-342380D02*
Y-206569D01*
G01X-346020D02*
Y-214569D01*
G01Y-210569D02*
X-342380D01*
G01X-348747Y-214569D02*
Y-206569D01*
X-351000Y-213235D01*
X-353253Y-206569D01*
Y-214569D01*
G01X-362780Y-213502D02*
X-363473Y-214169D01*
X-364253Y-214569D01*
X-364947D01*
X-365640Y-214169D01*
X-366160Y-213502D01*
X-366420Y-212568D01*
X-366247Y-211635D01*
X-365813Y-210835D01*
X-365033Y-210302D01*
X-363993Y-210035D01*
X-363387Y-209502D01*
X-363127Y-208569D01*
X-363300Y-207635D01*
X-363733Y-206969D01*
X-364340Y-206569D01*
X-364947D01*
X-365553Y-206835D01*
X-366073Y-207502D01*
G01X-373133Y-214569D02*
X-369667D01*
Y-206569D01*
X-373133D01*
G01X-371747Y-210435D02*
X-369667D01*
G01X-375947Y-214569D02*
Y-206569D01*
X-378200Y-213235D01*
X-380453Y-206569D01*
Y-214569D01*
G01X-383960Y-206569D02*
X-386040D01*
G01X-385000D02*
Y-214569D01*
G01X-383960D02*
X-386040D01*
G01X-393707Y-207235D02*
X-393187Y-206835D01*
X-392580Y-206569D01*
X-391887D01*
X-391107Y-206969D01*
X-390500Y-207635D01*
X-390067Y-208435D01*
X-389720Y-209769D01*
X-389633Y-210969D01*
X-389807Y-212169D01*
X-390067Y-212969D01*
X-390587Y-213769D01*
X-391193Y-214302D01*
X-391800Y-214569D01*
X-392407D01*
X-393013Y-214302D01*
X-393533Y-213902D01*
X-393967Y-213369D01*
G01X-398600Y-214569D02*
X-397907Y-214435D01*
X-397300Y-213902D01*
X-396780Y-213102D01*
X-396433Y-212169D01*
X-396260Y-211102D01*
Y-210035D01*
X-396433Y-208969D01*
X-396780Y-208035D01*
X-397300Y-207235D01*
X-397907Y-206702D01*
X-398600Y-206569D01*
X-399293Y-206702D01*
X-399900Y-207235D01*
X-400420Y-208035D01*
X-400767Y-208969D01*
X-400940Y-210035D01*
Y-211102D01*
X-400767Y-212169D01*
X-400420Y-213102D01*
X-399900Y-213902D01*
X-399293Y-214435D01*
X-398600Y-214569D01*
G01X-403407D02*
Y-206569D01*
X-407393Y-214569D01*
Y-206569D01*
G01X-410293Y-214569D02*
Y-206569D01*
X-412027D01*
X-412720Y-206969D01*
X-413240Y-207502D01*
X-413673Y-208302D01*
X-414020Y-209235D01*
X-414107Y-210569D01*
X-414020Y-211902D01*
X-413673Y-212835D01*
X-413240Y-213636D01*
X-412720Y-214169D01*
X-412027Y-214569D01*
X-410293D01*
G01X-417093Y-206569D02*
Y-212302D01*
X-417440Y-213502D01*
X-418133Y-214302D01*
X-419000Y-214569D01*
X-419867Y-214302D01*
X-420560Y-213502D01*
X-420907Y-212302D01*
Y-206569D01*
G01X-427707Y-207235D02*
X-427187Y-206835D01*
X-426580Y-206569D01*
X-425887D01*
X-425107Y-206969D01*
X-424500Y-207635D01*
X-424067Y-208435D01*
X-423720Y-209769D01*
X-423633Y-210969D01*
X-423807Y-212169D01*
X-424067Y-212969D01*
X-424587Y-213769D01*
X-425193Y-214302D01*
X-425800Y-214569D01*
X-426407D01*
X-427013Y-214302D01*
X-427533Y-213902D01*
X-427967Y-213369D01*
G01X-432600Y-206569D02*
Y-214569D01*
G01X-430607Y-206569D02*
X-434593D01*
G01X-439400Y-214569D02*
X-438707Y-214435D01*
X-438100Y-213902D01*
X-437580Y-213102D01*
X-437233Y-212169D01*
X-437060Y-211102D01*
Y-210035D01*
X-437233Y-208969D01*
X-437580Y-208035D01*
X-438100Y-207235D01*
X-438707Y-206702D01*
X-439400Y-206569D01*
X-440093Y-206702D01*
X-440700Y-207235D01*
X-441220Y-208035D01*
X-441567Y-208969D01*
X-441740Y-210035D01*
Y-211102D01*
X-441567Y-212169D01*
X-441220Y-213102D01*
X-440700Y-213902D01*
X-440093Y-214435D01*
X-439400Y-214569D01*
G01X-444467D02*
Y-206569D01*
X-446633D01*
X-447327Y-206969D01*
X-447760Y-207502D01*
X-447933Y-208569D01*
X-447760Y-209635D01*
X-447240Y-210302D01*
X-446633Y-210702D01*
X-444467D01*
G01X-446633D02*
X-447933Y-214569D01*
G01X-457893Y-206569D02*
Y-212302D01*
X-458240Y-213502D01*
X-458933Y-214302D01*
X-459800Y-214569D01*
X-460667Y-214302D01*
X-461360Y-213502D01*
X-461707Y-212302D01*
Y-206569D01*
G01X-464780Y-213502D02*
X-465473Y-214169D01*
X-466253Y-214569D01*
X-466947D01*
X-467640Y-214169D01*
X-468160Y-213502D01*
X-468420Y-212568D01*
X-468247Y-211635D01*
X-467813Y-210835D01*
X-467033Y-210302D01*
X-465993Y-210035D01*
X-465387Y-209502D01*
X-465127Y-208569D01*
X-465300Y-207635D01*
X-465733Y-206969D01*
X-466340Y-206569D01*
X-466947D01*
X-467553Y-206835D01*
X-468073Y-207502D01*
G01X-471233Y-214569D02*
X-473400Y-206569D01*
X-475567Y-214569D01*
G01X-474787Y-211769D02*
X-472013D01*
G01X-479500Y1175431D02*
Y1265431D01*
G01X-420500Y1245431D02*
Y1255431D01*
X-423000D01*
X-424000Y1254931D01*
X-424750Y1254265D01*
X-425375Y1253265D01*
X-425875Y1252098D01*
X-426000Y1250431D01*
X-425875Y1248765D01*
X-425375Y1247598D01*
X-424750Y1246598D01*
X-424000Y1245931D01*
X-423000Y1245431D01*
X-420500D01*
G01X-430125D02*
X-433250Y1255431D01*
X-436375Y1245431D01*
G01X-435250Y1248931D02*
X-431250D01*
G01X-443250Y1255431D02*
Y1245431D01*
G01X-440375Y1255431D02*
X-446125D01*
G01X-455750Y1245431D02*
X-450750D01*
Y1255431D01*
X-455750D01*
G01X-453750Y1250598D02*
X-450750D01*
G01X-419700Y-242069D02*
Y-264569D01*
G01X-399500Y1175431D02*
Y1265431D01*
G01X-359500Y-314569D02*
Y-284569D01*
G01X-305167Y-227069D02*
Y-221069D01*
X-306767D01*
X-307300Y-221369D01*
X-307700Y-222069D01*
X-307833Y-222869D01*
X-307700Y-223669D01*
X-307367Y-224269D01*
X-306767Y-224569D01*
X-305167D01*
G01X-310367Y-227069D02*
Y-221069D01*
X-312033D01*
X-312567Y-221369D01*
X-312900Y-221769D01*
X-313033Y-222569D01*
X-312900Y-223369D01*
X-312500Y-223869D01*
X-312033Y-224169D01*
X-310367D01*
G01X-312033D02*
X-313033Y-227069D01*
G01X-316900D02*
X-316367Y-226969D01*
X-315900Y-226569D01*
X-315500Y-225969D01*
X-315233Y-225269D01*
X-315100Y-224469D01*
Y-223669D01*
X-315233Y-222869D01*
X-315500Y-222168D01*
X-315900Y-221569D01*
X-316367Y-221169D01*
X-316900Y-221069D01*
X-317433Y-221169D01*
X-317900Y-221569D01*
X-318300Y-222168D01*
X-318567Y-222869D01*
X-318700Y-223669D01*
Y-224469D01*
X-318567Y-225269D01*
X-318300Y-225969D01*
X-317900Y-226569D01*
X-317433Y-226969D01*
X-316900Y-227069D01*
G01X-320767Y-225869D02*
X-321100Y-226469D01*
X-321500Y-226869D01*
X-321967Y-227069D01*
X-322500Y-226869D01*
X-322900Y-226469D01*
X-323300Y-225869D01*
X-323433Y-225069D01*
Y-221069D01*
G01X-328633Y-227069D02*
X-325967D01*
Y-221069D01*
X-328633D01*
G01X-327567Y-223969D02*
X-325967D01*
G01X-333967Y-221569D02*
X-333567Y-221269D01*
X-333100Y-221069D01*
X-332567D01*
X-331967Y-221369D01*
X-331500Y-221869D01*
X-331167Y-222469D01*
X-330900Y-223469D01*
X-330833Y-224369D01*
X-330967Y-225269D01*
X-331167Y-225869D01*
X-331567Y-226469D01*
X-332033Y-226869D01*
X-332500Y-227069D01*
X-332967D01*
X-333433Y-226869D01*
X-333833Y-226569D01*
X-334167Y-226169D01*
G01X-337700Y-221069D02*
Y-227069D01*
G01X-336167Y-221069D02*
X-339233D01*
G01X-346567Y-227069D02*
Y-221069D01*
X-349633Y-227069D01*
Y-221069D01*
G01X-351633Y-227069D02*
X-353300Y-221069D01*
X-354967Y-227069D01*
G01X-354367Y-224969D02*
X-352233D01*
G01X-356767Y-227069D02*
Y-221069D01*
X-358500Y-226069D01*
X-360233Y-221069D01*
Y-227069D01*
G01X-365033D02*
X-362367D01*
Y-221069D01*
X-365033D01*
G01X-363967Y-223969D02*
X-362367D01*
G01X-368900Y-227269D02*
X-368767Y-227169D01*
Y-226969D01*
X-368900Y-226869D01*
X-369033Y-226969D01*
Y-227169D01*
X-368900Y-227269D01*
G01Y-224569D02*
X-368767Y-224469D01*
Y-224269D01*
X-368900Y-224169D01*
X-369033Y-224269D01*
Y-224469D01*
X-368900Y-224569D01*
G01X-307967Y-191569D02*
X-307567Y-191269D01*
X-307100Y-191069D01*
X-306567D01*
X-305967Y-191369D01*
X-305500Y-191869D01*
X-305167Y-192469D01*
X-304900Y-193469D01*
X-304833Y-194369D01*
X-304967Y-195269D01*
X-305167Y-195869D01*
X-305567Y-196469D01*
X-306033Y-196869D01*
X-306500Y-197069D01*
X-306967D01*
X-307433Y-196869D01*
X-307833Y-196569D01*
X-308167Y-196169D01*
G01X-311700Y-197069D02*
X-311167Y-196969D01*
X-310700Y-196569D01*
X-310300Y-195969D01*
X-310033Y-195269D01*
X-309900Y-194469D01*
Y-193669D01*
X-310033Y-192869D01*
X-310300Y-192168D01*
X-310700Y-191569D01*
X-311167Y-191169D01*
X-311700Y-191069D01*
X-312233Y-191169D01*
X-312700Y-191569D01*
X-313100Y-192168D01*
X-313367Y-192869D01*
X-313500Y-193669D01*
Y-194469D01*
X-313367Y-195269D01*
X-313100Y-195969D01*
X-312700Y-196569D01*
X-312233Y-196969D01*
X-311700Y-197069D01*
G01X-315167D02*
Y-191069D01*
X-316900Y-196069D01*
X-318633Y-191069D01*
Y-197069D01*
G01X-320767D02*
Y-191069D01*
X-322367D01*
X-322900Y-191369D01*
X-323300Y-192069D01*
X-323433Y-192869D01*
X-323300Y-193669D01*
X-322967Y-194269D01*
X-322367Y-194569D01*
X-320767D01*
G01X-325633Y-197069D02*
X-327300Y-191069D01*
X-328967Y-197069D01*
G01X-328367Y-194969D02*
X-326233D01*
G01X-330967Y-197069D02*
Y-191069D01*
X-334033Y-197069D01*
Y-191069D01*
G01X-337700Y-197069D02*
Y-194369D01*
X-336367Y-191069D01*
G01X-339033D02*
X-337700Y-194369D01*
G01X-346567Y-197069D02*
Y-191069D01*
X-349633Y-197069D01*
Y-191069D01*
G01X-351633Y-197069D02*
X-353300Y-191069D01*
X-354967Y-197069D01*
G01X-354367Y-194969D02*
X-352233D01*
G01X-356767Y-197069D02*
Y-191069D01*
X-358500Y-196069D01*
X-360233Y-191069D01*
Y-197069D01*
G01X-365033D02*
X-362367D01*
Y-191069D01*
X-365033D01*
G01X-363967Y-193968D02*
X-362367D01*
G01X-368900Y-197269D02*
X-368767Y-197169D01*
Y-196969D01*
X-368900Y-196869D01*
X-369033Y-196969D01*
Y-197169D01*
X-368900Y-197269D01*
G01Y-194569D02*
X-368767Y-194469D01*
Y-194269D01*
X-368900Y-194169D01*
X-369033Y-194269D01*
Y-194469D01*
X-368900Y-194569D01*
G01X-369500Y1315431D02*
Y1345431D01*
G01X-302000Y-189569D02*
Y-264569D01*
G01Y-230569D02*
X-184500D01*
G01X-302000Y-242069D02*
X-184500D01*
G01X-302000Y-252569D02*
X-184500D01*
G01X-198750Y-212819D02*
X-199417Y-213444D01*
X-200167Y-213819D01*
X-200833D01*
X-201500Y-213444D01*
X-202000Y-212819D01*
X-202250Y-211944D01*
X-202083Y-211069D01*
X-201667Y-210319D01*
X-200917Y-209818D01*
X-199917Y-209569D01*
X-199333Y-209069D01*
X-199083Y-208194D01*
X-199250Y-207319D01*
X-199667Y-206694D01*
X-200250Y-206319D01*
X-200833D01*
X-201417Y-206568D01*
X-201917Y-207194D01*
G01X-208667Y-213819D02*
X-205333D01*
Y-206319D01*
X-208667D01*
G01X-207333Y-209944D02*
X-205333D01*
G01X-215333Y-206944D02*
X-214833Y-206568D01*
X-214250Y-206319D01*
X-213583D01*
X-212833Y-206694D01*
X-212250Y-207319D01*
X-211833Y-208069D01*
X-211500Y-209319D01*
X-211417Y-210444D01*
X-211583Y-211569D01*
X-211833Y-212319D01*
X-212333Y-213069D01*
X-212917Y-213569D01*
X-213500Y-213819D01*
X-214083D01*
X-214667Y-213569D01*
X-215167Y-213194D01*
X-215583Y-212694D01*
G01X-220000Y-213819D02*
X-219333Y-213694D01*
X-218750Y-213194D01*
X-218250Y-212444D01*
X-217917Y-211569D01*
X-217750Y-210569D01*
Y-209569D01*
X-217917Y-208569D01*
X-218250Y-207694D01*
X-218750Y-206944D01*
X-219333Y-206444D01*
X-220000Y-206319D01*
X-220667Y-206444D01*
X-221250Y-206944D01*
X-221750Y-207694D01*
X-222083Y-208569D01*
X-222250Y-209569D01*
Y-210569D01*
X-222083Y-211569D01*
X-221750Y-212444D01*
X-221250Y-213194D01*
X-220667Y-213694D01*
X-220000Y-213819D01*
G01X-224583D02*
Y-206319D01*
X-228417Y-213819D01*
Y-206319D01*
G01X-231167Y-213819D02*
Y-206319D01*
X-232833D01*
X-233500Y-206694D01*
X-234000Y-207194D01*
X-234417Y-207944D01*
X-234750Y-208819D01*
X-234833Y-210069D01*
X-234750Y-211319D01*
X-234417Y-212194D01*
X-234000Y-212944D01*
X-233500Y-213444D01*
X-232833Y-213819D01*
X-231167D01*
G01X-237417D02*
X-239500Y-206319D01*
X-241583Y-213819D01*
G01X-240833Y-211194D02*
X-238167D01*
G01X-244333Y-213819D02*
Y-206319D01*
X-246417D01*
X-247083Y-206694D01*
X-247500Y-207194D01*
X-247667Y-208194D01*
X-247500Y-209194D01*
X-247000Y-209818D01*
X-246417Y-210194D01*
X-244333D01*
G01X-246417D02*
X-247667Y-213819D01*
G01X-252500D02*
Y-210444D01*
X-250833Y-206319D01*
G01X-254167D02*
X-252500Y-210444D01*
G01X-257917Y-211319D02*
X-260083D01*
G01X-263750Y-212819D02*
X-264417Y-213444D01*
X-265167Y-213819D01*
X-265833D01*
X-266500Y-213444D01*
X-267000Y-212819D01*
X-267250Y-211944D01*
X-267083Y-211069D01*
X-266667Y-210319D01*
X-265917Y-209818D01*
X-264917Y-209569D01*
X-264333Y-209069D01*
X-264083Y-208194D01*
X-264250Y-207319D01*
X-264667Y-206694D01*
X-265250Y-206319D01*
X-265833D01*
X-266417Y-206568D01*
X-266917Y-207194D01*
G01X-271000Y-206319D02*
X-273000D01*
G01X-272000D02*
Y-213819D01*
G01X-271000D02*
X-273000D01*
G01X-276667D02*
Y-206319D01*
X-278333D01*
X-279000Y-206694D01*
X-279500Y-207194D01*
X-279917Y-207944D01*
X-280250Y-208819D01*
X-280333Y-210069D01*
X-280250Y-211319D01*
X-279917Y-212194D01*
X-279500Y-212944D01*
X-279000Y-213444D01*
X-278333Y-213819D01*
X-276667D01*
G01X-286667D02*
X-283333D01*
Y-206319D01*
X-286667D01*
G01X-285333Y-209944D02*
X-283333D01*
G01X-237417Y-201319D02*
X-239500Y-193819D01*
X-241583Y-201319D01*
G01X-240833Y-198694D02*
X-238167D01*
G01X-244250Y-200319D02*
X-244917Y-200944D01*
X-245667Y-201319D01*
X-246333D01*
X-247000Y-200944D01*
X-247500Y-200319D01*
X-247750Y-199444D01*
X-247583Y-198569D01*
X-247167Y-197819D01*
X-246417Y-197318D01*
X-245417Y-197069D01*
X-244833Y-196569D01*
X-244583Y-195694D01*
X-244750Y-194819D01*
X-245167Y-194194D01*
X-245750Y-193819D01*
X-246333D01*
X-246917Y-194068D01*
X-247417Y-194694D01*
G01X-250750Y-200319D02*
X-251417Y-200944D01*
X-252167Y-201319D01*
X-252833D01*
X-253500Y-200944D01*
X-254000Y-200319D01*
X-254250Y-199444D01*
X-254083Y-198569D01*
X-253667Y-197819D01*
X-252917Y-197318D01*
X-251917Y-197069D01*
X-251333Y-196569D01*
X-251083Y-195694D01*
X-251250Y-194819D01*
X-251667Y-194194D01*
X-252250Y-193819D01*
X-252833D01*
X-253417Y-194068D01*
X-253917Y-194694D01*
G01X-260667Y-201319D02*
X-257333D01*
Y-193819D01*
X-260667D01*
G01X-259333Y-197444D02*
X-257333D01*
G01X-263333Y-201319D02*
Y-193819D01*
X-265500Y-200069D01*
X-267667Y-193819D01*
Y-201319D01*
G01X-272667Y-197318D02*
X-273000Y-196944D01*
X-273250Y-196319D01*
X-273417Y-195444D01*
X-273250Y-194694D01*
X-272917Y-194194D01*
X-272333Y-193819D01*
X-270083D01*
Y-201319D01*
X-272833D01*
X-273417Y-200819D01*
X-273750Y-200069D01*
X-273917Y-199194D01*
X-273750Y-198319D01*
X-273250Y-197569D01*
X-272667Y-197318D01*
X-270083D01*
G01X-276833Y-193819D02*
Y-201319D01*
X-280167D01*
G01X-285000D02*
Y-197944D01*
X-283333Y-193819D01*
G01X-286667D02*
X-285000Y-197944D01*
G01X-302000Y-219569D02*
X-184500D01*
G01X-190750Y1275431D02*
Y1285431D01*
X-193875D01*
X-194875Y1284931D01*
X-195500Y1284265D01*
X-195750Y1282931D01*
X-195500Y1281598D01*
X-194750Y1280765D01*
X-193875Y1280265D01*
X-190750D01*
G01X-193875D02*
X-195750Y1275431D01*
G01X-205750D02*
X-200750D01*
Y1285431D01*
X-205750D01*
G01X-203750Y1280598D02*
X-200750D01*
G01X-210125Y1285431D02*
X-213250Y1275431D01*
X-216375Y1285431D01*
G01X-221750D02*
X-224750D01*
G01X-223250D02*
Y1275431D01*
G01X-221750D02*
X-224750D01*
G01X-230625Y1276764D02*
X-231625Y1275931D01*
X-232750Y1275431D01*
X-233750D01*
X-234750Y1275931D01*
X-235500Y1276764D01*
X-235875Y1277932D01*
X-235625Y1279098D01*
X-235000Y1280098D01*
X-233875Y1280765D01*
X-232375Y1281098D01*
X-231500Y1281765D01*
X-231125Y1282931D01*
X-231375Y1284098D01*
X-232000Y1284931D01*
X-232875Y1285431D01*
X-233750D01*
X-234625Y1285098D01*
X-235375Y1284265D01*
G01X-241750Y1285431D02*
X-244750D01*
G01X-243250D02*
Y1275431D01*
G01X-241750D02*
X-244750D01*
G01X-253250D02*
X-252250Y1275598D01*
X-251375Y1276265D01*
X-250625Y1277265D01*
X-250125Y1278431D01*
X-249875Y1279765D01*
Y1281098D01*
X-250125Y1282431D01*
X-250625Y1283598D01*
X-251375Y1284598D01*
X-252250Y1285265D01*
X-253250Y1285431D01*
X-254250Y1285265D01*
X-255125Y1284598D01*
X-255875Y1283598D01*
X-256375Y1282431D01*
X-256625Y1281098D01*
Y1279765D01*
X-256375Y1278431D01*
X-255875Y1277265D01*
X-255125Y1276265D01*
X-254250Y1275598D01*
X-253250Y1275431D01*
G01X-260375D02*
Y1285431D01*
X-266125Y1275431D01*
Y1285431D01*
G01X-270625Y1276764D02*
X-271625Y1275931D01*
X-272750Y1275431D01*
X-273750D01*
X-274750Y1275931D01*
X-275500Y1276764D01*
X-275875Y1277932D01*
X-275625Y1279098D01*
X-275000Y1280098D01*
X-273875Y1280765D01*
X-272375Y1281098D01*
X-271500Y1281765D01*
X-271125Y1282931D01*
X-271375Y1284098D01*
X-272000Y1284931D01*
X-272875Y1285431D01*
X-273750D01*
X-274625Y1285098D01*
X-275375Y1284265D01*
G01X-230460Y-234569D02*
X-231740D01*
G01X-231100D02*
Y-239569D01*
G01X-230460D02*
X-231740D01*
G01X-234073D02*
Y-234569D01*
X-236527Y-239569D01*
Y-234569D01*
G01X-238860D02*
X-240140D01*
G01X-239500D02*
Y-239569D01*
G01X-238860D02*
X-240140D01*
G01X-243700Y-234569D02*
Y-239569D01*
G01X-242473Y-234569D02*
X-244927D01*
G01X-247260D02*
X-248540D01*
G01X-247900D02*
Y-239569D01*
G01X-247260D02*
X-248540D01*
G01X-250767D02*
X-252100Y-234569D01*
X-253433Y-239569D01*
G01X-252953Y-237819D02*
X-251247D01*
G01X-255233Y-234569D02*
Y-239569D01*
X-257367D01*
G01X-189927Y-228569D02*
Y-223569D01*
X-190993D01*
X-191420Y-223819D01*
X-191740Y-224152D01*
X-192007Y-224652D01*
X-192220Y-225235D01*
X-192273Y-226069D01*
X-192220Y-226902D01*
X-192007Y-227485D01*
X-191740Y-227985D01*
X-191420Y-228319D01*
X-190993Y-228569D01*
X-189927D01*
G01X-196367D02*
X-194233D01*
Y-223569D01*
X-196367D01*
G01X-195513Y-225985D02*
X-194233D01*
G01X-198380Y-227902D02*
X-198807Y-228319D01*
X-199287Y-228569D01*
X-199713D01*
X-200140Y-228319D01*
X-200460Y-227902D01*
X-200620Y-227319D01*
X-200513Y-226735D01*
X-200247Y-226235D01*
X-199767Y-225902D01*
X-199127Y-225735D01*
X-198753Y-225402D01*
X-198593Y-224819D01*
X-198700Y-224235D01*
X-198967Y-223819D01*
X-199340Y-223569D01*
X-199713D01*
X-200087Y-223735D01*
X-200407Y-224152D01*
G01X-203060Y-223569D02*
X-204340D01*
G01X-203700D02*
Y-228569D01*
G01X-203060D02*
X-204340D01*
G01X-208220Y-226069D02*
X-209287D01*
Y-227569D01*
X-208967Y-228069D01*
X-208593Y-228402D01*
X-208060Y-228569D01*
X-207527Y-228402D01*
X-207153Y-228069D01*
X-206833Y-227569D01*
X-206620Y-226985D01*
X-206513Y-226319D01*
Y-225735D01*
X-206620Y-225235D01*
X-206833Y-224652D01*
X-207153Y-224152D01*
X-207473Y-223819D01*
X-207900Y-223569D01*
X-208273D01*
X-208700Y-223735D01*
X-209020Y-224069D01*
G01X-210873Y-228569D02*
Y-223569D01*
X-213327Y-228569D01*
Y-223569D01*
G01X-217367Y-228569D02*
X-215233D01*
Y-223569D01*
X-217367D01*
G01X-216513Y-225985D02*
X-215233D01*
G01X-219433Y-228569D02*
Y-223569D01*
X-220767D01*
X-221193Y-223819D01*
X-221460Y-224152D01*
X-221567Y-224819D01*
X-221460Y-225485D01*
X-221140Y-225902D01*
X-220767Y-226152D01*
X-219433D01*
G01X-220767D02*
X-221567Y-228569D01*
G01X-224700Y-228735D02*
X-224593Y-228652D01*
Y-228485D01*
X-224700Y-228402D01*
X-224807Y-228485D01*
Y-228652D01*
X-224700Y-228735D01*
G01Y-226485D02*
X-224593Y-226402D01*
Y-226235D01*
X-224700Y-226152D01*
X-224807Y-226235D01*
Y-226402D01*
X-224700Y-226485D01*
G01X-192273Y-234985D02*
X-191953Y-234735D01*
X-191580Y-234569D01*
X-191153D01*
X-190673Y-234819D01*
X-190300Y-235235D01*
X-190033Y-235735D01*
X-189820Y-236569D01*
X-189767Y-237319D01*
X-189873Y-238069D01*
X-190033Y-238569D01*
X-190353Y-239069D01*
X-190727Y-239402D01*
X-191100Y-239569D01*
X-191473D01*
X-191847Y-239402D01*
X-192167Y-239152D01*
X-192433Y-238819D01*
G01X-194180Y-239569D02*
Y-234569D01*
G01X-196420D02*
Y-239569D01*
G01Y-237069D02*
X-194180D01*
G01X-200567Y-239569D02*
X-198433D01*
Y-234569D01*
X-200567D01*
G01X-199713Y-236985D02*
X-198433D01*
G01X-204873Y-234985D02*
X-204553Y-234735D01*
X-204180Y-234569D01*
X-203753D01*
X-203273Y-234819D01*
X-202900Y-235235D01*
X-202633Y-235735D01*
X-202420Y-236569D01*
X-202367Y-237319D01*
X-202473Y-238069D01*
X-202633Y-238569D01*
X-202953Y-239069D01*
X-203327Y-239402D01*
X-203700Y-239569D01*
X-204073D01*
X-204447Y-239402D01*
X-204767Y-239152D01*
X-205033Y-238819D01*
G01X-206727Y-239569D02*
Y-234569D01*
G01X-208753D02*
X-206727Y-237652D01*
G01X-209073Y-239569D02*
X-207633Y-236235D01*
G01X-213167Y-239569D02*
X-211033D01*
Y-234569D01*
X-213167D01*
G01X-212313Y-236985D02*
X-211033D01*
G01X-215233Y-239569D02*
Y-234569D01*
X-216567D01*
X-216993Y-234819D01*
X-217260Y-235152D01*
X-217367Y-235819D01*
X-217260Y-236485D01*
X-216940Y-236902D01*
X-216567Y-237152D01*
X-215233D01*
G01X-216567D02*
X-217367Y-239569D01*
G01X-220500Y-239735D02*
X-220393Y-239652D01*
Y-239485D01*
X-220500Y-239402D01*
X-220607Y-239485D01*
Y-239652D01*
X-220500Y-239735D01*
G01Y-237485D02*
X-220393Y-237402D01*
Y-237235D01*
X-220500Y-237152D01*
X-220607Y-237235D01*
Y-237402D01*
X-220500Y-237485D01*
G01X-230033Y-228569D02*
Y-223569D01*
X-231313D01*
X-231740Y-223819D01*
X-232060Y-224402D01*
X-232167Y-225069D01*
X-232060Y-225735D01*
X-231793Y-226235D01*
X-231313Y-226485D01*
X-230033D01*
G01X-235300Y-223569D02*
Y-228569D01*
G01X-234073Y-223569D02*
X-236527D01*
G01X-240567Y-228569D02*
X-238433D01*
Y-223569D01*
X-240567D01*
G01X-239713Y-225985D02*
X-238433D01*
G01X-244873Y-223985D02*
X-244553Y-223735D01*
X-244180Y-223569D01*
X-243753D01*
X-243273Y-223819D01*
X-242900Y-224235D01*
X-242633Y-224735D01*
X-242420Y-225569D01*
X-242367Y-226319D01*
X-242473Y-227069D01*
X-242633Y-227569D01*
X-242953Y-228069D01*
X-243327Y-228402D01*
X-243700Y-228569D01*
X-244073D01*
X-244447Y-228402D01*
X-244767Y-228152D01*
X-245033Y-227819D01*
G01X-217087Y-246402D02*
X-217407Y-245902D01*
X-217780Y-245652D01*
X-218207Y-245569D01*
X-218740Y-245735D01*
X-219113Y-246152D01*
X-219220Y-246652D01*
X-219167Y-247152D01*
X-218953Y-247569D01*
X-217887Y-248402D01*
X-217407Y-248985D01*
X-217087Y-249819D01*
X-216980Y-250569D01*
X-219220D01*
G01X-222300Y-245569D02*
X-221873Y-245735D01*
X-221553Y-246152D01*
X-221340Y-246652D01*
X-221180Y-247319D01*
X-221127Y-248069D01*
X-221180Y-248819D01*
X-221340Y-249485D01*
X-221553Y-249985D01*
X-221873Y-250402D01*
X-222300Y-250569D01*
X-222727Y-250402D01*
X-223047Y-249985D01*
X-223260Y-249485D01*
X-223420Y-248819D01*
X-223473Y-248069D01*
X-223420Y-247319D01*
X-223260Y-246652D01*
X-223047Y-246152D01*
X-222727Y-245735D01*
X-222300Y-245569D01*
G01X-226500Y-250569D02*
Y-245569D01*
X-225860Y-246568D01*
G01Y-250569D02*
X-227140D01*
G01X-229687Y-248485D02*
X-230060Y-247902D01*
X-230380Y-247569D01*
X-230807Y-247402D01*
X-231180Y-247569D01*
X-231447Y-247902D01*
X-231660Y-248402D01*
X-231713Y-248985D01*
X-231660Y-249485D01*
X-231447Y-249985D01*
X-231127Y-250402D01*
X-230753Y-250569D01*
X-230327Y-250402D01*
X-229953Y-249902D01*
X-229740Y-249152D01*
X-229687Y-248319D01*
X-229793Y-247235D01*
X-229953Y-246652D01*
X-230220Y-246069D01*
X-230593Y-245652D01*
X-230967Y-245569D01*
X-231340Y-245735D01*
X-231607Y-246152D01*
G01X-234207Y-248902D02*
X-235593D01*
G01X-239100Y-245569D02*
X-238673Y-245735D01*
X-238353Y-246152D01*
X-238140Y-246652D01*
X-237980Y-247319D01*
X-237927Y-248069D01*
X-237980Y-248819D01*
X-238140Y-249485D01*
X-238353Y-249985D01*
X-238673Y-250402D01*
X-239100Y-250569D01*
X-239527Y-250402D01*
X-239847Y-249985D01*
X-240060Y-249485D01*
X-240220Y-248819D01*
X-240273Y-248069D01*
X-240220Y-247319D01*
X-240060Y-246652D01*
X-239847Y-246152D01*
X-239527Y-245735D01*
X-239100Y-245569D01*
G01X-242127Y-249569D02*
X-242447Y-250152D01*
X-242873Y-250485D01*
X-243353Y-250569D01*
X-243780Y-250485D01*
X-244207Y-250069D01*
X-244473Y-249569D01*
X-244527Y-249069D01*
X-244420Y-248485D01*
X-244047Y-248069D01*
X-243673Y-247902D01*
X-243193D01*
G01X-243673D02*
X-243993Y-247652D01*
X-244260Y-247235D01*
X-244367Y-246735D01*
X-244260Y-246235D01*
X-243993Y-245819D01*
X-243513Y-245569D01*
X-243033Y-245652D01*
X-242553Y-245985D01*
G01X-246807Y-248902D02*
X-248193D01*
G01X-251700Y-250569D02*
Y-245569D01*
X-251060Y-246568D01*
G01Y-250569D02*
X-252340D01*
G01X-255900D02*
X-256273Y-250485D01*
X-256700Y-250235D01*
X-256967Y-249819D01*
X-257073Y-249235D01*
X-256967Y-248652D01*
X-256647Y-248152D01*
X-256167Y-247902D01*
X-255633D01*
X-255313Y-247735D01*
X-255047Y-247319D01*
X-254940Y-246735D01*
X-255100Y-246152D01*
X-255473Y-245735D01*
X-255900Y-245569D01*
X-256327Y-245735D01*
X-256700Y-246152D01*
X-256860Y-246735D01*
X-256753Y-247319D01*
X-256487Y-247735D01*
X-256167Y-247902D01*
X-255633D01*
X-255153Y-248152D01*
X-254833Y-248652D01*
X-254727Y-249235D01*
X-254833Y-249819D01*
X-255100Y-250235D01*
X-255527Y-250485D01*
X-255900Y-250569D01*
G01X-130500Y1245431D02*
Y1255431D01*
X-133000D01*
X-134000Y1254931D01*
X-134750Y1254265D01*
X-135375Y1253265D01*
X-135875Y1252098D01*
X-136000Y1250431D01*
X-135875Y1248765D01*
X-135375Y1247598D01*
X-134750Y1246598D01*
X-134000Y1245931D01*
X-133000Y1245431D01*
X-130500D01*
G01X-145750D02*
X-140750D01*
Y1255431D01*
X-145750D01*
G01X-143750Y1250598D02*
X-140750D01*
G01X-150625Y1246764D02*
X-151625Y1245931D01*
X-152750Y1245431D01*
X-153750D01*
X-154750Y1245931D01*
X-155500Y1246764D01*
X-155875Y1247932D01*
X-155625Y1249098D01*
X-155000Y1250098D01*
X-153875Y1250765D01*
X-152375Y1251098D01*
X-151500Y1251765D01*
X-151125Y1252931D01*
X-151375Y1254098D01*
X-152000Y1254931D01*
X-152875Y1255431D01*
X-153750D01*
X-154625Y1255098D01*
X-155375Y1254265D01*
G01X-166000Y1254598D02*
X-165250Y1255098D01*
X-164375Y1255431D01*
X-163375D01*
X-162250Y1254931D01*
X-161375Y1254098D01*
X-160750Y1253098D01*
X-160250Y1251431D01*
X-160125Y1249931D01*
X-160375Y1248431D01*
X-160750Y1247431D01*
X-161500Y1246431D01*
X-162375Y1245765D01*
X-163250Y1245431D01*
X-164125D01*
X-165000Y1245765D01*
X-165750Y1246265D01*
X-166375Y1246931D01*
G01X-170750Y1245431D02*
Y1255431D01*
X-173875D01*
X-174875Y1254931D01*
X-175500Y1254265D01*
X-175750Y1252931D01*
X-175500Y1251598D01*
X-174750Y1250765D01*
X-173875Y1250265D01*
X-170750D01*
G01X-173875D02*
X-175750Y1245431D01*
G01X-181750Y1255431D02*
X-184750D01*
G01X-183250D02*
Y1245431D01*
G01X-181750D02*
X-184750D01*
G01X-190750D02*
Y1255431D01*
X-193750D01*
X-194750Y1254931D01*
X-195500Y1253765D01*
X-195750Y1252431D01*
X-195500Y1251098D01*
X-194875Y1250098D01*
X-193750Y1249598D01*
X-190750D01*
G01X-203250Y1255431D02*
Y1245431D01*
G01X-200375Y1255431D02*
X-206125D01*
G01X-211750D02*
X-214750D01*
G01X-213250D02*
Y1245431D01*
G01X-211750D02*
X-214750D01*
G01X-223250D02*
X-222250Y1245598D01*
X-221375Y1246265D01*
X-220625Y1247265D01*
X-220125Y1248431D01*
X-219875Y1249765D01*
Y1251098D01*
X-220125Y1252431D01*
X-220625Y1253598D01*
X-221375Y1254598D01*
X-222250Y1255265D01*
X-223250Y1255431D01*
X-224250Y1255265D01*
X-225125Y1254598D01*
X-225875Y1253598D01*
X-226375Y1252431D01*
X-226625Y1251098D01*
Y1249765D01*
X-226375Y1248431D01*
X-225875Y1247265D01*
X-225125Y1246265D01*
X-224250Y1245598D01*
X-223250Y1245431D01*
G01X-230375D02*
Y1255431D01*
X-236125Y1245431D01*
Y1255431D01*
G01X-190927Y-250569D02*
Y-245569D01*
X-191993D01*
X-192420Y-245819D01*
X-192740Y-246152D01*
X-193007Y-246652D01*
X-193220Y-247235D01*
X-193273Y-248069D01*
X-193220Y-248902D01*
X-193007Y-249485D01*
X-192740Y-249985D01*
X-192420Y-250319D01*
X-191993Y-250569D01*
X-190927D01*
G01X-194967D02*
X-196300Y-245569D01*
X-197633Y-250569D01*
G01X-197153Y-248819D02*
X-195447D01*
G01X-200500Y-245569D02*
Y-250569D01*
G01X-199273Y-245569D02*
X-201727D01*
G01X-205767Y-250569D02*
X-203633D01*
Y-245569D01*
X-205767D01*
G01X-204913Y-247985D02*
X-203633D01*
G01X-208900Y-250735D02*
X-208793Y-250652D01*
Y-250485D01*
X-208900Y-250402D01*
X-209007Y-250485D01*
Y-250652D01*
X-208900Y-250735D01*
G01Y-248485D02*
X-208793Y-248402D01*
Y-248235D01*
X-208900Y-248152D01*
X-209007Y-248235D01*
Y-248402D01*
X-208900Y-248485D01*
G01X-190033Y-260569D02*
X-190300Y-261069D01*
X-190620Y-261402D01*
X-190993Y-261569D01*
X-191420Y-261402D01*
X-191740Y-261069D01*
X-192060Y-260569D01*
X-192167Y-259902D01*
Y-256569D01*
G01X-195300Y-261569D02*
X-194873Y-261485D01*
X-194500Y-261152D01*
X-194180Y-260652D01*
X-193967Y-260069D01*
X-193860Y-259402D01*
Y-258735D01*
X-193967Y-258069D01*
X-194180Y-257485D01*
X-194500Y-256985D01*
X-194873Y-256652D01*
X-195300Y-256569D01*
X-195727Y-256652D01*
X-196100Y-256985D01*
X-196420Y-257485D01*
X-196633Y-258069D01*
X-196740Y-258735D01*
Y-259402D01*
X-196633Y-260069D01*
X-196420Y-260652D01*
X-196100Y-261152D01*
X-195727Y-261485D01*
X-195300Y-261569D01*
G01X-199927Y-258902D02*
X-200140Y-258652D01*
X-200300Y-258235D01*
X-200407Y-257652D01*
X-200300Y-257152D01*
X-200087Y-256819D01*
X-199713Y-256569D01*
X-198273D01*
Y-261569D01*
X-200033D01*
X-200407Y-261235D01*
X-200620Y-260735D01*
X-200727Y-260152D01*
X-200620Y-259569D01*
X-200300Y-259069D01*
X-199927Y-258902D01*
X-198273D01*
G01X-202633Y-263235D02*
X-203700Y-256569D01*
G01X-204767D02*
X-203700Y-263235D01*
G01X-202100Y-260735D02*
X-205300D01*
G01Y-259069D02*
X-202100D01*
G01X-207900Y-261735D02*
X-207793Y-261652D01*
Y-261485D01*
X-207900Y-261402D01*
X-208007Y-261485D01*
Y-261652D01*
X-207900Y-261735D01*
G01Y-259485D02*
X-207793Y-259402D01*
Y-259235D01*
X-207900Y-259152D01*
X-208007Y-259235D01*
Y-259402D01*
X-207900Y-259485D01*
G01X-184500Y-189569D02*
Y-264569D01*
G01X-138479Y-234580D02*
G03I-355J0D01*
G01X-138549Y-234710D02*
G03I-355J0D01*
G01X-138589Y-234860D02*
G03I-355J0D01*
G01X-138609Y-235020D02*
G03I-355J0D01*
G01X-138589Y-235190D02*
G03I-355J0D01*
G01X-138539Y-235350D02*
G03I-355J0D01*
G01X-138469Y-235500D02*
G03I-355J0D01*
G01X-137809Y-234220D02*
G03I-355J0D01*
G01X-137969Y-234240D02*
G03I-355J0D01*
G01X-138119Y-234280D02*
G03I-355J0D01*
G01X-138249Y-234350D02*
G03I-355J0D01*
G01X-138379Y-234450D02*
G03I-355J0D01*
G01X-138359Y-235630D02*
G03I-355J0D01*
G01X-138229Y-235740D02*
G03I-355J0D01*
G01X-138079Y-235810D02*
G03I-355J0D01*
G01X-137919Y-235860D02*
G03I-355J0D01*
G01X-137749Y-235880D02*
G03I-355J0D01*
G01X-138369Y-237530D02*
G03I-355J0D01*
G01X-137469Y-235880D02*
G03I-355J0D01*
G01D02*
G03I-355J0D01*
G01X-138609Y-226500D02*
G03I-355J0D01*
G01Y-227190D02*
G03I-355J0D01*
G01Y-227890D02*
G03I-355J0D01*
G01Y-228580D02*
G03I-355J0D01*
G01Y-229280D02*
G03I-355J0D01*
G01Y-229730D02*
G03I-355J0D01*
G01X-135538Y-234220D02*
G03I-355J0D01*
G01D02*
G03I-355J0D01*
G01Y-235880D02*
G03I-355J0D01*
G01D02*
G03I-355J0D01*
G01Y-237530D02*
G03I-355J0D01*
G01X-133409Y-235500D02*
G03I-355J0D01*
G01X-133389Y-235280D02*
G03I-355J0D01*
G01X-133409Y-236230D02*
G03I-355J0D01*
G01X-133389Y-236460D02*
G03I-355J0D01*
G01X-133409Y-236230D02*
G03I-355J0D01*
G01X-133329Y-235060D02*
G03I-355J0D01*
G01X-133238Y-234860D02*
G03I-355J0D01*
G01X-133109Y-234680D02*
G03I-355J0D01*
G01X-132949Y-234520D02*
G03I-355J0D01*
G01X-132769Y-234390D02*
G03I-355J0D01*
G01X-132569Y-234300D02*
G03I-355J0D01*
G01X-133329Y-236670D02*
G03I-355J0D01*
G01X-132549Y-237450D02*
G03I-355J0D01*
G01X-132759Y-237360D02*
G03I-355J0D01*
G01X-132949Y-237230D02*
G03I-355J0D01*
G01X-133109Y-237070D02*
G03I-355J0D01*
G01X-133238Y-236880D02*
G03I-355J0D01*
G01X-132349Y-234240D02*
G03I-355J0D01*
G01X-132129Y-234220D02*
G03I-355J0D01*
G01X-132109Y-237530D02*
G03I-355J0D01*
G01X-132338Y-237510D02*
G03I-355J0D01*
G01X-131389Y-234220D02*
G03I-355J0D01*
G01X-131169Y-234240D02*
G03I-355J0D01*
G01X-130949Y-234300D02*
G03I-355J0D01*
G01X-130829Y-237390D02*
G03I-355J0D01*
G01X-131019Y-237470D02*
G03I-355J0D01*
G01X-131219Y-237510D02*
G03I-355J0D01*
G01X-131419Y-237530D02*
G03I-355J0D01*
G01X-130749Y-234390D02*
G03I-355J0D01*
G01X-130179Y-235070D02*
G03I-355J0D01*
G01X-130119Y-235290D02*
G03I-355J0D01*
G01X-130099Y-235510D02*
G03I-355J0D01*
G01X-130109D02*
G03I-355J0D01*
G01Y-236220D02*
G03I-355J0D01*
G01X-130129Y-236420D02*
G03I-355J0D01*
G01X-130169Y-236620D02*
G03I-355J0D01*
G01X-130559Y-234520D02*
G03I-355J0D01*
G01X-130399Y-234680D02*
G03I-355J0D01*
G01X-130269Y-234860D02*
G03I-355J0D01*
G01X-130249Y-236810D02*
G03I-355J0D01*
G01X-130359Y-236990D02*
G03I-355J0D01*
G01X-130489Y-237150D02*
G03I-355J0D01*
G01X-130649Y-237280D02*
G03I-355J0D01*
G01X-127979Y-234220D02*
G03I-355J0D01*
G01X-126559D02*
G03I-355J0D01*
G01D02*
G03I-355J0D01*
G01Y-237530D02*
G03I-355J0D01*
G01X-135538Y-226500D02*
G03I-355J0D01*
G01Y-227190D02*
G03I-355J0D01*
G01Y-227890D02*
G03I-355J0D01*
G01Y-228580D02*
G03I-355J0D01*
G01Y-229280D02*
G03I-355J0D01*
G01X-132469Y-226500D02*
G03I-355J0D01*
G01Y-227190D02*
G03I-355J0D01*
G01Y-227890D02*
G03I-355J0D01*
G01Y-228580D02*
G03I-355J0D01*
G01Y-229280D02*
G03I-355J0D01*
G01X-135538Y-229730D02*
G03I-355J0D01*
G01X-132469D02*
G03I-355J0D01*
G01X-129159Y-226500D02*
G03I-355J0D01*
G01Y-227190D02*
G03I-355J0D01*
G01Y-227890D02*
G03I-355J0D01*
G01Y-228580D02*
G03I-355J0D01*
G01Y-229280D02*
G03I-355J0D01*
G01Y-229730D02*
G03I-355J0D01*
G01X-126089Y-226500D02*
G03I-355J0D01*
G01Y-227890D02*
G03I-355J0D01*
G01Y-227190D02*
G03I-355J0D01*
G01Y-228580D02*
G03I-355J0D01*
G01Y-229280D02*
G03I-355J0D01*
G01Y-229730D02*
G03I-355J0D01*
G01X-138559Y-219220D02*
G03I-355J0D01*
G01X-138609Y-219770D02*
G03I-355J0D01*
G01X-138589Y-219560D02*
G03I-355J0D01*
G01X-138609Y-220250D02*
G03I-355J0D01*
G01X-138399Y-218690D02*
G03I-355J0D01*
G01X-138119Y-218210D02*
G03I-355J0D01*
G01X-137739Y-217800D02*
G03I-355J0D01*
G01X-138079Y-218170D02*
G03I-355J0D01*
G01X-138449Y-218860D02*
G03I-355J0D01*
G01X-137299Y-217480D02*
G03I-355J0D01*
G01X-137089Y-217320D02*
G03I-355J0D01*
G01D02*
G03I-355J0D01*
G01X-136359Y-216960D02*
G03I-355J0D01*
G01X-138609Y-222330D02*
G03I-355J0D01*
G01Y-223030D02*
G03I-355J0D01*
G01Y-223720D02*
G03I-355J0D01*
G01Y-224420D02*
G03I-355J0D01*
G01Y-225110D02*
G03I-355J0D01*
G01Y-225800D02*
G03I-355J0D01*
G01Y-220950D02*
G03I-355J0D01*
G01Y-221640D02*
G03I-355J0D01*
G01X-135719Y-216780D02*
G03I-355J0D01*
G01X-135579Y-216740D02*
G03I-355J0D01*
G01X-135249Y-218600D02*
G03I-355J0D01*
G01X-135409Y-218840D02*
G03I-355J0D01*
G01X-135509Y-219120D02*
G03I-355J0D01*
G01X-135538Y-219420D02*
G03I-355J0D01*
G01X-135419Y-218860D02*
G03I-355J0D01*
G01X-135538Y-219560D02*
G03I-355J0D01*
G01Y-220250D02*
G03I-355J0D01*
G01X-134549Y-218230D02*
G03I-355J0D01*
G01X-135029Y-218400D02*
G03I-355J0D01*
G01X-134038Y-218160D02*
G03I-355J0D01*
G01X-134119Y-218170D02*
G03I-355J0D01*
G01X-132579Y-218560D02*
G03I-355J0D01*
G01X-132709Y-218400D02*
G03I-355J0D01*
G01X-132879Y-218270D02*
G03I-355J0D01*
G01X-133069Y-218190D02*
G03I-355J0D01*
G01X-133279Y-218160D02*
G03I-355J0D01*
G01X-133199Y-218170D02*
G03I-355J0D01*
G01X-132499Y-218760D02*
G03I-355J0D01*
G01X-132479Y-218860D02*
G03I-355J0D01*
G01X-132469Y-218970D02*
G03I-355J0D01*
G01Y-219560D02*
G03I-355J0D01*
G01Y-220250D02*
G03I-355J0D01*
G01X-129138Y-218750D02*
G03I-355J0D01*
G01X-129159Y-218960D02*
G03I-355J0D01*
G01X-129149Y-218860D02*
G03I-355J0D01*
G01X-129159Y-219560D02*
G03I-355J0D01*
G01Y-220250D02*
G03I-355J0D01*
G01X-128929Y-218390D02*
G03I-355J0D01*
G01X-129049Y-218560D02*
G03I-355J0D01*
G01X-135538Y-222330D02*
G03I-355J0D01*
G01Y-223030D02*
G03I-355J0D01*
G01Y-223720D02*
G03I-355J0D01*
G01Y-224420D02*
G03I-355J0D01*
G01Y-225110D02*
G03I-355J0D01*
G01Y-225800D02*
G03I-355J0D01*
G01X-132469Y-222330D02*
G03I-355J0D01*
G01Y-223030D02*
G03I-355J0D01*
G01Y-223720D02*
G03I-355J0D01*
G01Y-224420D02*
G03I-355J0D01*
G01Y-225110D02*
G03I-355J0D01*
G01Y-225800D02*
G03I-355J0D01*
G01X-129159Y-222330D02*
G03I-355J0D01*
G01Y-223030D02*
G03I-355J0D01*
G01Y-223720D02*
G03I-355J0D01*
G01Y-224420D02*
G03I-355J0D01*
G01Y-225110D02*
G03I-355J0D01*
G01Y-225800D02*
G03I-355J0D01*
G01X-135538Y-220950D02*
G03I-355J0D01*
G01Y-221640D02*
G03I-355J0D01*
G01X-132469Y-220950D02*
G03I-355J0D01*
G01Y-221640D02*
G03I-355J0D01*
G01X-129159Y-220950D02*
G03I-355J0D01*
G01Y-221640D02*
G03I-355J0D01*
G01X-128359Y-218160D02*
G03I-355J0D01*
G01X-128569Y-218190D02*
G03I-355J0D01*
G01X-128759Y-218270D02*
G03I-355J0D01*
G01X-128439Y-218170D02*
G03I-355J0D01*
G01X-126699Y-218190D02*
G03I-355J0D01*
G01X-126919Y-218160D02*
G03I-355J0D01*
G01X-126839Y-218170D02*
G03I-355J0D01*
G01X-126199Y-218570D02*
G03I-355J0D01*
G01X-126329Y-218400D02*
G03I-355J0D01*
G01X-126509Y-218270D02*
G03I-355J0D01*
G01X-126089Y-218990D02*
G03I-355J0D01*
G01X-126119Y-218770D02*
G03I-355J0D01*
G01X-126109Y-218860D02*
G03I-355J0D01*
G01X-126089Y-220250D02*
G03I-355J0D01*
G01Y-219560D02*
G03I-355J0D01*
G01Y-222330D02*
G03I-355J0D01*
G01Y-223030D02*
G03I-355J0D01*
G01Y-224420D02*
G03I-355J0D01*
G01Y-223720D02*
G03I-355J0D01*
G01Y-225110D02*
G03I-355J0D01*
G01Y-225800D02*
G03I-355J0D01*
G01Y-220950D02*
G03I-355J0D01*
G01Y-221640D02*
G03I-355J0D01*
G01X-134419Y-216570D02*
G03I-355J0D01*
G01X-133259Y-216510D02*
G03I-355J0D01*
G01X-128929D02*
G03I-355J0D01*
G01X-125959Y-216600D02*
G03I-355J0D01*
G01X-118299Y-234220D02*
G03I-355J0D01*
G01Y-236220D02*
G03I-355J0D01*
G01X-118289D02*
G03I-355J0D01*
G01X-118269Y-236450D02*
G03I-355J0D01*
G01X-118209Y-236670D02*
G03I-355J0D01*
G01X-118109Y-236870D02*
G03I-355J0D01*
G01X-117979Y-237060D02*
G03I-355J0D01*
G01X-117819Y-237220D02*
G03I-355J0D01*
G01X-117639Y-237350D02*
G03I-355J0D01*
G01X-117429Y-237450D02*
G03I-355J0D01*
G01X-117209Y-237510D02*
G03I-355J0D01*
G01X-116979Y-237530D02*
G03I-355J0D01*
G01X-116459D02*
G03I-355J0D01*
G01X-116238Y-237510D02*
G03I-355J0D01*
G01X-116039Y-237460D02*
G03I-355J0D01*
G01X-115838Y-237360D02*
G03I-355J0D01*
G01X-115659Y-237240D02*
G03I-355J0D01*
G01X-115509Y-237090D02*
G03I-355J0D01*
G01X-115229Y-234220D02*
G03I-355J0D01*
G01X-115239Y-236510D02*
G03I-355J0D01*
G01X-115219Y-236290D02*
G03I-355J0D01*
G01X-115229D02*
G03I-355J0D01*
G01X-115389Y-236910D02*
G03I-355J0D01*
G01X-115289Y-236710D02*
G03I-355J0D01*
G01X-112219Y-234390D02*
G03I-355J0D01*
G01X-112399Y-234520D02*
G03I-355J0D01*
G01X-112559Y-234680D02*
G03I-355J0D01*
G01X-112859Y-235510D02*
G03I-355J0D01*
G01X-112689Y-234860D02*
G03I-355J0D01*
G01X-112779Y-235070D02*
G03I-355J0D01*
G01X-112838Y-235290D02*
G03I-355J0D01*
G01X-112859Y-235510D02*
G03I-355J0D01*
G01Y-236220D02*
G03I-355J0D01*
G01X-112838Y-236420D02*
G03I-355J0D01*
G01X-112799Y-236620D02*
G03I-355J0D01*
G01X-112719Y-236810D02*
G03I-355J0D01*
G01X-112609Y-236990D02*
G03I-355J0D01*
G01X-112479Y-237150D02*
G03I-355J0D01*
G01X-112319Y-237280D02*
G03I-355J0D01*
G01X-112139Y-237390D02*
G03I-355J0D01*
G01X-111789Y-234240D02*
G03I-355J0D01*
G01X-112009Y-234300D02*
G03I-355J0D01*
G01X-111949Y-237470D02*
G03I-355J0D01*
G01X-111749Y-237510D02*
G03I-355J0D01*
G01X-116169Y-227190D02*
G03I-355J0D01*
G01Y-226500D02*
G03I-355J0D01*
G01Y-227890D02*
G03I-355J0D01*
G01Y-228580D02*
G03I-355J0D01*
G01Y-229280D02*
G03I-355J0D01*
G01Y-229730D02*
G03I-355J0D01*
G01X-125149Y-234220D02*
G03I-355J0D01*
G01X-123259D02*
G03I-355J0D01*
G01Y-237530D02*
G03I-355J0D01*
G01X-121459Y-234220D02*
G03I-355J0D01*
G01X-121489Y-237530D02*
G03I-355J0D01*
G01X-120559Y-234740D02*
G03I-355J0D01*
G01X-120659Y-234590D02*
G03I-355J0D01*
G01X-120789Y-234460D02*
G03I-355J0D01*
G01X-120939Y-234360D02*
G03I-355J0D01*
G01X-121099Y-234280D02*
G03I-355J0D01*
G01X-121279Y-234240D02*
G03I-355J0D01*
G01X-121299Y-237510D02*
G03I-355J0D01*
G01X-121119Y-237470D02*
G03I-355J0D01*
G01X-120949Y-237390D02*
G03I-355J0D01*
G01X-120799Y-237280D02*
G03I-355J0D01*
G01X-120669Y-237150D02*
G03I-355J0D01*
G01X-120559Y-236990D02*
G03I-355J0D01*
G01X-120479Y-234900D02*
G03I-355J0D01*
G01X-120419Y-235260D02*
G03I-355J0D01*
G01X-120438Y-235080D02*
G03I-355J0D01*
G01X-120419Y-236460D02*
G03I-355J0D01*
G01X-120479Y-236830D02*
G03I-355J0D01*
G01X-120438Y-236650D02*
G03I-355J0D01*
G01X-123019Y-227190D02*
G03I-355J0D01*
G01Y-226500D02*
G03I-355J0D01*
G01Y-227890D02*
G03I-355J0D01*
G01Y-228580D02*
G03I-355J0D01*
G01Y-229280D02*
G03I-355J0D01*
G01X-119479Y-226500D02*
G03I-355J0D01*
G01Y-227890D02*
G03I-355J0D01*
G01Y-227190D02*
G03I-355J0D01*
G01Y-228580D02*
G03I-355J0D01*
G01Y-229280D02*
G03I-355J0D01*
G01X-123019Y-229730D02*
G03I-355J0D01*
G01X-119479D02*
G03I-355J0D01*
G01X-94159Y-234300D02*
G03I-355J0D01*
G01X-94369Y-234240D02*
G03I-355J0D01*
G01X-94579Y-234220D02*
G03I-355J0D01*
G01Y-237530D02*
G03I-355J0D01*
G01X-94389Y-237510D02*
G03I-355J0D01*
G01X-94209Y-237460D02*
G03I-355J0D01*
G01X-93669Y-234700D02*
G03I-355J0D01*
G01X-93809Y-234540D02*
G03I-355J0D01*
G01X-93969Y-234400D02*
G03I-355J0D01*
G01X-93489Y-235310D02*
G03I-355J0D01*
G01X-93509Y-235100D02*
G03I-355J0D01*
G01X-93569Y-234890D02*
G03I-355J0D01*
G01X-93489Y-236440D02*
G03I-355J0D01*
G01X-94029Y-237380D02*
G03I-355J0D01*
G01X-93879Y-237270D02*
G03I-355J0D01*
G01X-93749Y-237140D02*
G03I-355J0D01*
G01X-93638Y-236980D02*
G03I-355J0D01*
G01X-93559Y-236810D02*
G03I-355J0D01*
G01X-93509Y-236630D02*
G03I-355J0D01*
G01X-90889Y-234220D02*
G03I-355J0D01*
G01Y-237530D02*
G03I-355J0D01*
G01X-88299Y-234220D02*
G03I-355J0D01*
G01Y-237530D02*
G03I-355J0D01*
G01X-95069Y-228320D02*
G03I-355J0D01*
G01X-94589Y-228270D02*
G03I-355J0D01*
G01X-94119Y-228120D02*
G03I-355J0D01*
G01X-93699Y-227890D02*
G03I-355J0D01*
G01X-93338Y-227570D02*
G03I-355J0D01*
G01X-93709Y-227890D02*
G03I-355J0D01*
G01X-92729Y-226800D02*
G03I-355J0D01*
G01X-92579Y-226330D02*
G03I-355J0D01*
G01X-92639Y-226500D02*
G03I-355J0D01*
G01X-92989Y-227220D02*
G03I-355J0D01*
G01X-92969Y-227190D02*
G03I-355J0D01*
G01X-91829Y-229300D02*
G03I-355J0D01*
G01X-91769Y-229280D02*
G03I-355J0D01*
G01X-91179Y-229010D02*
G03I-355J0D01*
G01X-89879Y-227970D02*
G03I-355J0D01*
G01X-89829Y-227890D02*
G03I-355J0D01*
G01X-90189Y-228340D02*
G03I-355J0D01*
G01X-90579Y-228630D02*
G03I-355J0D01*
G01X-90509Y-228580D02*
G03I-355J0D01*
G01X-89479Y-226580D02*
G03I-355J0D01*
G01X-89509Y-227070D02*
G03I-355J0D01*
G01X-89479Y-226500D02*
G03I-355J0D01*
G01X-89649Y-227540D02*
G03I-355J0D01*
G01X-89549Y-227190D02*
G03I-355J0D01*
G01X-94559Y-229730D02*
G03I-355J0D01*
G01X-93529Y-229670D02*
G03I-355J0D01*
G01X-92509Y-229500D02*
G03I-355J0D01*
G01X-111569Y-234220D02*
G03I-355J0D01*
G01X-111549Y-237530D02*
G03I-355J0D01*
G01X-109789Y-234220D02*
G03I-355J0D01*
G01Y-237530D02*
G03I-355J0D01*
G01X-107429Y-234220D02*
G03I-355J0D01*
G01Y-237530D02*
G03I-355J0D01*
G01X-106879D02*
G03I-355J0D01*
G01X-104599Y-234220D02*
G03I-355J0D01*
G01X-104119D02*
G03I-355J0D01*
G01Y-237530D02*
G03I-355J0D01*
G01X-101459Y-234680D02*
G03I-355J0D01*
G01X-101299Y-234520D02*
G03I-355J0D01*
G01X-101109Y-234390D02*
G03I-355J0D01*
G01X-101759Y-235520D02*
G03I-355J0D01*
G01X-101739Y-235290D02*
G03I-355J0D01*
G01X-101679Y-235080D02*
G03I-355J0D01*
G01X-101589Y-234870D02*
G03I-355J0D01*
G01X-101759Y-236210D02*
G03I-355J0D01*
G01X-101699Y-236620D02*
G03I-355J0D01*
G01X-101739Y-236420D02*
G03I-355J0D01*
G01X-101759Y-236210D02*
G03I-355J0D01*
G01X-101039Y-237390D02*
G03I-355J0D01*
G01X-101219Y-237280D02*
G03I-355J0D01*
G01X-101369Y-237140D02*
G03I-355J0D01*
G01X-101509Y-236990D02*
G03I-355J0D01*
G01X-101619Y-236810D02*
G03I-355J0D01*
G01X-100899Y-234300D02*
G03I-355J0D01*
G01X-100689Y-234240D02*
G03I-355J0D01*
G01X-100459Y-234220D02*
G03I-355J0D01*
G01X-100439Y-237530D02*
G03I-355J0D01*
G01X-100649Y-237510D02*
G03I-355J0D01*
G01X-100849Y-237470D02*
G03I-355J0D01*
G01X-99719Y-234220D02*
G03I-355J0D01*
G01X-99499Y-234240D02*
G03I-355J0D01*
G01X-99289Y-234300D02*
G03I-355J0D01*
G01X-99299Y-237450D02*
G03I-355J0D01*
G01X-99519Y-237510D02*
G03I-355J0D01*
G01X-99738Y-237530D02*
G03I-355J0D01*
G01X-99089Y-234390D02*
G03I-355J0D01*
G01X-98899Y-234520D02*
G03I-355J0D01*
G01X-98749Y-234670D02*
G03I-355J0D01*
G01X-98619Y-234850D02*
G03I-355J0D01*
G01X-98529Y-235060D02*
G03I-355J0D01*
G01X-98469Y-235270D02*
G03I-355J0D01*
G01X-98449Y-235490D02*
G03I-355J0D01*
G01Y-236240D02*
G03I-355J0D01*
G01X-98469Y-236460D02*
G03I-355J0D01*
G01X-98529Y-236680D02*
G03I-355J0D01*
G01X-98619Y-236880D02*
G03I-355J0D01*
G01X-98749Y-237070D02*
G03I-355J0D01*
G01X-98909Y-237230D02*
G03I-355J0D01*
G01X-99089Y-237360D02*
G03I-355J0D01*
G01X-96329Y-234220D02*
G03I-355J0D01*
G01Y-237530D02*
G03I-355J0D01*
G01X-109079Y-226500D02*
G03I-355J0D01*
G01Y-227190D02*
G03I-355J0D01*
G01Y-227890D02*
G03I-355J0D01*
G01Y-228580D02*
G03I-355J0D01*
G01Y-229280D02*
G03I-355J0D01*
G01X-105779Y-226500D02*
G03I-355J0D01*
G01Y-227190D02*
G03I-355J0D01*
G01Y-227890D02*
G03I-355J0D01*
G01Y-228580D02*
G03I-355J0D01*
G01Y-229280D02*
G03I-355J0D01*
G01X-109079Y-229730D02*
G03I-355J0D01*
G01X-105779D02*
G03I-355J0D01*
G01X-102419Y-226860D02*
G03I-355J0D01*
G01X-102449Y-226500D02*
G03I-355J0D01*
G01X-101949Y-227850D02*
G03I-355J0D01*
G01X-102239Y-227380D02*
G03I-355J0D01*
G01X-101909Y-227890D02*
G03I-355J0D01*
G01X-102299Y-227190D02*
G03I-355J0D01*
G01X-101099Y-228680D02*
G03I-355J0D01*
G01X-101559Y-228240D02*
G03I-355J0D01*
G01X-101199Y-228580D02*
G03I-355J0D01*
G01X-100569Y-229030D02*
G03I-355J0D01*
G01X-99339Y-226420D02*
G03I-355J0D01*
G01X-99309Y-226500D02*
G03I-355J0D01*
G01X-99989Y-229300D02*
G03I-355J0D01*
G01X-100039Y-229280D02*
G03I-355J0D01*
G01X-99149Y-226980D02*
G03I-355J0D01*
G01X-98849Y-227490D02*
G03I-355J0D01*
G01X-98379Y-227860D02*
G03I-355J0D01*
G01X-99019Y-227190D02*
G03I-355J0D01*
G01X-98319Y-227890D02*
G03I-355J0D01*
G01X-99119Y-229560D02*
G03I-355J0D01*
G01X-97849Y-228120D02*
G03I-355J0D01*
G01X-97279Y-228280D02*
G03I-355J0D01*
G01X-96679Y-228320D02*
G03I-355J0D01*
G01X-98219Y-229700D02*
G03I-355J0D01*
G01X-97309Y-229730D02*
G03I-355J0D01*
G01X-87779Y-234220D02*
G03I-355J0D01*
G01X-86369Y-237530D02*
G03I-355J0D01*
G01X-84829Y-234220D02*
G03I-355J0D01*
G01X-84279D02*
G03I-355J0D01*
G01Y-237530D02*
G03I-355J0D01*
G01X-81919Y-234220D02*
G03I-355J0D01*
G01Y-235880D02*
G03I-355J0D01*
G01Y-237530D02*
G03I-355J0D01*
G01X-86779Y-229280D02*
G03I-355J0D01*
G01X-86138Y-228580D02*
G03I-355J0D01*
G01X-84879Y-227190D02*
G03I-355J0D01*
G01X-85509Y-227890D02*
G03I-355J0D01*
G01X-84249Y-226500D02*
G03I-355J0D01*
G01X-83138Y-229280D02*
G03I-355J0D01*
G01X-82549Y-228580D02*
G03I-355J0D01*
G01X-81359Y-227190D02*
G03I-355J0D01*
G01X-81949Y-227890D02*
G03I-355J0D01*
G01X-87189Y-229730D02*
G03I-355J0D01*
G01X-83529D02*
G03I-355J0D01*
G01X-116169Y-216980D02*
G03I-355J0D01*
G01Y-217480D02*
G03I-355J0D01*
G01Y-218170D02*
G03I-355J0D01*
G01Y-218860D02*
G03I-355J0D01*
G01Y-220250D02*
G03I-355J0D01*
G01Y-219560D02*
G03I-355J0D01*
G01X-115939Y-221950D02*
G03I-355J0D01*
G01X-115779Y-222070D02*
G03I-355J0D01*
G01X-115589Y-222150D02*
G03I-355J0D01*
G01X-115549Y-223860D02*
G03I-355J0D01*
G01X-115759Y-223940D02*
G03I-355J0D01*
G01X-115929Y-224070D02*
G03I-355J0D01*
G01X-116059Y-224240D02*
G03I-355J0D01*
G01X-116139Y-224440D02*
G03I-355J0D01*
G01X-116169Y-224660D02*
G03I-355J0D01*
G01X-116129Y-224420D02*
G03I-355J0D01*
G01X-116169Y-225110D02*
G03I-355J0D01*
G01Y-225800D02*
G03I-355J0D01*
G01X-115389Y-222170D02*
G03I-355J0D01*
G01X-115339Y-223830D02*
G03I-355J0D01*
G01X-116169Y-220950D02*
G03I-355J0D01*
G01Y-221390D02*
G03I-355J0D01*
G01X-116139Y-221590D02*
G03I-355J0D01*
G01X-116059Y-221780D02*
G03I-355J0D01*
G01X-116119Y-221640D02*
G03I-355J0D01*
G01X-124569Y-216780D02*
G03I-355J0D01*
G01X-123019Y-216980D02*
G03I-355J0D01*
G01Y-217480D02*
G03I-355J0D01*
G01Y-218170D02*
G03I-355J0D01*
G01Y-219560D02*
G03I-355J0D01*
G01Y-218860D02*
G03I-355J0D01*
G01Y-220250D02*
G03I-355J0D01*
G01X-119479Y-216980D02*
G03I-355J0D01*
G01Y-217480D02*
G03I-355J0D01*
G01Y-218170D02*
G03I-355J0D01*
G01Y-218860D02*
G03I-355J0D01*
G01Y-220250D02*
G03I-355J0D01*
G01Y-219560D02*
G03I-355J0D01*
G01X-123019Y-222330D02*
G03I-355J0D01*
G01Y-223720D02*
G03I-355J0D01*
G01Y-223030D02*
G03I-355J0D01*
G01Y-224420D02*
G03I-355J0D01*
G01Y-225110D02*
G03I-355J0D01*
G01Y-225800D02*
G03I-355J0D01*
G01X-119479Y-222330D02*
G03I-355J0D01*
G01Y-223720D02*
G03I-355J0D01*
G01Y-223030D02*
G03I-355J0D01*
G01Y-224420D02*
G03I-355J0D01*
G01Y-225110D02*
G03I-355J0D01*
G01Y-225800D02*
G03I-355J0D01*
G01X-123019Y-220950D02*
G03I-355J0D01*
G01Y-221640D02*
G03I-355J0D01*
G01X-119479Y-220950D02*
G03I-355J0D01*
G01Y-221640D02*
G03I-355J0D01*
G01X-94109Y-218110D02*
G03I-355J0D01*
G01X-94659Y-217960D02*
G03I-355J0D01*
G01X-93609Y-218380D02*
G03I-355J0D01*
G01X-94009Y-218170D02*
G03I-355J0D01*
G01X-93179Y-218750D02*
G03I-355J0D01*
G01D02*
G03I-355J0D01*
G01X-93079Y-218860D02*
G03I-355J0D01*
G01X-92709Y-219410D02*
G03I-355J0D01*
G01X-92909Y-219060D02*
G03I-355J0D01*
G01X-92549Y-220210D02*
G03I-355J0D01*
G01X-92589Y-219800D02*
G03I-355J0D01*
G01X-92659Y-219560D02*
G03I-355J0D01*
G01X-92549Y-220250D02*
G03I-355J0D01*
G01X-92349Y-216780D02*
G03I-355J0D01*
G01X-91879Y-216940D02*
G03I-355J0D01*
G01X-91169Y-217330D02*
G03I-355J0D01*
G01X-90989Y-217480D02*
G03I-355J0D01*
G01X-90538Y-217840D02*
G03I-355J0D01*
G01X-90169Y-218150D02*
G03I-355J0D01*
G01X-89879Y-218530D02*
G03I-355J0D01*
G01X-90159Y-218170D02*
G03I-355J0D01*
G01X-89649Y-218950D02*
G03I-355J0D01*
G01X-89519Y-219410D02*
G03I-355J0D01*
G01X-89649Y-218950D02*
G03I-355J0D01*
G01X-89699Y-218860D02*
G03I-355J0D01*
G01X-89479Y-219890D02*
G03I-355J0D01*
G01X-89509Y-219560D02*
G03I-355J0D01*
G01X-89479Y-220250D02*
G03I-355J0D01*
G01X-92549Y-222650D02*
G03I-355J0D01*
G01D02*
G03I-355J0D01*
G01D02*
G03I-355J0D01*
G01Y-222330D02*
G03I-355J0D01*
G01Y-223030D02*
G03I-355J0D01*
G01Y-223720D02*
G03I-355J0D01*
G01Y-224420D02*
G03I-355J0D01*
G01Y-225110D02*
G03I-355J0D01*
G01Y-225840D02*
G03I-355J0D01*
G01Y-225800D02*
G03I-355J0D01*
G01X-89479Y-222650D02*
G03I-355J0D01*
G01D02*
G03I-355J0D01*
G01D02*
G03I-355J0D01*
G01Y-222330D02*
G03I-355J0D01*
G01Y-223030D02*
G03I-355J0D01*
G01Y-223720D02*
G03I-355J0D01*
G01Y-224420D02*
G03I-355J0D01*
G01Y-225110D02*
G03I-355J0D01*
G01Y-225800D02*
G03I-355J0D01*
G01X-92549Y-220950D02*
G03I-355J0D01*
G01Y-221640D02*
G03I-355J0D01*
G01X-89479Y-220950D02*
G03I-355J0D01*
G01Y-221640D02*
G03I-355J0D01*
G01X-109079Y-217480D02*
G03I-355J0D01*
G01Y-216980D02*
G03I-355J0D01*
G01D02*
G03I-355J0D01*
G01Y-218170D02*
G03I-355J0D01*
G01Y-218860D02*
G03I-355J0D01*
G01Y-219560D02*
G03I-355J0D01*
G01Y-220250D02*
G03I-355J0D01*
G01X-105779Y-217480D02*
G03I-355J0D01*
G01Y-216980D02*
G03I-355J0D01*
G01Y-218170D02*
G03I-355J0D01*
G01Y-218860D02*
G03I-355J0D01*
G01Y-219560D02*
G03I-355J0D01*
G01Y-220250D02*
G03I-355J0D01*
G01X-109889Y-222170D02*
G03I-355J0D01*
G01X-109679Y-222150D02*
G03I-355J0D01*
G01X-109489Y-222070D02*
G03I-355J0D01*
G01X-109469Y-223930D02*
G03I-355J0D01*
G01X-109659Y-223850D02*
G03I-355J0D01*
G01X-109859Y-223830D02*
G03I-355J0D01*
G01X-109319Y-221940D02*
G03I-355J0D01*
G01X-109109Y-224410D02*
G03I-355J0D01*
G01X-109189Y-224220D02*
G03I-355J0D01*
G01X-109309Y-224060D02*
G03I-355J0D01*
G01X-109109Y-224420D02*
G03I-355J0D01*
G01X-109079Y-224610D02*
G03I-355J0D01*
G01Y-225110D02*
G03I-355J0D01*
G01Y-225800D02*
G03I-355J0D01*
G01X-105779Y-222330D02*
G03I-355J0D01*
G01Y-223720D02*
G03I-355J0D01*
G01Y-223030D02*
G03I-355J0D01*
G01Y-224420D02*
G03I-355J0D01*
G01Y-225110D02*
G03I-355J0D01*
G01Y-225800D02*
G03I-355J0D01*
G01X-109079Y-220950D02*
G03I-355J0D01*
G01X-109189Y-221770D02*
G03I-355J0D01*
G01X-109109Y-221580D02*
G03I-355J0D01*
G01X-109079Y-221370D02*
G03I-355J0D01*
G01X-109138Y-221640D02*
G03I-355J0D01*
G01X-105779Y-220950D02*
G03I-355J0D01*
G01Y-221640D02*
G03I-355J0D01*
G01X-101979Y-218490D02*
G03I-355J0D01*
G01X-102259Y-219010D02*
G03I-355J0D01*
G01X-102179Y-218860D02*
G03I-355J0D01*
G01X-102469Y-220170D02*
G03I-355J0D01*
G01X-102419Y-219580D02*
G03I-355J0D01*
G01X-102469Y-220250D02*
G03I-355J0D01*
G01X-102419Y-219560D02*
G03I-355J0D01*
G01X-101079Y-217600D02*
G03I-355J0D01*
G01X-101599Y-218040D02*
G03I-355J0D01*
G01X-101709Y-218170D02*
G03I-355J0D01*
G01X-100499Y-217250D02*
G03I-355J0D01*
G01X-100869Y-217480D02*
G03I-355J0D01*
G01X-99299Y-216780D02*
G03I-355J0D01*
G01X-99869Y-216980D02*
G03I-355J0D01*
G01X-99219Y-219300D02*
G03I-355J0D01*
G01X-99359Y-219720D02*
G03I-355J0D01*
G01X-99399Y-220170D02*
G03I-355J0D01*
G01Y-220250D02*
G03I-355J0D01*
G01X-99309Y-219560D02*
G03I-355J0D01*
G01X-98649Y-218630D02*
G03I-355J0D01*
G01X-98979Y-218930D02*
G03I-355J0D01*
G01X-98899Y-218860D02*
G03I-355J0D01*
G01X-97739Y-218080D02*
G03I-355J0D01*
G01X-98219Y-218310D02*
G03I-355J0D01*
G01X-97929Y-218170D02*
G03I-355J0D01*
G01X-96679Y-217920D02*
G03I-355J0D01*
G01X-97219Y-217950D02*
G03I-355J0D01*
G01X-95229Y-217920D02*
G03I-355J0D01*
G01X-102469Y-222330D02*
G03I-355J0D01*
G01Y-223720D02*
G03I-355J0D01*
G01Y-223030D02*
G03I-355J0D01*
G01Y-224420D02*
G03I-355J0D01*
G01Y-225110D02*
G03I-355J0D01*
G01Y-226310D02*
G03I-355J0D01*
G01Y-225800D02*
G03I-355J0D01*
G01X-99399Y-222330D02*
G03I-355J0D01*
G01Y-223030D02*
G03I-355J0D01*
G01Y-224420D02*
G03I-355J0D01*
G01Y-223720D02*
G03I-355J0D01*
G01Y-225110D02*
G03I-355J0D01*
G01Y-225840D02*
G03I-355J0D01*
G01Y-225800D02*
G03I-355J0D01*
G01X-102469Y-220950D02*
G03I-355J0D01*
G01Y-221640D02*
G03I-355J0D01*
G01X-99399Y-220950D02*
G03I-355J0D01*
G01Y-221640D02*
G03I-355J0D01*
G01X-94239Y-216510D02*
G03I-355J0D01*
G01X-93439Y-216540D02*
G03I-355J0D01*
G01X-92639Y-216680D02*
G03I-355J0D01*
G01X-99059Y-216700D02*
G03I-355J0D01*
G01X-98209Y-216540D02*
G03I-355J0D01*
G01X-97349Y-216510D02*
G03I-355J0D01*
G01X-85929Y-218160D02*
G03I-355J0D01*
G01X-86149Y-218470D02*
G03I-355J0D01*
G01X-85939Y-218170D02*
G03I-355J0D01*
G01X-86299Y-218820D02*
G03I-355J0D01*
G01X-86389Y-219200D02*
G03I-355J0D01*
G01X-86409Y-219580D02*
G03I-355J0D01*
G01X-86309Y-218860D02*
G03I-355J0D01*
G01X-86409Y-219560D02*
G03I-355J0D01*
G01Y-220250D02*
G03I-355J0D01*
G01X-85029Y-217280D02*
G03I-355J0D01*
G01X-85519Y-217680D02*
G03I-355J0D01*
G01X-85269Y-217480D02*
G03I-355J0D01*
G01X-84479Y-216980D02*
G03I-355J0D01*
G01X-83559Y-216780D02*
G03I-355J0D01*
G01X-83129Y-219080D02*
G03I-355J0D01*
G01X-83338Y-219930D02*
G03I-355J0D01*
G01X-83279Y-219490D02*
G03I-355J0D01*
G01X-83289Y-219560D02*
G03I-355J0D01*
G01X-83338Y-220250D02*
G03I-355J0D01*
G01X-82589Y-218400D02*
G03I-355J0D01*
G01X-82999Y-218860D02*
G03I-355J0D01*
G01X-82899Y-218710D02*
G03I-355J0D01*
G01X-81949Y-218110D02*
G03I-355J0D01*
G01X-82079Y-218170D02*
G03I-355J0D01*
G01X-81269Y-217950D02*
G03I-355J0D01*
G01X-86369Y-222060D02*
G03I-355J0D01*
G01X-86249Y-222520D02*
G03I-355J0D01*
G01X-86299Y-222330D02*
G03I-355J0D01*
G01X-86029Y-222940D02*
G03I-355J0D01*
G01X-85738Y-223320D02*
G03I-355J0D01*
G01X-85969Y-223030D02*
G03I-355J0D01*
G01X-85379Y-223630D02*
G03I-355J0D01*
G01X-84779Y-223970D02*
G03I-355J0D01*
G01X-85219Y-223720D02*
G03I-355J0D01*
G01X-84119Y-224210D02*
G03I-355J0D01*
G01X-83169Y-221890D02*
G03I-355J0D01*
G01X-83439Y-224330D02*
G03I-355J0D01*
G01X-83609Y-225800D02*
G03I-355J0D01*
G01X-82519Y-222660D02*
G03I-355J0D01*
G01X-82979Y-222290D02*
G03I-355J0D01*
G01X-82929Y-222330D02*
G03I-355J0D01*
G01X-82739Y-224340D02*
G03I-355J0D01*
G01Y-224420D02*
G03I-355J0D01*
G01Y-224850D02*
G03I-355J0D01*
G01X-82979Y-225110D02*
G03I-355J0D01*
G01X-81438Y-223080D02*
G03I-355J0D01*
G01X-81999Y-222930D02*
G03I-355J0D01*
G01X-81629Y-223030D02*
G03I-355J0D01*
G01X-86409Y-220950D02*
G03I-355J0D01*
G01Y-221580D02*
G03I-355J0D01*
G01X-86399Y-221640D02*
G03I-355J0D01*
G01X-83338Y-221030D02*
G03I-355J0D01*
G01Y-220950D02*
G03I-355J0D01*
G01X-83289Y-221470D02*
G03I-355J0D01*
G01X-83238Y-221640D02*
G03I-355J0D01*
G01X-82838Y-216630D02*
G03I-355J0D01*
G01X-81169Y-216510D02*
G03I-355J0D01*
G01X-69500Y-264569D02*
Y-314569D01*
G01X-79719Y-234300D02*
G03I-355J0D01*
G01X-79619Y-237390D02*
G03I-355J0D01*
G01X-79538Y-234390D02*
G03I-355J0D01*
G01X-79389Y-234520D02*
G03I-355J0D01*
G01X-79259Y-234670D02*
G03I-355J0D01*
G01X-79169Y-234850D02*
G03I-355J0D01*
G01X-79109Y-235040D02*
G03I-355J0D01*
G01X-79089Y-235240D02*
G03I-355J0D01*
G01X-79079D02*
G03I-355J0D01*
G01X-79089Y-236470D02*
G03I-355J0D01*
G01X-79079D02*
G03I-355J0D01*
G01Y-235880D02*
G03I-355J0D01*
G01D02*
G03I-355J0D01*
G01X-79469Y-237280D02*
G03I-355J0D01*
G01X-79339Y-237150D02*
G03I-355J0D01*
G01X-79229Y-237000D02*
G03I-355J0D01*
G01X-79149Y-236830D02*
G03I-355J0D01*
G01X-79109Y-236650D02*
G03I-355J0D01*
G01X-76959Y-234220D02*
G03I-355J0D01*
G01X-76319Y-235890D02*
G03I-355J0D01*
G01X-76469Y-235930D02*
G03I-355J0D01*
G01X-76599Y-236000D02*
G03I-355J0D01*
G01X-76729Y-236100D02*
G03I-355J0D01*
G01X-76829Y-236230D02*
G03I-355J0D01*
G01X-76899Y-236360D02*
G03I-355J0D01*
G01X-76938Y-236510D02*
G03I-355J0D01*
G01X-76959Y-236670D02*
G03I-355J0D01*
G01X-76938Y-236840D02*
G03I-355J0D01*
G01X-76889Y-237000D02*
G03I-355J0D01*
G01X-76819Y-237150D02*
G03I-355J0D01*
G01X-76709Y-237280D02*
G03I-355J0D01*
G01X-76579Y-237390D02*
G03I-355J0D01*
G01X-76429Y-237460D02*
G03I-355J0D01*
G01X-76269Y-237510D02*
G03I-355J0D01*
G01X-76159Y-235880D02*
G03I-355J0D01*
G01Y-235870D02*
G03I-355J0D01*
G01X-76099Y-237530D02*
G03I-355J0D01*
G01X-74538Y-235870D02*
G03I-355J0D01*
G01Y-235880D02*
G03I-355J0D01*
G01X-74409Y-234220D02*
G03I-355J0D01*
G01X-74239Y-234240D02*
G03I-355J0D01*
G01X-74079Y-234300D02*
G03I-355J0D01*
G01X-73938Y-234390D02*
G03I-355J0D01*
G01X-73819Y-234510D02*
G03I-355J0D01*
G01X-73729Y-234650D02*
G03I-355J0D01*
G01X-73669Y-234810D02*
G03I-355J0D01*
G01X-73649Y-234980D02*
G03I-355J0D01*
G01X-73669Y-235150D02*
G03I-355J0D01*
G01X-73719Y-235320D02*
G03I-355J0D01*
G01X-73799Y-235470D02*
G03I-355J0D01*
G01X-73909Y-235610D02*
G03I-355J0D01*
G01X-74049Y-235720D02*
G03I-355J0D01*
G01X-74199Y-235800D02*
G03I-355J0D01*
G01X-74369Y-235850D02*
G03I-355J0D01*
G01X-73649Y-237530D02*
G03I-355J0D01*
G01X-80109Y-234220D02*
G03I-355J0D01*
G01X-79909Y-234240D02*
G03I-355J0D01*
G01X-80149Y-237530D02*
G03I-355J0D01*
G01X-79969Y-237510D02*
G03I-355J0D01*
G01X-79789Y-237470D02*
G03I-355J0D01*
G01X-80759Y-226500D02*
G03I-355J0D01*
G01X-76959Y-227190D02*
G03I-355J0D01*
G01Y-226500D02*
G03I-355J0D01*
G01Y-227890D02*
G03I-355J0D01*
G01Y-228580D02*
G03I-355J0D01*
G01Y-229280D02*
G03I-355J0D01*
G01X-73649Y-226500D02*
G03I-355J0D01*
G01Y-227890D02*
G03I-355J0D01*
G01Y-227190D02*
G03I-355J0D01*
G01Y-228580D02*
G03I-355J0D01*
G01Y-229280D02*
G03I-355J0D01*
G01X-76959Y-229730D02*
G03I-355J0D01*
G01X-73649D02*
G03I-355J0D01*
G01X1460500Y-264569D02*
X-59500D01*
G01X-80579Y-217920D02*
G03I-355J0D01*
G01X-77729D02*
G03I-355J0D01*
G01X-77529Y-217950D02*
G03I-355J0D01*
G01X-77349Y-218030D02*
G03I-355J0D01*
G01X-77179Y-218150D02*
G03I-355J0D01*
G01X-77059Y-218310D02*
G03I-355J0D01*
G01X-77169Y-218170D02*
G03I-355J0D01*
G01X-76979Y-218500D02*
G03I-355J0D01*
G01X-76959Y-218700D02*
G03I-355J0D01*
G01Y-219560D02*
G03I-355J0D01*
G01Y-218860D02*
G03I-355J0D01*
G01Y-220250D02*
G03I-355J0D01*
G01X-74989Y-216780D02*
G03I-355J0D01*
G01X-73649Y-216980D02*
G03I-355J0D01*
G01D02*
G03I-355J0D01*
G01Y-217480D02*
G03I-355J0D01*
G01Y-218170D02*
G03I-355J0D01*
G01Y-218860D02*
G03I-355J0D01*
G01Y-220250D02*
G03I-355J0D01*
G01Y-219560D02*
G03I-355J0D01*
G01X-80859Y-223120D02*
G03I-355J0D01*
G01X-79079D02*
G03I-355J0D01*
G01Y-224540D02*
G03I-355J0D01*
G01Y-223720D02*
G03I-355J0D01*
G01Y-224420D02*
G03I-355J0D01*
G01X-79569Y-225110D02*
G03I-355J0D01*
G01X-76959Y-222330D02*
G03I-355J0D01*
G01Y-223720D02*
G03I-355J0D01*
G01Y-223030D02*
G03I-355J0D01*
G01Y-224420D02*
G03I-355J0D01*
G01Y-225110D02*
G03I-355J0D01*
G01Y-225800D02*
G03I-355J0D01*
G01X-73649Y-222330D02*
G03I-355J0D01*
G01Y-223030D02*
G03I-355J0D01*
G01Y-224420D02*
G03I-355J0D01*
G01Y-223720D02*
G03I-355J0D01*
G01Y-225110D02*
G03I-355J0D01*
G01Y-225800D02*
G03I-355J0D01*
G01X-80169D02*
G03I-355J0D01*
G01X-76959Y-220950D02*
G03I-355J0D01*
G01Y-221640D02*
G03I-355J0D01*
G01X-73649Y-220950D02*
G03I-355J0D01*
G01Y-221640D02*
G03I-355J0D01*
G01X-78138Y-216510D02*
G03I-355J0D01*
G01X-75889Y-216650D02*
G03I-355J0D01*
G01X-69500Y1305431D02*
Y1345431D01*
G01Y1305431D02*
Y1295431D01*
G01X0Y0D02*
X232500D01*
G01X0Y240000D02*
Y0D01*
G01X232500Y240000D02*
X0D01*
G01X20500Y1265431D02*
Y1175431D01*
G01X59250Y1245431D02*
Y1255431D01*
X56125D01*
X55125Y1254931D01*
X54500Y1254265D01*
X54250Y1252931D01*
X54500Y1251598D01*
X55250Y1250765D01*
X56125Y1250265D01*
X59250D01*
G01X56125D02*
X54250Y1245431D01*
G01X44250D02*
X49250D01*
Y1255431D01*
X44250D01*
G01X46250Y1250598D02*
X49250D01*
G01X39875Y1255431D02*
X36750Y1245431D01*
X33625Y1255431D01*
G01X70500Y1295431D02*
Y1175431D01*
G01X156083Y-14319D02*
X154000Y-6819D01*
X151917Y-14319D01*
G01X152667Y-11694D02*
X155333D01*
G01X149250Y-13319D02*
X148583Y-13944D01*
X147833Y-14319D01*
X147167D01*
X146500Y-13944D01*
X146000Y-13319D01*
X145750Y-12444D01*
X145917Y-11569D01*
X146333Y-10819D01*
X147083Y-10318D01*
X148083Y-10069D01*
X148667Y-9569D01*
X148917Y-8694D01*
X148750Y-7819D01*
X148333Y-7194D01*
X147750Y-6819D01*
X147167D01*
X146583Y-7068D01*
X146083Y-7694D01*
G01X142750Y-13319D02*
X142083Y-13944D01*
X141333Y-14319D01*
X140667D01*
X140000Y-13944D01*
X139500Y-13319D01*
X139250Y-12444D01*
X139417Y-11569D01*
X139833Y-10819D01*
X140583Y-10318D01*
X141583Y-10069D01*
X142167Y-9569D01*
X142417Y-8694D01*
X142250Y-7819D01*
X141833Y-7194D01*
X141250Y-6819D01*
X140667D01*
X140083Y-7068D01*
X139583Y-7694D01*
G01X132833Y-14319D02*
X136167D01*
Y-6819D01*
X132833D01*
G01X134167Y-10444D02*
X136167D01*
G01X130167Y-14319D02*
Y-6819D01*
X128000Y-13069D01*
X125833Y-6819D01*
Y-14319D01*
G01X120833Y-10318D02*
X120500Y-9944D01*
X120250Y-9319D01*
X120083Y-8444D01*
X120250Y-7694D01*
X120583Y-7194D01*
X121167Y-6819D01*
X123417D01*
Y-14319D01*
X120667D01*
X120083Y-13819D01*
X119750Y-13069D01*
X119583Y-12194D01*
X119750Y-11319D01*
X120250Y-10569D01*
X120833Y-10318D01*
X123417D01*
G01X116667Y-6819D02*
Y-14319D01*
X113333D01*
G01X108500D02*
Y-10944D01*
X110167Y-6819D01*
G01X106833D02*
X108500Y-10944D01*
G01X194750Y-25819D02*
X194083Y-26444D01*
X193333Y-26819D01*
X192667D01*
X192000Y-26444D01*
X191500Y-25819D01*
X191250Y-24944D01*
X191417Y-24069D01*
X191833Y-23319D01*
X192583Y-22818D01*
X193583Y-22569D01*
X194167Y-22069D01*
X194417Y-21194D01*
X194250Y-20319D01*
X193833Y-19694D01*
X193250Y-19319D01*
X192667D01*
X192083Y-19568D01*
X191583Y-20194D01*
G01X184833Y-26819D02*
X188167D01*
Y-19319D01*
X184833D01*
G01X186167Y-22944D02*
X188167D01*
G01X178167Y-19944D02*
X178667Y-19568D01*
X179250Y-19319D01*
X179917D01*
X180667Y-19694D01*
X181250Y-20319D01*
X181667Y-21069D01*
X182000Y-22319D01*
X182083Y-23444D01*
X181917Y-24569D01*
X181667Y-25319D01*
X181167Y-26069D01*
X180583Y-26569D01*
X180000Y-26819D01*
X179417D01*
X178833Y-26569D01*
X178333Y-26194D01*
X177917Y-25694D01*
G01X173500Y-26819D02*
X174167Y-26694D01*
X174750Y-26194D01*
X175250Y-25444D01*
X175583Y-24569D01*
X175750Y-23569D01*
Y-22569D01*
X175583Y-21569D01*
X175250Y-20694D01*
X174750Y-19944D01*
X174167Y-19444D01*
X173500Y-19319D01*
X172833Y-19444D01*
X172250Y-19944D01*
X171750Y-20694D01*
X171417Y-21569D01*
X171250Y-22569D01*
Y-23569D01*
X171417Y-24569D01*
X171750Y-25444D01*
X172250Y-26194D01*
X172833Y-26694D01*
X173500Y-26819D01*
G01X168917D02*
Y-19319D01*
X165083Y-26819D01*
Y-19319D01*
G01X162333Y-26819D02*
Y-19319D01*
X160667D01*
X160000Y-19694D01*
X159500Y-20194D01*
X159083Y-20944D01*
X158750Y-21819D01*
X158667Y-23069D01*
X158750Y-24319D01*
X159083Y-25194D01*
X159500Y-25944D01*
X160000Y-26444D01*
X160667Y-26819D01*
X162333D01*
G01X156083D02*
X154000Y-19319D01*
X151917Y-26819D01*
G01X152667Y-24194D02*
X155333D01*
G01X149167Y-26819D02*
Y-19319D01*
X147083D01*
X146417Y-19694D01*
X146000Y-20194D01*
X145833Y-21194D01*
X146000Y-22194D01*
X146500Y-22818D01*
X147083Y-23194D01*
X149167D01*
G01X147083D02*
X145833Y-26819D01*
G01X141000D02*
Y-23444D01*
X142667Y-19319D01*
G01X139333D02*
X141000Y-23444D01*
G01X135583Y-24319D02*
X133417D01*
G01X129750Y-25819D02*
X129083Y-26444D01*
X128333Y-26819D01*
X127667D01*
X127000Y-26444D01*
X126500Y-25819D01*
X126250Y-24944D01*
X126417Y-24069D01*
X126833Y-23319D01*
X127583Y-22818D01*
X128583Y-22569D01*
X129167Y-22069D01*
X129417Y-21194D01*
X129250Y-20319D01*
X128833Y-19694D01*
X128250Y-19319D01*
X127667D01*
X127083Y-19568D01*
X126583Y-20194D01*
G01X122500Y-19319D02*
X120500D01*
G01X121500D02*
Y-26819D01*
G01X122500D02*
X120500D01*
G01X116833D02*
Y-19319D01*
X115167D01*
X114500Y-19694D01*
X114000Y-20194D01*
X113583Y-20944D01*
X113250Y-21819D01*
X113167Y-23069D01*
X113250Y-24319D01*
X113583Y-25194D01*
X114000Y-25944D01*
X114500Y-26444D01*
X115167Y-26819D01*
X116833D01*
G01X106833D02*
X110167D01*
Y-19319D01*
X106833D01*
G01X108167Y-22944D02*
X110167D01*
G01X177035Y-293735D02*
X175145Y-291236D01*
X172940Y-289985D01*
X170420Y-289569D01*
X167270Y-290402D01*
X165065Y-292485D01*
X164435Y-294985D01*
X164750Y-297486D01*
X166010Y-299569D01*
X172310Y-303735D01*
X175145Y-306652D01*
X177035Y-310819D01*
X177665Y-314569D01*
X164435D01*
G01X211831Y141496D02*
Y178504D01*
G01X232500Y141496D02*
X215768D01*
G01X211831D02*
G03X215768I1969J0D01*
G01X211831Y178504D02*
G02X215768I1969J0D01*
G01D02*
X232500D01*
G01X207035Y1336265D02*
X205145Y1338764D01*
X202940Y1340015D01*
X200420Y1340431D01*
X197270Y1339598D01*
X195065Y1337515D01*
X194435Y1335015D01*
X194750Y1332514D01*
X196010Y1330431D01*
X202310Y1326265D01*
X205145Y1323348D01*
X207035Y1319181D01*
X207665Y1315431D01*
X194435D01*
G01X232500Y0D02*
Y141496D01*
G01Y178504D02*
Y240000D01*
G01X490500Y-314569D02*
Y-264569D01*
G01Y1295431D02*
Y1345431D01*
G01X767980Y-309569D02*
X766090Y-312486D01*
X763570Y-314152D01*
X760735Y-314569D01*
X758215Y-314152D01*
X755695Y-312069D01*
X754120Y-309569D01*
X753805Y-307069D01*
X754435Y-304153D01*
X756640Y-302069D01*
X758845Y-301235D01*
X761680D01*
G01X758845D02*
X756955Y-299985D01*
X755380Y-297902D01*
X754750Y-295402D01*
X755380Y-292902D01*
X756955Y-290819D01*
X759790Y-289569D01*
X762625Y-289985D01*
X765460Y-291652D01*
G01X767980Y1320431D02*
X766090Y1317514D01*
X763570Y1315848D01*
X760735Y1315431D01*
X758215Y1315848D01*
X755695Y1317931D01*
X754120Y1320431D01*
X753805Y1322931D01*
X754435Y1325847D01*
X756640Y1327931D01*
X758845Y1328765D01*
X761680D01*
G01X758845D02*
X756955Y1330015D01*
X755380Y1332098D01*
X754750Y1334598D01*
X755380Y1337098D01*
X756955Y1339181D01*
X759790Y1340431D01*
X762625Y1340015D01*
X765460Y1338348D01*
G01X1030500Y-264569D02*
Y-314569D01*
G01Y1295431D02*
Y1345431D01*
G01X1297270Y-314569D02*
Y-289569D01*
X1308925Y-307485D01*
X1293175D01*
G01X1297270Y1315431D02*
Y1340431D01*
X1308925Y1322515D01*
X1293175D01*
G01X1490500Y1295431D02*
X1300500D01*
G01X1520500D02*
Y-264569D01*
X1460500D01*
G01X1520500Y1295431D02*
X1470500D01*
G01X1548925Y-104569D02*
X1541050Y-79569D01*
X1533175Y-104569D01*
G01X1536010Y-95819D02*
X1546090D01*
G01X1520500Y95431D02*
X1550500D01*
G01X1538530Y268765D02*
X1537270Y270015D01*
X1536325Y272098D01*
X1535695Y275015D01*
X1536325Y277515D01*
X1537585Y279181D01*
X1539790Y280431D01*
X1548295D01*
Y255431D01*
X1537900D01*
X1535695Y257098D01*
X1534435Y259598D01*
X1533805Y262515D01*
X1534435Y265431D01*
X1536325Y267931D01*
X1538530Y268765D01*
X1548295D01*
G01X1520500Y525431D02*
X1550500D01*
G01X1534120Y678348D02*
X1536010Y679598D01*
X1538215Y680431D01*
X1540735D01*
X1543570Y679181D01*
X1545775Y677098D01*
X1547350Y674598D01*
X1548610Y670431D01*
X1548925Y666681D01*
X1548295Y662931D01*
X1547350Y660431D01*
X1545460Y657931D01*
X1543255Y656265D01*
X1541050Y655431D01*
X1538845D01*
X1536640Y656265D01*
X1534750Y657514D01*
X1533175Y659181D01*
G01X1520500Y955431D02*
X1550500D01*
G01X1547980Y1135431D02*
Y1160431D01*
X1541680D01*
X1539160Y1159181D01*
X1537270Y1157515D01*
X1535695Y1155015D01*
X1534435Y1152098D01*
X1534120Y1147931D01*
X1534435Y1143764D01*
X1535695Y1140848D01*
X1537270Y1138347D01*
X1539160Y1136681D01*
X1541680Y1135431D01*
X1547980D01*
G01X1570500Y-324569D02*
Y-334569D01*
G54D11*
G01X-138904Y-234710D02*
X-138944Y-234860D01*
G01D02*
X-138964Y-235020D01*
G01D02*
X-138944Y-235190D01*
G01X-138164Y-234220D02*
X-138324Y-234240D01*
G01D02*
X-138474Y-234280D01*
G01D02*
X-138604Y-234350D01*
G01D02*
X-138734Y-234450D01*
G01D02*
X-138834Y-234580D01*
G01D02*
X-138904Y-234710D01*
G01X-138944Y-235190D02*
X-138894Y-235350D01*
G01D02*
X-138824Y-235500D01*
G01D02*
X-138714Y-235630D01*
G01D02*
X-138584Y-235740D01*
G01D02*
X-138434Y-235810D01*
G01D02*
X-138274Y-235860D01*
G01D02*
X-138104Y-235880D01*
G01D02*
X-137824D01*
G01X-138724Y-237530D02*
X-137824Y-235880D01*
G01X-135894Y-234220D02*
X-138164D01*
G01X-137824Y-235880D02*
X-135894D01*
G01X-138964Y-226500D02*
X-135894D01*
G01Y-227190D02*
X-138964D01*
G01Y-227890D02*
X-135894D01*
G01Y-228580D02*
X-138964D01*
G01Y-229280D02*
X-135894D01*
G01Y-229730D02*
X-138964D01*
G01D02*
Y-219770D01*
G01X-135894Y-234220D02*
Y-235880D01*
G01D02*
Y-237530D01*
G01X-133764Y-235500D02*
X-133744Y-235280D01*
G01X-133764Y-236230D02*
Y-235500D01*
G01X-133744Y-236460D02*
X-133764Y-236230D01*
G01X-133744Y-235280D02*
X-133684Y-235060D01*
G01D02*
X-133594Y-234860D01*
G01D02*
X-133464Y-234680D01*
G01D02*
X-133304Y-234520D01*
G01D02*
X-133124Y-234390D01*
G01X-133114Y-237360D02*
X-133304Y-237230D01*
G01D02*
X-133464Y-237070D01*
G01D02*
X-133594Y-236880D01*
G01D02*
X-133684Y-236670D01*
G01D02*
X-133744Y-236460D01*
G01X-133124Y-234390D02*
X-132924Y-234300D01*
G01D02*
X-132704Y-234240D01*
G01D02*
X-132484Y-234220D01*
G01X-132464Y-237530D02*
X-132694Y-237510D01*
G01D02*
X-132904Y-237450D01*
G01D02*
X-133114Y-237360D01*
G01X-132484Y-234220D02*
X-131744D01*
G01D02*
X-131524Y-234240D01*
G01D02*
X-131304Y-234300D01*
G01X-131374Y-237470D02*
X-131574Y-237510D01*
G01D02*
X-131774Y-237530D01*
G01D02*
X-132464D01*
G01X-130754Y-234680D02*
X-130624Y-234860D01*
G01D02*
X-130534Y-235070D01*
G01D02*
X-130474Y-235290D01*
G01D02*
X-130454Y-235510D01*
G01X-130464D02*
Y-236220D01*
G01D02*
X-130484Y-236420D01*
G01D02*
X-130524Y-236620D01*
G01D02*
X-130604Y-236810D01*
G01D02*
X-130714Y-236990D01*
G01X-131304Y-234300D02*
X-131104Y-234390D01*
G01D02*
X-130914Y-234520D01*
G01D02*
X-130754Y-234680D01*
G01X-130714Y-236990D02*
X-130844Y-237150D01*
G01D02*
X-131004Y-237280D01*
G01D02*
X-131184Y-237390D01*
G01D02*
X-131374Y-237470D01*
G01X-128334Y-234220D02*
X-126914D01*
G01D02*
Y-237530D01*
G01X-125504Y-234220D02*
X-126914D01*
G01X-132824Y-226500D02*
X-129514D01*
G01Y-227190D02*
X-132824D01*
G01Y-227890D02*
X-129514D01*
G01Y-228580D02*
X-132824D01*
G01Y-229280D02*
X-129514D01*
G01Y-229730D02*
X-132824D01*
G01X-135894Y-219420D02*
Y-229730D01*
G01X-132824D02*
Y-218970D01*
G01X-129514Y-218960D02*
Y-229730D01*
G01X-126444D02*
Y-218990D01*
G01Y-226500D02*
X-123374D01*
G01X-126444Y-227890D02*
X-123374D01*
G01Y-227190D02*
X-126444D01*
G01X-123374Y-228580D02*
X-126444D01*
G01Y-229280D02*
X-123374D01*
G01Y-229730D02*
X-126444D01*
G01X-138964Y-219770D02*
X-138914Y-219220D01*
G01D02*
X-138754Y-218690D01*
G01D02*
X-138474Y-218210D01*
G01D02*
X-138094Y-217800D01*
G01D02*
X-137444Y-217320D01*
G01D02*
X-136714Y-216960D01*
G01D02*
X-135934Y-216740D01*
G01X-135774Y-218860D02*
X-138804D01*
G01X-138944Y-219560D02*
X-135894D01*
G01Y-220250D02*
X-138964D01*
G01X-138434Y-218170D02*
X-134474D01*
G01X-138964Y-222330D02*
X-135894D01*
G01Y-223030D02*
X-138964D01*
G01Y-223720D02*
X-135894D01*
G01Y-224420D02*
X-138964D01*
G01Y-225110D02*
X-135894D01*
G01Y-225800D02*
X-138964D01*
G01Y-220950D02*
X-135894D01*
G01Y-221640D02*
X-138964D01*
G01X-124924Y-216780D02*
X-136074D01*
G01X-123374Y-217480D02*
X-137654D01*
G01X-135934Y-216740D02*
X-134774Y-216570D01*
G01X-135604Y-218600D02*
X-135764Y-218840D01*
G01D02*
X-135864Y-219120D01*
G01D02*
X-135894Y-219420D01*
G01X-134904Y-218230D02*
X-135384Y-218400D01*
G01D02*
X-135604Y-218600D01*
G01X-134394Y-218160D02*
X-134904Y-218230D01*
G01X-133064Y-218400D02*
X-133234Y-218270D01*
G01D02*
X-133424Y-218190D01*
G01D02*
X-133634Y-218160D01*
G01D02*
X-134394D01*
G01X-132934Y-218560D02*
X-133064Y-218400D01*
G01X-132824Y-218970D02*
X-132854Y-218760D01*
G01D02*
X-132934Y-218560D01*
G01X-129494Y-218750D02*
X-129514Y-218960D01*
G01X-129504Y-218860D02*
X-132834D01*
G01X-132824Y-219560D02*
X-129514D01*
G01Y-220250D02*
X-132824D01*
G01X-129284Y-218390D02*
X-129404Y-218560D01*
G01D02*
X-129494Y-218750D01*
G01X-132824Y-222330D02*
X-129514D01*
G01Y-223030D02*
X-132824D01*
G01Y-223720D02*
X-129514D01*
G01Y-224420D02*
X-132824D01*
G01Y-225110D02*
X-129514D01*
G01Y-225800D02*
X-132824D01*
G01Y-220950D02*
X-129514D01*
G01Y-221640D02*
X-132824D01*
G01X-128714Y-218160D02*
X-128924Y-218190D01*
G01D02*
X-129114Y-218270D01*
G01D02*
X-129284Y-218390D01*
G01X-133554Y-218170D02*
X-128794D01*
G01X-127054Y-218190D02*
X-127274Y-218160D01*
G01D02*
X-128714D01*
G01X-126684Y-218400D02*
X-126864Y-218270D01*
G01D02*
X-127054Y-218190D01*
G01X-126444Y-218990D02*
X-126474Y-218770D01*
G01D02*
X-126554Y-218570D01*
G01D02*
X-126684Y-218400D01*
G01X-126314Y-216600D02*
X-123374Y-216980D01*
G01X-127194Y-218170D02*
X-123374D01*
G01Y-218860D02*
X-126464D01*
G01X-123374Y-220250D02*
X-126444D01*
G01Y-219560D02*
X-123374D01*
G01X-126444Y-222330D02*
X-123374D01*
G01Y-223030D02*
X-126444D01*
G01X-123374Y-224420D02*
X-126444D01*
G01Y-223720D02*
X-123374D01*
G01X-126444Y-225110D02*
X-123374D01*
G01Y-225800D02*
X-126444D01*
G01Y-220950D02*
X-123374D01*
G01Y-221640D02*
X-126444D01*
G01X-134774Y-216570D02*
X-133614Y-216510D01*
G01D02*
X-129284D01*
G01D02*
X-126314Y-216600D01*
G01X-118654Y-234220D02*
Y-236220D01*
G01X-118644D02*
X-118624Y-236450D01*
G01D02*
X-118564Y-236670D01*
G01D02*
X-118464Y-236870D01*
G01D02*
X-118334Y-237060D01*
G01D02*
X-118174Y-237220D01*
G01D02*
X-117994Y-237350D01*
G01D02*
X-117784Y-237450D01*
G01D02*
X-117564Y-237510D01*
G01D02*
X-117334Y-237530D01*
G01D02*
X-116814D01*
G01D02*
X-116594Y-237510D01*
G01D02*
X-116394Y-237460D01*
G01D02*
X-116194Y-237360D01*
G01D02*
X-116014Y-237240D01*
G01X-115584Y-236290D02*
Y-234220D01*
G01X-116014Y-237240D02*
X-115864Y-237090D01*
G01D02*
X-115744Y-236910D01*
G01D02*
X-115644Y-236710D01*
G01D02*
X-115594Y-236510D01*
G01D02*
X-115574Y-236290D01*
G01X-112574Y-234390D02*
X-112754Y-234520D01*
G01D02*
X-112914Y-234680D01*
G01D02*
X-113044Y-234860D01*
G01D02*
X-113134Y-235070D01*
G01D02*
X-113194Y-235290D01*
G01D02*
X-113214Y-235510D01*
G01D02*
Y-236220D01*
G01D02*
X-113194Y-236420D01*
G01D02*
X-113154Y-236620D01*
G01D02*
X-113074Y-236810D01*
G01D02*
X-112964Y-236990D01*
G01D02*
X-112834Y-237150D01*
G01D02*
X-112674Y-237280D01*
G01X-111924Y-234220D02*
X-112144Y-234240D01*
G01D02*
X-112364Y-234300D01*
G01D02*
X-112574Y-234390D01*
G01X-112674Y-237280D02*
X-112494Y-237390D01*
G01D02*
X-112304Y-237470D01*
G01D02*
X-112104Y-237510D01*
G01D02*
X-111904Y-237530D01*
G01X-116524Y-226500D02*
X-119834D01*
G01X-116524Y-227890D02*
X-119834D01*
G01Y-227190D02*
X-116524D01*
G01X-119834Y-228580D02*
X-116524D01*
G01Y-229280D02*
X-119834D01*
G01X-116524Y-224660D02*
Y-229730D01*
G01D02*
X-119834D01*
G01X-121814Y-234220D02*
X-123614D01*
G01Y-237530D02*
X-121844D01*
G01X-121144Y-234460D02*
X-121294Y-234360D01*
G01D02*
X-121454Y-234280D01*
G01D02*
X-121634Y-234240D01*
G01D02*
X-121814Y-234220D01*
G01X-121844Y-237530D02*
X-121654Y-237510D01*
G01D02*
X-121474Y-237470D01*
G01D02*
X-121304Y-237390D01*
G01D02*
X-121154Y-237280D01*
G01X-120834Y-234900D02*
X-120914Y-234740D01*
G01D02*
X-121014Y-234590D01*
G01D02*
X-121144Y-234460D01*
G01X-120774Y-235260D02*
X-120794Y-235080D01*
G01D02*
X-120834Y-234900D01*
G01X-120774Y-236460D02*
Y-235260D01*
G01X-121154Y-237280D02*
X-121024Y-237150D01*
G01D02*
X-120914Y-236990D01*
G01D02*
X-120834Y-236830D01*
G01D02*
X-120794Y-236650D01*
G01D02*
X-120774Y-236460D01*
G01X-123374Y-216980D02*
Y-229730D01*
G01X-119834D02*
Y-216980D01*
G01X-94724Y-234240D02*
X-94934Y-234220D01*
G01D02*
X-96684D01*
G01Y-237530D02*
X-94934D01*
G01D02*
X-94744Y-237510D01*
G01D02*
X-94564Y-237460D01*
G01X-94514Y-234300D02*
X-94724Y-234240D01*
G01X-94164Y-234540D02*
X-94324Y-234400D01*
G01D02*
X-94514Y-234300D01*
G01X-93844Y-235310D02*
X-93864Y-235100D01*
G01D02*
X-93924Y-234890D01*
G01D02*
X-94024Y-234700D01*
G01D02*
X-94164Y-234540D01*
G01X-93844Y-236440D02*
Y-235310D01*
G01X-94564Y-237460D02*
X-94384Y-237380D01*
G01D02*
X-94234Y-237270D01*
G01D02*
X-94104Y-237140D01*
G01D02*
X-93994Y-236980D01*
G01D02*
X-93914Y-236810D01*
G01D02*
X-93864Y-236630D01*
G01D02*
X-93844Y-236440D01*
G01X-91244Y-234220D02*
Y-237530D01*
G01X-88654D02*
Y-234220D01*
G01D02*
X-88134D01*
G01D02*
X-86724Y-237530D01*
G01X-97034Y-228320D02*
X-95424D01*
G01D02*
X-94944Y-228270D01*
G01X-94474Y-228120D02*
X-94054Y-227890D01*
G01X-94944Y-228270D02*
X-94474Y-228120D01*
G01X-93084Y-226800D02*
X-92934Y-226330D01*
G01D02*
X-92904Y-225840D01*
G01X-94054Y-227890D02*
X-93694Y-227570D01*
G01D02*
X-93344Y-227220D01*
G01D02*
X-93084Y-226800D01*
G01X-92184Y-229300D02*
X-92864Y-229500D01*
G01X-92124Y-229280D02*
X-100394D01*
G01X-91534Y-229010D02*
X-92184Y-229300D01*
G01X-94064Y-227890D02*
X-90184D01*
G01X-90544Y-228340D02*
X-90934Y-228630D01*
G01D02*
X-91534Y-229010D01*
G01X-90864Y-228580D02*
X-101554D01*
G01X-89834Y-222650D02*
Y-226580D01*
G01D02*
X-89864Y-227070D01*
G01X-92994Y-226500D02*
X-89834D01*
G01X-89864Y-227070D02*
X-90004Y-227540D01*
G01D02*
X-90234Y-227970D01*
G01D02*
X-90544Y-228340D01*
G01X-89904Y-227190D02*
X-93324D01*
G01X-94914Y-229730D02*
X-97664D01*
G01X-93884Y-229670D02*
X-94914Y-229730D01*
G01X-92864Y-229500D02*
X-93884Y-229670D01*
G01X-110144Y-234220D02*
X-111924D01*
G01X-111904Y-237530D02*
X-110144D01*
G01D02*
Y-234220D01*
G01X-107784D02*
Y-237530D01*
G01D02*
X-107234D01*
G01D02*
X-104954Y-234220D01*
G01D02*
X-104474D01*
G01D02*
Y-237530D01*
G01X-101814Y-234680D02*
X-101654Y-234520D01*
G01D02*
X-101464Y-234390D01*
G01X-102114Y-235520D02*
X-102094Y-235290D01*
G01D02*
X-102034Y-235080D01*
G01D02*
X-101944Y-234870D01*
G01D02*
X-101814Y-234680D01*
G01X-102114Y-236210D02*
Y-235520D01*
G01X-102094Y-236420D02*
X-102114Y-236210D01*
G01X-101574Y-237280D02*
X-101724Y-237140D01*
G01D02*
X-101864Y-236990D01*
G01D02*
X-101974Y-236810D01*
G01D02*
X-102054Y-236620D01*
G01D02*
X-102094Y-236420D01*
G01X-101464Y-234390D02*
X-101254Y-234300D01*
G01D02*
X-101044Y-234240D01*
G01D02*
X-100814Y-234220D01*
G01X-100794Y-237530D02*
X-101004Y-237510D01*
G01D02*
X-101204Y-237470D01*
G01D02*
X-101394Y-237390D01*
G01D02*
X-101574Y-237280D01*
G01X-100814Y-234220D02*
X-100074D01*
G01D02*
X-99854Y-234240D01*
G01X-99654Y-237450D02*
X-99874Y-237510D01*
G01D02*
X-100094Y-237530D01*
G01D02*
X-100794D01*
G01X-99854Y-234240D02*
X-99644Y-234300D01*
G01D02*
X-99444Y-234390D01*
G01D02*
X-99254Y-234520D01*
G01D02*
X-99104Y-234670D01*
G01D02*
X-98974Y-234850D01*
G01D02*
X-98884Y-235060D01*
G01D02*
X-98824Y-235270D01*
G01D02*
X-98804Y-235490D01*
G01D02*
Y-236240D01*
G01D02*
X-98824Y-236460D01*
G01D02*
X-98884Y-236680D01*
G01D02*
X-98974Y-236880D01*
G01D02*
X-99104Y-237070D01*
G01D02*
X-99264Y-237230D01*
G01D02*
X-99444Y-237360D01*
G01D02*
X-99654Y-237450D01*
G01X-109434Y-229730D02*
Y-224610D01*
G01X-106134Y-226500D02*
X-109434D01*
G01Y-227190D02*
X-106134D01*
G01Y-227890D02*
X-109434D01*
G01Y-228580D02*
X-106134D01*
G01Y-229280D02*
X-109434D01*
G01X-106134Y-229730D02*
X-109434D01*
G01X-106134Y-216980D02*
Y-229730D01*
G01X-102774Y-226860D02*
X-102824Y-226310D01*
G01X-102594Y-227380D02*
X-102774Y-226860D01*
G01X-102304Y-227850D02*
X-102594Y-227380D01*
G01X-101454Y-228680D02*
X-101914Y-228240D01*
G01D02*
X-102304Y-227850D01*
G01X-100924Y-229030D02*
X-101454Y-228680D01*
G01X-99754Y-225840D02*
X-99694Y-226420D01*
G01X-102804Y-226500D02*
X-99664D01*
G01X-100344Y-229300D02*
X-100924Y-229030D01*
G01X-99694Y-226420D02*
X-99504Y-226980D01*
G01D02*
X-99204Y-227490D01*
G01X-99374Y-227190D02*
X-102654D01*
G01X-99474Y-229560D02*
X-100344Y-229300D01*
G01X-102264Y-227890D02*
X-98674D01*
G01X-99204Y-227490D02*
X-98734Y-227860D01*
G01D02*
X-98204Y-228120D01*
G01D02*
X-97634Y-228280D01*
G01D02*
X-97034Y-228320D01*
G01X-98574Y-229700D02*
X-99474Y-229560D01*
G01X-97664Y-229730D02*
X-98574Y-229700D01*
G01X-86724Y-237530D02*
X-85184Y-234220D01*
G01D02*
X-84634D01*
G01D02*
Y-237530D01*
G01X-79434Y-235880D02*
X-82274D01*
G01Y-234220D02*
X-80464D01*
G01X-82274Y-237530D02*
X-80504D01*
G01X-87134Y-229280D02*
X-83494D01*
G01X-82904Y-228580D02*
X-86494D01*
G01X-81714Y-227190D02*
X-85234D01*
G01X-85864Y-227890D02*
X-82304D01*
G01X-87544Y-229730D02*
X-83884D01*
G01X-83094Y-224850D02*
X-87544Y-229730D01*
G01X-84604Y-226500D02*
X-81114D01*
G01X-83884Y-229730D02*
X-79434Y-224540D01*
G01X-119834Y-216980D02*
X-116524D01*
G01Y-217480D02*
X-119834D01*
G01Y-218170D02*
X-116524D01*
G01Y-218860D02*
X-119834D01*
G01X-116524Y-220250D02*
X-119834D01*
G01Y-219560D02*
X-116524D01*
G01X-116134Y-222070D02*
X-115944Y-222150D01*
G01X-115904Y-223860D02*
X-116114Y-223940D01*
G01D02*
X-116284Y-224070D01*
G01D02*
X-116414Y-224240D01*
G01D02*
X-116494Y-224440D01*
G01X-119834Y-224420D02*
X-116484D01*
G01X-116494Y-224440D02*
X-116524Y-224660D01*
G01Y-225110D02*
X-119834D01*
G01Y-225800D02*
X-116524D01*
G01X-115944Y-222150D02*
X-115744Y-222170D01*
G01X-115694Y-223830D02*
X-115904Y-223860D01*
G01X-115744Y-222170D02*
X-110244D01*
G01X-110214Y-223830D02*
X-115694D01*
G01X-106134Y-222330D02*
X-119834D01*
G01Y-223030D02*
X-106134D01*
G01Y-223720D02*
X-119834D01*
G01Y-220950D02*
X-116524D01*
G01Y-216980D02*
Y-221390D01*
G01D02*
X-116494Y-221590D01*
G01D02*
X-116414Y-221780D01*
G01X-116474Y-221640D02*
X-119834D01*
G01X-116414Y-221780D02*
X-116294Y-221950D01*
G01D02*
X-116134Y-222070D01*
G01X-95014Y-217960D02*
X-95584Y-217920D01*
G01X-93964Y-218380D02*
X-94464Y-218110D01*
G01D02*
X-95014Y-217960D01*
G01X-93794Y-216540D02*
X-92994Y-216680D01*
G01X-93534Y-218750D02*
X-93964Y-218380D01*
G01X-93264Y-219060D02*
X-93534Y-218750D01*
G01X-92904Y-220210D02*
X-92944Y-219800D01*
G01D02*
X-93064Y-219410D01*
G01D02*
X-93264Y-219060D01*
G01X-99654Y-216780D02*
X-92704D01*
G01X-92994Y-216680D02*
X-92234Y-216940D01*
G01D02*
X-91524Y-217330D01*
G01X-91344Y-217480D02*
X-101224D01*
G01X-91524Y-217330D02*
X-90894Y-217840D01*
G01D02*
X-90524Y-218150D01*
G01X-94364Y-218170D02*
X-90514D01*
G01X-90524Y-218150D02*
X-90234Y-218530D01*
G01X-90004Y-218950D02*
X-89874Y-219410D01*
G01X-90234Y-218530D02*
X-90004Y-218950D01*
G01X-90054Y-218860D02*
X-93434D01*
G01X-89874Y-219410D02*
X-89834Y-219890D01*
G01X-93014Y-219560D02*
X-89864D01*
G01X-89834Y-220250D02*
X-92904D01*
G01Y-225840D02*
Y-222650D01*
G01X-89834D02*
X-92904D01*
G01D02*
X-89834D01*
G01X-92904Y-222330D02*
X-89834D01*
G01Y-223030D02*
X-92904D01*
G01Y-223720D02*
X-89834D01*
G01Y-224420D02*
X-92904D01*
G01Y-225110D02*
X-89834D01*
G01Y-225800D02*
X-92904D01*
G01Y-222650D02*
Y-220210D01*
G01Y-220950D02*
X-89834D01*
G01Y-221640D02*
X-92904D01*
G01X-89834Y-219890D02*
Y-222650D01*
G01X-106134Y-217480D02*
X-109434D01*
G01Y-216980D02*
X-106134D01*
G01X-109434Y-218170D02*
X-106134D01*
G01Y-218860D02*
X-109434D01*
G01Y-219560D02*
X-106134D01*
G01Y-220250D02*
X-109434D01*
G01X-110244Y-222170D02*
X-110034Y-222150D01*
G01X-110014Y-223850D02*
X-110214Y-223830D01*
G01X-110034Y-222150D02*
X-109844Y-222070D01*
G01X-109824Y-223930D02*
X-110014Y-223850D01*
G01X-109464Y-224410D02*
X-109544Y-224220D01*
G01D02*
X-109664Y-224060D01*
G01D02*
X-109824Y-223930D01*
G01X-109434Y-224610D02*
X-109464Y-224410D01*
G01Y-224420D02*
X-106134D01*
G01Y-225110D02*
X-109434D01*
G01Y-225800D02*
X-106134D01*
G01X-109844Y-222070D02*
X-109674Y-221940D01*
G01D02*
X-109544Y-221770D01*
G01D02*
X-109464Y-221580D01*
G01D02*
X-109434Y-221370D01*
G01D02*
Y-216980D01*
G01Y-220950D02*
X-106134D01*
G01Y-221640D02*
X-109494D01*
G01X-102614Y-219010D02*
X-102334Y-218490D01*
G01X-102824Y-220170D02*
X-102774Y-219580D01*
G01D02*
X-102614Y-219010D01*
G01X-102334Y-218490D02*
X-101954Y-218040D01*
G01D02*
X-101434Y-217600D01*
G01D02*
X-100854Y-217250D01*
G01D02*
X-100224Y-216980D01*
G01X-99714Y-219720D02*
X-99754Y-220170D01*
G01Y-220250D02*
X-102824D01*
G01X-102774Y-219560D02*
X-99664D01*
G01X-100224Y-216980D02*
X-99414Y-216700D01*
G01X-99004Y-218630D02*
X-99334Y-218930D01*
G01D02*
X-99574Y-219300D01*
G01D02*
X-99714Y-219720D01*
G01X-99254Y-218860D02*
X-102534D01*
G01X-99414Y-216700D02*
X-98564Y-216540D01*
G01X-98094Y-218080D02*
X-98574Y-218310D01*
G01D02*
X-99004Y-218630D01*
G01X-102064Y-218170D02*
X-98284D01*
G01X-97034Y-217920D02*
X-97574Y-217950D01*
G01D02*
X-98094Y-218080D01*
G01X-95584Y-217920D02*
X-97034D01*
G01X-102824Y-222330D02*
X-99754D01*
G01Y-223030D02*
X-102824D01*
G01X-99754Y-224420D02*
X-102824D01*
G01Y-223720D02*
X-99754D01*
G01X-102824Y-225110D02*
X-99754D01*
G01Y-225800D02*
X-102824D01*
G01Y-226310D02*
Y-220170D01*
G01Y-220950D02*
X-99754D01*
G01Y-221640D02*
X-102824D01*
G01X-99754Y-220170D02*
Y-225840D01*
G01X-97704Y-216510D02*
X-94594D01*
G01D02*
X-93794Y-216540D01*
G01X-98564D02*
X-97704Y-216510D01*
G01X-86284Y-218160D02*
X-86504Y-218470D01*
G01D02*
X-86654Y-218820D01*
G01D02*
X-86744Y-219200D01*
G01D02*
X-86764Y-219580D01*
G01X-85384Y-217280D02*
X-85874Y-217680D01*
G01D02*
X-86284Y-218160D01*
G01X-84834Y-216980D02*
X-85384Y-217280D01*
G01X-83694Y-219930D02*
X-83634Y-219490D01*
G01D02*
X-83484Y-219080D01*
G01X-86764Y-219560D02*
X-83644D01*
G01X-83694Y-220250D02*
X-86764D01*
G01X-83194Y-216630D02*
X-84834Y-216980D01*
G01X-83484Y-219080D02*
X-83254Y-218710D01*
G01D02*
X-82944Y-218400D01*
G01X-83354Y-218860D02*
X-86664D01*
G01X-82944Y-218400D02*
X-82304Y-218110D01*
G01X-86294Y-218170D02*
X-82434D01*
G01X-82304Y-218110D02*
X-81624Y-217950D01*
G01X-86724Y-222060D02*
X-86604Y-222520D01*
G01D02*
X-86384Y-222940D01*
G01D02*
X-86094Y-223320D01*
G01D02*
X-85734Y-223630D01*
G01D02*
X-85134Y-223970D01*
G01D02*
X-84474Y-224210D01*
G01D02*
X-83794Y-224330D01*
G01X-82874Y-222660D02*
X-83334Y-222290D01*
G01X-86654Y-222330D02*
X-83284D01*
G01X-83794Y-224330D02*
X-83094Y-224340D01*
G01D02*
Y-224850D01*
G01X-81794Y-223080D02*
X-82354Y-222930D01*
G01D02*
X-82874Y-222660D01*
G01X-81984Y-223030D02*
X-86324D01*
G01X-86764Y-219580D02*
Y-221580D01*
G01D02*
X-86724Y-222060D01*
G01X-83694Y-221030D02*
Y-219930D01*
G01X-86764Y-220950D02*
X-83694D01*
G01X-83524Y-221890D02*
X-83644Y-221470D01*
G01D02*
X-83694Y-221030D01*
G01X-83594Y-221640D02*
X-86754D01*
G01X-83334Y-222290D02*
X-83524Y-221890D01*
G01X-81624Y-217950D02*
X-80934Y-217920D01*
G01X-75344Y-216780D02*
X-83914D01*
G01X-74004Y-217480D02*
X-85624D01*
G01X-81214Y-223120D02*
X-81794Y-223080D01*
G01X-85574Y-223720D02*
X-79434D01*
G01Y-224420D02*
X-83094D01*
G01X-83334Y-225110D02*
X-79924D01*
G01X-80524Y-225800D02*
X-83964D01*
G01X-81524Y-216510D02*
X-83194Y-216630D01*
G01X-78494Y-216510D02*
X-81524D01*
G01X-80264Y-234240D02*
X-80074Y-234300D01*
G01X-80324Y-237510D02*
X-80144Y-237470D01*
G01X-80074Y-234300D02*
X-79894Y-234390D01*
G01D02*
X-79744Y-234520D01*
G01D02*
X-79614Y-234670D01*
G01D02*
X-79524Y-234850D01*
G01D02*
X-79464Y-235040D01*
G01D02*
X-79444Y-235240D01*
G01X-79434Y-236470D02*
Y-235880D01*
G01Y-235240D02*
Y-235880D01*
G01X-80144Y-237470D02*
X-79974Y-237390D01*
G01D02*
X-79824Y-237280D01*
G01D02*
X-79694Y-237150D01*
G01D02*
X-79584Y-237000D01*
G01D02*
X-79504Y-236830D01*
G01D02*
X-79464Y-236650D01*
G01D02*
X-79444Y-236470D01*
G01X-76674Y-235890D02*
X-76824Y-235930D01*
G01D02*
X-76954Y-236000D01*
G01D02*
X-77084Y-236100D01*
G01D02*
X-77184Y-236230D01*
G01D02*
X-77254Y-236360D01*
G01D02*
X-77294Y-236510D01*
G01D02*
X-77314Y-236670D01*
G01D02*
X-77294Y-236840D01*
G01D02*
X-77244Y-237000D01*
G01D02*
X-77174Y-237150D01*
G01D02*
X-77064Y-237280D01*
G01D02*
X-76934Y-237390D01*
G01D02*
X-76784Y-237460D01*
G01D02*
X-76624Y-237510D01*
G01X-76514Y-235870D02*
X-76674Y-235890D01*
G01X-76624Y-237510D02*
X-76454Y-237530D01*
G01X-74894Y-235880D02*
X-76514D01*
G01X-77314Y-234220D02*
X-74764D01*
G01D02*
X-74594Y-234240D01*
G01D02*
X-74434Y-234300D01*
G01D02*
X-74294Y-234390D01*
G01D02*
X-74174Y-234510D01*
G01X-74154Y-235470D02*
X-74264Y-235610D01*
G01D02*
X-74404Y-235720D01*
G01D02*
X-74554Y-235800D01*
G01D02*
X-74724Y-235850D01*
G01D02*
X-74894Y-235870D01*
G01X-76454Y-237530D02*
X-74004D01*
G01X-74174Y-234510D02*
X-74084Y-234650D01*
G01D02*
X-74024Y-234810D01*
G01X-74004Y-234980D02*
X-74024Y-235150D01*
G01D02*
X-74074Y-235320D01*
G01X-74024Y-234810D02*
X-74004Y-234980D01*
G01X-74074Y-235320D02*
X-74154Y-235470D01*
G01X-80464Y-234220D02*
X-80264Y-234240D01*
G01X-80504Y-237530D02*
X-80324Y-237510D01*
G01X-77314Y-226500D02*
X-74004D01*
G01X-77314Y-227890D02*
X-74004D01*
G01Y-227190D02*
X-77314D01*
G01X-74004Y-228580D02*
X-77314D01*
G01Y-229280D02*
X-74004D01*
G01X-77314Y-229730D02*
X-74004D01*
G01X-77314Y-218700D02*
Y-229730D01*
G01X-74004D02*
Y-216980D01*
G01X-80934Y-217920D02*
X-78084D01*
G01D02*
X-77884Y-217950D01*
G01D02*
X-77704Y-218030D01*
G01D02*
X-77534Y-218150D01*
G01D02*
X-77414Y-218310D01*
G01D02*
X-77334Y-218500D01*
G01D02*
X-77314Y-218700D01*
G01X-77524Y-218170D02*
X-74004D01*
G01Y-218860D02*
X-77314D01*
G01X-74004Y-220250D02*
X-77314D01*
G01Y-219560D02*
X-74004D01*
G01Y-216980D02*
X-76244Y-216650D01*
G01X-79434Y-223120D02*
X-81214D01*
G01X-79434Y-224540D02*
Y-223120D01*
G01X-77314Y-222330D02*
X-74004D01*
G01Y-223030D02*
X-77314D01*
G01X-74004Y-224420D02*
X-77314D01*
G01Y-223720D02*
X-74004D01*
G01X-77314Y-225110D02*
X-74004D01*
G01Y-225800D02*
X-77314D01*
G01Y-220950D02*
X-74004D01*
G01Y-221640D02*
X-77314D01*
G01X-76244Y-216650D02*
X-78494Y-216510D01*
M02*
