G04 ================== begin FILE IDENTIFICATION RECORD ==================*
G04 Layout Name:  D:/gerber/EVK2_BM92T70-DEVICE-EVK-101_BRD_REV04_2016-03-18.brd*
G04 Film Name:    L1_TOP*
G04 File Format:  Gerber RS274X*
G04 File Origin:  Cadence Allegro 16.6-2015-S060*
G04 Origin Date:  Fri Mar 18 09:47:46 2016*
G04 *
G04 Layer:  ETCH/TOP*
G04 Layer:  PIN/TOP*
G04 Layer:  VIA CLASS/TOP*
G04 Layer:  DRAWING FORMAT/TOP*
G04 Layer:  BOARD GEOMETRY/OUTLINE*
G04 Layer:  BOARD GEOMETRY/LOGO*
G04 *
G04 Offset:    (0.000 0.000)*
G04 Mirror:    No*
G04 Mode:      Positive*
G04 Rotation:  0*
G04 FullContactRelief:  No*
G04 UndefLineWidth:     5.000*
G04 ================== end FILE IDENTIFICATION RECORD ====================*
%FSLAX55Y55*MOIN*%
%IR0*IPPOS*OFA0.00000B0.00000*MIA0B0*SFA1.00000B1.00000*%
%ADD68R,.036X.101*%
%ADD42O,.048X.111*%
%ADD51R,.02X.008*%
%ADD50R,.008X.02*%
%ADD21C,.121*%
%ADD27R,.024X.008*%
%ADD28R,.008X.024*%
%ADD10C,.25*%
%ADD13R,.107X.078*%
%ADD16R,.078X.107*%
%ADD26R,.142X.142*%
%ADD60R,.067X.177*%
%AMMACRO57*
4,1,5,.002,-.01,
-.004,-.01,
-.004,.01,
.004,.01,
.004,-.008,
.002,-.01,
0.0*
%
%ADD57MACRO57*%
%AMMACRO56*
4,1,5,.01,.002,
.01,-.004,
-.01,-.004,
-.01,.004,
.008,.004,
.01,.002,
0.0*
%
%ADD56MACRO56*%
%AMMACRO54*
4,1,5,-.008,.004,
.01,.004,
.01,-.004,
-.01,-.004,
-.01,.002,
-.008,.004,
0.0*
%
%ADD54MACRO54*%
%AMMACRO53*
4,1,5,-.004,-.008,
-.004,.01,
.004,.01,
.004,-.01,
-.002,-.01,
-.004,-.008,
0.0*
%
%ADD53MACRO53*%
%ADD73R,.03X.01*%
%ADD30R,.02X.021*%
%ADD72R,.03X.012*%
%ADD46R,.021X.02*%
%ADD35R,.024X.02*%
%ADD31R,.032X.03*%
%ADD32R,.03X.032*%
%ADD45R,.04X.024*%
%ADD22R,.02X.017*%
%ADD69O,.044X.06*%
%ADD40R,.06X.014*%
%ADD75R,.038X.01*%
%ADD37R,.06X.05*%
%ADD47R,.012X.063*%
%ADD24R,.03X.054*%
%ADD74R,.038X.012*%
%ADD67R,.05X.044*%
%ADD34R,.012X.065*%
%ADD17R,.062X.024*%
%ADD70O,.091X.044*%
%ADD66R,.053X.016*%
%ADD63R,.05X.045*%
%ADD36R,.065X.012*%
%ADD18C,.02*%
%ADD71O,.075X.044*%
%ADD41R,.067X.032*%
%ADD25R,.193X.126*%
%ADD19C,.04*%
%ADD12R,.071X.047*%
%ADD49R,.048X.034*%
%ADD44O,.048X.091*%
%ADD14C,.06*%
%ADD65R,.075X.063*%
%ADD61C,.016*%
%ADD39C,.035*%
%ADD48R,.02X.02*%
%ADD11C,.055*%
%ADD20C,.048*%
%ADD64R,.079X.083*%
%ADD62C,.076*%
%ADD15R,.06X.06*%
%ADD38R,.035X.035*%
%ADD23R,.067X.087*%
%ADD33R,.048X.048*%
%ADD43R,.011024X.094488*%
%AMMACRO58*
4,1,5,-.01,-.002,
-.01,.004,
.01,.004,
.01,-.004,
-.008,-.004,
-.01,-.002,
0.0*
%
%ADD58MACRO58*%
%AMMACRO55*
4,1,5,.004,.008,
.004,-.01,
-.004,-.01,
-.004,.01,
.002,.01,
.004,.008,
0.0*
%
%ADD55MACRO55*%
%AMMACRO59*
4,1,5,-.002,.01,
.004,.01,
.004,-.01,
-.004,-.01,
-.004,.008,
-.002,.01,
0.0*
%
%ADD59MACRO59*%
%AMMACRO52*
4,1,5,.008,-.004,
-.01,-.004,
-.01,.004,
.01,.004,
.01,-.002,
.008,-.004,
0.0*
%
%ADD52MACRO52*%
%ADD29R,.06X.1*%
%ADD76C,.005*%
%ADD77C,.007*%
%ADD78C,.008*%
%ADD79C,.009*%
%ADD80C,.007098*%
%ADD81C,.01*%
%ADD82C,.012*%
%ADD83C,.015*%
%ADD84R,.088004X.117004*%
%ADD86C,.030004*%
%ADD87C,.070004*%
%ADD88R,.072004X.072004*%
%ADD85C,.065004*%
G75*
%LPD*%
G75*
G36*
G01X79500Y99500D02*
X76000Y103000D01*
X71000D01*
X70000Y102000D01*
Y96500D01*
X62000D01*
Y102500D01*
X61500Y103000D01*
X56000D01*
X55500Y102500D01*
Y71000D01*
X60000Y66500D01*
Y9500D01*
X58000Y7500D01*
X50500D01*
X47500Y10500D01*
Y23496D01*
X48139D01*
Y32496D01*
X47004D01*
X40000Y39500D01*
Y101500D01*
X45500Y107000D01*
X53586D01*
X64000Y107000D01*
X64750Y107750D01*
X66750D01*
X67000Y108000D01*
X70000D01*
Y118080D01*
X70118Y118133D01*
G03X70618Y118500I-618J1367D01*
G01X76500D01*
X77000Y118000D01*
Y113522D01*
G03Y113478I1500J-22D01*
G01Y111000D01*
X78145Y109855D01*
X78160Y109826D01*
G03X78826Y109160I1340J674D01*
G01X78855Y109145D01*
X84000Y104000D01*
X84978D01*
G03X85022I22J1500D01*
G01X87500D01*
X89500Y102000D01*
Y91650D01*
X80718D01*
X79750Y92618D01*
Y97171D01*
G03X79500Y99118I-1250J829D01*
G01Y99500D01*
G37*
G36*
G01X64000Y52500D02*
Y68000D01*
X68000Y72000D01*
X70000D01*
X72000Y74000D01*
Y81000D01*
X77000D01*
X77500Y80500D01*
Y69000D01*
X71000Y62500D01*
Y52500D01*
X64000D01*
G37*
G36*
G01X94500Y83500D02*
Y86000D01*
X99000D01*
Y79000D01*
X95500D01*
X95000Y78500D01*
Y77000D01*
X94000Y76000D01*
X91000D01*
Y83000D01*
X94000D01*
X94500Y83500D01*
G37*
G36*
G01X92214Y44286D02*
X84500Y52000D01*
Y61500D01*
X79500Y66500D01*
Y86500D01*
X89000D01*
Y72500D01*
X92000Y69500D01*
X102000D01*
X111000Y60500D01*
X117000D01*
X127500Y50000D01*
X128000D01*
Y43000D01*
X132500D01*
Y41000D01*
X129500Y38000D01*
X124522D01*
G03X124478I-22J-1500D01*
G01X98500D01*
X94286Y42214D01*
X94348Y42342D01*
G03X92342Y44348I-1348J658D01*
G01X92214Y44286D01*
G37*
G36*
G01X89256Y75685D02*
X81972D01*
Y76336D01*
X79807D01*
Y77986D01*
X81972D01*
Y78896D01*
X79807D01*
Y80547D01*
X81972D01*
Y81454D01*
X79807D01*
Y83104D01*
X81972D01*
Y84015D01*
X79807D01*
Y85665D01*
X81972D01*
Y86315D01*
X89256D01*
Y75685D01*
G37*
G36*
G01X91500Y92000D02*
Y99000D01*
X95900D01*
X97000Y100100D01*
Y100460D01*
X97012Y100493D01*
G03X97039Y101424I-1412J507D01*
G01X97006Y101538D01*
X97468Y102000D01*
X99500D01*
Y95000D01*
X96900D01*
X96200Y94300D01*
Y93700D01*
X94500Y92000D01*
X91500D01*
G37*
G36*
G01X53500Y117000D02*
Y108500D01*
X54000Y108000D01*
X63000D01*
Y118000D01*
X54500D01*
X53500Y117000D01*
G37*
G36*
G01X89756Y91685D02*
X82472D01*
Y92336D01*
X80307D01*
Y93986D01*
X82472D01*
Y94896D01*
X80307D01*
Y96546D01*
X82472D01*
Y97454D01*
X80307D01*
Y99104D01*
X82472D01*
Y100015D01*
X80307D01*
Y101665D01*
X82472D01*
Y102315D01*
X89756D01*
Y91685D01*
G37*
G36*
G01X72019Y176322D02*
G03X70473Y182937I-925J3272D01*
G02X70000Y183331I-73J393D01*
G01Y183633D01*
X70031Y183682D01*
G03X70034Y187313I-2873J1818D01*
G01X69949Y187449D01*
X74000Y191500D01*
X82706D01*
G03X95467I6381J1874D01*
G01X117500D01*
X131500Y177500D01*
Y157000D01*
X130000Y155500D01*
X119500D01*
X117500Y157500D01*
Y162000D01*
X116000Y163500D01*
X107000D01*
X99500Y171000D01*
X76500D01*
X71845Y175655D01*
G02X72019Y176322I283J283D01*
G37*
G36*
G01X75250Y151250D02*
X71000Y155500D01*
Y164000D01*
X75000Y168000D01*
X99500D01*
X103500Y164000D01*
Y160000D01*
X104500Y159000D01*
X110000D01*
Y155500D01*
X103500D01*
X103000Y155000D01*
Y152000D01*
X102250Y151250D01*
X75250D01*
G37*
G36*
G01X128500Y51500D02*
X126000Y54000D01*
Y59500D01*
X127500Y61000D01*
X137414D01*
X137500Y61000D01*
X138500Y62000D01*
X147500D01*
X149500Y60000D01*
Y55000D01*
X146000Y51500D01*
X141027D01*
G03X140973I-27J-2000D01*
G01X128500D01*
G37*
G36*
G01X118685Y89423D02*
G03Y85577I-1351J-1923D01*
G02X119315Y85249I230J-327D01*
G01Y85150D01*
X120850D01*
X122500Y83500D01*
X125477D01*
G03X125523I23J1500D01*
G01X129000D01*
X140000Y72500D01*
Y65000D01*
X137000Y62000D01*
X132373D01*
G03X130627I-873J-1800D01*
G01X115500D01*
X101500Y76000D01*
Y102000D01*
X111000D01*
Y101500D01*
X111500Y101000D01*
Y100500D01*
X113000Y99000D01*
X114000D01*
X120000Y93000D01*
Y89850D01*
X119315D01*
Y89751D01*
G02X118685Y89423I-400J0D01*
G37*
G36*
G01X101244Y86315D02*
X108528D01*
Y85664D01*
X110693D01*
Y84014D01*
X108528D01*
Y83104D01*
X110693D01*
Y81454D01*
X108528D01*
Y80546D01*
X110693D01*
Y78896D01*
X108528D01*
Y77985D01*
X110693D01*
Y76335D01*
X108528D01*
Y75685D01*
X101244D01*
Y86315D01*
G37*
G36*
G01Y102315D02*
X108528D01*
Y101664D01*
X110693D01*
Y100014D01*
X108528D01*
Y99104D01*
X110693D01*
Y97454D01*
X108528D01*
Y96546D01*
X110693D01*
Y94896D01*
X108528D01*
Y93985D01*
X110693D01*
Y92335D01*
X108528D01*
Y91685D01*
X101244D01*
Y102315D01*
G37*
G36*
G01X112500Y117500D02*
X112000Y118000D01*
Y120682D01*
X112890Y121572D01*
Y126890D01*
X114000Y128000D01*
X125000D01*
X126000Y127000D01*
Y125000D01*
X126381Y124619D01*
Y124547D01*
X126453D01*
X128000Y123000D01*
G03X128000Y122976I1500J0D01*
G01Y118500D01*
X127500Y118000D01*
X122500D01*
X122200Y118300D01*
X114700D01*
X113900Y117500D01*
X112500D01*
G37*
G36*
G01X114414Y100000D02*
X114000D01*
X112000Y102000D01*
Y103000D01*
X112000Y105500D01*
X111500Y106000D01*
Y108000D01*
X112500Y109000D01*
X113900D01*
X114300Y108600D01*
X122000D01*
Y112500D01*
X122500Y113000D01*
X127000D01*
X129000Y111000D01*
Y101000D01*
X126500Y98500D01*
X115915D01*
X114414Y100000D01*
G37*
G36*
G01X177750Y46250D02*
Y42750D01*
X175750Y40750D01*
X169750D01*
X169000Y41500D01*
Y46500D01*
X169750Y47250D01*
X176750D01*
X177750Y46250D01*
G37*
G36*
G01X167500Y54500D02*
X174000D01*
X174500Y54000D01*
Y50500D01*
X174000Y50000D01*
X163000D01*
X162000Y51000D01*
Y57500D01*
X163000Y58500D01*
X166500D01*
Y55500D01*
X167500Y54500D01*
G37*
G36*
G01X144000Y42000D02*
X143000Y43000D01*
Y48000D01*
X144500Y49500D01*
X146000D01*
X151000Y54500D01*
Y57500D01*
X152000Y58500D01*
X154750D01*
Y56850D01*
X155450D01*
Y56350D01*
X156097D01*
X156143Y56324D01*
G03X156372Y56216I858J1526D01*
G01X156500Y56167D01*
Y51000D01*
X152500D01*
X152000Y50500D01*
Y46000D01*
X156500D01*
Y42500D01*
X156000Y42000D01*
X144000D01*
G37*
G36*
G01X184561Y108561D02*
G03X184174Y108840I-1061J-1061D01*
G01X184145Y108855D01*
X183500Y109500D01*
Y118500D01*
X185000Y120000D01*
X202500D01*
X208500Y114000D01*
X211000D01*
X211634Y113366D01*
Y111902D01*
X210232Y110500D01*
X207000D01*
X205500Y112000D01*
X198180D01*
X195590Y109410D01*
X190910D01*
X187500Y106000D01*
Y99500D01*
X186500D01*
Y106500D01*
X186040Y106960D01*
Y107081D01*
X184561Y108561D01*
G37*
G36*
G01X228000Y71000D02*
X227500Y70500D01*
X209500D01*
X206500Y73500D01*
Y79500D01*
X209000Y82000D01*
X216161D01*
Y75236D01*
X228000D01*
Y71000D01*
G37*
G36*
G01X211000Y98000D02*
Y107732D01*
X214135Y110867D01*
Y112135D01*
X215500Y113500D01*
X227000D01*
X228000Y112500D01*
Y105000D01*
X219000D01*
Y104764D01*
X216161D01*
Y98000D01*
X211000D01*
G37*
G36*
G01X188250Y123000D02*
X187250Y124000D01*
Y128482D01*
X191268Y132500D01*
X198250D01*
X198750Y132000D01*
Y123500D01*
X198250Y123000D01*
X188250D01*
G37*
%LPC*%
G75*
G36*
G01X79900Y188400D02*
Y182868D01*
X80037Y182822D01*
G02X76493Y181926I-1069J-3228D01*
G03X76202Y182600I-291J274D01*
G01X74100D01*
Y188400D01*
X79900D01*
G37*
G54D84*
X54000Y46500D03*
G54D86*
X107000Y58500D03*
X103500D03*
X97000Y67500D03*
X93000D03*
X103500Y43000D03*
X109500D03*
G54D87*
X76500Y158000D03*
X131500Y56500D03*
Y66500D03*
G54D88*
X86500Y158000D03*
G54D85*
X55000Y12500D03*
%LPD*%
G75*
G54D10*
X15000Y14500D03*
Y225000D03*
X217500Y15000D03*
Y225000D03*
G54D20*
X47472Y179594D03*
X49441Y185500D03*
X55347Y179594D03*
X63220D03*
X71094D03*
X78968D03*
X59284Y185500D03*
X67158D03*
G54D11*
X7500Y77500D03*
Y122500D03*
Y107500D03*
Y92500D03*
Y137500D03*
Y152500D03*
X37500Y12500D03*
X55000D03*
X157000Y65900D03*
X167000D03*
X177000D03*
X187000D03*
X197000D03*
X207000D03*
X217000D03*
G54D12*
X6118Y167071D03*
Y200929D03*
G54D30*
X93500Y139350D03*
Y142650D03*
X97500Y139350D03*
Y142650D03*
X135126Y170350D03*
X139126D03*
X101500Y139350D03*
Y142650D03*
X135126Y173650D03*
X139126D03*
X161000Y125850D03*
X165500D03*
X167126Y170350D03*
X171126D03*
X143126D03*
X147126D03*
X151126D03*
X155126D03*
X159126D03*
X179000Y170450D03*
X175500Y170350D03*
X161000Y129150D03*
X165500D03*
X163126Y170350D03*
X167126Y173650D03*
X171126D03*
X143126D03*
X147126D03*
X151126D03*
X155126D03*
X159126D03*
X179000Y173750D03*
X175500Y173650D03*
X163126D03*
G54D21*
X37354Y193374D03*
X89087D03*
G54D40*
X125799Y161039D03*
Y158480D03*
Y155920D03*
Y153361D03*
X107201D03*
Y155920D03*
Y158480D03*
Y161039D03*
G54D22*
X80791Y84839D03*
Y82280D03*
Y79720D03*
Y77161D03*
X92209Y84839D03*
Y82280D03*
Y79720D03*
Y77161D03*
X81291Y100839D03*
Y98280D03*
Y95721D03*
Y93161D03*
X92709Y100839D03*
Y98280D03*
Y95721D03*
Y93161D03*
X109709Y77161D03*
Y79720D03*
Y82280D03*
Y84839D03*
X98291Y77161D03*
Y79720D03*
Y82280D03*
Y84839D03*
X109709Y93161D03*
Y95721D03*
Y98280D03*
Y100839D03*
X98291Y93161D03*
Y95721D03*
Y98280D03*
Y100839D03*
G54D31*
X88500Y137350D03*
Y142650D03*
X172000Y51150D03*
Y45850D03*
G54D13*
X42189Y27996D03*
G54D23*
X91508Y56500D03*
X67492D03*
G54D14*
X30500Y82500D03*
X20500D03*
Y72500D03*
X30500Y122500D03*
Y112500D03*
Y102500D03*
Y92500D03*
X20500Y122500D03*
Y112500D03*
Y102500D03*
Y92500D03*
X30500Y132500D03*
X20500D03*
Y157000D03*
X30500D03*
X40500D03*
X20500Y147000D03*
X30500D03*
X40500D03*
X50500D03*
X67000Y27500D03*
X77000D03*
X87000D03*
X97000D03*
X77000Y17500D03*
X87000D03*
X97000D03*
X66500Y158000D03*
X76500D03*
X135000Y27500D03*
X107000D03*
X117000D03*
X107000Y17500D03*
X117000D03*
X131500Y66500D03*
Y56500D03*
X185000Y17500D03*
X175000D03*
X165000D03*
X155000D03*
X145000D03*
X185000Y27500D03*
X175000D03*
X165000D03*
X155000D03*
X145000D03*
X195000Y17500D03*
Y27500D03*
X222500Y46500D03*
G54D41*
X118500Y130307D03*
Y143693D03*
X182500Y58193D03*
Y44807D03*
X196000Y58193D03*
Y44807D03*
G54D32*
X71850Y143500D03*
X77150D03*
Y138000D03*
X71850D03*
G54D50*
X157638Y158311D03*
X159213D03*
X160787D03*
X162362D03*
X157638Y134689D03*
X159213D03*
X160787D03*
X162362D03*
G54D33*
X77000Y185500D03*
G54D15*
X30500Y72500D03*
X50500Y157000D03*
X67000Y17500D03*
X86500Y158000D03*
X135000Y17500D03*
X131500Y46500D03*
X222500Y56500D03*
G54D24*
X73500Y78665D03*
X68500D03*
X63500D03*
X58500D03*
X73500Y99335D03*
X68500D03*
X63500D03*
X58500D03*
G54D60*
X160000Y146500D03*
G54D51*
X165906Y155161D03*
Y153587D03*
Y152012D03*
Y150437D03*
Y148862D03*
Y147287D03*
Y145713D03*
Y144138D03*
Y142563D03*
Y140988D03*
Y139413D03*
Y137839D03*
X154094Y155161D03*
Y153587D03*
Y152012D03*
Y150437D03*
Y148862D03*
Y147287D03*
Y145713D03*
Y144138D03*
Y142563D03*
Y140988D03*
Y139413D03*
Y137839D03*
G54D42*
X128146Y196850D03*
X193106D03*
G54D52*
X154094Y136264D03*
G54D43*
X140941Y186614D03*
X138972D03*
X176374D03*
X174406D03*
X172437D03*
X170468D03*
X168500D03*
X166532D03*
X164563D03*
X162594D03*
X160626D03*
X158658D03*
X156689D03*
X154720D03*
X152752D03*
X150784D03*
X148815D03*
X146846D03*
X144878D03*
X142910D03*
G54D61*
X168000Y153587D03*
Y139413D03*
Y144138D03*
Y148862D03*
X152000Y137839D03*
Y142563D03*
Y147287D03*
Y152012D03*
X206500Y163100D03*
X206300Y167000D03*
X206580Y158500D03*
X199601Y161584D03*
X206350Y152436D03*
X206300Y169500D03*
X206500Y160800D03*
X199601Y159284D03*
X206350Y149936D03*
X197300Y162700D03*
X206549Y156200D03*
X195200Y163500D03*
G54D25*
X66000Y89000D03*
G54D70*
X205532Y142988D03*
Y177004D03*
G54D34*
X140782Y80503D03*
X138813D03*
Y113377D03*
X140782D03*
X160467Y80503D03*
X158498D03*
X156530D03*
X154561D03*
X152593D03*
X150624D03*
X148656D03*
X146687D03*
X144719D03*
X142750D03*
Y113377D03*
X144719D03*
X146687D03*
X148656D03*
X150624D03*
X152593D03*
X154561D03*
X156530D03*
X158498D03*
X160467D03*
G54D16*
X54000Y46500D03*
X30378D03*
G54D80*
G01X-56500Y-49978D02*
Y-48559D01*
G01X-50360Y-49159D02*
X-56500D01*
G01Y-49859D02*
X-52840D01*
G01X-52050Y-55169D02*
X-56500Y-49978D01*
G01X-52600Y-50549D02*
X-56010D01*
G01X-58620Y-44139D02*
Y-55169D01*
G01X-61930Y-49859D02*
X-58620D01*
G01Y-49159D02*
X-61930D01*
G01X-58620Y-50549D02*
X-61930D01*
G01Y-51239D02*
X-58620D01*
G01Y-51939D02*
X-61930D01*
G01X-58620Y-53328D02*
X-61930D01*
G01Y-52628D02*
X-58620D01*
G01X-61930Y-54019D02*
X-58620D01*
G01Y-54719D02*
X-61930D01*
G01Y-55169D02*
Y-42419D01*
G01X-36730Y-52928D02*
X-37200Y-53299D01*
G01X-33670Y-53328D02*
X-37260D01*
G01X-37200Y-53299D02*
X-37730Y-53559D01*
G01D02*
X-38300Y-53719D01*
G01D02*
X-38900Y-53759D01*
G01D02*
X-40510D01*
G01D02*
X-40990Y-53709D01*
G01X-41460Y-53559D02*
X-41880Y-53328D01*
G01X-40990Y-53709D02*
X-41460Y-53559D01*
G01X-43030Y-51278D02*
Y-48089D01*
G01X-42850Y-52239D02*
X-43000Y-51769D01*
G01D02*
X-43030Y-51278D01*
G01X-41880Y-53328D02*
X-42240Y-53009D01*
G01D02*
X-42590Y-52659D01*
G01D02*
X-42850Y-52239D01*
G01X-43750Y-54739D02*
X-43070Y-54939D01*
G01X-43810Y-54719D02*
X-35540D01*
G01X-44400Y-54448D02*
X-43750Y-54739D01*
G01X-41870Y-53328D02*
X-45750D01*
G01X-45390Y-53778D02*
X-45000Y-54069D01*
G01D02*
X-44400Y-54448D01*
G01X-45070Y-54019D02*
X-34380D01*
G01X-43030Y-49159D02*
X-46100D01*
G01Y-49859D02*
X-43030D01*
G01Y-50549D02*
X-46100D01*
G01Y-51239D02*
X-43030D01*
G01X-46100Y-48089D02*
Y-52019D01*
G01D02*
X-46070Y-52509D01*
G01X-42940Y-51939D02*
X-46100D01*
G01X-46070Y-52509D02*
X-45930Y-52978D01*
G01D02*
X-45700Y-53409D01*
G01D02*
X-45390Y-53778D01*
G01X-46030Y-52628D02*
X-42610D01*
G01X-49840Y-48759D02*
X-50200Y-49069D01*
G01D02*
X-50800Y-49409D01*
G01D02*
X-51460Y-49648D01*
G01D02*
X-52140Y-49769D01*
G01X-48800Y-54719D02*
X-52440D01*
G01X-52140Y-49769D02*
X-52840Y-49778D01*
G01D02*
Y-50289D01*
G01D02*
X-48390Y-55169D01*
G01X-53030Y-54019D02*
X-49440D01*
G01X-54220Y-52628D02*
X-50700D01*
G01X-50070Y-53328D02*
X-53630D01*
G01X-51330Y-51939D02*
X-54820D01*
G01X-55410Y-51239D02*
X-51970D01*
G01X-55670Y-59678D02*
X-55860Y-59739D01*
G01X-55610Y-62949D02*
X-55790Y-62909D01*
G01X-55860Y-59739D02*
X-56040Y-59828D01*
G01D02*
X-56190Y-59959D01*
G01D02*
X-56320Y-60109D01*
G01D02*
X-56410Y-60289D01*
G01D02*
X-56470Y-60478D01*
G01D02*
X-56490Y-60678D01*
G01X-56500Y-61909D02*
Y-61319D01*
G01D02*
X-53660D01*
G01X-56500Y-60678D02*
Y-61319D01*
G01X-55790Y-62909D02*
X-55960Y-62828D01*
G01D02*
X-56110Y-62719D01*
G01D02*
X-56240Y-62589D01*
G01D02*
X-56350Y-62439D01*
G01D02*
X-56430Y-62269D01*
G01D02*
X-56470Y-62089D01*
G01D02*
X-56490Y-61909D01*
G01X-59260Y-61328D02*
X-59110Y-61369D01*
G01D02*
X-58980Y-61439D01*
G01D02*
X-58850Y-61539D01*
G01D02*
X-58750Y-61669D01*
G01D02*
X-58680Y-61798D01*
G01D02*
X-58640Y-61949D01*
G01D02*
X-58620Y-62109D01*
G01D02*
X-58640Y-62278D01*
G01D02*
X-58690Y-62439D01*
G01D02*
X-58760Y-62589D01*
G01D02*
X-58870Y-62719D01*
G01D02*
X-59000Y-62828D01*
G01D02*
X-59150Y-62898D01*
G01D02*
X-59310Y-62949D01*
G01X-59420Y-61309D02*
X-59260Y-61328D01*
G01X-59310Y-62949D02*
X-59480Y-62969D01*
G01X-61040Y-61319D02*
X-59420D01*
G01X-58620Y-55169D02*
X-61930D01*
G01X-58620Y-59659D02*
X-61170D01*
G01D02*
X-61340Y-59678D01*
G01D02*
X-61500Y-59739D01*
G01D02*
X-61640Y-59828D01*
G01D02*
X-61760Y-59949D01*
G01X-61780Y-60909D02*
X-61670Y-61049D01*
G01D02*
X-61530Y-61159D01*
G01D02*
X-61380Y-61239D01*
G01D02*
X-61210Y-61289D01*
G01D02*
X-61040Y-61309D01*
G01X-59480Y-62969D02*
X-61930D01*
G01X-61760Y-59949D02*
X-61850Y-60089D01*
G01D02*
X-61910Y-60249D01*
G01X-61930Y-60419D02*
X-61910Y-60589D01*
G01D02*
X-61860Y-60759D01*
G01X-61910Y-60249D02*
X-61930Y-60419D01*
G01X-61860Y-60759D02*
X-61780Y-60909D01*
G01X-36830Y-60109D02*
X-36960Y-60289D01*
G01D02*
X-37050Y-60498D01*
G01D02*
X-37110Y-60709D01*
G01D02*
X-37130Y-60928D01*
G01D02*
Y-61678D01*
G01D02*
X-37110Y-61898D01*
G01D02*
X-37050Y-62119D01*
G01D02*
X-36960Y-62319D01*
G01D02*
X-36830Y-62509D01*
G01X-37360Y-55139D02*
X-36460Y-54999D01*
G01X-38270Y-55169D02*
X-37360Y-55139D01*
G01X-41020Y-55169D02*
X-38270D01*
G01X-41210Y-59678D02*
X-41000Y-59659D01*
G01D02*
X-39250D01*
G01Y-62969D02*
X-41000D01*
G01D02*
X-41190Y-62949D01*
G01D02*
X-41370Y-62898D01*
G01X-42050Y-55109D02*
X-41020Y-55169D01*
G01X-41420Y-59739D02*
X-41210Y-59678D01*
G01X-41770Y-59978D02*
X-41610Y-59839D01*
G01D02*
X-41420Y-59739D01*
G01X-42090Y-60749D02*
X-42070Y-60539D01*
G01D02*
X-42010Y-60328D01*
G01D02*
X-41910Y-60139D01*
G01D02*
X-41770Y-59978D01*
G01X-42090Y-61878D02*
Y-60749D01*
G01X-41370Y-62898D02*
X-41550Y-62819D01*
G01D02*
X-41700Y-62709D01*
G01D02*
X-41830Y-62578D01*
G01D02*
X-41940Y-62419D01*
G01D02*
X-42020Y-62249D01*
G01D02*
X-42070Y-62069D01*
G01D02*
X-42090Y-61878D01*
G01X-43070Y-54939D02*
X-42050Y-55109D01*
G01X-44690Y-59659D02*
Y-62969D01*
G01X-47280D02*
Y-59659D01*
G01D02*
X-47800D01*
G01D02*
X-49210Y-62969D01*
G01D02*
X-50750Y-59659D01*
G01D02*
X-51300D01*
G01D02*
Y-62969D01*
G01X-48390Y-55169D02*
X-52050D01*
G01X-53660Y-59659D02*
X-55470D01*
G01D02*
X-55670Y-59678D01*
G01X-53660Y-62969D02*
X-55430D01*
G01D02*
X-55610Y-62949D01*
G01X-56500Y-48559D02*
X-54720D01*
G01X-57440Y-41948D02*
X-54410D01*
G01X-55000Y-43359D02*
X-57850D01*
G01D02*
X-58050Y-43389D01*
G01D02*
X-58230Y-43469D01*
G01D02*
X-58400Y-43589D01*
G01D02*
X-58520Y-43748D01*
G01D02*
X-58600Y-43939D01*
G01D02*
X-58620Y-44139D01*
G01X-59690Y-42089D02*
X-57440Y-41948D01*
G01X-60590Y-42219D02*
X-52020D01*
G01X-61930Y-42919D02*
X-50310D01*
G01X-58410Y-43609D02*
X-61930D01*
G01Y-44298D02*
X-58620D01*
G01X-61930Y-45689D02*
X-58620D01*
G01Y-44998D02*
X-61930D01*
G01X-58620Y-46389D02*
X-61930D01*
G01Y-47078D02*
X-58620D01*
G01Y-47769D02*
X-61930D01*
G01Y-48469D02*
X-58620D01*
G01X-61930Y-42419D02*
X-59690Y-42089D01*
G01X-36520Y-42139D02*
X-37370Y-41978D01*
G01X-37840Y-43519D02*
X-37360Y-43748D01*
G01D02*
X-36930Y-44069D01*
G01X-33870Y-43609D02*
X-37650D01*
G01X-37370Y-41978D02*
X-38230Y-41948D01*
G01X-38900Y-43359D02*
X-38360Y-43389D01*
G01D02*
X-37840Y-43519D01*
G01X-40350Y-43359D02*
X-38900D01*
G01X-38230Y-41948D02*
X-41340D01*
G01X-40920Y-43398D02*
X-40350Y-43359D01*
G01X-41340Y-41948D02*
X-42140Y-41978D01*
G01X-41970Y-43819D02*
X-41470Y-43548D01*
G01D02*
X-40920Y-43398D01*
G01X-42140Y-41978D02*
X-42940Y-42119D01*
G01X-42400Y-44189D02*
X-41970Y-43819D01*
G01X-42670Y-44498D02*
X-42400Y-44189D01*
G01X-43030Y-45648D02*
X-42990Y-45239D01*
G01D02*
X-42870Y-44848D01*
G01D02*
X-42670Y-44498D01*
G01X-43030Y-48089D02*
Y-45648D01*
G01X-36280Y-42219D02*
X-43230D01*
G01X-42940Y-42119D02*
X-43700Y-42378D01*
G01D02*
X-44410Y-42769D01*
G01X-44590Y-42919D02*
X-34710D01*
G01X-44410Y-42769D02*
X-45040Y-43278D01*
G01D02*
X-45410Y-43589D01*
G01X-41570Y-43609D02*
X-45420D01*
G01X-45410Y-43589D02*
X-45700Y-43969D01*
G01X-45930Y-44389D02*
X-46060Y-44848D01*
G01X-45700Y-43969D02*
X-45930Y-44389D01*
G01X-45880Y-44298D02*
X-42500D01*
G01X-46060Y-44848D02*
X-46100Y-45328D01*
G01X-42920Y-44998D02*
X-46070D01*
G01X-46100Y-45689D02*
X-43030D01*
G01Y-46389D02*
X-46100D01*
G01Y-47078D02*
X-43030D01*
G01X-46100Y-45328D02*
Y-48089D01*
G01D02*
X-43030D01*
G01D02*
X-46100D01*
G01X-43030Y-47769D02*
X-46100D01*
G01Y-48469D02*
X-43030D01*
G01X-49650Y-43598D02*
X-49430Y-43909D01*
G01D02*
X-49280Y-44259D01*
G01D02*
X-49190Y-44639D01*
G01D02*
X-49170Y-45019D01*
G01D02*
Y-47019D01*
G01D02*
X-49210Y-47499D01*
G01D02*
X-49330Y-47959D01*
G01D02*
X-49550Y-48378D01*
G01D02*
X-49840Y-48759D01*
G01X-50550Y-42719D02*
X-50060Y-43119D01*
G01D02*
X-49650Y-43598D01*
G01X-51100Y-42419D02*
X-50550Y-42719D01*
G01X-52240Y-45369D02*
X-52300Y-44928D01*
G01D02*
X-52450Y-44519D01*
G01X-49170Y-44998D02*
X-52290D01*
G01X-52240Y-45689D02*
X-49170D01*
G01X-52240Y-46469D02*
Y-45369D01*
G01X-49170Y-46389D02*
X-52240D01*
G01X-52410Y-47328D02*
X-52290Y-46909D01*
G01D02*
X-52240Y-46469D01*
G01X-52340Y-47078D02*
X-49180D01*
G01X-52740Y-42069D02*
X-51100Y-42419D01*
G01X-52450Y-44519D02*
X-52680Y-44148D01*
G01D02*
X-52990Y-43839D01*
G01X-52580Y-44298D02*
X-49270D01*
G01X-53060Y-48099D02*
X-52600Y-47728D01*
G01D02*
X-52410Y-47328D01*
G01X-49280Y-47769D02*
X-52650D01*
G01X-52990Y-43839D02*
X-53630Y-43548D01*
G01X-49640Y-43609D02*
X-53500D01*
G01X-54140Y-48519D02*
X-53580Y-48369D01*
G01D02*
X-53060Y-48099D01*
G01X-53950Y-48469D02*
X-49610D01*
G01X-54410Y-41948D02*
X-52740Y-42069D01*
G01X-53630Y-43548D02*
X-54310Y-43389D01*
G01D02*
X-55000Y-43359D01*
G01X-54720Y-48559D02*
X-54140Y-48519D01*
G01X-33160Y-52298D02*
X-33110Y-51748D01*
G01D02*
Y-45609D01*
G01X-33340Y-52819D02*
X-33160Y-52298D01*
G01X-33630Y-53289D02*
X-33340Y-52819D01*
G01X-34480Y-54119D02*
X-34020Y-53678D01*
G01D02*
X-33630Y-53289D01*
G01X-35010Y-54469D02*
X-34480Y-54119D01*
G01X-36180Y-49859D02*
X-33110D01*
G01Y-49159D02*
X-36180D01*
G01X-33110Y-50549D02*
X-36180D01*
G01Y-45609D02*
Y-51278D01*
G01Y-51239D02*
X-33110D01*
G01X-36180Y-51278D02*
X-36240Y-51859D01*
G01X-33130Y-51939D02*
X-36270D01*
G01X-35590Y-54739D02*
X-35010Y-54469D01*
G01X-36240Y-51859D02*
X-36430Y-52419D01*
G01D02*
X-36730Y-52928D01*
G01X-36560Y-52628D02*
X-33280D01*
G01X-36460Y-54999D02*
X-35590Y-54739D01*
G01X-3110Y-49159D02*
X-6420D01*
G01Y-49859D02*
X-3110D01*
G01Y-50549D02*
X-6420D01*
G01Y-51239D02*
X-3110D01*
G01Y-51939D02*
X-6420D01*
G01Y-52628D02*
X-3110D01*
G01Y-53328D02*
X-6420D01*
G01Y-54019D02*
X-3110D01*
G01Y-54719D02*
X-6420D01*
G01Y-44398D02*
Y-55169D01*
G01X-9490D02*
Y-44428D01*
G01X-12560Y-49859D02*
X-9490D01*
G01Y-49159D02*
X-12560D01*
G01X-9490Y-50549D02*
X-12560D01*
G01Y-51239D02*
X-9490D01*
G01Y-51939D02*
X-12560D01*
G01X-9490Y-53328D02*
X-12560D01*
G01Y-52628D02*
X-9490D01*
G01X-12560Y-54019D02*
X-9490D01*
G01Y-54719D02*
X-12560D01*
G01Y-42419D02*
Y-55169D01*
G01X-16100D02*
Y-42419D01*
G01X-20030Y-49298D02*
X-19820Y-49378D01*
G01D02*
X-19650Y-49509D01*
G01D02*
X-19520Y-49678D01*
G01D02*
X-19440Y-49878D01*
G01X-16100Y-49859D02*
X-19450D01*
G01X-19440Y-49878D02*
X-19410Y-50098D01*
G01Y-50549D02*
X-16100D01*
G01Y-51239D02*
X-19410D01*
G01Y-51939D02*
X-16100D01*
G01X-19410Y-53328D02*
X-16100D01*
G01Y-52628D02*
X-19410D01*
G01X-16100Y-54019D02*
X-19410D01*
G01Y-54719D02*
X-16100D01*
G01X-19410Y-50098D02*
Y-55169D01*
G01X-20240Y-49269D02*
X-20030Y-49298D01*
G01X-25920Y-49289D02*
X-25720Y-49269D01*
G01D02*
X-20240D01*
G01X-26110Y-49369D02*
X-25920Y-49289D01*
G01X-26470Y-49848D02*
X-26390Y-49659D01*
G01D02*
X-26270Y-49498D01*
G01D02*
X-26110Y-49369D01*
G01X-26500Y-50049D02*
X-26470Y-49848D01*
G01X-26500Y-55169D02*
Y-50049D01*
G01X-26470Y-49859D02*
X-29800D01*
G01Y-49159D02*
X-16100D01*
G01X-29800Y-50549D02*
X-26500D01*
G01Y-51239D02*
X-29800D01*
G01Y-51939D02*
X-26500D01*
G01Y-52628D02*
X-29800D01*
G01Y-53328D02*
X-26500D01*
G01Y-54019D02*
X-29800D01*
G01Y-54719D02*
X-26500D01*
G01X-29800Y-42419D02*
Y-55169D01*
G01X3030D02*
Y-45209D01*
G01Y-49159D02*
X-40D01*
G01Y-49859D02*
X3030D01*
G01Y-50549D02*
X-40D01*
G01Y-51239D02*
X3030D01*
G01Y-51939D02*
X-40D01*
G01Y-52628D02*
X3030D01*
G01Y-53328D02*
X-40D01*
G01Y-54019D02*
X3030D01*
G01Y-54719D02*
X-40D01*
G01Y-44859D02*
Y-55169D01*
G01X-3110D02*
Y-44409D01*
G01X-28700Y-62969D02*
X-30980Y-59659D01*
G01D02*
X-31460D01*
G01D02*
Y-62969D01*
G01X-34120Y-60119D02*
X-34280Y-59959D01*
G01D02*
X-34470Y-59828D01*
G01X-33820Y-60959D02*
X-33840Y-60728D01*
G01D02*
X-33900Y-60519D01*
G01D02*
X-33990Y-60309D01*
G01D02*
X-34120Y-60119D01*
G01X-33820Y-61649D02*
Y-60959D01*
G01X-33840Y-61859D02*
X-33820Y-61649D01*
G01X-34360Y-62719D02*
X-34210Y-62578D01*
G01D02*
X-34070Y-62428D01*
G01D02*
X-33960Y-62249D01*
G01D02*
X-33880Y-62059D01*
G01D02*
X-33840Y-61859D01*
G01X-34470Y-59828D02*
X-34680Y-59739D01*
G01D02*
X-34890Y-59678D01*
G01D02*
X-35120Y-59659D01*
G01X-35140Y-62969D02*
X-34930Y-62949D01*
G01D02*
X-34730Y-62909D01*
G01D02*
X-34540Y-62828D01*
G01D02*
X-34360Y-62719D01*
G01X-35120Y-59659D02*
X-35860D01*
G01D02*
X-36080Y-59678D01*
G01X-36280Y-62889D02*
X-36060Y-62949D01*
G01D02*
X-35840Y-62969D01*
G01D02*
X-35140D01*
G01X-36080Y-59678D02*
X-36290Y-59739D01*
G01D02*
X-36490Y-59828D01*
G01D02*
X-36680Y-59959D01*
G01D02*
X-36830Y-60109D01*
G01Y-62509D02*
X-36670Y-62669D01*
G01D02*
X-36490Y-62798D01*
G01D02*
X-36280Y-62889D01*
G01X-5180Y-60119D02*
X-5310Y-60298D01*
G01D02*
X-5400Y-60509D01*
G01D02*
X-5460Y-60728D01*
G01D02*
X-5480Y-60949D01*
G01X-5470D02*
Y-61659D01*
G01D02*
X-5450Y-61859D01*
G01D02*
X-5410Y-62059D01*
G01D02*
X-5330Y-62249D01*
G01D02*
X-5220Y-62428D01*
G01X-6420Y-55169D02*
X-3110D01*
G01X-7600Y-59659D02*
X-9020D01*
G01D02*
Y-62969D01*
G01X-10430Y-59659D02*
X-9020D01*
G01X-12560Y-55169D02*
X-9490D01*
G01X-14120Y-59659D02*
X-12320D01*
G01Y-62969D02*
X-14090D01*
G01X-14790Y-59898D02*
X-14640Y-59798D01*
G01D02*
X-14480Y-59719D01*
G01D02*
X-14300Y-59678D01*
G01D02*
X-14120Y-59659D01*
G01X-14090Y-62969D02*
X-14280Y-62949D01*
G01D02*
X-14460Y-62909D01*
G01D02*
X-14630Y-62828D01*
G01D02*
X-14780Y-62719D01*
G01X-15100Y-60339D02*
X-15020Y-60178D01*
G01D02*
X-14920Y-60028D01*
G01D02*
X-14790Y-59898D01*
G01X-15160Y-60698D02*
X-15140Y-60519D01*
G01D02*
X-15100Y-60339D01*
G01X-15160Y-61898D02*
Y-60698D01*
G01X-14780Y-62719D02*
X-14910Y-62589D01*
G01D02*
X-15020Y-62428D01*
G01D02*
X-15100Y-62269D01*
G01D02*
X-15140Y-62089D01*
G01D02*
X-15160Y-61898D01*
G01X-17280Y-59659D02*
Y-61659D01*
G01X-17290D02*
X-17310Y-61889D01*
G01D02*
X-17370Y-62109D01*
G01D02*
X-17470Y-62309D01*
G01D02*
X-17600Y-62498D01*
G01D02*
X-17760Y-62659D01*
G01D02*
X-17940Y-62789D01*
G01D02*
X-18150Y-62889D01*
G01D02*
X-18370Y-62949D01*
G01D02*
X-18600Y-62969D01*
G01D02*
X-19120D01*
G01X-19410Y-55169D02*
X-16100D01*
G01X-19120Y-62969D02*
X-19340Y-62949D01*
G01D02*
X-19540Y-62898D01*
G01D02*
X-19740Y-62798D01*
G01D02*
X-19920Y-62678D01*
G01X-20350Y-61728D02*
Y-59659D01*
G01X-19920Y-62678D02*
X-20070Y-62528D01*
G01D02*
X-20190Y-62349D01*
G01D02*
X-20290Y-62149D01*
G01D02*
X-20340Y-61949D01*
G01D02*
X-20360Y-61728D01*
G01X-23360Y-59828D02*
X-23180Y-59959D01*
G01D02*
X-23020Y-60119D01*
G01D02*
X-22890Y-60298D01*
G01D02*
X-22800Y-60509D01*
G01D02*
X-22740Y-60728D01*
G01D02*
X-22720Y-60949D01*
G01D02*
Y-61659D01*
G01D02*
X-22740Y-61859D01*
G01D02*
X-22780Y-62059D01*
G01D02*
X-22860Y-62249D01*
G01D02*
X-22970Y-62428D01*
G01D02*
X-23100Y-62589D01*
G01D02*
X-23260Y-62719D01*
G01X-24010Y-59659D02*
X-23790Y-59678D01*
G01D02*
X-23570Y-59739D01*
G01D02*
X-23360Y-59828D01*
G01X-23260Y-62719D02*
X-23440Y-62828D01*
G01D02*
X-23630Y-62909D01*
G01D02*
X-23830Y-62949D01*
G01D02*
X-24030Y-62969D01*
G01X-25790Y-59659D02*
X-24010D01*
G01X-24030Y-62969D02*
X-25790D01*
G01D02*
Y-59659D01*
G01X-28150D02*
Y-62969D01*
G01D02*
X-28700D01*
G01X-29800Y-55169D02*
X-26500D01*
G01X2970Y-60149D02*
X3010Y-60298D01*
G01D02*
X3030Y-60459D01*
G01D02*
X3010Y-60628D01*
G01X2230Y-59659D02*
X2390Y-59678D01*
G01D02*
X2540Y-59719D01*
G01D02*
X2670Y-59789D01*
G01D02*
X2800Y-59889D01*
G01D02*
X2900Y-60019D01*
G01D02*
X2970Y-60149D01*
G01X3010Y-60628D02*
X2960Y-60789D01*
G01D02*
X2890Y-60939D01*
G01D02*
X2780Y-61069D01*
G01D02*
X2650Y-61178D01*
G01D02*
X2500Y-61249D01*
G01D02*
X2340Y-61298D01*
G01D02*
X2170Y-61319D01*
G01D02*
X1890D01*
G01X2790Y-62969D02*
X1890Y-61319D01*
G01X-40Y-55169D02*
X3030D01*
G01X-40Y-59659D02*
X2230D01*
G01X1890Y-61319D02*
X-40D01*
G01Y-59659D02*
Y-61319D01*
G01D02*
Y-62969D01*
G01X-2170Y-60939D02*
X-2190Y-60719D01*
G01X-2170Y-61669D02*
Y-60939D01*
G01X-2190Y-61898D02*
X-2170Y-61669D01*
G01X-2190Y-60719D02*
X-2250Y-60498D01*
G01D02*
X-2340Y-60298D01*
G01D02*
X-2470Y-60119D01*
G01D02*
X-2630Y-59959D01*
G01D02*
X-2810Y-59828D01*
G01X-2820Y-62798D02*
X-2630Y-62669D01*
G01D02*
X-2470Y-62509D01*
G01D02*
X-2340Y-62319D01*
G01D02*
X-2250Y-62109D01*
G01D02*
X-2190Y-61898D01*
G01X-2810Y-59828D02*
X-3010Y-59739D01*
G01D02*
X-3230Y-59678D01*
G01D02*
X-3450Y-59659D01*
G01X-3470Y-62969D02*
X-3240Y-62949D01*
G01D02*
X-3030Y-62889D01*
G01D02*
X-2820Y-62798D01*
G01X-3450Y-59659D02*
X-4190D01*
G01D02*
X-4410Y-59678D01*
G01D02*
X-4630Y-59739D01*
G01X-4560Y-62909D02*
X-4360Y-62949D01*
G01D02*
X-4160Y-62969D01*
G01D02*
X-3470D01*
G01X-4630Y-59739D02*
X-4830Y-59828D01*
G01D02*
X-5020Y-59959D01*
G01D02*
X-5180Y-60119D01*
G01X-5220Y-62428D02*
X-5090Y-62589D01*
G01D02*
X-4930Y-62719D01*
G01D02*
X-4750Y-62828D01*
G01D02*
X-4560Y-62909D01*
G01X-33320Y-44448D02*
X-33600Y-43928D01*
G01X-33110Y-45609D02*
X-33160Y-45019D01*
G01D02*
X-33320Y-44448D01*
G01X-33600Y-43928D02*
X-33980Y-43478D01*
G01D02*
X-34500Y-43039D01*
G01D02*
X-35080Y-42689D01*
G01D02*
X-35710Y-42419D01*
G01X-36220Y-45159D02*
X-36180Y-45609D01*
G01Y-45689D02*
X-33110D01*
G01X-33160Y-44998D02*
X-36270D01*
G01X-33110Y-46389D02*
X-36180D01*
G01Y-47078D02*
X-33110D01*
G01Y-47769D02*
X-36180D01*
G01Y-48469D02*
X-33110D01*
G01X-35710Y-42419D02*
X-36520Y-42139D01*
G01X-36930Y-44069D02*
X-36600Y-44369D01*
G01D02*
X-36360Y-44739D01*
G01D02*
X-36220Y-45159D01*
G01X-36680Y-44298D02*
X-33400D01*
G01X-6440Y-44189D02*
X-6420Y-44398D01*
G01X-6430Y-44298D02*
X-3100D01*
G01X-3110Y-44998D02*
X-6420D01*
G01Y-45689D02*
X-3110D01*
G01Y-46389D02*
X-6420D01*
G01Y-47078D02*
X-3110D01*
G01Y-47769D02*
X-6420D01*
G01Y-48469D02*
X-3110D01*
G01X-2320Y-41948D02*
X-6650D01*
G01X-7220Y-43598D02*
X-7010Y-43628D01*
G01D02*
X-6820Y-43709D01*
G01D02*
X-6650Y-43828D01*
G01D02*
X-6530Y-43998D01*
G01D02*
X-6440Y-44189D01*
G01X-2380Y-43609D02*
X-7140D01*
G01X-8880Y-43628D02*
X-8660Y-43598D01*
G01D02*
X-7220D01*
G01X-6650Y-41948D02*
X-9620Y-42039D01*
G01X-9250Y-43839D02*
X-9070Y-43709D01*
G01D02*
X-8880Y-43628D01*
G01X-9490Y-44428D02*
X-9460Y-44209D01*
G01D02*
X-9380Y-44009D01*
G01D02*
X-9250Y-43839D01*
G01X-11010Y-42219D02*
X140D01*
G01X-12560Y-42919D02*
X1720D01*
G01X-9620Y-42039D02*
X-12560Y-42419D01*
G01X-8740Y-43609D02*
X-12560D01*
G01Y-44298D02*
X-9470D01*
G01X-12560Y-45689D02*
X-9490D01*
G01Y-44998D02*
X-12560D01*
G01X-9490Y-46389D02*
X-12560D01*
G01Y-47078D02*
X-9490D01*
G01Y-47769D02*
X-12560D01*
G01Y-48469D02*
X-9490D01*
G01X-16100Y-42419D02*
X-19410D01*
G01Y-42919D02*
X-16100D01*
G01Y-43609D02*
X-19410D01*
G01Y-44298D02*
X-16100D01*
G01X-19410Y-45689D02*
X-16100D01*
G01Y-44998D02*
X-19410D01*
G01X-16100Y-46389D02*
X-19410D01*
G01Y-42419D02*
Y-46828D01*
G01D02*
X-19440Y-47028D01*
G01D02*
X-19520Y-47219D01*
G01X-19460Y-47078D02*
X-16100D01*
G01X-19520Y-47219D02*
X-19640Y-47389D01*
G01D02*
X-19800Y-47509D01*
G01D02*
X-19990Y-47589D01*
G01D02*
X-20190Y-47609D01*
G01D02*
X-25690D01*
G01D02*
X-25900Y-47589D01*
G01D02*
X-26090Y-47509D01*
G01D02*
X-26260Y-47378D01*
G01D02*
X-26390Y-47209D01*
G01D02*
X-26470Y-47019D01*
G01D02*
X-26500Y-46809D01*
G01D02*
Y-42419D01*
G01X-29800Y-42919D02*
X-26500D01*
G01Y-42419D02*
X-29800D01*
G01X-26500Y-43609D02*
X-29800D01*
G01Y-44298D02*
X-26500D01*
G01Y-44998D02*
X-29800D01*
G01Y-45689D02*
X-26500D01*
G01Y-46389D02*
X-29800D01*
G01Y-47078D02*
X-26440D01*
G01X-29800Y-47769D02*
X-16100D01*
G01Y-48469D02*
X-29800D01*
G01X3030Y-45209D02*
X2980Y-44659D01*
G01D02*
X2820Y-44128D01*
G01D02*
X2540Y-43648D01*
G01D02*
X2160Y-43239D01*
G01D02*
X1510Y-42759D01*
G01D02*
X780Y-42398D01*
G01D02*
X0Y-42178D01*
G01X-330Y-44039D02*
X-170Y-44278D01*
G01D02*
X-70Y-44559D01*
G01X-160Y-44298D02*
X2870D01*
G01X-70Y-44559D02*
X-40Y-44859D01*
G01X3010Y-44998D02*
X-40D01*
G01Y-45689D02*
X3030D01*
G01Y-46389D02*
X-40D01*
G01Y-47078D02*
X3030D01*
G01Y-47769D02*
X-40D01*
G01Y-48469D02*
X3030D01*
G01X0Y-42178D02*
X-1160Y-42009D01*
G01X-1030Y-43669D02*
X-550Y-43839D01*
G01D02*
X-330Y-44039D01*
G01X-1540Y-43598D02*
X-1030Y-43669D01*
G01X2500Y-43609D02*
X-1460D01*
G01X-1160Y-42009D02*
X-2320Y-41948D01*
G01X-2870Y-43839D02*
X-2700Y-43709D01*
G01D02*
X-2510Y-43628D01*
G01D02*
X-2300Y-43598D01*
G01D02*
X-1540D01*
G01X-3000Y-43998D02*
X-2870Y-43839D01*
G01X-3110Y-44409D02*
X-3080Y-44198D01*
G01D02*
X-3000Y-43998D01*
G54D62*
X160626Y227087D03*
G54D44*
X128146Y223543D03*
X193106D03*
G54D71*
X226398Y136965D03*
Y183028D03*
G54D17*
X21374Y172189D03*
Y176126D03*
Y180063D03*
Y184000D03*
Y187937D03*
Y191874D03*
Y195811D03*
G54D35*
X138000Y126228D03*
X133081Y126203D03*
X128081Y126047D03*
X138000Y129772D03*
X133081Y129747D03*
X128081Y129590D03*
X143000Y126228D03*
Y129772D03*
G54D53*
X156063Y158311D03*
G54D26*
X93725Y119521D03*
G54D81*
G01X138813Y80503D02*
Y85500D01*
G01X133203Y93987D02*
X138487D01*
G01X128000Y97000D02*
X128500D01*
X129544Y95956D01*
X133203D01*
G01X138813Y85500D02*
X140282D01*
X140782Y85000D01*
Y80503D01*
G01X133203Y90050D02*
X138500D01*
G01X133203Y92019D02*
X129481D01*
X128000Y93500D01*
G01X182040Y86500D02*
Y81360D01*
G01X148656Y80503D02*
Y85500D01*
G01X150624Y80503D02*
Y75000D01*
G01X166077Y99893D02*
X162393D01*
X161000Y98500D01*
G01X171000Y109500D02*
Y109000D01*
X169767Y107767D01*
X166077D01*
G01Y105798D02*
X171000D01*
G01D02*
Y104500D01*
X170330Y103830D01*
X166077D01*
G01X184540Y102660D02*
Y106460D01*
X183500Y107500D01*
G01X161000Y102500D02*
X161639Y101861D01*
X166077D01*
G01X144719Y113377D02*
Y109219D01*
X144000Y108500D01*
G01X180000Y184000D02*
Y185000D01*
X178386Y186614D01*
X176374D01*
G01X170500Y193000D02*
X169500D01*
X168500Y192000D01*
Y186614D01*
G01X158658D02*
Y193000D01*
G01X174406Y186614D02*
Y193000D01*
G01X152752Y186614D02*
Y193000D01*
G01X146846Y186614D02*
Y193000D01*
G01X140941Y186614D02*
Y193000D01*
G01X187040Y81360D02*
Y86460D01*
G01X192040Y102660D02*
Y107500D01*
G01X187040Y102660D02*
Y106960D01*
G01X202894Y149563D02*
X203737D01*
X205170Y148130D01*
X207230D01*
X207679Y148579D01*
X209193D01*
G01X201350Y146580D02*
X201800Y147030D01*
Y149090D01*
X202273Y149563D01*
X202894D01*
G01Y171413D02*
X202057D01*
X201560Y171910D01*
Y172840D01*
X200730Y173670D01*
G01X209193Y170429D02*
X208361D01*
X207180Y171610D01*
X205110D01*
X204913Y171413D01*
X202894D01*
G54D18*
G01X51550Y12500D02*
X55000D01*
G01X49400Y46500D02*
X54000D01*
G01X55000Y9050D02*
Y12500D01*
G01D02*
Y15950D01*
G01Y12500D02*
X58450D01*
G01X54000Y40450D02*
Y46500D01*
G01D02*
Y52550D01*
G01Y46500D02*
X58600D01*
G01X58500Y99335D02*
Y94500D01*
X59500Y93500D01*
G01X76500Y154300D02*
Y158000D01*
G01D02*
Y161700D01*
G01X72800Y158000D02*
X76500D01*
G01D02*
X80200D01*
G01X77000Y185500D02*
Y188600D01*
G01X73900Y185500D02*
X77000D01*
G01D02*
X80100D01*
G01X141000Y49500D02*
Y37000D01*
X144500Y33500D01*
X167000D01*
X170000Y30500D01*
Y22500D01*
X175000Y17500D01*
G01X131500Y52800D02*
Y56500D01*
G01D02*
Y60200D01*
G01X127800Y56500D02*
X131500D01*
G01D02*
X135200D01*
G01X131500Y66500D02*
Y70200D01*
G01X127800Y66500D02*
X131500D01*
G01D02*
X135200D01*
G01X131500Y42800D02*
Y46500D01*
G01X127800D02*
X131500D01*
G01X144500Y85500D02*
X142000Y88000D01*
Y93000D01*
X141013Y93987D01*
X138487D01*
G01X154776Y48500D02*
X159500D01*
G01X185500Y171000D02*
X186000Y171500D01*
Y176500D01*
G01X191000Y159400D02*
X190600Y159000D01*
X185500D01*
X32000Y168500D03*
X36000D03*
X29000Y172189D03*
X47500Y171500D03*
X26500Y196500D03*
Y191874D03*
X38500Y174500D03*
X35650Y183350D03*
X29000Y176126D03*
Y180063D03*
X93000Y43000D03*
X75000Y74000D03*
X58500D03*
X95500Y81500D03*
X63500Y74000D03*
X81000Y68000D03*
Y71500D03*
X97000Y67500D03*
X93000D03*
X68500Y74000D03*
X80500Y124205D03*
X93000Y88500D03*
X80800Y116100D03*
X69500Y119500D03*
X78500Y113500D03*
X79500Y110500D03*
X72500Y127500D03*
X60000Y124500D03*
X63500Y120000D03*
X93500Y114500D03*
Y119500D03*
Y124500D03*
X88500Y114500D03*
Y119500D03*
Y124500D03*
X59900Y120000D03*
X89000Y88500D03*
X95600Y101000D03*
X78500Y98000D03*
X95500Y97000D03*
X85000Y105500D03*
X88000D03*
X84000Y109500D03*
X72500Y121500D03*
X94500Y105100D03*
X77500Y87000D03*
X92200Y103200D03*
X91000Y106200D03*
X66500Y122000D03*
X80000Y128500D03*
X72500Y89500D03*
X59500D03*
X66000D03*
X59500Y86000D03*
X66000D03*
X72500D03*
Y93500D03*
X66000D03*
X59500D03*
X55500Y109000D03*
Y113500D03*
X80500Y104500D03*
X63350Y103650D03*
X82500Y140000D03*
X85600Y132070D03*
X66500Y134000D03*
X72000Y131500D03*
X59500Y134000D03*
X96087Y136763D03*
X92500Y135500D03*
X62250Y143250D03*
X93500Y145500D03*
X59600Y139000D03*
X81800Y132400D03*
X92500Y132000D03*
X90500Y148000D03*
X57000Y143000D03*
X124500Y36500D03*
Y27500D03*
Y23500D03*
Y19500D03*
X129000D03*
X124500Y15000D03*
X125500Y85000D03*
X141000Y49500D03*
X138500Y72000D03*
X103500Y43000D03*
X109500D03*
X107000Y58500D03*
X103500D03*
X98291Y74709D03*
X134150Y81000D03*
X125500Y89500D03*
X138487Y93987D03*
X118500Y92500D03*
X114000Y96500D03*
X115000Y92500D03*
X105500Y109000D03*
X109500Y108800D03*
X106500Y127500D03*
X106590Y124450D03*
X129500Y123000D03*
X133500D03*
X138000D03*
X128000Y97000D03*
X138813Y85500D03*
X138500Y90050D03*
X106000Y120309D03*
X98500Y114500D03*
X120000Y127000D03*
X116500D03*
X118000Y124000D03*
X113500Y118500D03*
X114000Y121500D03*
X126500Y119000D03*
X123500D03*
X126500Y122500D03*
X123500D03*
X121500Y124500D03*
X124000Y126500D03*
X115000Y124500D03*
X98500Y119500D03*
X97500Y124500D03*
X99500Y89500D03*
X141000Y99000D03*
X128000Y93500D03*
X141000Y103000D03*
X120000Y100000D03*
X123000Y112000D03*
Y109000D03*
X126500D03*
X123000Y106000D03*
Y103500D03*
X117000Y103000D03*
X120000D03*
X126000Y106500D03*
X126500Y112000D03*
X113500Y108000D03*
X97384Y107166D03*
X133081Y132419D03*
X128081Y132500D03*
X138000D03*
X139126Y167600D03*
X136050Y160920D03*
X135126Y167600D03*
X105000Y136500D03*
X134800Y143500D03*
X136050Y157420D03*
X134800Y147000D03*
X118900Y134920D03*
X97500Y145500D03*
X99500Y136850D03*
X140500Y149800D03*
X133560Y159240D03*
X137100Y165500D03*
X132200Y142300D03*
X132500Y148500D03*
X101500Y145500D03*
X123500Y143193D03*
X123650Y135000D03*
X112000Y161039D03*
X115500Y161500D03*
X110500Y148500D03*
X106850Y143500D03*
X111000Y134500D03*
X115000Y148500D03*
X107201Y150000D03*
X140941Y193000D03*
X177500Y58193D03*
X175500Y45500D03*
X174000Y42500D03*
X170500D03*
X168262Y81238D03*
X142500Y69000D03*
Y64500D03*
X155000Y75000D03*
X144719Y75281D03*
X151000Y67000D03*
X150624Y75000D03*
X172000Y57500D03*
X159500Y48500D03*
X158850Y60500D03*
X182040Y86500D03*
X171500Y100500D03*
X172262Y96738D03*
X161000Y98500D03*
X144500Y85500D03*
X167000Y119000D03*
X150500Y119700D03*
X152000Y96000D03*
X171000Y93000D03*
X145750Y99250D03*
X155500Y120700D03*
X171000Y86787D03*
X149000Y99250D03*
X160500Y120700D03*
X171050Y90000D03*
X152300Y129000D03*
Y125500D03*
X165500Y123000D03*
X142540Y122630D03*
X171000Y109500D03*
X148656Y85500D03*
X171000Y105798D03*
X173500Y129000D03*
X153500Y86000D03*
X149700Y124300D03*
X169000Y126500D03*
X160000Y106500D03*
X182300Y97700D03*
X144000Y108500D03*
X183500Y107500D03*
X161000Y102500D03*
X179500Y91000D03*
X150325Y92325D03*
X147500Y90150D03*
X148000Y105000D03*
X155500Y108500D03*
X151500Y105000D03*
Y108500D03*
X148000D03*
X155500Y104500D03*
X143000Y132500D03*
X172000Y160500D03*
Y163800D03*
X164900Y162100D03*
X151126Y167600D03*
X143000Y151500D03*
X163126Y167600D03*
X148000Y143000D03*
X165000Y132000D03*
X171126Y167600D03*
X181000Y156500D03*
X147000Y159500D03*
X148000Y156000D03*
X147000Y163000D03*
X148000Y146500D03*
X159126Y167600D03*
X181000Y152000D03*
Y142000D03*
Y149000D03*
Y159500D03*
X143000Y148000D03*
X155126Y167600D03*
X181000Y137390D03*
X161500Y132000D03*
X167126Y167600D03*
X181000Y134390D03*
Y145500D03*
X179500Y167000D03*
X148000Y152500D03*
X151000Y158000D03*
X150000Y130500D03*
X145700Y144700D03*
X147400Y165700D03*
X145600Y157200D03*
X157100Y165600D03*
X168000Y132000D03*
X166400Y164700D03*
X174100Y167400D03*
X182980Y154560D03*
X183276Y147280D03*
X161300Y146300D03*
X159000Y139000D03*
Y143500D03*
X161000Y151500D03*
X183030Y139740D03*
X183985Y190985D03*
X180485D03*
X179000Y211500D03*
X161000D03*
X180000Y184000D03*
X175500Y176500D03*
X182185Y193585D03*
X158658Y193000D03*
X170500D03*
X174406D03*
X152752D03*
X146846D03*
X170000Y211500D03*
X152000D03*
X172437Y180063D03*
X161500Y196500D03*
X166500D03*
X201307Y58193D03*
X209000Y77795D03*
X218500Y72000D03*
X214000D03*
X208500Y84882D03*
X198500Y75250D03*
X187500Y44807D03*
X188000Y58000D03*
X201500Y44807D03*
X194850Y61500D03*
X197000Y86500D03*
X192040Y107500D03*
X203000Y121500D03*
X207500Y112500D03*
X211000D03*
X187500Y107500D03*
X223500Y121500D03*
X192040Y86500D03*
X206500Y105000D03*
X209000Y95118D03*
X215500Y112000D03*
X225000Y111500D03*
X221000D03*
X189000Y125000D03*
X197000D03*
Y129000D03*
X189000D03*
X198500Y108750D03*
X190000Y91500D03*
X187040Y86460D03*
X191500Y156000D03*
X196400Y155200D03*
X191000Y159400D03*
X199370Y165660D03*
X193000Y169000D03*
Y166000D03*
X199000Y141000D03*
X195500D03*
X223500Y130500D03*
X195400Y170700D03*
X197300Y138800D03*
X200730Y173670D03*
X201350Y146580D03*
X187500Y148500D03*
X189000Y153000D03*
X186000Y176500D03*
X192500Y183500D03*
G54D36*
X133203Y86113D03*
Y88082D03*
Y90050D03*
Y92019D03*
Y93987D03*
Y95956D03*
Y97924D03*
Y99893D03*
Y101861D03*
Y103830D03*
Y105798D03*
Y107767D03*
X166077D03*
Y105798D03*
Y103830D03*
Y101861D03*
Y99893D03*
Y97924D03*
Y95956D03*
Y93987D03*
Y92019D03*
Y90050D03*
Y88082D03*
Y86113D03*
G54D63*
X202650Y75250D03*
Y82750D03*
Y108750D03*
Y101250D03*
G54D45*
X164224Y52240D03*
Y44760D03*
X154776Y52240D03*
Y48500D03*
Y44760D03*
G54D72*
X209193Y148579D03*
Y170429D03*
G54D54*
X165906Y156736D03*
G54D27*
X84276Y112435D03*
Y114009D03*
Y115584D03*
Y117159D03*
Y118734D03*
Y120309D03*
Y121883D03*
Y123458D03*
Y125033D03*
Y126608D03*
X103174D03*
Y125033D03*
Y123458D03*
Y121883D03*
Y120309D03*
Y118734D03*
Y117159D03*
Y115584D03*
Y114009D03*
Y112435D03*
G54D82*
G01X82500Y140000D02*
X85150Y142650D01*
X88500D01*
G01X107201Y161039D02*
X112000D01*
G54D55*
X163937Y134689D03*
G54D64*
X214783Y77795D03*
Y102205D03*
G54D19*
X24000Y209000D03*
X225000Y32500D03*
X201000Y217500D03*
G54D37*
X118500Y107500D03*
Y119500D03*
X185500Y159000D03*
Y171000D03*
G54D46*
X169150Y57500D03*
X165850D03*
X157000Y57850D03*
X153700D03*
X174850Y159500D03*
X178150D03*
X174850Y156000D03*
X178150D03*
X174850Y152500D03*
X178150D03*
X174850Y149000D03*
X178150D03*
X174850Y145500D03*
X178150D03*
X174850Y142000D03*
X178150D03*
X174850Y138500D03*
X178150D03*
X174850Y135000D03*
X178150D03*
Y163500D03*
X174850D03*
X204300Y89500D03*
X201000D03*
X204300Y94500D03*
X201000D03*
G54D73*
X209193Y150646D03*
Y152614D03*
Y154583D03*
Y156551D03*
Y158520D03*
Y160488D03*
Y162457D03*
Y164425D03*
Y166394D03*
Y168362D03*
G54D28*
X96087Y110072D03*
X94512D03*
X92938D03*
X91363D03*
X89788D03*
X88213D03*
X86638D03*
Y128970D03*
X88213D03*
X89788D03*
X91363D03*
X92938D03*
X94512D03*
X96087D03*
X100812Y110072D03*
X99237D03*
X97662D03*
Y128970D03*
X99237D03*
X100812D03*
G54D83*
G01X21374Y191874D02*
X26500D01*
G01X68500Y78665D02*
Y74000D01*
G01X82500Y140000D02*
Y135170D01*
X85600Y132070D01*
G01X71850Y138000D02*
X68800D01*
X66500Y135700D01*
Y134000D01*
G01X93500Y142650D02*
X97500D01*
G01X57000Y143000D02*
X62000Y148000D01*
X90500D01*
G01X101500Y142650D02*
X97500D01*
G01D02*
Y145500D01*
G01X118500Y143693D02*
X123000D01*
X123500Y143193D01*
G01X158850Y60500D02*
Y60350D01*
X157000Y58500D01*
Y57850D01*
G01X148575Y65425D02*
X149500D01*
X151000Y66925D01*
Y67000D01*
G01X169150Y57500D02*
X172000D01*
G01X182500Y44807D02*
X187500D01*
G01X151000Y67000D02*
Y67075D01*
X149500Y68575D01*
X148575D01*
G01X165500Y125850D02*
X168350D01*
X169000Y126500D01*
G01X165500Y125850D02*
X161000D01*
G01X178150Y163500D02*
X179500Y164850D01*
Y167000D01*
G01X179000Y170450D02*
X179500Y169950D01*
Y167000D01*
G01X175500Y170350D02*
X174100Y168950D01*
Y167400D01*
G01X214783Y77795D02*
X209000D01*
G01X202650Y75250D02*
X198500D01*
G01X196000Y44807D02*
X201500D01*
G01X213504Y95118D02*
X209000D01*
G01X202650Y108750D02*
X198500D01*
G01X213504Y84882D02*
X208500D01*
G54D29*
X60000Y113000D03*
X73000D03*
G54D38*
X121665Y87500D03*
G54D65*
X224035Y73858D03*
Y106142D03*
G54D74*
X202894Y171413D03*
Y149563D03*
G54D47*
X184540Y81360D03*
X182040D03*
X179540D03*
X177040D03*
Y102660D03*
X179540D03*
X182040D03*
X184540D03*
X194540Y81360D03*
X192040D03*
X189540D03*
X187040D03*
Y102660D03*
X189540D03*
X192040D03*
X194540D03*
G54D56*
X154094Y156736D03*
G54D48*
X145425Y65425D03*
Y68575D03*
X148575Y65425D03*
Y68575D03*
G54D39*
X117335Y87500D03*
G54D66*
X213504Y84882D03*
Y87441D03*
Y90000D03*
Y92559D03*
Y95118D03*
G54D75*
X202894Y169346D03*
Y167378D03*
Y165410D03*
Y163441D03*
Y161472D03*
Y159504D03*
Y157536D03*
Y155567D03*
Y153598D03*
Y151630D03*
G54D57*
X163937Y158311D03*
G54D76*
G01X7500Y122500D02*
X15500Y130500D01*
Y158000D01*
X24000Y166500D01*
X34000D01*
X36000Y168500D01*
G01X72500Y127500D02*
X43000D01*
X33000Y117500D01*
X17500D01*
X7500Y107500D01*
G01X60000Y124500D02*
X49000D01*
X33000Y108500D01*
X30000D01*
X26000Y104500D01*
Y97000D01*
X30500Y92500D01*
G01Y102500D02*
X50000Y122000D01*
X61500D01*
X63500Y120000D01*
G01X32000Y168500D02*
X23000D01*
X13000Y158500D01*
Y143000D01*
X7500Y137500D01*
G01X20500Y157000D02*
Y153500D01*
X25000Y149000D01*
Y145000D01*
X40670Y129330D01*
X54970D01*
X55300Y129000D01*
X70170D01*
X70500Y129330D01*
X74830D01*
X79160Y125000D01*
X79705D01*
X80500Y124205D01*
G01X29000Y172189D02*
X21374D01*
G01X29000D02*
X34811D01*
X38000Y169000D01*
Y167000D01*
X36000Y165000D01*
X28500D01*
X20500Y157000D01*
G01X93500Y139350D02*
X92000D01*
X91500Y139850D01*
Y144000D01*
X89500Y146000D01*
X68500D01*
X63400Y140900D01*
X49100D01*
X44500Y145500D01*
Y153000D01*
X40500Y157000D01*
G01X21374Y187937D02*
X26563D01*
X35000Y179500D01*
X37500D01*
X44000Y173000D01*
Y160500D01*
X40500Y157000D01*
G01X26500Y196500D02*
X28500Y194500D01*
Y188000D01*
X35500Y181000D01*
X38000D01*
X45000Y174000D01*
Y162500D01*
X50500Y157000D01*
G01X40500Y147000D02*
X48800Y138700D01*
X55800D01*
X57700Y136800D01*
X62300D01*
X69000Y143500D01*
X71850D01*
G01X40500Y147000D02*
X36000Y151500D01*
Y158000D01*
X42500Y164500D01*
Y173000D01*
X37000Y178500D01*
X34500D01*
X29000Y184000D01*
X21374D01*
G01Y176126D02*
X16126D01*
X13500Y173500D01*
Y165000D01*
X7500Y159000D01*
Y152500D01*
G01X29000Y176126D02*
X32874D01*
X39000Y170000D01*
Y166000D01*
X36500Y163500D01*
X30348D01*
X25500Y158652D01*
Y152000D01*
X30500Y147000D01*
G01D02*
X44800Y132700D01*
X54400D01*
X56600Y130500D01*
X68500D01*
X71500Y133500D01*
X74000D01*
X76000Y131500D01*
X77000D01*
X80000Y128500D01*
G01X84276Y126608D02*
X83392D01*
X82250Y127750D01*
Y129250D01*
X78260Y133240D01*
X76260D01*
X74500Y135000D01*
X70500D01*
X67600Y132100D01*
X58100D01*
X54300Y135900D01*
X44600D01*
X35500Y145000D01*
Y148500D01*
X30500Y153500D01*
Y157000D01*
G01X29000Y180063D02*
X30437D01*
X40000Y170500D01*
Y165000D01*
X36000Y161000D01*
X34500D01*
X30500Y157000D01*
G01X107201Y150000D02*
X66500D01*
X58000Y158500D01*
Y161000D01*
X47500Y171500D01*
G01X21374Y195811D02*
X25811D01*
X26500Y196500D01*
G01X21374Y176126D02*
X29000D01*
G01Y180063D02*
X21374D01*
G01X77000Y17500D02*
X82000Y22500D01*
X88000D01*
X92000Y26500D01*
Y29500D01*
X99000Y36500D01*
X124500D01*
G01X87000Y17500D02*
X93000Y23500D01*
X119500D01*
X123500Y27500D01*
X124500D01*
G01X67000Y17500D02*
X71000Y13500D01*
X123000D01*
X124500Y15000D01*
G01X58500Y78665D02*
Y74000D01*
G01X63500Y78665D02*
Y74000D01*
G01X84276Y123458D02*
X81247D01*
X80500Y124205D01*
G01X92209Y84839D02*
Y87709D01*
X93000Y88500D01*
G01X84276Y114009D02*
X83009D01*
X82500Y113500D01*
X78500D01*
G01X79500Y110500D02*
X81435Y112435D01*
X84276D01*
G01Y121883D02*
X80287D01*
X76670Y125500D01*
X61000D01*
X60000Y124500D01*
G01X84276Y120309D02*
X80411D01*
X76220Y124500D01*
X66180D01*
X64450Y122770D01*
Y120950D01*
X63500Y120000D01*
G01X95600Y101000D02*
Y101900D01*
X96260Y102560D01*
Y105815D01*
X94512Y107562D01*
Y110072D01*
G01X78500Y98000D02*
Y92100D01*
X80200Y90400D01*
X95530D01*
X98291Y93161D01*
G01X89788Y110072D02*
Y108500D01*
X89281Y107993D01*
Y106781D01*
X88000Y105500D01*
G01X86638Y110072D02*
X84572D01*
X84000Y109500D01*
G01X72500Y121500D02*
X75940D01*
X79440Y118000D01*
X82000D01*
X82841Y117159D01*
X84276D01*
G01X73500Y99335D02*
X75665D01*
X76500Y98500D01*
Y96000D01*
X77000Y95500D01*
Y87500D01*
X77500Y87000D01*
G01X92709Y100839D02*
Y102691D01*
X92200Y103200D01*
G01X91363Y110072D02*
Y106563D01*
X91000Y106200D01*
G01X84276Y118734D02*
X82766D01*
X82413Y119087D01*
X79890D01*
X75478Y123500D01*
X68000D01*
X66500Y122000D01*
G01X80000Y128500D02*
X81254Y127246D01*
Y126246D01*
X82467Y125033D01*
X84276D01*
G01X96087Y136763D02*
X93500Y139350D01*
G01X88500Y137350D02*
Y135000D01*
X90500Y133000D01*
Y131000D01*
X91363Y130137D01*
Y128970D01*
G01X86638D02*
X85230D01*
X81800Y132400D01*
G01X77150Y138000D02*
Y143500D01*
G01Y138000D02*
Y137050D01*
X81800Y132400D01*
G01X97000Y17500D02*
X102000Y22500D01*
X123500D01*
X124500Y23500D01*
G01X107000Y17500D02*
X111000Y21500D01*
X121500D01*
X123500Y19500D01*
X124500D01*
G01X129000D02*
X127000Y17500D01*
X117000D01*
G01X98291Y77161D02*
Y74709D01*
G01X133081Y126203D02*
X135500Y123785D01*
Y122500D01*
X140782Y117218D01*
Y113377D01*
G01X142750D02*
Y117490D01*
X139770Y120470D01*
Y124458D01*
X138000Y126228D01*
G01X133203Y88082D02*
X126918D01*
X125500Y89500D01*
G01X133203Y86113D02*
X126613D01*
X125500Y85000D01*
G01X128081Y126047D02*
X129953D01*
X131500Y124500D01*
Y121000D01*
X133500Y119000D01*
X137000D01*
X138813Y117187D01*
Y113377D01*
G01X105500Y109000D02*
X104428Y110072D01*
X100812D01*
G01X109500Y108800D02*
X107650Y106950D01*
X100550D01*
X99237Y108263D01*
Y110072D01*
G01X103174Y117159D02*
X107189D01*
X108990Y118960D01*
Y121110D01*
X110531Y122651D01*
Y131031D01*
X113000Y133500D01*
Y137500D01*
X110500Y140000D01*
Y148500D01*
G01X106850Y143500D02*
X107500Y142850D01*
Y130000D01*
X108440Y129060D01*
Y123520D01*
X107150Y122230D01*
X105230D01*
X104883Y121883D01*
X103174D01*
G01Y118734D02*
X104916D01*
X105250Y118400D01*
X106900D01*
X107990Y119490D01*
Y121610D01*
X109440Y123060D01*
Y132940D01*
X111000Y134500D01*
G01X103174Y115584D02*
X107154D01*
X110110Y118540D01*
Y120560D01*
X111640Y122090D01*
Y128680D01*
X114230Y131270D01*
Y139000D01*
X113500Y139730D01*
Y147000D01*
X115000Y148500D01*
G01X133081Y129747D02*
Y132419D01*
G01X128081Y129590D02*
Y132500D01*
G01X138000Y129772D02*
Y132500D01*
G01X118500Y130307D02*
Y134520D01*
X118900Y134920D01*
G01X96087Y128970D02*
Y136763D01*
G01X97662Y128970D02*
Y135012D01*
X99500Y136850D01*
G01X97500Y139350D02*
X99500Y137350D01*
Y136850D01*
G01X101500Y139350D02*
Y133500D01*
X99237Y131237D01*
Y128970D01*
G01X107201Y153361D02*
X113639D01*
X116500Y150500D01*
X120530D01*
X127420Y143610D01*
Y138080D01*
X130500Y135000D01*
X138580D01*
X140410Y133170D01*
Y125410D01*
X140780Y125040D01*
Y121190D01*
X142210Y119760D01*
X144240D01*
X146687Y117313D01*
Y113377D01*
G01X107201Y153361D02*
Y150000D01*
G01X142750Y80503D02*
Y74250D01*
X144500Y72500D01*
X148510D01*
X153340Y67670D01*
Y64410D01*
X155500Y62250D01*
X158300D01*
X158550Y62500D01*
X165450D01*
X166450Y61500D01*
X170693D01*
X174000Y58193D01*
X177500D01*
G01X182500D02*
X177500D01*
G01X152593Y80503D02*
Y84407D01*
X149500Y87500D01*
X147500D01*
X145000Y90000D01*
Y97500D01*
X143984Y98516D01*
Y99984D01*
X145219Y101219D01*
X157219D01*
X161820Y105820D01*
Y109440D01*
X162500Y110120D01*
Y116800D01*
X161800Y117500D01*
X148500D01*
X145000Y121000D01*
Y124228D01*
X143000Y126228D01*
G01X177000Y65900D02*
X170730Y72170D01*
X161330D01*
X158498Y75002D01*
Y80503D01*
G01X177000Y65900D02*
X177040Y65940D01*
Y81360D01*
G01X184540D02*
Y86960D01*
X183000Y88500D01*
X178500D01*
X165500Y75500D01*
X161000D01*
X160467Y76033D01*
Y80503D01*
G01X168262Y81238D02*
Y82238D01*
X166077Y84423D01*
Y86113D01*
G01X145425Y68575D02*
X142925D01*
X142500Y69000D01*
G01X145425Y65425D02*
X143425D01*
X142500Y64500D01*
G01X153500Y86000D02*
X154561Y84939D01*
Y80503D01*
G01X157000Y65900D02*
X152900Y70000D01*
Y75900D01*
X154561Y77561D01*
Y80503D01*
G01X156530D02*
Y76530D01*
X155000Y75000D01*
G01X167000Y65900D02*
X162400Y70500D01*
X159500D01*
X155000Y75000D01*
G01X144719Y80503D02*
Y75281D01*
G01X141000Y99000D02*
X144000Y96000D01*
Y89500D01*
X146687Y86813D01*
Y80503D01*
G01X171500Y100500D02*
X170500Y99500D01*
Y96556D01*
X169900Y95956D01*
X166077D01*
G01Y93987D02*
X168787D01*
X169100Y94300D01*
X169789D01*
X172227Y96738D01*
X172262D01*
G01X202894Y157536D02*
X200345D01*
X200220Y157410D01*
X195410D01*
X193500Y155500D01*
Y146000D01*
X192500Y145000D01*
Y138095D01*
X180855Y126450D01*
X177950D01*
X170500Y119000D01*
X167000D01*
G01X150500Y119700D02*
X151028D01*
X155378Y124050D01*
X161950D01*
X164800Y121200D01*
X168200D01*
X175500Y128500D01*
X181300D01*
X190000Y137200D01*
Y145000D01*
X191500Y146500D01*
Y156000D01*
G01X166077Y92019D02*
X170019D01*
X171000Y93000D01*
G01X152000Y96000D02*
X155981Y92019D01*
X166077D01*
G01X145750Y99250D02*
X146500Y98500D01*
Y93625D01*
X152043Y88082D01*
X166077D01*
G01X171000Y86787D02*
X169705Y88082D01*
X166077D01*
G01X155500Y120700D02*
X157255Y122455D01*
X161245D01*
X164000Y119700D01*
Y119000D01*
X168500Y114500D01*
X172500D01*
X175330Y111670D01*
Y94650D01*
X174500Y93820D01*
Y90287D01*
X171000Y86787D01*
G01X149000Y99250D02*
Y99000D01*
X150000Y98000D01*
Y95125D01*
X155075Y90050D01*
X166077D01*
G01X171050Y90000D02*
X173380Y92330D01*
Y94380D01*
X174130Y95130D01*
Y110870D01*
X172000Y113000D01*
X168200D01*
X160500Y120700D01*
G01X166077Y90050D02*
X171000D01*
X171050Y90000D01*
G01X212885Y126000D02*
X204885Y134000D01*
X191000D01*
X181000Y124000D01*
Y107400D01*
X182040Y106360D01*
Y102660D01*
G01X141000Y99000D02*
X144219Y102219D01*
X153719D01*
X154250Y102750D01*
X156750D01*
X160000Y106000D01*
Y106500D01*
G01X182300Y97700D02*
X188700D01*
X189540Y98540D01*
Y102660D01*
G01X148000Y105000D02*
X149781Y103219D01*
X152219D01*
X153500Y104500D01*
Y105500D01*
X154500Y106500D01*
X156000D01*
X158498Y108998D01*
Y113377D01*
G01X156530D02*
Y109530D01*
X155500Y108500D01*
G01X151500Y105000D02*
Y106000D01*
X153500Y108000D01*
Y109086D01*
X153943Y109528D01*
Y109943D01*
X154561Y110561D01*
Y113377D01*
G01X152593D02*
Y109593D01*
X151500Y108500D01*
G01X148000D02*
X148689D01*
X150624Y110435D01*
Y113377D01*
G01X155500Y104500D02*
X160467Y109467D01*
Y113377D01*
G01X143000Y129772D02*
Y132500D01*
G01X163937Y158311D02*
Y158800D01*
X164437Y159300D01*
X168100D01*
X170040Y161240D01*
X171260D01*
X172000Y160500D01*
G01X162362Y158311D02*
Y159862D01*
X162800Y160300D01*
X166800D01*
X170300Y163800D01*
X172000D01*
G01X164900Y162100D02*
X166600D01*
X169802Y165302D01*
X171041D01*
X171291Y165552D01*
X172948D01*
X174850Y163650D01*
Y163500D01*
G01X159213Y158311D02*
Y159713D01*
X161600Y162100D01*
X164900D01*
G01X151000Y158000D02*
X152264Y156736D01*
X154094D01*
G01X187500Y148500D02*
X185080Y146080D01*
Y135558D01*
X181782Y132260D01*
X173140D01*
X167561Y137839D01*
X165906D01*
G01X189000Y153000D02*
X189300Y152700D01*
Y146800D01*
X187500Y145000D01*
Y136400D01*
X182240Y131140D01*
X172846D01*
X167722Y136264D01*
X165906D01*
G01X175500Y176500D02*
Y173650D01*
G01D02*
X178900D01*
X179000Y173750D01*
G01X172437Y186614D02*
Y180063D01*
G01X161500Y196500D02*
X162594Y195406D01*
Y186614D01*
G01X166500Y196500D02*
X164563Y194563D01*
Y186614D01*
G01X187000Y65900D02*
Y73040D01*
X184540Y75500D01*
Y81360D01*
G01X192040D02*
Y86500D01*
G01X196000Y58193D02*
X201307D01*
G01X222115Y117000D02*
Y120115D01*
X223500Y121500D01*
G01X212885Y117000D02*
Y111385D01*
X206500Y105000D01*
G01X222115Y126000D02*
Y129115D01*
X223500Y130500D01*
G01X209193Y162457D02*
X207143D01*
X206500Y163100D01*
G01X209193Y156551D02*
X206900D01*
X206549Y156200D01*
G01X202894Y163441D02*
X198759D01*
X197900Y164300D01*
X196000D01*
X195200Y163500D01*
G01X-104000Y-89319D02*
Y-14319D01*
X441000D01*
Y-89319D01*
X-104000D01*
G01X-56145Y-49979D02*
G03I-355J0D01*
G01Y-49159D02*
G03I-355J0D01*
G01Y-49859D02*
G03I-355J0D01*
G01X-55655Y-50549D02*
G03I-355J0D01*
G01X-58265Y-49159D02*
G03I-355J0D01*
G01Y-49859D02*
G03I-355J0D01*
G01Y-50549D02*
G03I-355J0D01*
G01Y-51239D02*
G03I-355J0D01*
G01Y-52629D02*
G03I-355J0D01*
G01Y-51939D02*
G03I-355J0D01*
G01Y-53329D02*
G03I-355J0D01*
G01Y-54019D02*
G03I-355J0D01*
G01Y-54719D02*
G03I-355J0D01*
G01X-61575Y-49859D02*
G03I-355J0D01*
G01Y-49159D02*
G03I-355J0D01*
G01Y-50549D02*
G03I-355J0D01*
G01Y-51239D02*
G03I-355J0D01*
G01Y-51939D02*
G03I-355J0D01*
G01Y-53329D02*
G03I-355J0D01*
G01Y-52629D02*
G03I-355J0D01*
G01Y-54019D02*
G03I-355J0D01*
G01Y-54719D02*
G03I-355J0D01*
G01X-36845Y-53299D02*
G03I-355J0D01*
G01X-36905Y-53329D02*
G03I-355J0D01*
G01X-37375Y-53559D02*
G03I-355J0D01*
G01X-37945Y-53719D02*
G03I-355J0D01*
G01X-38545Y-53759D02*
G03I-355J0D01*
G01X-40155D02*
G03I-355J0D01*
G01X-40635Y-53709D02*
G03I-355J0D01*
G01X-41105Y-53559D02*
G03I-355J0D01*
G01X-41525Y-53329D02*
G03I-355J0D01*
G01X-41885Y-53009D02*
G03I-355J0D01*
G01X-41515Y-53329D02*
G03I-355J0D01*
G01X-42675Y-49159D02*
G03I-355J0D01*
G01Y-49859D02*
G03I-355J0D01*
G01Y-50549D02*
G03I-355J0D01*
G01Y-51279D02*
G03I-355J0D01*
G01Y-51239D02*
G03I-355J0D01*
G01X-42495Y-52239D02*
G03I-355J0D01*
G01X-42645Y-51769D02*
G03I-355J0D01*
G01X-42585Y-51939D02*
G03I-355J0D01*
G01X-42235Y-52659D02*
G03I-355J0D01*
G01X-42255Y-52629D02*
G03I-355J0D01*
G01X-43395Y-54739D02*
G03I-355J0D01*
G01X-43455Y-54719D02*
G03I-355J0D01*
G01X-44045Y-54449D02*
G03I-355J0D01*
G01X-45345Y-53409D02*
G03I-355J0D01*
G01X-45395Y-53329D02*
G03I-355J0D01*
G01X-45035Y-53779D02*
G03I-355J0D01*
G01X-44645Y-54069D02*
G03I-355J0D01*
G01X-44715Y-54019D02*
G03I-355J0D01*
G01X-45745Y-49159D02*
G03I-355J0D01*
G01Y-49859D02*
G03I-355J0D01*
G01Y-50549D02*
G03I-355J0D01*
G01Y-51239D02*
G03I-355J0D01*
G01Y-52019D02*
G03I-355J0D01*
G01X-45715Y-52509D02*
G03I-355J0D01*
G01X-45745Y-51939D02*
G03I-355J0D01*
G01X-45575Y-52979D02*
G03I-355J0D01*
G01X-45675Y-52629D02*
G03I-355J0D01*
G01X-48445Y-54719D02*
G03I-355J0D01*
G01X-49085Y-54019D02*
G03I-355J0D01*
G01X-50445Y-49409D02*
G03I-355J0D01*
G01X-50005Y-49159D02*
G03I-355J0D01*
G01X-50345Y-52629D02*
G03I-355J0D01*
G01X-49715Y-53329D02*
G03I-355J0D01*
G01X-51105Y-49649D02*
G03I-355J0D01*
G01X-50975Y-51939D02*
G03I-355J0D01*
G01X-51785Y-49769D02*
G03I-355J0D01*
G01X-51615Y-51239D02*
G03I-355J0D01*
G01X-52085Y-54719D02*
G03I-355J0D01*
G01X-52485Y-49779D02*
G03I-355J0D01*
G01Y-49859D02*
G03I-355J0D01*
G01Y-50289D02*
G03I-355J0D01*
G01X-52245Y-50549D02*
G03I-355J0D01*
G01X-52675Y-54019D02*
G03I-355J0D01*
G01X-53865Y-52629D02*
G03I-355J0D01*
G01X-53275Y-53329D02*
G03I-355J0D01*
G01X-54465Y-51939D02*
G03I-355J0D01*
G01X-55055Y-51239D02*
G03I-355J0D01*
G01X-55505Y-59739D02*
G03I-355J0D01*
G01X-55605Y-62829D02*
G03I-355J0D01*
G01X-55685Y-59829D02*
G03I-355J0D01*
G01X-55835Y-59959D02*
G03I-355J0D01*
G01X-55965Y-60109D02*
G03I-355J0D01*
G01X-56055Y-60289D02*
G03I-355J0D01*
G01X-56115Y-60479D02*
G03I-355J0D01*
G01X-56135Y-60679D02*
G03I-355J0D01*
G01X-56145D02*
G03I-355J0D01*
G01X-56135Y-61909D02*
G03I-355J0D01*
G01X-56145D02*
G03I-355J0D01*
G01Y-61319D02*
G03I-355J0D01*
G01D02*
G03I-355J0D01*
G01X-55755Y-62719D02*
G03I-355J0D01*
G01X-55885Y-62589D02*
G03I-355J0D01*
G01X-55995Y-62439D02*
G03I-355J0D01*
G01X-56075Y-62269D02*
G03I-355J0D01*
G01X-56115Y-62089D02*
G03I-355J0D01*
G01X-58265Y-55169D02*
G03I-355J0D01*
G01Y-59659D02*
G03I-355J0D01*
G01X-58905Y-61329D02*
G03I-355J0D01*
G01X-58755Y-61369D02*
G03I-355J0D01*
G01X-58625Y-61439D02*
G03I-355J0D01*
G01X-58495Y-61539D02*
G03I-355J0D01*
G01X-58395Y-61669D02*
G03I-355J0D01*
G01X-58325Y-61799D02*
G03I-355J0D01*
G01X-58285Y-61949D02*
G03I-355J0D01*
G01X-58265Y-62109D02*
G03I-355J0D01*
G01X-58285Y-62279D02*
G03I-355J0D01*
G01X-58335Y-62439D02*
G03I-355J0D01*
G01X-58405Y-62589D02*
G03I-355J0D01*
G01X-58515Y-62719D02*
G03I-355J0D01*
G01X-58645Y-62829D02*
G03I-355J0D01*
G01X-58795Y-62899D02*
G03I-355J0D01*
G01X-58955Y-62949D02*
G03I-355J0D01*
G01X-59065Y-61319D02*
G03I-355J0D01*
G01Y-61309D02*
G03I-355J0D01*
G01X-59125Y-62969D02*
G03I-355J0D01*
G01X-60685Y-61309D02*
G03I-355J0D01*
G01Y-61319D02*
G03I-355J0D01*
G01X-61575Y-55169D02*
G03I-355J0D01*
G01X-60815Y-59659D02*
G03I-355J0D01*
G01X-60985Y-59679D02*
G03I-355J0D01*
G01X-61145Y-59739D02*
G03I-355J0D01*
G01X-61285Y-59829D02*
G03I-355J0D01*
G01X-61405Y-59949D02*
G03I-355J0D01*
G01X-61495Y-60089D02*
G03I-355J0D01*
G01X-61555Y-60249D02*
G03I-355J0D01*
G01X-61575Y-60419D02*
G03I-355J0D01*
G01X-61555Y-60589D02*
G03I-355J0D01*
G01X-61505Y-60759D02*
G03I-355J0D01*
G01X-61425Y-60909D02*
G03I-355J0D01*
G01X-61315Y-61049D02*
G03I-355J0D01*
G01X-61175Y-61159D02*
G03I-355J0D01*
G01X-61025Y-61239D02*
G03I-355J0D01*
G01X-60855Y-61289D02*
G03I-355J0D01*
G01X-61575Y-62969D02*
G03I-355J0D01*
G01X-36755Y-60709D02*
G03I-355J0D01*
G01X-36775Y-60929D02*
G03I-355J0D01*
G01Y-61679D02*
G03I-355J0D01*
G01X-36755Y-61899D02*
G03I-355J0D01*
G01X-37005Y-55139D02*
G03I-355J0D01*
G01X-37915Y-55169D02*
G03I-355J0D01*
G01X-38895Y-59659D02*
G03I-355J0D01*
G01Y-62969D02*
G03I-355J0D01*
G01X-40665Y-55169D02*
G03I-355J0D01*
G01X-41065Y-59739D02*
G03I-355J0D01*
G01X-40855Y-59679D02*
G03I-355J0D01*
G01X-40645Y-59659D02*
G03I-355J0D01*
G01Y-62969D02*
G03I-355J0D01*
G01X-40835Y-62949D02*
G03I-355J0D01*
G01X-41015Y-62899D02*
G03I-355J0D01*
G01X-41695Y-55109D02*
G03I-355J0D01*
G01X-41555Y-60139D02*
G03I-355J0D01*
G01X-41415Y-59979D02*
G03I-355J0D01*
G01X-41255Y-59839D02*
G03I-355J0D01*
G01X-41735Y-60749D02*
G03I-355J0D01*
G01X-41715Y-60539D02*
G03I-355J0D01*
G01X-41655Y-60329D02*
G03I-355J0D01*
G01X-41735Y-61879D02*
G03I-355J0D01*
G01X-41195Y-62819D02*
G03I-355J0D01*
G01X-41345Y-62709D02*
G03I-355J0D01*
G01X-41475Y-62579D02*
G03I-355J0D01*
G01X-41585Y-62419D02*
G03I-355J0D01*
G01X-41665Y-62249D02*
G03I-355J0D01*
G01X-41715Y-62069D02*
G03I-355J0D01*
G01X-42715Y-54939D02*
G03I-355J0D01*
G01X-44335Y-59659D02*
G03I-355J0D01*
G01Y-62969D02*
G03I-355J0D01*
G01X-46925Y-59659D02*
G03I-355J0D01*
G01Y-62969D02*
G03I-355J0D01*
G01X-47445Y-59659D02*
G03I-355J0D01*
G01X-48035Y-55169D02*
G03I-355J0D01*
G01X-48855Y-62969D02*
G03I-355J0D01*
G01X-50395Y-59659D02*
G03I-355J0D01*
G01X-50945D02*
G03I-355J0D01*
G01Y-62969D02*
G03I-355J0D01*
G01X-51695Y-55169D02*
G03I-355J0D01*
G01X-53305Y-59659D02*
G03I-355J0D01*
G01Y-61319D02*
G03I-355J0D01*
G01Y-62969D02*
G03I-355J0D01*
G01X-55115Y-59659D02*
G03I-355J0D01*
G01X-55315Y-59679D02*
G03I-355J0D01*
G01X-55075Y-62969D02*
G03I-355J0D01*
G01X-55255Y-62949D02*
G03I-355J0D01*
G01X-55435Y-62909D02*
G03I-355J0D01*
G01X-56145Y-48559D02*
G03I-355J0D01*
G01X-57085Y-41949D02*
G03I-355J0D01*
G01X-57495Y-43359D02*
G03I-355J0D01*
G01X-57695Y-43389D02*
G03I-355J0D01*
G01X-57875Y-43469D02*
G03I-355J0D01*
G01X-58045Y-43589D02*
G03I-355J0D01*
G01X-58165Y-43749D02*
G03I-355J0D01*
G01X-58055Y-43609D02*
G03I-355J0D01*
G01X-58245Y-43939D02*
G03I-355J0D01*
G01X-58265Y-44139D02*
G03I-355J0D01*
G01Y-44999D02*
G03I-355J0D01*
G01Y-44299D02*
G03I-355J0D01*
G01Y-45689D02*
G03I-355J0D01*
G01Y-46389D02*
G03I-355J0D01*
G01Y-47079D02*
G03I-355J0D01*
G01Y-47769D02*
G03I-355J0D01*
G01Y-48469D02*
G03I-355J0D01*
G01X-59335Y-42089D02*
G03I-355J0D01*
G01X-60235Y-42219D02*
G03I-355J0D01*
G01X-61575Y-42419D02*
G03I-355J0D01*
G01D02*
G03I-355J0D01*
G01Y-42919D02*
G03I-355J0D01*
G01Y-43609D02*
G03I-355J0D01*
G01Y-44299D02*
G03I-355J0D01*
G01Y-45689D02*
G03I-355J0D01*
G01Y-44999D02*
G03I-355J0D01*
G01Y-46389D02*
G03I-355J0D01*
G01Y-47079D02*
G03I-355J0D01*
G01Y-47769D02*
G03I-355J0D01*
G01Y-48469D02*
G03I-355J0D01*
G01X-37015Y-41979D02*
G03I-355J0D01*
G01X-37485Y-43519D02*
G03I-355J0D01*
G01X-37005Y-43749D02*
G03I-355J0D01*
G01X-37295Y-43609D02*
G03I-355J0D01*
G01X-37875Y-41949D02*
G03I-355J0D01*
G01X-38545Y-43359D02*
G03I-355J0D01*
G01X-38005Y-43389D02*
G03I-355J0D01*
G01X-39995Y-43359D02*
G03I-355J0D01*
G01X-40985Y-41949D02*
G03I-355J0D01*
G01X-41115Y-43549D02*
G03I-355J0D01*
G01X-40565Y-43399D02*
G03I-355J0D01*
G01X-41785Y-41979D02*
G03I-355J0D01*
G01X-41615Y-43819D02*
G03I-355J0D01*
G01X-41215Y-43609D02*
G03I-355J0D01*
G01X-42585Y-42119D02*
G03I-355J0D01*
G01X-42045Y-44189D02*
G03I-355J0D01*
G01D02*
G03I-355J0D01*
G01X-42145Y-44299D02*
G03I-355J0D01*
G01X-42515Y-44849D02*
G03I-355J0D01*
G01X-42315Y-44499D02*
G03I-355J0D01*
G01X-42675Y-45649D02*
G03I-355J0D01*
G01X-42635Y-45239D02*
G03I-355J0D01*
G01X-42565Y-44999D02*
G03I-355J0D01*
G01X-42675Y-45689D02*
G03I-355J0D01*
G01Y-46389D02*
G03I-355J0D01*
G01Y-47079D02*
G03I-355J0D01*
G01Y-48089D02*
G03I-355J0D01*
G01D02*
G03I-355J0D01*
G01D02*
G03I-355J0D01*
G01Y-47769D02*
G03I-355J0D01*
G01Y-48469D02*
G03I-355J0D01*
G01X-42875Y-42219D02*
G03I-355J0D01*
G01X-43345Y-42379D02*
G03I-355J0D01*
G01X-44055Y-42769D02*
G03I-355J0D01*
G01X-44235Y-42919D02*
G03I-355J0D01*
G01X-44685Y-43279D02*
G03I-355J0D01*
G01X-45055Y-43589D02*
G03I-355J0D01*
G01X-45345Y-43969D02*
G03I-355J0D01*
G01X-45065Y-43609D02*
G03I-355J0D01*
G01X-45575Y-44389D02*
G03I-355J0D01*
G01X-45705Y-44849D02*
G03I-355J0D01*
G01X-45575Y-44389D02*
G03I-355J0D01*
G01X-45525Y-44299D02*
G03I-355J0D01*
G01X-45745Y-45329D02*
G03I-355J0D01*
G01X-45715Y-44999D02*
G03I-355J0D01*
G01X-45745Y-45689D02*
G03I-355J0D01*
G01Y-46389D02*
G03I-355J0D01*
G01Y-47079D02*
G03I-355J0D01*
G01Y-48089D02*
G03I-355J0D01*
G01D02*
G03I-355J0D01*
G01D02*
G03I-355J0D01*
G01Y-47769D02*
G03I-355J0D01*
G01Y-48469D02*
G03I-355J0D01*
G01X-49295Y-43599D02*
G03I-355J0D01*
G01X-49075Y-43909D02*
G03I-355J0D01*
G01X-49285Y-43609D02*
G03I-355J0D01*
G01X-48925Y-44259D02*
G03I-355J0D01*
G01X-48835Y-44639D02*
G03I-355J0D01*
G01X-48815Y-45019D02*
G03I-355J0D01*
G01X-48915Y-44299D02*
G03I-355J0D01*
G01X-48815Y-44999D02*
G03I-355J0D01*
G01Y-45689D02*
G03I-355J0D01*
G01Y-46389D02*
G03I-355J0D01*
G01Y-47019D02*
G03I-355J0D01*
G01X-48855Y-47499D02*
G03I-355J0D01*
G01X-48825Y-47079D02*
G03I-355J0D01*
G01X-48975Y-47959D02*
G03I-355J0D01*
G01X-48925Y-47769D02*
G03I-355J0D01*
G01X-49195Y-48379D02*
G03I-355J0D01*
G01X-49485Y-48759D02*
G03I-355J0D01*
G01X-49255Y-48469D02*
G03I-355J0D01*
G01X-50195Y-42719D02*
G03I-355J0D01*
G01X-49705Y-43119D02*
G03I-355J0D01*
G01X-49955Y-42919D02*
G03I-355J0D01*
G01X-49845Y-49069D02*
G03I-355J0D01*
G01X-50745Y-42419D02*
G03I-355J0D01*
G01X-51665Y-42219D02*
G03I-355J0D01*
G01X-52095Y-44519D02*
G03I-355J0D01*
G01X-51885Y-45369D02*
G03I-355J0D01*
G01X-51945Y-44929D02*
G03I-355J0D01*
G01X-51935Y-44999D02*
G03I-355J0D01*
G01X-51885Y-45689D02*
G03I-355J0D01*
G01Y-46469D02*
G03I-355J0D01*
G01Y-46389D02*
G03I-355J0D01*
G01X-52055Y-47329D02*
G03I-355J0D01*
G01X-51935Y-46909D02*
G03I-355J0D01*
G01X-51985Y-47079D02*
G03I-355J0D01*
G01X-52385Y-42069D02*
G03I-355J0D01*
G01X-52635Y-43839D02*
G03I-355J0D01*
G01X-52225Y-44299D02*
G03I-355J0D01*
G01X-52325Y-44149D02*
G03I-355J0D01*
G01X-52705Y-48099D02*
G03I-355J0D01*
G01X-52245Y-47729D02*
G03I-355J0D01*
G01X-52295Y-47769D02*
G03I-355J0D01*
G01X-53275Y-43549D02*
G03I-355J0D01*
G01X-53145Y-43609D02*
G03I-355J0D01*
G01X-53785Y-48519D02*
G03I-355J0D01*
G01X-53225Y-48369D02*
G03I-355J0D01*
G01X-53595Y-48469D02*
G03I-355J0D01*
G01X-54055Y-41949D02*
G03I-355J0D01*
G01X-53955Y-43389D02*
G03I-355J0D01*
G01X-54645Y-43359D02*
G03I-355J0D01*
G01X-54365Y-48559D02*
G03I-355J0D01*
G01X-32755Y-49159D02*
G03I-355J0D01*
G01Y-49859D02*
G03I-355J0D01*
G01Y-50549D02*
G03I-355J0D01*
G01Y-51749D02*
G03I-355J0D01*
G01Y-51239D02*
G03I-355J0D01*
G01X-32805Y-52299D02*
G03I-355J0D01*
G01X-32775Y-51939D02*
G03I-355J0D01*
G01X-33275Y-53289D02*
G03I-355J0D01*
G01X-32985Y-52819D02*
G03I-355J0D01*
G01X-33315Y-53329D02*
G03I-355J0D01*
G01X-32925Y-52629D02*
G03I-355J0D01*
G01X-34125Y-54119D02*
G03I-355J0D01*
G01X-33665Y-53679D02*
G03I-355J0D01*
G01X-34025Y-54019D02*
G03I-355J0D01*
G01X-34655Y-54469D02*
G03I-355J0D01*
G01X-35825Y-49859D02*
G03I-355J0D01*
G01Y-49159D02*
G03I-355J0D01*
G01Y-50549D02*
G03I-355J0D01*
G01Y-51279D02*
G03I-355J0D01*
G01Y-51239D02*
G03I-355J0D01*
G01X-35885Y-51859D02*
G03I-355J0D01*
G01X-35915Y-51939D02*
G03I-355J0D01*
G01X-35235Y-54739D02*
G03I-355J0D01*
G01X-35185Y-54719D02*
G03I-355J0D01*
G01X-36075Y-52419D02*
G03I-355J0D01*
G01X-36375Y-52929D02*
G03I-355J0D01*
G01X-36205Y-52629D02*
G03I-355J0D01*
G01X-6065Y-49159D02*
G03I-355J0D01*
G01Y-49859D02*
G03I-355J0D01*
G01Y-50549D02*
G03I-355J0D01*
G01Y-51239D02*
G03I-355J0D01*
G01Y-51939D02*
G03I-355J0D01*
G01Y-52629D02*
G03I-355J0D01*
G01Y-53329D02*
G03I-355J0D01*
G01Y-54019D02*
G03I-355J0D01*
G01Y-54719D02*
G03I-355J0D01*
G01X-9135Y-49859D02*
G03I-355J0D01*
G01Y-49159D02*
G03I-355J0D01*
G01Y-50549D02*
G03I-355J0D01*
G01Y-51239D02*
G03I-355J0D01*
G01Y-51939D02*
G03I-355J0D01*
G01Y-53329D02*
G03I-355J0D01*
G01Y-52629D02*
G03I-355J0D01*
G01Y-54019D02*
G03I-355J0D01*
G01Y-54719D02*
G03I-355J0D01*
G01X-12205Y-49159D02*
G03I-355J0D01*
G01Y-49859D02*
G03I-355J0D01*
G01Y-50549D02*
G03I-355J0D01*
G01Y-51239D02*
G03I-355J0D01*
G01Y-52629D02*
G03I-355J0D01*
G01Y-51939D02*
G03I-355J0D01*
G01Y-53329D02*
G03I-355J0D01*
G01Y-54019D02*
G03I-355J0D01*
G01Y-54719D02*
G03I-355J0D01*
G01X-15745Y-49159D02*
G03I-355J0D01*
G01Y-49859D02*
G03I-355J0D01*
G01Y-50549D02*
G03I-355J0D01*
G01Y-51239D02*
G03I-355J0D01*
G01Y-51939D02*
G03I-355J0D01*
G01Y-53329D02*
G03I-355J0D01*
G01Y-52629D02*
G03I-355J0D01*
G01Y-54019D02*
G03I-355J0D01*
G01Y-54719D02*
G03I-355J0D01*
G01X-19675Y-49299D02*
G03I-355J0D01*
G01X-19465Y-49379D02*
G03I-355J0D01*
G01X-19295Y-49509D02*
G03I-355J0D01*
G01X-19165Y-49679D02*
G03I-355J0D01*
G01X-19085Y-49879D02*
G03I-355J0D01*
G01X-19055Y-50099D02*
G03I-355J0D01*
G01X-19095Y-49859D02*
G03I-355J0D01*
G01X-19055Y-50549D02*
G03I-355J0D01*
G01Y-51239D02*
G03I-355J0D01*
G01Y-52629D02*
G03I-355J0D01*
G01Y-51939D02*
G03I-355J0D01*
G01Y-53329D02*
G03I-355J0D01*
G01Y-54019D02*
G03I-355J0D01*
G01Y-54719D02*
G03I-355J0D01*
G01X-19885Y-49269D02*
G03I-355J0D01*
G01X-25755Y-49369D02*
G03I-355J0D01*
G01X-25565Y-49289D02*
G03I-355J0D01*
G01X-25365Y-49269D02*
G03I-355J0D01*
G01X-26115Y-49849D02*
G03I-355J0D01*
G01X-26035Y-49659D02*
G03I-355J0D01*
G01X-25915Y-49499D02*
G03I-355J0D01*
G01X-26115Y-49859D02*
G03I-355J0D01*
G01X-26145Y-50049D02*
G03I-355J0D01*
G01Y-50549D02*
G03I-355J0D01*
G01Y-51239D02*
G03I-355J0D01*
G01Y-51939D02*
G03I-355J0D01*
G01Y-52629D02*
G03I-355J0D01*
G01Y-53329D02*
G03I-355J0D01*
G01Y-54019D02*
G03I-355J0D01*
G01Y-54719D02*
G03I-355J0D01*
G01X-29445Y-49159D02*
G03I-355J0D01*
G01Y-49859D02*
G03I-355J0D01*
G01Y-50549D02*
G03I-355J0D01*
G01Y-51239D02*
G03I-355J0D01*
G01Y-51939D02*
G03I-355J0D01*
G01Y-52629D02*
G03I-355J0D01*
G01Y-53329D02*
G03I-355J0D01*
G01Y-54019D02*
G03I-355J0D01*
G01Y-54719D02*
G03I-355J0D01*
G01X3385Y-49159D02*
G03I-355J0D01*
G01Y-49859D02*
G03I-355J0D01*
G01Y-50549D02*
G03I-355J0D01*
G01Y-51239D02*
G03I-355J0D01*
G01Y-51939D02*
G03I-355J0D01*
G01Y-52629D02*
G03I-355J0D01*
G01Y-53329D02*
G03I-355J0D01*
G01Y-54019D02*
G03I-355J0D01*
G01Y-54719D02*
G03I-355J0D01*
G01X315Y-49159D02*
G03I-355J0D01*
G01Y-49859D02*
G03I-355J0D01*
G01Y-50549D02*
G03I-355J0D01*
G01Y-51239D02*
G03I-355J0D01*
G01Y-51939D02*
G03I-355J0D01*
G01Y-52629D02*
G03I-355J0D01*
G01Y-53329D02*
G03I-355J0D01*
G01Y-54019D02*
G03I-355J0D01*
G01Y-54719D02*
G03I-355J0D01*
G01X-2755Y-49159D02*
G03I-355J0D01*
G01Y-49859D02*
G03I-355J0D01*
G01Y-50549D02*
G03I-355J0D01*
G01Y-51239D02*
G03I-355J0D01*
G01Y-51939D02*
G03I-355J0D01*
G01Y-52629D02*
G03I-355J0D01*
G01Y-53329D02*
G03I-355J0D01*
G01Y-54019D02*
G03I-355J0D01*
G01Y-54719D02*
G03I-355J0D01*
G01X-30625Y-59659D02*
G03I-355J0D01*
G01X-31105D02*
G03I-355J0D01*
G01Y-62969D02*
G03I-355J0D01*
G01X-33765Y-60119D02*
G03I-355J0D01*
G01X-33925Y-59959D02*
G03I-355J0D01*
G01X-34115Y-59829D02*
G03I-355J0D01*
G01X-33465Y-60959D02*
G03I-355J0D01*
G01X-33485Y-60729D02*
G03I-355J0D01*
G01X-33545Y-60519D02*
G03I-355J0D01*
G01X-33635Y-60309D02*
G03I-355J0D01*
G01X-33465Y-61649D02*
G03I-355J0D01*
G01X-33525Y-62059D02*
G03I-355J0D01*
G01X-33485Y-61859D02*
G03I-355J0D01*
G01X-33465Y-61649D02*
G03I-355J0D01*
G01X-34185Y-62829D02*
G03I-355J0D01*
G01X-34005Y-62719D02*
G03I-355J0D01*
G01X-33855Y-62579D02*
G03I-355J0D01*
G01X-33715Y-62429D02*
G03I-355J0D01*
G01X-33605Y-62249D02*
G03I-355J0D01*
G01X-34325Y-59739D02*
G03I-355J0D01*
G01X-34535Y-59679D02*
G03I-355J0D01*
G01X-34765Y-59659D02*
G03I-355J0D01*
G01X-34785Y-62969D02*
G03I-355J0D01*
G01X-34575Y-62949D02*
G03I-355J0D01*
G01X-34375Y-62909D02*
G03I-355J0D01*
G01X-35505Y-59659D02*
G03I-355J0D01*
G01X-35725Y-59679D02*
G03I-355J0D01*
G01X-35935Y-59739D02*
G03I-355J0D01*
G01X-35925Y-62889D02*
G03I-355J0D01*
G01X-35705Y-62949D02*
G03I-355J0D01*
G01X-35485Y-62969D02*
G03I-355J0D01*
G01X-36105Y-54999D02*
G03I-355J0D01*
G01X-36135Y-59829D02*
G03I-355J0D01*
G01X-36325Y-59959D02*
G03I-355J0D01*
G01X-36475Y-60109D02*
G03I-355J0D01*
G01X-36605Y-60289D02*
G03I-355J0D01*
G01X-36695Y-60499D02*
G03I-355J0D01*
G01Y-62119D02*
G03I-355J0D01*
G01X-36605Y-62319D02*
G03I-355J0D01*
G01X-36475Y-62509D02*
G03I-355J0D01*
G01X-36315Y-62669D02*
G03I-355J0D01*
G01X-36135Y-62799D02*
G03I-355J0D01*
G01X-5045Y-60509D02*
G03I-355J0D01*
G01X-5105Y-60729D02*
G03I-355J0D01*
G01X-5125Y-60949D02*
G03I-355J0D01*
G01X-5115D02*
G03I-355J0D01*
G01Y-61659D02*
G03I-355J0D01*
G01X-5095Y-61859D02*
G03I-355J0D01*
G01X-5055Y-62059D02*
G03I-355J0D01*
G01X-6065Y-55169D02*
G03I-355J0D01*
G01X-7245Y-59659D02*
G03I-355J0D01*
G01X-8665D02*
G03I-355J0D01*
G01D02*
G03I-355J0D01*
G01Y-62969D02*
G03I-355J0D01*
G01X-9135Y-55169D02*
G03I-355J0D01*
G01X-10075Y-59659D02*
G03I-355J0D01*
G01X-11965D02*
G03I-355J0D01*
G01Y-62969D02*
G03I-355J0D01*
G01X-12205Y-55169D02*
G03I-355J0D01*
G01X-13765Y-59659D02*
G03I-355J0D01*
G01X-13735Y-62969D02*
G03I-355J0D01*
G01X-14665Y-60179D02*
G03I-355J0D01*
G01X-14565Y-60029D02*
G03I-355J0D01*
G01X-14435Y-59899D02*
G03I-355J0D01*
G01X-14285Y-59799D02*
G03I-355J0D01*
G01X-14125Y-59719D02*
G03I-355J0D01*
G01X-13945Y-59679D02*
G03I-355J0D01*
G01X-13925Y-62949D02*
G03I-355J0D01*
G01X-14105Y-62909D02*
G03I-355J0D01*
G01X-14275Y-62829D02*
G03I-355J0D01*
G01X-14425Y-62719D02*
G03I-355J0D01*
G01X-14555Y-62589D02*
G03I-355J0D01*
G01X-14665Y-62429D02*
G03I-355J0D01*
G01X-14745Y-60339D02*
G03I-355J0D01*
G01X-14805Y-60699D02*
G03I-355J0D01*
G01X-14785Y-60519D02*
G03I-355J0D01*
G01X-14805Y-61899D02*
G03I-355J0D01*
G01X-14745Y-62269D02*
G03I-355J0D01*
G01X-14785Y-62089D02*
G03I-355J0D01*
G01X-15745Y-55169D02*
G03I-355J0D01*
G01X-16925Y-59659D02*
G03I-355J0D01*
G01Y-61659D02*
G03I-355J0D01*
G01X-16935D02*
G03I-355J0D01*
G01X-16955Y-61889D02*
G03I-355J0D01*
G01X-17015Y-62109D02*
G03I-355J0D01*
G01X-17115Y-62309D02*
G03I-355J0D01*
G01X-17245Y-62499D02*
G03I-355J0D01*
G01X-17405Y-62659D02*
G03I-355J0D01*
G01X-17585Y-62789D02*
G03I-355J0D01*
G01X-17795Y-62889D02*
G03I-355J0D01*
G01X-18015Y-62949D02*
G03I-355J0D01*
G01X-18245Y-62969D02*
G03I-355J0D01*
G01X-18765D02*
G03I-355J0D01*
G01X-19055Y-55169D02*
G03I-355J0D01*
G01X-18985Y-62949D02*
G03I-355J0D01*
G01X-19185Y-62899D02*
G03I-355J0D01*
G01X-19385Y-62799D02*
G03I-355J0D01*
G01X-19565Y-62679D02*
G03I-355J0D01*
G01X-19715Y-62529D02*
G03I-355J0D01*
G01X-19995Y-59659D02*
G03I-355J0D01*
G01X-19985Y-61949D02*
G03I-355J0D01*
G01X-20005Y-61729D02*
G03I-355J0D01*
G01X-19995D02*
G03I-355J0D01*
G01X-19835Y-62349D02*
G03I-355J0D01*
G01X-19935Y-62149D02*
G03I-355J0D01*
G01X-23005Y-59829D02*
G03I-355J0D01*
G01X-22825Y-59959D02*
G03I-355J0D01*
G01X-22665Y-60119D02*
G03I-355J0D01*
G01X-22365Y-60949D02*
G03I-355J0D01*
G01X-22535Y-60299D02*
G03I-355J0D01*
G01X-22445Y-60509D02*
G03I-355J0D01*
G01X-22385Y-60729D02*
G03I-355J0D01*
G01X-22365Y-60949D02*
G03I-355J0D01*
G01Y-61659D02*
G03I-355J0D01*
G01X-22385Y-61859D02*
G03I-355J0D01*
G01X-22425Y-62059D02*
G03I-355J0D01*
G01X-22505Y-62249D02*
G03I-355J0D01*
G01X-22615Y-62429D02*
G03I-355J0D01*
G01X-22745Y-62589D02*
G03I-355J0D01*
G01X-22905Y-62719D02*
G03I-355J0D01*
G01X-23085Y-62829D02*
G03I-355J0D01*
G01X-23655Y-59659D02*
G03I-355J0D01*
G01X-23435Y-59679D02*
G03I-355J0D01*
G01X-23215Y-59739D02*
G03I-355J0D01*
G01X-23275Y-62909D02*
G03I-355J0D01*
G01X-23475Y-62949D02*
G03I-355J0D01*
G01X-23675Y-62969D02*
G03I-355J0D01*
G01X-25435Y-59659D02*
G03I-355J0D01*
G01Y-62969D02*
G03I-355J0D01*
G01X-26145Y-55169D02*
G03I-355J0D01*
G01X-27795Y-59659D02*
G03I-355J0D01*
G01Y-62969D02*
G03I-355J0D01*
G01X-28345D02*
G03I-355J0D01*
G01X-29445Y-55169D02*
G03I-355J0D01*
G01X3385D02*
G03I-355J0D01*
G01X3255Y-60019D02*
G03I-355J0D01*
G01X3325Y-60149D02*
G03I-355J0D01*
G01X3365Y-60299D02*
G03I-355J0D01*
G01X3385Y-60459D02*
G03I-355J0D01*
G01X3365Y-60629D02*
G03I-355J0D01*
G01X3315Y-60789D02*
G03I-355J0D01*
G01X3245Y-60939D02*
G03I-355J0D01*
G01X2585Y-59659D02*
G03I-355J0D01*
G01X2745Y-59679D02*
G03I-355J0D01*
G01X2895Y-59719D02*
G03I-355J0D01*
G01X3025Y-59789D02*
G03I-355J0D01*
G01X3155Y-59889D02*
G03I-355J0D01*
G01X3135Y-61069D02*
G03I-355J0D01*
G01X3005Y-61179D02*
G03I-355J0D01*
G01X2855Y-61249D02*
G03I-355J0D01*
G01X2695Y-61299D02*
G03I-355J0D01*
G01X2525Y-61319D02*
G03I-355J0D01*
G01X3145Y-62969D02*
G03I-355J0D01*
G01X2245Y-61319D02*
G03I-355J0D01*
G01D02*
G03I-355J0D01*
G01X315Y-55169D02*
G03I-355J0D01*
G01Y-59659D02*
G03I-355J0D01*
G01D02*
G03I-355J0D01*
G01Y-61319D02*
G03I-355J0D01*
G01D02*
G03I-355J0D01*
G01Y-62969D02*
G03I-355J0D01*
G01X-1815Y-60939D02*
G03I-355J0D01*
G01X-1835Y-60719D02*
G03I-355J0D01*
G01X-1815Y-61669D02*
G03I-355J0D01*
G01X-1835Y-61899D02*
G03I-355J0D01*
G01X-1815Y-61669D02*
G03I-355J0D01*
G01X-1895Y-60499D02*
G03I-355J0D01*
G01X-1985Y-60299D02*
G03I-355J0D01*
G01X-2115Y-60119D02*
G03I-355J0D01*
G01X-2275Y-59959D02*
G03I-355J0D01*
G01X-2455Y-59829D02*
G03I-355J0D01*
G01X-2655Y-59739D02*
G03I-355J0D01*
G01X-1895Y-62109D02*
G03I-355J0D01*
G01X-2675Y-62889D02*
G03I-355J0D01*
G01X-2465Y-62799D02*
G03I-355J0D01*
G01X-2275Y-62669D02*
G03I-355J0D01*
G01X-2115Y-62509D02*
G03I-355J0D01*
G01X-1985Y-62319D02*
G03I-355J0D01*
G01X-2755Y-55169D02*
G03I-355J0D01*
G01X-2875Y-59679D02*
G03I-355J0D01*
G01X-3095Y-59659D02*
G03I-355J0D01*
G01X-3115Y-62969D02*
G03I-355J0D01*
G01X-2885Y-62949D02*
G03I-355J0D01*
G01X-3835Y-59659D02*
G03I-355J0D01*
G01X-4055Y-59679D02*
G03I-355J0D01*
G01X-4275Y-59739D02*
G03I-355J0D01*
G01X-4395Y-62829D02*
G03I-355J0D01*
G01X-4205Y-62909D02*
G03I-355J0D01*
G01X-4005Y-62949D02*
G03I-355J0D01*
G01X-3805Y-62969D02*
G03I-355J0D01*
G01X-4475Y-59829D02*
G03I-355J0D01*
G01X-4665Y-59959D02*
G03I-355J0D01*
G01X-4825Y-60119D02*
G03I-355J0D01*
G01X-4955Y-60299D02*
G03I-355J0D01*
G01X-4975Y-62249D02*
G03I-355J0D01*
G01X-4865Y-62429D02*
G03I-355J0D01*
G01X-4735Y-62589D02*
G03I-355J0D01*
G01X-4575Y-62719D02*
G03I-355J0D01*
G01X-33245Y-43929D02*
G03I-355J0D01*
G01X-32965Y-44449D02*
G03I-355J0D01*
G01X-33045Y-44299D02*
G03I-355J0D01*
G01X-32755Y-45609D02*
G03I-355J0D01*
G01X-32805Y-45019D02*
G03I-355J0D01*
G01X-32755Y-45689D02*
G03I-355J0D01*
G01X-32805Y-44999D02*
G03I-355J0D01*
G01X-32755Y-46389D02*
G03I-355J0D01*
G01Y-47079D02*
G03I-355J0D01*
G01Y-47769D02*
G03I-355J0D01*
G01Y-48469D02*
G03I-355J0D01*
G01X-34145Y-43039D02*
G03I-355J0D01*
G01X-33625Y-43479D02*
G03I-355J0D01*
G01X-33515Y-43609D02*
G03I-355J0D01*
G01X-34725Y-42689D02*
G03I-355J0D01*
G01X-34355Y-42919D02*
G03I-355J0D01*
G01X-35925Y-42219D02*
G03I-355J0D01*
G01X-35355Y-42419D02*
G03I-355J0D01*
G01X-36005Y-44739D02*
G03I-355J0D01*
G01X-35865Y-45159D02*
G03I-355J0D01*
G01X-35825Y-45609D02*
G03I-355J0D01*
G01Y-45689D02*
G03I-355J0D01*
G01X-35915Y-44999D02*
G03I-355J0D01*
G01X-35825Y-46389D02*
G03I-355J0D01*
G01Y-47079D02*
G03I-355J0D01*
G01Y-47769D02*
G03I-355J0D01*
G01Y-48469D02*
G03I-355J0D01*
G01X-36165Y-42139D02*
G03I-355J0D01*
G01X-36575Y-44069D02*
G03I-355J0D01*
G01X-36245Y-44369D02*
G03I-355J0D01*
G01X-36325Y-44299D02*
G03I-355J0D01*
G01X-6085Y-44189D02*
G03I-355J0D01*
G01X-6065Y-44399D02*
G03I-355J0D01*
G01X-6075Y-44299D02*
G03I-355J0D01*
G01X-6065Y-44999D02*
G03I-355J0D01*
G01Y-45689D02*
G03I-355J0D01*
G01Y-46389D02*
G03I-355J0D01*
G01Y-47079D02*
G03I-355J0D01*
G01Y-47769D02*
G03I-355J0D01*
G01Y-48469D02*
G03I-355J0D01*
G01X-6295Y-41949D02*
G03I-355J0D01*
G01X-6865Y-43599D02*
G03I-355J0D01*
G01X-6655Y-43629D02*
G03I-355J0D01*
G01X-6465Y-43709D02*
G03I-355J0D01*
G01X-6295Y-43829D02*
G03I-355J0D01*
G01X-6175Y-43999D02*
G03I-355J0D01*
G01X-6785Y-43609D02*
G03I-355J0D01*
G01X-8525Y-43629D02*
G03I-355J0D01*
G01X-8305Y-43599D02*
G03I-355J0D01*
G01X-8385Y-43609D02*
G03I-355J0D01*
G01X-9265Y-42039D02*
G03I-355J0D01*
G01X-9025Y-44009D02*
G03I-355J0D01*
G01X-8895Y-43839D02*
G03I-355J0D01*
G01X-8715Y-43709D02*
G03I-355J0D01*
G01X-9135Y-44429D02*
G03I-355J0D01*
G01X-9105Y-44209D02*
G03I-355J0D01*
G01X-9115Y-44299D02*
G03I-355J0D01*
G01X-9135Y-45689D02*
G03I-355J0D01*
G01Y-44999D02*
G03I-355J0D01*
G01Y-46389D02*
G03I-355J0D01*
G01Y-47079D02*
G03I-355J0D01*
G01Y-47769D02*
G03I-355J0D01*
G01Y-48469D02*
G03I-355J0D01*
G01X-10655Y-42219D02*
G03I-355J0D01*
G01X-12205Y-42419D02*
G03I-355J0D01*
G01Y-42919D02*
G03I-355J0D01*
G01Y-43609D02*
G03I-355J0D01*
G01Y-44999D02*
G03I-355J0D01*
G01Y-44299D02*
G03I-355J0D01*
G01Y-45689D02*
G03I-355J0D01*
G01Y-46389D02*
G03I-355J0D01*
G01Y-47079D02*
G03I-355J0D01*
G01Y-47769D02*
G03I-355J0D01*
G01Y-48469D02*
G03I-355J0D01*
G01X-15745Y-42419D02*
G03I-355J0D01*
G01Y-42919D02*
G03I-355J0D01*
G01Y-43609D02*
G03I-355J0D01*
G01Y-44299D02*
G03I-355J0D01*
G01Y-45689D02*
G03I-355J0D01*
G01Y-44999D02*
G03I-355J0D01*
G01Y-46389D02*
G03I-355J0D01*
G01Y-47079D02*
G03I-355J0D01*
G01Y-47769D02*
G03I-355J0D01*
G01Y-48469D02*
G03I-355J0D01*
G01X-19055Y-42419D02*
G03I-355J0D01*
G01Y-42919D02*
G03I-355J0D01*
G01Y-43609D02*
G03I-355J0D01*
G01Y-44299D02*
G03I-355J0D01*
G01Y-45689D02*
G03I-355J0D01*
G01Y-44999D02*
G03I-355J0D01*
G01Y-46389D02*
G03I-355J0D01*
G01Y-46829D02*
G03I-355J0D01*
G01X-19085Y-47029D02*
G03I-355J0D01*
G01X-19165Y-47219D02*
G03I-355J0D01*
G01X-19285Y-47389D02*
G03I-355J0D01*
G01X-19105Y-47079D02*
G03I-355J0D01*
G01X-19445Y-47509D02*
G03I-355J0D01*
G01X-19635Y-47589D02*
G03I-355J0D01*
G01X-19835Y-47609D02*
G03I-355J0D01*
G01X-25335D02*
G03I-355J0D01*
G01X-25545Y-47589D02*
G03I-355J0D01*
G01X-25735Y-47509D02*
G03I-355J0D01*
G01X-26145Y-42919D02*
G03I-355J0D01*
G01Y-42419D02*
G03I-355J0D01*
G01D02*
G03I-355J0D01*
G01Y-43609D02*
G03I-355J0D01*
G01Y-44299D02*
G03I-355J0D01*
G01Y-44999D02*
G03I-355J0D01*
G01Y-45689D02*
G03I-355J0D01*
G01Y-46389D02*
G03I-355J0D01*
G01X-25905Y-47379D02*
G03I-355J0D01*
G01X-26035Y-47209D02*
G03I-355J0D01*
G01X-26115Y-47019D02*
G03I-355J0D01*
G01X-26145Y-46809D02*
G03I-355J0D01*
G01X-26085Y-47079D02*
G03I-355J0D01*
G01X-29445Y-42919D02*
G03I-355J0D01*
G01Y-42419D02*
G03I-355J0D01*
G01Y-43609D02*
G03I-355J0D01*
G01Y-44299D02*
G03I-355J0D01*
G01Y-44999D02*
G03I-355J0D01*
G01Y-45689D02*
G03I-355J0D01*
G01Y-46389D02*
G03I-355J0D01*
G01Y-47079D02*
G03I-355J0D01*
G01Y-47769D02*
G03I-355J0D01*
G01Y-48469D02*
G03I-355J0D01*
G01X3335Y-44659D02*
G03I-355J0D01*
G01X3385Y-45209D02*
G03I-355J0D01*
G01X3365Y-44999D02*
G03I-355J0D01*
G01X3385Y-45689D02*
G03I-355J0D01*
G01Y-46389D02*
G03I-355J0D01*
G01Y-47079D02*
G03I-355J0D01*
G01Y-47769D02*
G03I-355J0D01*
G01Y-48469D02*
G03I-355J0D01*
G01X3175Y-44129D02*
G03I-355J0D01*
G01X2895Y-43649D02*
G03I-355J0D01*
G01X2515Y-43239D02*
G03I-355J0D01*
G01X2855Y-43609D02*
G03I-355J0D01*
G01X3225Y-44299D02*
G03I-355J0D01*
G01X2075Y-42919D02*
G03I-355J0D01*
G01X1865Y-42759D02*
G03I-355J0D01*
G01D02*
G03I-355J0D01*
G01X1135Y-42399D02*
G03I-355J0D01*
G01X355Y-42179D02*
G03I-355J0D01*
G01X495Y-42219D02*
G03I-355J0D01*
G01X25Y-44039D02*
G03I-355J0D01*
G01X185Y-44279D02*
G03I-355J0D01*
G01X285Y-44559D02*
G03I-355J0D01*
G01X315Y-44859D02*
G03I-355J0D01*
G01X195Y-44299D02*
G03I-355J0D01*
G01X315Y-44999D02*
G03I-355J0D01*
G01Y-45689D02*
G03I-355J0D01*
G01Y-46389D02*
G03I-355J0D01*
G01Y-47079D02*
G03I-355J0D01*
G01Y-47769D02*
G03I-355J0D01*
G01Y-48469D02*
G03I-355J0D01*
G01X-805Y-42009D02*
G03I-355J0D01*
G01X-675Y-43669D02*
G03I-355J0D01*
G01X-195Y-43839D02*
G03I-355J0D01*
G01X-1185Y-43599D02*
G03I-355J0D01*
G01X-1105Y-43609D02*
G03I-355J0D01*
G01X-1965Y-41949D02*
G03I-355J0D01*
G01X-2645Y-43999D02*
G03I-355J0D01*
G01X-2515Y-43839D02*
G03I-355J0D01*
G01X-2345Y-43709D02*
G03I-355J0D01*
G01X-2155Y-43629D02*
G03I-355J0D01*
G01X-1945Y-43599D02*
G03I-355J0D01*
G01X-2025Y-43609D02*
G03I-355J0D01*
G01X-2725Y-44199D02*
G03I-355J0D01*
G01X-2745Y-44299D02*
G03I-355J0D01*
G01X-2755Y-44409D02*
G03I-355J0D01*
G01Y-44999D02*
G03I-355J0D01*
G01Y-45689D02*
G03I-355J0D01*
G01Y-46389D02*
G03I-355J0D01*
G01Y-47079D02*
G03I-355J0D01*
G01Y-47769D02*
G03I-355J0D01*
G01Y-48469D02*
G03I-355J0D01*
G01X0Y0D02*
X232500D01*
G01X0Y240000D02*
Y0D01*
G01X232500Y240000D02*
X0D01*
G01X53773Y-59735D02*
X53453Y-59485D01*
X53080Y-59319D01*
X52653D01*
X52173Y-59569D01*
X51800Y-59985D01*
X51533Y-60485D01*
X51320Y-61319D01*
X51267Y-62069D01*
X51373Y-62819D01*
X51533Y-63319D01*
X51853Y-63819D01*
X52227Y-64152D01*
X52600Y-64319D01*
X52973D01*
X53347Y-64152D01*
X53667Y-63902D01*
X53933Y-63569D01*
G01X55680Y-64319D02*
Y-59319D01*
G01X57920D02*
Y-64319D01*
G01Y-61819D02*
X55680D01*
G01X62067Y-64319D02*
X59933D01*
Y-59319D01*
X62067D01*
G01X61213Y-61735D02*
X59933D01*
G01X66373Y-59735D02*
X66053Y-59485D01*
X65680Y-59319D01*
X65253D01*
X64773Y-59569D01*
X64400Y-59985D01*
X64133Y-60485D01*
X63920Y-61319D01*
X63867Y-62069D01*
X63973Y-62819D01*
X64133Y-63319D01*
X64453Y-63819D01*
X64827Y-64152D01*
X65200Y-64319D01*
X65573D01*
X65947Y-64152D01*
X66267Y-63902D01*
X66533Y-63569D01*
G01X68227Y-64319D02*
Y-59319D01*
G01X70253D02*
X68227Y-62402D01*
G01X70573Y-64319D02*
X69133Y-60985D01*
G01X74667Y-64319D02*
X72533D01*
Y-59319D01*
X74667D01*
G01X73813Y-61735D02*
X72533D01*
G01X76733Y-64319D02*
Y-59319D01*
X78067D01*
X78493Y-59569D01*
X78760Y-59902D01*
X78867Y-60569D01*
X78760Y-61235D01*
X78440Y-61652D01*
X78067Y-61902D01*
X76733D01*
G01X78067D02*
X78867Y-64319D01*
G01X82000Y-64485D02*
X81893Y-64402D01*
Y-64235D01*
X82000Y-64152D01*
X82107Y-64235D01*
Y-64402D01*
X82000Y-64485D01*
G01Y-62235D02*
X81893Y-62152D01*
Y-61985D01*
X82000Y-61902D01*
X82107Y-61985D01*
Y-62152D01*
X82000Y-62235D01*
G01X51533Y-85319D02*
X51800Y-85819D01*
X52120Y-86152D01*
X52493Y-86319D01*
X52920Y-86152D01*
X53240Y-85819D01*
X53560Y-85319D01*
X53667Y-84652D01*
Y-81319D01*
G01X56800Y-86319D02*
X56373Y-86235D01*
X56000Y-85902D01*
X55680Y-85402D01*
X55467Y-84819D01*
X55360Y-84152D01*
Y-83485D01*
X55467Y-82819D01*
X55680Y-82235D01*
X56000Y-81735D01*
X56373Y-81402D01*
X56800Y-81319D01*
X57227Y-81402D01*
X57600Y-81735D01*
X57920Y-82235D01*
X58133Y-82819D01*
X58240Y-83485D01*
Y-84152D01*
X58133Y-84819D01*
X57920Y-85402D01*
X57600Y-85902D01*
X57227Y-86235D01*
X56800Y-86319D01*
G01X61427Y-83652D02*
X61640Y-83402D01*
X61800Y-82985D01*
X61907Y-82402D01*
X61800Y-81902D01*
X61587Y-81569D01*
X61213Y-81319D01*
X59773D01*
Y-86319D01*
X61533D01*
X61907Y-85985D01*
X62120Y-85485D01*
X62227Y-84902D01*
X62120Y-84319D01*
X61800Y-83819D01*
X61427Y-83652D01*
X59773D01*
G01X64133Y-87985D02*
X65200Y-81319D01*
G01X66267D02*
X65200Y-87985D01*
G01X63600Y-85485D02*
X66800D01*
G01Y-83819D02*
X63600D01*
G01X69400Y-86485D02*
X69293Y-86402D01*
Y-86235D01*
X69400Y-86152D01*
X69507Y-86235D01*
Y-86402D01*
X69400Y-86485D01*
G01Y-84235D02*
X69293Y-84152D01*
Y-83985D01*
X69400Y-83902D01*
X69507Y-83985D01*
Y-84152D01*
X69400Y-84235D01*
G01X51427Y-53319D02*
Y-48319D01*
X52493D01*
X52920Y-48569D01*
X53240Y-48902D01*
X53507Y-49402D01*
X53720Y-49985D01*
X53773Y-50819D01*
X53720Y-51652D01*
X53507Y-52235D01*
X53240Y-52735D01*
X52920Y-53069D01*
X52493Y-53319D01*
X51427D01*
G01X57867D02*
X55733D01*
Y-48319D01*
X57867D01*
G01X57013Y-50735D02*
X55733D01*
G01X59880Y-52652D02*
X60307Y-53069D01*
X60787Y-53319D01*
X61213D01*
X61640Y-53069D01*
X61960Y-52652D01*
X62120Y-52069D01*
X62013Y-51485D01*
X61747Y-50985D01*
X61267Y-50652D01*
X60627Y-50485D01*
X60253Y-50152D01*
X60093Y-49569D01*
X60200Y-48985D01*
X60467Y-48569D01*
X60840Y-48319D01*
X61213D01*
X61587Y-48485D01*
X61907Y-48902D01*
G01X64560Y-48319D02*
X65840D01*
G01X65200D02*
Y-53319D01*
G01X64560D02*
X65840D01*
G01X69720Y-50819D02*
X70787D01*
Y-52319D01*
X70467Y-52819D01*
X70093Y-53152D01*
X69560Y-53319D01*
X69027Y-53152D01*
X68653Y-52819D01*
X68333Y-52319D01*
X68120Y-51735D01*
X68013Y-51069D01*
Y-50485D01*
X68120Y-49985D01*
X68333Y-49402D01*
X68653Y-48902D01*
X68973Y-48569D01*
X69400Y-48319D01*
X69773D01*
X70200Y-48485D01*
X70520Y-48819D01*
G01X72373Y-53319D02*
Y-48319D01*
X74827Y-53319D01*
Y-48319D01*
G01X78867Y-53319D02*
X76733D01*
Y-48319D01*
X78867D01*
G01X78013Y-50735D02*
X76733D01*
G01X80933Y-53319D02*
Y-48319D01*
X82267D01*
X82693Y-48569D01*
X82960Y-48902D01*
X83067Y-49569D01*
X82960Y-50235D01*
X82640Y-50652D01*
X82267Y-50902D01*
X80933D01*
G01X82267D02*
X83067Y-53319D01*
G01X86200Y-53485D02*
X86093Y-53402D01*
Y-53235D01*
X86200Y-53152D01*
X86307Y-53235D01*
Y-53402D01*
X86200Y-53485D01*
G01Y-51235D02*
X86093Y-51152D01*
Y-50985D01*
X86200Y-50902D01*
X86307Y-50985D01*
Y-51152D01*
X86200Y-51235D01*
G01X46000Y-14319D02*
Y-89319D01*
G01X163500Y-66319D02*
X46000D01*
G01X163500Y-55319D02*
X46000D01*
G01X163500Y-77319D02*
X46000D01*
G01X163500Y-44319D02*
X46000D01*
G01X87033Y-64319D02*
Y-59319D01*
X88367D01*
X88793Y-59569D01*
X89060Y-59902D01*
X89167Y-60569D01*
X89060Y-61235D01*
X88740Y-61652D01*
X88367Y-61902D01*
X87033D01*
G01X88367D02*
X89167Y-64319D01*
G01X92300D02*
X91873Y-64235D01*
X91500Y-63902D01*
X91180Y-63402D01*
X90967Y-62819D01*
X90860Y-62152D01*
Y-61485D01*
X90967Y-60819D01*
X91180Y-60235D01*
X91500Y-59735D01*
X91873Y-59402D01*
X92300Y-59319D01*
X92727Y-59402D01*
X93100Y-59735D01*
X93420Y-60235D01*
X93633Y-60819D01*
X93740Y-61485D01*
Y-62152D01*
X93633Y-62819D01*
X93420Y-63402D01*
X93100Y-63902D01*
X92727Y-64235D01*
X92300Y-64319D01*
G01X95380D02*
Y-59319D01*
G01X97620D02*
Y-64319D01*
G01Y-61819D02*
X95380D01*
G01X99313Y-64319D02*
Y-59319D01*
X100700Y-63485D01*
X102087Y-59319D01*
Y-64319D01*
G01X107980Y-63652D02*
X108407Y-64069D01*
X108887Y-64319D01*
X109313D01*
X109740Y-64069D01*
X110060Y-63652D01*
X110220Y-63069D01*
X110113Y-62485D01*
X109847Y-61985D01*
X109367Y-61652D01*
X108727Y-61485D01*
X108353Y-61152D01*
X108193Y-60569D01*
X108300Y-59985D01*
X108567Y-59569D01*
X108940Y-59319D01*
X109313D01*
X109687Y-59485D01*
X110007Y-59902D01*
G01X114367Y-64319D02*
X112233D01*
Y-59319D01*
X114367D01*
G01X113513Y-61735D02*
X112233D01*
G01X116113Y-64319D02*
Y-59319D01*
X117500Y-63485D01*
X118887Y-59319D01*
Y-64319D01*
G01X121060Y-59319D02*
X122340D01*
G01X121700D02*
Y-64319D01*
G01X121060D02*
X122340D01*
G01X127073Y-59735D02*
X126753Y-59485D01*
X126380Y-59319D01*
X125953D01*
X125473Y-59569D01*
X125100Y-59985D01*
X124833Y-60485D01*
X124620Y-61319D01*
X124567Y-62069D01*
X124673Y-62819D01*
X124833Y-63319D01*
X125153Y-63819D01*
X125527Y-64152D01*
X125900Y-64319D01*
X126273D01*
X126647Y-64152D01*
X126967Y-63902D01*
X127233Y-63569D01*
G01X130100Y-64319D02*
X129673Y-64235D01*
X129300Y-63902D01*
X128980Y-63402D01*
X128767Y-62819D01*
X128660Y-62152D01*
Y-61485D01*
X128767Y-60819D01*
X128980Y-60235D01*
X129300Y-59735D01*
X129673Y-59402D01*
X130100Y-59319D01*
X130527Y-59402D01*
X130900Y-59735D01*
X131220Y-60235D01*
X131433Y-60819D01*
X131540Y-61485D01*
Y-62152D01*
X131433Y-62819D01*
X131220Y-63402D01*
X130900Y-63902D01*
X130527Y-64235D01*
X130100Y-64319D01*
G01X133073D02*
Y-59319D01*
X135527Y-64319D01*
Y-59319D01*
G01X137327Y-64319D02*
Y-59319D01*
X138393D01*
X138820Y-59569D01*
X139140Y-59902D01*
X139407Y-60402D01*
X139620Y-60985D01*
X139673Y-61819D01*
X139620Y-62652D01*
X139407Y-63235D01*
X139140Y-63735D01*
X138820Y-64069D01*
X138393Y-64319D01*
X137327D01*
G01X141527Y-59319D02*
Y-62902D01*
X141740Y-63652D01*
X142167Y-64152D01*
X142700Y-64319D01*
X143233Y-64152D01*
X143660Y-63652D01*
X143873Y-62902D01*
Y-59319D01*
G01X148073Y-59735D02*
X147753Y-59485D01*
X147380Y-59319D01*
X146953D01*
X146473Y-59569D01*
X146100Y-59985D01*
X145833Y-60485D01*
X145620Y-61319D01*
X145567Y-62069D01*
X145673Y-62819D01*
X145833Y-63319D01*
X146153Y-63819D01*
X146527Y-64152D01*
X146900Y-64319D01*
X147273D01*
X147647Y-64152D01*
X147967Y-63902D01*
X148233Y-63569D01*
G01X151100Y-59319D02*
Y-64319D01*
G01X149873Y-59319D02*
X152327D01*
G01X155300Y-64319D02*
X154873Y-64235D01*
X154500Y-63902D01*
X154180Y-63402D01*
X153967Y-62819D01*
X153860Y-62152D01*
Y-61485D01*
X153967Y-60819D01*
X154180Y-60235D01*
X154500Y-59735D01*
X154873Y-59402D01*
X155300Y-59319D01*
X155727Y-59402D01*
X156100Y-59735D01*
X156420Y-60235D01*
X156633Y-60819D01*
X156740Y-61485D01*
Y-62152D01*
X156633Y-62819D01*
X156420Y-63402D01*
X156100Y-63902D01*
X155727Y-64235D01*
X155300Y-64319D01*
G01X158433D02*
Y-59319D01*
X159767D01*
X160193Y-59569D01*
X160460Y-59902D01*
X160567Y-60569D01*
X160460Y-61235D01*
X160140Y-61652D01*
X159767Y-61902D01*
X158433D01*
G01X159767D02*
X160567Y-64319D01*
G01X52427Y-75319D02*
Y-70319D01*
X53493D01*
X53920Y-70569D01*
X54240Y-70902D01*
X54507Y-71402D01*
X54720Y-71985D01*
X54773Y-72819D01*
X54720Y-73652D01*
X54507Y-74235D01*
X54240Y-74735D01*
X53920Y-75069D01*
X53493Y-75319D01*
X52427D01*
G01X56467D02*
X57800Y-70319D01*
X59133Y-75319D01*
G01X58653Y-73569D02*
X56947D01*
G01X62000Y-70319D02*
Y-75319D01*
G01X60773Y-70319D02*
X63227D01*
G01X67267Y-75319D02*
X65133D01*
Y-70319D01*
X67267D01*
G01X66413Y-72735D02*
X65133D01*
G01X70400Y-75485D02*
X70293Y-75402D01*
Y-75235D01*
X70400Y-75152D01*
X70507Y-75235D01*
Y-75402D01*
X70400Y-75485D01*
G01Y-73235D02*
X70293Y-73152D01*
Y-72985D01*
X70400Y-72902D01*
X70507Y-72985D01*
Y-73152D01*
X70400Y-73235D01*
G01X91533Y-53319D02*
Y-48319D01*
X92813D01*
X93240Y-48569D01*
X93560Y-49152D01*
X93667Y-49819D01*
X93560Y-50485D01*
X93293Y-50985D01*
X92813Y-51235D01*
X91533D01*
G01X96800Y-48319D02*
Y-53319D01*
G01X95573Y-48319D02*
X98027D01*
G01X102067Y-53319D02*
X99933D01*
Y-48319D01*
X102067D01*
G01X101213Y-50735D02*
X99933D01*
G01X106373Y-48735D02*
X106053Y-48485D01*
X105680Y-48319D01*
X105253D01*
X104773Y-48569D01*
X104400Y-48985D01*
X104133Y-49485D01*
X103920Y-50319D01*
X103867Y-51069D01*
X103973Y-51819D01*
X104133Y-52319D01*
X104453Y-52819D01*
X104827Y-53152D01*
X105200Y-53319D01*
X105573D01*
X105947Y-53152D01*
X106267Y-52902D01*
X106533Y-52569D01*
G01X78587Y-71152D02*
X78907Y-70652D01*
X79280Y-70402D01*
X79707Y-70319D01*
X80240Y-70485D01*
X80613Y-70902D01*
X80720Y-71402D01*
X80667Y-71902D01*
X80453Y-72319D01*
X79387Y-73152D01*
X78907Y-73735D01*
X78587Y-74569D01*
X78480Y-75319D01*
X80720D01*
G01X83800Y-70319D02*
X83373Y-70485D01*
X83053Y-70902D01*
X82840Y-71402D01*
X82680Y-72069D01*
X82627Y-72819D01*
X82680Y-73569D01*
X82840Y-74235D01*
X83053Y-74735D01*
X83373Y-75152D01*
X83800Y-75319D01*
X84227Y-75152D01*
X84547Y-74735D01*
X84760Y-74235D01*
X84920Y-73569D01*
X84973Y-72819D01*
X84920Y-72069D01*
X84760Y-71402D01*
X84547Y-70902D01*
X84227Y-70485D01*
X83800Y-70319D01*
G01X88000Y-75319D02*
Y-70319D01*
X87360Y-71318D01*
G01Y-75319D02*
X88640D01*
G01X91187Y-73235D02*
X91560Y-72652D01*
X91880Y-72319D01*
X92307Y-72152D01*
X92680Y-72319D01*
X92947Y-72652D01*
X93160Y-73152D01*
X93213Y-73735D01*
X93160Y-74235D01*
X92947Y-74735D01*
X92627Y-75152D01*
X92253Y-75319D01*
X91827Y-75152D01*
X91453Y-74652D01*
X91240Y-73902D01*
X91187Y-73069D01*
X91293Y-71985D01*
X91453Y-71402D01*
X91720Y-70819D01*
X92093Y-70402D01*
X92467Y-70319D01*
X92840Y-70485D01*
X93107Y-70902D01*
G01X95707Y-73652D02*
X97093D01*
G01X100600Y-70319D02*
X100173Y-70485D01*
X99853Y-70902D01*
X99640Y-71402D01*
X99480Y-72069D01*
X99427Y-72819D01*
X99480Y-73569D01*
X99640Y-74235D01*
X99853Y-74735D01*
X100173Y-75152D01*
X100600Y-75319D01*
X101027Y-75152D01*
X101347Y-74735D01*
X101560Y-74235D01*
X101720Y-73569D01*
X101773Y-72819D01*
X101720Y-72069D01*
X101560Y-71402D01*
X101347Y-70902D01*
X101027Y-70485D01*
X100600Y-70319D01*
G01X103627Y-74319D02*
X103947Y-74902D01*
X104373Y-75235D01*
X104853Y-75319D01*
X105280Y-75235D01*
X105707Y-74819D01*
X105973Y-74319D01*
X106027Y-73819D01*
X105920Y-73235D01*
X105547Y-72819D01*
X105173Y-72652D01*
X104693D01*
G01X105173D02*
X105493Y-72402D01*
X105760Y-71985D01*
X105867Y-71485D01*
X105760Y-70985D01*
X105493Y-70569D01*
X105013Y-70319D01*
X104533Y-70402D01*
X104053Y-70735D01*
G01X108307Y-73652D02*
X109693D01*
G01X113200Y-75319D02*
Y-70319D01*
X112560Y-71318D01*
G01Y-75319D02*
X113840D01*
G01X117400D02*
X117773Y-75235D01*
X118200Y-74985D01*
X118467Y-74569D01*
X118573Y-73985D01*
X118467Y-73402D01*
X118147Y-72902D01*
X117667Y-72652D01*
X117133D01*
X116813Y-72485D01*
X116547Y-72069D01*
X116440Y-71485D01*
X116600Y-70902D01*
X116973Y-70485D01*
X117400Y-70319D01*
X117827Y-70485D01*
X118200Y-70902D01*
X118360Y-71485D01*
X118253Y-72069D01*
X117987Y-72485D01*
X117667Y-72652D01*
X117133D01*
X116653Y-72902D01*
X116333Y-73402D01*
X116227Y-73985D01*
X116333Y-74569D01*
X116600Y-74985D01*
X117027Y-75235D01*
X117400Y-75319D01*
G01X54333Y-39319D02*
Y-31819D01*
X56333D01*
X57000Y-32194D01*
X57500Y-33069D01*
X57667Y-34069D01*
X57500Y-35069D01*
X57083Y-35819D01*
X56333Y-36194D01*
X54333D01*
G01X60833Y-39319D02*
Y-31819D01*
X62917D01*
X63583Y-32194D01*
X64000Y-32694D01*
X64167Y-33694D01*
X64000Y-34694D01*
X63500Y-35318D01*
X62917Y-35694D01*
X60833D01*
G01X62917D02*
X64167Y-39319D01*
G01X68000Y-31819D02*
X70000D01*
G01X69000D02*
Y-39319D01*
G01X68000D02*
X70000D01*
G01X73333D02*
Y-31819D01*
X75500Y-38069D01*
X77667Y-31819D01*
Y-39319D01*
G01X79917D02*
X82000Y-31819D01*
X84083Y-39319D01*
G01X83333Y-36694D02*
X80667D01*
G01X86833Y-39319D02*
Y-31819D01*
X88917D01*
X89583Y-32194D01*
X90000Y-32694D01*
X90167Y-33694D01*
X90000Y-34694D01*
X89500Y-35318D01*
X88917Y-35694D01*
X86833D01*
G01X88917D02*
X90167Y-39319D01*
G01X95000D02*
Y-35944D01*
X93333Y-31819D01*
G01X96667D02*
X95000Y-35944D01*
G01X100417Y-36819D02*
X102583D01*
G01X106250Y-38319D02*
X106917Y-38944D01*
X107667Y-39319D01*
X108333D01*
X109000Y-38944D01*
X109500Y-38319D01*
X109750Y-37444D01*
X109583Y-36569D01*
X109167Y-35819D01*
X108417Y-35318D01*
X107417Y-35069D01*
X106833Y-34569D01*
X106583Y-33694D01*
X106750Y-32819D01*
X107167Y-32194D01*
X107750Y-31819D01*
X108333D01*
X108917Y-32068D01*
X109417Y-32694D01*
G01X113500Y-31819D02*
X115500D01*
G01X114500D02*
Y-39319D01*
G01X113500D02*
X115500D01*
G01X119167D02*
Y-31819D01*
X120833D01*
X121500Y-32194D01*
X122000Y-32694D01*
X122417Y-33444D01*
X122750Y-34319D01*
X122833Y-35569D01*
X122750Y-36819D01*
X122417Y-37694D01*
X122000Y-38444D01*
X121500Y-38944D01*
X120833Y-39319D01*
X119167D01*
G01X129167D02*
X125833D01*
Y-31819D01*
X129167D01*
G01X127833Y-35444D02*
X125833D01*
G01X54333Y-19319D02*
Y-26819D01*
X57667D01*
G01X60417D02*
X62500Y-19319D01*
X64583Y-26819D01*
G01X63833Y-24194D02*
X61167D01*
G01X69000Y-26819D02*
Y-23444D01*
X67333Y-19319D01*
G01X70667D02*
X69000Y-23444D01*
G01X77167Y-26819D02*
X73833D01*
Y-19319D01*
X77167D01*
G01X75833Y-22944D02*
X73833D01*
G01X80333Y-26819D02*
Y-19319D01*
X82417D01*
X83083Y-19694D01*
X83500Y-20194D01*
X83667Y-21194D01*
X83500Y-22194D01*
X83000Y-22818D01*
X82417Y-23194D01*
X80333D01*
G01X82417D02*
X83667Y-26819D01*
G01X88500Y-27068D02*
X88333Y-26944D01*
Y-26694D01*
X88500Y-26569D01*
X88667Y-26694D01*
Y-26944D01*
X88500Y-27068D01*
G01Y-23694D02*
X88333Y-23569D01*
Y-23319D01*
X88500Y-23194D01*
X88667Y-23319D01*
Y-23569D01*
X88500Y-23694D01*
G01X96000Y-19319D02*
X95333Y-19568D01*
X94833Y-20194D01*
X94500Y-20944D01*
X94250Y-21944D01*
X94167Y-23069D01*
X94250Y-24194D01*
X94500Y-25194D01*
X94833Y-25944D01*
X95333Y-26569D01*
X96000Y-26819D01*
X96667Y-26569D01*
X97167Y-25944D01*
X97500Y-25194D01*
X97750Y-24194D01*
X97833Y-23069D01*
X97750Y-21944D01*
X97500Y-20944D01*
X97167Y-20194D01*
X96667Y-19568D01*
X96000Y-19319D01*
G01X102500Y-26819D02*
Y-19319D01*
X101500Y-20818D01*
G01Y-26819D02*
X103500D01*
G01X166667Y-74319D02*
Y-68319D01*
X168267D01*
X168800Y-68619D01*
X169200Y-69319D01*
X169333Y-70119D01*
X169200Y-70919D01*
X168867Y-71519D01*
X168267Y-71819D01*
X166667D01*
G01X171867Y-74319D02*
Y-68319D01*
X173533D01*
X174067Y-68619D01*
X174400Y-69019D01*
X174533Y-69819D01*
X174400Y-70619D01*
X174000Y-71119D01*
X173533Y-71419D01*
X171867D01*
G01X173533D02*
X174533Y-74319D01*
G01X178400D02*
X177867Y-74219D01*
X177400Y-73819D01*
X177000Y-73219D01*
X176733Y-72519D01*
X176600Y-71719D01*
Y-70919D01*
X176733Y-70119D01*
X177000Y-69418D01*
X177400Y-68819D01*
X177867Y-68419D01*
X178400Y-68319D01*
X178933Y-68419D01*
X179400Y-68819D01*
X179800Y-69418D01*
X180067Y-70119D01*
X180200Y-70919D01*
Y-71719D01*
X180067Y-72519D01*
X179800Y-73219D01*
X179400Y-73819D01*
X178933Y-74219D01*
X178400Y-74319D01*
G01X182267Y-73119D02*
X182600Y-73719D01*
X183000Y-74119D01*
X183467Y-74319D01*
X184000Y-74119D01*
X184400Y-73719D01*
X184800Y-73119D01*
X184933Y-72319D01*
Y-68319D01*
G01X190133Y-74319D02*
X187467D01*
Y-68319D01*
X190133D01*
G01X189067Y-71218D02*
X187467D01*
G01X195467Y-68819D02*
X195067Y-68519D01*
X194600Y-68319D01*
X194067D01*
X193467Y-68619D01*
X193000Y-69119D01*
X192667Y-69719D01*
X192400Y-70719D01*
X192333Y-71619D01*
X192467Y-72519D01*
X192667Y-73119D01*
X193067Y-73719D01*
X193533Y-74119D01*
X194000Y-74319D01*
X194467D01*
X194933Y-74119D01*
X195333Y-73819D01*
X195667Y-73419D01*
G01X199200Y-68319D02*
Y-74319D01*
G01X197667Y-68319D02*
X200733D01*
G01X208067Y-74319D02*
Y-68319D01*
X211133Y-74319D01*
Y-68319D01*
G01X213333D02*
Y-72619D01*
X213600Y-73519D01*
X214133Y-74119D01*
X214800Y-74319D01*
X215467Y-74119D01*
X216000Y-73519D01*
X216267Y-72619D01*
Y-68319D01*
G01X218267Y-74319D02*
Y-68319D01*
X220000Y-73319D01*
X221733Y-68319D01*
Y-74319D01*
G01X225733Y-71119D02*
X226000Y-70819D01*
X226200Y-70319D01*
X226333Y-69618D01*
X226200Y-69019D01*
X225933Y-68619D01*
X225467Y-68319D01*
X223667D01*
Y-74319D01*
X225867D01*
X226333Y-73919D01*
X226600Y-73319D01*
X226733Y-72619D01*
X226600Y-71919D01*
X226200Y-71319D01*
X225733Y-71119D01*
X223667D01*
G01X231733Y-74319D02*
X229067D01*
Y-68319D01*
X231733D01*
G01X230667Y-71218D02*
X229067D01*
G01X234267Y-74319D02*
Y-68319D01*
X235933D01*
X236467Y-68619D01*
X236800Y-69019D01*
X236933Y-69819D01*
X236800Y-70619D01*
X236400Y-71119D01*
X235933Y-71419D01*
X234267D01*
G01X235933D02*
X236933Y-74319D01*
G01X240800Y-74519D02*
X240667Y-74419D01*
Y-74219D01*
X240800Y-74119D01*
X240933Y-74219D01*
Y-74419D01*
X240800Y-74519D01*
G01Y-71819D02*
X240667Y-71719D01*
Y-71519D01*
X240800Y-71419D01*
X240933Y-71519D01*
Y-71719D01*
X240800Y-71819D01*
G01X166667Y-51819D02*
Y-45819D01*
X168267D01*
X168800Y-46119D01*
X169200Y-46819D01*
X169333Y-47619D01*
X169200Y-48419D01*
X168867Y-49019D01*
X168267Y-49319D01*
X166667D01*
G01X171867Y-51819D02*
Y-45819D01*
X173533D01*
X174067Y-46119D01*
X174400Y-46519D01*
X174533Y-47319D01*
X174400Y-48119D01*
X174000Y-48619D01*
X173533Y-48919D01*
X171867D01*
G01X173533D02*
X174533Y-51819D01*
G01X178400D02*
X177867Y-51719D01*
X177400Y-51319D01*
X177000Y-50719D01*
X176733Y-50019D01*
X176600Y-49219D01*
Y-48419D01*
X176733Y-47619D01*
X177000Y-46918D01*
X177400Y-46319D01*
X177867Y-45919D01*
X178400Y-45819D01*
X178933Y-45919D01*
X179400Y-46319D01*
X179800Y-46918D01*
X180067Y-47619D01*
X180200Y-48419D01*
Y-49219D01*
X180067Y-50019D01*
X179800Y-50719D01*
X179400Y-51319D01*
X178933Y-51719D01*
X178400Y-51819D01*
G01X182267Y-50619D02*
X182600Y-51219D01*
X183000Y-51619D01*
X183467Y-51819D01*
X184000Y-51619D01*
X184400Y-51219D01*
X184800Y-50619D01*
X184933Y-49819D01*
Y-45819D01*
G01X190133Y-51819D02*
X187467D01*
Y-45819D01*
X190133D01*
G01X189067Y-48718D02*
X187467D01*
G01X195467Y-46319D02*
X195067Y-46019D01*
X194600Y-45819D01*
X194067D01*
X193467Y-46119D01*
X193000Y-46619D01*
X192667Y-47219D01*
X192400Y-48219D01*
X192333Y-49119D01*
X192467Y-50019D01*
X192667Y-50619D01*
X193067Y-51219D01*
X193533Y-51619D01*
X194000Y-51819D01*
X194467D01*
X194933Y-51619D01*
X195333Y-51319D01*
X195667Y-50919D01*
G01X199200Y-45819D02*
Y-51819D01*
G01X197667Y-45819D02*
X200733D01*
G01X208067Y-51819D02*
Y-45819D01*
X211133Y-51819D01*
Y-45819D01*
G01X213133Y-51819D02*
X214800Y-45819D01*
X216467Y-51819D01*
G01X215867Y-49719D02*
X213733D01*
G01X218267Y-51819D02*
Y-45819D01*
X220000Y-50819D01*
X221733Y-45819D01*
Y-51819D01*
G01X226533D02*
X223867D01*
Y-45819D01*
X226533D01*
G01X225467Y-48718D02*
X223867D01*
G01X230400Y-52019D02*
X230267Y-51919D01*
Y-51719D01*
X230400Y-51619D01*
X230533Y-51719D01*
Y-51919D01*
X230400Y-52019D01*
G01Y-49319D02*
X230267Y-49219D01*
Y-49019D01*
X230400Y-48919D01*
X230533Y-49019D01*
Y-49219D01*
X230400Y-49319D01*
G01X163500Y-14319D02*
Y-89319D01*
G01X361000Y-66819D02*
X163500D01*
G01X169467Y-16319D02*
X169067Y-16019D01*
X168600Y-15819D01*
X168067D01*
X167467Y-16119D01*
X167000Y-16619D01*
X166667Y-17219D01*
X166400Y-18219D01*
X166333Y-19119D01*
X166467Y-20019D01*
X166667Y-20619D01*
X167067Y-21219D01*
X167533Y-21619D01*
X168000Y-21819D01*
X168467D01*
X168933Y-21619D01*
X169333Y-21319D01*
X169667Y-20919D01*
G01X173200Y-21819D02*
X172667Y-21719D01*
X172200Y-21319D01*
X171800Y-20719D01*
X171533Y-20019D01*
X171400Y-19219D01*
Y-18419D01*
X171533Y-17619D01*
X171800Y-16918D01*
X172200Y-16319D01*
X172667Y-15919D01*
X173200Y-15819D01*
X173733Y-15919D01*
X174200Y-16319D01*
X174600Y-16918D01*
X174867Y-17619D01*
X175000Y-18419D01*
Y-19219D01*
X174867Y-20019D01*
X174600Y-20719D01*
X174200Y-21319D01*
X173733Y-21719D01*
X173200Y-21819D01*
G01X176667D02*
Y-15819D01*
X178400Y-20819D01*
X180133Y-15819D01*
Y-21819D01*
G01X182267D02*
Y-15819D01*
X183867D01*
X184400Y-16119D01*
X184800Y-16819D01*
X184933Y-17619D01*
X184800Y-18419D01*
X184467Y-19019D01*
X183867Y-19319D01*
X182267D01*
G01X187133Y-21819D02*
X188800Y-15819D01*
X190467Y-21819D01*
G01X189867Y-19719D02*
X187733D01*
G01X192467Y-21819D02*
Y-15819D01*
X195533Y-21819D01*
Y-15819D01*
G01X199200Y-21819D02*
Y-19119D01*
X197867Y-15819D01*
G01X200533D02*
X199200Y-19119D01*
G01X208067Y-21819D02*
Y-15819D01*
X211133Y-21819D01*
Y-15819D01*
G01X213133Y-21819D02*
X214800Y-15819D01*
X216467Y-21819D01*
G01X215867Y-19719D02*
X213733D01*
G01X218267Y-21819D02*
Y-15819D01*
X220000Y-20819D01*
X221733Y-15819D01*
Y-21819D01*
G01X226533D02*
X223867D01*
Y-15819D01*
X226533D01*
G01X225467Y-18718D02*
X223867D01*
G01X230400Y-22019D02*
X230267Y-21919D01*
Y-21719D01*
X230400Y-21619D01*
X230533Y-21719D01*
Y-21919D01*
X230400Y-22019D01*
G01Y-19319D02*
X230267Y-19219D01*
Y-19019D01*
X230400Y-18919D01*
X230533Y-19019D01*
Y-19219D01*
X230400Y-19319D01*
G01X361000Y-44319D02*
X163500D01*
G01X227007Y-86819D02*
Y-78819D01*
X230993Y-86819D01*
Y-78819D01*
G01X233893D02*
Y-84552D01*
X234240Y-85752D01*
X234933Y-86552D01*
X235800Y-86819D01*
X236667Y-86552D01*
X237360Y-85752D01*
X237707Y-84552D01*
Y-78819D01*
G01X240347Y-86819D02*
Y-78819D01*
X242600Y-85485D01*
X244853Y-78819D01*
Y-86819D01*
G01X250093Y-82552D02*
X250440Y-82152D01*
X250700Y-81485D01*
X250873Y-80552D01*
X250700Y-79752D01*
X250353Y-79219D01*
X249747Y-78819D01*
X247407D01*
Y-86819D01*
X250267D01*
X250873Y-86285D01*
X251220Y-85485D01*
X251393Y-84552D01*
X251220Y-83619D01*
X250700Y-82819D01*
X250093Y-82552D01*
X247407D01*
G01X257933Y-86819D02*
X254467D01*
Y-78819D01*
X257933D01*
G01X256547Y-82685D02*
X254467D01*
G01X261267Y-86819D02*
Y-78819D01*
X263433D01*
X264127Y-79219D01*
X264560Y-79752D01*
X264733Y-80819D01*
X264560Y-81885D01*
X264040Y-82552D01*
X263433Y-82952D01*
X261267D01*
G01X263433D02*
X264733Y-86819D01*
G01X189933Y-62500D02*
X187267D01*
Y-56500D01*
X189933D01*
G01X188867Y-59400D02*
X187267D01*
G01X192133Y-56500D02*
X193800Y-62500D01*
X195467Y-56500D01*
G01X197533Y-62500D02*
Y-56500D01*
G01X200067D02*
X197533Y-60200D01*
G01X200467Y-62500D02*
X198667Y-58500D01*
G01X202933Y-57500D02*
X203333Y-56900D01*
X203800Y-56600D01*
X204333Y-56500D01*
X205000Y-56700D01*
X205467Y-57200D01*
X205600Y-57800D01*
X205533Y-58400D01*
X205267Y-58900D01*
X203933Y-59900D01*
X203333Y-60600D01*
X202933Y-61600D01*
X202800Y-62500D01*
X205600D01*
G01X213267D02*
Y-56500D01*
X214867D01*
X215400Y-56800D01*
X215800Y-57500D01*
X215933Y-58300D01*
X215800Y-59100D01*
X215467Y-59700D01*
X214867Y-60000D01*
X213267D01*
G01X218267Y-62500D02*
Y-56500D01*
X221333Y-62500D01*
Y-56500D01*
G01X225000Y-62700D02*
X224867Y-62600D01*
Y-62400D01*
X225000Y-62300D01*
X225133Y-62400D01*
Y-62600D01*
X225000Y-62700D01*
G01Y-60000D02*
X224867Y-59900D01*
Y-59700D01*
X225000Y-59600D01*
X225133Y-59700D01*
Y-59900D01*
X225000Y-60000D01*
G01X230733Y-59300D02*
X231000Y-59000D01*
X231200Y-58500D01*
X231333Y-57800D01*
X231200Y-57200D01*
X230933Y-56800D01*
X230467Y-56500D01*
X228667D01*
Y-62500D01*
X230867D01*
X231333Y-62100D01*
X231600Y-61500D01*
X231733Y-60800D01*
X231600Y-60100D01*
X231200Y-59500D01*
X230733Y-59300D01*
X228667D01*
G01X233667Y-62500D02*
Y-56500D01*
X235400Y-61500D01*
X237133Y-56500D01*
Y-62500D01*
G01X239467Y-61800D02*
X239933Y-62300D01*
X240467Y-62500D01*
X241000Y-62300D01*
X241467Y-61700D01*
X241800Y-60800D01*
X241933Y-59900D01*
Y-58800D01*
X241800Y-57900D01*
X241467Y-57100D01*
X241067Y-56700D01*
X240600Y-56500D01*
X240067Y-56700D01*
X239667Y-57100D01*
X239400Y-57700D01*
X239267Y-58500D01*
X239400Y-59200D01*
X239733Y-59900D01*
X240133Y-60300D01*
X240600Y-60400D01*
X241133Y-60200D01*
X241533Y-59700D01*
X241933Y-58800D01*
G01X244533Y-57500D02*
X244933Y-56900D01*
X245400Y-56600D01*
X245933Y-56500D01*
X246600Y-56700D01*
X247067Y-57200D01*
X247200Y-57800D01*
X247133Y-58400D01*
X246867Y-58900D01*
X245533Y-59900D01*
X244933Y-60600D01*
X244533Y-61600D01*
X244400Y-62500D01*
X247200D01*
G01X251000Y-56500D02*
Y-62500D01*
G01X249467Y-56500D02*
X252533D01*
G01X256067Y-62500D02*
X256200Y-61200D01*
X256400Y-60100D01*
X256667Y-59100D01*
X257000Y-58000D01*
X257533Y-56500D01*
X254867D01*
G01X261400D02*
X260867Y-56700D01*
X260467Y-57200D01*
X260200Y-57800D01*
X260000Y-58600D01*
X259933Y-59500D01*
X260000Y-60400D01*
X260200Y-61200D01*
X260467Y-61800D01*
X260867Y-62300D01*
X261400Y-62500D01*
X261933Y-62300D01*
X262333Y-61800D01*
X262600Y-61200D01*
X262800Y-60400D01*
X262867Y-59500D01*
X262800Y-58600D01*
X262600Y-57800D01*
X262333Y-57200D01*
X261933Y-56700D01*
X261400Y-56500D01*
G01X265733Y-60500D02*
X267467D01*
G01X270333Y-62500D02*
Y-56500D01*
X271667D01*
X272200Y-56800D01*
X272600Y-57200D01*
X272933Y-57800D01*
X273200Y-58500D01*
X273267Y-59500D01*
X273200Y-60500D01*
X272933Y-61200D01*
X272600Y-61800D01*
X272200Y-62200D01*
X271667Y-62500D01*
X270333D01*
G01X278333D02*
X275667D01*
Y-56500D01*
X278333D01*
G01X277267Y-59400D02*
X275667D01*
G01X280533Y-56500D02*
X282200Y-62500D01*
X283867Y-56500D01*
G01X286600D02*
X288200D01*
G01X287400D02*
Y-62500D01*
G01X286600D02*
X288200D01*
G01X294067Y-57000D02*
X293667Y-56700D01*
X293200Y-56500D01*
X292667D01*
X292067Y-56800D01*
X291600Y-57300D01*
X291267Y-57900D01*
X291000Y-58900D01*
X290933Y-59800D01*
X291067Y-60700D01*
X291267Y-61300D01*
X291667Y-61900D01*
X292133Y-62300D01*
X292600Y-62500D01*
X293067D01*
X293533Y-62300D01*
X293933Y-62000D01*
X294267Y-61600D01*
G01X299133Y-62500D02*
X296467D01*
Y-56500D01*
X299133D01*
G01X298067Y-59400D02*
X296467D01*
G01X302133Y-60500D02*
X303867D01*
G01X309533Y-62500D02*
X306867D01*
Y-56500D01*
X309533D01*
G01X308467Y-59400D02*
X306867D01*
G01X311733Y-56500D02*
X313400Y-62500D01*
X315067Y-56500D01*
G01X317133Y-62500D02*
Y-56500D01*
G01X319667D02*
X317133Y-60200D01*
G01X320067Y-62500D02*
X318267Y-58500D01*
G01X322933Y-60500D02*
X324667D01*
G01X329000Y-62500D02*
Y-56500D01*
X328200Y-57700D01*
G01Y-62500D02*
X329800D01*
G01X334200Y-56500D02*
X333667Y-56700D01*
X333267Y-57200D01*
X333000Y-57800D01*
X332800Y-58600D01*
X332733Y-59500D01*
X332800Y-60400D01*
X333000Y-61200D01*
X333267Y-61800D01*
X333667Y-62300D01*
X334200Y-62500D01*
X334733Y-62300D01*
X335133Y-61800D01*
X335400Y-61200D01*
X335600Y-60400D01*
X335667Y-59500D01*
X335600Y-58600D01*
X335400Y-57800D01*
X335133Y-57200D01*
X334733Y-56700D01*
X334200Y-56500D01*
G01X339400Y-62500D02*
Y-56500D01*
X338600Y-57700D01*
G01Y-62500D02*
X340200D01*
G01X190367Y-39319D02*
Y-31319D01*
X192533D01*
X193227Y-31719D01*
X193660Y-32252D01*
X193833Y-33319D01*
X193660Y-34385D01*
X193140Y-35052D01*
X192533Y-35452D01*
X190367D01*
G01X192533D02*
X193833Y-39319D01*
G01X198900D02*
X198207Y-39185D01*
X197600Y-38652D01*
X197080Y-37852D01*
X196733Y-36919D01*
X196560Y-35852D01*
Y-34785D01*
X196733Y-33719D01*
X197080Y-32785D01*
X197600Y-31985D01*
X198207Y-31452D01*
X198900Y-31319D01*
X199593Y-31452D01*
X200200Y-31985D01*
X200720Y-32785D01*
X201067Y-33719D01*
X201240Y-34785D01*
Y-35852D01*
X201067Y-36919D01*
X200720Y-37852D01*
X200200Y-38652D01*
X199593Y-39185D01*
X198900Y-39319D01*
G01X203880D02*
Y-31319D01*
G01X207520D02*
Y-39319D01*
G01Y-35319D02*
X203880D01*
G01X210247Y-39319D02*
Y-31319D01*
X212500Y-37985D01*
X214753Y-31319D01*
Y-39319D01*
G01X224280Y-38252D02*
X224973Y-38919D01*
X225753Y-39319D01*
X226447D01*
X227140Y-38919D01*
X227660Y-38252D01*
X227920Y-37318D01*
X227747Y-36385D01*
X227313Y-35585D01*
X226533Y-35052D01*
X225493Y-34785D01*
X224887Y-34252D01*
X224627Y-33319D01*
X224800Y-32385D01*
X225233Y-31719D01*
X225840Y-31319D01*
X226447D01*
X227053Y-31585D01*
X227573Y-32252D01*
G01X234633Y-39319D02*
X231167D01*
Y-31319D01*
X234633D01*
G01X233247Y-35185D02*
X231167D01*
G01X237447Y-39319D02*
Y-31319D01*
X239700Y-37985D01*
X241953Y-31319D01*
Y-39319D01*
G01X245460Y-31319D02*
X247540D01*
G01X246500D02*
Y-39319D01*
G01X245460D02*
X247540D01*
G01X255207Y-31985D02*
X254687Y-31585D01*
X254080Y-31319D01*
X253387D01*
X252607Y-31719D01*
X252000Y-32385D01*
X251567Y-33185D01*
X251220Y-34519D01*
X251133Y-35719D01*
X251307Y-36919D01*
X251567Y-37719D01*
X252087Y-38519D01*
X252693Y-39052D01*
X253300Y-39319D01*
X253907D01*
X254513Y-39052D01*
X255033Y-38652D01*
X255467Y-38119D01*
G01X260100Y-39319D02*
X259407Y-39185D01*
X258800Y-38652D01*
X258280Y-37852D01*
X257933Y-36919D01*
X257760Y-35852D01*
Y-34785D01*
X257933Y-33719D01*
X258280Y-32785D01*
X258800Y-31985D01*
X259407Y-31452D01*
X260100Y-31319D01*
X260793Y-31452D01*
X261400Y-31985D01*
X261920Y-32785D01*
X262267Y-33719D01*
X262440Y-34785D01*
Y-35852D01*
X262267Y-36919D01*
X261920Y-37852D01*
X261400Y-38652D01*
X260793Y-39185D01*
X260100Y-39319D01*
G01X264907D02*
Y-31319D01*
X268893Y-39319D01*
Y-31319D01*
G01X271793Y-39319D02*
Y-31319D01*
X273527D01*
X274220Y-31719D01*
X274740Y-32252D01*
X275173Y-33052D01*
X275520Y-33985D01*
X275607Y-35319D01*
X275520Y-36652D01*
X275173Y-37585D01*
X274740Y-38386D01*
X274220Y-38919D01*
X273527Y-39319D01*
X271793D01*
G01X278593Y-31319D02*
Y-37052D01*
X278940Y-38252D01*
X279633Y-39052D01*
X280500Y-39319D01*
X281367Y-39052D01*
X282060Y-38252D01*
X282407Y-37052D01*
Y-31319D01*
G01X289207Y-31985D02*
X288687Y-31585D01*
X288080Y-31319D01*
X287387D01*
X286607Y-31719D01*
X286000Y-32385D01*
X285567Y-33185D01*
X285220Y-34519D01*
X285133Y-35719D01*
X285307Y-36919D01*
X285567Y-37719D01*
X286087Y-38519D01*
X286693Y-39052D01*
X287300Y-39319D01*
X287907D01*
X288513Y-39052D01*
X289033Y-38652D01*
X289467Y-38119D01*
G01X294100Y-31319D02*
Y-39319D01*
G01X292107Y-31319D02*
X296093D01*
G01X300900Y-39319D02*
X300207Y-39185D01*
X299600Y-38652D01*
X299080Y-37852D01*
X298733Y-36919D01*
X298560Y-35852D01*
Y-34785D01*
X298733Y-33719D01*
X299080Y-32785D01*
X299600Y-31985D01*
X300207Y-31452D01*
X300900Y-31319D01*
X301593Y-31452D01*
X302200Y-31985D01*
X302720Y-32785D01*
X303067Y-33719D01*
X303240Y-34785D01*
Y-35852D01*
X303067Y-36919D01*
X302720Y-37852D01*
X302200Y-38652D01*
X301593Y-39185D01*
X300900Y-39319D01*
G01X305967D02*
Y-31319D01*
X308133D01*
X308827Y-31719D01*
X309260Y-32252D01*
X309433Y-33319D01*
X309260Y-34385D01*
X308740Y-35052D01*
X308133Y-35452D01*
X305967D01*
G01X308133D02*
X309433Y-39319D01*
G01X319393Y-31319D02*
Y-37052D01*
X319740Y-38252D01*
X320433Y-39052D01*
X321300Y-39319D01*
X322167Y-39052D01*
X322860Y-38252D01*
X323207Y-37052D01*
Y-31319D01*
G01X326280Y-38252D02*
X326973Y-38919D01*
X327753Y-39319D01*
X328447D01*
X329140Y-38919D01*
X329660Y-38252D01*
X329920Y-37318D01*
X329747Y-36385D01*
X329313Y-35585D01*
X328533Y-35052D01*
X327493Y-34785D01*
X326887Y-34252D01*
X326627Y-33319D01*
X326800Y-32385D01*
X327233Y-31719D01*
X327840Y-31319D01*
X328447D01*
X329053Y-31585D01*
X329573Y-32252D01*
G01X332733Y-39319D02*
X334900Y-31319D01*
X337067Y-39319D01*
G01X336287Y-36519D02*
X333513D01*
G01X211831Y141496D02*
Y178504D01*
G01X232500Y141496D02*
X215768D01*
G01X211831D02*
G03X215768I1969J0D01*
G01X211831Y178504D02*
G02X215768I1969J0D01*
G01D02*
X232500D01*
G01Y0D02*
Y141496D01*
G01Y178504D02*
Y240000D01*
G01X336867Y-74319D02*
Y-68319D01*
X338533D01*
X339067Y-68619D01*
X339400Y-69019D01*
X339533Y-69819D01*
X339400Y-70619D01*
X339000Y-71119D01*
X338533Y-71419D01*
X336867D01*
G01X338533D02*
X339533Y-74319D01*
G01X344733D02*
X342067D01*
Y-68319D01*
X344733D01*
G01X343667Y-71218D02*
X342067D01*
G01X346933Y-68319D02*
X348600Y-74319D01*
X350267Y-68319D01*
G01X353800Y-74519D02*
X353667Y-74419D01*
Y-74219D01*
X353800Y-74119D01*
X353933Y-74219D01*
Y-74419D01*
X353800Y-74519D01*
G01X342600Y-78819D02*
X341907Y-79085D01*
X341387Y-79752D01*
X341040Y-80552D01*
X340780Y-81619D01*
X340693Y-82819D01*
X340780Y-84019D01*
X341040Y-85085D01*
X341387Y-85886D01*
X341907Y-86552D01*
X342600Y-86819D01*
X343293Y-86552D01*
X343813Y-85886D01*
X344160Y-85085D01*
X344420Y-84019D01*
X344507Y-82819D01*
X344420Y-81619D01*
X344160Y-80552D01*
X343813Y-79752D01*
X343293Y-79085D01*
X342600Y-78819D01*
G01X350440Y-86819D02*
Y-78819D01*
X347233Y-84552D01*
X351567D01*
G01X331000Y-66819D02*
Y-89319D01*
G01X361000Y-14319D02*
Y-89319D01*
G01X368347Y-65319D02*
Y-61319D01*
X369213D01*
X369560Y-61519D01*
X369820Y-61785D01*
X370037Y-62185D01*
X370210Y-62652D01*
X370253Y-63319D01*
X370210Y-63985D01*
X370037Y-64452D01*
X369820Y-64852D01*
X369560Y-65119D01*
X369213Y-65319D01*
X368347D01*
G01X373567D02*
X371833D01*
Y-61319D01*
X373567D01*
G01X372873Y-63252D02*
X371833D01*
G01X377053Y-61652D02*
X376793Y-61452D01*
X376490Y-61319D01*
X376143D01*
X375753Y-61519D01*
X375450Y-61852D01*
X375233Y-62252D01*
X375060Y-62919D01*
X375017Y-63519D01*
X375103Y-64119D01*
X375233Y-64519D01*
X375493Y-64919D01*
X375797Y-65185D01*
X376100Y-65319D01*
X376403D01*
X376707Y-65185D01*
X376967Y-64985D01*
X377183Y-64719D01*
G01X378980Y-61319D02*
X380020D01*
G01X379500D02*
Y-65319D01*
G01X378980D02*
X380020D01*
G01X381773D02*
Y-61319D01*
X382900Y-64652D01*
X384027Y-61319D01*
Y-65319D01*
G01X385217D02*
X386300Y-61319D01*
X387383Y-65319D01*
G01X386993Y-63919D02*
X385607D01*
G01X388833Y-61319D02*
Y-65319D01*
X390567D01*
G01X383200Y-52819D02*
Y-56819D01*
G01X382203Y-52819D02*
X384197D01*
G01X386600Y-56819D02*
X386253Y-56752D01*
X385950Y-56485D01*
X385690Y-56085D01*
X385517Y-55619D01*
X385430Y-55085D01*
Y-54552D01*
X385517Y-54019D01*
X385690Y-53552D01*
X385950Y-53152D01*
X386253Y-52885D01*
X386600Y-52819D01*
X386947Y-52885D01*
X387250Y-53152D01*
X387510Y-53552D01*
X387683Y-54019D01*
X387770Y-54552D01*
Y-55085D01*
X387683Y-55619D01*
X387510Y-56085D01*
X387250Y-56485D01*
X386947Y-56752D01*
X386600Y-56819D01*
G01X389133Y-52819D02*
Y-56819D01*
X390867D01*
G01X394267D02*
X392533D01*
Y-52819D01*
X394267D01*
G01X393573Y-54752D02*
X392533D01*
G01X395933Y-56819D02*
Y-52819D01*
X397017D01*
X397363Y-53019D01*
X397580Y-53285D01*
X397667Y-53819D01*
X397580Y-54352D01*
X397320Y-54685D01*
X397017Y-54885D01*
X395933D01*
G01X397017D02*
X397667Y-56819D01*
G01X399117D02*
X400200Y-52819D01*
X401283Y-56819D01*
G01X400893Y-55419D02*
X399507D01*
G01X402603Y-56819D02*
Y-52819D01*
X404597Y-56819D01*
Y-52819D01*
G01X407953Y-53152D02*
X407693Y-52952D01*
X407390Y-52819D01*
X407043D01*
X406653Y-53019D01*
X406350Y-53352D01*
X406133Y-53752D01*
X405960Y-54419D01*
X405917Y-55019D01*
X406003Y-55619D01*
X406133Y-56019D01*
X406393Y-56419D01*
X406697Y-56685D01*
X407000Y-56819D01*
X407303D01*
X407607Y-56685D01*
X407867Y-56485D01*
X408083Y-56219D01*
G01X411267Y-56819D02*
X409533D01*
Y-52819D01*
X411267D01*
G01X410573Y-54752D02*
X409533D01*
G01X412890Y-56285D02*
X413237Y-56619D01*
X413627Y-56819D01*
X413973D01*
X414320Y-56619D01*
X414580Y-56285D01*
X414710Y-55819D01*
X414623Y-55352D01*
X414407Y-54952D01*
X414017Y-54685D01*
X413497Y-54552D01*
X413193Y-54285D01*
X413063Y-53819D01*
X413150Y-53352D01*
X413367Y-53019D01*
X413670Y-52819D01*
X413973D01*
X414277Y-52952D01*
X414537Y-53285D01*
G01X383300Y-70952D02*
X383213Y-70885D01*
Y-70752D01*
X383300Y-70685D01*
X383387Y-70752D01*
Y-70885D01*
X383300Y-70952D01*
G01X386700Y-70819D02*
Y-66819D01*
X386180Y-67619D01*
G01Y-70819D02*
X387220D01*
G01X383300Y-76952D02*
X383213Y-76885D01*
Y-76752D01*
X383300Y-76685D01*
X383387Y-76752D01*
Y-76885D01*
X383300Y-76952D01*
G01X386700Y-72819D02*
X386353Y-72952D01*
X386093Y-73285D01*
X385920Y-73685D01*
X385790Y-74219D01*
X385747Y-74819D01*
X385790Y-75419D01*
X385920Y-75952D01*
X386093Y-76352D01*
X386353Y-76685D01*
X386700Y-76819D01*
X387047Y-76685D01*
X387307Y-76352D01*
X387480Y-75952D01*
X387610Y-75419D01*
X387653Y-74819D01*
X387610Y-74219D01*
X387480Y-73685D01*
X387307Y-73285D01*
X387047Y-72952D01*
X386700Y-72819D01*
G01X389147Y-76019D02*
X389407Y-76485D01*
X389753Y-76752D01*
X390143Y-76819D01*
X390490Y-76752D01*
X390837Y-76419D01*
X391053Y-76019D01*
X391097Y-75619D01*
X391010Y-75152D01*
X390707Y-74819D01*
X390403Y-74685D01*
X390013D01*
G01X390403D02*
X390663Y-74485D01*
X390880Y-74152D01*
X390967Y-73752D01*
X390880Y-73352D01*
X390663Y-73019D01*
X390273Y-72819D01*
X389883Y-72885D01*
X389493Y-73152D01*
G01X383300Y-82952D02*
X383213Y-82885D01*
Y-82752D01*
X383300Y-82685D01*
X383387Y-82752D01*
Y-82885D01*
X383300Y-82952D01*
G01X386700Y-78819D02*
X386353Y-78952D01*
X386093Y-79285D01*
X385920Y-79685D01*
X385790Y-80219D01*
X385747Y-80819D01*
X385790Y-81419D01*
X385920Y-81952D01*
X386093Y-82352D01*
X386353Y-82685D01*
X386700Y-82819D01*
X387047Y-82685D01*
X387307Y-82352D01*
X387480Y-81952D01*
X387610Y-81419D01*
X387653Y-80819D01*
X387610Y-80219D01*
X387480Y-79685D01*
X387307Y-79285D01*
X387047Y-78952D01*
X386700Y-78819D01*
G01X390100Y-82819D02*
Y-78819D01*
X389580Y-79619D01*
G01Y-82819D02*
X390620D01*
G01X393500Y-78819D02*
X393153Y-78952D01*
X392893Y-79285D01*
X392720Y-79685D01*
X392590Y-80219D01*
X392547Y-80819D01*
X392590Y-81419D01*
X392720Y-81952D01*
X392893Y-82352D01*
X393153Y-82685D01*
X393500Y-82819D01*
X393847Y-82685D01*
X394107Y-82352D01*
X394280Y-81952D01*
X394410Y-81419D01*
X394453Y-80819D01*
X394410Y-80219D01*
X394280Y-79685D01*
X394107Y-79285D01*
X393847Y-78952D01*
X393500Y-78819D01*
G01X373790Y-70819D02*
X375610Y-66819D01*
G01X373790D02*
X375610Y-70819D01*
G01X370390Y-76819D02*
X372210Y-72819D01*
G01X370390D02*
X372210Y-76819D01*
G01X373790D02*
X375610Y-72819D01*
G01X373790D02*
X375610Y-76819D01*
G01X366990Y-82819D02*
X368810Y-78819D01*
G01X366990D02*
X368810Y-82819D01*
G01X370390D02*
X372210Y-78819D01*
G01X370390D02*
X372210Y-82819D01*
G01X373790D02*
X375610Y-78819D01*
G01X373790D02*
X375610Y-82819D01*
G01X400873Y-77319D02*
Y-73319D01*
X402000Y-76652D01*
X403127Y-73319D01*
Y-77319D01*
G01X404317D02*
X405400Y-73319D01*
X406483Y-77319D01*
G01X406093Y-75919D02*
X404707D01*
G01X409753Y-73652D02*
X409493Y-73452D01*
X409190Y-73319D01*
X408843D01*
X408453Y-73519D01*
X408150Y-73852D01*
X407933Y-74252D01*
X407760Y-74919D01*
X407717Y-75519D01*
X407803Y-76119D01*
X407933Y-76519D01*
X408193Y-76919D01*
X408497Y-77185D01*
X408800Y-77319D01*
X409103D01*
X409407Y-77185D01*
X409667Y-76985D01*
X409883Y-76719D01*
G01X411290Y-77319D02*
Y-73319D01*
G01X413110D02*
Y-77319D01*
G01Y-75319D02*
X411290D01*
G01X418177Y-77319D02*
Y-73319D01*
X419823D01*
G01X419217Y-75252D02*
X418177D01*
G01X421880Y-73319D02*
X422920D01*
G01X422400D02*
Y-77319D01*
G01X421880D02*
X422920D01*
G01X424803D02*
Y-73319D01*
X426797Y-77319D01*
Y-73319D01*
G01X428680D02*
X429720D01*
G01X429200D02*
Y-77319D01*
G01X428680D02*
X429720D01*
G01X431690Y-76785D02*
X432037Y-77119D01*
X432427Y-77319D01*
X432773D01*
X433120Y-77119D01*
X433380Y-76785D01*
X433510Y-76319D01*
X433423Y-75852D01*
X433207Y-75452D01*
X432817Y-75185D01*
X432297Y-75052D01*
X431993Y-74785D01*
X431863Y-74319D01*
X431950Y-73852D01*
X432167Y-73519D01*
X432470Y-73319D01*
X432773D01*
X433077Y-73452D01*
X433337Y-73785D01*
G01X435090Y-77319D02*
Y-73319D01*
G01X436910D02*
Y-77319D01*
G01Y-75319D02*
X435090D01*
G01X378000Y-68619D02*
X381000D01*
G01X378000Y-70819D02*
X381000D01*
G01X379500Y-67119D02*
Y-70119D01*
G01X378000Y-76819D02*
X381000D01*
G01X379500Y-73119D02*
Y-76119D01*
G01X378000Y-74619D02*
X381000D01*
G01X378000Y-82819D02*
X381000D01*
G01X379500Y-79119D02*
Y-82119D01*
G01X378000Y-80619D02*
X381000D01*
G01X377017Y-41819D02*
X378100Y-37819D01*
X379183Y-41819D01*
G01X378793Y-40419D02*
X377407D01*
G01X380633Y-41819D02*
Y-37819D01*
X381717D01*
X382063Y-38019D01*
X382280Y-38285D01*
X382367Y-38819D01*
X382280Y-39352D01*
X382020Y-39685D01*
X381717Y-39885D01*
X380633D01*
G01X381717D02*
X382367Y-41819D01*
G01X385767D02*
X384033D01*
Y-37819D01*
X385767D01*
G01X385073Y-39752D02*
X384033D01*
G01X391180Y-37819D02*
X392220D01*
G01X391700D02*
Y-41819D01*
G01X391180D02*
X392220D01*
G01X394103D02*
Y-37819D01*
X396097Y-41819D01*
Y-37819D01*
G01X401380D02*
X402420D01*
G01X401900D02*
Y-41819D01*
G01X401380D02*
X402420D01*
G01X404303D02*
Y-37819D01*
X406297Y-41819D01*
Y-37819D01*
G01X409653Y-38152D02*
X409393Y-37952D01*
X409090Y-37819D01*
X408743D01*
X408353Y-38019D01*
X408050Y-38352D01*
X407833Y-38752D01*
X407660Y-39419D01*
X407617Y-40019D01*
X407703Y-40619D01*
X407833Y-41019D01*
X408093Y-41419D01*
X408397Y-41685D01*
X408700Y-41819D01*
X409003D01*
X409307Y-41685D01*
X409567Y-41485D01*
X409783Y-41219D01*
G01X411190Y-41819D02*
Y-37819D01*
G01X413010D02*
Y-41819D01*
G01Y-39819D02*
X411190D01*
G01X416367Y-41819D02*
X414633D01*
Y-37819D01*
X416367D01*
G01X415673Y-39752D02*
X414633D01*
G01X417990Y-41285D02*
X418337Y-41619D01*
X418727Y-41819D01*
X419073D01*
X419420Y-41619D01*
X419680Y-41285D01*
X419810Y-40819D01*
X419723Y-40352D01*
X419507Y-39952D01*
X419117Y-39685D01*
X418597Y-39552D01*
X418293Y-39285D01*
X418163Y-38819D01*
X418250Y-38352D01*
X418467Y-38019D01*
X418770Y-37819D01*
X419073D01*
X419377Y-37952D01*
X419637Y-38285D01*
G01X372047Y-22819D02*
Y-25685D01*
X372220Y-26285D01*
X372567Y-26685D01*
X373000Y-26819D01*
X373433Y-26685D01*
X373780Y-26285D01*
X373953Y-25685D01*
Y-22819D01*
G01X375403Y-26819D02*
Y-22819D01*
X377397Y-26819D01*
Y-22819D01*
G01X378933D02*
Y-26819D01*
X380667D01*
G01X384067D02*
X382333D01*
Y-22819D01*
X384067D01*
G01X383373Y-24752D02*
X382333D01*
G01X385690Y-26285D02*
X386037Y-26619D01*
X386427Y-26819D01*
X386773D01*
X387120Y-26619D01*
X387380Y-26285D01*
X387510Y-25819D01*
X387423Y-25352D01*
X387207Y-24952D01*
X386817Y-24685D01*
X386297Y-24552D01*
X385993Y-24285D01*
X385863Y-23819D01*
X385950Y-23352D01*
X386167Y-23019D01*
X386470Y-22819D01*
X386773D01*
X387077Y-22952D01*
X387337Y-23285D01*
G01X389090Y-26285D02*
X389437Y-26619D01*
X389827Y-26819D01*
X390173D01*
X390520Y-26619D01*
X390780Y-26285D01*
X390910Y-25819D01*
X390823Y-25352D01*
X390607Y-24952D01*
X390217Y-24685D01*
X389697Y-24552D01*
X389393Y-24285D01*
X389263Y-23819D01*
X389350Y-23352D01*
X389567Y-23019D01*
X389870Y-22819D01*
X390173D01*
X390477Y-22952D01*
X390737Y-23285D01*
G01X396800Y-26819D02*
X396453Y-26752D01*
X396150Y-26485D01*
X395890Y-26085D01*
X395717Y-25619D01*
X395630Y-25085D01*
Y-24552D01*
X395717Y-24019D01*
X395890Y-23552D01*
X396150Y-23152D01*
X396453Y-22885D01*
X396800Y-22819D01*
X397147Y-22885D01*
X397450Y-23152D01*
X397710Y-23552D01*
X397883Y-24019D01*
X397970Y-24552D01*
Y-25085D01*
X397883Y-25619D01*
X397710Y-26085D01*
X397450Y-26485D01*
X397147Y-26752D01*
X396800Y-26819D01*
G01X400200Y-22819D02*
Y-26819D01*
G01X399203Y-22819D02*
X401197D01*
G01X402690Y-26819D02*
Y-22819D01*
G01X404510D02*
Y-26819D01*
G01Y-24819D02*
X402690D01*
G01X407867Y-26819D02*
X406133D01*
Y-22819D01*
X407867D01*
G01X407173Y-24752D02*
X406133D01*
G01X409533Y-26819D02*
Y-22819D01*
X410617D01*
X410963Y-23019D01*
X411180Y-23285D01*
X411267Y-23819D01*
X411180Y-24352D01*
X410920Y-24685D01*
X410617Y-24885D01*
X409533D01*
G01X410617D02*
X411267Y-26819D01*
G01X412500Y-22819D02*
X413107Y-26819D01*
X413800Y-22819D01*
X414493Y-26819D01*
X415100Y-22819D01*
G01X416680D02*
X417720D01*
G01X417200D02*
Y-26819D01*
G01X416680D02*
X417720D01*
G01X419690Y-26285D02*
X420037Y-26619D01*
X420427Y-26819D01*
X420773D01*
X421120Y-26619D01*
X421380Y-26285D01*
X421510Y-25819D01*
X421423Y-25352D01*
X421207Y-24952D01*
X420817Y-24685D01*
X420297Y-24552D01*
X419993Y-24285D01*
X419863Y-23819D01*
X419950Y-23352D01*
X420167Y-23019D01*
X420470Y-22819D01*
X420773D01*
X421077Y-22952D01*
X421337Y-23285D01*
G01X424867Y-26819D02*
X423133D01*
Y-22819D01*
X424867D01*
G01X424173Y-24752D02*
X423133D01*
G01X365290Y-33785D02*
X365637Y-34119D01*
X366027Y-34319D01*
X366373D01*
X366720Y-34119D01*
X366980Y-33785D01*
X367110Y-33319D01*
X367023Y-32852D01*
X366807Y-32452D01*
X366417Y-32185D01*
X365897Y-32052D01*
X365593Y-31785D01*
X365463Y-31319D01*
X365550Y-30852D01*
X365767Y-30519D01*
X366070Y-30319D01*
X366373D01*
X366677Y-30452D01*
X366937Y-30785D01*
G01X368733Y-34319D02*
Y-30319D01*
X369773D01*
X370120Y-30519D01*
X370380Y-30985D01*
X370467Y-31519D01*
X370380Y-32052D01*
X370163Y-32452D01*
X369773Y-32652D01*
X368733D01*
G01X373867Y-34319D02*
X372133D01*
Y-30319D01*
X373867D01*
G01X373173Y-32252D02*
X372133D01*
G01X377353Y-30652D02*
X377093Y-30452D01*
X376790Y-30319D01*
X376443D01*
X376053Y-30519D01*
X375750Y-30852D01*
X375533Y-31252D01*
X375360Y-31919D01*
X375317Y-32519D01*
X375403Y-33119D01*
X375533Y-33519D01*
X375793Y-33919D01*
X376097Y-34185D01*
X376400Y-34319D01*
X376703D01*
X377007Y-34185D01*
X377267Y-33985D01*
X377483Y-33719D01*
G01X379280Y-30319D02*
X380320D01*
G01X379800D02*
Y-34319D01*
G01X379280D02*
X380320D01*
G01X382377D02*
Y-30319D01*
X384023D01*
G01X383417Y-32252D02*
X382377D01*
G01X386080Y-30319D02*
X387120D01*
G01X386600D02*
Y-34319D01*
G01X386080D02*
X387120D01*
G01X390867D02*
X389133D01*
Y-30319D01*
X390867D01*
G01X390173Y-32252D02*
X389133D01*
G01X392447Y-34319D02*
Y-30319D01*
X393313D01*
X393660Y-30519D01*
X393920Y-30785D01*
X394137Y-31185D01*
X394310Y-31652D01*
X394353Y-32319D01*
X394310Y-32985D01*
X394137Y-33452D01*
X393920Y-33852D01*
X393660Y-34119D01*
X393313Y-34319D01*
X392447D01*
G01X399247D02*
Y-30319D01*
X400113D01*
X400460Y-30519D01*
X400720Y-30785D01*
X400937Y-31185D01*
X401110Y-31652D01*
X401153Y-32319D01*
X401110Y-32985D01*
X400937Y-33452D01*
X400720Y-33852D01*
X400460Y-34119D01*
X400113Y-34319D01*
X399247D01*
G01X403080Y-30319D02*
X404120D01*
G01X403600D02*
Y-34319D01*
G01X403080D02*
X404120D01*
G01X405873D02*
Y-30319D01*
X407000Y-33652D01*
X408127Y-30319D01*
Y-34319D01*
G01X411267D02*
X409533D01*
Y-30319D01*
X411267D01*
G01X410573Y-32252D02*
X409533D01*
G01X412803Y-34319D02*
Y-30319D01*
X414797Y-34319D01*
Y-30319D01*
G01X416290Y-33785D02*
X416637Y-34119D01*
X417027Y-34319D01*
X417373D01*
X417720Y-34119D01*
X417980Y-33785D01*
X418110Y-33319D01*
X418023Y-32852D01*
X417807Y-32452D01*
X417417Y-32185D01*
X416897Y-32052D01*
X416593Y-31785D01*
X416463Y-31319D01*
X416550Y-30852D01*
X416767Y-30519D01*
X417070Y-30319D01*
X417373D01*
X417677Y-30452D01*
X417937Y-30785D01*
G01X420080Y-30319D02*
X421120D01*
G01X420600D02*
Y-34319D01*
G01X420080D02*
X421120D01*
G01X424000D02*
X423653Y-34252D01*
X423350Y-33985D01*
X423090Y-33585D01*
X422917Y-33119D01*
X422830Y-32585D01*
Y-32052D01*
X422917Y-31519D01*
X423090Y-31052D01*
X423350Y-30652D01*
X423653Y-30385D01*
X424000Y-30319D01*
X424347Y-30385D01*
X424650Y-30652D01*
X424910Y-31052D01*
X425083Y-31519D01*
X425170Y-32052D01*
Y-32585D01*
X425083Y-33119D01*
X424910Y-33585D01*
X424650Y-33985D01*
X424347Y-34252D01*
X424000Y-34319D01*
G01X426403D02*
Y-30319D01*
X428397Y-34319D01*
Y-30319D01*
G01X429890Y-33785D02*
X430237Y-34119D01*
X430627Y-34319D01*
X430973D01*
X431320Y-34119D01*
X431580Y-33785D01*
X431710Y-33319D01*
X431623Y-32852D01*
X431407Y-32452D01*
X431017Y-32185D01*
X430497Y-32052D01*
X430193Y-31785D01*
X430063Y-31319D01*
X430150Y-30852D01*
X430367Y-30519D01*
X430670Y-30319D01*
X430973D01*
X431277Y-30452D01*
X431537Y-30785D01*
G01X408117Y-65319D02*
X409200Y-61319D01*
X410283Y-65319D01*
G01X409893Y-63919D02*
X408507D01*
G01X411603Y-65319D02*
Y-61319D01*
X413597Y-65319D01*
Y-61319D01*
G01X416260Y-63319D02*
X417127D01*
Y-64519D01*
X416867Y-64919D01*
X416563Y-65185D01*
X416130Y-65319D01*
X415697Y-65185D01*
X415393Y-64919D01*
X415133Y-64519D01*
X414960Y-64052D01*
X414873Y-63519D01*
Y-63052D01*
X414960Y-62652D01*
X415133Y-62185D01*
X415393Y-61785D01*
X415653Y-61519D01*
X416000Y-61319D01*
X416303D01*
X416650Y-61452D01*
X416910Y-61719D01*
G01X418533Y-61319D02*
Y-65319D01*
X420267D01*
G01X423667D02*
X421933D01*
Y-61319D01*
X423667D01*
G01X422973Y-63252D02*
X421933D01*
G01X419847Y-70519D02*
X420107Y-70985D01*
X420453Y-71252D01*
X420843Y-71319D01*
X421190Y-71252D01*
X421537Y-70919D01*
X421753Y-70519D01*
X421797Y-70119D01*
X421710Y-69652D01*
X421407Y-69319D01*
X421103Y-69185D01*
X420713D01*
G01X421103D02*
X421363Y-68985D01*
X421580Y-68652D01*
X421667Y-68252D01*
X421580Y-67852D01*
X421363Y-67519D01*
X420973Y-67319D01*
X420583Y-67385D01*
X420193Y-67652D01*
G01X424200Y-67319D02*
X423853Y-67452D01*
X423593Y-67785D01*
X423420Y-68185D01*
X423290Y-68719D01*
X423247Y-69319D01*
X423290Y-69919D01*
X423420Y-70452D01*
X423593Y-70852D01*
X423853Y-71185D01*
X424200Y-71319D01*
X424547Y-71185D01*
X424807Y-70852D01*
X424980Y-70452D01*
X425110Y-69919D01*
X425153Y-69319D01*
X425110Y-68719D01*
X424980Y-68185D01*
X424807Y-67785D01*
X424547Y-67452D01*
X424200Y-67319D01*
G01X414700Y-68619D02*
X417700D01*
G01X414700Y-70819D02*
X417700D01*
G01X416200Y-67119D02*
Y-70119D01*
G01X420000Y-78319D02*
X423000D01*
G01X421500D02*
X419200Y-82819D01*
X417700Y-80619D01*
G54D58*
X165906Y136264D03*
G54D49*
X146500Y57504D03*
Y45496D03*
G54D67*
X212885Y126000D03*
X222115D03*
X212885Y117000D03*
X222115D03*
G54D77*
G01X84276Y115584D02*
X81316D01*
X80800Y116100D01*
G01X89788Y128970D02*
Y125788D01*
X88500Y124500D01*
G01X85000Y105500D02*
X88213Y108713D01*
Y110072D01*
G01X94500Y105100D02*
X92938Y106662D01*
Y110072D01*
G01X85600Y132070D02*
X86930D01*
X88213Y130787D01*
Y128970D01*
G01X94512D02*
Y133488D01*
X92500Y135500D01*
G01X92938Y128970D02*
Y131562D01*
X92500Y132000D01*
G01X103174Y125033D02*
X104473D01*
X106500Y127060D01*
Y127500D01*
G01X105000Y136500D02*
Y133000D01*
X103174Y131174D01*
Y126608D01*
G01Y123458D02*
X105598D01*
X106590Y124450D01*
G01X103174Y120309D02*
X106000D01*
G01X103174Y114009D02*
X111509D01*
X115000Y117500D01*
X116500D01*
X118500Y119500D01*
G01X100812Y128970D02*
Y126972D01*
X98340Y124500D01*
X97500D01*
G01X98500Y114500D02*
X97087D01*
X96087Y113500D01*
Y110072D01*
G01X103174Y112435D02*
X111565D01*
X114540Y109460D01*
X116540D01*
X118500Y107500D01*
G01X97384Y107166D02*
X97662Y107445D01*
Y110072D01*
G01X139126Y167600D02*
Y170350D01*
G01X143126D02*
X144426Y169050D01*
Y167506D01*
X143030Y166110D01*
Y163770D01*
X141918Y162658D01*
X141131D01*
X140698Y163091D01*
X139911D01*
X139354Y162534D01*
Y161747D01*
X139787Y161314D01*
Y160527D01*
X139130Y159870D01*
X137100D01*
X136050Y160920D01*
G01X135126Y167600D02*
Y170350D01*
G01X154094Y139413D02*
X152587D01*
X152500Y139501D01*
X149965D01*
X149858Y139394D01*
X144606D01*
X139500Y144500D01*
X135800D01*
X134800Y143500D01*
G01X147126Y170350D02*
X145826Y169050D01*
Y166926D01*
X144430Y165530D01*
Y163190D01*
X139710Y158470D01*
X137100D01*
X136050Y157420D01*
G01X154094Y140988D02*
X152500D01*
X152413Y140901D01*
X149385D01*
X149278Y140794D01*
X145185D01*
X140080Y145900D01*
X135900D01*
X134800Y147000D01*
G01X142910Y186614D02*
Y181245D01*
X141641Y179976D01*
Y178271D01*
X139970Y176600D01*
X138526D01*
X137826Y175900D01*
Y174950D01*
X139126Y173650D01*
G01X138972Y186614D02*
Y181245D01*
X140241Y179976D01*
Y178851D01*
X139390Y178000D01*
X137946D01*
X136426Y176480D01*
Y174950D01*
X135126Y173650D01*
G01X152300Y129000D02*
Y128000D01*
X153000Y127300D01*
X153720D01*
X154960Y128540D01*
Y129440D01*
X154522Y129878D01*
Y130592D01*
X155278Y131348D01*
X156022D01*
X156530Y130840D01*
X157260D01*
X157725Y131305D01*
Y133045D01*
X157638Y133132D01*
Y134689D01*
G01X152300Y125500D02*
X152700Y125900D01*
X154300D01*
X159125Y130725D01*
Y133015D01*
X159213Y133103D01*
Y134689D01*
G01X151126Y167600D02*
Y170350D01*
G01X154094Y150437D02*
X152500D01*
X152413Y150350D01*
X144150D01*
X143000Y151500D01*
G01X165906Y156736D02*
X167500D01*
X167587Y156649D01*
X169679D01*
X171480Y158450D01*
X173800D01*
X174850Y159500D01*
G01X163126Y167600D02*
Y170350D01*
G01X154094Y144138D02*
X152587D01*
X152500Y144225D01*
X149225D01*
X148000Y143000D01*
G01X165906Y145713D02*
X167253D01*
X167340Y145800D01*
X169230D01*
X171980Y143050D01*
X173800D01*
X174850Y142000D01*
G01X165906Y155161D02*
X167500D01*
X167587Y155249D01*
X170259D01*
X172060Y157050D01*
X173800D01*
X174850Y156000D01*
G01X171126Y167600D02*
Y170350D01*
G01X163937Y134689D02*
Y133063D01*
X165000Y132000D01*
G01X165500Y129150D02*
X165000Y129650D01*
Y132000D01*
G01X178150Y156000D02*
X180500D01*
X181000Y156500D01*
G01X165906Y147287D02*
X167373D01*
X167460Y147200D01*
X169810D01*
X172560Y144450D01*
X173800D01*
X174850Y145500D01*
G01X156063Y158311D02*
Y159697D01*
X155210Y160550D01*
X148050D01*
X147000Y159500D01*
G01X154094Y155161D02*
X152500D01*
X152413Y155074D01*
X148926D01*
X148000Y156000D01*
G01X157638Y158311D02*
Y160102D01*
X155790Y161950D01*
X148050D01*
X147000Y163000D01*
G01X159126Y167600D02*
Y170350D01*
G01X154094Y145713D02*
X152500D01*
X152413Y145625D01*
X148875D01*
X148000Y146500D01*
G01X178150Y152500D02*
X180500D01*
X181000Y152000D01*
G01X165906Y150437D02*
X167477D01*
X167564Y150524D01*
X168950D01*
X169425Y150050D01*
X173800D01*
X174850Y149000D01*
G01X165906Y142563D02*
X167437D01*
X167524Y142476D01*
X169364D01*
X171051Y140790D01*
Y139299D01*
X172900Y137450D01*
X173800D01*
X174850Y138500D01*
G01X178150Y142000D02*
X181000D01*
G01X165906Y152012D02*
X167438D01*
X167526Y151924D01*
X169530D01*
X170005Y151450D01*
X173800D01*
X174850Y152500D01*
G01X178150Y149000D02*
X181000D01*
G01X178150Y159500D02*
X181000D01*
G01X155126Y167600D02*
Y170350D01*
G01X154094Y148862D02*
X152587D01*
X152500Y148950D01*
X143950D01*
X143000Y148000D01*
G01X178150Y138500D02*
X179890D01*
X181000Y137390D01*
G01X165906Y140988D02*
X167413D01*
X167500Y141076D01*
X168784D01*
X169651Y140210D01*
Y138720D01*
X172320Y136050D01*
X173800D01*
X174850Y135000D01*
G01X167126Y167600D02*
Y170350D01*
G01X161000Y129150D02*
X161500Y129650D01*
Y132000D01*
G01X162362Y134689D02*
Y132862D01*
X161500Y132000D01*
G01X178150Y135000D02*
X180390D01*
X181000Y134390D01*
G01X178150Y145500D02*
X181000D01*
G01X165906Y153587D02*
X168000D01*
G01X165906Y139413D02*
X168000D01*
G01X165906Y144138D02*
X168000D01*
G01X165906Y148862D02*
X168000D01*
G01X154094Y137839D02*
X152000D01*
G01X154094Y142563D02*
X152000D01*
G01X154094Y147287D02*
X152000D01*
G01X154094Y152012D02*
X152000D01*
G01X154094Y153587D02*
X152587D01*
X152500Y153674D01*
X149174D01*
X148000Y152500D01*
G01X160787Y158311D02*
Y151713D01*
X161000Y151500D01*
G01X156063Y134689D02*
Y137063D01*
X158000Y139000D01*
X159000D01*
G01X160787Y134689D02*
Y138500D01*
X160287Y139000D01*
X159000D01*
G01X156689Y186614D02*
Y181245D01*
X157958Y179976D01*
Y178383D01*
X160426Y175914D01*
Y174950D01*
X159126Y173650D01*
G01X144878Y186614D02*
Y181245D01*
X146146Y179976D01*
Y179330D01*
X144426Y177609D01*
Y174950D01*
X143126Y173650D01*
G01X150784Y186614D02*
Y181245D01*
X152052Y179976D01*
Y178378D01*
X152426Y178004D01*
Y174950D01*
X151126Y173650D01*
G01X170468Y186614D02*
Y181245D01*
X169200Y179976D01*
Y179000D01*
X169826Y178374D01*
Y174950D01*
X171126Y173650D01*
G01X148815Y186614D02*
Y181245D01*
X147546Y179976D01*
Y178750D01*
X145826Y177030D01*
Y174950D01*
X147126Y173650D01*
G01X199601Y161584D02*
X199056Y161040D01*
X194720D01*
X190800Y164960D01*
Y180680D01*
X183000Y188480D01*
Y190000D01*
X183985Y190985D01*
G01X166532Y186614D02*
Y181245D01*
X167800Y179976D01*
Y178420D01*
X168426Y177794D01*
Y174950D01*
X167126Y173650D01*
G01X154720Y186614D02*
Y181245D01*
X153452Y179976D01*
Y178958D01*
X153826Y178584D01*
Y174950D01*
X155126Y173650D01*
G01X160626Y186614D02*
Y181245D01*
X159358Y179976D01*
Y178962D01*
X161826Y176494D01*
Y174950D01*
X163126Y173650D01*
G01X199601Y159284D02*
X199245Y159640D01*
X194140D01*
X189400Y164380D01*
Y180100D01*
X181600Y187900D01*
Y189870D01*
X180485Y190985D01*
G01X204300Y89500D02*
Y84400D01*
X202650Y82750D01*
G01X194540Y81360D02*
Y90610D01*
X195240Y91310D01*
X199190D01*
X201000Y89500D01*
G01X194540Y102660D02*
Y93410D01*
X195240Y92710D01*
X199210D01*
X201000Y94500D01*
G01X213504Y90000D02*
X210088D01*
X209509Y90580D01*
X207920D01*
X207200Y91300D01*
X206100D01*
X204300Y89500D01*
G01X213504Y92559D02*
X210089D01*
X209509Y91980D01*
X208500D01*
X207780Y92700D01*
X206100D01*
X204300Y94500D01*
G01D02*
Y99600D01*
X202650Y101250D01*
G01X209193Y166394D02*
X206906D01*
X206300Y167000D01*
G01X193000Y169000D02*
X193800Y168200D01*
X196060D01*
X196920Y169060D01*
X200430D01*
X200716Y169346D01*
X202894D01*
G01X209193Y158520D02*
X206600D01*
X206580Y158500D01*
G01X202894Y161472D02*
X199713D01*
X199601Y161584D01*
G01X209193Y152614D02*
X206528D01*
X206350Y152436D01*
G01X193000Y166000D02*
X193800Y166800D01*
X196640D01*
X197500Y167660D01*
X200430D01*
X200712Y167378D01*
X202894D01*
G01X209193Y168362D02*
X207438D01*
X206300Y169500D01*
G01X202894Y151630D02*
X200660D01*
X200340Y151950D01*
X198860D01*
X197950Y151040D01*
Y142050D01*
X199000Y141000D01*
G01X209193Y160488D02*
X206812D01*
X206500Y160800D01*
G01X202894Y159504D02*
X199820D01*
X199601Y159284D01*
G01X202894Y153598D02*
X200588D01*
X200340Y153350D01*
X198280D01*
X196550Y151620D01*
Y142050D01*
X195500Y141000D01*
G01X209193Y150646D02*
X207060D01*
X206350Y149936D01*
G54D59*
X156063Y134689D03*
G54D68*
X193000Y128018D03*
Y114982D03*
G54D78*
G01X202894Y165410D02*
X204790D01*
X205310Y164890D01*
X207410D01*
X207875Y164425D01*
X209193D01*
G01X202894Y155567D02*
X204603D01*
X205690Y154480D01*
X207680D01*
X207783Y154583D01*
X209193D01*
G54D69*
X207894Y175823D03*
Y144169D03*
G54D79*
G01X202894Y155567D02*
X196767D01*
X196400Y155200D01*
G01X202894Y165410D02*
X199620D01*
X199370Y165660D01*
M02*
