G04 ================== begin FILE IDENTIFICATION RECORD ==================*
G04 Layout Name:  EVK1_BM92T30-HOST-EVK-101_BRD_REV03_2016-02-26.brd*
G04 Film Name:    PANEL*
G04 File Format:  Gerber RS274X*
G04 File Origin:  Cadence Allegro 16.6-2015-S060*
G04 Origin Date:  Fri Feb 26 09:59:31 2016*
G04 *
G04 Layer:  DRAWING FORMAT/OUTLINE*
G04 Layer:  DRAWING FORMAT/PANEL*
G04 Layer:  BOARD GEOMETRY/OUTLINE*
G04 Layer:  BOARD GEOMETRY/LOGO_OUTLINE*
G04 *
G04 Offset:    (0.000 0.000)*
G04 Mirror:    No*
G04 Mode:      Positive*
G04 Rotation:  0*
G04 FullContactRelief:  No*
G04 UndefLineWidth:     5.000*
G04 ================== end FILE IDENTIFICATION RECORD ====================*
%FSLAX55Y55*MOIN*%
%IR0*IPPOS*OFA0.00000B0.00000*MIA0B0*SFA1.00000B1.00000*%
%ADD10C,.007098*%
%ADD11C,.005*%
G75*
%LPD*%
G75*
G54D10*
G01X1002930Y-271709D02*
X1000480D01*
G01X1000550Y-269498D02*
X1000630Y-269648D01*
G01X1000500Y-268989D02*
X1000480Y-269159D01*
G01X1000500Y-269328D02*
X1000550Y-269498D01*
G01X1000480Y-269159D02*
X1000500Y-269328D01*
G01X1000560Y-268828D02*
X1000500Y-268989D01*
G01X1000650Y-268689D02*
X1000560Y-268828D01*
G01X1001200Y-270028D02*
X1001370Y-270048D01*
G01X1001030Y-269978D02*
X1001200Y-270028D01*
G01X1000880Y-269898D02*
X1001030Y-269978D01*
G01X1000740Y-269789D02*
X1000880Y-269898D01*
G01X1000630Y-269648D02*
X1000740Y-269789D01*
G01X1000770Y-268569D02*
X1000650Y-268689D01*
G01X1000910Y-268478D02*
X1000770Y-268569D01*
G01X1001070Y-268419D02*
X1000910Y-268478D01*
G01X1001240Y-268398D02*
X1001070Y-268419D01*
G01X1003790Y-268398D02*
X1001240D01*
G01X1001370Y-270059D02*
X1002990D01*
G01X1000480Y-251159D02*
X1002720Y-250828D01*
G01X1000480Y-263909D02*
Y-251159D01*
G01Y-255819D02*
X1003790D01*
G01Y-255128D02*
X1000480D01*
G01X1003790Y-253739D02*
X1000480D01*
G01Y-254428D02*
X1003790D01*
G01X1000480Y-253039D02*
X1003790D01*
G01X1004000Y-252348D02*
X1000480D01*
G01Y-251659D02*
X1012100D01*
G01X1001820Y-250959D02*
X1010390D01*
G01X1003790Y-263909D02*
X1000480D01*
G01X1003790Y-263459D02*
X1000480D01*
G01Y-262759D02*
X1003790D01*
G01X1000480Y-261369D02*
X1003790D01*
G01Y-262069D02*
X1000480D01*
G01X1003790Y-260678D02*
X1000480D01*
G01Y-259978D02*
X1003790D01*
G01Y-259289D02*
X1000480D01*
G01X1003790Y-257899D02*
X1000480D01*
G01Y-258598D02*
X1003790D01*
G01X1000480Y-257209D02*
X1003790D01*
G01Y-256509D02*
X1000480D01*
G01X1006980Y-271709D02*
X1006800Y-271689D01*
G01X1008750Y-271709D02*
X1006980D01*
G01X1003100Y-271689D02*
X1002930Y-271709D01*
G01X1003260Y-271639D02*
X1003100Y-271689D01*
G01X1003410Y-271569D02*
X1003260Y-271639D01*
G01X1003540Y-271459D02*
X1003410Y-271569D01*
G01X1003650Y-271328D02*
X1003540Y-271459D01*
G01X1003720Y-271178D02*
X1003650Y-271328D01*
G01X1003770Y-271019D02*
X1003720Y-271178D01*
G01X1006060D02*
X1005980Y-271009D01*
G01X1006170Y-271328D02*
X1006060Y-271178D01*
G01X1006300Y-271459D02*
X1006170Y-271328D01*
G01X1006450Y-271569D02*
X1006300Y-271459D01*
G01X1006620Y-271648D02*
X1006450Y-271569D01*
G01X1006800Y-271689D02*
X1006620Y-271648D01*
G01X1003790Y-270848D02*
X1003770Y-271019D01*
G01Y-270689D02*
X1003790Y-270848D01*
G01X1005940Y-270828D02*
X1005920Y-270648D01*
G01X1005980Y-271009D02*
X1005940Y-270828D01*
G01X1011110Y-268398D02*
Y-271709D01*
G01X1013200D02*
X1011660Y-268398D01*
G01X1014610D02*
X1013200Y-271709D01*
G01X1015130D02*
Y-268398D01*
G01X1017720D02*
Y-271709D01*
G01X1020470Y-271159D02*
X1020390Y-270989D01*
G01X1020580Y-271319D02*
X1020470Y-271159D01*
G01X1020710Y-271448D02*
X1020580Y-271319D01*
G01X1020860Y-271559D02*
X1020710Y-271448D01*
G01X1021040Y-271639D02*
X1020860Y-271559D01*
G01X1021220Y-271689D02*
X1021040Y-271639D01*
G01X1021410Y-271709D02*
X1021220Y-271689D01*
G01X1023160Y-271709D02*
X1021410D01*
G01X1025920Y-271539D02*
X1026130Y-271628D01*
G01X1025740Y-271409D02*
X1025920Y-271539D01*
G01X1025580Y-271248D02*
X1025740Y-271409D01*
G01X1025450Y-271059D02*
X1025580Y-271248D01*
G01X1026570Y-271709D02*
X1027270D01*
G01X1026350Y-271689D02*
X1026570Y-271709D01*
G01X1026130Y-271628D02*
X1026350Y-271689D01*
G01X1027870Y-271569D02*
X1028050Y-271459D01*
G01X1027680Y-271648D02*
X1027870Y-271569D01*
G01X1027480Y-271689D02*
X1027680Y-271648D01*
G01X1027270Y-271709D02*
X1027480Y-271689D01*
G01X1028340Y-271169D02*
X1028450Y-270989D01*
G01X1028200Y-271319D02*
X1028340Y-271169D01*
G01X1028050Y-271459D02*
X1028200Y-271319D01*
G01X1030950Y-268398D02*
Y-271709D01*
G01X1033710D02*
X1031430Y-268398D01*
G01X1034260Y-271709D02*
X1033710D01*
G01X1034260Y-268398D02*
Y-271709D01*
G01X1036620D02*
Y-268398D01*
G01X1038380Y-271709D02*
X1036620D01*
G01X1038580Y-271689D02*
X1038380Y-271709D01*
G01X1038780Y-271648D02*
X1038580Y-271689D01*
G01X1038970Y-271569D02*
X1038780Y-271648D01*
G01X1039150Y-271459D02*
X1038970Y-271569D01*
G01X1039310Y-271328D02*
X1039150Y-271459D01*
G01X1039440Y-271169D02*
X1039310Y-271328D01*
G01X1039550Y-270989D02*
X1039440Y-271169D01*
G01X1042340Y-271269D02*
X1042220Y-271089D01*
G01X1042490Y-271419D02*
X1042340Y-271269D01*
G01X1042670Y-271539D02*
X1042490Y-271419D01*
G01X1042870Y-271639D02*
X1042670Y-271539D01*
G01X1043070Y-271689D02*
X1042870Y-271639D01*
G01X1043290Y-271709D02*
X1043070Y-271689D01*
G01X1043810Y-271709D02*
X1043290D01*
G01X1044040Y-271689D02*
X1043810Y-271709D01*
G01X1044260Y-271628D02*
X1044040Y-271689D01*
G01X1044470Y-271528D02*
X1044260Y-271628D01*
G01X1044650Y-271398D02*
X1044470Y-271528D01*
G01X1044810Y-271239D02*
X1044650Y-271398D01*
G01X1044940Y-271048D02*
X1044810Y-271239D01*
G01X1020390Y-270989D02*
X1020340Y-270809D01*
G01X1025360Y-270859D02*
X1025450Y-271059D01*
G01X1025300Y-270639D02*
X1025360Y-270859D01*
G01X1028530Y-270799D02*
X1028570Y-270598D01*
G01X1028450Y-270989D02*
X1028530Y-270799D01*
G01X1039630D02*
X1039550Y-270989D01*
G01X1039670Y-270598D02*
X1039630Y-270799D01*
G01X1042120Y-270889D02*
X1042070Y-270689D01*
G01X1042220Y-271089D02*
X1042120Y-270889D01*
G01X1045040Y-270848D02*
X1044940Y-271048D01*
G01X1045100Y-270628D02*
X1045040Y-270848D01*
G01X1006940Y-268398D02*
X1006740Y-268419D01*
G01X1008750Y-268398D02*
X1006940D01*
G01X1002990Y-270048D02*
X1003150Y-270069D01*
G01X1003730Y-270539D02*
X1003770Y-270689D01*
G01X1003660Y-270409D02*
X1003730Y-270539D01*
G01X1003560Y-270278D02*
X1003660Y-270409D01*
G01X1003430Y-270178D02*
X1003560Y-270278D01*
G01X1003300Y-270109D02*
X1003430Y-270178D01*
G01X1003150Y-270069D02*
X1003300Y-270109D01*
G01X1005910Y-269419D02*
Y-270059D01*
G01D02*
X1008750D01*
G01X1005910Y-270648D02*
Y-270059D01*
G01X1005940Y-269219D02*
X1005920Y-269419D01*
G01X1006000Y-269028D02*
X1005940Y-269219D01*
G01X1006090Y-268848D02*
X1006000Y-269028D01*
G01X1006220Y-268699D02*
X1006090Y-268848D01*
G01X1006370Y-268569D02*
X1006220Y-268699D01*
G01X1006550Y-268478D02*
X1006370Y-268569D01*
G01X1006740Y-268419D02*
X1006550Y-268478D01*
G01X1010360Y-263909D02*
X1005910Y-258719D01*
G01X1002720Y-250828D02*
X1004970Y-250689D01*
G01X1003790Y-252878D02*
Y-263909D01*
G01X1003810Y-252678D02*
X1003790Y-252878D01*
G01X1003890Y-252489D02*
X1003810Y-252678D01*
G01X1004010Y-252328D02*
X1003890Y-252489D01*
G01X1004180Y-252209D02*
X1004010Y-252328D01*
G01X1004360Y-252128D02*
X1004180Y-252209D01*
G01X1004560Y-252098D02*
X1004360Y-252128D01*
G01X1007410Y-252098D02*
X1004560D01*
G01X1004970Y-250689D02*
X1008000D01*
G01X1008100Y-252128D02*
X1007410Y-252098D01*
G01X1008780Y-252289D02*
X1008100Y-252128D01*
G01X1008000Y-250689D02*
X1009670Y-250809D01*
G01X1009420Y-252578D02*
X1008780Y-252289D01*
G01X1007000Y-259978D02*
X1010440D01*
G01X1009810Y-259289D02*
X1006400D01*
G01X1005910Y-258598D02*
X1009570D01*
G01X1012050Y-257899D02*
X1005910D01*
G01Y-258719D02*
Y-257298D01*
G01D02*
X1007690D01*
G01X1011080Y-260678D02*
X1007590D01*
G01X1007690Y-257298D02*
X1008270Y-257259D01*
G01X1008190Y-261369D02*
X1011710D01*
G01X1008460Y-257209D02*
X1012800D01*
G01X1008830Y-257109D02*
X1009350Y-256839D01*
G01X1008270Y-257259D02*
X1008830Y-257109D01*
G01X1011660Y-268398D02*
X1011110D01*
G01X1015130D02*
X1014610D01*
G01X1020340Y-270809D02*
X1020320Y-270619D01*
G01D02*
Y-269489D01*
G01X1020500Y-268878D02*
X1020640Y-268719D01*
G01X1020400Y-269069D02*
X1020500Y-268878D01*
G01X1020340Y-269278D02*
X1020400Y-269069D01*
G01X1020320Y-269489D02*
X1020340Y-269278D01*
G01X1020800Y-268578D02*
X1020990Y-268478D01*
G01X1020640Y-268719D02*
X1020800Y-268578D01*
G01X1020990Y-268478D02*
X1021200Y-268419D01*
G01X1021410Y-268398D02*
X1023160D01*
G01X1021200Y-268419D02*
X1021410Y-268398D01*
G01X1009570Y-259028D02*
X1014020Y-263909D01*
G01X1012770Y-252348D02*
X1008910D01*
G01X1009810Y-256469D02*
X1010000Y-256069D01*
G01X1009830Y-253039D02*
X1013140D01*
G01X1009730Y-252889D02*
X1009420Y-252578D01*
G01X1009960Y-253259D02*
X1009730Y-252889D01*
G01X1009670Y-250809D02*
X1011310Y-251159D01*
G01X1010070Y-255819D02*
X1013230D01*
G01X1010120Y-255649D02*
X1010170Y-255209D01*
G01X1010000Y-256069D02*
X1010120Y-255649D01*
G01X1013240Y-255128D02*
X1010170D01*
G01Y-255209D02*
Y-254109D01*
G01Y-254428D02*
X1013240D01*
G01Y-253739D02*
X1010120D01*
G01X1010110Y-253669D02*
X1009960Y-253259D01*
G01X1010170Y-254109D02*
X1010110Y-253669D01*
G01X1011310Y-251159D02*
X1011860Y-251459D01*
G01X1012350Y-251859D02*
X1012760Y-252339D01*
G01X1011860Y-251459D02*
X1012350Y-251859D01*
G01X1013240Y-255759D02*
X1013200Y-256239D01*
G01X1013240Y-253759D02*
Y-255759D01*
G01X1013220Y-253378D02*
X1013240Y-253759D01*
G01X1013130Y-252999D02*
X1013220Y-253378D01*
G01X1012980Y-252648D02*
X1013130Y-252999D01*
G01X1012760Y-252339D02*
X1012980Y-252648D01*
G01X1016310Y-254069D02*
Y-256828D01*
G01Y-255819D02*
X1019380D01*
G01Y-255128D02*
X1016310D01*
G01Y-254428D02*
X1019380D01*
G01X1019490Y-253739D02*
X1016340D01*
G01X1016350Y-253589D02*
X1016310Y-254069D01*
G01X1016530Y-253039D02*
X1019910D01*
G01X1016710Y-252709D02*
X1016480Y-253128D01*
G01D02*
X1016350Y-253589D01*
G01X1017000Y-252328D02*
X1016710Y-252709D01*
G01X1020840Y-252348D02*
X1016990D01*
G01X1017370Y-252019D02*
X1017000Y-252328D01*
G01X1018000Y-251509D02*
X1017370Y-252019D01*
G01X1017820Y-251659D02*
X1027700D01*
G01X1018710Y-251119D02*
X1018000Y-251509D01*
G01X1019470Y-250859D02*
X1018710Y-251119D01*
G01X1026130Y-250959D02*
X1019180D01*
G01X1019380Y-256828D02*
Y-254389D01*
G01X1019540Y-253589D02*
X1019740Y-253239D01*
G01X1019420Y-253978D02*
X1019540Y-253589D01*
G01X1019380Y-254389D02*
X1019420Y-253978D01*
G01X1019740Y-253239D02*
X1020010Y-252928D01*
G01D02*
X1020440Y-252559D01*
G01X1020270Y-250719D02*
X1019470Y-250859D01*
G01X1020940Y-252289D02*
X1021490Y-252139D01*
G01X1020440Y-252559D02*
X1020940Y-252289D01*
G01X1021070Y-250689D02*
X1020270Y-250719D01*
G01X1021490Y-252139D02*
X1022060Y-252098D01*
G01X1024180Y-250689D02*
X1021070D01*
G01X1022060Y-252098D02*
X1023510D01*
G01X1024050Y-252128D02*
X1024570Y-252259D01*
G01X1023510Y-252098D02*
X1024050Y-252128D01*
G01X1025040Y-250719D02*
X1024180Y-250689D01*
G01X1028540Y-252348D02*
X1024760D01*
G01X1025050Y-252489D02*
X1025480Y-252809D01*
G01X1024570Y-252259D02*
X1025050Y-252489D01*
G01X1025890Y-250878D02*
X1025040Y-250719D01*
G01X1014020Y-263909D02*
X1010360D01*
G01X1019340Y-263678D02*
X1020360Y-263848D01*
G01D02*
X1021390Y-263909D01*
G01D02*
X1024140D01*
G01D02*
X1025050Y-263878D01*
G01D02*
X1025950Y-263739D01*
G01X1012340Y-262069D02*
X1008780D01*
G01X1009380Y-262759D02*
X1012970D01*
G01X1009570Y-258519D02*
Y-259028D01*
G01X1010270Y-258509D02*
X1009570Y-258519D01*
G01X1013130Y-256509D02*
X1009760D01*
G01X1009350Y-256839D02*
X1009810Y-256469D01*
G01X1013610Y-263459D02*
X1009970D01*
G01X1010950Y-258389D02*
X1010270Y-258509D01*
G01X1011610Y-258149D02*
X1010950Y-258389D01*
G01X1012210Y-257809D02*
X1011610Y-258149D01*
G01X1012570Y-257499D02*
X1012210Y-257809D01*
G01X1012860Y-257119D02*
X1012570Y-257499D01*
G01X1013080Y-256699D02*
X1012860Y-257119D01*
G01X1013200Y-256239D02*
X1013080Y-256699D01*
G01X1016380Y-261369D02*
X1019800D01*
G01X1016710Y-262148D02*
X1017020Y-262519D01*
G01X1016480Y-261719D02*
X1016710Y-262148D01*
G01X1016340Y-261249D02*
X1016480Y-261719D01*
G01X1019470Y-260678D02*
X1016310D01*
G01Y-260759D02*
X1016340Y-261249D01*
G01X1016310Y-256828D02*
Y-260759D01*
G01Y-259978D02*
X1019380D01*
G01Y-259289D02*
X1016310D01*
G01Y-258598D02*
X1019380D01*
G01Y-257899D02*
X1016310D01*
G01Y-257209D02*
X1019380D01*
G01Y-256509D02*
X1016310D01*
G01X1019380Y-256828D02*
X1016310D01*
G01D02*
X1019380D01*
G01X1017340Y-262759D02*
X1028030D01*
G01X1017410Y-262809D02*
X1018010Y-263189D01*
G01X1017020Y-262519D02*
X1017410Y-262809D01*
G01X1020540Y-262069D02*
X1016660D01*
G01X1018010Y-263189D02*
X1018660Y-263478D01*
G01X1018600Y-263459D02*
X1026870D01*
G01X1018660Y-263478D02*
X1019340Y-263678D01*
G01X1019820Y-261398D02*
X1019560Y-260978D01*
G01X1020170Y-261749D02*
X1019820Y-261398D01*
G01X1020530Y-262069D02*
X1020170Y-261749D01*
G01X1019410Y-260509D02*
X1019380Y-260019D01*
G01X1019560Y-260978D02*
X1019410Y-260509D01*
G01X1019380Y-260019D02*
Y-256828D01*
G01X1021420Y-262449D02*
X1020950Y-262299D01*
G01D02*
X1020530Y-262069D01*
G01X1021900Y-262498D02*
X1021420Y-262449D01*
G01X1023510Y-262498D02*
X1021900D01*
G01X1024110Y-262459D02*
X1023510Y-262498D01*
G01X1024680Y-262299D02*
X1024110Y-262459D01*
G01X1025210Y-262039D02*
X1024680Y-262299D01*
G01X1025680Y-261669D02*
X1025210Y-262039D01*
G01X1025280Y-270419D02*
X1025300Y-270639D01*
G01X1025280Y-269669D02*
Y-270419D01*
G01X1025300Y-269448D02*
X1025280Y-269669D01*
G01X1025360Y-269239D02*
X1025300Y-269448D01*
G01X1025450Y-269028D02*
X1025360Y-269239D01*
G01X1025580Y-268848D02*
X1025450Y-269028D01*
G01X1025730Y-268699D02*
X1025580Y-268848D01*
G01X1025920Y-268569D02*
X1025730Y-268699D01*
G01X1026120Y-268478D02*
X1025920Y-268569D01*
G01X1026330Y-268419D02*
X1026120Y-268478D01*
G01X1026550Y-268398D02*
X1026330Y-268419D01*
G01X1027290Y-268398D02*
X1026550D01*
G01X1027520Y-268419D02*
X1027290Y-268398D01*
G01X1027730Y-268478D02*
X1027520Y-268419D01*
G01X1027940Y-268569D02*
X1027730Y-268478D01*
G01X1028570Y-270598D02*
X1028590Y-270389D01*
G01D02*
Y-269698D01*
G01X1028420Y-269048D02*
X1028290Y-268859D01*
G01X1028510Y-269259D02*
X1028420Y-269048D01*
G01X1028570Y-269469D02*
X1028510Y-269259D01*
G01X1028590Y-269698D02*
X1028570Y-269469D01*
G01X1028130Y-268699D02*
X1027940Y-268569D01*
G01X1028290Y-268859D02*
X1028130Y-268699D01*
G01X1031430Y-268398D02*
X1030950D01*
G01X1036620D02*
X1038400D01*
G01X1038840Y-268478D02*
X1039050Y-268569D01*
G01X1038620Y-268419D02*
X1038840Y-268478D01*
G01X1038400Y-268398D02*
X1038620Y-268419D01*
G01X1039690Y-270399D02*
X1039670Y-270598D01*
G01X1039690Y-269689D02*
Y-270399D01*
G01X1039670Y-269469D02*
X1039690Y-269689D01*
G01X1039610Y-269248D02*
X1039670Y-269469D01*
G01X1039520Y-269039D02*
X1039610Y-269248D01*
G01X1039390Y-268859D02*
X1039520Y-269039D01*
G01X1039230Y-268699D02*
X1039390Y-268859D01*
G01X1039050Y-268569D02*
X1039230Y-268699D01*
G01X1042070Y-270689D02*
X1042050Y-270469D01*
G01X1042060D02*
Y-268398D01*
G01X1045120Y-270399D02*
X1045100Y-270628D01*
G01X1045130Y-268398D02*
Y-270399D01*
G01X1025730Y-253039D02*
X1029010D01*
G01X1026050Y-253478D02*
X1026190Y-253899D01*
G01X1025810Y-253109D02*
X1026050Y-253478D01*
G01X1025480Y-252809D02*
X1025810Y-253109D01*
G01X1026700Y-251159D02*
X1025890Y-250878D01*
G01X1026230Y-254348D02*
Y-260019D01*
G01Y-255819D02*
X1029300D01*
G01Y-255128D02*
X1026230D01*
G01X1029250Y-253739D02*
X1026140D01*
G01X1026230Y-254428D02*
X1029300D01*
G01X1026190Y-253899D02*
X1026230Y-254348D01*
G01X1027330Y-251428D02*
X1026700Y-251159D01*
G01X1027910Y-251778D02*
X1027330Y-251428D01*
G01X1028430Y-252219D02*
X1027910Y-251778D01*
G01X1028810Y-252669D02*
X1028430Y-252219D01*
G01X1029300Y-260489D02*
Y-254348D01*
G01X1029250Y-253759D02*
X1029090Y-253189D01*
G01X1029300Y-254348D02*
X1029250Y-253759D01*
G01X1029090Y-253189D02*
X1028810Y-252669D01*
G01X1032610Y-251159D02*
Y-263909D01*
G01Y-255819D02*
X1035970D01*
G01X1035910Y-255128D02*
X1032610D01*
G01Y-254428D02*
X1035910D01*
G01Y-253739D02*
X1032610D01*
G01Y-253039D02*
X1035910D01*
G01Y-252348D02*
X1032610D01*
G01X1035910Y-251159D02*
X1032610D01*
G01Y-251659D02*
X1035910D01*
G01Y-255548D02*
Y-251159D01*
G01X1035940Y-255759D02*
X1035910Y-255548D01*
G01X1036020Y-255948D02*
X1035940Y-255759D01*
G01X1036150Y-256119D02*
X1036020Y-255948D01*
G01X1036320Y-256248D02*
X1036150Y-256119D01*
G01X1042770Y-256128D02*
X1042610Y-256248D01*
G01X1042890Y-255959D02*
X1042770Y-256128D01*
G01X1042950Y-255819D02*
X1046310D01*
G01X1042970Y-255769D02*
X1042890Y-255959D01*
G01X1043000Y-255569D02*
X1042970Y-255769D01*
G01X1043000Y-251159D02*
Y-255569D01*
G01X1046310Y-255128D02*
X1043000D01*
G01X1046310Y-253739D02*
X1043000D01*
G01Y-254428D02*
X1046310D01*
G01X1043000Y-253039D02*
X1046310D01*
G01Y-252348D02*
X1043000D01*
G01Y-251659D02*
X1046310D01*
G01Y-251159D02*
X1043000D01*
G01X1028740Y-262069D02*
X1025150D01*
G01X1025950Y-263739D02*
X1026820Y-263478D01*
G01X1025850Y-261369D02*
X1029130D01*
G01X1025980Y-261159D02*
X1025680Y-261669D01*
G01X1026170Y-260598D02*
X1025980Y-261159D01*
G01X1026820Y-263478D02*
X1027400Y-263209D01*
G01X1029280Y-260678D02*
X1026140D01*
G01X1026230Y-260019D02*
X1026170Y-260598D01*
G01X1026230Y-259978D02*
X1029300D01*
G01Y-259289D02*
X1026230D01*
G01X1029300Y-257899D02*
X1026230D01*
G01Y-258598D02*
X1029300D01*
G01X1026230Y-257209D02*
X1029300D01*
G01Y-256509D02*
X1026230D01*
G01X1027400Y-263209D02*
X1027930Y-262859D01*
G01X1028390Y-262419D02*
X1028780Y-262028D01*
G01X1027930Y-262859D02*
X1028390Y-262419D01*
G01X1028780Y-262028D02*
X1029070Y-261559D01*
G01D02*
X1029250Y-261039D01*
G01D02*
X1029300Y-260489D01*
G01X1032610Y-263909D02*
X1035910D01*
G01X1043000D02*
X1046310D01*
G01X1032610Y-263459D02*
X1035910D01*
G01Y-262759D02*
X1032610D01*
G01Y-262069D02*
X1035910D01*
G01Y-261369D02*
X1032610D01*
G01Y-260678D02*
X1035910D01*
G01Y-259978D02*
X1032610D01*
G01Y-259289D02*
X1035910D01*
G01X1032610Y-257899D02*
X1046310D01*
G01X1035940Y-258598D02*
X1032610D01*
G01X1046310Y-257209D02*
X1032610D01*
G01Y-256509D02*
X1046310D01*
G01X1035910Y-263909D02*
Y-258789D01*
G01D02*
X1035940Y-258589D01*
G01X1036140Y-258239D02*
X1036300Y-258109D01*
G01X1036020Y-258399D02*
X1036140Y-258239D01*
G01X1035940Y-258589D02*
X1036020Y-258399D01*
G01X1036300Y-258109D02*
X1036490Y-258028D01*
G01X1036510Y-256328D02*
X1036320Y-256248D01*
G01X1036690Y-258009D02*
X1042170D01*
G01X1036490Y-258028D02*
X1036690Y-258009D01*
G01X1036720Y-256348D02*
X1036510Y-256328D01*
G01X1042220Y-256348D02*
X1036720D01*
G01X1042170Y-258009D02*
X1042380Y-258039D01*
G01X1042420Y-256328D02*
X1042220Y-256348D01*
G01X1043000Y-258839D02*
Y-263909D01*
G01Y-263459D02*
X1046310D01*
G01Y-262759D02*
X1043000D01*
G01X1046310Y-261369D02*
X1043000D01*
G01Y-262069D02*
X1046310D01*
G01X1043000Y-260678D02*
X1046310D01*
G01Y-259978D02*
X1043000D01*
G01Y-259289D02*
X1046310D01*
G01X1042970Y-258619D02*
X1043000Y-258839D01*
G01X1046310Y-258598D02*
X1042960D01*
G01X1042890Y-258419D02*
X1042970Y-258619D01*
G01X1042760Y-258248D02*
X1042890Y-258419D01*
G01X1042590Y-258119D02*
X1042760Y-258248D01*
G01X1042380Y-258039D02*
X1042590Y-258119D01*
G01X1042610Y-256248D02*
X1042420Y-256328D01*
G01X1047390Y-271169D02*
X1047310Y-271009D01*
G01X1047500Y-271328D02*
X1047390Y-271169D01*
G01X1047630Y-271459D02*
X1047500Y-271328D01*
G01X1047780Y-271569D02*
X1047630Y-271459D01*
G01X1047950Y-271648D02*
X1047780Y-271569D01*
G01X1048130Y-271689D02*
X1047950Y-271648D01*
G01X1048320Y-271709D02*
X1048130Y-271689D01*
G01X1050090Y-271709D02*
X1048320D01*
G01X1053390Y-268398D02*
Y-271709D01*
G01X1047270Y-270828D02*
X1047250Y-270639D01*
G01X1047310Y-271009D02*
X1047270Y-270828D01*
G01X1057660Y-271569D02*
X1057850Y-271648D01*
G01X1057480Y-271459D02*
X1057660Y-271569D01*
G01X1057320Y-271328D02*
X1057480Y-271459D01*
G01X1057190Y-271169D02*
X1057320Y-271328D01*
G01X1057080Y-270989D02*
X1057190Y-271169D01*
G01X1058250Y-271709D02*
X1058940D01*
G01X1058050Y-271689D02*
X1058250Y-271709D01*
G01X1057850Y-271648D02*
X1058050Y-271689D01*
G01X1059380Y-271628D02*
X1059590Y-271539D01*
G01X1059170Y-271689D02*
X1059380Y-271628D01*
G01X1058940Y-271709D02*
X1059170Y-271689D01*
G01X1059940Y-271248D02*
X1060070Y-271059D01*
G01X1059780Y-271409D02*
X1059940Y-271248D01*
G01X1059590Y-271539D02*
X1059780Y-271409D01*
G01X1062370Y-270059D02*
Y-271709D01*
G01X1065200D02*
X1064300Y-270059D01*
G01X1057000Y-270799D02*
X1057080Y-270989D01*
G01X1056960Y-270598D02*
X1057000Y-270799D01*
G01X1060160Y-270848D02*
X1060220Y-270639D01*
G01X1060070Y-271059D02*
X1060160Y-270848D01*
G01X1047250Y-270639D02*
Y-269439D01*
G01X1047270Y-269259D02*
X1047310Y-269078D01*
G01X1047250Y-269439D02*
X1047270Y-269259D01*
G01X1047490Y-268769D02*
X1047620Y-268639D01*
G01X1047390Y-268919D02*
X1047490Y-268769D01*
G01X1047310Y-269078D02*
X1047390Y-268919D01*
G01X1048110Y-268419D02*
X1048290Y-268398D01*
G01X1047930Y-268459D02*
X1048110Y-268419D01*
G01X1047770Y-268539D02*
X1047930Y-268459D01*
G01X1047620Y-268639D02*
X1047770Y-268539D01*
G01X1048290Y-268398D02*
X1050090D01*
G01X1046310Y-263909D02*
Y-251159D01*
G01X1049850D02*
Y-263909D01*
G01Y-255819D02*
X1052920D01*
G01Y-255128D02*
X1049850D01*
G01X1052920Y-253739D02*
X1049850D01*
G01Y-254428D02*
X1052920D01*
G01X1049850Y-253039D02*
X1052940D01*
G01X1053670Y-252348D02*
X1049850D01*
G01X1052790Y-250778D02*
X1049850Y-251159D01*
G01Y-251659D02*
X1064130D01*
G01X1049850Y-263909D02*
X1052920D01*
G01Y-263459D02*
X1049850D01*
G01Y-262759D02*
X1052920D01*
G01X1049850Y-261369D02*
X1052920D01*
G01Y-262069D02*
X1049850D01*
G01X1052920Y-260678D02*
X1049850D01*
G01Y-259978D02*
X1052920D01*
G01Y-259289D02*
X1049850D01*
G01X1052920Y-257899D02*
X1049850D01*
G01Y-258598D02*
X1052920D01*
G01X1049850Y-257209D02*
X1052920D01*
G01Y-256509D02*
X1049850D01*
G01X1051980Y-268398D02*
X1053390D01*
G01X1054810D02*
X1053390D01*
G01X1051400Y-250959D02*
X1062550D01*
G01X1052920Y-263909D02*
Y-253169D01*
G01X1053030Y-252748D02*
X1053160Y-252578D01*
G01X1052950Y-252949D02*
X1053030Y-252748D01*
G01X1052920Y-253169D02*
X1052950Y-252949D01*
G01X1053340Y-252449D02*
X1053530Y-252369D01*
G01X1053160Y-252578D02*
X1053340Y-252449D01*
G01X1055760Y-250689D02*
X1052790Y-250778D01*
G01X1053750Y-252339D02*
X1055190D01*
G01X1053530Y-252369D02*
X1053750Y-252339D01*
G01X1057390Y-268699D02*
X1057230Y-268859D01*
G01X1057580Y-268569D02*
X1057390Y-268699D01*
G01X1057780Y-268478D02*
X1057580Y-268569D01*
G01X1056940Y-270399D02*
X1056960Y-270598D01*
G01X1056940Y-269689D02*
Y-270399D01*
G01X1056950Y-269469D02*
X1056930Y-269689D01*
G01X1057010Y-269248D02*
X1056950Y-269469D01*
G01X1057100Y-269039D02*
X1057010Y-269248D01*
G01X1057230Y-268859D02*
X1057100Y-269039D01*
G01X1058000Y-268419D02*
X1057780Y-268478D01*
G01X1058220Y-268398D02*
X1058000Y-268419D01*
G01X1058960Y-268398D02*
X1058220D01*
G01X1059180Y-268419D02*
X1058960Y-268398D01*
G01X1059400Y-268478D02*
X1059180Y-268419D01*
G01X1059600Y-268569D02*
X1059400Y-268478D01*
G01X1059780Y-268699D02*
X1059600Y-268569D01*
G01X1059940Y-268859D02*
X1059780Y-268699D01*
G01X1060070Y-269039D02*
X1059940Y-268859D01*
G01X1060160Y-269239D02*
X1060070Y-269039D01*
G01X1060220Y-269459D02*
X1060160Y-269239D01*
G01X1060220Y-270639D02*
X1060240Y-270409D01*
G01D02*
Y-269678D01*
G01D02*
X1060220Y-269459D01*
G01X1062370Y-268398D02*
Y-270059D01*
G01X1064300D02*
X1062370D01*
G01Y-268398D02*
X1064640D01*
G01X1064580Y-270059D02*
X1064300D01*
G01X1064750Y-270039D02*
X1064580Y-270059D01*
G01X1064910Y-269989D02*
X1064750Y-270039D01*
G01X1065060Y-269919D02*
X1064910Y-269989D01*
G01X1065190Y-269809D02*
X1065060Y-269919D01*
G01X1065300Y-269678D02*
X1065190Y-269809D01*
G01X1065370Y-269528D02*
X1065300Y-269678D01*
G01X1065420Y-269369D02*
X1065370Y-269528D01*
G01X1065310Y-268759D02*
X1065380Y-268889D01*
G01X1065210Y-268628D02*
X1065310Y-268759D01*
G01X1065080Y-268528D02*
X1065210Y-268628D01*
G01X1064950Y-268459D02*
X1065080Y-268528D01*
G01X1064800Y-268419D02*
X1064950Y-268459D01*
G01X1064640Y-268398D02*
X1064800Y-268419D01*
G01X1065440Y-269199D02*
X1065420Y-269369D01*
G01Y-269039D02*
X1065440Y-269199D01*
G01X1065380Y-268889D02*
X1065420Y-269039D01*
G01X1060030Y-252348D02*
X1055270D01*
G01X1055880Y-252739D02*
X1055970Y-252928D01*
G01X1055760Y-252569D02*
X1055880Y-252739D01*
G01X1055590Y-252449D02*
X1055760Y-252569D01*
G01X1055400Y-252369D02*
X1055590Y-252449D01*
G01X1055190Y-252339D02*
X1055400Y-252369D01*
G01X1060090Y-250689D02*
X1055760D01*
G01X1055990Y-253139D02*
Y-263909D01*
G01Y-255819D02*
X1059300D01*
G01Y-255128D02*
X1055990D01*
G01Y-254428D02*
X1059300D01*
G01Y-253739D02*
X1055990D01*
G01X1055980Y-253039D02*
X1059310D01*
G01X1055970Y-252928D02*
X1055990Y-253139D01*
G01X1059300Y-263909D02*
Y-253148D01*
G01X1059330Y-252939D02*
X1059410Y-252739D01*
G01X1059300Y-253148D02*
X1059330Y-252939D01*
G01X1059410Y-252739D02*
X1059540Y-252578D01*
G01X1060110Y-252339D02*
X1060870D01*
G01X1059900Y-252369D02*
X1060110Y-252339D01*
G01X1059710Y-252449D02*
X1059900Y-252369D01*
G01X1059540Y-252578D02*
X1059710Y-252449D01*
G01X1061250Y-250748D02*
X1060090Y-250689D01*
G01X1064910Y-252348D02*
X1060950D01*
G01X1060870Y-252339D02*
X1061380Y-252409D01*
G01X1061860Y-252578D02*
X1062080Y-252778D01*
G01X1061380Y-252409D02*
X1061860Y-252578D01*
G01X1062410Y-250919D02*
X1061250Y-250748D01*
G01X1062370Y-253599D02*
Y-263909D01*
G01Y-255819D02*
X1065440D01*
G01Y-255128D02*
X1062370D01*
G01Y-254428D02*
X1065440D01*
G01X1065420Y-253739D02*
X1062370D01*
G01X1062340Y-253298D02*
X1062370Y-253599D01*
G01X1062250Y-253039D02*
X1065280D01*
G01X1062240Y-253019D02*
X1062340Y-253298D01*
G01X1062080Y-252778D02*
X1062240Y-253019D01*
G01X1063190Y-251139D02*
X1062410Y-250919D01*
G01X1063920Y-251499D02*
X1063190Y-251139D01*
G01X1064570Y-251978D02*
X1063920Y-251499D01*
G01X1064950Y-252389D02*
X1064570Y-251978D01*
G01X1065230Y-252869D02*
X1064950Y-252389D01*
G01X1065390Y-253399D02*
X1065230Y-252869D01*
G01X1065440Y-263909D02*
Y-253948D01*
G01D02*
X1065390Y-253399D01*
G01X1055990Y-263909D02*
X1059300D01*
G01Y-263459D02*
X1055990D01*
G01Y-262759D02*
X1059300D01*
G01Y-262069D02*
X1055990D01*
G01Y-261369D02*
X1059300D01*
G01Y-260678D02*
X1055990D01*
G01Y-259978D02*
X1059300D01*
G01Y-259289D02*
X1055990D01*
G01Y-258598D02*
X1059300D01*
G01Y-257899D02*
X1055990D01*
G01Y-257209D02*
X1059300D01*
G01Y-256509D02*
X1055990D01*
G01X1062370Y-263909D02*
X1065440D01*
G01Y-263459D02*
X1062370D01*
G01Y-262759D02*
X1065440D01*
G01Y-262069D02*
X1062370D01*
G01Y-261369D02*
X1065440D01*
G01Y-260678D02*
X1062370D01*
G01Y-259978D02*
X1065440D01*
G01Y-259289D02*
X1062370D01*
G01Y-258598D02*
X1065440D01*
G01Y-257899D02*
X1062370D01*
G01Y-257209D02*
X1065440D01*
G01Y-256509D02*
X1062370D01*
G54D11*
G01X1553000Y1330431D02*
X-647000D01*
Y-359569D01*
G01Y-369569D02*
X1553000D01*
Y1330431D01*
G01X-647000Y-359569D02*
Y-369569D01*
G01X-625425Y-139569D02*
X-617550Y-114569D01*
X-609675Y-139569D01*
G01X-612510Y-130819D02*
X-622590D01*
G01X-597000Y60431D02*
X-627000D01*
G01X-615030Y233765D02*
X-613770Y235015D01*
X-612825Y237098D01*
X-612195Y240015D01*
X-612825Y242515D01*
X-614085Y244181D01*
X-616290Y245431D01*
X-624795D01*
Y220431D01*
X-614400D01*
X-612195Y222098D01*
X-610935Y224598D01*
X-610305Y227515D01*
X-610935Y230431D01*
X-612825Y232931D01*
X-615030Y233765D01*
X-624795D01*
G01X-597000Y490431D02*
X-627000D01*
G01X-610620Y643348D02*
X-612510Y644598D01*
X-614715Y645431D01*
X-617235D01*
X-620070Y644181D01*
X-622275Y642098D01*
X-623850Y639598D01*
X-625110Y635431D01*
X-625425Y631681D01*
X-624795Y627931D01*
X-623850Y625431D01*
X-621960Y622931D01*
X-619755Y621265D01*
X-617550Y620431D01*
X-615345D01*
X-613140Y621265D01*
X-611250Y622514D01*
X-609675Y624181D01*
G01X-597000Y920431D02*
X-627000D01*
G01X-624480Y1100431D02*
Y1125431D01*
X-618180D01*
X-615660Y1124181D01*
X-613770Y1122515D01*
X-612195Y1120015D01*
X-610935Y1117098D01*
X-610620Y1112931D01*
X-610935Y1108764D01*
X-612195Y1105848D01*
X-613770Y1103347D01*
X-615660Y1101681D01*
X-618180Y1100431D01*
X-624480D01*
G01X-597000Y1260431D02*
Y-299569D01*
X-537000D01*
G01X-567000Y1260431D02*
X-377000D01*
G01X-597000D02*
X-547000D01*
G01X-537000Y-299569D02*
X983000D01*
G01X-373770Y-349569D02*
Y-324569D01*
X-385425Y-342485D01*
X-369675D01*
G01X-373770Y1280431D02*
Y1305431D01*
X-385425Y1287515D01*
X-369675D01*
G01X-377000Y1260431D02*
X1493000D01*
G01X-107000Y-299569D02*
Y-349569D01*
G01Y1260431D02*
Y1310431D01*
G01X0Y205000D02*
Y0D01*
G01D02*
X215000D01*
G01Y205000D02*
X0D01*
G01X155520Y-344569D02*
X157410Y-347486D01*
X159930Y-349152D01*
X162765Y-349569D01*
X165285Y-349152D01*
X167805Y-347069D01*
X169380Y-344569D01*
X169695Y-342069D01*
X169065Y-339153D01*
X166860Y-337069D01*
X164655Y-336235D01*
X161820D01*
G01X164655D02*
X166545Y-334985D01*
X168120Y-332902D01*
X168750Y-330402D01*
X168120Y-327902D01*
X166545Y-325819D01*
X163710Y-324569D01*
X160875Y-324985D01*
X158040Y-326652D01*
G01X155520Y1285431D02*
X157410Y1282514D01*
X159930Y1280848D01*
X162765Y1280431D01*
X165285Y1280848D01*
X167805Y1282931D01*
X169380Y1285431D01*
X169695Y1287931D01*
X169065Y1290847D01*
X166860Y1292931D01*
X164655Y1293765D01*
X161820D01*
G01X164655D02*
X166545Y1295015D01*
X168120Y1297098D01*
X168750Y1299598D01*
X168120Y1302098D01*
X166545Y1304181D01*
X163710Y1305431D01*
X160875Y1305015D01*
X158040Y1303348D01*
G01X215000Y0D02*
Y106496D01*
G01X194331D02*
G03X198268I1968J0D01*
G01X215000D02*
X198268D01*
G01X194331D02*
Y143504D01*
G01X198268D02*
X215000D01*
G01D02*
Y205000D01*
G01X194331Y143504D02*
G02X198268I1968J0D01*
G01X433000Y-349569D02*
Y-299569D01*
G01Y1260431D02*
Y1310431D01*
G01X716465Y1301265D02*
X718355Y1303764D01*
X720560Y1305015D01*
X723080Y1305431D01*
X726230Y1304598D01*
X728435Y1302515D01*
X729065Y1300015D01*
X728750Y1297514D01*
X727490Y1295431D01*
X721190Y1291265D01*
X718355Y1288348D01*
X716465Y1284181D01*
X715835Y1280431D01*
X729065D01*
G01X746465Y-328735D02*
X748355Y-326236D01*
X750560Y-324985D01*
X753080Y-324569D01*
X756230Y-325402D01*
X758435Y-327485D01*
X759065Y-329985D01*
X758750Y-332486D01*
X757490Y-334569D01*
X751190Y-338735D01*
X748355Y-341652D01*
X746465Y-345819D01*
X745835Y-349569D01*
X759065D01*
G01X853000Y1260431D02*
Y1168500D01*
G01X864250Y1210431D02*
Y1220431D01*
X867375D01*
X868375Y1219931D01*
X869000Y1219265D01*
X869250Y1217931D01*
X869000Y1216598D01*
X868250Y1215765D01*
X867375Y1215265D01*
X864250D01*
G01X867375D02*
X869250Y1210431D01*
G01X879250D02*
X874250D01*
Y1220431D01*
X879250D01*
G01X877250Y1215598D02*
X874250D01*
G01X883625Y1220431D02*
X886750Y1210431D01*
X889875Y1220431D01*
G01X853000Y1230431D02*
X1503000D01*
G01X853000Y1200431D02*
X1503000D01*
G01X903000Y1230431D02*
Y1168500D01*
G01X958000Y-299569D02*
Y-224569D01*
X1503000D01*
Y-299569D01*
X993000D01*
G01D02*
Y-349569D01*
G01X1000835Y-271709D02*
G03I-355J0D01*
G01X1503000Y1260431D02*
Y-299569D01*
X983000D01*
G01X1001555Y-270028D02*
G03I-355J0D01*
G01X1001385Y-269978D02*
G03I-355J0D01*
G01X1001235Y-269898D02*
G03I-355J0D01*
G01X1001095Y-269789D02*
G03I-355J0D01*
G01X1000985Y-269648D02*
G03I-355J0D01*
G01X1000905Y-269498D02*
G03I-355J0D01*
G01X1000855Y-269328D02*
G03I-355J0D01*
G01X1000835Y-269159D02*
G03I-355J0D01*
G01X1000855Y-268989D02*
G03I-355J0D01*
G01X1000915Y-268828D02*
G03I-355J0D01*
G01X1001005Y-268689D02*
G03I-355J0D01*
G01X1001125Y-268569D02*
G03I-355J0D01*
G01X1001265Y-268478D02*
G03I-355J0D01*
G01X1001425Y-268419D02*
G03I-355J0D01*
G01X1001595Y-268398D02*
G03I-355J0D01*
G01X1001725Y-270059D02*
G03I-355J0D01*
G01Y-270048D02*
G03I-355J0D01*
G01X1000835Y-255819D02*
G03I-355J0D01*
G01Y-255128D02*
G03I-355J0D01*
G01Y-253739D02*
G03I-355J0D01*
G01Y-254428D02*
G03I-355J0D01*
G01Y-253039D02*
G03I-355J0D01*
G01Y-252348D02*
G03I-355J0D01*
G01Y-251659D02*
G03I-355J0D01*
G01Y-251159D02*
G03I-355J0D01*
G01D02*
G03I-355J0D01*
G01X1002175Y-250959D02*
G03I-355J0D01*
G01X1000835Y-263909D02*
G03I-355J0D01*
G01Y-263459D02*
G03I-355J0D01*
G01Y-262759D02*
G03I-355J0D01*
G01Y-261369D02*
G03I-355J0D01*
G01Y-262069D02*
G03I-355J0D01*
G01Y-260678D02*
G03I-355J0D01*
G01Y-259978D02*
G03I-355J0D01*
G01Y-259289D02*
G03I-355J0D01*
G01Y-257899D02*
G03I-355J0D01*
G01Y-258598D02*
G03I-355J0D01*
G01Y-257209D02*
G03I-355J0D01*
G01Y-256509D02*
G03I-355J0D01*
G01X993000Y1270431D02*
Y1310431D01*
G01Y1270431D02*
Y1260431D01*
G01X1006975Y-271648D02*
G03I-355J0D01*
G01X1007155Y-271689D02*
G03I-355J0D01*
G01X1007335Y-271709D02*
G03I-355J0D01*
G01X1003285D02*
G03I-355J0D01*
G01X1003455Y-271689D02*
G03I-355J0D01*
G01X1003615Y-271639D02*
G03I-355J0D01*
G01X1003765Y-271569D02*
G03I-355J0D01*
G01X1003895Y-271459D02*
G03I-355J0D01*
G01X1004005Y-271328D02*
G03I-355J0D01*
G01X1006525D02*
G03I-355J0D01*
G01X1006655Y-271459D02*
G03I-355J0D01*
G01X1006805Y-271569D02*
G03I-355J0D01*
G01X1004075Y-271178D02*
G03I-355J0D01*
G01X1004125Y-271019D02*
G03I-355J0D01*
G01X1004145Y-270848D02*
G03I-355J0D01*
G01X1006335Y-271009D02*
G03I-355J0D01*
G01X1006415Y-271178D02*
G03I-355J0D01*
G01X1009105Y-271709D02*
G03I-355J0D01*
G01X1011465D02*
G03I-355J0D01*
G01X1013555D02*
G03I-355J0D01*
G01X1015485D02*
G03I-355J0D01*
G01X1018075D02*
G03I-355J0D01*
G01X1020935Y-271319D02*
G03I-355J0D01*
G01X1021065Y-271448D02*
G03I-355J0D01*
G01X1021215Y-271559D02*
G03I-355J0D01*
G01X1021395Y-271639D02*
G03I-355J0D01*
G01X1021575Y-271689D02*
G03I-355J0D01*
G01X1021765Y-271709D02*
G03I-355J0D01*
G01X1023515D02*
G03I-355J0D01*
G01X1026275Y-271539D02*
G03I-355J0D01*
G01X1026095Y-271409D02*
G03I-355J0D01*
G01X1026925Y-271709D02*
G03I-355J0D01*
G01X1026705Y-271689D02*
G03I-355J0D01*
G01X1026485Y-271628D02*
G03I-355J0D01*
G01X1028035Y-271648D02*
G03I-355J0D01*
G01X1027835Y-271689D02*
G03I-355J0D01*
G01X1027625Y-271709D02*
G03I-355J0D01*
G01X1028555Y-271319D02*
G03I-355J0D01*
G01X1028405Y-271459D02*
G03I-355J0D01*
G01X1028225Y-271569D02*
G03I-355J0D01*
G01X1031305Y-271709D02*
G03I-355J0D01*
G01X1034065D02*
G03I-355J0D01*
G01X1034615D02*
G03I-355J0D01*
G01X1036975D02*
G03I-355J0D01*
G01X1038735D02*
G03I-355J0D01*
G01X1038935Y-271689D02*
G03I-355J0D01*
G01X1039135Y-271648D02*
G03I-355J0D01*
G01X1039325Y-271569D02*
G03I-355J0D01*
G01X1039505Y-271459D02*
G03I-355J0D01*
G01X1039665Y-271328D02*
G03I-355J0D01*
G01X1042695Y-271269D02*
G03I-355J0D01*
G01X1042845Y-271419D02*
G03I-355J0D01*
G01X1043025Y-271539D02*
G03I-355J0D01*
G01X1043225Y-271639D02*
G03I-355J0D01*
G01X1043425Y-271689D02*
G03I-355J0D01*
G01X1043645Y-271709D02*
G03I-355J0D01*
G01X1044165D02*
G03I-355J0D01*
G01X1044395Y-271689D02*
G03I-355J0D01*
G01X1044615Y-271628D02*
G03I-355J0D01*
G01X1044825Y-271528D02*
G03I-355J0D01*
G01X1045005Y-271398D02*
G03I-355J0D01*
G01X1020745Y-270989D02*
G03I-355J0D01*
G01X1020825Y-271159D02*
G03I-355J0D01*
G01X1025935Y-271248D02*
G03I-355J0D01*
G01X1025805Y-271059D02*
G03I-355J0D01*
G01X1025715Y-270859D02*
G03I-355J0D01*
G01X1028805Y-270989D02*
G03I-355J0D01*
G01X1028695Y-271169D02*
G03I-355J0D01*
G01X1039795D02*
G03I-355J0D01*
G01X1039905Y-270989D02*
G03I-355J0D01*
G01X1042475Y-270889D02*
G03I-355J0D01*
G01X1042575Y-271089D02*
G03I-355J0D01*
G01X1045165Y-271239D02*
G03I-355J0D01*
G01X1045295Y-271048D02*
G03I-355J0D01*
G01X1045395Y-270848D02*
G03I-355J0D01*
G01X1007095Y-268419D02*
G03I-355J0D01*
G01X1007295Y-268398D02*
G03I-355J0D01*
G01X1003345Y-270048D02*
G03I-355J0D01*
G01Y-270059D02*
G03I-355J0D01*
G01X1004125Y-270689D02*
G03I-355J0D01*
G01X1004085Y-270539D02*
G03I-355J0D01*
G01X1004015Y-270409D02*
G03I-355J0D01*
G01X1003915Y-270278D02*
G03I-355J0D01*
G01X1003785Y-270178D02*
G03I-355J0D01*
G01X1003655Y-270109D02*
G03I-355J0D01*
G01X1003505Y-270069D02*
G03I-355J0D01*
G01X1004145Y-268398D02*
G03I-355J0D01*
G01X1006295Y-270828D02*
G03I-355J0D01*
G01X1006265Y-270059D02*
G03I-355J0D01*
G01D02*
G03I-355J0D01*
G01Y-270648D02*
G03I-355J0D01*
G01X1006275D02*
G03I-355J0D01*
G01X1006265Y-269419D02*
G03I-355J0D01*
G01X1006275D02*
G03I-355J0D01*
G01X1006295Y-269219D02*
G03I-355J0D01*
G01X1006355Y-269028D02*
G03I-355J0D01*
G01X1006445Y-268848D02*
G03I-355J0D01*
G01X1006575Y-268699D02*
G03I-355J0D01*
G01X1006725Y-268569D02*
G03I-355J0D01*
G01X1006905Y-268478D02*
G03I-355J0D01*
G01X1003075Y-250828D02*
G03I-355J0D01*
G01X1004145Y-255819D02*
G03I-355J0D01*
G01Y-255128D02*
G03I-355J0D01*
G01Y-254428D02*
G03I-355J0D01*
G01Y-253039D02*
G03I-355J0D01*
G01Y-253739D02*
G03I-355J0D01*
G01Y-252878D02*
G03I-355J0D01*
G01X1004165Y-252678D02*
G03I-355J0D01*
G01X1004355Y-252348D02*
G03I-355J0D01*
G01X1004245Y-252489D02*
G03I-355J0D01*
G01X1004365Y-252328D02*
G03I-355J0D01*
G01X1004535Y-252209D02*
G03I-355J0D01*
G01X1004715Y-252128D02*
G03I-355J0D01*
G01X1004915Y-252098D02*
G03I-355J0D01*
G01X1005325Y-250689D02*
G03I-355J0D01*
G01X1007765Y-252098D02*
G03I-355J0D01*
G01X1008455Y-252128D02*
G03I-355J0D01*
G01X1008355Y-250689D02*
G03I-355J0D01*
G01X1004145Y-263909D02*
G03I-355J0D01*
G01X1007355Y-259978D02*
G03I-355J0D01*
G01X1004145Y-263459D02*
G03I-355J0D01*
G01Y-262759D02*
G03I-355J0D01*
G01Y-262069D02*
G03I-355J0D01*
G01Y-260678D02*
G03I-355J0D01*
G01Y-261369D02*
G03I-355J0D01*
G01Y-259978D02*
G03I-355J0D01*
G01Y-259289D02*
G03I-355J0D01*
G01Y-258598D02*
G03I-355J0D01*
G01Y-257209D02*
G03I-355J0D01*
G01Y-257899D02*
G03I-355J0D01*
G01Y-256509D02*
G03I-355J0D01*
G01X1006755Y-259289D02*
G03I-355J0D01*
G01X1006265Y-258598D02*
G03I-355J0D01*
G01Y-257899D02*
G03I-355J0D01*
G01Y-258719D02*
G03I-355J0D01*
G01Y-257298D02*
G03I-355J0D01*
G01X1007945Y-260678D02*
G03I-355J0D01*
G01X1008045Y-257298D02*
G03I-355J0D01*
G01X1008545Y-261369D02*
G03I-355J0D01*
G01X1008815Y-257209D02*
G03I-355J0D01*
G01X1008625Y-257259D02*
G03I-355J0D01*
G01X1009105Y-270059D02*
G03I-355J0D01*
G01Y-268398D02*
G03I-355J0D01*
G01X1011465D02*
G03I-355J0D01*
G01X1012015D02*
G03I-355J0D01*
G01X1014965D02*
G03I-355J0D01*
G01X1015485D02*
G03I-355J0D01*
G01X1018075D02*
G03I-355J0D01*
G01X1020695Y-270809D02*
G03I-355J0D01*
G01X1020675Y-270619D02*
G03I-355J0D01*
G01X1020755Y-269069D02*
G03I-355J0D01*
G01X1020695Y-269278D02*
G03I-355J0D01*
G01X1020675Y-269489D02*
G03I-355J0D01*
G01X1021155Y-268578D02*
G03I-355J0D01*
G01X1020995Y-268719D02*
G03I-355J0D01*
G01X1020855Y-268878D02*
G03I-355J0D01*
G01X1021765Y-268398D02*
G03I-355J0D01*
G01X1021555Y-268419D02*
G03I-355J0D01*
G01X1021345Y-268478D02*
G03I-355J0D01*
G01X1023515Y-268398D02*
G03I-355J0D01*
G01X1009265Y-252348D02*
G03I-355J0D01*
G01X1009135Y-252289D02*
G03I-355J0D01*
G01X1010085Y-252889D02*
G03I-355J0D01*
G01X1010185Y-253039D02*
G03I-355J0D01*
G01X1009775Y-252578D02*
G03I-355J0D01*
G01X1010025Y-250809D02*
G03I-355J0D01*
G01X1010425Y-255819D02*
G03I-355J0D01*
G01X1010475Y-255649D02*
G03I-355J0D01*
G01X1010525Y-255128D02*
G03I-355J0D01*
G01Y-255209D02*
G03I-355J0D01*
G01Y-254428D02*
G03I-355J0D01*
G01X1010475Y-253739D02*
G03I-355J0D01*
G01X1010465Y-253669D02*
G03I-355J0D01*
G01X1010525Y-254109D02*
G03I-355J0D01*
G01X1010315Y-253259D02*
G03I-355J0D01*
G01X1010745Y-250959D02*
G03I-355J0D01*
G01X1011665Y-251159D02*
G03I-355J0D01*
G01X1012455Y-251659D02*
G03I-355J0D01*
G01X1012705Y-251859D02*
G03I-355J0D01*
G01X1012215Y-251459D02*
G03I-355J0D01*
G01X1013585Y-255819D02*
G03I-355J0D01*
G01X1013595Y-255759D02*
G03I-355J0D01*
G01Y-255128D02*
G03I-355J0D01*
G01Y-254428D02*
G03I-355J0D01*
G01Y-253739D02*
G03I-355J0D01*
G01X1013495Y-253039D02*
G03I-355J0D01*
G01X1013595Y-253759D02*
G03I-355J0D01*
G01X1013575Y-253378D02*
G03I-355J0D01*
G01X1013485Y-252999D02*
G03I-355J0D01*
G01X1013125Y-252348D02*
G03I-355J0D01*
G01X1013335Y-252648D02*
G03I-355J0D01*
G01X1013115Y-252339D02*
G03I-355J0D01*
G01X1016665Y-255819D02*
G03I-355J0D01*
G01Y-255128D02*
G03I-355J0D01*
G01Y-254428D02*
G03I-355J0D01*
G01X1016695Y-253739D02*
G03I-355J0D01*
G01X1016665Y-254069D02*
G03I-355J0D01*
G01X1016885Y-253039D02*
G03I-355J0D01*
G01X1016835Y-253128D02*
G03I-355J0D01*
G01X1016705Y-253589D02*
G03I-355J0D01*
G01X1016835Y-253128D02*
G03I-355J0D01*
G01X1017345Y-252348D02*
G03I-355J0D01*
G01X1017065Y-252709D02*
G03I-355J0D01*
G01X1017355Y-252328D02*
G03I-355J0D01*
G01X1017725Y-252019D02*
G03I-355J0D01*
G01X1018175Y-251659D02*
G03I-355J0D01*
G01X1018355Y-251509D02*
G03I-355J0D01*
G01X1019065Y-251119D02*
G03I-355J0D01*
G01X1019535Y-250959D02*
G03I-355J0D01*
G01X1019735Y-255819D02*
G03I-355J0D01*
G01Y-255128D02*
G03I-355J0D01*
G01Y-254428D02*
G03I-355J0D01*
G01X1019845Y-253739D02*
G03I-355J0D01*
G01X1019775Y-253978D02*
G03I-355J0D01*
G01X1019735Y-254389D02*
G03I-355J0D01*
G01X1020095Y-253239D02*
G03I-355J0D01*
G01X1019895Y-253589D02*
G03I-355J0D01*
G01X1020265Y-253039D02*
G03I-355J0D01*
G01X1020365Y-252928D02*
G03I-355J0D01*
G01D02*
G03I-355J0D01*
G01X1019825Y-250859D02*
G03I-355J0D01*
G01X1021195Y-252348D02*
G03I-355J0D01*
G01X1020795Y-252559D02*
G03I-355J0D01*
G01X1020625Y-250719D02*
G03I-355J0D01*
G01X1021845Y-252139D02*
G03I-355J0D01*
G01X1021295Y-252289D02*
G03I-355J0D01*
G01X1021425Y-250689D02*
G03I-355J0D01*
G01X1022415Y-252098D02*
G03I-355J0D01*
G01X1024405Y-252128D02*
G03I-355J0D01*
G01X1023865Y-252098D02*
G03I-355J0D01*
G01X1024535Y-250689D02*
G03I-355J0D01*
G01X1025115Y-252348D02*
G03I-355J0D01*
G01X1025405Y-252489D02*
G03I-355J0D01*
G01X1024925Y-252259D02*
G03I-355J0D01*
G01X1025395Y-250719D02*
G03I-355J0D01*
G01X1010715Y-263909D02*
G03I-355J0D01*
G01X1014375D02*
G03I-355J0D01*
G01X1019695Y-263678D02*
G03I-355J0D01*
G01X1020715Y-263848D02*
G03I-355J0D01*
G01X1021745Y-263909D02*
G03I-355J0D01*
G01X1024495D02*
G03I-355J0D01*
G01X1025405Y-263878D02*
G03I-355J0D01*
G01X1009135Y-262069D02*
G03I-355J0D01*
G01X1009185Y-257109D02*
G03I-355J0D01*
G01X1009735Y-262759D02*
G03I-355J0D01*
G01X1010165Y-259289D02*
G03I-355J0D01*
G01X1009925Y-259028D02*
G03I-355J0D01*
G01Y-258598D02*
G03I-355J0D01*
G01Y-258519D02*
G03I-355J0D01*
G01X1010115Y-256509D02*
G03I-355J0D01*
G01X1010165Y-256469D02*
G03I-355J0D01*
G01X1009705Y-256839D02*
G03I-355J0D01*
G01X1010325Y-263459D02*
G03I-355J0D01*
G01X1010795Y-259978D02*
G03I-355J0D01*
G01X1010625Y-258509D02*
G03I-355J0D01*
G01X1010355Y-256069D02*
G03I-355J0D01*
G01X1011435Y-260678D02*
G03I-355J0D01*
G01X1011305Y-258389D02*
G03I-355J0D01*
G01X1012695Y-262069D02*
G03I-355J0D01*
G01X1012065Y-261369D02*
G03I-355J0D01*
G01X1012405Y-257899D02*
G03I-355J0D01*
G01X1011965Y-258149D02*
G03I-355J0D01*
G01X1012565Y-257809D02*
G03I-355J0D01*
G01X1013325Y-262759D02*
G03I-355J0D01*
G01X1013155Y-257209D02*
G03I-355J0D01*
G01X1012925Y-257499D02*
G03I-355J0D01*
G01X1013215Y-257119D02*
G03I-355J0D01*
G01X1013485Y-256509D02*
G03I-355J0D01*
G01X1013435Y-256699D02*
G03I-355J0D01*
G01X1013555Y-256239D02*
G03I-355J0D01*
G01X1013965Y-263459D02*
G03I-355J0D01*
G01X1016735Y-261369D02*
G03I-355J0D01*
G01X1016835Y-261719D02*
G03I-355J0D01*
G01X1016665Y-260678D02*
G03I-355J0D01*
G01X1016695Y-261249D02*
G03I-355J0D01*
G01X1016665Y-260759D02*
G03I-355J0D01*
G01Y-259978D02*
G03I-355J0D01*
G01Y-259289D02*
G03I-355J0D01*
G01Y-258598D02*
G03I-355J0D01*
G01Y-257899D02*
G03I-355J0D01*
G01Y-257209D02*
G03I-355J0D01*
G01Y-256509D02*
G03I-355J0D01*
G01Y-256828D02*
G03I-355J0D01*
G01D02*
G03I-355J0D01*
G01D02*
G03I-355J0D01*
G01X1017695Y-262759D02*
G03I-355J0D01*
G01X1017765Y-262809D02*
G03I-355J0D01*
G01X1017375Y-262519D02*
G03I-355J0D01*
G01X1017015Y-262069D02*
G03I-355J0D01*
G01X1017065Y-262148D02*
G03I-355J0D01*
G01X1018365Y-263189D02*
G03I-355J0D01*
G01X1018955Y-263459D02*
G03I-355J0D01*
G01X1019015Y-263478D02*
G03I-355J0D01*
G01X1020155Y-261369D02*
G03I-355J0D01*
G01X1020175Y-261398D02*
G03I-355J0D01*
G01X1019825Y-260678D02*
G03I-355J0D01*
G01X1019765Y-260509D02*
G03I-355J0D01*
G01X1019915Y-260978D02*
G03I-355J0D01*
G01X1019735Y-259978D02*
G03I-355J0D01*
G01Y-260019D02*
G03I-355J0D01*
G01Y-259289D02*
G03I-355J0D01*
G01Y-258598D02*
G03I-355J0D01*
G01Y-257899D02*
G03I-355J0D01*
G01Y-257209D02*
G03I-355J0D01*
G01Y-256509D02*
G03I-355J0D01*
G01Y-256828D02*
G03I-355J0D01*
G01D02*
G03I-355J0D01*
G01D02*
G03I-355J0D01*
G01X1020895Y-262069D02*
G03I-355J0D01*
G01X1020525Y-261749D02*
G03I-355J0D01*
G01X1020885Y-262069D02*
G03I-355J0D01*
G01X1021305Y-262299D02*
G03I-355J0D01*
G01X1021775Y-262449D02*
G03I-355J0D01*
G01X1022255Y-262498D02*
G03I-355J0D01*
G01X1023865D02*
G03I-355J0D01*
G01X1024465Y-262459D02*
G03I-355J0D01*
G01X1025035Y-262299D02*
G03I-355J0D01*
G01X1025655Y-270639D02*
G03I-355J0D01*
G01X1025635Y-270419D02*
G03I-355J0D01*
G01Y-269669D02*
G03I-355J0D01*
G01X1025655Y-269448D02*
G03I-355J0D01*
G01X1025715Y-269239D02*
G03I-355J0D01*
G01X1025805Y-269028D02*
G03I-355J0D01*
G01X1025935Y-268848D02*
G03I-355J0D01*
G01X1026085Y-268699D02*
G03I-355J0D01*
G01X1026275Y-268569D02*
G03I-355J0D01*
G01X1026475Y-268478D02*
G03I-355J0D01*
G01X1026685Y-268419D02*
G03I-355J0D01*
G01X1026905Y-268398D02*
G03I-355J0D01*
G01X1027645D02*
G03I-355J0D01*
G01X1027875Y-268419D02*
G03I-355J0D01*
G01X1028085Y-268478D02*
G03I-355J0D01*
G01X1028945Y-270389D02*
G03I-355J0D01*
G01X1028925Y-270598D02*
G03I-355J0D01*
G01X1028885Y-270799D02*
G03I-355J0D01*
G01X1028945Y-270389D02*
G03I-355J0D01*
G01X1028775Y-269048D02*
G03I-355J0D01*
G01X1028865Y-269259D02*
G03I-355J0D01*
G01X1028925Y-269469D02*
G03I-355J0D01*
G01X1028945Y-269698D02*
G03I-355J0D01*
G01X1028295Y-268569D02*
G03I-355J0D01*
G01X1028485Y-268699D02*
G03I-355J0D01*
G01X1028645Y-268859D02*
G03I-355J0D01*
G01X1031305Y-268398D02*
G03I-355J0D01*
G01X1031785D02*
G03I-355J0D01*
G01X1034615D02*
G03I-355J0D01*
G01X1036975D02*
G03I-355J0D01*
G01X1039195Y-268478D02*
G03I-355J0D01*
G01X1038975Y-268419D02*
G03I-355J0D01*
G01X1038755Y-268398D02*
G03I-355J0D01*
G01X1039985Y-270799D02*
G03I-355J0D01*
G01X1040025Y-270598D02*
G03I-355J0D01*
G01X1040045Y-270399D02*
G03I-355J0D01*
G01Y-269689D02*
G03I-355J0D01*
G01X1040025Y-269469D02*
G03I-355J0D01*
G01X1039965Y-269248D02*
G03I-355J0D01*
G01X1039875Y-269039D02*
G03I-355J0D01*
G01X1040045Y-269689D02*
G03I-355J0D01*
G01X1039745Y-268859D02*
G03I-355J0D01*
G01X1039585Y-268699D02*
G03I-355J0D01*
G01X1039405Y-268569D02*
G03I-355J0D01*
G01X1042415Y-270469D02*
G03I-355J0D01*
G01X1042405D02*
G03I-355J0D01*
G01X1042425Y-270689D02*
G03I-355J0D01*
G01X1042415Y-268398D02*
G03I-355J0D01*
G01X1045455Y-270628D02*
G03I-355J0D01*
G01X1045475Y-270399D02*
G03I-355J0D01*
G01X1045485D02*
G03I-355J0D01*
G01Y-268398D02*
G03I-355J0D01*
G01X1026085Y-253039D02*
G03I-355J0D01*
G01X1026165Y-253109D02*
G03I-355J0D01*
G01X1025835Y-252809D02*
G03I-355J0D01*
G01X1026245Y-250878D02*
G03I-355J0D01*
G01X1026585Y-255819D02*
G03I-355J0D01*
G01Y-255128D02*
G03I-355J0D01*
G01X1026495Y-253739D02*
G03I-355J0D01*
G01X1026585Y-254428D02*
G03I-355J0D01*
G01Y-254348D02*
G03I-355J0D01*
G01X1026545Y-253899D02*
G03I-355J0D01*
G01X1026405Y-253478D02*
G03I-355J0D01*
G01X1027055Y-251159D02*
G03I-355J0D01*
G01X1026485Y-250959D02*
G03I-355J0D01*
G01X1028055Y-251659D02*
G03I-355J0D01*
G01X1027685Y-251428D02*
G03I-355J0D01*
G01X1028895Y-252348D02*
G03I-355J0D01*
G01X1028785Y-252219D02*
G03I-355J0D01*
G01X1028265Y-251778D02*
G03I-355J0D01*
G01X1029655Y-255819D02*
G03I-355J0D01*
G01Y-255128D02*
G03I-355J0D01*
G01X1029605Y-253739D02*
G03I-355J0D01*
G01X1029655Y-254428D02*
G03I-355J0D01*
G01X1029605Y-253759D02*
G03I-355J0D01*
G01X1029655Y-254348D02*
G03I-355J0D01*
G01X1029365Y-253039D02*
G03I-355J0D01*
G01X1029445Y-253189D02*
G03I-355J0D01*
G01X1029165Y-252669D02*
G03I-355J0D01*
G01X1032965Y-255819D02*
G03I-355J0D01*
G01Y-255128D02*
G03I-355J0D01*
G01Y-254428D02*
G03I-355J0D01*
G01Y-253739D02*
G03I-355J0D01*
G01Y-253039D02*
G03I-355J0D01*
G01Y-252348D02*
G03I-355J0D01*
G01Y-251159D02*
G03I-355J0D01*
G01Y-251659D02*
G03I-355J0D01*
G01X1036325Y-255819D02*
G03I-355J0D01*
G01X1036265Y-255548D02*
G03I-355J0D01*
G01X1036295Y-255759D02*
G03I-355J0D01*
G01X1036375Y-255948D02*
G03I-355J0D01*
G01X1036265Y-255128D02*
G03I-355J0D01*
G01Y-254428D02*
G03I-355J0D01*
G01Y-253739D02*
G03I-355J0D01*
G01Y-253039D02*
G03I-355J0D01*
G01Y-252348D02*
G03I-355J0D01*
G01Y-251159D02*
G03I-355J0D01*
G01D02*
G03I-355J0D01*
G01Y-251659D02*
G03I-355J0D01*
G01X1043305Y-255819D02*
G03I-355J0D01*
G01X1043245Y-255959D02*
G03I-355J0D01*
G01X1043325Y-255769D02*
G03I-355J0D01*
G01X1043355Y-255569D02*
G03I-355J0D01*
G01Y-255128D02*
G03I-355J0D01*
G01Y-253739D02*
G03I-355J0D01*
G01Y-254428D02*
G03I-355J0D01*
G01Y-253039D02*
G03I-355J0D01*
G01Y-252348D02*
G03I-355J0D01*
G01Y-251659D02*
G03I-355J0D01*
G01Y-251159D02*
G03I-355J0D01*
G01X1026305Y-263739D02*
G03I-355J0D01*
G01X1025505Y-262069D02*
G03I-355J0D01*
G01X1026205Y-261369D02*
G03I-355J0D01*
G01X1025565Y-262039D02*
G03I-355J0D01*
G01X1026035Y-261669D02*
G03I-355J0D01*
G01X1026335Y-261159D02*
G03I-355J0D01*
G01X1027225Y-263459D02*
G03I-355J0D01*
G01X1027175Y-263478D02*
G03I-355J0D01*
G01X1026495Y-260678D02*
G03I-355J0D01*
G01X1026525Y-260598D02*
G03I-355J0D01*
G01X1026585Y-259978D02*
G03I-355J0D01*
G01Y-260019D02*
G03I-355J0D01*
G01Y-259289D02*
G03I-355J0D01*
G01Y-257899D02*
G03I-355J0D01*
G01Y-258598D02*
G03I-355J0D01*
G01Y-257209D02*
G03I-355J0D01*
G01Y-256509D02*
G03I-355J0D01*
G01X1027755Y-263209D02*
G03I-355J0D01*
G01X1028385Y-262759D02*
G03I-355J0D01*
G01X1028745Y-262419D02*
G03I-355J0D01*
G01X1028285Y-262859D02*
G03I-355J0D01*
G01X1029485Y-261369D02*
G03I-355J0D01*
G01X1029095Y-262069D02*
G03I-355J0D01*
G01X1029425Y-261559D02*
G03I-355J0D01*
G01X1029135Y-262028D02*
G03I-355J0D01*
G01X1029635Y-260678D02*
G03I-355J0D01*
G01X1029605Y-261039D02*
G03I-355J0D01*
G01X1029655Y-259978D02*
G03I-355J0D01*
G01Y-260489D02*
G03I-355J0D01*
G01Y-259289D02*
G03I-355J0D01*
G01Y-258598D02*
G03I-355J0D01*
G01Y-257209D02*
G03I-355J0D01*
G01Y-257899D02*
G03I-355J0D01*
G01Y-256509D02*
G03I-355J0D01*
G01X1032965Y-263909D02*
G03I-355J0D01*
G01X1036265D02*
G03I-355J0D01*
G01X1043355D02*
G03I-355J0D01*
G01X1032965Y-263459D02*
G03I-355J0D01*
G01Y-262759D02*
G03I-355J0D01*
G01Y-262069D02*
G03I-355J0D01*
G01Y-261369D02*
G03I-355J0D01*
G01Y-260678D02*
G03I-355J0D01*
G01Y-259978D02*
G03I-355J0D01*
G01Y-259289D02*
G03I-355J0D01*
G01Y-258598D02*
G03I-355J0D01*
G01Y-257209D02*
G03I-355J0D01*
G01Y-257899D02*
G03I-355J0D01*
G01Y-256509D02*
G03I-355J0D01*
G01X1036265Y-263459D02*
G03I-355J0D01*
G01Y-262759D02*
G03I-355J0D01*
G01Y-262069D02*
G03I-355J0D01*
G01Y-261369D02*
G03I-355J0D01*
G01Y-260678D02*
G03I-355J0D01*
G01Y-259978D02*
G03I-355J0D01*
G01Y-259289D02*
G03I-355J0D01*
G01Y-258789D02*
G03I-355J0D01*
G01X1036295Y-258598D02*
G03I-355J0D01*
G01X1036495Y-258239D02*
G03I-355J0D01*
G01X1036375Y-258399D02*
G03I-355J0D01*
G01X1036295Y-258589D02*
G03I-355J0D01*
G01X1036505Y-256119D02*
G03I-355J0D01*
G01X1037045Y-258009D02*
G03I-355J0D01*
G01X1036845Y-258028D02*
G03I-355J0D01*
G01X1036655Y-258109D02*
G03I-355J0D01*
G01X1036675Y-256248D02*
G03I-355J0D01*
G01X1036865Y-256328D02*
G03I-355J0D01*
G01X1037075Y-256348D02*
G03I-355J0D01*
G01X1042525Y-258009D02*
G03I-355J0D01*
G01X1042575Y-256348D02*
G03I-355J0D01*
G01X1043355Y-263459D02*
G03I-355J0D01*
G01Y-262759D02*
G03I-355J0D01*
G01Y-262069D02*
G03I-355J0D01*
G01Y-260678D02*
G03I-355J0D01*
G01Y-261369D02*
G03I-355J0D01*
G01Y-259978D02*
G03I-355J0D01*
G01Y-259289D02*
G03I-355J0D01*
G01X1043315Y-258598D02*
G03I-355J0D01*
G01X1043355Y-258839D02*
G03I-355J0D01*
G01X1043325Y-258619D02*
G03I-355J0D01*
G01X1043245Y-258419D02*
G03I-355J0D01*
G01X1043115Y-258248D02*
G03I-355J0D01*
G01X1042945Y-258119D02*
G03I-355J0D01*
G01X1042735Y-258039D02*
G03I-355J0D01*
G01X1042775Y-256328D02*
G03I-355J0D01*
G01X1042965Y-256248D02*
G03I-355J0D01*
G01X1043125Y-256128D02*
G03I-355J0D01*
G01X1047855Y-271328D02*
G03I-355J0D01*
G01X1047985Y-271459D02*
G03I-355J0D01*
G01X1048135Y-271569D02*
G03I-355J0D01*
G01X1048305Y-271648D02*
G03I-355J0D01*
G01X1048485Y-271689D02*
G03I-355J0D01*
G01X1048675Y-271709D02*
G03I-355J0D01*
G01X1050445D02*
G03I-355J0D01*
G01X1053745D02*
G03I-355J0D01*
G01X1047665Y-271009D02*
G03I-355J0D01*
G01X1047745Y-271169D02*
G03I-355J0D01*
G01X1057835Y-271459D02*
G03I-355J0D01*
G01X1057675Y-271328D02*
G03I-355J0D01*
G01X1058605Y-271709D02*
G03I-355J0D01*
G01X1058405Y-271689D02*
G03I-355J0D01*
G01X1058205Y-271648D02*
G03I-355J0D01*
G01X1058015Y-271569D02*
G03I-355J0D01*
G01X1059525Y-271689D02*
G03I-355J0D01*
G01X1059295Y-271709D02*
G03I-355J0D01*
G01X1060135Y-271409D02*
G03I-355J0D01*
G01X1059945Y-271539D02*
G03I-355J0D01*
G01X1059735Y-271628D02*
G03I-355J0D01*
G01X1062725Y-271709D02*
G03I-355J0D01*
G01X1065555D02*
G03I-355J0D01*
G01X1057545Y-271169D02*
G03I-355J0D01*
G01X1057435Y-270989D02*
G03I-355J0D01*
G01X1060425Y-271059D02*
G03I-355J0D01*
G01X1060295Y-271248D02*
G03I-355J0D01*
G01X1060515Y-270848D02*
G03I-355J0D01*
G01X1047625Y-270828D02*
G03I-355J0D01*
G01X1047605Y-270639D02*
G03I-355J0D01*
G01X1047625Y-269259D02*
G03I-355J0D01*
G01X1047605Y-269439D02*
G03I-355J0D01*
G01X1047665Y-269078D02*
G03I-355J0D01*
G01X1048465Y-268419D02*
G03I-355J0D01*
G01X1048285Y-268459D02*
G03I-355J0D01*
G01X1048125Y-268539D02*
G03I-355J0D01*
G01X1047975Y-268639D02*
G03I-355J0D01*
G01X1047845Y-268769D02*
G03I-355J0D01*
G01X1047745Y-268919D02*
G03I-355J0D01*
G01X1048645Y-268398D02*
G03I-355J0D01*
G01X1050445D02*
G03I-355J0D01*
G01X1046665Y-255819D02*
G03I-355J0D01*
G01Y-255128D02*
G03I-355J0D01*
G01Y-253739D02*
G03I-355J0D01*
G01Y-254428D02*
G03I-355J0D01*
G01Y-253039D02*
G03I-355J0D01*
G01Y-252348D02*
G03I-355J0D01*
G01Y-251659D02*
G03I-355J0D01*
G01Y-251159D02*
G03I-355J0D01*
G01X1050205Y-255819D02*
G03I-355J0D01*
G01Y-255128D02*
G03I-355J0D01*
G01Y-254428D02*
G03I-355J0D01*
G01Y-253039D02*
G03I-355J0D01*
G01Y-253739D02*
G03I-355J0D01*
G01Y-252348D02*
G03I-355J0D01*
G01Y-251659D02*
G03I-355J0D01*
G01Y-251159D02*
G03I-355J0D01*
G01X1046665Y-263909D02*
G03I-355J0D01*
G01X1050205D02*
G03I-355J0D01*
G01X1046665Y-263459D02*
G03I-355J0D01*
G01Y-262759D02*
G03I-355J0D01*
G01Y-261369D02*
G03I-355J0D01*
G01Y-262069D02*
G03I-355J0D01*
G01Y-260678D02*
G03I-355J0D01*
G01Y-259978D02*
G03I-355J0D01*
G01Y-259289D02*
G03I-355J0D01*
G01Y-258598D02*
G03I-355J0D01*
G01Y-257209D02*
G03I-355J0D01*
G01Y-257899D02*
G03I-355J0D01*
G01Y-256509D02*
G03I-355J0D01*
G01X1050205Y-263459D02*
G03I-355J0D01*
G01Y-262759D02*
G03I-355J0D01*
G01Y-262069D02*
G03I-355J0D01*
G01Y-260678D02*
G03I-355J0D01*
G01Y-261369D02*
G03I-355J0D01*
G01Y-259978D02*
G03I-355J0D01*
G01Y-259289D02*
G03I-355J0D01*
G01Y-258598D02*
G03I-355J0D01*
G01Y-257209D02*
G03I-355J0D01*
G01Y-257899D02*
G03I-355J0D01*
G01Y-256509D02*
G03I-355J0D01*
G01X1052335Y-268398D02*
G03I-355J0D01*
G01X1053745D02*
G03I-355J0D01*
G01D02*
G03I-355J0D01*
G01X1051755Y-250959D02*
G03I-355J0D01*
G01X1053275Y-255819D02*
G03I-355J0D01*
G01Y-255128D02*
G03I-355J0D01*
G01Y-253739D02*
G03I-355J0D01*
G01Y-254428D02*
G03I-355J0D01*
G01X1053295Y-253039D02*
G03I-355J0D01*
G01X1053305Y-252949D02*
G03I-355J0D01*
G01X1053275Y-253169D02*
G03I-355J0D01*
G01X1053695Y-252449D02*
G03I-355J0D01*
G01X1053515Y-252578D02*
G03I-355J0D01*
G01X1053385Y-252748D02*
G03I-355J0D01*
G01X1053145Y-250778D02*
G03I-355J0D01*
G01X1054025Y-252348D02*
G03I-355J0D01*
G01X1054105Y-252339D02*
G03I-355J0D01*
G01X1053885Y-252369D02*
G03I-355J0D01*
G01X1053275Y-263909D02*
G03I-355J0D01*
G01Y-263459D02*
G03I-355J0D01*
G01Y-262759D02*
G03I-355J0D01*
G01Y-261369D02*
G03I-355J0D01*
G01Y-262069D02*
G03I-355J0D01*
G01Y-260678D02*
G03I-355J0D01*
G01Y-259978D02*
G03I-355J0D01*
G01Y-259289D02*
G03I-355J0D01*
G01Y-257899D02*
G03I-355J0D01*
G01Y-258598D02*
G03I-355J0D01*
G01Y-257209D02*
G03I-355J0D01*
G01Y-256509D02*
G03I-355J0D01*
G01X1057455Y-269039D02*
G03I-355J0D01*
G01X1057585Y-268859D02*
G03I-355J0D01*
G01X1057745Y-268699D02*
G03I-355J0D01*
G01X1055165Y-268398D02*
G03I-355J0D01*
G01X1057355Y-270799D02*
G03I-355J0D01*
G01X1057315Y-270598D02*
G03I-355J0D01*
G01X1057295Y-270399D02*
G03I-355J0D01*
G01Y-269689D02*
G03I-355J0D01*
G01X1057285D02*
G03I-355J0D01*
G01X1057305Y-269469D02*
G03I-355J0D01*
G01X1057365Y-269248D02*
G03I-355J0D01*
G01X1057935Y-268569D02*
G03I-355J0D01*
G01X1058135Y-268478D02*
G03I-355J0D01*
G01X1058355Y-268419D02*
G03I-355J0D01*
G01X1058575Y-268398D02*
G03I-355J0D01*
G01X1059315D02*
G03I-355J0D01*
G01X1059535Y-268419D02*
G03I-355J0D01*
G01X1059755Y-268478D02*
G03I-355J0D01*
G01X1059955Y-268569D02*
G03I-355J0D01*
G01X1060135Y-268699D02*
G03I-355J0D01*
G01X1060295Y-268859D02*
G03I-355J0D01*
G01X1060425Y-269039D02*
G03I-355J0D01*
G01X1060515Y-269239D02*
G03I-355J0D01*
G01X1060595Y-270409D02*
G03I-355J0D01*
G01X1060575Y-270639D02*
G03I-355J0D01*
G01X1060595Y-270409D02*
G03I-355J0D01*
G01X1060575Y-269459D02*
G03I-355J0D01*
G01X1060595Y-269678D02*
G03I-355J0D01*
G01X1062725Y-270059D02*
G03I-355J0D01*
G01D02*
G03I-355J0D01*
G01Y-268398D02*
G03I-355J0D01*
G01D02*
G03I-355J0D01*
G01X1064655Y-270059D02*
G03I-355J0D01*
G01D02*
G03I-355J0D01*
G01X1064935D02*
G03I-355J0D01*
G01X1065105Y-270039D02*
G03I-355J0D01*
G01X1065265Y-269989D02*
G03I-355J0D01*
G01X1065415Y-269919D02*
G03I-355J0D01*
G01X1065545Y-269809D02*
G03I-355J0D01*
G01X1065565Y-268628D02*
G03I-355J0D01*
G01X1065435Y-268528D02*
G03I-355J0D01*
G01X1065305Y-268459D02*
G03I-355J0D01*
G01X1065155Y-268419D02*
G03I-355J0D01*
G01X1064995Y-268398D02*
G03I-355J0D01*
G01X1065655Y-269678D02*
G03I-355J0D01*
G01X1065725Y-269528D02*
G03I-355J0D01*
G01X1065775Y-269369D02*
G03I-355J0D01*
G01X1065795Y-269199D02*
G03I-355J0D01*
G01X1065775Y-269039D02*
G03I-355J0D01*
G01X1065735Y-268889D02*
G03I-355J0D01*
G01X1065665Y-268759D02*
G03I-355J0D01*
G01X1055625Y-252348D02*
G03I-355J0D01*
G01X1056235Y-252739D02*
G03I-355J0D01*
G01X1056115Y-252569D02*
G03I-355J0D01*
G01X1055945Y-252449D02*
G03I-355J0D01*
G01X1055755Y-252369D02*
G03I-355J0D01*
G01X1055545Y-252339D02*
G03I-355J0D01*
G01X1056115Y-250689D02*
G03I-355J0D01*
G01X1056345Y-255819D02*
G03I-355J0D01*
G01Y-255128D02*
G03I-355J0D01*
G01Y-254428D02*
G03I-355J0D01*
G01Y-253739D02*
G03I-355J0D01*
G01X1056335Y-253039D02*
G03I-355J0D01*
G01X1056345Y-253139D02*
G03I-355J0D01*
G01X1056325Y-252928D02*
G03I-355J0D01*
G01X1059655Y-255819D02*
G03I-355J0D01*
G01Y-255128D02*
G03I-355J0D01*
G01Y-254428D02*
G03I-355J0D01*
G01Y-253739D02*
G03I-355J0D01*
G01Y-253148D02*
G03I-355J0D01*
G01X1059665Y-253039D02*
G03I-355J0D01*
G01X1059685Y-252939D02*
G03I-355J0D01*
G01X1060385Y-252348D02*
G03I-355J0D01*
G01X1060465Y-252339D02*
G03I-355J0D01*
G01X1060255Y-252369D02*
G03I-355J0D01*
G01X1060065Y-252449D02*
G03I-355J0D01*
G01X1059895Y-252578D02*
G03I-355J0D01*
G01X1059765Y-252739D02*
G03I-355J0D01*
G01X1060445Y-250689D02*
G03I-355J0D01*
G01X1061305Y-252348D02*
G03I-355J0D01*
G01X1061225Y-252339D02*
G03I-355J0D01*
G01X1062215Y-252578D02*
G03I-355J0D01*
G01X1061735Y-252409D02*
G03I-355J0D01*
G01X1061605Y-250748D02*
G03I-355J0D01*
G01X1062725Y-255819D02*
G03I-355J0D01*
G01Y-255128D02*
G03I-355J0D01*
G01Y-254428D02*
G03I-355J0D01*
G01Y-253739D02*
G03I-355J0D01*
G01X1062605Y-253039D02*
G03I-355J0D01*
G01X1062725Y-253599D02*
G03I-355J0D01*
G01X1062695Y-253298D02*
G03I-355J0D01*
G01X1062595Y-253019D02*
G03I-355J0D01*
G01X1062435Y-252778D02*
G03I-355J0D01*
G01X1062905Y-250959D02*
G03I-355J0D01*
G01X1062765Y-250919D02*
G03I-355J0D01*
G01X1063545Y-251139D02*
G03I-355J0D01*
G01X1064275Y-251499D02*
G03I-355J0D01*
G01D02*
G03I-355J0D01*
G01X1064485Y-251659D02*
G03I-355J0D01*
G01X1065635Y-253039D02*
G03I-355J0D01*
G01X1065265Y-252348D02*
G03I-355J0D01*
G01X1064925Y-251978D02*
G03I-355J0D01*
G01X1065305Y-252389D02*
G03I-355J0D01*
G01X1065585Y-252869D02*
G03I-355J0D01*
G01X1065795Y-255819D02*
G03I-355J0D01*
G01Y-255128D02*
G03I-355J0D01*
G01Y-254428D02*
G03I-355J0D01*
G01X1065775Y-253739D02*
G03I-355J0D01*
G01X1065795Y-253948D02*
G03I-355J0D01*
G01X1065745Y-253399D02*
G03I-355J0D01*
G01X1056345Y-263909D02*
G03I-355J0D01*
G01Y-263459D02*
G03I-355J0D01*
G01Y-262759D02*
G03I-355J0D01*
G01Y-262069D02*
G03I-355J0D01*
G01Y-261369D02*
G03I-355J0D01*
G01Y-260678D02*
G03I-355J0D01*
G01Y-259978D02*
G03I-355J0D01*
G01Y-259289D02*
G03I-355J0D01*
G01Y-258598D02*
G03I-355J0D01*
G01Y-257899D02*
G03I-355J0D01*
G01Y-257209D02*
G03I-355J0D01*
G01Y-256509D02*
G03I-355J0D01*
G01X1059655Y-263909D02*
G03I-355J0D01*
G01X1062725D02*
G03I-355J0D01*
G01X1065795D02*
G03I-355J0D01*
G01X1059655Y-263459D02*
G03I-355J0D01*
G01Y-262759D02*
G03I-355J0D01*
G01Y-262069D02*
G03I-355J0D01*
G01Y-261369D02*
G03I-355J0D01*
G01Y-260678D02*
G03I-355J0D01*
G01Y-259978D02*
G03I-355J0D01*
G01Y-259289D02*
G03I-355J0D01*
G01Y-258598D02*
G03I-355J0D01*
G01Y-257899D02*
G03I-355J0D01*
G01Y-257209D02*
G03I-355J0D01*
G01Y-256509D02*
G03I-355J0D01*
G01X1062725Y-263459D02*
G03I-355J0D01*
G01Y-262759D02*
G03I-355J0D01*
G01Y-262069D02*
G03I-355J0D01*
G01Y-261369D02*
G03I-355J0D01*
G01Y-260678D02*
G03I-355J0D01*
G01Y-259978D02*
G03I-355J0D01*
G01Y-259289D02*
G03I-355J0D01*
G01Y-258598D02*
G03I-355J0D01*
G01Y-257899D02*
G03I-355J0D01*
G01Y-257209D02*
G03I-355J0D01*
G01Y-256509D02*
G03I-355J0D01*
G01X1065795Y-263459D02*
G03I-355J0D01*
G01Y-262759D02*
G03I-355J0D01*
G01Y-262069D02*
G03I-355J0D01*
G01Y-261369D02*
G03I-355J0D01*
G01Y-260678D02*
G03I-355J0D01*
G01Y-259978D02*
G03I-355J0D01*
G01Y-259289D02*
G03I-355J0D01*
G01Y-258598D02*
G03I-355J0D01*
G01Y-257899D02*
G03I-355J0D01*
G01Y-257209D02*
G03I-355J0D01*
G01Y-256509D02*
G03I-355J0D01*
G01X1054000Y1210431D02*
Y1220431D01*
X1056500D01*
X1057500Y1219931D01*
X1058250Y1219265D01*
X1058875Y1218265D01*
X1059375Y1217098D01*
X1059500Y1215431D01*
X1059375Y1213765D01*
X1058875Y1212598D01*
X1058250Y1211598D01*
X1057500Y1210931D01*
X1056500Y1210431D01*
X1054000D01*
G01X1069250D02*
X1064250D01*
Y1220431D01*
X1069250D01*
G01X1067250Y1215598D02*
X1064250D01*
G01X1074125Y1211764D02*
X1075125Y1210931D01*
X1076250Y1210431D01*
X1077250D01*
X1078250Y1210931D01*
X1079000Y1211764D01*
X1079375Y1212932D01*
X1079125Y1214098D01*
X1078500Y1215098D01*
X1077375Y1215765D01*
X1075875Y1216098D01*
X1075000Y1216765D01*
X1074625Y1217931D01*
X1074875Y1219098D01*
X1075500Y1219931D01*
X1076375Y1220431D01*
X1077250D01*
X1078125Y1220098D01*
X1078875Y1219265D01*
G01X1089500Y1219598D02*
X1088750Y1220098D01*
X1087875Y1220431D01*
X1086875D01*
X1085750Y1219931D01*
X1084875Y1219098D01*
X1084250Y1218098D01*
X1083750Y1216431D01*
X1083625Y1214931D01*
X1083875Y1213431D01*
X1084250Y1212431D01*
X1085000Y1211431D01*
X1085875Y1210765D01*
X1086750Y1210431D01*
X1087625D01*
X1088500Y1210765D01*
X1089250Y1211265D01*
X1089875Y1211931D01*
G01X1094250Y1210431D02*
Y1220431D01*
X1097375D01*
X1098375Y1219931D01*
X1099000Y1219265D01*
X1099250Y1217931D01*
X1099000Y1216598D01*
X1098250Y1215765D01*
X1097375Y1215265D01*
X1094250D01*
G01X1097375D02*
X1099250Y1210431D01*
G01X1105250Y1220431D02*
X1108250D01*
G01X1106750D02*
Y1210431D01*
G01X1105250D02*
X1108250D01*
G01X1114250D02*
Y1220431D01*
X1117250D01*
X1118250Y1219931D01*
X1119000Y1218765D01*
X1119250Y1217431D01*
X1119000Y1216098D01*
X1118375Y1215098D01*
X1117250Y1214598D01*
X1114250D01*
G01X1126750Y1220431D02*
Y1210431D01*
G01X1123875Y1220431D02*
X1129625D01*
G01X1135250D02*
X1138250D01*
G01X1136750D02*
Y1210431D01*
G01X1135250D02*
X1138250D01*
G01X1146750D02*
X1145750Y1210598D01*
X1144875Y1211265D01*
X1144125Y1212265D01*
X1143625Y1213431D01*
X1143375Y1214765D01*
Y1216098D01*
X1143625Y1217431D01*
X1144125Y1218598D01*
X1144875Y1219598D01*
X1145750Y1220265D01*
X1146750Y1220431D01*
X1147750Y1220265D01*
X1148625Y1219598D01*
X1149375Y1218598D01*
X1149875Y1217431D01*
X1150125Y1216098D01*
Y1214765D01*
X1149875Y1213431D01*
X1149375Y1212265D01*
X1148625Y1211265D01*
X1147750Y1210598D01*
X1146750Y1210431D01*
G01X1153875D02*
Y1220431D01*
X1159625Y1210431D01*
Y1220431D01*
G01X1115773Y-269985D02*
X1115453Y-269735D01*
X1115080Y-269569D01*
X1114653D01*
X1114173Y-269819D01*
X1113800Y-270235D01*
X1113533Y-270735D01*
X1113320Y-271569D01*
X1113267Y-272319D01*
X1113373Y-273069D01*
X1113533Y-273569D01*
X1113853Y-274069D01*
X1114227Y-274402D01*
X1114600Y-274569D01*
X1114973D01*
X1115347Y-274402D01*
X1115667Y-274152D01*
X1115933Y-273819D01*
G01X1117680Y-274569D02*
Y-269569D01*
G01X1119920D02*
Y-274569D01*
G01Y-272069D02*
X1117680D01*
G01X1124067Y-274569D02*
X1121933D01*
Y-269569D01*
X1124067D01*
G01X1123213Y-271985D02*
X1121933D01*
G01X1128373Y-269985D02*
X1128053Y-269735D01*
X1127680Y-269569D01*
X1127253D01*
X1126773Y-269819D01*
X1126400Y-270235D01*
X1126133Y-270735D01*
X1125920Y-271569D01*
X1125867Y-272319D01*
X1125973Y-273069D01*
X1126133Y-273569D01*
X1126453Y-274069D01*
X1126827Y-274402D01*
X1127200Y-274569D01*
X1127573D01*
X1127947Y-274402D01*
X1128267Y-274152D01*
X1128533Y-273819D01*
G01X1130227Y-274569D02*
Y-269569D01*
G01X1132253D02*
X1130227Y-272652D01*
G01X1132573Y-274569D02*
X1131133Y-271235D01*
G01X1136667Y-274569D02*
X1134533D01*
Y-269569D01*
X1136667D01*
G01X1135813Y-271985D02*
X1134533D01*
G01X1138733Y-274569D02*
Y-269569D01*
X1140067D01*
X1140493Y-269819D01*
X1140760Y-270152D01*
X1140867Y-270819D01*
X1140760Y-271485D01*
X1140440Y-271902D01*
X1140067Y-272152D01*
X1138733D01*
G01X1140067D02*
X1140867Y-274569D01*
G01X1144000Y-274735D02*
X1143893Y-274652D01*
Y-274485D01*
X1144000Y-274402D01*
X1144107Y-274485D01*
Y-274652D01*
X1144000Y-274735D01*
G01Y-272485D02*
X1143893Y-272402D01*
Y-272235D01*
X1144000Y-272152D01*
X1144107Y-272235D01*
Y-272402D01*
X1144000Y-272485D01*
G01X1114427Y-285569D02*
Y-280569D01*
X1115493D01*
X1115920Y-280819D01*
X1116240Y-281152D01*
X1116507Y-281652D01*
X1116720Y-282235D01*
X1116773Y-283069D01*
X1116720Y-283902D01*
X1116507Y-284485D01*
X1116240Y-284985D01*
X1115920Y-285319D01*
X1115493Y-285569D01*
X1114427D01*
G01X1118467D02*
X1119800Y-280569D01*
X1121133Y-285569D01*
G01X1120653Y-283819D02*
X1118947D01*
G01X1124000Y-280569D02*
Y-285569D01*
G01X1122773Y-280569D02*
X1125227D01*
G01X1129267Y-285569D02*
X1127133D01*
Y-280569D01*
X1129267D01*
G01X1128413Y-282985D02*
X1127133D01*
G01X1132400Y-285735D02*
X1132293Y-285652D01*
Y-285485D01*
X1132400Y-285402D01*
X1132507Y-285485D01*
Y-285652D01*
X1132400Y-285735D01*
G01Y-283485D02*
X1132293Y-283402D01*
Y-283235D01*
X1132400Y-283152D01*
X1132507Y-283235D01*
Y-283402D01*
X1132400Y-283485D01*
G01X1113533Y-295569D02*
X1113800Y-296069D01*
X1114120Y-296402D01*
X1114493Y-296569D01*
X1114920Y-296402D01*
X1115240Y-296069D01*
X1115560Y-295569D01*
X1115667Y-294902D01*
Y-291569D01*
G01X1118800Y-296569D02*
X1118373Y-296485D01*
X1118000Y-296152D01*
X1117680Y-295652D01*
X1117467Y-295069D01*
X1117360Y-294402D01*
Y-293735D01*
X1117467Y-293069D01*
X1117680Y-292485D01*
X1118000Y-291985D01*
X1118373Y-291652D01*
X1118800Y-291569D01*
X1119227Y-291652D01*
X1119600Y-291985D01*
X1119920Y-292485D01*
X1120133Y-293069D01*
X1120240Y-293735D01*
Y-294402D01*
X1120133Y-295069D01*
X1119920Y-295652D01*
X1119600Y-296152D01*
X1119227Y-296485D01*
X1118800Y-296569D01*
G01X1123427Y-293902D02*
X1123640Y-293652D01*
X1123800Y-293235D01*
X1123907Y-292652D01*
X1123800Y-292152D01*
X1123587Y-291819D01*
X1123213Y-291569D01*
X1121773D01*
Y-296569D01*
X1123533D01*
X1123907Y-296235D01*
X1124120Y-295735D01*
X1124227Y-295152D01*
X1124120Y-294569D01*
X1123800Y-294069D01*
X1123427Y-293902D01*
X1121773D01*
G01X1126133Y-298235D02*
X1127200Y-291569D01*
G01X1128267D02*
X1127200Y-298235D01*
G01X1125600Y-295735D02*
X1128800D01*
G01Y-294069D02*
X1125600D01*
G01X1131400Y-296735D02*
X1131293Y-296652D01*
Y-296485D01*
X1131400Y-296402D01*
X1131507Y-296485D01*
Y-296652D01*
X1131400Y-296735D01*
G01Y-294485D02*
X1131293Y-294402D01*
Y-294235D01*
X1131400Y-294152D01*
X1131507Y-294235D01*
Y-294402D01*
X1131400Y-294485D01*
G01X1225500Y-277069D02*
X1108000D01*
G01X1215500Y-287569D02*
X1108000D01*
G01Y-224569D02*
Y-299569D01*
G01X1123867Y-244569D02*
Y-236569D01*
X1125947D01*
X1126640Y-236969D01*
X1127160Y-237902D01*
X1127333Y-238969D01*
X1127160Y-240035D01*
X1126727Y-240835D01*
X1125947Y-241236D01*
X1123867D01*
G01X1130233Y-244569D02*
X1132400Y-236569D01*
X1134567Y-244569D01*
G01X1133787Y-241769D02*
X1131013D01*
G01X1137207Y-244569D02*
Y-236569D01*
X1141193Y-244569D01*
Y-236569D01*
G01X1147733Y-244569D02*
X1144267D01*
Y-236569D01*
X1147733D01*
G01X1146347Y-240435D02*
X1144267D01*
G01X1151067Y-236569D02*
Y-244569D01*
X1154533D01*
G01X1164493D02*
Y-236569D01*
X1166227D01*
X1166920Y-236969D01*
X1167440Y-237502D01*
X1167873Y-238302D01*
X1168220Y-239235D01*
X1168307Y-240569D01*
X1168220Y-241902D01*
X1167873Y-242835D01*
X1167440Y-243636D01*
X1166920Y-244169D01*
X1166227Y-244569D01*
X1164493D01*
G01X1171467D02*
Y-236569D01*
X1173633D01*
X1174327Y-236969D01*
X1174760Y-237502D01*
X1174933Y-238569D01*
X1174760Y-239635D01*
X1174240Y-240302D01*
X1173633Y-240702D01*
X1171467D01*
G01X1173633D02*
X1174933Y-244569D01*
G01X1177833D02*
X1180000Y-236569D01*
X1182167Y-244569D01*
G01X1181387Y-241769D02*
X1178613D01*
G01X1184200Y-236569D02*
X1185413Y-244569D01*
X1186800Y-236569D01*
X1188187Y-244569D01*
X1189400Y-236569D01*
G01X1192560D02*
X1194640D01*
G01X1193600D02*
Y-244569D01*
G01X1192560D02*
X1194640D01*
G01X1198407D02*
Y-236569D01*
X1202393Y-244569D01*
Y-236569D01*
G01X1207720Y-240569D02*
X1209453D01*
Y-242969D01*
X1208933Y-243769D01*
X1208327Y-244302D01*
X1207460Y-244569D01*
X1206593Y-244302D01*
X1205987Y-243769D01*
X1205467Y-242969D01*
X1205120Y-242035D01*
X1204947Y-240969D01*
Y-240035D01*
X1205120Y-239235D01*
X1205467Y-238302D01*
X1205987Y-237502D01*
X1206507Y-236969D01*
X1207200Y-236569D01*
X1207807D01*
X1208500Y-236835D01*
X1209020Y-237369D01*
G01X1113427Y-263569D02*
Y-258569D01*
X1114493D01*
X1114920Y-258819D01*
X1115240Y-259152D01*
X1115507Y-259652D01*
X1115720Y-260235D01*
X1115773Y-261069D01*
X1115720Y-261902D01*
X1115507Y-262485D01*
X1115240Y-262985D01*
X1114920Y-263319D01*
X1114493Y-263569D01*
X1113427D01*
G01X1119867D02*
X1117733D01*
Y-258569D01*
X1119867D01*
G01X1119013Y-260985D02*
X1117733D01*
G01X1121880Y-262902D02*
X1122307Y-263319D01*
X1122787Y-263569D01*
X1123213D01*
X1123640Y-263319D01*
X1123960Y-262902D01*
X1124120Y-262319D01*
X1124013Y-261735D01*
X1123747Y-261235D01*
X1123267Y-260902D01*
X1122627Y-260735D01*
X1122253Y-260402D01*
X1122093Y-259819D01*
X1122200Y-259235D01*
X1122467Y-258819D01*
X1122840Y-258569D01*
X1123213D01*
X1123587Y-258735D01*
X1123907Y-259152D01*
G01X1126560Y-258569D02*
X1127840D01*
G01X1127200D02*
Y-263569D01*
G01X1126560D02*
X1127840D01*
G01X1131720Y-261069D02*
X1132787D01*
Y-262569D01*
X1132467Y-263069D01*
X1132093Y-263402D01*
X1131560Y-263569D01*
X1131027Y-263402D01*
X1130653Y-263069D01*
X1130333Y-262569D01*
X1130120Y-261985D01*
X1130013Y-261319D01*
Y-260735D01*
X1130120Y-260235D01*
X1130333Y-259652D01*
X1130653Y-259152D01*
X1130973Y-258819D01*
X1131400Y-258569D01*
X1131773D01*
X1132200Y-258735D01*
X1132520Y-259069D01*
G01X1134373Y-263569D02*
Y-258569D01*
X1136827Y-263569D01*
Y-258569D01*
G01X1140867Y-263569D02*
X1138733D01*
Y-258569D01*
X1140867D01*
G01X1140013Y-260985D02*
X1138733D01*
G01X1142933Y-263569D02*
Y-258569D01*
X1144267D01*
X1144693Y-258819D01*
X1144960Y-259152D01*
X1145067Y-259819D01*
X1144960Y-260485D01*
X1144640Y-260902D01*
X1144267Y-261152D01*
X1142933D01*
G01X1144267D02*
X1145067Y-263569D01*
G01X1148200Y-263735D02*
X1148093Y-263652D01*
Y-263485D01*
X1148200Y-263402D01*
X1148307Y-263485D01*
Y-263652D01*
X1148200Y-263735D01*
G01Y-261485D02*
X1148093Y-261402D01*
Y-261235D01*
X1148200Y-261152D01*
X1148307Y-261235D01*
Y-261402D01*
X1148200Y-261485D01*
G01X1225500Y-254569D02*
X1108000D01*
G01X1215500Y-265569D02*
X1108000D01*
G01X1153960Y-269569D02*
X1155240D01*
G01X1154600D02*
Y-274569D01*
G01X1153960D02*
X1155240D01*
G01X1157573D02*
Y-269569D01*
X1160027Y-274569D01*
Y-269569D01*
G01X1162360D02*
X1163640D01*
G01X1163000D02*
Y-274569D01*
G01X1162360D02*
X1163640D01*
G01X1167200Y-269569D02*
Y-274569D01*
G01X1165973Y-269569D02*
X1168427D01*
G01X1170760D02*
X1172040D01*
G01X1171400D02*
Y-274569D01*
G01X1170760D02*
X1172040D01*
G01X1174267D02*
X1175600Y-269569D01*
X1176933Y-274569D01*
G01X1176453Y-272819D02*
X1174747D01*
G01X1178733Y-269569D02*
Y-274569D01*
X1180867D01*
G01X1140587Y-281402D02*
X1140907Y-280902D01*
X1141280Y-280652D01*
X1141707Y-280569D01*
X1142240Y-280735D01*
X1142613Y-281152D01*
X1142720Y-281652D01*
X1142667Y-282152D01*
X1142453Y-282569D01*
X1141387Y-283402D01*
X1140907Y-283985D01*
X1140587Y-284819D01*
X1140480Y-285569D01*
X1142720D01*
G01X1145800Y-280569D02*
X1145373Y-280735D01*
X1145053Y-281152D01*
X1144840Y-281652D01*
X1144680Y-282319D01*
X1144627Y-283069D01*
X1144680Y-283819D01*
X1144840Y-284485D01*
X1145053Y-284985D01*
X1145373Y-285402D01*
X1145800Y-285569D01*
X1146227Y-285402D01*
X1146547Y-284985D01*
X1146760Y-284485D01*
X1146920Y-283819D01*
X1146973Y-283069D01*
X1146920Y-282319D01*
X1146760Y-281652D01*
X1146547Y-281152D01*
X1146227Y-280735D01*
X1145800Y-280569D01*
G01X1150000Y-285569D02*
Y-280569D01*
X1149360Y-281568D01*
G01Y-285569D02*
X1150640D01*
G01X1153187Y-283485D02*
X1153560Y-282902D01*
X1153880Y-282569D01*
X1154307Y-282402D01*
X1154680Y-282569D01*
X1154947Y-282902D01*
X1155160Y-283402D01*
X1155213Y-283985D01*
X1155160Y-284485D01*
X1154947Y-284985D01*
X1154627Y-285402D01*
X1154253Y-285569D01*
X1153827Y-285402D01*
X1153453Y-284902D01*
X1153240Y-284152D01*
X1153187Y-283319D01*
X1153293Y-282235D01*
X1153453Y-281652D01*
X1153720Y-281069D01*
X1154093Y-280652D01*
X1154467Y-280569D01*
X1154840Y-280735D01*
X1155107Y-281152D01*
G01X1157707Y-283902D02*
X1159093D01*
G01X1162600Y-280569D02*
X1162173Y-280735D01*
X1161853Y-281152D01*
X1161640Y-281652D01*
X1161480Y-282319D01*
X1161427Y-283069D01*
X1161480Y-283819D01*
X1161640Y-284485D01*
X1161853Y-284985D01*
X1162173Y-285402D01*
X1162600Y-285569D01*
X1163027Y-285402D01*
X1163347Y-284985D01*
X1163560Y-284485D01*
X1163720Y-283819D01*
X1163773Y-283069D01*
X1163720Y-282319D01*
X1163560Y-281652D01*
X1163347Y-281152D01*
X1163027Y-280735D01*
X1162600Y-280569D01*
G01X1165787Y-281402D02*
X1166107Y-280902D01*
X1166480Y-280652D01*
X1166907Y-280569D01*
X1167440Y-280735D01*
X1167813Y-281152D01*
X1167920Y-281652D01*
X1167867Y-282152D01*
X1167653Y-282569D01*
X1166587Y-283402D01*
X1166107Y-283985D01*
X1165787Y-284819D01*
X1165680Y-285569D01*
X1167920D01*
G01X1170307Y-283902D02*
X1171693D01*
G01X1174187Y-281402D02*
X1174507Y-280902D01*
X1174880Y-280652D01*
X1175307Y-280569D01*
X1175840Y-280735D01*
X1176213Y-281152D01*
X1176320Y-281652D01*
X1176267Y-282152D01*
X1176053Y-282569D01*
X1174987Y-283402D01*
X1174507Y-283985D01*
X1174187Y-284819D01*
X1174080Y-285569D01*
X1176320D01*
G01X1178387Y-283485D02*
X1178760Y-282902D01*
X1179080Y-282569D01*
X1179507Y-282402D01*
X1179880Y-282569D01*
X1180147Y-282902D01*
X1180360Y-283402D01*
X1180413Y-283985D01*
X1180360Y-284485D01*
X1180147Y-284985D01*
X1179827Y-285402D01*
X1179453Y-285569D01*
X1179027Y-285402D01*
X1178653Y-284902D01*
X1178440Y-284152D01*
X1178387Y-283319D01*
X1178493Y-282235D01*
X1178653Y-281652D01*
X1178920Y-281069D01*
X1179293Y-280652D01*
X1179667Y-280569D01*
X1180040Y-280735D01*
X1180307Y-281152D01*
G01X1153533Y-263569D02*
Y-258569D01*
X1154813D01*
X1155240Y-258819D01*
X1155560Y-259402D01*
X1155667Y-260069D01*
X1155560Y-260735D01*
X1155293Y-261235D01*
X1154813Y-261485D01*
X1153533D01*
G01X1158800Y-258569D02*
Y-263569D01*
G01X1157573Y-258569D02*
X1160027D01*
G01X1164067Y-263569D02*
X1161933D01*
Y-258569D01*
X1164067D01*
G01X1163213Y-260985D02*
X1161933D01*
G01X1168373Y-258985D02*
X1168053Y-258735D01*
X1167680Y-258569D01*
X1167253D01*
X1166773Y-258819D01*
X1166400Y-259235D01*
X1166133Y-259735D01*
X1165920Y-260569D01*
X1165867Y-261319D01*
X1165973Y-262069D01*
X1166133Y-262569D01*
X1166453Y-263069D01*
X1166827Y-263402D01*
X1167200Y-263569D01*
X1167573D01*
X1167947Y-263402D01*
X1168267Y-263152D01*
X1168533Y-262819D01*
G01X1144250Y1240431D02*
Y1250431D01*
X1147375D01*
X1148375Y1249931D01*
X1149000Y1249265D01*
X1149250Y1247931D01*
X1149000Y1246598D01*
X1148250Y1245765D01*
X1147375Y1245265D01*
X1144250D01*
G01X1147375D02*
X1149250Y1240431D01*
G01X1159250D02*
X1154250D01*
Y1250431D01*
X1159250D01*
G01X1157250Y1245598D02*
X1154250D01*
G01X1163625Y1250431D02*
X1166750Y1240431D01*
X1169875Y1250431D01*
G01X1175250D02*
X1178250D01*
G01X1176750D02*
Y1240431D01*
G01X1175250D02*
X1178250D01*
G01X1184125Y1241764D02*
X1185125Y1240931D01*
X1186250Y1240431D01*
X1187250D01*
X1188250Y1240931D01*
X1189000Y1241764D01*
X1189375Y1242932D01*
X1189125Y1244098D01*
X1188500Y1245098D01*
X1187375Y1245765D01*
X1185875Y1246098D01*
X1185000Y1246765D01*
X1184625Y1247931D01*
X1184875Y1249098D01*
X1185500Y1249931D01*
X1186375Y1250431D01*
X1187250D01*
X1188125Y1250098D01*
X1188875Y1249265D01*
G01X1195250Y1250431D02*
X1198250D01*
G01X1196750D02*
Y1240431D01*
G01X1195250D02*
X1198250D01*
G01X1206750D02*
X1205750Y1240598D01*
X1204875Y1241265D01*
X1204125Y1242265D01*
X1203625Y1243431D01*
X1203375Y1244765D01*
Y1246098D01*
X1203625Y1247431D01*
X1204125Y1248598D01*
X1204875Y1249598D01*
X1205750Y1250265D01*
X1206750Y1250431D01*
X1207750Y1250265D01*
X1208625Y1249598D01*
X1209375Y1248598D01*
X1209875Y1247431D01*
X1210125Y1246098D01*
Y1244765D01*
X1209875Y1243431D01*
X1209375Y1242265D01*
X1208625Y1241265D01*
X1207750Y1240598D01*
X1206750Y1240431D01*
G01X1213875D02*
Y1250431D01*
X1219625Y1240431D01*
Y1250431D01*
G01X1224125Y1241764D02*
X1225125Y1240931D01*
X1226250Y1240431D01*
X1227250D01*
X1228250Y1240931D01*
X1229000Y1241764D01*
X1229375Y1242932D01*
X1229125Y1244098D01*
X1228500Y1245098D01*
X1227375Y1245765D01*
X1225875Y1246098D01*
X1225000Y1246765D01*
X1224625Y1247931D01*
X1224875Y1249098D01*
X1225500Y1249931D01*
X1226375Y1250431D01*
X1227250D01*
X1228125Y1250098D01*
X1228875Y1249265D01*
G01X1215500Y-224569D02*
Y-299569D01*
G01X1229033Y-284669D02*
Y-278669D01*
X1231567D01*
G01X1230633Y-281568D02*
X1229033D01*
G01X1233833Y-284669D02*
X1235500Y-278669D01*
X1237167Y-284669D01*
G01X1236567Y-282569D02*
X1234433D01*
G01X1241233Y-281469D02*
X1241500Y-281169D01*
X1241700Y-280669D01*
X1241833Y-279968D01*
X1241700Y-279369D01*
X1241433Y-278969D01*
X1240967Y-278669D01*
X1239167D01*
Y-284669D01*
X1241367D01*
X1241833Y-284269D01*
X1242100Y-283669D01*
X1242233Y-282969D01*
X1242100Y-282269D01*
X1241700Y-281669D01*
X1241233Y-281469D01*
X1239167D01*
G01X1249567Y-284669D02*
Y-278669D01*
X1252633Y-284669D01*
Y-278669D01*
G01X1254833D02*
Y-282969D01*
X1255100Y-283869D01*
X1255633Y-284469D01*
X1256300Y-284669D01*
X1256967Y-284469D01*
X1257500Y-283869D01*
X1257767Y-282969D01*
Y-278669D01*
G01X1259767Y-284669D02*
Y-278669D01*
X1261500Y-283669D01*
X1263233Y-278669D01*
Y-284669D01*
G01X1267233Y-281469D02*
X1267500Y-281169D01*
X1267700Y-280669D01*
X1267833Y-279968D01*
X1267700Y-279369D01*
X1267433Y-278969D01*
X1266967Y-278669D01*
X1265167D01*
Y-284669D01*
X1267367D01*
X1267833Y-284269D01*
X1268100Y-283669D01*
X1268233Y-282969D01*
X1268100Y-282269D01*
X1267700Y-281669D01*
X1267233Y-281469D01*
X1265167D01*
G01X1273233Y-284669D02*
X1270567D01*
Y-278669D01*
X1273233D01*
G01X1272167Y-281568D02*
X1270567D01*
G01X1275767Y-284669D02*
Y-278669D01*
X1277433D01*
X1277967Y-278969D01*
X1278300Y-279369D01*
X1278433Y-280169D01*
X1278300Y-280969D01*
X1277900Y-281469D01*
X1277433Y-281769D01*
X1275767D01*
G01X1277433D02*
X1278433Y-284669D01*
G01X1282300Y-284869D02*
X1282167Y-284769D01*
Y-284569D01*
X1282300Y-284469D01*
X1282433Y-284569D01*
Y-284769D01*
X1282300Y-284869D01*
G01Y-282169D02*
X1282167Y-282069D01*
Y-281869D01*
X1282300Y-281769D01*
X1282433Y-281869D01*
Y-282069D01*
X1282300Y-282169D01*
G01X1236007Y-297069D02*
Y-289069D01*
X1239993Y-297069D01*
Y-289069D01*
G01X1242893D02*
Y-294802D01*
X1243240Y-296002D01*
X1243933Y-296802D01*
X1244800Y-297069D01*
X1245667Y-296802D01*
X1246360Y-296002D01*
X1246707Y-294802D01*
Y-289069D01*
G01X1249347Y-297069D02*
Y-289069D01*
X1251600Y-295735D01*
X1253853Y-289069D01*
Y-297069D01*
G01X1259093Y-292802D02*
X1259440Y-292402D01*
X1259700Y-291735D01*
X1259873Y-290802D01*
X1259700Y-290002D01*
X1259353Y-289469D01*
X1258747Y-289069D01*
X1256407D01*
Y-297069D01*
X1259267D01*
X1259873Y-296535D01*
X1260220Y-295735D01*
X1260393Y-294802D01*
X1260220Y-293869D01*
X1259700Y-293069D01*
X1259093Y-292802D01*
X1256407D01*
G01X1266933Y-297069D02*
X1263467D01*
Y-289069D01*
X1266933D01*
G01X1265547Y-292935D02*
X1263467D01*
G01X1270267Y-297069D02*
Y-289069D01*
X1272433D01*
X1273127Y-289469D01*
X1273560Y-290002D01*
X1273733Y-291069D01*
X1273560Y-292135D01*
X1273040Y-292802D01*
X1272433Y-293202D01*
X1270267D01*
G01X1272433D02*
X1273733Y-297069D01*
G01X1231433Y-273000D02*
X1227967D01*
Y-265000D01*
X1231433D01*
G01X1230047Y-268867D02*
X1227967D01*
G01X1234333Y-265000D02*
X1236500Y-273000D01*
X1238667Y-265000D01*
G01X1241393Y-273000D02*
Y-265000D01*
G01X1244687D02*
X1241393Y-269934D01*
G01X1245207Y-273000D02*
X1242867Y-267667D01*
G01X1250100Y-273000D02*
Y-265000D01*
X1249060Y-266600D01*
G01Y-273000D02*
X1251140D01*
G01X1261967D02*
Y-265000D01*
X1264047D01*
X1264740Y-265400D01*
X1265260Y-266333D01*
X1265433Y-267400D01*
X1265260Y-268467D01*
X1264827Y-269267D01*
X1264047Y-269667D01*
X1261967D01*
G01X1268507Y-273000D02*
Y-265000D01*
X1272493Y-273000D01*
Y-265000D01*
G01X1277300Y-273267D02*
X1277127Y-273133D01*
Y-272867D01*
X1277300Y-272733D01*
X1277473Y-272867D01*
Y-273133D01*
X1277300Y-273267D01*
G01Y-269667D02*
X1277127Y-269533D01*
Y-269267D01*
X1277300Y-269133D01*
X1277473Y-269267D01*
Y-269533D01*
X1277300Y-269667D01*
G01X1284793Y-268733D02*
X1285140Y-268333D01*
X1285400Y-267667D01*
X1285573Y-266733D01*
X1285400Y-265933D01*
X1285053Y-265400D01*
X1284447Y-265000D01*
X1282107D01*
Y-273000D01*
X1284967D01*
X1285573Y-272467D01*
X1285920Y-271667D01*
X1286093Y-270733D01*
X1285920Y-269800D01*
X1285400Y-269000D01*
X1284793Y-268733D01*
X1282107D01*
G01X1288647Y-273000D02*
Y-265000D01*
X1290900Y-271667D01*
X1293153Y-265000D01*
Y-273000D01*
G01X1296227Y-272067D02*
X1296833Y-272733D01*
X1297527Y-273000D01*
X1298220Y-272733D01*
X1298827Y-271934D01*
X1299260Y-270733D01*
X1299433Y-269533D01*
Y-268067D01*
X1299260Y-266867D01*
X1298827Y-265800D01*
X1298307Y-265267D01*
X1297700Y-265000D01*
X1297007Y-265267D01*
X1296487Y-265800D01*
X1296140Y-266600D01*
X1295967Y-267667D01*
X1296140Y-268600D01*
X1296573Y-269533D01*
X1297093Y-270067D01*
X1297700Y-270200D01*
X1298393Y-269934D01*
X1298913Y-269267D01*
X1299433Y-268067D01*
G01X1302853Y-266333D02*
X1303373Y-265534D01*
X1303980Y-265133D01*
X1304673Y-265000D01*
X1305540Y-265267D01*
X1306147Y-265933D01*
X1306320Y-266733D01*
X1306233Y-267534D01*
X1305887Y-268200D01*
X1304153Y-269533D01*
X1303373Y-270467D01*
X1302853Y-271800D01*
X1302680Y-273000D01*
X1306320D01*
G01X1311300Y-265000D02*
Y-273000D01*
G01X1309307Y-265000D02*
X1313293D01*
G01X1316193Y-271400D02*
X1316713Y-272334D01*
X1317407Y-272867D01*
X1318187Y-273000D01*
X1318880Y-272867D01*
X1319573Y-272200D01*
X1320007Y-271400D01*
X1320093Y-270600D01*
X1319920Y-269667D01*
X1319313Y-269000D01*
X1318707Y-268733D01*
X1317927D01*
G01X1318707D02*
X1319227Y-268333D01*
X1319660Y-267667D01*
X1319833Y-266867D01*
X1319660Y-266067D01*
X1319227Y-265400D01*
X1318447Y-265000D01*
X1317667Y-265133D01*
X1316887Y-265667D01*
G01X1324900Y-265000D02*
X1324207Y-265267D01*
X1323687Y-265933D01*
X1323340Y-266733D01*
X1323080Y-267800D01*
X1322993Y-269000D01*
X1323080Y-270200D01*
X1323340Y-271267D01*
X1323687Y-272067D01*
X1324207Y-272733D01*
X1324900Y-273000D01*
X1325593Y-272733D01*
X1326113Y-272067D01*
X1326460Y-271267D01*
X1326720Y-270200D01*
X1326807Y-269000D01*
X1326720Y-267800D01*
X1326460Y-266733D01*
X1326113Y-265933D01*
X1325593Y-265267D01*
X1324900Y-265000D01*
G01X1330573Y-270333D02*
X1332827D01*
G01X1336680Y-273000D02*
Y-265000D01*
G01X1340320D02*
Y-273000D01*
G01Y-269000D02*
X1336680D01*
G01X1345300Y-273000D02*
X1344607Y-272867D01*
X1344000Y-272334D01*
X1343480Y-271533D01*
X1343133Y-270600D01*
X1342960Y-269533D01*
Y-268467D01*
X1343133Y-267400D01*
X1343480Y-266467D01*
X1344000Y-265667D01*
X1344607Y-265133D01*
X1345300Y-265000D01*
X1345993Y-265133D01*
X1346600Y-265667D01*
X1347120Y-266467D01*
X1347467Y-267400D01*
X1347640Y-268467D01*
Y-269533D01*
X1347467Y-270600D01*
X1347120Y-271533D01*
X1346600Y-272334D01*
X1345993Y-272867D01*
X1345300Y-273000D01*
G01X1350280Y-271934D02*
X1350973Y-272600D01*
X1351753Y-273000D01*
X1352447D01*
X1353140Y-272600D01*
X1353660Y-271934D01*
X1353920Y-271000D01*
X1353747Y-270067D01*
X1353313Y-269267D01*
X1352533Y-268733D01*
X1351493Y-268467D01*
X1350887Y-267933D01*
X1350627Y-267000D01*
X1350800Y-266067D01*
X1351233Y-265400D01*
X1351840Y-265000D01*
X1352447D01*
X1353053Y-265267D01*
X1353573Y-265933D01*
G01X1358900Y-265000D02*
Y-273000D01*
G01X1356907Y-265000D02*
X1360893D01*
G01X1364573Y-270333D02*
X1366827D01*
G01X1374233Y-273000D02*
X1370767D01*
Y-265000D01*
X1374233D01*
G01X1372847Y-268867D02*
X1370767D01*
G01X1377133Y-265000D02*
X1379300Y-273000D01*
X1381467Y-265000D01*
G01X1384193Y-273000D02*
Y-265000D01*
G01X1387487D02*
X1384193Y-269934D01*
G01X1388007Y-273000D02*
X1385667Y-267667D01*
G01X1391773Y-270333D02*
X1394027D01*
G01X1399700Y-273000D02*
Y-265000D01*
X1398660Y-266600D01*
G01Y-273000D02*
X1400740D01*
G01X1406500Y-265000D02*
X1405807Y-265267D01*
X1405287Y-265933D01*
X1404940Y-266733D01*
X1404680Y-267800D01*
X1404593Y-269000D01*
X1404680Y-270200D01*
X1404940Y-271267D01*
X1405287Y-272067D01*
X1405807Y-272733D01*
X1406500Y-273000D01*
X1407193Y-272733D01*
X1407713Y-272067D01*
X1408060Y-271267D01*
X1408320Y-270200D01*
X1408407Y-269000D01*
X1408320Y-267800D01*
X1408060Y-266733D01*
X1407713Y-265933D01*
X1407193Y-265267D01*
X1406500Y-265000D01*
G01X1413300Y-273000D02*
Y-265000D01*
X1412260Y-266600D01*
G01Y-273000D02*
X1414340D01*
G01X1423000Y-277069D02*
X1225500D01*
G01X1244867Y-250069D02*
Y-242069D01*
X1247033D01*
X1247727Y-242469D01*
X1248160Y-243002D01*
X1248333Y-244069D01*
X1248160Y-245135D01*
X1247640Y-245802D01*
X1247033Y-246202D01*
X1244867D01*
G01X1247033D02*
X1248333Y-250069D01*
G01X1253400D02*
X1252707Y-249935D01*
X1252100Y-249402D01*
X1251580Y-248602D01*
X1251233Y-247669D01*
X1251060Y-246602D01*
Y-245535D01*
X1251233Y-244469D01*
X1251580Y-243535D01*
X1252100Y-242735D01*
X1252707Y-242202D01*
X1253400Y-242069D01*
X1254093Y-242202D01*
X1254700Y-242735D01*
X1255220Y-243535D01*
X1255567Y-244469D01*
X1255740Y-245535D01*
Y-246602D01*
X1255567Y-247669D01*
X1255220Y-248602D01*
X1254700Y-249402D01*
X1254093Y-249935D01*
X1253400Y-250069D01*
G01X1258380D02*
Y-242069D01*
G01X1262020D02*
Y-250069D01*
G01Y-246069D02*
X1258380D01*
G01X1264747Y-250069D02*
Y-242069D01*
X1267000Y-248735D01*
X1269253Y-242069D01*
Y-250069D01*
G01X1278780Y-249002D02*
X1279473Y-249669D01*
X1280253Y-250069D01*
X1280947D01*
X1281640Y-249669D01*
X1282160Y-249002D01*
X1282420Y-248068D01*
X1282247Y-247135D01*
X1281813Y-246335D01*
X1281033Y-245802D01*
X1279993Y-245535D01*
X1279387Y-245002D01*
X1279127Y-244069D01*
X1279300Y-243135D01*
X1279733Y-242469D01*
X1280340Y-242069D01*
X1280947D01*
X1281553Y-242335D01*
X1282073Y-243002D01*
G01X1289133Y-250069D02*
X1285667D01*
Y-242069D01*
X1289133D01*
G01X1287747Y-245935D02*
X1285667D01*
G01X1291947Y-250069D02*
Y-242069D01*
X1294200Y-248735D01*
X1296453Y-242069D01*
Y-250069D01*
G01X1299960Y-242069D02*
X1302040D01*
G01X1301000D02*
Y-250069D01*
G01X1299960D02*
X1302040D01*
G01X1309707Y-242735D02*
X1309187Y-242335D01*
X1308580Y-242069D01*
X1307887D01*
X1307107Y-242469D01*
X1306500Y-243135D01*
X1306067Y-243935D01*
X1305720Y-245269D01*
X1305633Y-246469D01*
X1305807Y-247669D01*
X1306067Y-248469D01*
X1306587Y-249269D01*
X1307193Y-249802D01*
X1307800Y-250069D01*
X1308407D01*
X1309013Y-249802D01*
X1309533Y-249402D01*
X1309967Y-248869D01*
G01X1314600Y-250069D02*
X1313907Y-249935D01*
X1313300Y-249402D01*
X1312780Y-248602D01*
X1312433Y-247669D01*
X1312260Y-246602D01*
Y-245535D01*
X1312433Y-244469D01*
X1312780Y-243535D01*
X1313300Y-242735D01*
X1313907Y-242202D01*
X1314600Y-242069D01*
X1315293Y-242202D01*
X1315900Y-242735D01*
X1316420Y-243535D01*
X1316767Y-244469D01*
X1316940Y-245535D01*
Y-246602D01*
X1316767Y-247669D01*
X1316420Y-248602D01*
X1315900Y-249402D01*
X1315293Y-249935D01*
X1314600Y-250069D01*
G01X1319407D02*
Y-242069D01*
X1323393Y-250069D01*
Y-242069D01*
G01X1326293Y-250069D02*
Y-242069D01*
X1328027D01*
X1328720Y-242469D01*
X1329240Y-243002D01*
X1329673Y-243802D01*
X1330020Y-244735D01*
X1330107Y-246069D01*
X1330020Y-247402D01*
X1329673Y-248335D01*
X1329240Y-249136D01*
X1328720Y-249669D01*
X1328027Y-250069D01*
X1326293D01*
G01X1333093Y-242069D02*
Y-247802D01*
X1333440Y-249002D01*
X1334133Y-249802D01*
X1335000Y-250069D01*
X1335867Y-249802D01*
X1336560Y-249002D01*
X1336907Y-247802D01*
Y-242069D01*
G01X1343707Y-242735D02*
X1343187Y-242335D01*
X1342580Y-242069D01*
X1341887D01*
X1341107Y-242469D01*
X1340500Y-243135D01*
X1340067Y-243935D01*
X1339720Y-245269D01*
X1339633Y-246469D01*
X1339807Y-247669D01*
X1340067Y-248469D01*
X1340587Y-249269D01*
X1341193Y-249802D01*
X1341800Y-250069D01*
X1342407D01*
X1343013Y-249802D01*
X1343533Y-249402D01*
X1343967Y-248869D01*
G01X1348600Y-242069D02*
Y-250069D01*
G01X1346607Y-242069D02*
X1350593D01*
G01X1355400Y-250069D02*
X1354707Y-249935D01*
X1354100Y-249402D01*
X1353580Y-248602D01*
X1353233Y-247669D01*
X1353060Y-246602D01*
Y-245535D01*
X1353233Y-244469D01*
X1353580Y-243535D01*
X1354100Y-242735D01*
X1354707Y-242202D01*
X1355400Y-242069D01*
X1356093Y-242202D01*
X1356700Y-242735D01*
X1357220Y-243535D01*
X1357567Y-244469D01*
X1357740Y-245535D01*
Y-246602D01*
X1357567Y-247669D01*
X1357220Y-248602D01*
X1356700Y-249402D01*
X1356093Y-249935D01*
X1355400Y-250069D01*
G01X1360467D02*
Y-242069D01*
X1362633D01*
X1363327Y-242469D01*
X1363760Y-243002D01*
X1363933Y-244069D01*
X1363760Y-245135D01*
X1363240Y-245802D01*
X1362633Y-246202D01*
X1360467D01*
G01X1362633D02*
X1363933Y-250069D01*
G01X1373893Y-242069D02*
Y-247802D01*
X1374240Y-249002D01*
X1374933Y-249802D01*
X1375800Y-250069D01*
X1376667Y-249802D01*
X1377360Y-249002D01*
X1377707Y-247802D01*
Y-242069D01*
G01X1380780Y-249002D02*
X1381473Y-249669D01*
X1382253Y-250069D01*
X1382947D01*
X1383640Y-249669D01*
X1384160Y-249002D01*
X1384420Y-248068D01*
X1384247Y-247135D01*
X1383813Y-246335D01*
X1383033Y-245802D01*
X1381993Y-245535D01*
X1381387Y-245002D01*
X1381127Y-244069D01*
X1381300Y-243135D01*
X1381733Y-242469D01*
X1382340Y-242069D01*
X1382947D01*
X1383553Y-242335D01*
X1384073Y-243002D01*
G01X1387233Y-250069D02*
X1389400Y-242069D01*
X1391567Y-250069D01*
G01X1390787Y-247269D02*
X1388013D01*
G01X1223967Y-227069D02*
X1223567Y-226769D01*
X1223100Y-226569D01*
X1222567D01*
X1221967Y-226869D01*
X1221500Y-227369D01*
X1221167Y-227969D01*
X1220900Y-228969D01*
X1220833Y-229869D01*
X1220967Y-230769D01*
X1221167Y-231369D01*
X1221567Y-231969D01*
X1222033Y-232369D01*
X1222500Y-232569D01*
X1222967D01*
X1223433Y-232369D01*
X1223833Y-232069D01*
X1224167Y-231669D01*
G01X1227700Y-232569D02*
X1227167Y-232469D01*
X1226700Y-232069D01*
X1226300Y-231469D01*
X1226033Y-230769D01*
X1225900Y-229969D01*
Y-229169D01*
X1226033Y-228369D01*
X1226300Y-227668D01*
X1226700Y-227069D01*
X1227167Y-226669D01*
X1227700Y-226569D01*
X1228233Y-226669D01*
X1228700Y-227069D01*
X1229100Y-227668D01*
X1229367Y-228369D01*
X1229500Y-229169D01*
Y-229969D01*
X1229367Y-230769D01*
X1229100Y-231469D01*
X1228700Y-232069D01*
X1228233Y-232469D01*
X1227700Y-232569D01*
G01X1231167D02*
Y-226569D01*
X1232900Y-231569D01*
X1234633Y-226569D01*
Y-232569D01*
G01X1236767D02*
Y-226569D01*
X1238367D01*
X1238900Y-226869D01*
X1239300Y-227569D01*
X1239433Y-228369D01*
X1239300Y-229169D01*
X1238967Y-229769D01*
X1238367Y-230069D01*
X1236767D01*
G01X1241633Y-232569D02*
X1243300Y-226569D01*
X1244967Y-232569D01*
G01X1244367Y-230469D02*
X1242233D01*
G01X1246967Y-232569D02*
Y-226569D01*
X1250033Y-232569D01*
Y-226569D01*
G01X1253700Y-232569D02*
Y-229869D01*
X1252367Y-226569D01*
G01X1255033D02*
X1253700Y-229869D01*
G01X1262567Y-232569D02*
Y-226569D01*
X1265633Y-232569D01*
Y-226569D01*
G01X1267633Y-232569D02*
X1269300Y-226569D01*
X1270967Y-232569D01*
G01X1270367Y-230469D02*
X1268233D01*
G01X1272767Y-232569D02*
Y-226569D01*
X1274500Y-231569D01*
X1276233Y-226569D01*
Y-232569D01*
G01X1281033D02*
X1278367D01*
Y-226569D01*
X1281033D01*
G01X1279967Y-229468D02*
X1278367D01*
G01X1284900Y-232769D02*
X1284767Y-232669D01*
Y-232469D01*
X1284900Y-232369D01*
X1285033Y-232469D01*
Y-232669D01*
X1284900Y-232769D01*
G01Y-230069D02*
X1284767Y-229969D01*
Y-229769D01*
X1284900Y-229669D01*
X1285033Y-229769D01*
Y-229969D01*
X1284900Y-230069D01*
G01X1221167Y-262500D02*
Y-256500D01*
X1222767D01*
X1223300Y-256800D01*
X1223700Y-257500D01*
X1223833Y-258300D01*
X1223700Y-259100D01*
X1223367Y-259700D01*
X1222767Y-260000D01*
X1221167D01*
G01X1226367Y-262500D02*
Y-256500D01*
X1228033D01*
X1228567Y-256800D01*
X1228900Y-257200D01*
X1229033Y-258000D01*
X1228900Y-258800D01*
X1228500Y-259300D01*
X1228033Y-259600D01*
X1226367D01*
G01X1228033D02*
X1229033Y-262500D01*
G01X1232900D02*
X1232367Y-262400D01*
X1231900Y-262000D01*
X1231500Y-261400D01*
X1231233Y-260700D01*
X1231100Y-259900D01*
Y-259100D01*
X1231233Y-258300D01*
X1231500Y-257600D01*
X1231900Y-257000D01*
X1232367Y-256600D01*
X1232900Y-256500D01*
X1233433Y-256600D01*
X1233900Y-257000D01*
X1234300Y-257600D01*
X1234567Y-258300D01*
X1234700Y-259100D01*
Y-259900D01*
X1234567Y-260700D01*
X1234300Y-261400D01*
X1233900Y-262000D01*
X1233433Y-262400D01*
X1232900Y-262500D01*
G01X1236767Y-261300D02*
X1237100Y-261900D01*
X1237500Y-262300D01*
X1237967Y-262500D01*
X1238500Y-262300D01*
X1238900Y-261900D01*
X1239300Y-261300D01*
X1239433Y-260500D01*
Y-256500D01*
G01X1244633Y-262500D02*
X1241967D01*
Y-256500D01*
X1244633D01*
G01X1243567Y-259400D02*
X1241967D01*
G01X1249967Y-257000D02*
X1249567Y-256700D01*
X1249100Y-256500D01*
X1248567D01*
X1247967Y-256800D01*
X1247500Y-257300D01*
X1247167Y-257900D01*
X1246900Y-258900D01*
X1246833Y-259800D01*
X1246967Y-260700D01*
X1247167Y-261300D01*
X1247567Y-261900D01*
X1248033Y-262300D01*
X1248500Y-262500D01*
X1248967D01*
X1249433Y-262300D01*
X1249833Y-262000D01*
X1250167Y-261600D01*
G01X1253700Y-256500D02*
Y-262500D01*
G01X1252167Y-256500D02*
X1255233D01*
G01X1262567Y-262500D02*
Y-256500D01*
X1265633Y-262500D01*
Y-256500D01*
G01X1267633Y-262500D02*
X1269300Y-256500D01*
X1270967Y-262500D01*
G01X1270367Y-260400D02*
X1268233D01*
G01X1272767Y-262500D02*
Y-256500D01*
X1274500Y-261500D01*
X1276233Y-256500D01*
Y-262500D01*
G01X1281033D02*
X1278367D01*
Y-256500D01*
X1281033D01*
G01X1279967Y-259400D02*
X1278367D01*
G01X1284900Y-262700D02*
X1284767Y-262600D01*
Y-262400D01*
X1284900Y-262300D01*
X1285033Y-262400D01*
Y-262600D01*
X1284900Y-262700D01*
G01Y-260000D02*
X1284767Y-259900D01*
Y-259700D01*
X1284900Y-259600D01*
X1285033Y-259700D01*
Y-259900D01*
X1284900Y-260000D01*
G01X1423000Y-254569D02*
X1225500D01*
G01X1283000Y-349569D02*
Y-319569D01*
G01X1293000Y1280431D02*
Y1310431D01*
G01X1343600Y-277069D02*
Y-299569D01*
G01X1313000Y1168500D02*
Y1230431D01*
G01X1344000Y1210431D02*
Y1220431D01*
X1346500D01*
X1347500Y1219931D01*
X1348250Y1219265D01*
X1348875Y1218265D01*
X1349375Y1217098D01*
X1349500Y1215431D01*
X1349375Y1213765D01*
X1348875Y1212598D01*
X1348250Y1211598D01*
X1347500Y1210931D01*
X1346500Y1210431D01*
X1344000D01*
G01X1353625D02*
X1356750Y1220431D01*
X1359875Y1210431D01*
G01X1358750Y1213931D02*
X1354750D01*
G01X1366750Y1220431D02*
Y1210431D01*
G01X1363875Y1220431D02*
X1369625D01*
G01X1379250Y1210431D02*
X1374250D01*
Y1220431D01*
X1379250D01*
G01X1377250Y1215598D02*
X1374250D01*
G01X1379200Y-283769D02*
X1379733Y-284269D01*
X1380333Y-284569D01*
X1380867D01*
X1381400Y-284269D01*
X1381800Y-283769D01*
X1382000Y-283069D01*
X1381867Y-282369D01*
X1381533Y-281769D01*
X1380933Y-281369D01*
X1380133Y-281169D01*
X1379667Y-280769D01*
X1379467Y-280069D01*
X1379600Y-279369D01*
X1379933Y-278869D01*
X1380400Y-278569D01*
X1380867D01*
X1381333Y-278769D01*
X1381733Y-279269D01*
G01X1384400Y-284569D02*
Y-278569D01*
G01X1387200D02*
Y-284569D01*
G01Y-281569D02*
X1384400D01*
G01X1392333Y-284569D02*
X1389667D01*
Y-278569D01*
X1392333D01*
G01X1391267Y-281468D02*
X1389667D01*
G01X1397533Y-284569D02*
X1394867D01*
Y-278569D01*
X1397533D01*
G01X1396467Y-281468D02*
X1394867D01*
G01X1401400Y-278569D02*
Y-284569D01*
G01X1399867Y-278569D02*
X1402933D01*
G01X1406600Y-284769D02*
X1406467Y-284669D01*
Y-284469D01*
X1406600Y-284369D01*
X1406733Y-284469D01*
Y-284669D01*
X1406600Y-284769D01*
G01Y-282069D02*
X1406467Y-281969D01*
Y-281769D01*
X1406600Y-281669D01*
X1406733Y-281769D01*
Y-281969D01*
X1406600Y-282069D01*
G01X1378853Y-290402D02*
X1379373Y-289602D01*
X1379980Y-289202D01*
X1380673Y-289069D01*
X1381540Y-289335D01*
X1382147Y-290002D01*
X1382320Y-290802D01*
X1382233Y-291602D01*
X1381887Y-292269D01*
X1380153Y-293602D01*
X1379373Y-294535D01*
X1378853Y-295869D01*
X1378680Y-297069D01*
X1382320D01*
G01X1394100D02*
X1393407Y-296935D01*
X1392800Y-296402D01*
X1392280Y-295602D01*
X1391933Y-294669D01*
X1391760Y-293602D01*
Y-292535D01*
X1391933Y-291469D01*
X1392280Y-290535D01*
X1392800Y-289735D01*
X1393407Y-289202D01*
X1394100Y-289069D01*
X1394793Y-289202D01*
X1395400Y-289735D01*
X1395920Y-290535D01*
X1396267Y-291469D01*
X1396440Y-292535D01*
Y-293602D01*
X1396267Y-294669D01*
X1395920Y-295602D01*
X1395400Y-296402D01*
X1394793Y-296935D01*
X1394100Y-297069D01*
G01X1399253D02*
Y-289069D01*
X1402547D01*
G01X1401333Y-292935D02*
X1399253D01*
G01X1412853Y-290402D02*
X1413373Y-289602D01*
X1413980Y-289202D01*
X1414673Y-289069D01*
X1415540Y-289335D01*
X1416147Y-290002D01*
X1416320Y-290802D01*
X1416233Y-291602D01*
X1415887Y-292269D01*
X1414153Y-293602D01*
X1413373Y-294535D01*
X1412853Y-295869D01*
X1412680Y-297069D01*
X1416320D01*
G01X1349467Y-284569D02*
Y-278569D01*
X1351133D01*
X1351667Y-278869D01*
X1352000Y-279269D01*
X1352133Y-280069D01*
X1352000Y-280869D01*
X1351600Y-281369D01*
X1351133Y-281669D01*
X1349467D01*
G01X1351133D02*
X1352133Y-284569D01*
G01X1357333D02*
X1354667D01*
Y-278569D01*
X1357333D01*
G01X1356267Y-281468D02*
X1354667D01*
G01X1359533Y-278569D02*
X1361200Y-284569D01*
X1362867Y-278569D01*
G01X1366400Y-284769D02*
X1366267Y-284669D01*
Y-284469D01*
X1366400Y-284369D01*
X1366533Y-284469D01*
Y-284669D01*
X1366400Y-284769D01*
G01X1352100Y-289069D02*
X1351407Y-289335D01*
X1350887Y-290002D01*
X1350540Y-290802D01*
X1350280Y-291869D01*
X1350193Y-293069D01*
X1350280Y-294269D01*
X1350540Y-295335D01*
X1350887Y-296136D01*
X1351407Y-296802D01*
X1352100Y-297069D01*
X1352793Y-296802D01*
X1353313Y-296136D01*
X1353660Y-295335D01*
X1353920Y-294269D01*
X1354007Y-293069D01*
X1353920Y-291869D01*
X1353660Y-290802D01*
X1353313Y-290002D01*
X1352793Y-289335D01*
X1352100Y-289069D01*
G01X1356993Y-295469D02*
X1357513Y-296402D01*
X1358207Y-296935D01*
X1358987Y-297069D01*
X1359680Y-296935D01*
X1360373Y-296269D01*
X1360807Y-295469D01*
X1360893Y-294669D01*
X1360720Y-293736D01*
X1360113Y-293069D01*
X1359507Y-292802D01*
X1358727D01*
G01X1359507D02*
X1360027Y-292402D01*
X1360460Y-291735D01*
X1360633Y-290935D01*
X1360460Y-290135D01*
X1360027Y-289469D01*
X1359247Y-289069D01*
X1358467Y-289202D01*
X1357687Y-289735D01*
G01X1373600Y-277069D02*
Y-299569D01*
G01X1430347Y-275569D02*
Y-271569D01*
X1431213D01*
X1431560Y-271769D01*
X1431820Y-272035D01*
X1432037Y-272435D01*
X1432210Y-272902D01*
X1432253Y-273569D01*
X1432210Y-274235D01*
X1432037Y-274702D01*
X1431820Y-275102D01*
X1431560Y-275369D01*
X1431213Y-275569D01*
X1430347D01*
G01X1435567D02*
X1433833D01*
Y-271569D01*
X1435567D01*
G01X1434873Y-273502D02*
X1433833D01*
G01X1439053Y-271902D02*
X1438793Y-271702D01*
X1438490Y-271569D01*
X1438143D01*
X1437753Y-271769D01*
X1437450Y-272102D01*
X1437233Y-272502D01*
X1437060Y-273169D01*
X1437017Y-273769D01*
X1437103Y-274369D01*
X1437233Y-274769D01*
X1437493Y-275169D01*
X1437797Y-275435D01*
X1438100Y-275569D01*
X1438403D01*
X1438707Y-275435D01*
X1438967Y-275235D01*
X1439183Y-274969D01*
G01X1440980Y-271569D02*
X1442020D01*
G01X1441500D02*
Y-275569D01*
G01X1440980D02*
X1442020D01*
G01X1443773D02*
Y-271569D01*
X1444900Y-274902D01*
X1446027Y-271569D01*
Y-275569D01*
G01X1447217D02*
X1448300Y-271569D01*
X1449383Y-275569D01*
G01X1448993Y-274169D02*
X1447607D01*
G01X1450833Y-271569D02*
Y-275569D01*
X1452567D01*
G01X1432390Y-287069D02*
X1434210Y-283069D01*
G01X1432390D02*
X1434210Y-287069D01*
G01X1435790D02*
X1437610Y-283069D01*
G01X1435790D02*
X1437610Y-287069D01*
G01X1428990Y-293069D02*
X1430810Y-289069D01*
G01X1428990D02*
X1430810Y-293069D01*
G01X1432390D02*
X1434210Y-289069D01*
G01X1432390D02*
X1434210Y-293069D01*
G01X1435790D02*
X1437610Y-289069D01*
G01X1435790D02*
X1437610Y-293069D01*
G01X1423000Y-224569D02*
Y-299569D01*
G01X1434047Y-233069D02*
Y-235935D01*
X1434220Y-236535D01*
X1434567Y-236935D01*
X1435000Y-237069D01*
X1435433Y-236935D01*
X1435780Y-236535D01*
X1435953Y-235935D01*
Y-233069D01*
G01X1437403Y-237069D02*
Y-233069D01*
X1439397Y-237069D01*
Y-233069D01*
G01X1440933D02*
Y-237069D01*
X1442667D01*
G01X1446067D02*
X1444333D01*
Y-233069D01*
X1446067D01*
G01X1445373Y-235002D02*
X1444333D01*
G01X1447690Y-236535D02*
X1448037Y-236869D01*
X1448427Y-237069D01*
X1448773D01*
X1449120Y-236869D01*
X1449380Y-236535D01*
X1449510Y-236069D01*
X1449423Y-235602D01*
X1449207Y-235202D01*
X1448817Y-234935D01*
X1448297Y-234802D01*
X1447993Y-234535D01*
X1447863Y-234069D01*
X1447950Y-233602D01*
X1448167Y-233269D01*
X1448470Y-233069D01*
X1448773D01*
X1449077Y-233202D01*
X1449337Y-233535D01*
G01X1451090Y-236535D02*
X1451437Y-236869D01*
X1451827Y-237069D01*
X1452173D01*
X1452520Y-236869D01*
X1452780Y-236535D01*
X1452910Y-236069D01*
X1452823Y-235602D01*
X1452607Y-235202D01*
X1452217Y-234935D01*
X1451697Y-234802D01*
X1451393Y-234535D01*
X1451263Y-234069D01*
X1451350Y-233602D01*
X1451567Y-233269D01*
X1451870Y-233069D01*
X1452173D01*
X1452477Y-233202D01*
X1452737Y-233535D01*
G01X1458800Y-237069D02*
X1458453Y-237002D01*
X1458150Y-236735D01*
X1457890Y-236335D01*
X1457717Y-235869D01*
X1457630Y-235335D01*
Y-234802D01*
X1457717Y-234269D01*
X1457890Y-233802D01*
X1458150Y-233402D01*
X1458453Y-233135D01*
X1458800Y-233069D01*
X1459147Y-233135D01*
X1459450Y-233402D01*
X1459710Y-233802D01*
X1459883Y-234269D01*
X1459970Y-234802D01*
Y-235335D01*
X1459883Y-235869D01*
X1459710Y-236335D01*
X1459450Y-236735D01*
X1459147Y-237002D01*
X1458800Y-237069D01*
G01X1462200Y-233069D02*
Y-237069D01*
G01X1461203Y-233069D02*
X1463197D01*
G01X1464690Y-237069D02*
Y-233069D01*
G01X1466510D02*
Y-237069D01*
G01Y-235069D02*
X1464690D01*
G01X1469867Y-237069D02*
X1468133D01*
Y-233069D01*
X1469867D01*
G01X1469173Y-235002D02*
X1468133D01*
G01X1471533Y-237069D02*
Y-233069D01*
X1472617D01*
X1472963Y-233269D01*
X1473180Y-233535D01*
X1473267Y-234069D01*
X1473180Y-234602D01*
X1472920Y-234935D01*
X1472617Y-235135D01*
X1471533D01*
G01X1472617D02*
X1473267Y-237069D01*
G01X1474500Y-233069D02*
X1475107Y-237069D01*
X1475800Y-233069D01*
X1476493Y-237069D01*
X1477100Y-233069D01*
G01X1478680D02*
X1479720D01*
G01X1479200D02*
Y-237069D01*
G01X1478680D02*
X1479720D01*
G01X1481690Y-236535D02*
X1482037Y-236869D01*
X1482427Y-237069D01*
X1482773D01*
X1483120Y-236869D01*
X1483380Y-236535D01*
X1483510Y-236069D01*
X1483423Y-235602D01*
X1483207Y-235202D01*
X1482817Y-234935D01*
X1482297Y-234802D01*
X1481993Y-234535D01*
X1481863Y-234069D01*
X1481950Y-233602D01*
X1482167Y-233269D01*
X1482470Y-233069D01*
X1482773D01*
X1483077Y-233202D01*
X1483337Y-233535D01*
G01X1486867Y-237069D02*
X1485133D01*
Y-233069D01*
X1486867D01*
G01X1486173Y-235002D02*
X1485133D01*
G01X1427290Y-244035D02*
X1427637Y-244369D01*
X1428027Y-244569D01*
X1428373D01*
X1428720Y-244369D01*
X1428980Y-244035D01*
X1429110Y-243569D01*
X1429023Y-243102D01*
X1428807Y-242702D01*
X1428417Y-242435D01*
X1427897Y-242302D01*
X1427593Y-242035D01*
X1427463Y-241569D01*
X1427550Y-241102D01*
X1427767Y-240769D01*
X1428070Y-240569D01*
X1428373D01*
X1428677Y-240702D01*
X1428937Y-241035D01*
G01X1430733Y-244569D02*
Y-240569D01*
X1431773D01*
X1432120Y-240769D01*
X1432380Y-241235D01*
X1432467Y-241769D01*
X1432380Y-242302D01*
X1432163Y-242702D01*
X1431773Y-242902D01*
X1430733D01*
G01X1435867Y-244569D02*
X1434133D01*
Y-240569D01*
X1435867D01*
G01X1435173Y-242502D02*
X1434133D01*
G01X1439353Y-240902D02*
X1439093Y-240702D01*
X1438790Y-240569D01*
X1438443D01*
X1438053Y-240769D01*
X1437750Y-241102D01*
X1437533Y-241502D01*
X1437360Y-242169D01*
X1437317Y-242769D01*
X1437403Y-243369D01*
X1437533Y-243769D01*
X1437793Y-244169D01*
X1438097Y-244435D01*
X1438400Y-244569D01*
X1438703D01*
X1439007Y-244435D01*
X1439267Y-244235D01*
X1439483Y-243969D01*
G01X1441280Y-240569D02*
X1442320D01*
G01X1441800D02*
Y-244569D01*
G01X1441280D02*
X1442320D01*
G01X1444377D02*
Y-240569D01*
X1446023D01*
G01X1445417Y-242502D02*
X1444377D01*
G01X1448080Y-240569D02*
X1449120D01*
G01X1448600D02*
Y-244569D01*
G01X1448080D02*
X1449120D01*
G01X1452867D02*
X1451133D01*
Y-240569D01*
X1452867D01*
G01X1452173Y-242502D02*
X1451133D01*
G01X1454447Y-244569D02*
Y-240569D01*
X1455313D01*
X1455660Y-240769D01*
X1455920Y-241035D01*
X1456137Y-241435D01*
X1456310Y-241902D01*
X1456353Y-242569D01*
X1456310Y-243235D01*
X1456137Y-243702D01*
X1455920Y-244102D01*
X1455660Y-244369D01*
X1455313Y-244569D01*
X1454447D01*
G01X1461247D02*
Y-240569D01*
X1462113D01*
X1462460Y-240769D01*
X1462720Y-241035D01*
X1462937Y-241435D01*
X1463110Y-241902D01*
X1463153Y-242569D01*
X1463110Y-243235D01*
X1462937Y-243702D01*
X1462720Y-244102D01*
X1462460Y-244369D01*
X1462113Y-244569D01*
X1461247D01*
G01X1465080Y-240569D02*
X1466120D01*
G01X1465600D02*
Y-244569D01*
G01X1465080D02*
X1466120D01*
G01X1467873D02*
Y-240569D01*
X1469000Y-243902D01*
X1470127Y-240569D01*
Y-244569D01*
G01X1473267D02*
X1471533D01*
Y-240569D01*
X1473267D01*
G01X1472573Y-242502D02*
X1471533D01*
G01X1474803Y-244569D02*
Y-240569D01*
X1476797Y-244569D01*
Y-240569D01*
G01X1478290Y-244035D02*
X1478637Y-244369D01*
X1479027Y-244569D01*
X1479373D01*
X1479720Y-244369D01*
X1479980Y-244035D01*
X1480110Y-243569D01*
X1480023Y-243102D01*
X1479807Y-242702D01*
X1479417Y-242435D01*
X1478897Y-242302D01*
X1478593Y-242035D01*
X1478463Y-241569D01*
X1478550Y-241102D01*
X1478767Y-240769D01*
X1479070Y-240569D01*
X1479373D01*
X1479677Y-240702D01*
X1479937Y-241035D01*
G01X1482080Y-240569D02*
X1483120D01*
G01X1482600D02*
Y-244569D01*
G01X1482080D02*
X1483120D01*
G01X1486000D02*
X1485653Y-244502D01*
X1485350Y-244235D01*
X1485090Y-243835D01*
X1484917Y-243369D01*
X1484830Y-242835D01*
Y-242302D01*
X1484917Y-241769D01*
X1485090Y-241302D01*
X1485350Y-240902D01*
X1485653Y-240635D01*
X1486000Y-240569D01*
X1486347Y-240635D01*
X1486650Y-240902D01*
X1486910Y-241302D01*
X1487083Y-241769D01*
X1487170Y-242302D01*
Y-242835D01*
X1487083Y-243369D01*
X1486910Y-243835D01*
X1486650Y-244235D01*
X1486347Y-244502D01*
X1486000Y-244569D01*
G01X1488403D02*
Y-240569D01*
X1490397Y-244569D01*
Y-240569D01*
G01X1491890Y-244035D02*
X1492237Y-244369D01*
X1492627Y-244569D01*
X1492973D01*
X1493320Y-244369D01*
X1493580Y-244035D01*
X1493710Y-243569D01*
X1493623Y-243102D01*
X1493407Y-242702D01*
X1493017Y-242435D01*
X1492497Y-242302D01*
X1492193Y-242035D01*
X1492063Y-241569D01*
X1492150Y-241102D01*
X1492367Y-240769D01*
X1492670Y-240569D01*
X1492973D01*
X1493277Y-240702D01*
X1493537Y-241035D01*
G01X1403000Y1168500D02*
Y1230431D01*
G01X1413625Y1210431D02*
X1416750Y1220431D01*
X1419875Y1210431D01*
G01X1418750Y1213931D02*
X1414750D01*
G01X1424250Y1210431D02*
Y1220431D01*
X1427250D01*
X1428250Y1219931D01*
X1429000Y1218765D01*
X1429250Y1217431D01*
X1429000Y1216098D01*
X1428375Y1215098D01*
X1427250Y1214598D01*
X1424250D01*
G01X1434250Y1210431D02*
Y1220431D01*
X1437250D01*
X1438250Y1219931D01*
X1439000Y1218765D01*
X1439250Y1217431D01*
X1439000Y1216098D01*
X1438375Y1215098D01*
X1437250Y1214598D01*
X1434250D01*
G01X1444250Y1210431D02*
Y1220431D01*
X1447375D01*
X1448375Y1219931D01*
X1449000Y1219265D01*
X1449250Y1217931D01*
X1449000Y1216598D01*
X1448250Y1215765D01*
X1447375Y1215265D01*
X1444250D01*
G01X1447375D02*
X1449250Y1210431D01*
G01X1456750D02*
X1455750Y1210598D01*
X1454875Y1211265D01*
X1454125Y1212265D01*
X1453625Y1213431D01*
X1453375Y1214765D01*
Y1216098D01*
X1453625Y1217431D01*
X1454125Y1218598D01*
X1454875Y1219598D01*
X1455750Y1220265D01*
X1456750Y1220431D01*
X1457750Y1220265D01*
X1458625Y1219598D01*
X1459375Y1218598D01*
X1459875Y1217431D01*
X1460125Y1216098D01*
Y1214765D01*
X1459875Y1213431D01*
X1459375Y1212265D01*
X1458625Y1211265D01*
X1457750Y1210598D01*
X1456750Y1210431D01*
G01X1463625Y1220431D02*
X1466750Y1210431D01*
X1469875Y1220431D01*
G01X1479250Y1210431D02*
X1474250D01*
Y1220431D01*
X1479250D01*
G01X1477250Y1215598D02*
X1474250D01*
G01X1484000Y1210431D02*
Y1220431D01*
X1486500D01*
X1487500Y1219931D01*
X1488250Y1219265D01*
X1488875Y1218265D01*
X1489375Y1217098D01*
X1489500Y1215431D01*
X1489375Y1213765D01*
X1488875Y1212598D01*
X1488250Y1211598D01*
X1487500Y1210931D01*
X1486500Y1210431D01*
X1484000D01*
G01X1470117Y-275569D02*
X1471200Y-271569D01*
X1472283Y-275569D01*
G01X1471893Y-274169D02*
X1470507D01*
G01X1473603Y-275569D02*
Y-271569D01*
X1475597Y-275569D01*
Y-271569D01*
G01X1478260Y-273569D02*
X1479127D01*
Y-274769D01*
X1478867Y-275169D01*
X1478563Y-275435D01*
X1478130Y-275569D01*
X1477697Y-275435D01*
X1477393Y-275169D01*
X1477133Y-274769D01*
X1476960Y-274302D01*
X1476873Y-273769D01*
Y-273302D01*
X1476960Y-272902D01*
X1477133Y-272435D01*
X1477393Y-272035D01*
X1477653Y-271769D01*
X1478000Y-271569D01*
X1478303D01*
X1478650Y-271702D01*
X1478910Y-271969D01*
G01X1480533Y-271569D02*
Y-275569D01*
X1482267D01*
G01X1485667D02*
X1483933D01*
Y-271569D01*
X1485667D01*
G01X1484973Y-273502D02*
X1483933D01*
G01X1462873Y-287569D02*
Y-283569D01*
X1464000Y-286902D01*
X1465127Y-283569D01*
Y-287569D01*
G01X1466317D02*
X1467400Y-283569D01*
X1468483Y-287569D01*
G01X1468093Y-286169D02*
X1466707D01*
G01X1471753Y-283902D02*
X1471493Y-283702D01*
X1471190Y-283569D01*
X1470843D01*
X1470453Y-283769D01*
X1470150Y-284102D01*
X1469933Y-284502D01*
X1469760Y-285169D01*
X1469717Y-285769D01*
X1469803Y-286369D01*
X1469933Y-286769D01*
X1470193Y-287169D01*
X1470497Y-287435D01*
X1470800Y-287569D01*
X1471103D01*
X1471407Y-287435D01*
X1471667Y-287235D01*
X1471883Y-286969D01*
G01X1473290Y-287569D02*
Y-283569D01*
G01X1475110D02*
Y-287569D01*
G01Y-285569D02*
X1473290D01*
G01X1480177Y-287569D02*
Y-283569D01*
X1481823D01*
G01X1481217Y-285502D02*
X1480177D01*
G01X1483880Y-283569D02*
X1484920D01*
G01X1484400D02*
Y-287569D01*
G01X1483880D02*
X1484920D01*
G01X1486803D02*
Y-283569D01*
X1488797Y-287569D01*
Y-283569D01*
G01X1490680D02*
X1491720D01*
G01X1491200D02*
Y-287569D01*
G01X1490680D02*
X1491720D01*
G01X1493690Y-287035D02*
X1494037Y-287369D01*
X1494427Y-287569D01*
X1494773D01*
X1495120Y-287369D01*
X1495380Y-287035D01*
X1495510Y-286569D01*
X1495423Y-286102D01*
X1495207Y-285702D01*
X1494817Y-285435D01*
X1494297Y-285302D01*
X1493993Y-285035D01*
X1493863Y-284569D01*
X1493950Y-284102D01*
X1494167Y-283769D01*
X1494470Y-283569D01*
X1494773D01*
X1495077Y-283702D01*
X1495337Y-284035D01*
G01X1497090Y-287569D02*
Y-283569D01*
G01X1498910D02*
Y-287569D01*
G01Y-285569D02*
X1497090D01*
G01X1435790Y-281069D02*
X1437610Y-277069D01*
G01X1435790D02*
X1437610Y-281069D01*
G01X1445300Y-287202D02*
X1445213Y-287135D01*
Y-287002D01*
X1445300Y-286935D01*
X1445387Y-287002D01*
Y-287135D01*
X1445300Y-287202D01*
G01X1448700Y-283069D02*
X1448353Y-283202D01*
X1448093Y-283535D01*
X1447920Y-283935D01*
X1447790Y-284469D01*
X1447747Y-285069D01*
X1447790Y-285669D01*
X1447920Y-286202D01*
X1448093Y-286602D01*
X1448353Y-286935D01*
X1448700Y-287069D01*
X1449047Y-286935D01*
X1449307Y-286602D01*
X1449480Y-286202D01*
X1449610Y-285669D01*
X1449653Y-285069D01*
X1449610Y-284469D01*
X1449480Y-283935D01*
X1449307Y-283535D01*
X1449047Y-283202D01*
X1448700Y-283069D01*
G01X1451147Y-286269D02*
X1451407Y-286735D01*
X1451753Y-287002D01*
X1452143Y-287069D01*
X1452490Y-287002D01*
X1452837Y-286669D01*
X1453053Y-286269D01*
X1453097Y-285869D01*
X1453010Y-285402D01*
X1452707Y-285069D01*
X1452403Y-284935D01*
X1452013D01*
G01X1452403D02*
X1452663Y-284735D01*
X1452880Y-284402D01*
X1452967Y-284002D01*
X1452880Y-283602D01*
X1452663Y-283269D01*
X1452273Y-283069D01*
X1451883Y-283135D01*
X1451493Y-283402D01*
G01X1445300Y-281202D02*
X1445213Y-281135D01*
Y-281002D01*
X1445300Y-280935D01*
X1445387Y-281002D01*
Y-281135D01*
X1445300Y-281202D01*
G01X1448700Y-281069D02*
Y-277069D01*
X1448180Y-277869D01*
G01Y-281069D02*
X1449220D01*
G01X1445300Y-293202D02*
X1445213Y-293135D01*
Y-293002D01*
X1445300Y-292935D01*
X1445387Y-293002D01*
Y-293135D01*
X1445300Y-293202D01*
G01X1448700Y-289069D02*
X1448353Y-289202D01*
X1448093Y-289535D01*
X1447920Y-289935D01*
X1447790Y-290469D01*
X1447747Y-291069D01*
X1447790Y-291669D01*
X1447920Y-292202D01*
X1448093Y-292602D01*
X1448353Y-292935D01*
X1448700Y-293069D01*
X1449047Y-292935D01*
X1449307Y-292602D01*
X1449480Y-292202D01*
X1449610Y-291669D01*
X1449653Y-291069D01*
X1449610Y-290469D01*
X1449480Y-289935D01*
X1449307Y-289535D01*
X1449047Y-289202D01*
X1448700Y-289069D01*
G01X1452100Y-293069D02*
Y-289069D01*
X1451580Y-289869D01*
G01Y-293069D02*
X1452620D01*
G01X1455500Y-289069D02*
X1455153Y-289202D01*
X1454893Y-289535D01*
X1454720Y-289935D01*
X1454590Y-290469D01*
X1454547Y-291069D01*
X1454590Y-291669D01*
X1454720Y-292202D01*
X1454893Y-292602D01*
X1455153Y-292935D01*
X1455500Y-293069D01*
X1455847Y-292935D01*
X1456107Y-292602D01*
X1456280Y-292202D01*
X1456410Y-291669D01*
X1456453Y-291069D01*
X1456410Y-290469D01*
X1456280Y-289935D01*
X1456107Y-289535D01*
X1455847Y-289202D01*
X1455500Y-289069D01*
G01X1476700Y-278869D02*
X1479700D01*
G01X1476700Y-281069D02*
X1479700D01*
G01X1440000Y-278869D02*
X1443000D01*
G01X1440000Y-290869D02*
X1443000D01*
G01X1440000Y-284869D02*
X1443000D01*
G01X1441500Y-283369D02*
Y-286369D01*
G01X1440000Y-287069D02*
X1443000D01*
G01X1441500Y-277369D02*
Y-280369D01*
G01X1440000Y-281069D02*
X1443000D01*
G01X1441500Y-289369D02*
Y-292369D01*
G01X1440000Y-293069D02*
X1443000D01*
G01X1439017Y-252069D02*
X1440100Y-248069D01*
X1441183Y-252069D01*
G01X1440793Y-250669D02*
X1439407D01*
G01X1442633Y-252069D02*
Y-248069D01*
X1443717D01*
X1444063Y-248269D01*
X1444280Y-248535D01*
X1444367Y-249069D01*
X1444280Y-249602D01*
X1444020Y-249935D01*
X1443717Y-250135D01*
X1442633D01*
G01X1443717D02*
X1444367Y-252069D01*
G01X1447767D02*
X1446033D01*
Y-248069D01*
X1447767D01*
G01X1447073Y-250002D02*
X1446033D01*
G01X1453180Y-248069D02*
X1454220D01*
G01X1453700D02*
Y-252069D01*
G01X1453180D02*
X1454220D01*
G01X1456103D02*
Y-248069D01*
X1458097Y-252069D01*
Y-248069D01*
G01X1463380D02*
X1464420D01*
G01X1463900D02*
Y-252069D01*
G01X1463380D02*
X1464420D01*
G01X1466303D02*
Y-248069D01*
X1468297Y-252069D01*
Y-248069D01*
G01X1471653Y-248402D02*
X1471393Y-248202D01*
X1471090Y-248069D01*
X1470743D01*
X1470353Y-248269D01*
X1470050Y-248602D01*
X1469833Y-249002D01*
X1469660Y-249669D01*
X1469617Y-250269D01*
X1469703Y-250869D01*
X1469833Y-251269D01*
X1470093Y-251669D01*
X1470397Y-251935D01*
X1470700Y-252069D01*
X1471003D01*
X1471307Y-251935D01*
X1471567Y-251735D01*
X1471783Y-251469D01*
G01X1473190Y-252069D02*
Y-248069D01*
G01X1475010D02*
Y-252069D01*
G01Y-250069D02*
X1473190D01*
G01X1478367Y-252069D02*
X1476633D01*
Y-248069D01*
X1478367D01*
G01X1477673Y-250002D02*
X1476633D01*
G01X1479990Y-251535D02*
X1480337Y-251869D01*
X1480727Y-252069D01*
X1481073D01*
X1481420Y-251869D01*
X1481680Y-251535D01*
X1481810Y-251069D01*
X1481723Y-250602D01*
X1481507Y-250202D01*
X1481117Y-249935D01*
X1480597Y-249802D01*
X1480293Y-249535D01*
X1480163Y-249069D01*
X1480250Y-248602D01*
X1480467Y-248269D01*
X1480770Y-248069D01*
X1481073D01*
X1481377Y-248202D01*
X1481637Y-248535D01*
G01X1445200Y-263069D02*
Y-267069D01*
G01X1444203Y-263069D02*
X1446197D01*
G01X1448600Y-267069D02*
X1448253Y-267002D01*
X1447950Y-266735D01*
X1447690Y-266335D01*
X1447517Y-265869D01*
X1447430Y-265335D01*
Y-264802D01*
X1447517Y-264269D01*
X1447690Y-263802D01*
X1447950Y-263402D01*
X1448253Y-263135D01*
X1448600Y-263069D01*
X1448947Y-263135D01*
X1449250Y-263402D01*
X1449510Y-263802D01*
X1449683Y-264269D01*
X1449770Y-264802D01*
Y-265335D01*
X1449683Y-265869D01*
X1449510Y-266335D01*
X1449250Y-266735D01*
X1448947Y-267002D01*
X1448600Y-267069D01*
G01X1451133Y-263069D02*
Y-267069D01*
X1452867D01*
G01X1456267D02*
X1454533D01*
Y-263069D01*
X1456267D01*
G01X1455573Y-265002D02*
X1454533D01*
G01X1457933Y-267069D02*
Y-263069D01*
X1459017D01*
X1459363Y-263269D01*
X1459580Y-263535D01*
X1459667Y-264069D01*
X1459580Y-264602D01*
X1459320Y-264935D01*
X1459017Y-265135D01*
X1457933D01*
G01X1459017D02*
X1459667Y-267069D01*
G01X1461117D02*
X1462200Y-263069D01*
X1463283Y-267069D01*
G01X1462893Y-265669D02*
X1461507D01*
G01X1464603Y-267069D02*
Y-263069D01*
X1466597Y-267069D01*
Y-263069D01*
G01X1469953Y-263402D02*
X1469693Y-263202D01*
X1469390Y-263069D01*
X1469043D01*
X1468653Y-263269D01*
X1468350Y-263602D01*
X1468133Y-264002D01*
X1467960Y-264669D01*
X1467917Y-265269D01*
X1468003Y-265869D01*
X1468133Y-266269D01*
X1468393Y-266669D01*
X1468697Y-266935D01*
X1469000Y-267069D01*
X1469303D01*
X1469607Y-266935D01*
X1469867Y-266735D01*
X1470083Y-266469D01*
G01X1473267Y-267069D02*
X1471533D01*
Y-263069D01*
X1473267D01*
G01X1472573Y-265002D02*
X1471533D01*
G01X1474890Y-266535D02*
X1475237Y-266869D01*
X1475627Y-267069D01*
X1475973D01*
X1476320Y-266869D01*
X1476580Y-266535D01*
X1476710Y-266069D01*
X1476623Y-265602D01*
X1476407Y-265202D01*
X1476017Y-264935D01*
X1475497Y-264802D01*
X1475193Y-264535D01*
X1475063Y-264069D01*
X1475150Y-263602D01*
X1475367Y-263269D01*
X1475670Y-263069D01*
X1475973D01*
X1476277Y-263202D01*
X1476537Y-263535D01*
G01X1481847Y-280769D02*
X1482107Y-281235D01*
X1482453Y-281502D01*
X1482843Y-281569D01*
X1483190Y-281502D01*
X1483537Y-281169D01*
X1483753Y-280769D01*
X1483797Y-280369D01*
X1483710Y-279902D01*
X1483407Y-279569D01*
X1483103Y-279435D01*
X1482713D01*
G01X1483103D02*
X1483363Y-279235D01*
X1483580Y-278902D01*
X1483667Y-278502D01*
X1483580Y-278102D01*
X1483363Y-277769D01*
X1482973Y-277569D01*
X1482583Y-277635D01*
X1482193Y-277902D01*
G01X1486200Y-277569D02*
X1485853Y-277702D01*
X1485593Y-278035D01*
X1485420Y-278435D01*
X1485290Y-278969D01*
X1485247Y-279569D01*
X1485290Y-280169D01*
X1485420Y-280702D01*
X1485593Y-281102D01*
X1485853Y-281435D01*
X1486200Y-281569D01*
X1486547Y-281435D01*
X1486807Y-281102D01*
X1486980Y-280702D01*
X1487110Y-280169D01*
X1487153Y-279569D01*
X1487110Y-278969D01*
X1486980Y-278435D01*
X1486807Y-278035D01*
X1486547Y-277702D01*
X1486200Y-277569D01*
G01X1482000Y-288569D02*
X1485000D01*
G01X1478200Y-277369D02*
Y-280369D01*
G01X1483500Y-288569D02*
X1481200Y-293069D01*
X1479700Y-290869D01*
G01X1503000Y60431D02*
X1533000D01*
G01X1503000Y490431D02*
X1533000D01*
G01X1529380Y673348D02*
X1527490Y674598D01*
X1525285Y675431D01*
X1522765D01*
X1519930Y674181D01*
X1517725Y672098D01*
X1516150Y669598D01*
X1514890Y665431D01*
X1514575Y661681D01*
X1515205Y657931D01*
X1516150Y655431D01*
X1518040Y652931D01*
X1520245Y651265D01*
X1522450Y650431D01*
X1524655D01*
X1526860Y651265D01*
X1528750Y652514D01*
X1530325Y654181D01*
G01X1503000Y920431D02*
X1533000D01*
G01X1493000Y1260431D02*
X1503000D01*
G01X1524575Y-129569D02*
X1532450Y-104569D01*
X1540325Y-129569D01*
G01X1537490Y-120819D02*
X1527410D01*
G01X1534970Y253765D02*
X1536230Y255015D01*
X1537175Y257098D01*
X1537805Y260015D01*
X1537175Y262515D01*
X1535915Y264181D01*
X1533710Y265431D01*
X1525205D01*
Y240431D01*
X1535600D01*
X1537805Y242098D01*
X1539065Y244598D01*
X1539695Y247515D01*
X1539065Y250431D01*
X1537175Y252931D01*
X1534970Y253765D01*
X1525205D01*
G01X1525520Y1100431D02*
Y1125431D01*
X1531820D01*
X1534340Y1124181D01*
X1536230Y1122515D01*
X1537805Y1120015D01*
X1539065Y1117098D01*
X1539380Y1112931D01*
X1539065Y1108764D01*
X1537805Y1105848D01*
X1536230Y1103347D01*
X1534340Y1101681D01*
X1531820Y1100431D01*
X1525520D01*
M02*
