G04 ================== begin FILE IDENTIFICATION RECORD ==================*
G04 Layout Name:  EVK1_BM92T30-HOST-EVK-101_BRD_REV03_2016-02-26.brd*
G04 Film Name:    SMASK_BOTTOM*
G04 File Format:  Gerber RS274X*
G04 File Origin:  Cadence Allegro 16.6-2015-S060*
G04 Origin Date:  Fri Feb 26 09:59:31 2016*
G04 *
G04 Layer:  PIN/SOLDERMASK_BOTTOM*
G04 Layer:  VIA CLASS/SOLDERMASK_BOTTOM*
G04 Layer:  PACKAGE GEOMETRY/SOLDERMASK_BOTTOM*
G04 Layer:  DRAWING FORMAT/SOLDERMASK_BOTTOM*
G04 Layer:  BOARD GEOMETRY/OUTLINE*
G04 Layer:  BOARD GEOMETRY/SOLDERMASK_BOTTOM*
G04 Layer:  BOARD GEOMETRY/LOGO_M*
G04 *
G04 Offset:    (0.000 0.000)*
G04 Mirror:    No*
G04 Mode:      Positive*
G04 Rotation:  0*
G04 FullContactRelief:  No*
G04 UndefLineWidth:     5.000*
G04 ================== end FILE IDENTIFICATION RECORD ====================*
%FSLAX55Y55*MOIN*%
%IR0*IPPOS*OFA0.00000B0.00000*MIA0B0*SFA1.00000B1.00000*%
%ADD27O,.053X.116*%
%ADD18C,.126*%
%ADD10C,.255*%
%ADD13R,.025X.026*%
%ADD29R,.055X.05*%
%ADD16R,.026X.025*%
%ADD35O,.08X.049*%
%ADD17R,.037X.035*%
%ADD20R,.035X.037*%
%ADD11C,.06*%
%ADD33O,.049X.065*%
%ADD28O,.053X.096*%
%ADD22C,.052*%
%ADD15C,.016*%
%ADD26R,.037X.048*%
%ADD23C,.062*%
%ADD19C,.08*%
%ADD32C,.081*%
%ADD21R,.084X.048*%
%ADD34O,.096X.049*%
%ADD12C,.065*%
%ADD25C,.039*%
%ADD14R,.065X.065*%
%ADD24R,.039X.039*%
%ADD30R,.025591X.015748*%
%ADD31R,.025591X.019685*%
%ADD36C,.007098*%
%ADD37C,.005*%
G75*
%LPD*%
G75*
G54D10*
X15000Y15000D03*
Y190000D03*
X200000Y15000D03*
Y190000D03*
G54D11*
X7500Y32500D03*
Y72500D03*
Y57500D03*
Y45000D03*
Y87500D03*
Y102500D03*
X45500Y69000D03*
X90500Y59500D03*
Y67500D03*
X60000Y120000D03*
X80000D03*
X70000D03*
X132500Y32500D03*
X142500D03*
X152500D03*
X162500D03*
G54D20*
X78650Y76000D03*
X73350D03*
X54850Y55000D03*
X60150D03*
X91850Y107000D03*
Y101000D03*
X111350Y49500D03*
X116650D03*
X111350Y55000D03*
X116650D03*
X130150Y59500D03*
X124850D03*
X130150Y65000D03*
X124850D03*
X97150Y107000D03*
Y101000D03*
X164850Y147000D03*
X170150D03*
G54D30*
X160516Y108437D03*
Y106468D03*
Y102532D03*
Y100563D03*
X157484D03*
Y102532D03*
Y106468D03*
Y108437D03*
X160516Y117532D03*
Y115563D03*
X157484D03*
Y117532D03*
X160516Y123437D03*
Y121468D03*
X157484D03*
Y123437D03*
G54D12*
X10000Y122000D03*
Y112000D03*
X50000Y19500D03*
X32500Y77500D03*
Y67500D03*
Y57500D03*
Y47500D03*
X22500Y77500D03*
Y67500D03*
Y57500D03*
Y47500D03*
Y37500D03*
X32500Y97500D03*
Y87500D03*
X22500Y97500D03*
Y87500D03*
X20000Y122000D03*
X30000D03*
X20000Y112000D03*
X30000D03*
X40000D03*
X85000Y14500D03*
X75000D03*
X100000Y7000D03*
X137500Y9500D03*
X127500D03*
X137500Y19500D03*
X127500D03*
X117500D03*
X177500Y9500D03*
X167500D03*
X157500D03*
X147500D03*
X177500Y19500D03*
X167500D03*
X157500D03*
X147500D03*
G54D21*
X95260Y91500D03*
G54D31*
X160516Y104500D03*
X157484D03*
X160516Y119500D03*
X157484D03*
G54D22*
X54668Y138032D03*
X61558D03*
X71400D03*
X81242D03*
X88132D03*
G54D13*
X46500Y29350D03*
Y32650D03*
X42500Y29350D03*
Y32650D03*
X76000Y65150D03*
Y61850D03*
X80500Y65150D03*
Y61850D03*
X75000Y107150D03*
Y103850D03*
X68500Y90850D03*
Y94150D03*
X73500Y94650D03*
Y91350D03*
X67000Y83650D03*
Y80350D03*
X86000Y79650D03*
Y76350D03*
X65500Y107650D03*
Y104350D03*
X80000Y107650D03*
Y104350D03*
X101000Y30850D03*
Y34150D03*
X99500Y79350D03*
Y82650D03*
X104000Y79350D03*
Y82650D03*
X120500Y94650D03*
Y91350D03*
X115500Y94650D03*
Y91350D03*
X110500Y94650D03*
Y91350D03*
X125500Y94650D03*
Y91350D03*
X152500Y94150D03*
Y90850D03*
X143500D03*
Y94150D03*
X148000Y90850D03*
Y94150D03*
G54D14*
X50000Y9500D03*
X32500Y37500D03*
X40000Y122000D03*
X65000Y14500D03*
X100000Y17000D03*
X117500Y9500D03*
G54D32*
X143126Y192087D03*
G54D23*
X66479Y153780D03*
X76321D03*
Y145906D03*
X66479D03*
G54D24*
X103165Y58000D03*
G54D15*
X44500Y26500D03*
X39500Y46500D03*
Y42500D03*
X46500Y35500D03*
X42000D03*
X46000Y76000D03*
X42000Y55850D03*
X49500Y48339D03*
X43500Y85000D03*
Y89000D03*
X45500Y79500D03*
X47500Y93000D03*
X51000Y96000D03*
X45000D03*
X48000Y88500D03*
X51000Y100000D03*
X32000Y153000D03*
X29500Y162000D03*
Y156874D03*
X75000Y32500D03*
X83850Y31500D03*
X52500Y31000D03*
X89000Y73500D03*
X57000Y40661D03*
X72500Y37500D03*
Y42500D03*
X85130Y71180D03*
X92500Y73500D03*
X80162Y72600D03*
X63709Y56209D03*
X64350Y70500D03*
X54000Y73000D03*
X91000Y54500D03*
X81500Y43303D03*
X81421Y48421D03*
X81500Y40000D03*
X83500Y57500D03*
X85400Y63300D03*
X74000Y70500D03*
X70800D03*
X64500Y74500D03*
X87500Y45000D03*
X60000Y72000D03*
X54850Y51500D03*
X65150D03*
X88500Y39000D03*
X57000Y36000D03*
X69291Y56000D03*
X58500Y48500D03*
X70713Y97000D03*
X60000Y100000D03*
Y91500D03*
Y95500D03*
X65000Y118500D03*
X88600Y93400D03*
X89000Y77500D03*
X92500D03*
X87500Y98850D03*
X89090Y89450D03*
X56650Y110150D03*
X75000Y97000D03*
X63500Y80584D03*
X54000Y79000D03*
X78587Y100500D03*
X92000Y97000D03*
X88500Y107000D03*
Y85309D03*
X61000Y78500D03*
X60117Y87383D03*
X65500Y101500D03*
X75000Y100500D03*
X80000Y110500D03*
X84000D03*
X82500Y100500D03*
X81000Y79500D03*
X76000Y110500D03*
X65500Y113500D03*
X94650Y82500D03*
X81000Y84500D03*
Y89500D03*
X76000Y79500D03*
Y84500D03*
Y89500D03*
X71000Y79500D03*
Y84500D03*
Y89500D03*
X107500Y26000D03*
X126000Y27000D03*
X108000Y54500D03*
Y50000D03*
X120987Y58987D03*
X110500Y75500D03*
X107000Y40000D03*
X135000Y51000D03*
X110500Y62500D03*
X95000Y54500D03*
Y51000D03*
X121000Y55050D03*
X135000Y55000D03*
X127219Y40281D03*
X106000Y65000D03*
X130000Y55000D03*
X110500Y58500D03*
X133500Y65000D03*
Y60500D03*
X106500Y75693D03*
X127219Y73500D03*
X95500Y45000D03*
X107000Y36500D03*
X116650Y46000D03*
X133124Y40000D03*
X109500Y44500D03*
X96043Y60500D03*
X115581Y97419D03*
X128728Y94772D03*
X110581Y97500D03*
X120500D03*
X128772Y90500D03*
X106500Y91500D03*
X110500Y88000D03*
X115500D03*
X120500D03*
X125500D03*
X96500Y95500D03*
X99500Y85500D03*
X128350Y101000D03*
X101000Y106000D03*
Y132000D03*
X104500D03*
X133500Y123500D03*
X102700Y134600D03*
X135252Y158000D03*
X129346D03*
X123441D03*
X176500Y72500D03*
X164540Y41500D03*
X143500Y64000D03*
X143000Y50500D03*
X140998Y40002D03*
X170000Y72500D03*
X145500Y40000D03*
X143500Y72767D03*
X174540Y51500D03*
X157000Y72500D03*
X143500Y58000D03*
X139000Y55000D03*
X169540Y51460D03*
X181000Y73750D03*
X174500Y56500D03*
X157500Y56000D03*
X169500Y56500D03*
X166000Y72500D03*
X143500Y68000D03*
X181000Y40250D03*
X155500Y86500D03*
X151500D03*
X170060Y115850D03*
X147500Y97000D03*
X163500Y117000D03*
Y107000D03*
X176000Y114000D03*
X163500D03*
Y102390D03*
X144000Y97000D03*
X163500Y99390D03*
Y110500D03*
X179500Y114000D03*
X151000Y97000D03*
X148000Y88000D03*
X172000Y107120D03*
X156000Y92000D03*
X165776Y112280D03*
X143500Y116500D03*
X141500Y108000D03*
Y104000D03*
X143800Y111300D03*
X143500Y88000D03*
X169500Y94000D03*
X177500D03*
Y90000D03*
X169500D03*
X176070Y111400D03*
X165530Y104740D03*
X165480Y119560D03*
X174000Y121500D03*
X178900Y120200D03*
X179700Y130700D03*
X154500Y125500D03*
Y128800D03*
X147400Y127100D03*
X154937Y145063D03*
X153626Y132600D03*
X163500Y121500D03*
X178000Y136500D03*
X169000Y156000D03*
X163500Y124500D03*
X178000Y140000D03*
X149626Y132600D03*
X165500Y156000D03*
X162500Y150000D03*
X162000Y132000D03*
X160000Y141500D03*
X148900Y129700D03*
X167200Y158600D03*
X141158Y158000D03*
X151000D03*
X156906D03*
X173000Y149750D03*
X178000Y145500D03*
X156600Y132400D03*
X189000Y70000D03*
X191500Y60118D03*
X207500Y76500D03*
X203500D03*
X191500Y42795D03*
X196500Y37000D03*
X201000D03*
X191000Y49882D03*
X201850Y95500D03*
Y86500D03*
X190000Y77500D03*
X193500D03*
X206000Y86500D03*
Y95500D03*
X198000Y77000D03*
X183230Y138670D03*
G54D33*
X190394Y109169D03*
Y140823D03*
G54D25*
X98835Y58000D03*
G54D34*
X188032Y107988D03*
Y142004D03*
G54D16*
X48850Y76000D03*
Y82000D03*
X88650Y42000D03*
X85350D03*
X65150Y48500D03*
X61850D03*
X93150Y48000D03*
X89850D03*
X87150Y35000D03*
X83850D03*
X52150Y76000D03*
X59650Y75500D03*
X56350D03*
X65350Y62500D03*
X68650D03*
Y67000D03*
X65350D03*
X91350Y85500D03*
X82350Y87000D03*
X85650D03*
X82350Y92000D03*
X85650D03*
X82350Y96000D03*
X85650D03*
X57150Y88500D03*
X53850D03*
Y97500D03*
X57150D03*
X52150Y82000D03*
X59650D03*
X56350D03*
X53850Y93000D03*
X57150D03*
X53850Y102000D03*
X57150D03*
X102650Y65000D03*
X99350D03*
X127150Y55000D03*
X123850D03*
X99650Y74500D03*
X96350D03*
X94650Y85500D03*
X131650Y104000D03*
X128350D03*
X148150Y108500D03*
X144850D03*
X147650Y119500D03*
X144350D03*
X148150Y114000D03*
X144850D03*
X148150Y104500D03*
X144850D03*
X160650Y128500D03*
X157350D03*
X205150Y91000D03*
X201850D03*
X205150Y82000D03*
X201850D03*
G54D26*
X102740Y91500D03*
G54D17*
X24500Y159650D03*
Y154350D03*
X114500Y60350D03*
Y65650D03*
X147000Y68650D03*
Y63350D03*
G54D35*
X208898Y101965D03*
Y148028D03*
G54D36*
G01X309040Y-72819D02*
Y-74469D01*
G01Y-71159D02*
Y-72819D01*
G01X307110D02*
X309040D01*
G01Y-71159D02*
X306770D01*
G01X306210Y-74469D02*
X307110Y-72819D01*
G01X306830D02*
X307110D01*
G01X306660Y-72798D02*
X306830Y-72819D01*
G01X306500Y-72748D02*
X306660Y-72798D01*
G01X306350Y-72678D02*
X306500Y-72748D01*
G01X306220Y-72569D02*
X306350Y-72678D01*
G01X306110Y-72439D02*
X306220Y-72569D01*
G01X306040Y-72289D02*
X306110Y-72439D01*
G01X305990Y-72128D02*
X306040Y-72289D01*
G01X306100Y-71519D02*
X306030Y-71648D01*
G01X306200Y-71389D02*
X306100Y-71519D01*
G01X306330Y-71289D02*
X306200Y-71389D01*
G01X306460Y-71219D02*
X306330Y-71289D01*
G01X306610Y-71178D02*
X306460Y-71219D01*
G01X306770Y-71159D02*
X306610Y-71178D01*
G01X305970Y-71959D02*
X305990Y-72128D01*
G01Y-71798D02*
X305970Y-71959D01*
G01X306030Y-71648D02*
X305990Y-71798D01*
G01X306500Y-55109D02*
X310460D01*
G01X309550Y-55339D02*
X309330Y-55539D01*
G01X310030Y-55169D02*
X309550Y-55339D01*
G01X309040Y-56359D02*
Y-66669D01*
G01Y-58578D02*
X305970D01*
G01Y-57889D02*
X309040D01*
G01Y-57189D02*
X305970D01*
G01X305990Y-56499D02*
X309040D01*
G01X309070Y-56059D02*
X309040Y-56359D01*
G01X309160Y-55799D02*
X306130D01*
G01X309170Y-55778D02*
X309070Y-56059D01*
G01X309330Y-55539D02*
X309170Y-55778D01*
G01X306840Y-54739D02*
X307490Y-54259D01*
G01X306460Y-55148D02*
X306840Y-54739D01*
G01X306180Y-55628D02*
X306460Y-55148D01*
G01X306020Y-56159D02*
X306180Y-55628D01*
G01X305970Y-66669D02*
Y-56709D01*
G01D02*
X306020Y-56159D01*
G01X309040Y-66669D02*
X305970D01*
G01Y-66219D02*
X309040D01*
G01Y-65519D02*
X305970D01*
G01Y-64828D02*
X309040D01*
G01Y-64128D02*
X305970D01*
G01Y-63439D02*
X309040D01*
G01Y-62739D02*
X305970D01*
G01Y-62049D02*
X309040D01*
G01Y-61359D02*
X305970D01*
G01Y-60659D02*
X309040D01*
G01Y-59969D02*
X305970D01*
G01Y-59269D02*
X309040D01*
G01X321560Y-54419D02*
X307280D01*
G01X320010Y-53719D02*
X308860D01*
G01X309000Y-53678D02*
X310160Y-53509D01*
G01X308220Y-53899D02*
X309000Y-53678D01*
G01X307490Y-54259D02*
X308220Y-53899D01*
G01X321320Y-74469D02*
X323090D01*
G01X323120Y-71159D02*
X321320D01*
G01X321560Y-53919D02*
Y-66669D01*
G01Y-58578D02*
X318490D01*
G01Y-57889D02*
X321560D01*
G01X318490Y-56499D02*
X321560D01*
G01Y-57189D02*
X318490D01*
G01X321560Y-55799D02*
X318470D01*
G01X317740Y-55109D02*
X321560D01*
G01Y-66669D02*
X318490D01*
G01Y-66219D02*
X321560D01*
G01Y-65519D02*
X318490D01*
G01X321560Y-64128D02*
X318490D01*
G01Y-64828D02*
X321560D01*
G01X318490Y-63439D02*
X321560D01*
G01Y-62739D02*
X318490D01*
G01Y-62049D02*
X321560D01*
G01X318490Y-60659D02*
X321560D01*
G01Y-61359D02*
X318490D01*
G01X321560Y-59969D02*
X318490D01*
G01Y-59269D02*
X321560D01*
G01X313750Y-74328D02*
X313560Y-74409D01*
G01X313930Y-74219D02*
X313750Y-74328D01*
G01X314090Y-74089D02*
X313930Y-74219D01*
G01X314220Y-73928D02*
X314090Y-74089D01*
G01X314020Y-71459D02*
X314180Y-71619D01*
G01X313830Y-71328D02*
X314020Y-71459D01*
G01X313630Y-71239D02*
X313830Y-71328D01*
G01X319430Y-71159D02*
X318020D01*
G01D02*
Y-74469D01*
G01X316600Y-71159D02*
X318020D01*
G01X314330Y-73748D02*
X314220Y-73928D01*
G01X314410Y-73559D02*
X314330Y-73748D01*
G01X314450Y-73359D02*
X314410Y-73559D01*
G01X314470Y-73159D02*
X314450Y-73359D01*
G01X314470Y-72448D02*
Y-73159D01*
G01X314460Y-72228D02*
X314480Y-72448D01*
G01X314400Y-72009D02*
X314460Y-72228D01*
G01X314310Y-71798D02*
X314400Y-72009D01*
G01X314180Y-71619D02*
X314310Y-71798D01*
G01X313160Y-74469D02*
X312470D01*
G01X313360Y-74448D02*
X313160Y-74469D01*
G01X313560Y-74409D02*
X313360Y-74448D01*
G01X313410Y-71178D02*
X313630Y-71239D01*
G01X313190Y-71159D02*
X313410Y-71178D01*
G01X312450Y-71159D02*
X313190D01*
G01X312030Y-74389D02*
X311820Y-74298D01*
G01X312240Y-74448D02*
X312030Y-74389D01*
G01X312470Y-74469D02*
X312240Y-74448D01*
G01X312230Y-71178D02*
X312450Y-71159D01*
G01X312010Y-71239D02*
X312230Y-71178D01*
G01X311810Y-71328D02*
X312010Y-71239D01*
G01X311250Y-73609D02*
X311190Y-73398D01*
G01X311340Y-73819D02*
X311250Y-73609D01*
G01X311470Y-74009D02*
X311340Y-73819D01*
G01X311630Y-74169D02*
X311470Y-74009D01*
G01X311820Y-74298D02*
X311630Y-74169D01*
G01Y-71459D02*
X311810Y-71328D01*
G01X311470Y-71619D02*
X311630Y-71459D01*
G01X311340Y-71798D02*
X311470Y-71619D01*
G01X311250Y-71998D02*
X311340Y-71798D01*
G01X311190Y-72219D02*
X311250Y-71998D01*
G01X311190Y-73398D02*
X311170Y-73169D01*
G01D02*
Y-72439D01*
G01D02*
X311190Y-72219D01*
G01X318490Y-66669D02*
Y-55928D01*
G01X318380Y-55509D02*
X318250Y-55339D01*
G01X318460Y-55709D02*
X318380Y-55509D01*
G01X318490Y-55928D02*
X318460Y-55709D01*
G01X318070Y-55209D02*
X317880Y-55128D01*
G01X318250Y-55339D02*
X318070Y-55209D01*
G01X317660Y-55099D02*
X316220D01*
G01X317880Y-55128D02*
X317660Y-55099D01*
G01X311380Y-55109D02*
X316140D01*
G01X315530Y-55499D02*
X315440Y-55689D01*
G01X315650Y-55328D02*
X315530Y-55499D01*
G01X315820Y-55209D02*
X315650Y-55328D01*
G01X316010Y-55128D02*
X315820Y-55209D01*
G01X316220Y-55099D02*
X316010Y-55128D01*
G01X315420Y-55899D02*
Y-66669D01*
G01Y-58578D02*
X312110D01*
G01Y-57889D02*
X315420D01*
G01Y-57189D02*
X312110D01*
G01Y-56499D02*
X315420D01*
G01X315430Y-55799D02*
X312100D01*
G01X315440Y-55689D02*
X315420Y-55899D01*
G01X312110Y-66669D02*
Y-55909D01*
G01X312080Y-55699D02*
X312000Y-55499D01*
G01X312110Y-55909D02*
X312080Y-55699D01*
G01X312000Y-55499D02*
X311870Y-55339D01*
G01X311300Y-55099D02*
X310540D01*
G01X311510Y-55128D02*
X311300Y-55099D01*
G01X311700Y-55209D02*
X311510Y-55128D01*
G01X311870Y-55339D02*
X311700Y-55209D01*
G01X310540Y-55099D02*
X310030Y-55169D01*
G01X315420Y-66669D02*
X312110D01*
G01Y-66219D02*
X315420D01*
G01Y-65519D02*
X312110D01*
G01Y-64828D02*
X315420D01*
G01Y-64128D02*
X312110D01*
G01Y-63439D02*
X315420D01*
G01Y-62739D02*
X312110D01*
G01Y-62049D02*
X315420D01*
G01Y-61359D02*
X312110D01*
G01Y-60659D02*
X315420D01*
G01Y-59969D02*
X312110D01*
G01Y-59269D02*
X315420D01*
G01X351070Y-73569D02*
X351090Y-73378D01*
G01X351020Y-73748D02*
X351070Y-73569D01*
G01X350940Y-73919D02*
X351020Y-73748D01*
G01X350830Y-74078D02*
X350940Y-73919D01*
G01X350700Y-74209D02*
X350830Y-74078D01*
G01X350550Y-74319D02*
X350700Y-74209D01*
G01X350370Y-74398D02*
X350550Y-74319D01*
G01X351090Y-73378D02*
Y-72248D01*
G01X350910Y-71639D02*
X350770Y-71478D01*
G01X351010Y-71828D02*
X350910Y-71639D01*
G01X351070Y-72039D02*
X351010Y-71828D01*
G01X351090Y-72248D02*
X351070Y-72039D01*
G01X350610Y-71339D02*
X350420Y-71239D01*
G01X350770Y-71478D02*
X350610Y-71339D01*
G01X350420Y-71239D02*
X350210Y-71178D01*
G01X350190Y-74448D02*
X350370Y-74398D01*
G01X350000Y-74469D02*
X350190Y-74448D01*
G01X348250Y-74469D02*
X350000D01*
G01Y-71159D02*
X348250D01*
G01X350210Y-71178D02*
X350000Y-71159D01*
G01X355100Y-58578D02*
X352030D01*
G01Y-57889D02*
X355100D01*
G01Y-57189D02*
X352030D01*
G01X351920Y-56499D02*
X355070D01*
G01X354880Y-55799D02*
X351500D01*
G01X350570Y-55109D02*
X354420D01*
G01X352030Y-59589D02*
Y-57148D01*
G01X351870Y-56348D02*
X351670Y-55999D01*
G01X351990Y-56739D02*
X351870Y-56348D01*
G01X352030Y-57148D02*
X351990Y-56739D01*
G01X351670Y-55999D02*
X351400Y-55689D01*
G01D02*
X350970Y-55319D01*
G01X350470Y-55048D02*
X349920Y-54899D01*
G01X350970Y-55319D02*
X350470Y-55048D01*
G01X349920Y-54899D02*
X349350Y-54859D01*
G01D02*
X347900D01*
G01X347360Y-54889D02*
X346840Y-55019D01*
G01X347900Y-54859D02*
X347360Y-54889D01*
G01X342870Y-55109D02*
X346650D01*
G01X346360Y-55248D02*
X345930Y-55569D01*
G01X346840Y-55019D02*
X346360Y-55248D01*
G01X352070Y-66439D02*
X351050Y-66609D01*
G01D02*
X350020Y-66669D01*
G01D02*
X347270D01*
G01D02*
X346360Y-66639D01*
G01D02*
X345460Y-66498D01*
G01X355030Y-64128D02*
X351610D01*
G01X351940Y-63439D02*
X355100D01*
G01Y-62739D02*
X352030D01*
G01Y-62049D02*
X355100D01*
G01Y-61359D02*
X352030D01*
G01Y-60659D02*
X355100D01*
G01Y-59969D02*
X352030D01*
G01Y-59269D02*
X355100D01*
G01X352030Y-59589D02*
X355100D01*
G01D02*
X352030D01*
G01X354070Y-65519D02*
X343380D01*
G01X350870Y-64828D02*
X354750D01*
G01X353400Y-65948D02*
X352750Y-66239D01*
G01X352810Y-66219D02*
X344540D01*
G01X352750Y-66239D02*
X352070Y-66439D01*
G01X351590Y-64159D02*
X351850Y-63739D01*
G01X351240Y-64509D02*
X351590Y-64159D01*
G01X350880Y-64828D02*
X351240Y-64509D01*
G01X352000Y-63269D02*
X352030Y-62778D01*
G01X351850Y-63739D02*
X352000Y-63269D01*
G01X352030Y-62778D02*
Y-59589D01*
G01X349990Y-65209D02*
X350460Y-65059D01*
G01D02*
X350880Y-64828D01*
G01X349510Y-65259D02*
X349990Y-65209D01*
G01X347900Y-65259D02*
X349510D01*
G01X347300Y-65219D02*
X347900Y-65259D01*
G01X346730Y-65059D02*
X347300Y-65219D01*
G01X346200Y-64798D02*
X346730Y-65059D01*
G01X345730Y-64428D02*
X346200Y-64798D01*
G01X345490Y-74298D02*
X345280Y-74389D01*
G01X345670Y-74169D02*
X345490Y-74298D01*
G01X345830Y-74009D02*
X345670Y-74169D01*
G01X345960Y-73819D02*
X345830Y-74009D01*
G01X346050Y-73619D02*
X345960Y-73819D01*
G01X346110Y-73398D02*
X346050Y-73619D01*
G01X346130Y-73178D02*
X346110Y-73398D01*
G01X346130Y-72428D02*
Y-73178D01*
G01X346110Y-72209D02*
X346130Y-72428D01*
G01X346050Y-71998D02*
X346110Y-72209D01*
G01X345960Y-71789D02*
X346050Y-71998D01*
G01X345830Y-71609D02*
X345960Y-71789D01*
G01X345680Y-71459D02*
X345830Y-71609D01*
G01X345490Y-71328D02*
X345680Y-71459D01*
G01X345290Y-71239D02*
X345490Y-71328D01*
G01X345080Y-71178D02*
X345290Y-71239D01*
G01X344840Y-74469D02*
X344140D01*
G01X345060Y-74448D02*
X344840Y-74469D01*
G01X345280Y-74389D02*
X345060Y-74448D01*
G01X344860Y-71159D02*
X345080Y-71178D01*
G01X344120Y-71159D02*
X344860D01*
G01X343540Y-74328D02*
X343360Y-74219D01*
G01X343730Y-74409D02*
X343540Y-74328D01*
G01X343930Y-74448D02*
X343730Y-74409D01*
G01X344140Y-74469D02*
X343930Y-74448D01*
G01X343890Y-71178D02*
X344120Y-71159D01*
G01X343680Y-71239D02*
X343890Y-71178D01*
G01X343470Y-71328D02*
X343680Y-71239D01*
G01X342880Y-73559D02*
X342840Y-73359D01*
G01X342960Y-73748D02*
X342880Y-73559D01*
G01X343070Y-73928D02*
X342960Y-73748D01*
G01X343210Y-74078D02*
X343070Y-73928D01*
G01X343360Y-74219D02*
X343210Y-74078D01*
G01X342840Y-73359D02*
X342820Y-73148D01*
G01D02*
Y-72459D01*
G01X342990Y-71809D02*
X343120Y-71619D01*
G01X342900Y-72019D02*
X342990Y-71809D01*
G01X342840Y-72228D02*
X342900Y-72019D01*
G01X342820Y-72459D02*
X342840Y-72228D01*
G01X343280Y-71459D02*
X343470Y-71328D01*
G01X343120Y-71619D02*
X343280Y-71459D01*
G01X340460Y-71159D02*
Y-74469D01*
G01X339980Y-71159D02*
X340460D01*
G01X337700Y-74469D02*
X339980Y-71159D01*
G01X337150Y-74469D02*
X337700D01*
G01X337150Y-71159D02*
Y-74469D01*
G01X334790D02*
Y-71159D01*
G01X333030Y-74469D02*
X334790D01*
G01Y-71159D02*
X333010D01*
G01X332830Y-74448D02*
X333030Y-74469D01*
G01X332630Y-74409D02*
X332830Y-74448D01*
G01X332440Y-74328D02*
X332630Y-74409D01*
G01X332260Y-74219D02*
X332440Y-74328D01*
G01X332570Y-71239D02*
X332360Y-71328D01*
G01X332790Y-71178D02*
X332570Y-71239D01*
G01X333010Y-71159D02*
X332790Y-71178D01*
G01X332100Y-74089D02*
X332260Y-74219D01*
G01X331970Y-73928D02*
X332100Y-74089D01*
G01X331860Y-73748D02*
X331970Y-73928D01*
G01X331780Y-73559D02*
X331860Y-73748D01*
G01X331740Y-73359D02*
X331780Y-73559D01*
G01X331720Y-73159D02*
X331740Y-73359D01*
G01X331720Y-72448D02*
Y-73159D01*
G01X331740Y-72228D02*
X331720Y-72448D01*
G01X331800Y-72009D02*
X331740Y-72228D01*
G01X331890Y-71798D02*
X331800Y-72009D01*
G01X332020Y-71619D02*
X331890Y-71798D01*
G01X332180Y-71459D02*
X332020Y-71619D01*
G01X332360Y-71328D02*
X332180Y-71459D01*
G01X329340Y-73448D02*
X329360Y-73228D01*
G01X329290Y-73648D02*
X329340Y-73448D01*
G01X329190Y-73848D02*
X329290Y-73648D01*
G01X329070Y-74028D02*
X329190Y-73848D01*
G01X328920Y-74178D02*
X329070Y-74028D01*
G01X329350Y-73228D02*
Y-71159D01*
G01X328740Y-74298D02*
X328920Y-74178D01*
G01X328540Y-74398D02*
X328740Y-74298D01*
G01X328340Y-74448D02*
X328540Y-74398D01*
G01X328120Y-74469D02*
X328340Y-74448D01*
G01X327600Y-74469D02*
X328120D01*
G01X327370Y-74448D02*
X327600Y-74469D01*
G01X327150Y-74389D02*
X327370Y-74448D01*
G01X326940Y-74289D02*
X327150Y-74389D01*
G01X326760Y-74159D02*
X326940Y-74289D01*
G01X326600Y-73998D02*
X326760Y-74159D01*
G01X326470Y-73809D02*
X326600Y-73998D01*
G01X326370Y-73609D02*
X326470Y-73809D01*
G01X326310Y-73389D02*
X326370Y-73609D01*
G01X326290Y-73159D02*
X326310Y-73389D01*
G01X326280Y-71159D02*
Y-73159D01*
G01X324140Y-73589D02*
X324160Y-73398D01*
G01X324100Y-73769D02*
X324140Y-73589D01*
G01X324020Y-73928D02*
X324100Y-73769D01*
G01X323910Y-74089D02*
X324020Y-73928D01*
G01X323780Y-74219D02*
X323910Y-74089D01*
G01X324160Y-73398D02*
Y-72198D01*
G01X324140Y-72019D02*
X324100Y-71839D01*
G01X324160Y-72198D02*
X324140Y-72019D01*
G01X323920Y-71528D02*
X323790Y-71398D01*
G01X324020Y-71678D02*
X323920Y-71528D01*
G01X324100Y-71839D02*
X324020Y-71678D01*
G01X323630Y-74328D02*
X323780Y-74219D01*
G01X323460Y-74409D02*
X323630Y-74328D01*
G01X323280Y-74448D02*
X323460Y-74409D01*
G01X323090Y-74469D02*
X323280Y-74448D01*
G01X323300Y-71178D02*
X323120Y-71159D01*
G01X323480Y-71219D02*
X323300Y-71178D01*
G01X323640Y-71298D02*
X323480Y-71219D01*
G01X323790Y-71398D02*
X323640Y-71298D01*
G01X345680Y-55799D02*
X342400D01*
G01X345360Y-56239D02*
X345220Y-56659D01*
G01X345600Y-55869D02*
X345360Y-56239D01*
G01X345930Y-55569D02*
X345600Y-55869D01*
G01X345180Y-57109D02*
Y-62778D01*
G01Y-58578D02*
X342110D01*
G01Y-57889D02*
X345180D01*
G01X342160Y-56499D02*
X345270D01*
G01X345180Y-57189D02*
X342110D01*
G01X345220Y-56659D02*
X345180Y-57109D01*
G01X343500Y-54539D02*
X344080Y-54189D01*
G01X342980Y-54978D02*
X343500Y-54539D01*
G01X342600Y-55428D02*
X342980Y-54978D01*
G01X342110Y-63249D02*
Y-57109D01*
G01X342160Y-56519D02*
X342320Y-55948D01*
G01X342110Y-57109D02*
X342160Y-56519D01*
G01X342320Y-55948D02*
X342600Y-55428D01*
G01X338800Y-53919D02*
Y-66669D01*
G01Y-58578D02*
X335440D01*
G01X335500Y-57889D02*
X338800D01*
G01Y-57189D02*
X335500D01*
G01Y-56499D02*
X338800D01*
G01Y-55799D02*
X335500D01*
G01Y-55109D02*
X338800D01*
G01X335500Y-58309D02*
Y-53919D01*
G01X335470Y-58519D02*
X335500Y-58309D01*
G01X335390Y-58709D02*
X335470Y-58519D01*
G01X335260Y-58878D02*
X335390Y-58709D01*
G01X335090Y-59009D02*
X335260Y-58878D01*
G01X328640Y-58889D02*
X328800Y-59009D01*
G01X328520Y-58719D02*
X328640Y-58889D01*
G01X328460Y-58578D02*
X325100D01*
G01X328440Y-58528D02*
X328520Y-58719D01*
G01X328410Y-58328D02*
X328440Y-58528D01*
G01X328410Y-53919D02*
Y-58328D01*
G01X325100Y-57889D02*
X328410D01*
G01X325100Y-56499D02*
X328410D01*
G01Y-57189D02*
X325100D01*
G01X328410Y-55799D02*
X325100D01*
G01Y-55109D02*
X328410D01*
G01X325100Y-66669D02*
Y-53919D01*
G01X342670Y-64828D02*
X346260D01*
G01X345460Y-66498D02*
X344590Y-66239D01*
G01X345560Y-64128D02*
X342280D01*
G01X345430Y-63919D02*
X345730Y-64428D01*
G01X345240Y-63359D02*
X345430Y-63919D01*
G01X344590Y-66239D02*
X344010Y-65969D01*
G01X342130Y-63439D02*
X345270D01*
G01X345180Y-62778D02*
X345240Y-63359D01*
G01X345180Y-62739D02*
X342110D01*
G01Y-62049D02*
X345180D01*
G01X342110Y-60659D02*
X345180D01*
G01Y-61359D02*
X342110D01*
G01X345180Y-59969D02*
X342110D01*
G01Y-59269D02*
X345180D01*
G01X344010Y-65969D02*
X343480Y-65619D01*
G01X343020Y-65178D02*
X342630Y-64789D01*
G01X343480Y-65619D02*
X343020Y-65178D01*
G01X342630Y-64789D02*
X342340Y-64319D01*
G01D02*
X342160Y-63798D01*
G01D02*
X342110Y-63249D01*
G01X338800Y-66669D02*
X335500D01*
G01X328410D02*
X325100D01*
G01X338800Y-66219D02*
X335500D01*
G01Y-65519D02*
X338800D01*
G01Y-64828D02*
X335500D01*
G01Y-64128D02*
X338800D01*
G01Y-63439D02*
X335500D01*
G01Y-62739D02*
X338800D01*
G01Y-62049D02*
X335500D01*
G01X338800Y-60659D02*
X325100D01*
G01X335470Y-61359D02*
X338800D01*
G01X325100Y-59969D02*
X338800D01*
G01Y-59269D02*
X325100D01*
G01X335500Y-66669D02*
Y-61549D01*
G01D02*
X335470Y-61349D01*
G01X335270Y-60998D02*
X335110Y-60869D01*
G01X335390Y-61159D02*
X335270Y-60998D01*
G01X335470Y-61349D02*
X335390Y-61159D01*
G01X335110Y-60869D02*
X334920Y-60789D01*
G01X334900Y-59089D02*
X335090Y-59009D01*
G01X334720Y-60769D02*
X329240D01*
G01X334920Y-60789D02*
X334720Y-60769D01*
G01X334690Y-59109D02*
X334900Y-59089D01*
G01X329190Y-59109D02*
X334690D01*
G01X329240Y-60769D02*
X329030Y-60798D01*
G01X328990Y-59089D02*
X329190Y-59109D01*
G01X328410Y-61598D02*
Y-66669D01*
G01Y-66219D02*
X325100D01*
G01Y-65519D02*
X328410D01*
G01X325100Y-64128D02*
X328410D01*
G01Y-64828D02*
X325100D01*
G01X328410Y-63439D02*
X325100D01*
G01Y-62739D02*
X328410D01*
G01Y-62049D02*
X325100D01*
G01X328440Y-61378D02*
X328410Y-61598D01*
G01X325100Y-61359D02*
X328450D01*
G01X328520Y-61178D02*
X328440Y-61378D01*
G01X328650Y-61009D02*
X328520Y-61178D01*
G01X328820Y-60878D02*
X328650Y-61009D01*
G01X329030Y-60798D02*
X328820Y-60878D01*
G01X328800Y-59009D02*
X328990Y-59089D01*
G01X318620Y-53539D02*
X321560Y-53919D01*
G01X315650Y-53448D02*
X318620Y-53539D01*
G01X311320Y-53448D02*
X315650D01*
G01X310160Y-53509D02*
X311320Y-53448D01*
G01X353590Y-54419D02*
X343710D01*
G01X352700Y-53878D02*
X353410Y-54269D01*
G01X351940Y-53619D02*
X352700Y-53878D01*
G01X345280Y-53719D02*
X352230D01*
G01X351140Y-53478D02*
X351940Y-53619D01*
G01X350340Y-53448D02*
X351140Y-53478D01*
G01X347230Y-53448D02*
X350340D01*
G01X346370Y-53478D02*
X347230Y-53448D01*
G01X345520Y-53639D02*
X346370Y-53478D01*
G01X344710Y-53919D02*
X345520Y-53639D01*
G01X344080Y-54189D02*
X344710Y-53919D01*
G01X335500D02*
X338800D01*
G01Y-54419D02*
X335500D01*
G01X328410D02*
X325100D01*
G01Y-53919D02*
X328410D01*
G01X364430Y-74469D02*
X364610Y-74448D01*
G01X362660Y-74469D02*
X364430D01*
G01X364470Y-71159D02*
X364670Y-71178D01*
G01X362660Y-71159D02*
X364470D01*
G01X367620D02*
X370170D01*
G01X370040Y-72819D02*
X368420D01*
G01X368310Y-74448D02*
X368480Y-74469D01*
G01X368420Y-72809D02*
X368260Y-72828D01*
G01X368150Y-74398D02*
X368310Y-74448D01*
G01X368000Y-74328D02*
X368150Y-74398D01*
G01X367870Y-74219D02*
X368000Y-74328D01*
G01X367760Y-74089D02*
X367870Y-74219D01*
G01X367690Y-73939D02*
X367760Y-74089D01*
G01X367640Y-73778D02*
X367690Y-73939D01*
G01X367620Y-73609D02*
X367640Y-73778D01*
G01Y-73448D02*
X367620Y-73609D01*
G01X367680Y-73298D02*
X367640Y-73448D01*
G01X367750Y-73169D02*
X367680Y-73298D01*
G01X367850Y-73039D02*
X367750Y-73169D01*
G01X367980Y-72939D02*
X367850Y-73039D01*
G01X368110Y-72869D02*
X367980Y-72939D01*
G01X368260Y-72828D02*
X368110Y-72869D01*
G01X365470Y-73589D02*
X365490Y-73409D01*
G01X365430Y-73769D02*
X365470Y-73589D01*
G01X365350Y-73939D02*
X365430Y-73769D01*
G01X365240Y-74089D02*
X365350Y-73939D01*
G01X365110Y-74219D02*
X365240Y-74089D01*
G01X364960Y-74328D02*
X365110Y-74219D01*
G01X364790Y-74409D02*
X364960Y-74328D01*
G01X365500Y-72178D02*
Y-72819D01*
G01D02*
X362660D01*
G01X365500Y-73409D02*
Y-72819D01*
G01X365470Y-71978D02*
X365490Y-72178D01*
G01X365410Y-71789D02*
X365470Y-71978D01*
G01X365320Y-71609D02*
X365410Y-71789D01*
G01X365190Y-71459D02*
X365320Y-71609D01*
G01X365040Y-71328D02*
X365190Y-71459D01*
G01X364860Y-71239D02*
X365040Y-71328D01*
G01X364610Y-74448D02*
X364790Y-74409D01*
G01X364670Y-71178D02*
X364860Y-71239D01*
G01X361050Y-66669D02*
X365500Y-61478D01*
G01X360300Y-71159D02*
Y-74469D01*
G01X359750Y-71159D02*
X360300D01*
G01X358210Y-74469D02*
X359750Y-71159D01*
G01X356800D02*
X358210Y-74469D01*
G01X356280Y-71159D02*
X356800D01*
G01X356280Y-74469D02*
Y-71159D01*
G01X353690D02*
Y-74469D01*
G01X361840Y-61789D02*
X357390Y-66669D01*
G01X370930Y-58578D02*
X367620D01*
G01Y-57889D02*
X370930D01*
G01X367620Y-56499D02*
X370930D01*
G01Y-57189D02*
X367620D01*
G01X370930Y-55799D02*
X367620D01*
G01X367410Y-55109D02*
X370930D01*
G01X367620Y-55639D02*
Y-66669D01*
G01X367600Y-55439D02*
X367620Y-55639D01*
G01X367520Y-55248D02*
X367600Y-55439D01*
G01X367400Y-55089D02*
X367520Y-55248D01*
G01X367230Y-54969D02*
X367400Y-55089D01*
G01X367050Y-54889D02*
X367230Y-54969D01*
G01X366850Y-54859D02*
X367050Y-54889D01*
G01X364000Y-54859D02*
X366850D01*
G01X363310Y-54889D02*
X364000Y-54859D01*
G01X362630Y-55048D02*
X363310Y-54889D01*
G01X358640Y-55109D02*
X362500D01*
G01X361990Y-55339D02*
X362630Y-55048D01*
G01X361600Y-59228D02*
X361410Y-58828D01*
G01X361580Y-55799D02*
X358270D01*
G01X361680Y-55648D02*
X361990Y-55339D01*
G01X361450Y-56019D02*
X361680Y-55648D01*
G01X361340Y-58578D02*
X358180D01*
G01X361290Y-58409D02*
X361240Y-57969D01*
G01X361410Y-58828D02*
X361290Y-58409D01*
G01X358170Y-57889D02*
X361240D01*
G01Y-57969D02*
Y-56869D01*
G01Y-57189D02*
X358170D01*
G01Y-56499D02*
X361290D01*
G01X361300Y-56428D02*
X361450Y-56019D01*
G01X361240Y-56869D02*
X361300Y-56428D01*
G01X359060Y-54619D02*
X358650Y-55099D01*
G01X359550Y-54219D02*
X359060Y-54619D01*
G01X358170Y-58519D02*
X358210Y-58998D01*
G01X358170Y-56519D02*
Y-58519D01*
G01X358190Y-56139D02*
X358170Y-56519D01*
G01X358280Y-55759D02*
X358190Y-56139D01*
G01X358430Y-55409D02*
X358280Y-55759D01*
G01X358650Y-55099D02*
X358430Y-55409D01*
G01X355100Y-56828D02*
Y-59589D01*
G01X355060Y-56348D02*
X355100Y-56828D01*
G01X354700Y-55469D02*
X354930Y-55889D01*
G01D02*
X355060Y-56348D01*
G01X354410Y-55089D02*
X354700Y-55469D01*
G01X354040Y-54778D02*
X354410Y-55089D01*
G01X353410Y-54269D02*
X354040Y-54778D01*
G01X367620Y-66669D02*
X370930D01*
G01X364410Y-62739D02*
X360970D01*
G01X367620Y-66219D02*
X370930D01*
G01Y-65519D02*
X367620D01*
G01X370930Y-64128D02*
X367620D01*
G01Y-64828D02*
X370930D01*
G01X367620Y-63439D02*
X370930D01*
G01Y-62739D02*
X367620D01*
G01Y-62049D02*
X370930D01*
G01X367620Y-60659D02*
X370930D01*
G01Y-61359D02*
X367620D01*
G01X370930Y-59969D02*
X367620D01*
G01Y-59269D02*
X370930D01*
G01X361600Y-62049D02*
X365010D01*
G01X365500Y-61359D02*
X361840D01*
G01X359360Y-60659D02*
X365500D01*
G01Y-61478D02*
Y-60059D01*
G01D02*
X363720D01*
G01X357390Y-66669D02*
X361050D01*
G01X360330Y-63439D02*
X363820D01*
G01X363720Y-60059D02*
X363140Y-60019D01*
G01X359070Y-64828D02*
X362630D01*
G01X363220Y-64128D02*
X359700D01*
G01X362950Y-59969D02*
X358610D01*
G01X362580Y-59869D02*
X362060Y-59598D01*
G01X363140Y-60019D02*
X362580Y-59869D01*
G01X362030Y-65519D02*
X358440D01*
G01X361840Y-61278D02*
Y-61789D01*
G01X361140Y-61269D02*
X361840Y-61278D01*
G01X358280Y-59269D02*
X361650D01*
G01X362060Y-59598D02*
X361600Y-59228D01*
G01X357800Y-66219D02*
X361440D01*
G01X360460Y-61149D02*
X361140Y-61269D01*
G01X359800Y-60909D02*
X360460Y-61149D01*
G01X359200Y-60569D02*
X359800Y-60909D01*
G01X358840Y-60259D02*
X359200Y-60569D01*
G01X358550Y-59878D02*
X358840Y-60259D01*
G01X358330Y-59459D02*
X358550Y-59878D01*
G01X358210Y-58998D02*
X358330Y-59459D01*
G01X354700Y-64909D02*
X354390Y-65278D01*
G01X354930Y-64478D02*
X354700Y-64909D01*
G01X355070Y-64009D02*
X354930Y-64478D01*
G01X355100Y-63519D02*
X355070Y-64009D01*
G01X355100Y-59589D02*
Y-63519D01*
G01X354000Y-65569D02*
X353400Y-65948D01*
G01X354390Y-65278D02*
X354000Y-65569D01*
G01X370860Y-72259D02*
X370780Y-72409D01*
G01X370910Y-71748D02*
X370930Y-71919D01*
G01X370910Y-72089D02*
X370860Y-72259D01*
G01X370930Y-71919D02*
X370910Y-72089D01*
G01X370850Y-71589D02*
X370910Y-71748D01*
G01X370760Y-71448D02*
X370850Y-71589D01*
G01X368480Y-74469D02*
X370930D01*
G01X370210Y-72789D02*
X370040Y-72809D01*
G01X370380Y-72739D02*
X370210Y-72789D01*
G01X370530Y-72659D02*
X370380Y-72739D01*
G01X370670Y-72548D02*
X370530Y-72659D01*
G01X370780Y-72409D02*
X370670Y-72548D01*
G01X370640Y-71328D02*
X370760Y-71448D01*
G01X370500Y-71239D02*
X370640Y-71328D01*
G01X370340Y-71178D02*
X370500Y-71239D01*
G01X370170Y-71159D02*
X370340Y-71178D01*
G01X370930Y-66669D02*
Y-53919D01*
G01Y-54419D02*
X359310D01*
G01X369590Y-53719D02*
X361020D01*
G01X368690Y-53589D02*
X366440Y-53448D01*
G01D02*
X363410D01*
G01D02*
X361740Y-53569D01*
G01D02*
X360100Y-53919D01*
G01D02*
X359550Y-54219D01*
G01X370930Y-53919D02*
X368690Y-53589D01*
G54D18*
X47699Y164449D03*
X95101D03*
G54D27*
X110646Y161850D03*
X175606D03*
G54D37*
G01X-98373Y-85819D02*
Y-81819D01*
X-99500Y-85152D01*
X-100627Y-81819D01*
Y-85819D01*
G01X-101817D02*
X-102900Y-81819D01*
X-103983Y-85819D01*
G01X-103593Y-84419D02*
X-102207D01*
G01X-107253Y-82152D02*
X-106993Y-81952D01*
X-106690Y-81819D01*
X-106343D01*
X-105953Y-82019D01*
X-105650Y-82352D01*
X-105433Y-82752D01*
X-105260Y-83419D01*
X-105217Y-84019D01*
X-105303Y-84619D01*
X-105433Y-85019D01*
X-105693Y-85419D01*
X-105997Y-85685D01*
X-106300Y-85819D01*
X-106603D01*
X-106907Y-85685D01*
X-107167Y-85485D01*
X-107383Y-85219D01*
G01X-108790Y-85819D02*
Y-81819D01*
G01X-110610D02*
Y-85819D01*
G01Y-83819D02*
X-108790D01*
G01X-115677Y-85819D02*
Y-81819D01*
X-117323D01*
G01X-116717Y-83752D02*
X-115677D01*
G01X-119380Y-81819D02*
X-120420D01*
G01X-119900D02*
Y-85819D01*
G01X-119380D02*
X-120420D01*
G01X-122303D02*
Y-81819D01*
X-124297Y-85819D01*
Y-81819D01*
G01X-126180D02*
X-127220D01*
G01X-126700D02*
Y-85819D01*
G01X-126180D02*
X-127220D01*
G01X-129190Y-85285D02*
X-129537Y-85619D01*
X-129927Y-85819D01*
X-130273D01*
X-130620Y-85619D01*
X-130880Y-85285D01*
X-131010Y-84819D01*
X-130923Y-84352D01*
X-130707Y-83952D01*
X-130317Y-83685D01*
X-129797Y-83552D01*
X-129493Y-83285D01*
X-129363Y-82819D01*
X-129450Y-82352D01*
X-129667Y-82019D01*
X-129970Y-81819D01*
X-130273D01*
X-130577Y-81952D01*
X-130837Y-82285D01*
G01X-132590Y-85819D02*
Y-81819D01*
G01X-134410D02*
Y-85819D01*
G01Y-83819D02*
X-132590D01*
G01X408000Y-97319D02*
Y-22319D01*
X-137000D01*
Y-97319D01*
X408000D01*
G01X-65790Y-42285D02*
X-66137Y-42619D01*
X-66527Y-42819D01*
X-66873D01*
X-67220Y-42619D01*
X-67480Y-42285D01*
X-67610Y-41819D01*
X-67523Y-41352D01*
X-67307Y-40952D01*
X-66917Y-40685D01*
X-66397Y-40552D01*
X-66093Y-40285D01*
X-65963Y-39819D01*
X-66050Y-39352D01*
X-66267Y-39019D01*
X-66570Y-38819D01*
X-66873D01*
X-67177Y-38952D01*
X-67437Y-39285D01*
G01X-69233Y-42819D02*
Y-38819D01*
X-70273D01*
X-70620Y-39019D01*
X-70880Y-39485D01*
X-70967Y-40019D01*
X-70880Y-40552D01*
X-70663Y-40952D01*
X-70273Y-41152D01*
X-69233D01*
G01X-74367Y-42819D02*
X-72633D01*
Y-38819D01*
X-74367D01*
G01X-73673Y-40752D02*
X-72633D01*
G01X-77853Y-39152D02*
X-77593Y-38952D01*
X-77290Y-38819D01*
X-76943D01*
X-76553Y-39019D01*
X-76250Y-39352D01*
X-76033Y-39752D01*
X-75860Y-40419D01*
X-75817Y-41019D01*
X-75903Y-41619D01*
X-76033Y-42019D01*
X-76293Y-42419D01*
X-76597Y-42685D01*
X-76900Y-42819D01*
X-77203D01*
X-77507Y-42685D01*
X-77767Y-42485D01*
X-77983Y-42219D01*
G01X-79780Y-38819D02*
X-80820D01*
G01X-80300D02*
Y-42819D01*
G01X-79780D02*
X-80820D01*
G01X-82877D02*
Y-38819D01*
X-84523D01*
G01X-83917Y-40752D02*
X-82877D01*
G01X-86580Y-38819D02*
X-87620D01*
G01X-87100D02*
Y-42819D01*
G01X-86580D02*
X-87620D01*
G01X-91367D02*
X-89633D01*
Y-38819D01*
X-91367D01*
G01X-90673Y-40752D02*
X-89633D01*
G01X-92947Y-42819D02*
Y-38819D01*
X-93813D01*
X-94160Y-39019D01*
X-94420Y-39285D01*
X-94637Y-39685D01*
X-94810Y-40152D01*
X-94853Y-40819D01*
X-94810Y-41485D01*
X-94637Y-41952D01*
X-94420Y-42352D01*
X-94160Y-42619D01*
X-93813Y-42819D01*
X-92947D01*
G01X-99747D02*
Y-38819D01*
X-100613D01*
X-100960Y-39019D01*
X-101220Y-39285D01*
X-101437Y-39685D01*
X-101610Y-40152D01*
X-101653Y-40819D01*
X-101610Y-41485D01*
X-101437Y-41952D01*
X-101220Y-42352D01*
X-100960Y-42619D01*
X-100613Y-42819D01*
X-99747D01*
G01X-103580Y-38819D02*
X-104620D01*
G01X-104100D02*
Y-42819D01*
G01X-103580D02*
X-104620D01*
G01X-106373D02*
Y-38819D01*
X-107500Y-42152D01*
X-108627Y-38819D01*
Y-42819D01*
G01X-111767D02*
X-110033D01*
Y-38819D01*
X-111767D01*
G01X-111073Y-40752D02*
X-110033D01*
G01X-113303Y-42819D02*
Y-38819D01*
X-115297Y-42819D01*
Y-38819D01*
G01X-116790Y-42285D02*
X-117137Y-42619D01*
X-117527Y-42819D01*
X-117873D01*
X-118220Y-42619D01*
X-118480Y-42285D01*
X-118610Y-41819D01*
X-118523Y-41352D01*
X-118307Y-40952D01*
X-117917Y-40685D01*
X-117397Y-40552D01*
X-117093Y-40285D01*
X-116963Y-39819D01*
X-117050Y-39352D01*
X-117267Y-39019D01*
X-117570Y-38819D01*
X-117873D01*
X-118177Y-38952D01*
X-118437Y-39285D01*
G01X-120580Y-38819D02*
X-121620D01*
G01X-121100D02*
Y-42819D01*
G01X-120580D02*
X-121620D01*
G01X-124500D02*
X-124153Y-42752D01*
X-123850Y-42485D01*
X-123590Y-42085D01*
X-123417Y-41619D01*
X-123330Y-41085D01*
Y-40552D01*
X-123417Y-40019D01*
X-123590Y-39552D01*
X-123850Y-39152D01*
X-124153Y-38885D01*
X-124500Y-38819D01*
X-124847Y-38885D01*
X-125150Y-39152D01*
X-125410Y-39552D01*
X-125583Y-40019D01*
X-125670Y-40552D01*
Y-41085D01*
X-125583Y-41619D01*
X-125410Y-42085D01*
X-125150Y-42485D01*
X-124847Y-42752D01*
X-124500Y-42819D01*
G01X-126903D02*
Y-38819D01*
X-128897Y-42819D01*
Y-38819D01*
G01X-130390Y-42285D02*
X-130737Y-42619D01*
X-131127Y-42819D01*
X-131473D01*
X-131820Y-42619D01*
X-132080Y-42285D01*
X-132210Y-41819D01*
X-132123Y-41352D01*
X-131907Y-40952D01*
X-131517Y-40685D01*
X-130997Y-40552D01*
X-130693Y-40285D01*
X-130563Y-39819D01*
X-130650Y-39352D01*
X-130867Y-39019D01*
X-131170Y-38819D01*
X-131473D01*
X-131777Y-38952D01*
X-132037Y-39285D01*
G01X-72547Y-31319D02*
Y-34185D01*
X-72720Y-34785D01*
X-73067Y-35185D01*
X-73500Y-35319D01*
X-73933Y-35185D01*
X-74280Y-34785D01*
X-74453Y-34185D01*
Y-31319D01*
G01X-75903Y-35319D02*
Y-31319D01*
X-77897Y-35319D01*
Y-31319D01*
G01X-79433D02*
Y-35319D01*
X-81167D01*
G01X-84567D02*
X-82833D01*
Y-31319D01*
X-84567D01*
G01X-83873Y-33252D02*
X-82833D01*
G01X-86190Y-34785D02*
X-86537Y-35119D01*
X-86927Y-35319D01*
X-87273D01*
X-87620Y-35119D01*
X-87880Y-34785D01*
X-88010Y-34319D01*
X-87923Y-33852D01*
X-87707Y-33452D01*
X-87317Y-33185D01*
X-86797Y-33052D01*
X-86493Y-32785D01*
X-86363Y-32319D01*
X-86450Y-31852D01*
X-86667Y-31519D01*
X-86970Y-31319D01*
X-87273D01*
X-87577Y-31452D01*
X-87837Y-31785D01*
G01X-89590Y-34785D02*
X-89937Y-35119D01*
X-90327Y-35319D01*
X-90673D01*
X-91020Y-35119D01*
X-91280Y-34785D01*
X-91410Y-34319D01*
X-91323Y-33852D01*
X-91107Y-33452D01*
X-90717Y-33185D01*
X-90197Y-33052D01*
X-89893Y-32785D01*
X-89763Y-32319D01*
X-89850Y-31852D01*
X-90067Y-31519D01*
X-90370Y-31319D01*
X-90673D01*
X-90977Y-31452D01*
X-91237Y-31785D01*
G01X-97300Y-35319D02*
X-96953Y-35252D01*
X-96650Y-34985D01*
X-96390Y-34585D01*
X-96217Y-34119D01*
X-96130Y-33585D01*
Y-33052D01*
X-96217Y-32519D01*
X-96390Y-32052D01*
X-96650Y-31652D01*
X-96953Y-31385D01*
X-97300Y-31319D01*
X-97647Y-31385D01*
X-97950Y-31652D01*
X-98210Y-32052D01*
X-98383Y-32519D01*
X-98470Y-33052D01*
Y-33585D01*
X-98383Y-34119D01*
X-98210Y-34585D01*
X-97950Y-34985D01*
X-97647Y-35252D01*
X-97300Y-35319D01*
G01X-100700Y-31319D02*
Y-35319D01*
G01X-99703Y-31319D02*
X-101697D01*
G01X-103190Y-35319D02*
Y-31319D01*
G01X-105010D02*
Y-35319D01*
G01Y-33319D02*
X-103190D01*
G01X-108367Y-35319D02*
X-106633D01*
Y-31319D01*
X-108367D01*
G01X-107673Y-33252D02*
X-106633D01*
G01X-110033Y-35319D02*
Y-31319D01*
X-111117D01*
X-111463Y-31519D01*
X-111680Y-31785D01*
X-111767Y-32319D01*
X-111680Y-32852D01*
X-111420Y-33185D01*
X-111117Y-33385D01*
X-110033D01*
G01X-111117D02*
X-111767Y-35319D01*
G01X-113000Y-31319D02*
X-113607Y-35319D01*
X-114300Y-31319D01*
X-114993Y-35319D01*
X-115600Y-31319D01*
G01X-117180D02*
X-118220D01*
G01X-117700D02*
Y-35319D01*
G01X-117180D02*
X-118220D01*
G01X-120190Y-34785D02*
X-120537Y-35119D01*
X-120927Y-35319D01*
X-121273D01*
X-121620Y-35119D01*
X-121880Y-34785D01*
X-122010Y-34319D01*
X-121923Y-33852D01*
X-121707Y-33452D01*
X-121317Y-33185D01*
X-120797Y-33052D01*
X-120493Y-32785D01*
X-120363Y-32319D01*
X-120450Y-31852D01*
X-120667Y-31519D01*
X-120970Y-31319D01*
X-121273D01*
X-121577Y-31452D01*
X-121837Y-31785D01*
G01X-125367Y-35319D02*
X-123633D01*
Y-31319D01*
X-125367D01*
G01X-124673Y-33252D02*
X-123633D01*
G01X-117347Y-79019D02*
X-117607Y-79485D01*
X-117953Y-79752D01*
X-118343Y-79819D01*
X-118690Y-79752D01*
X-119037Y-79419D01*
X-119253Y-79019D01*
X-119297Y-78619D01*
X-119210Y-78152D01*
X-118907Y-77819D01*
X-118603Y-77685D01*
X-118213D01*
G01X-118603D02*
X-118863Y-77485D01*
X-119080Y-77152D01*
X-119167Y-76752D01*
X-119080Y-76352D01*
X-118863Y-76019D01*
X-118473Y-75819D01*
X-118083Y-75885D01*
X-117693Y-76152D01*
G01X-121700Y-75819D02*
X-121353Y-75952D01*
X-121093Y-76285D01*
X-120920Y-76685D01*
X-120790Y-77219D01*
X-120747Y-77819D01*
X-120790Y-78419D01*
X-120920Y-78952D01*
X-121093Y-79352D01*
X-121353Y-79685D01*
X-121700Y-79819D01*
X-122047Y-79685D01*
X-122307Y-79352D01*
X-122480Y-78952D01*
X-122610Y-78419D01*
X-122653Y-77819D01*
X-122610Y-77219D01*
X-122480Y-76685D01*
X-122307Y-76285D01*
X-122047Y-75952D01*
X-121700Y-75819D01*
G01X-105617Y-73819D02*
X-106700Y-69819D01*
X-107783Y-73819D01*
G01X-107393Y-72419D02*
X-106007D01*
G01X-109103Y-73819D02*
Y-69819D01*
X-111097Y-73819D01*
Y-69819D01*
G01X-113760Y-71819D02*
X-114627D01*
Y-73019D01*
X-114367Y-73419D01*
X-114063Y-73685D01*
X-113630Y-73819D01*
X-113197Y-73685D01*
X-112893Y-73419D01*
X-112633Y-73019D01*
X-112460Y-72552D01*
X-112373Y-72019D01*
Y-71552D01*
X-112460Y-71152D01*
X-112633Y-70685D01*
X-112893Y-70285D01*
X-113153Y-70019D01*
X-113500Y-69819D01*
X-113803D01*
X-114150Y-69952D01*
X-114410Y-70219D01*
G01X-116033Y-69819D02*
Y-73819D01*
X-117767D01*
G01X-121167D02*
X-119433D01*
Y-69819D01*
X-121167D01*
G01X-120473Y-71752D02*
X-119433D01*
G01X-83700Y-61319D02*
Y-65319D01*
G01X-82703Y-61319D02*
X-84697D01*
G01X-87100Y-65319D02*
X-86753Y-65252D01*
X-86450Y-64985D01*
X-86190Y-64585D01*
X-86017Y-64119D01*
X-85930Y-63585D01*
Y-63052D01*
X-86017Y-62519D01*
X-86190Y-62052D01*
X-86450Y-61652D01*
X-86753Y-61385D01*
X-87100Y-61319D01*
X-87447Y-61385D01*
X-87750Y-61652D01*
X-88010Y-62052D01*
X-88183Y-62519D01*
X-88270Y-63052D01*
Y-63585D01*
X-88183Y-64119D01*
X-88010Y-64585D01*
X-87750Y-64985D01*
X-87447Y-65252D01*
X-87100Y-65319D01*
G01X-89633Y-61319D02*
Y-65319D01*
X-91367D01*
G01X-94767D02*
X-93033D01*
Y-61319D01*
X-94767D01*
G01X-94073Y-63252D02*
X-93033D01*
G01X-96433Y-65319D02*
Y-61319D01*
X-97517D01*
X-97863Y-61519D01*
X-98080Y-61785D01*
X-98167Y-62319D01*
X-98080Y-62852D01*
X-97820Y-63185D01*
X-97517Y-63385D01*
X-96433D01*
G01X-97517D02*
X-98167Y-65319D01*
G01X-99617D02*
X-100700Y-61319D01*
X-101783Y-65319D01*
G01X-101393Y-63919D02*
X-100007D01*
G01X-103103Y-65319D02*
Y-61319D01*
X-105097Y-65319D01*
Y-61319D01*
G01X-108453Y-61652D02*
X-108193Y-61452D01*
X-107890Y-61319D01*
X-107543D01*
X-107153Y-61519D01*
X-106850Y-61852D01*
X-106633Y-62252D01*
X-106460Y-62919D01*
X-106417Y-63519D01*
X-106503Y-64119D01*
X-106633Y-64519D01*
X-106893Y-64919D01*
X-107197Y-65185D01*
X-107500Y-65319D01*
X-107803D01*
X-108107Y-65185D01*
X-108367Y-64985D01*
X-108583Y-64719D01*
G01X-111767Y-65319D02*
X-110033D01*
Y-61319D01*
X-111767D01*
G01X-111073Y-63252D02*
X-110033D01*
G01X-113390Y-64785D02*
X-113737Y-65119D01*
X-114127Y-65319D01*
X-114473D01*
X-114820Y-65119D01*
X-115080Y-64785D01*
X-115210Y-64319D01*
X-115123Y-63852D01*
X-114907Y-63452D01*
X-114517Y-63185D01*
X-113997Y-63052D01*
X-113693Y-62785D01*
X-113563Y-62319D01*
X-113650Y-61852D01*
X-113867Y-61519D01*
X-114170Y-61319D01*
X-114473D01*
X-114777Y-61452D01*
X-115037Y-61785D01*
G01X-83800Y-91452D02*
X-83713Y-91385D01*
Y-91252D01*
X-83800Y-91185D01*
X-83887Y-91252D01*
Y-91385D01*
X-83800Y-91452D01*
G01X-87200Y-87319D02*
X-86853Y-87452D01*
X-86593Y-87785D01*
X-86420Y-88185D01*
X-86290Y-88719D01*
X-86247Y-89319D01*
X-86290Y-89919D01*
X-86420Y-90452D01*
X-86593Y-90852D01*
X-86853Y-91185D01*
X-87200Y-91319D01*
X-87547Y-91185D01*
X-87807Y-90852D01*
X-87980Y-90452D01*
X-88110Y-89919D01*
X-88153Y-89319D01*
X-88110Y-88719D01*
X-87980Y-88185D01*
X-87807Y-87785D01*
X-87547Y-87452D01*
X-87200Y-87319D01*
G01X-90600Y-91319D02*
Y-87319D01*
X-90080Y-88119D01*
G01Y-91319D02*
X-91120D01*
G01X-94000Y-87319D02*
X-93653Y-87452D01*
X-93393Y-87785D01*
X-93220Y-88185D01*
X-93090Y-88719D01*
X-93047Y-89319D01*
X-93090Y-89919D01*
X-93220Y-90452D01*
X-93393Y-90852D01*
X-93653Y-91185D01*
X-94000Y-91319D01*
X-94347Y-91185D01*
X-94607Y-90852D01*
X-94780Y-90452D01*
X-94910Y-89919D01*
X-94953Y-89319D01*
X-94910Y-88719D01*
X-94780Y-88185D01*
X-94607Y-87785D01*
X-94347Y-87452D01*
X-94000Y-87319D01*
G01X-83800Y-85452D02*
X-83713Y-85385D01*
Y-85252D01*
X-83800Y-85185D01*
X-83887Y-85252D01*
Y-85385D01*
X-83800Y-85452D01*
G01X-87200Y-81319D02*
X-86853Y-81452D01*
X-86593Y-81785D01*
X-86420Y-82185D01*
X-86290Y-82719D01*
X-86247Y-83319D01*
X-86290Y-83919D01*
X-86420Y-84452D01*
X-86593Y-84852D01*
X-86853Y-85185D01*
X-87200Y-85319D01*
X-87547Y-85185D01*
X-87807Y-84852D01*
X-87980Y-84452D01*
X-88110Y-83919D01*
X-88153Y-83319D01*
X-88110Y-82719D01*
X-87980Y-82185D01*
X-87807Y-81785D01*
X-87547Y-81452D01*
X-87200Y-81319D01*
G01X-89647Y-84519D02*
X-89907Y-84985D01*
X-90253Y-85252D01*
X-90643Y-85319D01*
X-90990Y-85252D01*
X-91337Y-84919D01*
X-91553Y-84519D01*
X-91597Y-84119D01*
X-91510Y-83652D01*
X-91207Y-83319D01*
X-90903Y-83185D01*
X-90513D01*
G01X-90903D02*
X-91163Y-82985D01*
X-91380Y-82652D01*
X-91467Y-82252D01*
X-91380Y-81852D01*
X-91163Y-81519D01*
X-90773Y-81319D01*
X-90383Y-81385D01*
X-89993Y-81652D01*
G01X-83800Y-79452D02*
X-83713Y-79385D01*
Y-79252D01*
X-83800Y-79185D01*
X-83887Y-79252D01*
Y-79385D01*
X-83800Y-79452D01*
G01X-87200Y-79319D02*
Y-75319D01*
X-86680Y-76119D01*
G01Y-79319D02*
X-87720D01*
G01X-68847Y-73819D02*
Y-69819D01*
X-69713D01*
X-70060Y-70019D01*
X-70320Y-70285D01*
X-70537Y-70685D01*
X-70710Y-71152D01*
X-70753Y-71819D01*
X-70710Y-72485D01*
X-70537Y-72952D01*
X-70320Y-73352D01*
X-70060Y-73619D01*
X-69713Y-73819D01*
X-68847D01*
G01X-74067D02*
X-72333D01*
Y-69819D01*
X-74067D01*
G01X-73373Y-71752D02*
X-72333D01*
G01X-77553Y-70152D02*
X-77293Y-69952D01*
X-76990Y-69819D01*
X-76643D01*
X-76253Y-70019D01*
X-75950Y-70352D01*
X-75733Y-70752D01*
X-75560Y-71419D01*
X-75517Y-72019D01*
X-75603Y-72619D01*
X-75733Y-73019D01*
X-75993Y-73419D01*
X-76297Y-73685D01*
X-76600Y-73819D01*
X-76903D01*
X-77207Y-73685D01*
X-77467Y-73485D01*
X-77683Y-73219D01*
G01X-79480Y-69819D02*
X-80520D01*
G01X-80000D02*
Y-73819D01*
G01X-79480D02*
X-80520D01*
G01X-82273D02*
Y-69819D01*
X-83400Y-73152D01*
X-84527Y-69819D01*
Y-73819D01*
G01X-85717D02*
X-86800Y-69819D01*
X-87883Y-73819D01*
G01X-87493Y-72419D02*
X-86107D01*
G01X-89333Y-69819D02*
Y-73819D01*
X-91067D01*
G01X-117500Y-86819D02*
X-120500D01*
G01X-119000D02*
X-116700Y-91319D01*
X-115200Y-89119D01*
G01X-112200Y-77119D02*
X-115200D01*
G01X-112200Y-79319D02*
X-115200D01*
G01X-113700Y-75619D02*
Y-78619D01*
G01X-78500Y-91319D02*
X-81500D01*
G01X-78500Y-89119D02*
X-81500D01*
G01X-78500Y-77119D02*
X-81500D01*
G01X-78500Y-79319D02*
X-81500D01*
G01X-78500Y-85319D02*
X-81500D01*
G01X-78500Y-83119D02*
X-81500D01*
G01X-77517Y-50319D02*
X-78600Y-46319D01*
X-79683Y-50319D01*
G01X-79293Y-48919D02*
X-77907D01*
G01X-81133Y-50319D02*
Y-46319D01*
X-82217D01*
X-82563Y-46519D01*
X-82780Y-46785D01*
X-82867Y-47319D01*
X-82780Y-47852D01*
X-82520Y-48185D01*
X-82217Y-48385D01*
X-81133D01*
G01X-82217D02*
X-82867Y-50319D01*
G01X-86267D02*
X-84533D01*
Y-46319D01*
X-86267D01*
G01X-85573Y-48252D02*
X-84533D01*
G01X-91680Y-46319D02*
X-92720D01*
G01X-92200D02*
Y-50319D01*
G01X-91680D02*
X-92720D01*
G01X-94603D02*
Y-46319D01*
X-96597Y-50319D01*
Y-46319D01*
G01X-101880D02*
X-102920D01*
G01X-102400D02*
Y-50319D01*
G01X-101880D02*
X-102920D01*
G01X-104803D02*
Y-46319D01*
X-106797Y-50319D01*
Y-46319D01*
G01X-110153Y-46652D02*
X-109893Y-46452D01*
X-109590Y-46319D01*
X-109243D01*
X-108853Y-46519D01*
X-108550Y-46852D01*
X-108333Y-47252D01*
X-108160Y-47919D01*
X-108117Y-48519D01*
X-108203Y-49119D01*
X-108333Y-49519D01*
X-108593Y-49919D01*
X-108897Y-50185D01*
X-109200Y-50319D01*
X-109503D01*
X-109807Y-50185D01*
X-110067Y-49985D01*
X-110283Y-49719D01*
G01X-111690Y-50319D02*
Y-46319D01*
G01X-113510D02*
Y-50319D01*
G01Y-48319D02*
X-111690D01*
G01X-116867Y-50319D02*
X-115133D01*
Y-46319D01*
X-116867D01*
G01X-116173Y-48252D02*
X-115133D01*
G01X-118490Y-49785D02*
X-118837Y-50119D01*
X-119227Y-50319D01*
X-119573D01*
X-119920Y-50119D01*
X-120180Y-49785D01*
X-120310Y-49319D01*
X-120223Y-48852D01*
X-120007Y-48452D01*
X-119617Y-48185D01*
X-119097Y-48052D01*
X-118793Y-47785D01*
X-118663Y-47319D01*
X-118750Y-46852D01*
X-118967Y-46519D01*
X-119270Y-46319D01*
X-119573D01*
X-119877Y-46452D01*
X-120137Y-46785D01*
G01X-70890Y-85319D02*
X-72710Y-81319D01*
G01X-70890D02*
X-72710Y-85319D01*
G01X-74290D02*
X-76110Y-81319D01*
G01X-74290D02*
X-76110Y-85319D01*
G01X-67490Y-91319D02*
X-69310Y-87319D01*
G01X-67490D02*
X-69310Y-91319D01*
G01X-70890D02*
X-72710Y-87319D01*
G01X-70890D02*
X-72710Y-91319D01*
G01X-74290D02*
X-76110Y-87319D01*
G01X-74290D02*
X-76110Y-91319D01*
G01X-74290Y-79319D02*
X-76110Y-75319D01*
G01X-74290D02*
X-76110Y-79319D01*
G01X-32867Y-82319D02*
Y-76319D01*
X-34533D01*
X-35067Y-76619D01*
X-35400Y-77019D01*
X-35533Y-77819D01*
X-35400Y-78619D01*
X-35000Y-79119D01*
X-34533Y-79419D01*
X-32867D01*
G01X-34533D02*
X-35533Y-82319D01*
G01X-40733D02*
X-38067D01*
Y-76319D01*
X-40733D01*
G01X-39667Y-79218D02*
X-38067D01*
G01X-42933Y-76319D02*
X-44600Y-82319D01*
X-46267Y-76319D01*
G01X-49800Y-82519D02*
X-49667Y-82419D01*
Y-82219D01*
X-49800Y-82119D01*
X-49933Y-82219D01*
Y-82419D01*
X-49800Y-82519D01*
G01X-38600Y-86819D02*
X-37907Y-87085D01*
X-37387Y-87752D01*
X-37040Y-88552D01*
X-36780Y-89619D01*
X-36693Y-90819D01*
X-36780Y-92019D01*
X-37040Y-93085D01*
X-37387Y-93886D01*
X-37907Y-94552D01*
X-38600Y-94819D01*
X-39293Y-94552D01*
X-39813Y-93886D01*
X-40160Y-93085D01*
X-40420Y-92019D01*
X-40507Y-90819D01*
X-40420Y-89619D01*
X-40160Y-88552D01*
X-39813Y-87752D01*
X-39293Y-87085D01*
X-38600Y-86819D01*
G01X-43493Y-93219D02*
X-44013Y-94152D01*
X-44707Y-94685D01*
X-45487Y-94819D01*
X-46180Y-94685D01*
X-46873Y-94019D01*
X-47307Y-93219D01*
X-47393Y-92419D01*
X-47220Y-91486D01*
X-46613Y-90819D01*
X-46007Y-90552D01*
X-45227D01*
G01X-46007D02*
X-46527Y-90152D01*
X-46960Y-89485D01*
X-47133Y-88685D01*
X-46960Y-87885D01*
X-46527Y-87219D01*
X-45747Y-86819D01*
X-44967Y-86952D01*
X-44187Y-87485D01*
G01X128067Y-71319D02*
X131533D01*
Y-63319D01*
X128067D01*
G01X129453Y-67185D02*
X131533D01*
G01X125167Y-63319D02*
X123000Y-71319D01*
X120833Y-63319D01*
G01X118107Y-71319D02*
Y-63319D01*
G01X114813D02*
X118107Y-68252D01*
G01X114293Y-71319D02*
X116633Y-65985D01*
G01X109400Y-71319D02*
Y-63319D01*
X110440Y-64918D01*
G01Y-71319D02*
X108360D01*
G01X97533D02*
Y-63319D01*
X95453D01*
X94760Y-63719D01*
X94240Y-64652D01*
X94067Y-65719D01*
X94240Y-66785D01*
X94673Y-67585D01*
X95453Y-67986D01*
X97533D01*
G01X90993Y-71319D02*
Y-63319D01*
X87007Y-71319D01*
Y-63319D01*
G01X82200Y-71585D02*
X82373Y-71452D01*
Y-71185D01*
X82200Y-71052D01*
X82027Y-71185D01*
Y-71452D01*
X82200Y-71585D01*
G01Y-67986D02*
X82373Y-67852D01*
Y-67585D01*
X82200Y-67452D01*
X82027Y-67585D01*
Y-67852D01*
X82200Y-67986D01*
G01X74707Y-67052D02*
X74360Y-66652D01*
X74100Y-65985D01*
X73927Y-65052D01*
X74100Y-64252D01*
X74447Y-63719D01*
X75053Y-63319D01*
X77393D01*
Y-71319D01*
X74533D01*
X73927Y-70785D01*
X73580Y-69985D01*
X73407Y-69052D01*
X73580Y-68119D01*
X74100Y-67319D01*
X74707Y-67052D01*
X77393D01*
G01X70853Y-71319D02*
Y-63319D01*
X68600Y-69985D01*
X66347Y-63319D01*
Y-71319D01*
G01X63273Y-70386D02*
X62667Y-71052D01*
X61973Y-71319D01*
X61280Y-71052D01*
X60673Y-70252D01*
X60240Y-69052D01*
X60067Y-67852D01*
Y-66385D01*
X60240Y-65185D01*
X60673Y-64119D01*
X61193Y-63585D01*
X61800Y-63319D01*
X62493Y-63585D01*
X63013Y-64119D01*
X63360Y-64918D01*
X63533Y-65985D01*
X63360Y-66919D01*
X62927Y-67852D01*
X62407Y-68385D01*
X61800Y-68519D01*
X61107Y-68252D01*
X60587Y-67585D01*
X60067Y-66385D01*
G01X56647Y-64652D02*
X56127Y-63852D01*
X55520Y-63452D01*
X54827Y-63319D01*
X53960Y-63585D01*
X53353Y-64252D01*
X53180Y-65052D01*
X53267Y-65852D01*
X53613Y-66519D01*
X55347Y-67852D01*
X56127Y-68785D01*
X56647Y-70119D01*
X56820Y-71319D01*
X53180D01*
G01X48200Y-63319D02*
Y-71319D01*
G01X50193Y-63319D02*
X46207D01*
G01X43307Y-69719D02*
X42787Y-70652D01*
X42093Y-71185D01*
X41313Y-71319D01*
X40620Y-71185D01*
X39927Y-70519D01*
X39493Y-69719D01*
X39407Y-68919D01*
X39580Y-67986D01*
X40187Y-67319D01*
X40793Y-67052D01*
X41573D01*
G01X40793D02*
X40273Y-66652D01*
X39840Y-65985D01*
X39667Y-65185D01*
X39840Y-64385D01*
X40273Y-63719D01*
X41053Y-63319D01*
X41833Y-63452D01*
X42613Y-63985D01*
G01X34600Y-63319D02*
X35293Y-63585D01*
X35813Y-64252D01*
X36160Y-65052D01*
X36420Y-66119D01*
X36507Y-67319D01*
X36420Y-68519D01*
X36160Y-69585D01*
X35813Y-70386D01*
X35293Y-71052D01*
X34600Y-71319D01*
X33907Y-71052D01*
X33387Y-70386D01*
X33040Y-69585D01*
X32780Y-68519D01*
X32693Y-67319D01*
X32780Y-66119D01*
X33040Y-65052D01*
X33387Y-64252D01*
X33907Y-63585D01*
X34600Y-63319D01*
G01X28927Y-68652D02*
X26673D01*
G01X22820Y-71319D02*
Y-63319D01*
G01X19180D02*
Y-71319D01*
G01Y-67319D02*
X22820D01*
G01X14200Y-71319D02*
X14893Y-71185D01*
X15500Y-70652D01*
X16020Y-69852D01*
X16367Y-68919D01*
X16540Y-67852D01*
Y-66785D01*
X16367Y-65719D01*
X16020Y-64785D01*
X15500Y-63985D01*
X14893Y-63452D01*
X14200Y-63319D01*
X13507Y-63452D01*
X12900Y-63985D01*
X12380Y-64785D01*
X12033Y-65719D01*
X11860Y-66785D01*
Y-67852D01*
X12033Y-68919D01*
X12380Y-69852D01*
X12900Y-70652D01*
X13507Y-71185D01*
X14200Y-71319D01*
G01X9220Y-70252D02*
X8527Y-70919D01*
X7747Y-71319D01*
X7053D01*
X6360Y-70919D01*
X5840Y-70252D01*
X5580Y-69318D01*
X5753Y-68385D01*
X6187Y-67585D01*
X6967Y-67052D01*
X8007Y-66785D01*
X8613Y-66252D01*
X8873Y-65319D01*
X8700Y-64385D01*
X8267Y-63719D01*
X7660Y-63319D01*
X7053D01*
X6447Y-63585D01*
X5927Y-64252D01*
G01X600Y-63319D02*
Y-71319D01*
G01X2593Y-63319D02*
X-1393D01*
G01X-5073Y-68652D02*
X-7327D01*
G01X-14733Y-71319D02*
X-11267D01*
Y-63319D01*
X-14733D01*
G01X-13347Y-67185D02*
X-11267D01*
G01X-17633Y-63319D02*
X-19800Y-71319D01*
X-21967Y-63319D01*
G01X-24693Y-71319D02*
Y-63319D01*
G01X-27987D02*
X-24693Y-68252D01*
G01X-28507Y-71319D02*
X-26167Y-65985D01*
G01X-32273Y-68652D02*
X-34527D01*
G01X-40200Y-71319D02*
Y-63319D01*
X-39160Y-64918D01*
G01Y-71319D02*
X-41240D01*
G01X-47000Y-63319D02*
X-46307Y-63585D01*
X-45787Y-64252D01*
X-45440Y-65052D01*
X-45180Y-66119D01*
X-45093Y-67319D01*
X-45180Y-68519D01*
X-45440Y-69585D01*
X-45787Y-70386D01*
X-46307Y-71052D01*
X-47000Y-71319D01*
X-47693Y-71052D01*
X-48213Y-70386D01*
X-48560Y-69585D01*
X-48820Y-68519D01*
X-48907Y-67319D01*
X-48820Y-66119D01*
X-48560Y-65052D01*
X-48213Y-64252D01*
X-47693Y-63585D01*
X-47000Y-63319D01*
G01X-53800Y-71319D02*
Y-63319D01*
X-52760Y-64918D01*
G01Y-71319D02*
X-54840D01*
G01X-80000Y-87619D02*
Y-90619D01*
G01Y-75619D02*
Y-78619D01*
G01Y-81619D02*
Y-84619D01*
G01X-64500Y-22319D02*
Y-97319D01*
G01Y-74819D02*
X140500D01*
G01X-64500Y-52319D02*
X140500D01*
G01X-27000Y-74819D02*
Y-97319D01*
G01X113633Y-47319D02*
Y-39319D01*
X111467D01*
X110773Y-39719D01*
X110340Y-40252D01*
X110167Y-41319D01*
X110340Y-42385D01*
X110860Y-43052D01*
X111467Y-43452D01*
X113633D01*
G01X111467D02*
X110167Y-47319D01*
G01X105100D02*
X105793Y-47185D01*
X106400Y-46652D01*
X106920Y-45852D01*
X107267Y-44919D01*
X107440Y-43852D01*
Y-42785D01*
X107267Y-41719D01*
X106920Y-40785D01*
X106400Y-39985D01*
X105793Y-39452D01*
X105100Y-39319D01*
X104407Y-39452D01*
X103800Y-39985D01*
X103280Y-40785D01*
X102933Y-41719D01*
X102760Y-42785D01*
Y-43852D01*
X102933Y-44919D01*
X103280Y-45852D01*
X103800Y-46652D01*
X104407Y-47185D01*
X105100Y-47319D01*
G01X100120D02*
Y-39319D01*
G01X96480D02*
Y-47319D01*
G01Y-43319D02*
X100120D01*
G01X93753Y-47319D02*
Y-39319D01*
X91500Y-45985D01*
X89247Y-39319D01*
Y-47319D01*
G01X79720Y-46252D02*
X79027Y-46919D01*
X78247Y-47319D01*
X77553D01*
X76860Y-46919D01*
X76340Y-46252D01*
X76080Y-45318D01*
X76253Y-44385D01*
X76687Y-43585D01*
X77467Y-43052D01*
X78507Y-42785D01*
X79113Y-42252D01*
X79373Y-41319D01*
X79200Y-40385D01*
X78767Y-39719D01*
X78160Y-39319D01*
X77553D01*
X76947Y-39585D01*
X76427Y-40252D01*
G01X69367Y-47319D02*
X72833D01*
Y-39319D01*
X69367D01*
G01X70753Y-43185D02*
X72833D01*
G01X66553Y-47319D02*
Y-39319D01*
X64300Y-45985D01*
X62047Y-39319D01*
Y-47319D01*
G01X58540Y-39319D02*
X56460D01*
G01X57500D02*
Y-47319D01*
G01X58540D02*
X56460D01*
G01X48793Y-39985D02*
X49313Y-39585D01*
X49920Y-39319D01*
X50613D01*
X51393Y-39719D01*
X52000Y-40385D01*
X52433Y-41185D01*
X52780Y-42519D01*
X52867Y-43719D01*
X52693Y-44919D01*
X52433Y-45719D01*
X51913Y-46519D01*
X51307Y-47052D01*
X50700Y-47319D01*
X50093D01*
X49487Y-47052D01*
X48967Y-46652D01*
X48533Y-46119D01*
G01X43900Y-47319D02*
X44593Y-47185D01*
X45200Y-46652D01*
X45720Y-45852D01*
X46067Y-44919D01*
X46240Y-43852D01*
Y-42785D01*
X46067Y-41719D01*
X45720Y-40785D01*
X45200Y-39985D01*
X44593Y-39452D01*
X43900Y-39319D01*
X43207Y-39452D01*
X42600Y-39985D01*
X42080Y-40785D01*
X41733Y-41719D01*
X41560Y-42785D01*
Y-43852D01*
X41733Y-44919D01*
X42080Y-45852D01*
X42600Y-46652D01*
X43207Y-47185D01*
X43900Y-47319D01*
G01X39093D02*
Y-39319D01*
X35107Y-47319D01*
Y-39319D01*
G01X32207Y-47319D02*
Y-39319D01*
X30473D01*
X29780Y-39719D01*
X29260Y-40252D01*
X28827Y-41052D01*
X28480Y-41985D01*
X28393Y-43319D01*
X28480Y-44652D01*
X28827Y-45585D01*
X29260Y-46386D01*
X29780Y-46919D01*
X30473Y-47319D01*
X32207D01*
G01X25407Y-39319D02*
Y-45052D01*
X25060Y-46252D01*
X24367Y-47052D01*
X23500Y-47319D01*
X22633Y-47052D01*
X21940Y-46252D01*
X21593Y-45052D01*
Y-39319D01*
G01X14793Y-39985D02*
X15313Y-39585D01*
X15920Y-39319D01*
X16613D01*
X17393Y-39719D01*
X18000Y-40385D01*
X18433Y-41185D01*
X18780Y-42519D01*
X18867Y-43719D01*
X18693Y-44919D01*
X18433Y-45719D01*
X17913Y-46519D01*
X17307Y-47052D01*
X16700Y-47319D01*
X16093D01*
X15487Y-47052D01*
X14967Y-46652D01*
X14533Y-46119D01*
G01X9900Y-39319D02*
Y-47319D01*
G01X11893Y-39319D02*
X7907D01*
G01X3100Y-47319D02*
X3793Y-47185D01*
X4400Y-46652D01*
X4920Y-45852D01*
X5267Y-44919D01*
X5440Y-43852D01*
Y-42785D01*
X5267Y-41719D01*
X4920Y-40785D01*
X4400Y-39985D01*
X3793Y-39452D01*
X3100Y-39319D01*
X2407Y-39452D01*
X1800Y-39985D01*
X1280Y-40785D01*
X933Y-41719D01*
X760Y-42785D01*
Y-43852D01*
X933Y-44919D01*
X1280Y-45852D01*
X1800Y-46652D01*
X2407Y-47185D01*
X3100Y-47319D01*
G01X-1967D02*
Y-39319D01*
X-4133D01*
X-4827Y-39719D01*
X-5260Y-40252D01*
X-5433Y-41319D01*
X-5260Y-42385D01*
X-4740Y-43052D01*
X-4133Y-43452D01*
X-1967D01*
G01X-4133D02*
X-5433Y-47319D01*
G01X-15393Y-39319D02*
Y-45052D01*
X-15740Y-46252D01*
X-16433Y-47052D01*
X-17300Y-47319D01*
X-18167Y-47052D01*
X-18860Y-46252D01*
X-19207Y-45052D01*
Y-39319D01*
G01X-22280Y-46252D02*
X-22973Y-46919D01*
X-23753Y-47319D01*
X-24447D01*
X-25140Y-46919D01*
X-25660Y-46252D01*
X-25920Y-45318D01*
X-25747Y-44385D01*
X-25313Y-43585D01*
X-24533Y-43052D01*
X-23493Y-42785D01*
X-22887Y-42252D01*
X-22627Y-41319D01*
X-22800Y-40385D01*
X-23233Y-39719D01*
X-23840Y-39319D01*
X-24447D01*
X-25053Y-39585D01*
X-25573Y-40252D01*
G01X-28733Y-47319D02*
X-30900Y-39319D01*
X-33067Y-47319D01*
G01X-32287Y-44519D02*
X-29513D01*
G01X0Y205000D02*
Y0D01*
G01D02*
X215000D01*
G01Y205000D02*
X0D01*
G01X76993Y-94819D02*
Y-86819D01*
X73007Y-94819D01*
Y-86819D01*
G01X70107D02*
Y-92552D01*
X69760Y-93752D01*
X69067Y-94552D01*
X68200Y-94819D01*
X67333Y-94552D01*
X66640Y-93752D01*
X66293Y-92552D01*
Y-86819D01*
G01X63653Y-94819D02*
Y-86819D01*
X61400Y-93485D01*
X59147Y-86819D01*
Y-94819D01*
G01X53907Y-90552D02*
X53560Y-90152D01*
X53300Y-89485D01*
X53127Y-88552D01*
X53300Y-87752D01*
X53647Y-87219D01*
X54253Y-86819D01*
X56593D01*
Y-94819D01*
X53733D01*
X53127Y-94285D01*
X52780Y-93485D01*
X52607Y-92552D01*
X52780Y-91619D01*
X53300Y-90819D01*
X53907Y-90552D01*
X56593D01*
G01X46067Y-94819D02*
X49533D01*
Y-86819D01*
X46067D01*
G01X47453Y-90685D02*
X49533D01*
G01X42733Y-94819D02*
Y-86819D01*
X40567D01*
X39873Y-87219D01*
X39440Y-87752D01*
X39267Y-88819D01*
X39440Y-89885D01*
X39960Y-90552D01*
X40567Y-90952D01*
X42733D01*
G01X40567D02*
X39267Y-94819D01*
G01X137333Y-82319D02*
Y-76319D01*
X135733D01*
X135200Y-76619D01*
X134800Y-77319D01*
X134667Y-78119D01*
X134800Y-78919D01*
X135133Y-79519D01*
X135733Y-79819D01*
X137333D01*
G01X132133Y-82319D02*
Y-76319D01*
X130467D01*
X129933Y-76619D01*
X129600Y-77019D01*
X129467Y-77819D01*
X129600Y-78619D01*
X130000Y-79119D01*
X130467Y-79419D01*
X132133D01*
G01X130467D02*
X129467Y-82319D01*
G01X125600D02*
X126133Y-82219D01*
X126600Y-81819D01*
X127000Y-81219D01*
X127267Y-80519D01*
X127400Y-79719D01*
Y-78919D01*
X127267Y-78119D01*
X127000Y-77418D01*
X126600Y-76819D01*
X126133Y-76419D01*
X125600Y-76319D01*
X125067Y-76419D01*
X124600Y-76819D01*
X124200Y-77418D01*
X123933Y-78119D01*
X123800Y-78919D01*
Y-79719D01*
X123933Y-80519D01*
X124200Y-81219D01*
X124600Y-81819D01*
X125067Y-82219D01*
X125600Y-82319D01*
G01X121733Y-81119D02*
X121400Y-81719D01*
X121000Y-82119D01*
X120533Y-82319D01*
X120000Y-82119D01*
X119600Y-81719D01*
X119200Y-81119D01*
X119067Y-80319D01*
Y-76319D01*
G01X113867Y-82319D02*
X116533D01*
Y-76319D01*
X113867D01*
G01X114933Y-79218D02*
X116533D01*
G01X108533Y-76819D02*
X108933Y-76519D01*
X109400Y-76319D01*
X109933D01*
X110533Y-76619D01*
X111000Y-77119D01*
X111333Y-77719D01*
X111600Y-78719D01*
X111667Y-79619D01*
X111533Y-80519D01*
X111333Y-81119D01*
X110933Y-81719D01*
X110467Y-82119D01*
X110000Y-82319D01*
X109533D01*
X109067Y-82119D01*
X108667Y-81819D01*
X108333Y-81419D01*
G01X104800Y-76319D02*
Y-82319D01*
G01X106333Y-76319D02*
X103267D01*
G01X95933Y-82319D02*
Y-76319D01*
X92867Y-82319D01*
Y-76319D01*
G01X90667D02*
Y-80619D01*
X90400Y-81519D01*
X89867Y-82119D01*
X89200Y-82319D01*
X88533Y-82119D01*
X88000Y-81519D01*
X87733Y-80619D01*
Y-76319D01*
G01X85733Y-82319D02*
Y-76319D01*
X84000Y-81319D01*
X82267Y-76319D01*
Y-82319D01*
G01X78267Y-79119D02*
X78000Y-78819D01*
X77800Y-78319D01*
X77667Y-77618D01*
X77800Y-77019D01*
X78067Y-76619D01*
X78533Y-76319D01*
X80333D01*
Y-82319D01*
X78133D01*
X77667Y-81919D01*
X77400Y-81319D01*
X77267Y-80619D01*
X77400Y-79919D01*
X77800Y-79319D01*
X78267Y-79119D01*
X80333D01*
G01X72267Y-82319D02*
X74933D01*
Y-76319D01*
X72267D01*
G01X73333Y-79218D02*
X74933D01*
G01X69733Y-82319D02*
Y-76319D01*
X68067D01*
X67533Y-76619D01*
X67200Y-77019D01*
X67067Y-77819D01*
X67200Y-78619D01*
X67600Y-79119D01*
X68067Y-79419D01*
X69733D01*
G01X68067D02*
X67067Y-82319D01*
G01X63200Y-82519D02*
X63333Y-82419D01*
Y-82219D01*
X63200Y-82119D01*
X63067Y-82219D01*
Y-82419D01*
X63200Y-82519D01*
G01Y-79819D02*
X63333Y-79719D01*
Y-79519D01*
X63200Y-79419D01*
X63067Y-79519D01*
Y-79719D01*
X63200Y-79819D01*
G01X137333Y-59819D02*
Y-53819D01*
X135733D01*
X135200Y-54119D01*
X134800Y-54819D01*
X134667Y-55619D01*
X134800Y-56419D01*
X135133Y-57019D01*
X135733Y-57319D01*
X137333D01*
G01X132133Y-59819D02*
Y-53819D01*
X130467D01*
X129933Y-54119D01*
X129600Y-54519D01*
X129467Y-55319D01*
X129600Y-56119D01*
X130000Y-56619D01*
X130467Y-56919D01*
X132133D01*
G01X130467D02*
X129467Y-59819D01*
G01X125600D02*
X126133Y-59719D01*
X126600Y-59319D01*
X127000Y-58719D01*
X127267Y-58019D01*
X127400Y-57219D01*
Y-56419D01*
X127267Y-55619D01*
X127000Y-54918D01*
X126600Y-54319D01*
X126133Y-53919D01*
X125600Y-53819D01*
X125067Y-53919D01*
X124600Y-54319D01*
X124200Y-54918D01*
X123933Y-55619D01*
X123800Y-56419D01*
Y-57219D01*
X123933Y-58019D01*
X124200Y-58719D01*
X124600Y-59319D01*
X125067Y-59719D01*
X125600Y-59819D01*
G01X121733Y-58619D02*
X121400Y-59219D01*
X121000Y-59619D01*
X120533Y-59819D01*
X120000Y-59619D01*
X119600Y-59219D01*
X119200Y-58619D01*
X119067Y-57819D01*
Y-53819D01*
G01X113867Y-59819D02*
X116533D01*
Y-53819D01*
X113867D01*
G01X114933Y-56718D02*
X116533D01*
G01X108533Y-54319D02*
X108933Y-54019D01*
X109400Y-53819D01*
X109933D01*
X110533Y-54119D01*
X111000Y-54619D01*
X111333Y-55219D01*
X111600Y-56219D01*
X111667Y-57119D01*
X111533Y-58019D01*
X111333Y-58619D01*
X110933Y-59219D01*
X110467Y-59619D01*
X110000Y-59819D01*
X109533D01*
X109067Y-59619D01*
X108667Y-59319D01*
X108333Y-58919D01*
G01X104800Y-53819D02*
Y-59819D01*
G01X106333Y-53819D02*
X103267D01*
G01X95933Y-59819D02*
Y-53819D01*
X92867Y-59819D01*
Y-53819D01*
G01X90867Y-59819D02*
X89200Y-53819D01*
X87533Y-59819D01*
G01X88133Y-57719D02*
X90267D01*
G01X85733Y-59819D02*
Y-53819D01*
X84000Y-58819D01*
X82267Y-53819D01*
Y-59819D01*
G01X77467D02*
X80133D01*
Y-53819D01*
X77467D01*
G01X78533Y-56718D02*
X80133D01*
G01X73600Y-60019D02*
X73733Y-59919D01*
Y-59719D01*
X73600Y-59619D01*
X73467Y-59719D01*
Y-59919D01*
X73600Y-60019D01*
G01Y-57319D02*
X73733Y-57219D01*
Y-57019D01*
X73600Y-56919D01*
X73467Y-57019D01*
Y-57219D01*
X73600Y-57319D01*
G01X134533Y-24319D02*
X134933Y-24019D01*
X135400Y-23819D01*
X135933D01*
X136533Y-24119D01*
X137000Y-24619D01*
X137333Y-25219D01*
X137600Y-26219D01*
X137667Y-27119D01*
X137533Y-28019D01*
X137333Y-28619D01*
X136933Y-29219D01*
X136467Y-29619D01*
X136000Y-29819D01*
X135533D01*
X135067Y-29619D01*
X134667Y-29319D01*
X134333Y-28919D01*
G01X130800Y-29819D02*
X131333Y-29719D01*
X131800Y-29319D01*
X132200Y-28719D01*
X132467Y-28019D01*
X132600Y-27219D01*
Y-26419D01*
X132467Y-25619D01*
X132200Y-24918D01*
X131800Y-24319D01*
X131333Y-23919D01*
X130800Y-23819D01*
X130267Y-23919D01*
X129800Y-24319D01*
X129400Y-24918D01*
X129133Y-25619D01*
X129000Y-26419D01*
Y-27219D01*
X129133Y-28019D01*
X129400Y-28719D01*
X129800Y-29319D01*
X130267Y-29719D01*
X130800Y-29819D01*
G01X127333D02*
Y-23819D01*
X125600Y-28819D01*
X123867Y-23819D01*
Y-29819D01*
G01X121733D02*
Y-23819D01*
X120133D01*
X119600Y-24119D01*
X119200Y-24819D01*
X119067Y-25619D01*
X119200Y-26419D01*
X119533Y-27019D01*
X120133Y-27319D01*
X121733D01*
G01X116867Y-29819D02*
X115200Y-23819D01*
X113533Y-29819D01*
G01X114133Y-27719D02*
X116267D01*
G01X111533Y-29819D02*
Y-23819D01*
X108467Y-29819D01*
Y-23819D01*
G01X104800Y-29819D02*
Y-27119D01*
X106133Y-23819D01*
G01X103467D02*
X104800Y-27119D01*
G01X95933Y-29819D02*
Y-23819D01*
X92867Y-29819D01*
Y-23819D01*
G01X90867Y-29819D02*
X89200Y-23819D01*
X87533Y-29819D01*
G01X88133Y-27719D02*
X90267D01*
G01X85733Y-29819D02*
Y-23819D01*
X84000Y-28819D01*
X82267Y-23819D01*
Y-29819D01*
G01X77467D02*
X80133D01*
Y-23819D01*
X77467D01*
G01X78533Y-26718D02*
X80133D01*
G01X73600Y-30019D02*
X73733Y-29919D01*
Y-29719D01*
X73600Y-29619D01*
X73467Y-29719D01*
Y-29919D01*
X73600Y-30019D01*
G01Y-27319D02*
X73733Y-27219D01*
Y-27019D01*
X73600Y-26919D01*
X73467Y-27019D01*
Y-27219D01*
X73600Y-27319D01*
G01X218967Y-72319D02*
Y-67319D01*
X217633D01*
X217207Y-67569D01*
X216940Y-67902D01*
X216833Y-68569D01*
X216940Y-69235D01*
X217260Y-69652D01*
X217633Y-69902D01*
X218967D01*
G01X217633D02*
X216833Y-72319D01*
G01X213700D02*
X214127Y-72235D01*
X214500Y-71902D01*
X214820Y-71402D01*
X215033Y-70819D01*
X215140Y-70152D01*
Y-69485D01*
X215033Y-68819D01*
X214820Y-68235D01*
X214500Y-67735D01*
X214127Y-67402D01*
X213700Y-67319D01*
X213273Y-67402D01*
X212900Y-67735D01*
X212580Y-68235D01*
X212367Y-68819D01*
X212260Y-69485D01*
Y-70152D01*
X212367Y-70819D01*
X212580Y-71402D01*
X212900Y-71902D01*
X213273Y-72235D01*
X213700Y-72319D01*
G01X210620D02*
Y-67319D01*
G01X208380D02*
Y-72319D01*
G01Y-69819D02*
X210620D01*
G01X206687Y-72319D02*
Y-67319D01*
X205300Y-71485D01*
X203913Y-67319D01*
Y-72319D01*
G01X198020Y-71652D02*
X197593Y-72069D01*
X197113Y-72319D01*
X196687D01*
X196260Y-72069D01*
X195940Y-71652D01*
X195780Y-71069D01*
X195887Y-70485D01*
X196153Y-69985D01*
X196633Y-69652D01*
X197273Y-69485D01*
X197647Y-69152D01*
X197807Y-68569D01*
X197700Y-67985D01*
X197433Y-67569D01*
X197060Y-67319D01*
X196687D01*
X196313Y-67485D01*
X195993Y-67902D01*
G01X191633Y-72319D02*
X193767D01*
Y-67319D01*
X191633D01*
G01X192487Y-69735D02*
X193767D01*
G01X189887Y-72319D02*
Y-67319D01*
X188500Y-71485D01*
X187113Y-67319D01*
Y-72319D01*
G01X184940Y-67319D02*
X183660D01*
G01X184300D02*
Y-72319D01*
G01X184940D02*
X183660D01*
G01X178927Y-67735D02*
X179247Y-67485D01*
X179620Y-67319D01*
X180047D01*
X180527Y-67569D01*
X180900Y-67985D01*
X181167Y-68485D01*
X181380Y-69319D01*
X181433Y-70069D01*
X181327Y-70819D01*
X181167Y-71319D01*
X180847Y-71819D01*
X180473Y-72152D01*
X180100Y-72319D01*
X179727D01*
X179353Y-72152D01*
X179033Y-71902D01*
X178767Y-71569D01*
G01X175900Y-72319D02*
X176327Y-72235D01*
X176700Y-71902D01*
X177020Y-71402D01*
X177233Y-70819D01*
X177340Y-70152D01*
Y-69485D01*
X177233Y-68819D01*
X177020Y-68235D01*
X176700Y-67735D01*
X176327Y-67402D01*
X175900Y-67319D01*
X175473Y-67402D01*
X175100Y-67735D01*
X174780Y-68235D01*
X174567Y-68819D01*
X174460Y-69485D01*
Y-70152D01*
X174567Y-70819D01*
X174780Y-71402D01*
X175100Y-71902D01*
X175473Y-72235D01*
X175900Y-72319D01*
G01X172927D02*
Y-67319D01*
X170473Y-72319D01*
Y-67319D01*
G01X168673Y-72319D02*
Y-67319D01*
X167607D01*
X167180Y-67569D01*
X166860Y-67902D01*
X166593Y-68402D01*
X166380Y-68985D01*
X166327Y-69819D01*
X166380Y-70652D01*
X166593Y-71235D01*
X166860Y-71735D01*
X167180Y-72069D01*
X167607Y-72319D01*
X168673D01*
G01X164473Y-67319D02*
Y-70902D01*
X164260Y-71652D01*
X163833Y-72152D01*
X163300Y-72319D01*
X162767Y-72152D01*
X162340Y-71652D01*
X162127Y-70902D01*
Y-67319D01*
G01X157927Y-67735D02*
X158247Y-67485D01*
X158620Y-67319D01*
X159047D01*
X159527Y-67569D01*
X159900Y-67985D01*
X160167Y-68485D01*
X160380Y-69319D01*
X160433Y-70069D01*
X160327Y-70819D01*
X160167Y-71319D01*
X159847Y-71819D01*
X159473Y-72152D01*
X159100Y-72319D01*
X158727D01*
X158353Y-72152D01*
X158033Y-71902D01*
X157767Y-71569D01*
G01X154900Y-67319D02*
Y-72319D01*
G01X156127Y-67319D02*
X153673D01*
G01X150700Y-72319D02*
X151127Y-72235D01*
X151500Y-71902D01*
X151820Y-71402D01*
X152033Y-70819D01*
X152140Y-70152D01*
Y-69485D01*
X152033Y-68819D01*
X151820Y-68235D01*
X151500Y-67735D01*
X151127Y-67402D01*
X150700Y-67319D01*
X150273Y-67402D01*
X149900Y-67735D01*
X149580Y-68235D01*
X149367Y-68819D01*
X149260Y-69485D01*
Y-70152D01*
X149367Y-70819D01*
X149580Y-71402D01*
X149900Y-71902D01*
X150273Y-72235D01*
X150700Y-72319D01*
G01X147567D02*
Y-67319D01*
X146233D01*
X145807Y-67569D01*
X145540Y-67902D01*
X145433Y-68569D01*
X145540Y-69235D01*
X145860Y-69652D01*
X146233Y-69902D01*
X147567D01*
G01X146233D02*
X145433Y-72319D01*
G01X140500Y-22319D02*
Y-97319D01*
G01Y-74319D02*
X258000D01*
G01X140500Y-85319D02*
X258000D01*
G01X140500Y-63319D02*
X258000D01*
G01X251750Y-46319D02*
X251083Y-46944D01*
X250333Y-47319D01*
X249667D01*
X249000Y-46944D01*
X248500Y-46319D01*
X248250Y-45444D01*
X248417Y-44569D01*
X248833Y-43819D01*
X249583Y-43318D01*
X250583Y-43069D01*
X251167Y-42569D01*
X251417Y-41694D01*
X251250Y-40819D01*
X250833Y-40194D01*
X250250Y-39819D01*
X249667D01*
X249083Y-40068D01*
X248583Y-40694D01*
G01X241833Y-47319D02*
X245167D01*
Y-39819D01*
X241833D01*
G01X243167Y-43444D02*
X245167D01*
G01X235167Y-40444D02*
X235667Y-40068D01*
X236250Y-39819D01*
X236917D01*
X237667Y-40194D01*
X238250Y-40819D01*
X238667Y-41569D01*
X239000Y-42819D01*
X239083Y-43944D01*
X238917Y-45069D01*
X238667Y-45819D01*
X238167Y-46569D01*
X237583Y-47069D01*
X237000Y-47319D01*
X236417D01*
X235833Y-47069D01*
X235333Y-46694D01*
X234917Y-46194D01*
G01X230500Y-47319D02*
X231167Y-47194D01*
X231750Y-46694D01*
X232250Y-45944D01*
X232583Y-45069D01*
X232750Y-44069D01*
Y-43069D01*
X232583Y-42069D01*
X232250Y-41194D01*
X231750Y-40444D01*
X231167Y-39944D01*
X230500Y-39819D01*
X229833Y-39944D01*
X229250Y-40444D01*
X228750Y-41194D01*
X228417Y-42069D01*
X228250Y-43069D01*
Y-44069D01*
X228417Y-45069D01*
X228750Y-45944D01*
X229250Y-46694D01*
X229833Y-47194D01*
X230500Y-47319D01*
G01X225917D02*
Y-39819D01*
X222083Y-47319D01*
Y-39819D01*
G01X219333Y-47319D02*
Y-39819D01*
X217667D01*
X217000Y-40194D01*
X216500Y-40694D01*
X216083Y-41444D01*
X215750Y-42319D01*
X215667Y-43569D01*
X215750Y-44819D01*
X216083Y-45694D01*
X216500Y-46444D01*
X217000Y-46944D01*
X217667Y-47319D01*
X219333D01*
G01X213083D02*
X211000Y-39819D01*
X208917Y-47319D01*
G01X209667Y-44694D02*
X212333D01*
G01X206167Y-47319D02*
Y-39819D01*
X204083D01*
X203417Y-40194D01*
X203000Y-40694D01*
X202833Y-41694D01*
X203000Y-42694D01*
X203500Y-43318D01*
X204083Y-43694D01*
X206167D01*
G01X204083D02*
X202833Y-47319D01*
G01X198000D02*
Y-43944D01*
X199667Y-39819D01*
G01X196333D02*
X198000Y-43944D01*
G01X192583Y-44819D02*
X190417D01*
G01X186750Y-46319D02*
X186083Y-46944D01*
X185333Y-47319D01*
X184667D01*
X184000Y-46944D01*
X183500Y-46319D01*
X183250Y-45444D01*
X183417Y-44569D01*
X183833Y-43819D01*
X184583Y-43318D01*
X185583Y-43069D01*
X186167Y-42569D01*
X186417Y-41694D01*
X186250Y-40819D01*
X185833Y-40194D01*
X185250Y-39819D01*
X184667D01*
X184083Y-40068D01*
X183583Y-40694D01*
G01X179500Y-39819D02*
X177500D01*
G01X178500D02*
Y-47319D01*
G01X179500D02*
X177500D01*
G01X173833D02*
Y-39819D01*
X172167D01*
X171500Y-40194D01*
X171000Y-40694D01*
X170583Y-41444D01*
X170250Y-42319D01*
X170167Y-43569D01*
X170250Y-44819D01*
X170583Y-45694D01*
X171000Y-46444D01*
X171500Y-46944D01*
X172167Y-47319D01*
X173833D01*
G01X163833D02*
X167167D01*
Y-39819D01*
X163833D01*
G01X165167Y-43444D02*
X167167D01*
G01X140500Y-52319D02*
X258000D01*
G01X252573Y-61319D02*
Y-56319D01*
X251507D01*
X251080Y-56569D01*
X250760Y-56902D01*
X250493Y-57402D01*
X250280Y-57985D01*
X250227Y-58819D01*
X250280Y-59652D01*
X250493Y-60235D01*
X250760Y-60735D01*
X251080Y-61069D01*
X251507Y-61319D01*
X252573D01*
G01X246133D02*
X248267D01*
Y-56319D01*
X246133D01*
G01X246987Y-58735D02*
X248267D01*
G01X244120Y-60652D02*
X243693Y-61069D01*
X243213Y-61319D01*
X242787D01*
X242360Y-61069D01*
X242040Y-60652D01*
X241880Y-60069D01*
X241987Y-59485D01*
X242253Y-58985D01*
X242733Y-58652D01*
X243373Y-58485D01*
X243747Y-58152D01*
X243907Y-57569D01*
X243800Y-56985D01*
X243533Y-56569D01*
X243160Y-56319D01*
X242787D01*
X242413Y-56485D01*
X242093Y-56902D01*
G01X239440Y-56319D02*
X238160D01*
G01X238800D02*
Y-61319D01*
G01X239440D02*
X238160D01*
G01X234280Y-58819D02*
X233213D01*
Y-60319D01*
X233533Y-60819D01*
X233907Y-61152D01*
X234440Y-61319D01*
X234973Y-61152D01*
X235347Y-60819D01*
X235667Y-60319D01*
X235880Y-59735D01*
X235987Y-59069D01*
Y-58485D01*
X235880Y-57985D01*
X235667Y-57402D01*
X235347Y-56902D01*
X235027Y-56569D01*
X234600Y-56319D01*
X234227D01*
X233800Y-56485D01*
X233480Y-56819D01*
G01X231627Y-61319D02*
Y-56319D01*
X229173Y-61319D01*
Y-56319D01*
G01X225133Y-61319D02*
X227267D01*
Y-56319D01*
X225133D01*
G01X225987Y-58735D02*
X227267D01*
G01X223067Y-61319D02*
Y-56319D01*
X221733D01*
X221307Y-56569D01*
X221040Y-56902D01*
X220933Y-57569D01*
X221040Y-58235D01*
X221360Y-58652D01*
X221733Y-58902D01*
X223067D01*
G01X221733D02*
X220933Y-61319D01*
G01X217800Y-61485D02*
X217907Y-61402D01*
Y-61235D01*
X217800Y-61152D01*
X217693Y-61235D01*
Y-61402D01*
X217800Y-61485D01*
G01Y-59235D02*
X217907Y-59152D01*
Y-58985D01*
X217800Y-58902D01*
X217693Y-58985D01*
Y-59152D01*
X217800Y-59235D01*
G01X250227Y-67735D02*
X250547Y-67485D01*
X250920Y-67319D01*
X251347D01*
X251827Y-67569D01*
X252200Y-67985D01*
X252467Y-68485D01*
X252680Y-69319D01*
X252733Y-70069D01*
X252627Y-70819D01*
X252467Y-71319D01*
X252147Y-71819D01*
X251773Y-72152D01*
X251400Y-72319D01*
X251027D01*
X250653Y-72152D01*
X250333Y-71902D01*
X250067Y-71569D01*
G01X248320Y-72319D02*
Y-67319D01*
G01X246080D02*
Y-72319D01*
G01Y-69819D02*
X248320D01*
G01X241933Y-72319D02*
X244067D01*
Y-67319D01*
X241933D01*
G01X242787Y-69735D02*
X244067D01*
G01X237627Y-67735D02*
X237947Y-67485D01*
X238320Y-67319D01*
X238747D01*
X239227Y-67569D01*
X239600Y-67985D01*
X239867Y-68485D01*
X240080Y-69319D01*
X240133Y-70069D01*
X240027Y-70819D01*
X239867Y-71319D01*
X239547Y-71819D01*
X239173Y-72152D01*
X238800Y-72319D01*
X238427D01*
X238053Y-72152D01*
X237733Y-71902D01*
X237467Y-71569D01*
G01X235773Y-72319D02*
Y-67319D01*
G01X233747D02*
X235773Y-70402D01*
G01X233427Y-72319D02*
X234867Y-68985D01*
G01X229333Y-72319D02*
X231467D01*
Y-67319D01*
X229333D01*
G01X230187Y-69735D02*
X231467D01*
G01X227267Y-72319D02*
Y-67319D01*
X225933D01*
X225507Y-67569D01*
X225240Y-67902D01*
X225133Y-68569D01*
X225240Y-69235D01*
X225560Y-69652D01*
X225933Y-69902D01*
X227267D01*
G01X225933D02*
X225133Y-72319D01*
G01X222000Y-72485D02*
X222107Y-72402D01*
Y-72235D01*
X222000Y-72152D01*
X221893Y-72235D01*
Y-72402D01*
X222000Y-72485D01*
G01Y-70235D02*
X222107Y-70152D01*
Y-69985D01*
X222000Y-69902D01*
X221893Y-69985D01*
Y-70152D01*
X222000Y-70235D01*
G01X212467Y-61319D02*
Y-56319D01*
X211187D01*
X210760Y-56569D01*
X210440Y-57152D01*
X210333Y-57819D01*
X210440Y-58485D01*
X210707Y-58985D01*
X211187Y-59235D01*
X212467D01*
G01X207200Y-56319D02*
Y-61319D01*
G01X208427Y-56319D02*
X205973D01*
G01X201933Y-61319D02*
X204067D01*
Y-56319D01*
X201933D01*
G01X202787Y-58735D02*
X204067D01*
G01X197627Y-56735D02*
X197947Y-56485D01*
X198320Y-56319D01*
X198747D01*
X199227Y-56569D01*
X199600Y-56985D01*
X199867Y-57485D01*
X200080Y-58319D01*
X200133Y-59069D01*
X200027Y-59819D01*
X199867Y-60319D01*
X199547Y-60819D01*
X199173Y-61152D01*
X198800Y-61319D01*
X198427D01*
X198053Y-61152D01*
X197733Y-60902D01*
X197467Y-60569D01*
G01X225413Y-79152D02*
X225093Y-78652D01*
X224720Y-78402D01*
X224293Y-78319D01*
X223760Y-78485D01*
X223387Y-78902D01*
X223280Y-79402D01*
X223333Y-79902D01*
X223547Y-80319D01*
X224613Y-81152D01*
X225093Y-81735D01*
X225413Y-82569D01*
X225520Y-83319D01*
X223280D01*
G01X220200Y-78319D02*
X220627Y-78485D01*
X220947Y-78902D01*
X221160Y-79402D01*
X221320Y-80069D01*
X221373Y-80819D01*
X221320Y-81569D01*
X221160Y-82235D01*
X220947Y-82735D01*
X220627Y-83152D01*
X220200Y-83319D01*
X219773Y-83152D01*
X219453Y-82735D01*
X219240Y-82235D01*
X219080Y-81569D01*
X219027Y-80819D01*
X219080Y-80069D01*
X219240Y-79402D01*
X219453Y-78902D01*
X219773Y-78485D01*
X220200Y-78319D01*
G01X216000Y-83319D02*
Y-78319D01*
X216640Y-79318D01*
G01Y-83319D02*
X215360D01*
G01X212813Y-81235D02*
X212440Y-80652D01*
X212120Y-80319D01*
X211693Y-80152D01*
X211320Y-80319D01*
X211053Y-80652D01*
X210840Y-81152D01*
X210787Y-81735D01*
X210840Y-82235D01*
X211053Y-82735D01*
X211373Y-83152D01*
X211747Y-83319D01*
X212173Y-83152D01*
X212547Y-82652D01*
X212760Y-81902D01*
X212813Y-81069D01*
X212707Y-79985D01*
X212547Y-79402D01*
X212280Y-78819D01*
X211907Y-78402D01*
X211533Y-78319D01*
X211160Y-78485D01*
X210893Y-78902D01*
G01X208293Y-81652D02*
X206907D01*
G01X203400Y-78319D02*
X203827Y-78485D01*
X204147Y-78902D01*
X204360Y-79402D01*
X204520Y-80069D01*
X204573Y-80819D01*
X204520Y-81569D01*
X204360Y-82235D01*
X204147Y-82735D01*
X203827Y-83152D01*
X203400Y-83319D01*
X202973Y-83152D01*
X202653Y-82735D01*
X202440Y-82235D01*
X202280Y-81569D01*
X202227Y-80819D01*
X202280Y-80069D01*
X202440Y-79402D01*
X202653Y-78902D01*
X202973Y-78485D01*
X203400Y-78319D01*
G01X200213Y-79152D02*
X199893Y-78652D01*
X199520Y-78402D01*
X199093Y-78319D01*
X198560Y-78485D01*
X198187Y-78902D01*
X198080Y-79402D01*
X198133Y-79902D01*
X198347Y-80319D01*
X199413Y-81152D01*
X199893Y-81735D01*
X200213Y-82569D01*
X200320Y-83319D01*
X198080D01*
G01X195693Y-81652D02*
X194307D01*
G01X191813Y-79152D02*
X191493Y-78652D01*
X191120Y-78402D01*
X190693Y-78319D01*
X190160Y-78485D01*
X189787Y-78902D01*
X189680Y-79402D01*
X189733Y-79902D01*
X189947Y-80319D01*
X191013Y-81152D01*
X191493Y-81735D01*
X191813Y-82569D01*
X191920Y-83319D01*
X189680D01*
G01X187613Y-81235D02*
X187240Y-80652D01*
X186920Y-80319D01*
X186493Y-80152D01*
X186120Y-80319D01*
X185853Y-80652D01*
X185640Y-81152D01*
X185587Y-81735D01*
X185640Y-82235D01*
X185853Y-82735D01*
X186173Y-83152D01*
X186547Y-83319D01*
X186973Y-83152D01*
X187347Y-82652D01*
X187560Y-81902D01*
X187613Y-81069D01*
X187507Y-79985D01*
X187347Y-79402D01*
X187080Y-78819D01*
X186707Y-78402D01*
X186333Y-78319D01*
X185960Y-78485D01*
X185693Y-78902D01*
G01X250750Y-33819D02*
X250083Y-34444D01*
X249333Y-34819D01*
X248667D01*
X248000Y-34444D01*
X247500Y-33819D01*
X247250Y-32944D01*
X247417Y-32069D01*
X247833Y-31319D01*
X248583Y-30818D01*
X249583Y-30569D01*
X250167Y-30069D01*
X250417Y-29194D01*
X250250Y-28319D01*
X249833Y-27694D01*
X249250Y-27319D01*
X248667D01*
X248083Y-27568D01*
X247583Y-28194D01*
G01X242500Y-34819D02*
X243167Y-34694D01*
X243750Y-34194D01*
X244250Y-33444D01*
X244583Y-32569D01*
X244750Y-31569D01*
Y-30569D01*
X244583Y-29569D01*
X244250Y-28694D01*
X243750Y-27944D01*
X243167Y-27444D01*
X242500Y-27319D01*
X241833Y-27444D01*
X241250Y-27944D01*
X240750Y-28694D01*
X240417Y-29569D01*
X240250Y-30569D01*
Y-31569D01*
X240417Y-32569D01*
X240750Y-33444D01*
X241250Y-34194D01*
X241833Y-34694D01*
X242500Y-34819D01*
G01X237667Y-27319D02*
Y-34819D01*
X234333D01*
G01X231333D02*
Y-27319D01*
X229667D01*
X229000Y-27694D01*
X228500Y-28194D01*
X228083Y-28944D01*
X227750Y-29819D01*
X227667Y-31069D01*
X227750Y-32319D01*
X228083Y-33194D01*
X228500Y-33944D01*
X229000Y-34444D01*
X229667Y-34819D01*
X231333D01*
G01X221333D02*
X224667D01*
Y-27319D01*
X221333D01*
G01X222667Y-30944D02*
X224667D01*
G01X218167Y-34819D02*
Y-27319D01*
X216083D01*
X215417Y-27694D01*
X215000Y-28194D01*
X214833Y-29194D01*
X215000Y-30194D01*
X215500Y-30818D01*
X216083Y-31194D01*
X218167D01*
G01X216083D02*
X214833Y-34819D01*
G01X212167D02*
Y-27319D01*
X210000Y-33569D01*
X207833Y-27319D01*
Y-34819D01*
G01X205583D02*
X203500Y-27319D01*
X201417Y-34819D01*
G01X202167Y-32194D02*
X204833D01*
G01X198750Y-33819D02*
X198083Y-34444D01*
X197333Y-34819D01*
X196667D01*
X196000Y-34444D01*
X195500Y-33819D01*
X195250Y-32944D01*
X195417Y-32069D01*
X195833Y-31319D01*
X196583Y-30818D01*
X197583Y-30569D01*
X198167Y-30069D01*
X198417Y-29194D01*
X198250Y-28319D01*
X197833Y-27694D01*
X197250Y-27319D01*
X196667D01*
X196083Y-27568D01*
X195583Y-28194D01*
G01X192333Y-34819D02*
Y-27319D01*
G01X189167D02*
X192333Y-31944D01*
G01X188667Y-34819D02*
X190917Y-29819D01*
G01X215000Y0D02*
Y106496D01*
G01X194331D02*
G03X198268I1968J0D01*
G01X215000D02*
X198268D01*
G01X194331D02*
Y143504D01*
G01X198268D02*
X215000D01*
G01D02*
Y205000D01*
G01X194331Y143504D02*
G02X198268I1968J0D01*
G01X252467Y-93319D02*
X252200Y-93819D01*
X251880Y-94152D01*
X251507Y-94319D01*
X251080Y-94152D01*
X250760Y-93819D01*
X250440Y-93319D01*
X250333Y-92652D01*
Y-89319D01*
G01X247200Y-94319D02*
X247627Y-94235D01*
X248000Y-93902D01*
X248320Y-93402D01*
X248533Y-92819D01*
X248640Y-92152D01*
Y-91485D01*
X248533Y-90819D01*
X248320Y-90235D01*
X248000Y-89735D01*
X247627Y-89402D01*
X247200Y-89319D01*
X246773Y-89402D01*
X246400Y-89735D01*
X246080Y-90235D01*
X245867Y-90819D01*
X245760Y-91485D01*
Y-92152D01*
X245867Y-92819D01*
X246080Y-93402D01*
X246400Y-93902D01*
X246773Y-94235D01*
X247200Y-94319D01*
G01X242573Y-91652D02*
X242360Y-91402D01*
X242200Y-90985D01*
X242093Y-90402D01*
X242200Y-89902D01*
X242413Y-89569D01*
X242787Y-89319D01*
X244227D01*
Y-94319D01*
X242467D01*
X242093Y-93985D01*
X241880Y-93485D01*
X241773Y-92902D01*
X241880Y-92319D01*
X242200Y-91819D01*
X242573Y-91652D01*
X244227D01*
G01X239867Y-95985D02*
X238800Y-89319D01*
G01X237733D02*
X238800Y-95985D01*
G01X240400Y-93485D02*
X237200D01*
G01Y-91819D02*
X240400D01*
G01X234600Y-94485D02*
X234707Y-94402D01*
Y-94235D01*
X234600Y-94152D01*
X234493Y-94235D01*
Y-94402D01*
X234600Y-94485D01*
G01Y-92235D02*
X234707Y-92152D01*
Y-91985D01*
X234600Y-91902D01*
X234493Y-91985D01*
Y-92152D01*
X234600Y-92235D01*
G01X251573Y-83319D02*
Y-78319D01*
X250507D01*
X250080Y-78569D01*
X249760Y-78902D01*
X249493Y-79402D01*
X249280Y-79985D01*
X249227Y-80819D01*
X249280Y-81652D01*
X249493Y-82235D01*
X249760Y-82735D01*
X250080Y-83069D01*
X250507Y-83319D01*
X251573D01*
G01X247533D02*
X246200Y-78319D01*
X244867Y-83319D01*
G01X245347Y-81569D02*
X247053D01*
G01X242000Y-78319D02*
Y-83319D01*
G01X243227Y-78319D02*
X240773D01*
G01X236733Y-83319D02*
X238867D01*
Y-78319D01*
X236733D01*
G01X237587Y-80735D02*
X238867D01*
G01X233600Y-83485D02*
X233707Y-83402D01*
Y-83235D01*
X233600Y-83152D01*
X233493Y-83235D01*
Y-83402D01*
X233600Y-83485D01*
G01Y-81235D02*
X233707Y-81152D01*
Y-80985D01*
X233600Y-80902D01*
X233493Y-80985D01*
Y-81152D01*
X233600Y-81235D01*
G01X258000Y-22319D02*
Y-97319D01*
G01X309395Y-74469D02*
G03I-355J0D01*
G01Y-72819D02*
G03I-355J0D01*
G01D02*
G03I-355J0D01*
G01Y-71159D02*
G03I-355J0D01*
G01D02*
G03I-355J0D01*
G01X307465Y-72819D02*
G03I-355J0D01*
G01D02*
G03I-355J0D01*
G01X306565Y-74469D02*
G03I-355J0D01*
G01X307185Y-72819D02*
G03I-355J0D01*
G01X307015Y-72799D02*
G03I-355J0D01*
G01X306855Y-72749D02*
G03I-355J0D01*
G01X306705Y-72679D02*
G03I-355J0D01*
G01X306575Y-72569D02*
G03I-355J0D01*
G01X306555Y-71389D02*
G03I-355J0D01*
G01X306685Y-71289D02*
G03I-355J0D01*
G01X306815Y-71219D02*
G03I-355J0D01*
G01X306965Y-71179D02*
G03I-355J0D01*
G01X307125Y-71159D02*
G03I-355J0D01*
G01X306465Y-72439D02*
G03I-355J0D01*
G01X306395Y-72289D02*
G03I-355J0D01*
G01X306345Y-72129D02*
G03I-355J0D01*
G01X306325Y-71959D02*
G03I-355J0D01*
G01X306345Y-71799D02*
G03I-355J0D01*
G01X306385Y-71649D02*
G03I-355J0D01*
G01X306455Y-71519D02*
G03I-355J0D01*
G01X309905Y-55339D02*
G03I-355J0D01*
G01X309395Y-58579D02*
G03I-355J0D01*
G01Y-57889D02*
G03I-355J0D01*
G01Y-57189D02*
G03I-355J0D01*
G01Y-56499D02*
G03I-355J0D01*
G01X309515Y-55799D02*
G03I-355J0D01*
G01X309395Y-56359D02*
G03I-355J0D01*
G01X309425Y-56059D02*
G03I-355J0D01*
G01X309525Y-55779D02*
G03I-355J0D01*
G01X309685Y-55539D02*
G03I-355J0D01*
G01X306485Y-55799D02*
G03I-355J0D01*
G01X306855Y-55109D02*
G03I-355J0D01*
G01X307195Y-54739D02*
G03I-355J0D01*
G01X306815Y-55149D02*
G03I-355J0D01*
G01X306535Y-55629D02*
G03I-355J0D01*
G01X306325Y-58579D02*
G03I-355J0D01*
G01Y-57889D02*
G03I-355J0D01*
G01Y-57189D02*
G03I-355J0D01*
G01X306345Y-56499D02*
G03I-355J0D01*
G01X306325Y-56709D02*
G03I-355J0D01*
G01X306375Y-56159D02*
G03I-355J0D01*
G01X309395Y-66669D02*
G03I-355J0D01*
G01X306325D02*
G03I-355J0D01*
G01X309395Y-66219D02*
G03I-355J0D01*
G01Y-65519D02*
G03I-355J0D01*
G01Y-64829D02*
G03I-355J0D01*
G01Y-64129D02*
G03I-355J0D01*
G01Y-63439D02*
G03I-355J0D01*
G01Y-62739D02*
G03I-355J0D01*
G01Y-62049D02*
G03I-355J0D01*
G01Y-61359D02*
G03I-355J0D01*
G01Y-60659D02*
G03I-355J0D01*
G01Y-59969D02*
G03I-355J0D01*
G01Y-59269D02*
G03I-355J0D01*
G01X306325Y-66219D02*
G03I-355J0D01*
G01Y-65519D02*
G03I-355J0D01*
G01Y-64829D02*
G03I-355J0D01*
G01Y-64129D02*
G03I-355J0D01*
G01Y-63439D02*
G03I-355J0D01*
G01Y-62739D02*
G03I-355J0D01*
G01Y-62049D02*
G03I-355J0D01*
G01Y-61359D02*
G03I-355J0D01*
G01Y-60659D02*
G03I-355J0D01*
G01Y-59969D02*
G03I-355J0D01*
G01Y-59269D02*
G03I-355J0D01*
G01X309215Y-53719D02*
G03I-355J0D01*
G01X309355Y-53679D02*
G03I-355J0D01*
G01X308575Y-53899D02*
G03I-355J0D01*
G01X307845Y-54259D02*
G03I-355J0D01*
G01D02*
G03I-355J0D01*
G01X307635Y-54419D02*
G03I-355J0D01*
G01X321675Y-74469D02*
G03I-355J0D01*
G01Y-71159D02*
G03I-355J0D01*
G01X321915Y-58579D02*
G03I-355J0D01*
G01Y-57889D02*
G03I-355J0D01*
G01Y-57189D02*
G03I-355J0D01*
G01Y-55799D02*
G03I-355J0D01*
G01Y-56499D02*
G03I-355J0D01*
G01Y-55109D02*
G03I-355J0D01*
G01Y-66669D02*
G03I-355J0D01*
G01Y-66219D02*
G03I-355J0D01*
G01Y-65519D02*
G03I-355J0D01*
G01Y-64829D02*
G03I-355J0D01*
G01Y-63439D02*
G03I-355J0D01*
G01Y-64129D02*
G03I-355J0D01*
G01Y-62739D02*
G03I-355J0D01*
G01Y-62049D02*
G03I-355J0D01*
G01Y-61359D02*
G03I-355J0D01*
G01Y-59969D02*
G03I-355J0D01*
G01Y-60659D02*
G03I-355J0D01*
G01Y-59269D02*
G03I-355J0D01*
G01X314285Y-74219D02*
G03I-355J0D01*
G01X314445Y-74089D02*
G03I-355J0D01*
G01X314575Y-73929D02*
G03I-355J0D01*
G01X314685Y-73749D02*
G03I-355J0D01*
G01X314665Y-71799D02*
G03I-355J0D01*
G01X314535Y-71619D02*
G03I-355J0D01*
G01X314375Y-71459D02*
G03I-355J0D01*
G01X319785Y-71159D02*
G03I-355J0D01*
G01X318375Y-74469D02*
G03I-355J0D01*
G01Y-71159D02*
G03I-355J0D01*
G01D02*
G03I-355J0D01*
G01X316955D02*
G03I-355J0D01*
G01X314765Y-73559D02*
G03I-355J0D01*
G01X314805Y-73359D02*
G03I-355J0D01*
G01X314825Y-73159D02*
G03I-355J0D01*
G01Y-72449D02*
G03I-355J0D01*
G01X314835D02*
G03I-355J0D01*
G01X314815Y-72229D02*
G03I-355J0D01*
G01X314755Y-72009D02*
G03I-355J0D01*
G01X314185Y-71329D02*
G03I-355J0D01*
G01X313515Y-74469D02*
G03I-355J0D01*
G01X313715Y-74449D02*
G03I-355J0D01*
G01X313915Y-74409D02*
G03I-355J0D01*
G01X314105Y-74329D02*
G03I-355J0D01*
G01X313985Y-71239D02*
G03I-355J0D01*
G01X313765Y-71179D02*
G03I-355J0D01*
G01X313545Y-71159D02*
G03I-355J0D01*
G01X312595Y-74449D02*
G03I-355J0D01*
G01X312825Y-74469D02*
G03I-355J0D01*
G01X312805Y-71159D02*
G03I-355J0D01*
G01X312585Y-71179D02*
G03I-355J0D01*
G01X311695Y-73819D02*
G03I-355J0D01*
G01X311825Y-74009D02*
G03I-355J0D01*
G01X311985Y-74169D02*
G03I-355J0D01*
G01X312175Y-74299D02*
G03I-355J0D01*
G01X312385Y-74389D02*
G03I-355J0D01*
G01X311605Y-73609D02*
G03I-355J0D01*
G01X312365Y-71239D02*
G03I-355J0D01*
G01X312165Y-71329D02*
G03I-355J0D01*
G01X311985Y-71459D02*
G03I-355J0D01*
G01X311825Y-71619D02*
G03I-355J0D01*
G01X311695Y-71799D02*
G03I-355J0D01*
G01X311605Y-71999D02*
G03I-355J0D01*
G01X311525Y-73169D02*
G03I-355J0D01*
G01X311545Y-73399D02*
G03I-355J0D01*
G01X311525Y-73169D02*
G03I-355J0D01*
G01X311545Y-72219D02*
G03I-355J0D01*
G01X311525Y-72439D02*
G03I-355J0D01*
G01X318845Y-58579D02*
G03I-355J0D01*
G01Y-57889D02*
G03I-355J0D01*
G01Y-56499D02*
G03I-355J0D01*
G01Y-57189D02*
G03I-355J0D01*
G01X318825Y-55799D02*
G03I-355J0D01*
G01X318815Y-55709D02*
G03I-355J0D01*
G01X318845Y-55929D02*
G03I-355J0D01*
G01X318425Y-55209D02*
G03I-355J0D01*
G01X318605Y-55339D02*
G03I-355J0D01*
G01X318735Y-55509D02*
G03I-355J0D01*
G01X318095Y-55109D02*
G03I-355J0D01*
G01X318015Y-55099D02*
G03I-355J0D01*
G01X318235Y-55129D02*
G03I-355J0D01*
G01X316495Y-55109D02*
G03I-355J0D01*
G01X315885Y-55499D02*
G03I-355J0D01*
G01X316005Y-55329D02*
G03I-355J0D01*
G01X316175Y-55209D02*
G03I-355J0D01*
G01X316365Y-55129D02*
G03I-355J0D01*
G01X316575Y-55099D02*
G03I-355J0D01*
G01X315775Y-58579D02*
G03I-355J0D01*
G01Y-57889D02*
G03I-355J0D01*
G01Y-57189D02*
G03I-355J0D01*
G01Y-56499D02*
G03I-355J0D01*
G01X315785Y-55799D02*
G03I-355J0D01*
G01X315775Y-55899D02*
G03I-355J0D01*
G01X315795Y-55689D02*
G03I-355J0D01*
G01X312465Y-58579D02*
G03I-355J0D01*
G01Y-57889D02*
G03I-355J0D01*
G01Y-57189D02*
G03I-355J0D01*
G01Y-56499D02*
G03I-355J0D01*
G01Y-55909D02*
G03I-355J0D01*
G01X312455Y-55799D02*
G03I-355J0D01*
G01X312435Y-55699D02*
G03I-355J0D01*
G01X311735Y-55109D02*
G03I-355J0D01*
G01X311655Y-55099D02*
G03I-355J0D01*
G01X311865Y-55129D02*
G03I-355J0D01*
G01X312055Y-55209D02*
G03I-355J0D01*
G01X312225Y-55339D02*
G03I-355J0D01*
G01X312355Y-55499D02*
G03I-355J0D01*
G01X310815Y-55109D02*
G03I-355J0D01*
G01X310895Y-55099D02*
G03I-355J0D01*
G01X310385Y-55169D02*
G03I-355J0D01*
G01X318845Y-66669D02*
G03I-355J0D01*
G01X315775D02*
G03I-355J0D01*
G01X318845Y-66219D02*
G03I-355J0D01*
G01Y-65519D02*
G03I-355J0D01*
G01Y-64129D02*
G03I-355J0D01*
G01Y-64829D02*
G03I-355J0D01*
G01Y-63439D02*
G03I-355J0D01*
G01Y-62739D02*
G03I-355J0D01*
G01Y-62049D02*
G03I-355J0D01*
G01Y-60659D02*
G03I-355J0D01*
G01Y-61359D02*
G03I-355J0D01*
G01Y-59969D02*
G03I-355J0D01*
G01Y-59269D02*
G03I-355J0D01*
G01X315775Y-66219D02*
G03I-355J0D01*
G01Y-65519D02*
G03I-355J0D01*
G01Y-64829D02*
G03I-355J0D01*
G01Y-64129D02*
G03I-355J0D01*
G01Y-63439D02*
G03I-355J0D01*
G01Y-62739D02*
G03I-355J0D01*
G01Y-62049D02*
G03I-355J0D01*
G01Y-61359D02*
G03I-355J0D01*
G01Y-60659D02*
G03I-355J0D01*
G01Y-59969D02*
G03I-355J0D01*
G01Y-59269D02*
G03I-355J0D01*
G01X312465Y-66669D02*
G03I-355J0D01*
G01Y-66219D02*
G03I-355J0D01*
G01Y-65519D02*
G03I-355J0D01*
G01Y-64829D02*
G03I-355J0D01*
G01Y-64129D02*
G03I-355J0D01*
G01Y-63439D02*
G03I-355J0D01*
G01Y-62739D02*
G03I-355J0D01*
G01Y-62049D02*
G03I-355J0D01*
G01Y-61359D02*
G03I-355J0D01*
G01Y-60659D02*
G03I-355J0D01*
G01Y-59969D02*
G03I-355J0D01*
G01Y-59269D02*
G03I-355J0D01*
G01X351425Y-73569D02*
G03I-355J0D01*
G01X351375Y-73749D02*
G03I-355J0D01*
G01X351295Y-73919D02*
G03I-355J0D01*
G01X351185Y-74079D02*
G03I-355J0D01*
G01X351055Y-74209D02*
G03I-355J0D01*
G01X350905Y-74319D02*
G03I-355J0D01*
G01X351445Y-73379D02*
G03I-355J0D01*
G01X351365Y-71829D02*
G03I-355J0D01*
G01X351425Y-72039D02*
G03I-355J0D01*
G01X351445Y-72249D02*
G03I-355J0D01*
G01X350965Y-71339D02*
G03I-355J0D01*
G01X351125Y-71479D02*
G03I-355J0D01*
G01X351265Y-71639D02*
G03I-355J0D01*
G01X350725Y-74399D02*
G03I-355J0D01*
G01X350545Y-74449D02*
G03I-355J0D01*
G01X350355Y-74469D02*
G03I-355J0D01*
G01Y-71159D02*
G03I-355J0D01*
G01X350565Y-71179D02*
G03I-355J0D01*
G01X350775Y-71239D02*
G03I-355J0D01*
G01X348605Y-74469D02*
G03I-355J0D01*
G01Y-71159D02*
G03I-355J0D01*
G01X352385Y-58579D02*
G03I-355J0D01*
G01Y-57889D02*
G03I-355J0D01*
G01Y-57189D02*
G03I-355J0D01*
G01X352275Y-56499D02*
G03I-355J0D01*
G01X352345Y-56739D02*
G03I-355J0D01*
G01X352385Y-57149D02*
G03I-355J0D01*
G01X352025Y-55999D02*
G03I-355J0D01*
G01X352225Y-56349D02*
G03I-355J0D01*
G01X351855Y-55799D02*
G03I-355J0D01*
G01X351755Y-55689D02*
G03I-355J0D01*
G01D02*
G03I-355J0D01*
G01X350925Y-55109D02*
G03I-355J0D01*
G01X351325Y-55319D02*
G03I-355J0D01*
G01X350275Y-54899D02*
G03I-355J0D01*
G01X350825Y-55049D02*
G03I-355J0D01*
G01X349705Y-54859D02*
G03I-355J0D01*
G01X347715Y-54889D02*
G03I-355J0D01*
G01X348255Y-54859D02*
G03I-355J0D01*
G01X347005Y-55109D02*
G03I-355J0D01*
G01X346715Y-55249D02*
G03I-355J0D01*
G01X347195Y-55019D02*
G03I-355J0D01*
G01X352425Y-66439D02*
G03I-355J0D01*
G01X351405Y-66609D02*
G03I-355J0D01*
G01X350375Y-66669D02*
G03I-355J0D01*
G01X347625D02*
G03I-355J0D01*
G01X346715Y-66639D02*
G03I-355J0D01*
G01X353165Y-66219D02*
G03I-355J0D01*
G01X353105Y-66239D02*
G03I-355J0D01*
G01X351965Y-64129D02*
G03I-355J0D01*
G01X351945Y-64159D02*
G03I-355J0D01*
G01X352295Y-63439D02*
G03I-355J0D01*
G01X352355Y-63269D02*
G03I-355J0D01*
G01X352205Y-63739D02*
G03I-355J0D01*
G01X352385Y-62739D02*
G03I-355J0D01*
G01Y-62779D02*
G03I-355J0D01*
G01Y-62049D02*
G03I-355J0D01*
G01Y-61359D02*
G03I-355J0D01*
G01Y-60659D02*
G03I-355J0D01*
G01Y-59969D02*
G03I-355J0D01*
G01Y-59269D02*
G03I-355J0D01*
G01Y-59589D02*
G03I-355J0D01*
G01D02*
G03I-355J0D01*
G01D02*
G03I-355J0D01*
G01X351225Y-64829D02*
G03I-355J0D01*
G01X351595Y-64509D02*
G03I-355J0D01*
G01X351235Y-64829D02*
G03I-355J0D01*
G01X350815Y-65059D02*
G03I-355J0D01*
G01X350345Y-65209D02*
G03I-355J0D01*
G01X349865Y-65259D02*
G03I-355J0D01*
G01X348255D02*
G03I-355J0D01*
G01X347655Y-65219D02*
G03I-355J0D01*
G01X347085Y-65059D02*
G03I-355J0D01*
G01X345845Y-74299D02*
G03I-355J0D01*
G01X346025Y-74169D02*
G03I-355J0D01*
G01X346185Y-74009D02*
G03I-355J0D01*
G01X346315Y-73819D02*
G03I-355J0D01*
G01X346405Y-73619D02*
G03I-355J0D01*
G01X346465Y-73399D02*
G03I-355J0D01*
G01X346485Y-73179D02*
G03I-355J0D01*
G01Y-72429D02*
G03I-355J0D01*
G01X346465Y-72209D02*
G03I-355J0D01*
G01X346405Y-71999D02*
G03I-355J0D01*
G01X346315Y-71789D02*
G03I-355J0D01*
G01X346185Y-71609D02*
G03I-355J0D01*
G01X346035Y-71459D02*
G03I-355J0D01*
G01X345845Y-71329D02*
G03I-355J0D01*
G01X345195Y-74469D02*
G03I-355J0D01*
G01X345415Y-74449D02*
G03I-355J0D01*
G01X345635Y-74389D02*
G03I-355J0D01*
G01X345645Y-71239D02*
G03I-355J0D01*
G01X345435Y-71179D02*
G03I-355J0D01*
G01X345215Y-71159D02*
G03I-355J0D01*
G01X344085Y-74409D02*
G03I-355J0D01*
G01X344285Y-74449D02*
G03I-355J0D01*
G01X344495Y-74469D02*
G03I-355J0D01*
G01X344475Y-71159D02*
G03I-355J0D01*
G01X344245Y-71179D02*
G03I-355J0D01*
G01X344035Y-71239D02*
G03I-355J0D01*
G01X343315Y-73749D02*
G03I-355J0D01*
G01X343425Y-73929D02*
G03I-355J0D01*
G01X343565Y-74079D02*
G03I-355J0D01*
G01X343715Y-74219D02*
G03I-355J0D01*
G01X343895Y-74329D02*
G03I-355J0D01*
G01X343175Y-73149D02*
G03I-355J0D01*
G01X343195Y-73359D02*
G03I-355J0D01*
G01X343235Y-73559D02*
G03I-355J0D01*
G01X343175Y-73149D02*
G03I-355J0D01*
G01X343345Y-71809D02*
G03I-355J0D01*
G01X343255Y-72019D02*
G03I-355J0D01*
G01X343195Y-72229D02*
G03I-355J0D01*
G01X343175Y-72459D02*
G03I-355J0D01*
G01X343825Y-71329D02*
G03I-355J0D01*
G01X343635Y-71459D02*
G03I-355J0D01*
G01X343475Y-71619D02*
G03I-355J0D01*
G01X340815Y-74469D02*
G03I-355J0D01*
G01Y-71159D02*
G03I-355J0D01*
G01X340335D02*
G03I-355J0D01*
G01X338055Y-74469D02*
G03I-355J0D01*
G01X337505D02*
G03I-355J0D01*
G01Y-71159D02*
G03I-355J0D01*
G01X335145Y-74469D02*
G03I-355J0D01*
G01Y-71159D02*
G03I-355J0D01*
G01X333385Y-74469D02*
G03I-355J0D01*
G01X333185Y-74449D02*
G03I-355J0D01*
G01X332985Y-74409D02*
G03I-355J0D01*
G01X332925Y-71239D02*
G03I-355J0D01*
G01X333145Y-71179D02*
G03I-355J0D01*
G01X333365Y-71159D02*
G03I-355J0D01*
G01X332795Y-74329D02*
G03I-355J0D01*
G01X332615Y-74219D02*
G03I-355J0D01*
G01X332455Y-74089D02*
G03I-355J0D01*
G01X332325Y-73929D02*
G03I-355J0D01*
G01X332215Y-73749D02*
G03I-355J0D01*
G01X332135Y-73559D02*
G03I-355J0D01*
G01X332095Y-73359D02*
G03I-355J0D01*
G01X332075Y-73159D02*
G03I-355J0D01*
G01Y-72449D02*
G03I-355J0D01*
G01X332095Y-72229D02*
G03I-355J0D01*
G01X332155Y-72009D02*
G03I-355J0D01*
G01X332245Y-71799D02*
G03I-355J0D01*
G01X332075Y-72449D02*
G03I-355J0D01*
G01X332375Y-71619D02*
G03I-355J0D01*
G01X332535Y-71459D02*
G03I-355J0D01*
G01X332715Y-71329D02*
G03I-355J0D01*
G01X329645Y-73649D02*
G03I-355J0D01*
G01X329545Y-73849D02*
G03I-355J0D01*
G01X329705Y-73229D02*
G03I-355J0D01*
G01X329715D02*
G03I-355J0D01*
G01X329695Y-73449D02*
G03I-355J0D01*
G01X329705Y-71159D02*
G03I-355J0D01*
G01X329425Y-74029D02*
G03I-355J0D01*
G01X329275Y-74179D02*
G03I-355J0D01*
G01X329095Y-74299D02*
G03I-355J0D01*
G01X328895Y-74399D02*
G03I-355J0D01*
G01X328695Y-74449D02*
G03I-355J0D01*
G01X328475Y-74469D02*
G03I-355J0D01*
G01X327955D02*
G03I-355J0D01*
G01X327725Y-74449D02*
G03I-355J0D01*
G01X327505Y-74389D02*
G03I-355J0D01*
G01X327295Y-74289D02*
G03I-355J0D01*
G01X327115Y-74159D02*
G03I-355J0D01*
G01X326955Y-73999D02*
G03I-355J0D01*
G01X326825Y-73809D02*
G03I-355J0D01*
G01X326725Y-73609D02*
G03I-355J0D01*
G01X326665Y-73389D02*
G03I-355J0D01*
G01X326645Y-73159D02*
G03I-355J0D01*
G01X326635D02*
G03I-355J0D01*
G01Y-71159D02*
G03I-355J0D01*
G01X324495Y-73589D02*
G03I-355J0D01*
G01X324455Y-73769D02*
G03I-355J0D01*
G01X324515Y-73399D02*
G03I-355J0D01*
G01X324495Y-72019D02*
G03I-355J0D01*
G01X324515Y-72199D02*
G03I-355J0D01*
G01X324455Y-71839D02*
G03I-355J0D01*
G01X324375Y-73929D02*
G03I-355J0D01*
G01X324265Y-74089D02*
G03I-355J0D01*
G01X324135Y-74219D02*
G03I-355J0D01*
G01X323985Y-74329D02*
G03I-355J0D01*
G01X323815Y-74409D02*
G03I-355J0D01*
G01X323635Y-74449D02*
G03I-355J0D01*
G01X323655Y-71179D02*
G03I-355J0D01*
G01X323835Y-71219D02*
G03I-355J0D01*
G01X323995Y-71299D02*
G03I-355J0D01*
G01X324145Y-71399D02*
G03I-355J0D01*
G01X324275Y-71529D02*
G03I-355J0D01*
G01X324375Y-71679D02*
G03I-355J0D01*
G01X323445Y-74469D02*
G03I-355J0D01*
G01X323475Y-71159D02*
G03I-355J0D01*
G01X346035Y-55799D02*
G03I-355J0D01*
G01X345955Y-55869D02*
G03I-355J0D01*
G01X346285Y-55569D02*
G03I-355J0D01*
G01X345535Y-58579D02*
G03I-355J0D01*
G01Y-57889D02*
G03I-355J0D01*
G01X345625Y-56499D02*
G03I-355J0D01*
G01X345535Y-57189D02*
G03I-355J0D01*
G01Y-57109D02*
G03I-355J0D01*
G01X345575Y-56659D02*
G03I-355J0D01*
G01X345715Y-56239D02*
G03I-355J0D01*
G01X343225Y-55109D02*
G03I-355J0D01*
G01X343335Y-54979D02*
G03I-355J0D01*
G01X343855Y-54539D02*
G03I-355J0D01*
G01X342465Y-58579D02*
G03I-355J0D01*
G01Y-57889D02*
G03I-355J0D01*
G01X342515Y-56499D02*
G03I-355J0D01*
G01X342465Y-57189D02*
G03I-355J0D01*
G01X342515Y-56519D02*
G03I-355J0D01*
G01X342465Y-57109D02*
G03I-355J0D01*
G01X342755Y-55799D02*
G03I-355J0D01*
G01X342675Y-55949D02*
G03I-355J0D01*
G01X342955Y-55429D02*
G03I-355J0D01*
G01X339155Y-58579D02*
G03I-355J0D01*
G01Y-57889D02*
G03I-355J0D01*
G01Y-57189D02*
G03I-355J0D01*
G01Y-56499D02*
G03I-355J0D01*
G01Y-55799D02*
G03I-355J0D01*
G01Y-55109D02*
G03I-355J0D01*
G01X335795Y-58579D02*
G03I-355J0D01*
G01X335855Y-58309D02*
G03I-355J0D01*
G01X335825Y-58519D02*
G03I-355J0D01*
G01X335745Y-58709D02*
G03I-355J0D01*
G01X335855Y-57889D02*
G03I-355J0D01*
G01Y-57189D02*
G03I-355J0D01*
G01Y-56499D02*
G03I-355J0D01*
G01Y-55799D02*
G03I-355J0D01*
G01Y-55109D02*
G03I-355J0D01*
G01X328815Y-58579D02*
G03I-355J0D01*
G01X328875Y-58719D02*
G03I-355J0D01*
G01X328795Y-58529D02*
G03I-355J0D01*
G01X328765Y-58329D02*
G03I-355J0D01*
G01Y-57889D02*
G03I-355J0D01*
G01Y-56499D02*
G03I-355J0D01*
G01Y-57189D02*
G03I-355J0D01*
G01Y-55799D02*
G03I-355J0D01*
G01Y-55109D02*
G03I-355J0D01*
G01X325455Y-58579D02*
G03I-355J0D01*
G01Y-57889D02*
G03I-355J0D01*
G01Y-56499D02*
G03I-355J0D01*
G01Y-57189D02*
G03I-355J0D01*
G01Y-55799D02*
G03I-355J0D01*
G01Y-55109D02*
G03I-355J0D01*
G01X345815Y-66499D02*
G03I-355J0D01*
G01X346615Y-64829D02*
G03I-355J0D01*
G01X345915Y-64129D02*
G03I-355J0D01*
G01X346555Y-64799D02*
G03I-355J0D01*
G01X346085Y-64429D02*
G03I-355J0D01*
G01X345785Y-63919D02*
G03I-355J0D01*
G01X344895Y-66219D02*
G03I-355J0D01*
G01X344945Y-66239D02*
G03I-355J0D01*
G01X345625Y-63439D02*
G03I-355J0D01*
G01X345595Y-63359D02*
G03I-355J0D01*
G01X345535Y-62739D02*
G03I-355J0D01*
G01Y-62779D02*
G03I-355J0D01*
G01Y-62049D02*
G03I-355J0D01*
G01Y-60659D02*
G03I-355J0D01*
G01Y-61359D02*
G03I-355J0D01*
G01Y-59969D02*
G03I-355J0D01*
G01Y-59269D02*
G03I-355J0D01*
G01X344365Y-65969D02*
G03I-355J0D01*
G01X343735Y-65519D02*
G03I-355J0D01*
G01X343375Y-65179D02*
G03I-355J0D01*
G01X343835Y-65619D02*
G03I-355J0D01*
G01X342635Y-64129D02*
G03I-355J0D01*
G01X343025Y-64829D02*
G03I-355J0D01*
G01X342695Y-64319D02*
G03I-355J0D01*
G01X342985Y-64789D02*
G03I-355J0D01*
G01X342485Y-63439D02*
G03I-355J0D01*
G01X342515Y-63799D02*
G03I-355J0D01*
G01X342465Y-62739D02*
G03I-355J0D01*
G01Y-63249D02*
G03I-355J0D01*
G01Y-62049D02*
G03I-355J0D01*
G01Y-61359D02*
G03I-355J0D01*
G01Y-59969D02*
G03I-355J0D01*
G01Y-60659D02*
G03I-355J0D01*
G01Y-59269D02*
G03I-355J0D01*
G01X339155Y-66669D02*
G03I-355J0D01*
G01X335855D02*
G03I-355J0D01*
G01X328765D02*
G03I-355J0D01*
G01X325455D02*
G03I-355J0D01*
G01X339155Y-66219D02*
G03I-355J0D01*
G01Y-65519D02*
G03I-355J0D01*
G01Y-64829D02*
G03I-355J0D01*
G01Y-64129D02*
G03I-355J0D01*
G01Y-63439D02*
G03I-355J0D01*
G01Y-62739D02*
G03I-355J0D01*
G01Y-62049D02*
G03I-355J0D01*
G01Y-61359D02*
G03I-355J0D01*
G01Y-59969D02*
G03I-355J0D01*
G01Y-60659D02*
G03I-355J0D01*
G01Y-59269D02*
G03I-355J0D01*
G01X335855Y-66219D02*
G03I-355J0D01*
G01Y-65519D02*
G03I-355J0D01*
G01Y-64829D02*
G03I-355J0D01*
G01Y-64129D02*
G03I-355J0D01*
G01Y-63439D02*
G03I-355J0D01*
G01Y-62739D02*
G03I-355J0D01*
G01Y-62049D02*
G03I-355J0D01*
G01Y-61549D02*
G03I-355J0D01*
G01X335825Y-61359D02*
G03I-355J0D01*
G01X335625Y-60999D02*
G03I-355J0D01*
G01X335745Y-61159D02*
G03I-355J0D01*
G01X335825Y-61349D02*
G03I-355J0D01*
G01X335615Y-58879D02*
G03I-355J0D01*
G01X335075Y-60769D02*
G03I-355J0D01*
G01X335275Y-60789D02*
G03I-355J0D01*
G01X335465Y-60869D02*
G03I-355J0D01*
G01X335445Y-59009D02*
G03I-355J0D01*
G01X335255Y-59089D02*
G03I-355J0D01*
G01X335045Y-59109D02*
G03I-355J0D01*
G01X329595Y-60769D02*
G03I-355J0D01*
G01X329545Y-59109D02*
G03I-355J0D01*
G01X328765Y-66219D02*
G03I-355J0D01*
G01Y-65519D02*
G03I-355J0D01*
G01Y-64829D02*
G03I-355J0D01*
G01Y-63439D02*
G03I-355J0D01*
G01Y-64129D02*
G03I-355J0D01*
G01Y-62739D02*
G03I-355J0D01*
G01Y-62049D02*
G03I-355J0D01*
G01X328805Y-61359D02*
G03I-355J0D01*
G01X328765Y-61599D02*
G03I-355J0D01*
G01X328795Y-61379D02*
G03I-355J0D01*
G01X328875Y-61179D02*
G03I-355J0D01*
G01X329005Y-61009D02*
G03I-355J0D01*
G01X329175Y-60879D02*
G03I-355J0D01*
G01X329385Y-60799D02*
G03I-355J0D01*
G01X329345Y-59089D02*
G03I-355J0D01*
G01X329155Y-59009D02*
G03I-355J0D01*
G01X328995Y-58889D02*
G03I-355J0D01*
G01X325455Y-66219D02*
G03I-355J0D01*
G01Y-65519D02*
G03I-355J0D01*
G01Y-64129D02*
G03I-355J0D01*
G01Y-64829D02*
G03I-355J0D01*
G01Y-63439D02*
G03I-355J0D01*
G01Y-62739D02*
G03I-355J0D01*
G01Y-62049D02*
G03I-355J0D01*
G01Y-61359D02*
G03I-355J0D01*
G01Y-59969D02*
G03I-355J0D01*
G01Y-60659D02*
G03I-355J0D01*
G01Y-59269D02*
G03I-355J0D01*
G01X321915Y-54419D02*
G03I-355J0D01*
G01Y-53919D02*
G03I-355J0D01*
G01X320365Y-53719D02*
G03I-355J0D01*
G01X318975Y-53539D02*
G03I-355J0D01*
G01X316005Y-53449D02*
G03I-355J0D01*
G01X311675D02*
G03I-355J0D01*
G01X310515Y-53509D02*
G03I-355J0D01*
G01X353055Y-53879D02*
G03I-355J0D01*
G01X352585Y-53719D02*
G03I-355J0D01*
G01X352295Y-53619D02*
G03I-355J0D01*
G01X351495Y-53479D02*
G03I-355J0D01*
G01X350695Y-53449D02*
G03I-355J0D01*
G01X347585D02*
G03I-355J0D01*
G01X346725Y-53479D02*
G03I-355J0D01*
G01X345875Y-53639D02*
G03I-355J0D01*
G01X345065Y-53919D02*
G03I-355J0D01*
G01X345635Y-53719D02*
G03I-355J0D01*
G01X344065Y-54419D02*
G03I-355J0D01*
G01X344435Y-54189D02*
G03I-355J0D01*
G01X339155Y-53919D02*
G03I-355J0D01*
G01Y-54419D02*
G03I-355J0D01*
G01X335855Y-53919D02*
G03I-355J0D01*
G01D02*
G03I-355J0D01*
G01Y-54419D02*
G03I-355J0D01*
G01X328765D02*
G03I-355J0D01*
G01Y-53919D02*
G03I-355J0D01*
G01X325455Y-54419D02*
G03I-355J0D01*
G01Y-53919D02*
G03I-355J0D01*
G01X365145Y-74409D02*
G03I-355J0D01*
G01X364965Y-74449D02*
G03I-355J0D01*
G01X364785Y-74469D02*
G03I-355J0D01*
G01X365025Y-71179D02*
G03I-355J0D01*
G01X364825Y-71159D02*
G03I-355J0D01*
G01X368775Y-72809D02*
G03I-355J0D01*
G01Y-72819D02*
G03I-355J0D01*
G01X368665Y-74449D02*
G03I-355J0D01*
G01X368505Y-74399D02*
G03I-355J0D01*
G01X368355Y-74329D02*
G03I-355J0D01*
G01X368225Y-74219D02*
G03I-355J0D01*
G01X368115Y-74089D02*
G03I-355J0D01*
G01X368045Y-73939D02*
G03I-355J0D01*
G01X367995Y-73779D02*
G03I-355J0D01*
G01X367975Y-73609D02*
G03I-355J0D01*
G01X367995Y-73449D02*
G03I-355J0D01*
G01X368035Y-73299D02*
G03I-355J0D01*
G01X368105Y-73169D02*
G03I-355J0D01*
G01X368205Y-73039D02*
G03I-355J0D01*
G01X368335Y-72939D02*
G03I-355J0D01*
G01X368465Y-72869D02*
G03I-355J0D01*
G01X368615Y-72829D02*
G03I-355J0D01*
G01X367975Y-71159D02*
G03I-355J0D01*
G01X365825Y-73589D02*
G03I-355J0D01*
G01X365785Y-73769D02*
G03I-355J0D01*
G01X365705Y-73939D02*
G03I-355J0D01*
G01X365595Y-74089D02*
G03I-355J0D01*
G01X365465Y-74219D02*
G03I-355J0D01*
G01X365855Y-72819D02*
G03I-355J0D01*
G01D02*
G03I-355J0D01*
G01Y-73409D02*
G03I-355J0D01*
G01X365845D02*
G03I-355J0D01*
G01X365855Y-72179D02*
G03I-355J0D01*
G01X365845D02*
G03I-355J0D01*
G01X365825Y-71979D02*
G03I-355J0D01*
G01X365765Y-71789D02*
G03I-355J0D01*
G01X365675Y-71609D02*
G03I-355J0D01*
G01X365545Y-71459D02*
G03I-355J0D01*
G01X365395Y-71329D02*
G03I-355J0D01*
G01X365315Y-74329D02*
G03I-355J0D01*
G01X365215Y-71239D02*
G03I-355J0D01*
G01X363015Y-74469D02*
G03I-355J0D01*
G01Y-72819D02*
G03I-355J0D01*
G01Y-71159D02*
G03I-355J0D01*
G01X360655Y-74469D02*
G03I-355J0D01*
G01Y-71159D02*
G03I-355J0D01*
G01X360105D02*
G03I-355J0D01*
G01X358565Y-74469D02*
G03I-355J0D01*
G01X357155Y-71159D02*
G03I-355J0D01*
G01X356635Y-74469D02*
G03I-355J0D01*
G01Y-71159D02*
G03I-355J0D01*
G01X354045Y-74469D02*
G03I-355J0D01*
G01Y-71159D02*
G03I-355J0D01*
G01X367975Y-58579D02*
G03I-355J0D01*
G01Y-57889D02*
G03I-355J0D01*
G01Y-57189D02*
G03I-355J0D01*
G01Y-55799D02*
G03I-355J0D01*
G01Y-56499D02*
G03I-355J0D01*
G01Y-55639D02*
G03I-355J0D01*
G01X367955Y-55439D02*
G03I-355J0D01*
G01X367765Y-55109D02*
G03I-355J0D01*
G01X367875Y-55249D02*
G03I-355J0D01*
G01X367755Y-55089D02*
G03I-355J0D01*
G01X367585Y-54969D02*
G03I-355J0D01*
G01X367405Y-54889D02*
G03I-355J0D01*
G01X367205Y-54859D02*
G03I-355J0D01*
G01X364355D02*
G03I-355J0D01*
G01X363665Y-54889D02*
G03I-355J0D01*
G01X362855Y-55109D02*
G03I-355J0D01*
G01X362985Y-55049D02*
G03I-355J0D01*
G01X362035Y-55649D02*
G03I-355J0D01*
G01X361935Y-55799D02*
G03I-355J0D01*
G01X362345Y-55339D02*
G03I-355J0D01*
G01X361695Y-58579D02*
G03I-355J0D01*
G01X361645Y-58409D02*
G03I-355J0D01*
G01X361595Y-57889D02*
G03I-355J0D01*
G01Y-57969D02*
G03I-355J0D01*
G01Y-57189D02*
G03I-355J0D01*
G01X361645Y-56499D02*
G03I-355J0D01*
G01X361655Y-56429D02*
G03I-355J0D01*
G01X361595Y-56869D02*
G03I-355J0D01*
G01X361805Y-56019D02*
G03I-355J0D01*
G01X359415Y-54619D02*
G03I-355J0D01*
G01X358535Y-58579D02*
G03I-355J0D01*
G01X358525Y-58519D02*
G03I-355J0D01*
G01Y-57889D02*
G03I-355J0D01*
G01Y-57189D02*
G03I-355J0D01*
G01Y-56499D02*
G03I-355J0D01*
G01X358625Y-55799D02*
G03I-355J0D01*
G01X358525Y-56519D02*
G03I-355J0D01*
G01X358545Y-56139D02*
G03I-355J0D01*
G01X358635Y-55759D02*
G03I-355J0D01*
G01X358995Y-55109D02*
G03I-355J0D01*
G01X358785Y-55409D02*
G03I-355J0D01*
G01X359005Y-55099D02*
G03I-355J0D01*
G01X355455Y-58579D02*
G03I-355J0D01*
G01Y-57889D02*
G03I-355J0D01*
G01Y-57189D02*
G03I-355J0D01*
G01X355425Y-56499D02*
G03I-355J0D01*
G01X355455Y-56829D02*
G03I-355J0D01*
G01X355235Y-55799D02*
G03I-355J0D01*
G01X355285Y-55889D02*
G03I-355J0D01*
G01X355415Y-56349D02*
G03I-355J0D01*
G01X355285Y-55889D02*
G03I-355J0D01*
G01X354775Y-55109D02*
G03I-355J0D01*
G01X355055Y-55469D02*
G03I-355J0D01*
G01X354765Y-55089D02*
G03I-355J0D01*
G01X354395Y-54779D02*
G03I-355J0D01*
G01X367975Y-66669D02*
G03I-355J0D01*
G01X364765Y-62739D02*
G03I-355J0D01*
G01X367975Y-66219D02*
G03I-355J0D01*
G01Y-65519D02*
G03I-355J0D01*
G01Y-64829D02*
G03I-355J0D01*
G01Y-63439D02*
G03I-355J0D01*
G01Y-64129D02*
G03I-355J0D01*
G01Y-62739D02*
G03I-355J0D01*
G01Y-62049D02*
G03I-355J0D01*
G01Y-61359D02*
G03I-355J0D01*
G01Y-59969D02*
G03I-355J0D01*
G01Y-60659D02*
G03I-355J0D01*
G01Y-59269D02*
G03I-355J0D01*
G01X365365Y-62049D02*
G03I-355J0D01*
G01X365855Y-61359D02*
G03I-355J0D01*
G01Y-60659D02*
G03I-355J0D01*
G01Y-61479D02*
G03I-355J0D01*
G01Y-60059D02*
G03I-355J0D01*
G01X361405Y-66669D02*
G03I-355J0D01*
G01X357745D02*
G03I-355J0D01*
G01X364175Y-63439D02*
G03I-355J0D01*
G01X364075Y-60059D02*
G03I-355J0D01*
G01X362985Y-64829D02*
G03I-355J0D01*
G01X363575Y-64129D02*
G03I-355J0D01*
G01X363305Y-59969D02*
G03I-355J0D01*
G01X362935Y-59869D02*
G03I-355J0D01*
G01X363495Y-60019D02*
G03I-355J0D01*
G01X362385Y-65519D02*
G03I-355J0D01*
G01X361955Y-62049D02*
G03I-355J0D01*
G01X362195Y-61789D02*
G03I-355J0D01*
G01Y-61359D02*
G03I-355J0D01*
G01Y-61279D02*
G03I-355J0D01*
G01X362005Y-59269D02*
G03I-355J0D01*
G01X361955Y-59229D02*
G03I-355J0D01*
G01X362415Y-59599D02*
G03I-355J0D01*
G01X361795Y-66219D02*
G03I-355J0D01*
G01X361325Y-62739D02*
G03I-355J0D01*
G01X361495Y-61269D02*
G03I-355J0D01*
G01X361765Y-58829D02*
G03I-355J0D01*
G01X360685Y-63439D02*
G03I-355J0D01*
G01X360815Y-61149D02*
G03I-355J0D01*
G01X359425Y-64829D02*
G03I-355J0D01*
G01X360055Y-64129D02*
G03I-355J0D01*
G01X359715Y-60659D02*
G03I-355J0D01*
G01X360155Y-60909D02*
G03I-355J0D01*
G01X359555Y-60569D02*
G03I-355J0D01*
G01X358795Y-65519D02*
G03I-355J0D01*
G01X358965Y-59969D02*
G03I-355J0D01*
G01X359195Y-60259D02*
G03I-355J0D01*
G01X358905Y-59879D02*
G03I-355J0D01*
G01X358635Y-59269D02*
G03I-355J0D01*
G01X358685Y-59459D02*
G03I-355J0D01*
G01X358565Y-58999D02*
G03I-355J0D01*
G01X358155Y-66219D02*
G03I-355J0D01*
G01X355385Y-64129D02*
G03I-355J0D01*
G01X355285Y-64479D02*
G03I-355J0D01*
G01X355455Y-63439D02*
G03I-355J0D01*
G01X355425Y-64009D02*
G03I-355J0D01*
G01X355455Y-63519D02*
G03I-355J0D01*
G01Y-62739D02*
G03I-355J0D01*
G01Y-62049D02*
G03I-355J0D01*
G01Y-61359D02*
G03I-355J0D01*
G01Y-60659D02*
G03I-355J0D01*
G01Y-59969D02*
G03I-355J0D01*
G01Y-59269D02*
G03I-355J0D01*
G01Y-59589D02*
G03I-355J0D01*
G01D02*
G03I-355J0D01*
G01D02*
G03I-355J0D01*
G01X354425Y-65519D02*
G03I-355J0D01*
G01X354355Y-65569D02*
G03I-355J0D01*
G01X354745Y-65279D02*
G03I-355J0D01*
G01X355105Y-64829D02*
G03I-355J0D01*
G01X355055Y-64909D02*
G03I-355J0D01*
G01X353755Y-65949D02*
G03I-355J0D01*
G01X371285Y-74469D02*
G03I-355J0D01*
G01X370565Y-72789D02*
G03I-355J0D01*
G01X370735Y-72739D02*
G03I-355J0D01*
G01X370885Y-72659D02*
G03I-355J0D01*
G01X371025Y-72549D02*
G03I-355J0D01*
G01X371135Y-72409D02*
G03I-355J0D01*
G01X371215Y-72259D02*
G03I-355J0D01*
G01X371265Y-72089D02*
G03I-355J0D01*
G01X371285Y-71919D02*
G03I-355J0D01*
G01X371265Y-71749D02*
G03I-355J0D01*
G01X371205Y-71589D02*
G03I-355J0D01*
G01X371115Y-71449D02*
G03I-355J0D01*
G01X370995Y-71329D02*
G03I-355J0D01*
G01X370855Y-71239D02*
G03I-355J0D01*
G01X370695Y-71179D02*
G03I-355J0D01*
G01X370525Y-71159D02*
G03I-355J0D01*
G01X370395Y-72819D02*
G03I-355J0D01*
G01Y-72809D02*
G03I-355J0D01*
G01X368835Y-74469D02*
G03I-355J0D01*
G01X371285Y-58579D02*
G03I-355J0D01*
G01Y-57889D02*
G03I-355J0D01*
G01Y-56499D02*
G03I-355J0D01*
G01Y-57189D02*
G03I-355J0D01*
G01Y-55799D02*
G03I-355J0D01*
G01Y-55109D02*
G03I-355J0D01*
G01Y-66669D02*
G03I-355J0D01*
G01Y-66219D02*
G03I-355J0D01*
G01Y-65519D02*
G03I-355J0D01*
G01Y-64129D02*
G03I-355J0D01*
G01Y-64829D02*
G03I-355J0D01*
G01Y-63439D02*
G03I-355J0D01*
G01Y-62739D02*
G03I-355J0D01*
G01Y-62049D02*
G03I-355J0D01*
G01Y-60659D02*
G03I-355J0D01*
G01Y-61359D02*
G03I-355J0D01*
G01Y-59969D02*
G03I-355J0D01*
G01Y-59269D02*
G03I-355J0D01*
G01X366795Y-53449D02*
G03I-355J0D01*
G01X363765D02*
G03I-355J0D01*
G01X362095Y-53569D02*
G03I-355J0D01*
G01X361375Y-53719D02*
G03I-355J0D01*
G01X360455Y-53919D02*
G03I-355J0D01*
G01X359665Y-54419D02*
G03I-355J0D01*
G01X359905Y-54219D02*
G03I-355J0D01*
G01X353945Y-54419D02*
G03I-355J0D01*
G01X353765Y-54269D02*
G03I-355J0D01*
G01X371285Y-54419D02*
G03I-355J0D01*
G01Y-53919D02*
G03I-355J0D01*
G01D02*
G03I-355J0D01*
G01X369945Y-53719D02*
G03I-355J0D01*
G01X369045Y-53589D02*
G03I-355J0D01*
G54D19*
X37500Y172500D03*
X209500Y30500D03*
X194000Y168000D03*
G54D28*
X110646Y188543D03*
X175606D03*
G54D29*
X157500Y60250D03*
Y67750D03*
X174500Y60250D03*
Y67750D03*
X165000Y53250D03*
Y45750D03*
X166000Y60250D03*
Y67750D03*
X170500Y85750D03*
Y78250D03*
X161000D03*
Y85750D03*
X201500Y72250D03*
Y64750D03*
X193500Y72250D03*
Y64750D03*
M02*
